<svg width="115px" height="256px" viewBox="0 0 115 256" version="1.1" xmlns="http://www.w3.org/2000/svg" xmlns:xlink="http://www.w3.org/1999/xlink">
    <g id="Prototype-shape-slim" stroke="none" stroke-width="1" fill="none" fill-rule="evenodd">
        <g id="Skin-shape-slim" transform="translate(-995.000000, -396.000000)" fill-rule="nonzero">
            <g id="Main-Content-shape-slim" transform="translate(150.000000, 140.000000)">
                <g id="Group-6-shape-slim" transform="translate(471.000000, 121.000000)">
                    <g id="Group-4" transform="translate(299.000000, 112.000000)">
                        <g id="shape_model_slim" transform="translate(75.000000, 23.000000)">
                            <polygon id="Shape-230" fill="#FFFFFF" points="115 64 90.1678079 64 90.1678079 0 24.8321921 0 24.8321921 64 0 64 0 160.659622 24.8321921 160.659622 24.8321921 256 57.5055454 256 58.814254 256 90.1678079 256 90.1678079 160.659622 115 160.659622"></polygon>
                            <path d="M115,64 L90.1702025,64 L90.1702025,0 L24.8408872,0 L24.8408872,64 L0,64 L0,160.659622 L24.8408872,160.659622 L24.8408872,256 L90.1702025,256 L90.1702025,160.659622 L115,160.659622 L115,64 Z M88.8616201,159.340378 L26.1383799,159.340378 L26.1383799,65.3081587 L88.8616201,65.3081587 L88.8616201,159.340378 Z M26.1494696,1.30815867 L88.8616201,1.30815867 L88.8616201,64 L26.1494696,64 L26.1494696,1.30815867 Z M24.707811,159.351464 L1.30858245,159.351464 L1.30858245,65.3081587 L24.707811,65.3081587 L24.707811,159.351464 Z M88.8616201,254.691841 L26.1494696,254.691841 L26.1494696,160.615278 L88.8616201,160.615278 L88.8616201,254.691841 Z M113.691418,159.351464 L90.1702025,159.351464 L90.1702025,65.3081587 L113.691418,65.3081587 L113.691418,159.351464 Z" id="Shape-232" fill="#1D1D1B"></path>
                            <path d="M57,160.104283 L58.6099854,160.104283 L58.6099854,255 L57,255 L57,160.104283 Z" id="Rectangle-path-shape-slim" fill="#1D1D1B"></path>
                        </g>
                    </g>
                </g>
            </g>
        </g>
    </g>
</svg>