<svg width="131px" height="256px" viewBox="0 0 131 256" version="1.1" xmlns="http://www.w3.org/2000/svg" xmlns:xlink="http://www.w3.org/1999/xlink">
    <g id="Prototype-shape-classic" stroke="none" stroke-width="1" fill="none" fill-rule="evenodd">
        <g id="Skin-shape-classic" transform="translate(-691.000000, -396.000000)" fill-rule="nonzero">
            <g id="Main-Content-shape-classic" transform="translate(150.000000, 140.000000)">
                <g id="Group-6-shape-classic" transform="translate(471.000000, 121.000000)">
                    <g id="Group-5" transform="translate(3.000000, 112.000000)">
                        <g id="shape_model_classic" transform="translate(67.000000, 23.000000)">
                            <polygon id="Shape-229" fill="#FFFFFF" points="131 63.9972286 98.2861755 63.9972286 98.2861755 0 32.7138245 0 32.7138245 63.9972286 0 63.9972286 0 160.652665 32.7138245 160.652665 32.7138245 256 65.5055655 256 66.8190161 256 98.2861755 256 98.2861755 160.652665 131 160.652665"></polygon>
                            <path d="M131,64 L98.288955,64 L98.288955,0 L32.722175,0 L32.722175,64 L0,64 L0,160.659622 L32.722175,160.659622 L32.722175,256 L98.288955,256 L98.288955,160.659622 L131,160.659622 L131,64 Z M96.975616,159.340378 L34.024384,159.340378 L34.024384,65.3081587 L96.975616,65.3081587 L96.975616,159.340378 Z M34.035514,1.30815867 L96.975616,1.30815867 L96.975616,64 L34.035514,64 L34.035514,1.30815867 Z M32.5886151,159.351464 L1.313339,159.351464 L1.313339,65.3081587 L32.5886151,65.3081587 L32.5886151,159.351464 Z M96.975616,254.691841 L34.035514,254.691841 L34.035514,160.615278 L96.975616,160.615278 L96.975616,254.691841 Z M129.686661,159.351464 L98.288955,159.351464 L98.288955,65.3081587 L129.686661,65.3081587 L129.686661,159.351464 Z" id="Shape-231" fill="#1D1D1B"></path>
                            <polygon id="Rectangle-path-shape-model" fill="#1D1D1B" points="65 159.998474 66.539978 159.998474 66.539978 255 65 255"></polygon>
                        </g>
                    </g>
                </g>
            </g>
        </g>
    </g>
</svg>