<svg xmlns="http://www.w3.org/2000/svg" width="1132" height="528" viewBox="0 0 1132 528">
  <title>esrb</title>
  <rect width="1132" height="528" fill="#fff"/>
  <g>
    <polygon points="1126.24 5.67 5.67 5.67 5.67 521.38 383.74 521.38 1126.24 521.38 1126.24 5.67" fill="#000"/>
    <rect x="25.67" y="22.94" width="337.22" height="78.67" fill="#fff"/>
    <rect x="26.31" y="121.04" width="336.61" height="306.73" fill="#fff"/>
    <path d="M26.683,499.725v-46.12h67.81v10.79H53.923v6.59h34.31v10.75H53.923v7.23h42.15v10.76Zm126.97-32.686c-.43-1.57-1.95-2.56-3.92-3.14a25.6786,25.6786,0,0,0-7.05-.85c-5.99,0-8.64.98-8.64,2.7,0,6.82,47.77,2.55,47.77,19.32,0,10.69-16.06,15.89-38.88,15.89-21.94,0-36.24-7.11-36.83-15.45h26.09c.57,1.69,2.21,2.87,4.5,3.63a24.0813,24.0813,0,0,0,7.76,1.16c6.81,0,11.35-1.18,11.35-3.36,0-6.98-47.86-2.18-47.86-19.77,0-9.81,15.26-14.73,36.05-14.73,23.04,0,33.58,6.54,35.56,14.6Zm68.939,6.552h10.73c8.44,0,12.94-1.22,12.94-4.38,0-3.26-4.59-4.81-10.96-4.81h-12.71v9.19Zm0,10.07v16.06h-27.21v-46.12h39.24c27.68,0,36.79,4.23,36.79,13.18,0,5.34-4.23,9.75-13.92,11.3,8.75,1.77,14.07,2.87,14.07,12.17,0,6.01-.36,8.08,2.86,8.08v1.39h-27.58c-.67-1.03-1.37-3.96-1.37-8.07,0-6.05-1.86-7.99-14.55-7.99Zm92.809-19.265v7.72h11.35c5.41,0,9.37-1.41,9.37-4.05,0-3.59-5.38-3.67-11.11-3.67h-9.61Zm0,16.07v8.5h11.88c6.76,0,11.82-.77,11.82-4.21,0-4.04-6.33-4.29-15.05-4.29h-8.65Zm-27.21,19.26v-46.12h39.71c18.74,0,33.61,2.48,33.61,11.63,0,4.75-5.56,8.19-10.87,10,9,1.29,13.83,5.62,13.83,10.58,0,10.27-14.19,13.91-35.78,13.91Z" fill="#fff"/>
    <rect x="385" y="23" width="719" height="479.748" fill="#fff"/>
    <path d="M457.87,292V225.429h36.828v7.856H465.091V253.9h25.611v7.856H465.091V292H457.87Zm70.886-5.949a24.9935,24.9935,0,0,1-6.993,5.268,17.0139,17.0139,0,0,1-7.538,1.77q-6.177,0-9.854-3.723-3.6795-3.723-3.679-10.035a15.4456,15.4456,0,0,1,1.726-7.402,12.8409,12.8409,0,0,1,4.723-5.04q2.997-1.818,9.082-2.68,8.1734-1.18,11.9879-2.815l.045-2.09q0-4.95-1.77-6.947-2.499-2.907-7.675-2.906-4.677,0-6.993,1.93t-3.406,7.243l-6.584-1.09q1.407-7.7655,5.699-11.307,4.29-3.543,12.283-3.542,6.222,0,9.763,2.3379a10.0674,10.0674,0,0,1,4.473,5.79,41.2434,41.2434,0,0,1,.931,10.0811v10.898a139.2135,139.2135,0,0,0,.4311,14.418,21.5074,21.5074,0,0,0,1.703,5.79h-6.993a20.265,20.265,0,0,1-1.362-5.949Zm-.545-18.255a42.4324,42.4324,0,0,1-10.944,3.088,20.5744,20.5744,0,0,0-5.903,1.658,6.5273,6.5273,0,0,0-2.611,2.634,8.0621,8.0621,0,0,0-.931,3.928,7.3245,7.3245,0,0,0,2.134,5.517,8.1319,8.1319,0,0,0,5.9029,2.066,11.8921,11.8921,0,0,0,6.5171-1.862,11.6065,11.6065,0,0,0,4.382-4.972q1.4535-3.111,1.453-9.06v-2.997ZM545.376,292V243.774h6.04v6.857a15.6705,15.6705,0,0,1,5.335-5.971,13.3647,13.3647,0,0,1,7.243-1.975,13.8425,13.8425,0,0,1,5.88,1.248,12.0779,12.0779,0,0,1,4.36,3.27,13.312,13.312,0,0,1,2.475,5.245,43.7618,43.7618,0,0,1,.817,9.9V292h-6.72V262.665a24.1441,24.1441,0,0,0-.909-7.765,7.7288,7.7288,0,0,0-2.838-3.792,7.648,7.648,0,0,0-4.4731-1.34,9.3082,9.3082,0,0,0-7.674,3.588q-2.86,3.588-2.86,12.306V292H545.376Zm57.353-7.311.908,7.22a19.859,19.859,0,0,1-4.995.727,10.2016,10.2016,0,0,1-5.63-1.385,7.0257,7.0257,0,0,1-2.93-3.792q-.795-2.4075-.794-9.582V250.132h-4.905v-6.358h4.905V231.832l6.675-4.905v16.847h6.766v6.358h-6.766v28.2q0,3.9045.59,5.04a3.3086,3.3086,0,0,0,3.224,1.635,17.8927,17.8927,0,0,0,2.9521-.318Zm32.06,1.362a24.9971,24.9971,0,0,1-6.994,5.268,17.0076,17.0076,0,0,1-7.538,1.77q-6.1755,0-9.854-3.723t-3.678-10.035a15.4341,15.4341,0,0,1,1.726-7.402,12.8385,12.8385,0,0,1,4.722-5.04q2.997-1.818,9.0819-2.68,8.1752-1.18,11.9891-2.815l.0449-2.09q0-4.95-1.77-6.947-2.499-2.907-7.675-2.906-4.6768,0-6.9929,1.93t-3.4061,7.243l-6.585-1.09q1.4086-7.7655,5.7-11.307t12.2831-3.542q6.22,0,9.763,2.3379a10.0761,10.0761,0,0,1,4.473,5.79,41.2528,41.2528,0,0,1,.93,10.0811v10.898a139.1375,139.1375,0,0,0,.432,14.418,21.5074,21.5074,0,0,0,1.703,5.79h-6.993a20.265,20.265,0,0,1-1.362-5.949Zm-.545-18.255a42.4446,42.4446,0,0,1-10.944,3.088,20.5836,20.5836,0,0,0-5.9039,1.658,6.5279,6.5279,0,0,0-2.61,2.634,8.0514,8.0514,0,0,0-.932,3.928,7.3248,7.3248,0,0,0,2.135,5.517,8.1319,8.1319,0,0,0,5.903,2.066,11.8862,11.8862,0,0,0,6.516-1.862,11.6023,11.6023,0,0,0,4.383-4.972q1.452-3.111,1.453-9.06v-2.997Zm14.622,9.809,6.63-1.272q.59,5.0865,3.224,7.561a11.3551,11.3551,0,0,0,13.736.318,7.055,7.055,0,0,0,2.384-5.472,5.314,5.314,0,0,0-2.0431-4.45q-1.4085-1.0905-6.812-2.725-7.81-2.406-10.444-4.086a11.4851,11.4851,0,0,1-4.087-4.496,13.7543,13.7543,0,0,1-1.453-6.403,13.4125,13.4125,0,0,1,3.95-10.036q3.951-3.8595,10.945-3.86a17.8106,17.8106,0,0,1,7.742,1.59,12.258,12.258,0,0,1,5.109,4.268,18.6094,18.6094,0,0,1,2.4521,7.6749l-6.54,1.09q-.9075-7.902-8.582-7.9019-4.359,0-6.494,1.7489a5.5271,5.5271,0,0,0-2.134,4.472,5.0066,5.0066,0,0,0,2.044,4.224q1.2256.9076,7.2651,2.9061,8.31,2.679,10.763,4.246a10.6386,10.6386,0,0,1,3.814,4.268,14.1237,14.1237,0,0,1,1.362,6.426,14.89,14.89,0,0,1-4.382,11.17q-4.3817,4.269-11.9651,4.27-14.214,0-16.484-15.5311Zm40.506,32.968-.727-7.675a12.6109,12.6109,0,0,0,3.814.727,6.56,6.56,0,0,0,3.52-.863,6.4292,6.4292,0,0,0,2.293-2.679q.318-.636,2.634-7.992l-15.031-48.317h7.22l8.265,27.928q1.6236,5.5336,2.86,11.17,1.1162-5.5527,2.725-10.989l8.447-28.109h6.72l-15.03,49.043q-2.952,9.537-4.6551,12.738a12.1568,12.1568,0,0,1-3.86,4.61,8.7368,8.7368,0,0,1-4.881,1.4071,11.4091,11.4091,0,0,1-4.3141-1ZM765.524,292l-21.16-66.571h7.81l14.213,48.362q1.577,5.41,2.861,10.898,1.2718-5.4957,2.9061-10.898l14.7589-48.362h7.356L772.926,292Zm34.24-57.171v-9.4h6.675v9.4Zm0,57.171V243.774h6.675V292Zm14.44-24.113q0-12.4875,5.245-18.845a16.9839,16.9839,0,0,1,26.497,0q5.313,6.357,5.313,18.346,0,12.987-5.222,19.344a17.0118,17.0118,0,0,1-26.543-.022Q814.205,280.329,814.204,267.887Zm6.857,0q0,9.3555,3.406,13.918a10.2014,10.2014,0,0,0,8.446,4.564q4.7235,0,8.106-4.609t3.383-13.873q0-9.309-3.406-13.873a10.2028,10.2028,0,0,0-8.446-4.563q-4.7685,0-8.129,4.586T821.061,267.887ZM858.933,292V225.429h6.675V292Zm44.184-15.53,6.903,1.044q-1.725,7.7205-6.244,11.648a16.4564,16.4564,0,0,1-11.194,3.928,16.7051,16.7051,0,0,1-13.6-6.38q-5.2-6.381-5.2-18.414,0-12.4875,5.245-19.05a16.3019,16.3019,0,0,1,13.2831-6.561,15.7447,15.7447,0,0,1,12.805,6.448q5.1315,6.4485,5.132,18.663l-.0461,2.18H880.6851q.4078,8.1285,3.7689,12.26a10.1871,10.1871,0,0,0,8.173,4.133q7.539,0,10.49-9.9Zm-22.024-13.215h22.07q-.4545-6.2655-2.68-9.354a9.747,9.747,0,0,0-15.893-.749Q881.41,256.8975,881.093,263.255ZM918.466,292V243.774h6.04v6.857a15.6705,15.6705,0,0,1,5.335-5.971,13.3623,13.3623,0,0,1,7.243-1.975,13.8425,13.8425,0,0,1,5.88,1.248,12.0792,12.0792,0,0,1,4.36,3.27,13.312,13.312,0,0,1,2.475,5.245,43.7677,43.7677,0,0,1,.817,9.9V292h-6.72V262.665a24.1441,24.1441,0,0,0-.909-7.765,7.7282,7.7282,0,0,0-2.838-3.792,7.6477,7.6477,0,0,0-4.473-1.34,9.3079,9.3079,0,0,0-7.674,3.588q-2.86,3.588-2.86,12.306V292h-6.676Zm68.342-17.665,6.585,1.045q-1.1355,8.628-5.7,13.169a14.9886,14.9886,0,0,1-10.966,4.54,15.5772,15.5772,0,0,1-12.783-6.38q-5.0175-6.3795-5.018-18.867,0-12.579,5.064-18.868a15.9573,15.9573,0,0,1,13.01-6.29,14.8021,14.8021,0,0,1,10.33,3.815q4.2,3.8145,5.381,11.443l-6.493,1.226a14.1984,14.1984,0,0,0-3.315-7.333,7.6307,7.6307,0,0,0-5.676-2.43,9.8322,9.8322,0,0,0-8.197,4.382q-3.2475,4.383-3.247,13.919,0,9.8535,3.11,14.258a9.4,9.4,0,0,0,7.97,4.405,8.5507,8.5507,0,0,0,6.517-2.929q2.7-2.928,3.428-9.105Zm39.28,2.135,6.902,1.044q-1.725,7.7205-6.244,11.648a16.4522,16.4522,0,0,1-11.193,3.928,16.7051,16.7051,0,0,1-13.6-6.38q-5.2-6.381-5.2-18.414,0-12.4875,5.245-19.05a16.3,16.3,0,0,1,13.282-6.561,15.7449,15.7449,0,0,1,12.8059,6.448q5.13,6.4485,5.131,18.663l-.045,2.18h-29.5171q.41,8.1285,3.77,12.26a10.1871,10.1871,0,0,0,8.1729,4.133q7.539,0,10.49-9.9Zm-22.024-13.215h22.07q-.4543-6.2655-2.68-9.354a9.7469,9.7469,0,0,0-15.8929-.749q-3.18,3.7455-3.497,10.103Z" fill="#000"/>
    <g>
      <path d="M203.241,44.331a13.2417,13.2417,0,0,0-4-6.15q-2.76-2.31-7.79-2.31c-3.33,0-5.94.77-7.78,2.31a13.1061,13.1061,0,0,0-4.01,6.15,34.5308,34.5308,0,0,0-1.45,8.76q-.225,4.92-.22,10.22,0,5.22.22,10.16a35.0855,35.0855,0,0,0,1.45,8.79,13.1007,13.1007,0,0,0,4.01,6.18c1.84,1.54,4.45,2.31,7.78,2.31q5.025,0,7.79-2.31a13.2356,13.2356,0,0,0,4-6.18,32.5594,32.5594,0,0,0,1.45-8.79q.225-4.935.22-10.16,0-5.295-.22-10.22A32.0663,32.0663,0,0,0,203.241,44.331Zm-6.75,27.77a34.7037,34.7037,0,0,1-.72,6.07,7.8314,7.8314,0,0,1-1.56,3.49,3.471,3.471,0,0,1-2.76,1.14,3.5272,3.5272,0,0,1-2.76-1.14,7.9429,7.9429,0,0,1-1.56-3.49,34.1215,34.1215,0,0,1-.69-6.07c-.12-2.47-.17-5.4-.17-8.79s.05-6.32.17-8.79a34.1215,34.1215,0,0,1,.69-6.07,8.044,8.044,0,0,1,1.56-3.5,3.5535,3.5535,0,0,1,2.76-1.13,3.4965,3.4965,0,0,1,2.76,1.13,7.93,7.93,0,0,1,1.56,3.5,34.7037,34.7037,0,0,1,.72,6.07Q196.8131,63.308,196.491,72.101Z" fill="#000"/>
      <polygon points="160.041 59.193 154.201 36.753 145.291 36.753 155.521 71.483 155.521 89.853 163.681 89.853 163.681 71.483 174.581 36.753 166.261 36.753 160.041 59.193" fill="#000"/>
      <polygon points="232.964 73.537 232.874 73.537 222.484 36.757 211.454 36.757 211.454 89.857 219.074 89.857 219.074 51.027 219.174 51.027 229.834 89.857 240.594 89.857 240.594 36.757 232.964 36.757 232.964 73.537" fill="#000"/>
      <path d="M143.14,82.527c-.08-1.63-.13-3.2-.14-4.73-.01-1.51-.04-2.69-.04-3.51a14.8563,14.8563,0,0,0-.85-5.64,8.5794,8.5794,0,0,0-2.03-3.06,5.7554,5.7554,0,0,0-2.34-1.32c-.8-.2-1.42-.35-1.84-.44v-.14a7.63,7.63,0,0,0,5.57-4.42,20.0206,20.0206,0,0,0,1.67-8.62q0-6.825-2.47-10.37a7.71,7.71,0,0,0-6.68-3.52H118.94v53.1h8.14V67.867h2.11a5.6009,5.6009,0,0,1,3.53.97,5.1419,5.1419,0,0,1,1.74,2.53,12.7534,12.7534,0,0,1,.54,3.72c.01,1.42.01,2.91.01,4.49,0,1.71.04,3.46.04,5.21a15.7683,15.7683,0,0,0,.85,5.07h8a13.2294,13.2294,0,0,1-.46-2.85C143.29,85.627,143.22,84.127,143.14,82.527Zm-8.45-27.97a8.6455,8.6455,0,0,1-.7,2.53,4.9532,4.9532,0,0,1-1.29,1.87,2.8359,2.8359,0,0,1-2.01.75h-3.61V44.917h3.61a3.4941,3.4941,0,0,1,3.06,1.6q1.125,1.56,1.12,5.4A22.6712,22.6712,0,0,1,134.69,54.557Z" fill="#000"/>
      <path d="M289.676,41.604a39.6429,39.6429,0,0,1-3.96,3.56v9.93c1.12-.86,2.21-1.78,3.3-2.74a29.0851,29.0851,0,0,0,3.08-3.18v40.68h8.17V36.984h-7.26A22.4962,22.4962,0,0,1,289.676,41.604Z" fill="#000"/>
      <polygon points="255.617 66.177 267.717 66.177 267.717 58.017 255.617 58.017 255.617 44.917 268.757 44.917 268.757 36.757 247.457 36.757 247.457 89.857 269.177 89.857 269.177 81.707 255.617 81.707 255.617 66.177" fill="#000"/>
      <path d="M328.02,42.197a8.4463,8.4463,0,0,0-3.33-4.53,12.2736,12.2736,0,0,0-11.27,0,8.6121,8.6121,0,0,0-3.3,4.53,32.16,32.16,0,0,0-1.57,8.35q-.39,5.145-.39,12.72c0,4.15.08,7.9.27,11.26a35.6236,35.6236,0,0,0,1.36,8.6,12.0815,12.0815,0,0,0,3.27,5.5,10.3036,10.3036,0,0,0,11.98,0,12.03,12.03,0,0,0,3.3-5.5,37.0887,37.0887,0,0,0,1.38-8.6c.18-3.36.28-7.11.28-11.26q0-7.575-.43-12.72A31.8285,31.8285,0,0,0,328.02,42.197Zm-5.75,31.01a40.8932,40.8932,0,0,1-.43,5.9,6.4032,6.4032,0,0,1-.99,2.92,2.1256,2.1256,0,0,1-1.77.79,2.1784,2.1784,0,0,1-1.79-.79,6.6163,6.6163,0,0,1-1.01-2.92,47.6813,47.6813,0,0,1-.43-5.9c-.04-2.54-.07-5.79-.07-9.78,0-4.09,0-7.4.05-9.92a39.75,39.75,0,0,1,.39-5.88,6.0523,6.0523,0,0,1,.95-2.85,2.4475,2.4475,0,0,1,1.91-.75h0a2.4242,2.4242,0,0,1,1.86.75,5.8626,5.8626,0,0,1,1.01,2.85,49.3323,49.3323,0,0,1,.36,5.88c.03,2.52.06,5.83.06,9.92C322.37,67.417,322.34,70.667,322.27,73.207Z" fill="#000"/>
      <polygon points="100.227 66.177 112.327 66.177 112.327 58.017 100.227 58.017 100.227 44.917 113.347 44.917 113.347 36.757 92.067 36.757 92.067 89.857 113.787 89.857 113.787 81.707 100.227 81.707 100.227 66.177" fill="#000"/>
      <polygon points="347.608 61.556 347.608 47.056 341.608 47.056 341.608 61.556 332.408 61.556 332.408 69.726 341.608 69.726 341.608 84.216 347.608 84.216 347.608 69.726 356.738 69.726 356.738 61.556 347.608 61.556" fill="#000"/>
      <polygon points="73.519 75.373 73.409 75.373 67.349 36.753 58.869 36.753 68.489 89.853 78.059 89.853 88.389 36.753 80.319 36.753 73.519 75.373" fill="#000"/>
      <polygon points="43.134 66.177 55.234 66.177 55.234 58.017 43.134 58.017 43.134 44.917 56.284 44.917 56.284 36.757 34.974 36.757 34.974 89.857 56.714 89.857 56.714 81.707 43.134 81.707 43.134 66.177" fill="#000"/>
    </g>
    <g>
      <path d="M175.895,353.5c.1-23.18-7.55-33.22-21.03-33.29-12.03-.02-22.55,6.11-22.68,32.54-.1,19.31,5.57,32.76,22.46,32.84C171.905,385.69,175.825,367.95,175.895,353.5Z" fill="#000"/>
      <path d="M308.709,300.444l-98.74,29.43-8.23-25.98,88.27-26.25-19.09-60.32-88.34,26.28-7.84-24.67,95.64-28.44-19.14-60.28-190.87,56.86,39.7324,125.06h9.1776v28.887l7.2411,22.7917a63.4826,63.4826,0,0,1-.8111-10.3187c0-20.2,7.75-41.69,39.32-41.69,23.33,0,37.4,15.5,37.4,41.69,0,24.66-12.44,41.69-38.35,41.69-16.5571,0-27.5894-6.93-33.4182-18.3382L133.899,418.514l193.98-57.81Zm-73.35,63.83h-13.62v13.13h-7.69v-13.13h-13.56v-7.45h13.56v-13.16h7.69v13.16h13.62Z" fill="#000"/>
      <path d="M91.819,312.134c-6.6,5.61-13.34,8.8-24.19,12.13v15.29c9.33-2.72,18.66-6.7,23.73-11.41v63.07h17.92V341.021l-9.1776-28.887Z" fill="#000"/>
    </g>
    <g>
      <path d="M336.32,401.12v-.06c2.89-.57,4.35-2.43,4.35-4.74,0-4.55-4.07-5.57-8.03-5.57h-7.05v20.16h3.39v-8.65h2.83c1.18.09,2.33,0,3.19.74.98.93.98,2.58,1.22,4.31a34.6864,34.6864,0,0,0,.71,3.6h4.32a25.8732,25.8732,0,0,1-1.28-5.79C339.63,402.95,339.25,401.66,336.32,401.12Zm-3.73-2.03h-3.61v-5.17h4.05c2.72,0,3.48.79,3.48,2.33C336.51,397.72,335.75,399.01,332.59,399.09Z" fill="#000"/>
      <path d="M332.93,384c-10.31,0-18.52,7.65-18.52,17.09,0,9.48,8.21,17.16,18.52,17.16,10.16,0,18.38-7.68,18.38-17.16C351.31,391.65,343.09,384,332.93,384Zm0,31.25c-8.42,0-15.25-6.37-15.25-14.16,0-7.77,6.83-14.06,15.25-14.06,8.39,0,15.13,6.29,15.13,14.06C348.06,408.88,341.32,415.25,332.93,415.25Z" fill="#000"/>
    </g>
  </g>
</svg>
