<svg xmlns="http://www.w3.org/2000/svg" viewBox="0 0 271.18 163.19">
    <g fill="#838383">
        <path d="M150.15 138.59c-.16 2.76-2.77 4-5 4.68a15.11 15.11 0 0 1-7.21.66c-1.89-.35-4-1.15-5.08-2.87-1.3-2.14.33-4.62 2.31-5.71 3.65-2 9.65-2.17 13.28.14a3.36 3.36 0 0 1 1.73 3.1"/>
        <path d="M263.83 137.41a33 33 0 0 0-3.16-2.2c-.77-.48-1.56-.92-2.37-1.33-18.83-9.48-57-19.85-118.38-21.49-15.78-.39-89.92-1.51-131.8 10.29a25.23 25.23 0 0 0-2.46.78 13.81 13.81 0 0 0-4.3 2.12 3.27 3.27 0 0 0 .38 5.55c3 1.53 8.15.81 8.88.7.94-.13 1.87-.3 2.8-.48 89-12.07 137.35-5.14 159.5-1.77 1.19.19 3.1.2 3.75 1.42a1.52 1.52 0 0 1-.57 2.19 4.49 4.49 0 0 1-1.58.27c-1.22 0-3.4.09-5.83.25-4.18.15-8.1.54-10.05 1.41-4.67 2.07-3.13 4.91-2.92 5.19 1 1.32 2.51 1.61 4 1.72s5.35.4 6.8.51a264.29 264.29 0 0 1 65.4 13.46c5.85 2 11.37 4.81 17.41 6.25a35.1 35.1 0 0 0 5.19.85c4.31.35 9.77-.17 13-3.34a11.31 11.31 0 0 0 2.16-2.89 13.52 13.52 0 0 0 1.41-4.94c.46-5.73-2.95-11.09-7.31-14.51M189.83 57.42a5 5 0 1 1-5-5 5 5 0 0 1 5 5M78.61 78.61q-2.53-2.69-8.42-5.52a21.74 21.74 0 0 1-5.35-3.21 4.65 4.65 0 0 1-1.48-3.54A3.83 3.83 0 0 1 65 63.1a7.49 7.49 0 0 1 4.51-1.23A17.53 17.53 0 0 1 79.72 65v-9.26A29.37 29.37 0 0 0 69 54q-7.32 0-11.73 3.59a11.72 11.72 0 0 0-4.38 9.54q0 8.17 10.1 13a31.44 31.44 0 0 1 6.1 3.42 5 5 0 0 1 2.1 3.88 3.87 3.87 0 0 1-1.42 3 7.57 7.57 0 0 1-5 1.45 17.58 17.58 0 0 1-11.68-4.5v9.86a23.89 23.89 0 0 0 11.41 2.51c6.08 0 10.59-1.43 13.56-4.25a11.86 11.86 0 0 0 3.6-8.94 11.21 11.21 0 0 0-3-8M104.28 91.4a6.67 6.67 0 0 1-3.17.89q-3.92 0-3.92-4.93V74.6h7.09v-7.18h-7.09v-9.59l-9.71 2.78v6.81h-5.11v7.18h5.11v14.45q0 10.71 10.29 10.7a14.66 14.66 0 0 0 6.51-1.14zM138.92 67.42h-9.71v18.06a7.28 7.28 0 0 1-1.59 5 5.3 5.3 0 0 1-4.16 1.82q-5.31 0-5.3-6.69V67.42h-9.71v19q0 13.29 11 13.29 6.08 0 9.64-5.58h.15V99h9.71V67.42zM165.49 83.63a10 10 0 0 1-1.91 6.37 5.91 5.91 0 0 1-4.77 2.28 5.82 5.82 0 0 1-4.69-2q-1.94-2.25-1.94-6.63a12 12 0 0 1 1.8-6.94 5.83 5.83 0 0 1 5.07-2.59 5.93 5.93 0 0 1 4.66 2 7.48 7.48 0 0 1 1.78 5.13v2.37zm-.18-31.38V71h-.13q-2.4-4.4-8.5-4.39a13 13 0 0 0-10.36 4.63q-4 4.74-4 12.64t4 12.14a12 12 0 0 0 9.1 3.7 10.9 10.9 0 0 0 9.76-5.12h.13V99h9.74V52.25zM179.89 99h9.74V67.43h-9.74zM210.65 92.29c-4.88 0-7.34-3-7.34-9.09 0-3 .68-5.23 2-6.81a6.48 6.48 0 0 1 5.27-2.29q7 0 7.06 8.85 0 9.35-7 9.34m12.79-20.9q-4.53-4.74-12.67-4.74-7.86 0-12.47 4.25-4.87 4.44-4.88 12.42c0 5.06 1.5 9.05 4.5 12s7.14 4.42 12.42 4.42S220 98.2 223 95.09s4.53-7.14 4.53-12.33a15.87 15.87 0 0 0-4.13-11.37M251.21 83.44A17.18 17.18 0 0 0 245 80a16 16 0 0 1-3.86-1.79 2.75 2.75 0 0 1-1.07-2.28c0-1.76 1.28-2.65 3.85-2.65a14.85 14.85 0 0 1 7.7 2.17v-7.54a25.14 25.14 0 0 0-7.82-1.27q-6.12 0-9.68 2.77a8.73 8.73 0 0 0-3.58 7.28 8.39 8.39 0 0 0 2.1 6 14.56 14.56 0 0 0 5.6 3.31 26 26 0 0 1 4.84 2.23 2.44 2.44 0 0 1 1.11 2.07c0 1.91-1.55 2.86-4.63 2.86a17.59 17.59 0 0 1-9-2.86v7.88a25.23 25.23 0 0 0 9.15 1.61c4.53 0 8-1 10.48-3.09a9 9 0 0 0 3.36-7.33 7.91 7.91 0 0 0-2.31-5.89M257.17 6.67a1.16 1.16 0 0 0-.06-.4.48.48 0 0 0-.2-.27.77.77 0 0 0-.41-.16 2.78 2.78 0 0 0-.64-.06h-.63V7.6h.77a1.36 1.36 0 0 0 .85-.25.81.81 0 0 0 .31-.68m.1 4.39l-.61-1.5c-.05-.13-.11-.26-.17-.39a3 3 0 0 0-.22-.32 1.07 1.07 0 0 0-.25-.23.51.51 0 0 0-.29-.08h-.5v2.52h-1.12V4.8h1.9a3.64 3.64 0 0 1 1.13.15 1.92 1.92 0 0 1 .74.39 1.53 1.53 0 0 1 .41.55 2 2 0 0 1 .12.64 1.56 1.56 0 0 1-.4 1.07 2 2 0 0 1-1.12.62.63.63 0 0 1 .25.09.94.94 0 0 1 .24.19 1.89 1.89 0 0 1 .24.32 3.22 3.22 0 0 1 .27.5l.81 1.71zM260.51 8a4.46 4.46 0 0 0-.34-1.74 4.11 4.11 0 0 0-.93-1.37 4 4 0 0 0-1.37-.89 4.26 4.26 0 0 0-1.68-.32 4.61 4.61 0 0 0-1.77.33 4.23 4.23 0 0 0-1.38.92 4.15 4.15 0 0 0-.89 1.38 4.62 4.62 0 0 0-.31 1.69 4.28 4.28 0 0 0 1.27 3.13 4 4 0 0 0 1.39.89 4.49 4.49 0 0 0 1.69.31 4.2 4.2 0 0 0 1.66-.32 3.93 3.93 0 0 0 1.38-.9 4.13 4.13 0 0 0 .94-1.37 4.5 4.5 0 0 0 .34-1.74m.71 0a5.29 5.29 0 0 1-.22 1.3 5 5 0 0 1-.5 1.2 4.42 4.42 0 0 1-.78 1 4.84 4.84 0 0 1-1 .76 5.67 5.67 0 0 1-1.21.49 5.89 5.89 0 0 1-3.39-.2 4.86 4.86 0 0 1-1.58-1 4.79 4.79 0 0 1-1-1.56 5.1 5.1 0 0 1-.37-2 5.27 5.27 0 0 1 .17-1.33 5 5 0 0 1 .49-1.19 4.62 4.62 0 0 1 .77-1 4.84 4.84 0 0 1 1-.78 4.52 4.52 0 0 1 1.22-.49 5.3 5.3 0 0 1 1.39-.2 5.44 5.44 0 0 1 2 .35 4.73 4.73 0 0 1 2.67 2.55 5.09 5.09 0 0 1 .39 2M251.45 47.09a9.66 9.66 0 0 1-4.74 1q-8.27 0-8.26-9.31V20.12H233v-4.28h5.42v-7.7l5.08-1.64v9.34h7.95v4.28h-7.95v17.82c0 2.11.36 3.62 1.08 4.51a4.39 4.39 0 0 0 3.61 1.34 5.42 5.42 0 0 0 3.26-1v4.31zM54.37 47.4h-5.18V17.72q0-3.51.43-8.57h-.12a28.69 28.69 0 0 1-1.33 4.29l-15.06 34h-2.53L15.47 13.68a24.06 24.06 0 0 1-1.32-4.53H14c.17 1.77.24 4.65.24 8.63V47.4h-5V3.2h6.84L29.68 34a37.26 37.26 0 0 1 2 5.31h.22q1.33-3.62 2.1-5.41L47.86 3.2h6.51zM62.75 47.4V15.84h5V47.4zm5.93-42.87a3.15 3.15 0 0 1-1 2.34 3.22 3.22 0 0 1-2.35 1A3.29 3.29 0 0 1 63 6.9a3.18 3.18 0 0 1-1-2.37 3.15 3.15 0 0 1 1-2.33 3.4 3.4 0 0 1 4.69 0 3.1 3.1 0 0 1 1 2.33M96.78 46a16.28 16.28 0 0 1-8.66 2.21 14.23 14.23 0 0 1-10.94-4.49 15.88 15.88 0 0 1-4.07-11.28q0-7.77 4.46-12.55c3-3.18 7-4.77 12-4.77a15.94 15.94 0 0 1 7.3 1.6v5.18a12.86 12.86 0 0 0-7.52-2.47 10.15 10.15 0 0 0-7.85 3.36 13 13 0 0 0-3.18 9.19c0 3.67 1 6.58 2.91 8.71A10 10 0 0 0 89 43.85a12.72 12.72 0 0 0 7.76-2.71zM119.62 21a6.2 6.2 0 0 0-3.85-1 6.33 6.33 0 0 0-5.19 2.78c-1.57 2.08-2.37 4.95-2.37 8.6V47.4h-5V15.84h5v6.5h.13a11 11 0 0 1 3.42-5.34 7.56 7.56 0 0 1 4.84-1.73 8.08 8.08 0 0 1 3 .43V21zM146.54 31.68q0-6.08-2.75-9.24a9.26 9.26 0 0 0-7.42-3.05 9.78 9.78 0 0 0-7.55 3.07q-3 3.32-3 9.34c0 3.78 1 6.74 2.86 8.86a9.82 9.82 0 0 0 7.68 3.19q5 0 7.61-3.23t2.56-8.94m5.17-.19q0 7.56-4.25 12.11T136 48.17q-7.11 0-11.28-4.57-4-4.4-4-11.61 0-8.23 4.61-12.73 4.29-4.2 11.46-4.19c4.72 0 8.38 1.46 11 4.38s4 6.93 4 12M175.51 39a8.22 8.22 0 0 1-2.9 6.44c-2.12 1.86-5 2.78-8.65 2.78a15.51 15.51 0 0 1-7.84-1.91v-5.48a12.72 12.72 0 0 0 8.21 3c4 0 6-1.48 6-4.41A3.94 3.94 0 0 0 169 36.4a20.91 20.91 0 0 0-5.17-2.9 16.65 16.65 0 0 1-5.64-3.58 8.08 8.08 0 0 1-2-5.7 8.18 8.18 0 0 1 3.11-6.55 12.08 12.08 0 0 1 8-2.6 15 15 0 0 1 6.75 1.48v5.08a12 12 0 0 0-7.16-2.24 6.22 6.22 0 0 0-4 1.22 4 4 0 0 0-1.51 3.18 4.21 4.21 0 0 0 1.27 3.27 17.7 17.7 0 0 0 4.74 2.61 18.83 18.83 0 0 1 5.83 3.49 7.79 7.79 0 0 1 2.29 5.84M205.13 31.68c0-4.05-.92-7.13-2.74-9.24a9.31 9.31 0 0 0-7.39-3.05 9.76 9.76 0 0 0-7.55 3.07q-3 3.32-3 9.34c0 3.78 1 6.74 2.86 8.86a9.82 9.82 0 0 0 7.69 3.19q5 0 7.61-3.23t2.56-8.94m5.17-.19q0 7.56-4.25 12.11t-11.47 4.57c-4.73 0-8.5-1.52-11.27-4.57s-4.07-6.8-4.07-11.61q0-8.23 4.62-12.73 4.29-4.2 11.46-4.19c4.72 0 8.38 1.46 11 4.38s4 6.93 4 12M231.3 5.11a6.83 6.83 0 0 0-3.36-.83q-5.31 0-5.31 6.69v4.87H230v4.28h-7.4V47.4h-5V20.12h-5.36v-4.28h5.36v-5.12a10.51 10.51 0 0 1 3.24-8.17 11 11 0 0 1 10.48-2v4.56z"/>
    </g>
</svg>
