<svg xmlns="http://www.w3.org/2000/svg" viewBox="0 0 1033.7 220.7">
    <path d="M104.9 104.9H0V0h104.9v104.9z" fill="#f35325"/>
    <path d="M220.7 104.9H115.8V0h104.9v104.9z" fill="#81bc06"/>
    <path d="M104.9 220.7H0V115.8h104.9v104.9z" fill="#05a6f0"/>
    <path d="M220.7 220.7H115.8V115.8h104.9v104.9z" fill="#ffba08"/>
    <path d="M1033.7 99.8V81.7h-22.6V53.4l-.8.2-21.2 6.5-.4.1v21.5h-33.5v-12c0-5.6 1.2-9.8 3.7-12.6 2.4-2.8 5.9-4.2 10.3-4.2 3.2 0 6.5.8 9.8 2.2l.8.4V36.4l-.4-.1c-3.1-1.1-7.3-1.7-12.5-1.7-6.6 0-12.6 1.4-17.8 4.3-5.2 2.8-9.3 6.9-12.2 12.1-2.9 5.2-4.3 11.1-4.3 17.7v13H917v18.2h15.7v76.6h22.6V99.9h33.5v48.7c0 20 9.5 30.2 28.1 30.2 3.1 0 6.3-.4 9.6-1.1 3.4-.7 5.6-1.4 7-2.2l.3-.2V157l-.9.6c-1.2.8-2.8 1.5-4.5 2-1.8.5-3.3.8-4.5.8-4.4 0-7.6-1.2-9.6-3.5s-3.1-6.4-3.1-12.2V100l22.5-.2zm-167.1 60.5c-8.2 0-14.6-2.7-19.2-8.1s-6.9-13-6.9-22.8c0-10 2.3-17.9 6.9-23.4 4.6-5.4 10.9-8.2 19-8.2 7.8 0 14.1 2.6 18.5 7.8 4.5 5.2 6.8 13 6.8 23.2 0 10.3-2.1 18.2-6.4 23.5-4.1 5.3-10.4 8-18.7 8m1-80.9c-15.6 0-28 4.6-36.9 13.6-8.8 9-13.3 21.5-13.3 37.2 0 14.8 4.4 26.8 13 35.5s20.4 13.1 34.9 13.1c15.1 0 27.3-4.6 36.2-13.8 8.8-9.1 13.3-21.5 13.3-36.8 0-15.1-4.2-27.1-12.5-35.7-8.3-8.7-19.9-13.1-34.7-13.1m-86.6 0c-10.6 0-19.4 2.7-26.1 8.1-6.8 5.4-10.2 12.5-10.2 21 0 4.4.7 8.4 2.2 11.8s3.7 6.3 6.7 8.8 7.6 5 13.7 7.7c5.1 2.1 9 3.9 11.4 5.3s4.1 2.8 5 4.1c.9 1.3 1.4 3.1 1.4 5.4 0 6.4-4.8 9.5-14.6 9.5-3.6 0-7.8-.8-12.3-2.3s-8.8-3.6-12.6-6.4l-.9-.7v21.7l.3.2c3.2 1.5 7.2 2.7 12 3.7 4.7 1 9 1.5 12.8 1.5 11.5 0 20.8-2.7 27.6-8.1 6.8-5.4 10.3-12.7 10.3-21.5 0-6.4-1.9-11.9-5.5-16.3s-10-8.4-18.8-12c-7-2.8-11.5-5.2-13.4-7-1.8-1.7-2.7-4.2-2.7-7.3 0-2.8 1.1-5 3.4-6.8s5.6-2.7 9.6-2.7c3.8 0 7.6.6 11.4 1.8s7.2 2.7 10 4.6l.9.6V83.5l-.4-.2c-2.6-1.1-6-2.1-10.1-2.8-4.1-.7-7.8-1.1-11.1-1.1m-95.1 80.9c-8.2 0-14.6-2.7-19.2-8.1-4.6-5.4-6.9-13-6.9-22.8 0-10 2.3-17.9 6.9-23.4 4.5-5.4 10.9-8.2 19-8.2 7.8 0 14.1 2.6 18.5 7.8 4.5 5.2 6.8 13 6.8 23.2 0 10.3-2.1 18.2-6.4 23.5-4.2 5.3-10.5 8-18.7 8m1-80.9c-15.6 0-28 4.6-36.9 13.6-8.8 9-13.3 21.5-13.3 37.2 0 14.8 4.4 26.8 13 35.5s20.4 13.1 34.9 13.1c15.1 0 27.3-4.6 36.2-13.8 8.8-9.1 13.3-21.5 13.3-36.8 0-15.1-4.2-27.1-12.5-35.7-8.3-8.7-20-13.1-34.7-13.1m-84.5 18.7V81.7h-22.3v94.8h22.3V128c0-8.2 1.9-15 5.6-20.1 3.6-5.1 8.5-7.6 14.4-7.6 2 0 4.3.3 6.7 1s4.2 1.4 5.2 2.1l.9.7V81.6l-.4-.2c-2.1-.9-5-1.3-8.7-1.3-5.6 0-10.6 1.8-14.9 5.3-3.8 3.1-6.5 7.4-8.6 12.7h-.2zm-62.2-18.7c-10.2 0-19.3 2.2-27.1 6.5s-13.8 10.5-17.9 18.4c-4.1 7.8-6.1 17-6.1 27.2 0 9 2 17.2 6 24.4 4 7.3 9.6 12.9 16.7 16.9 7.1 3.9 15.3 5.9 24.4 5.9 10.6 0 19.6-2.1 26.9-6.3l.3-.2v-20.4l-.9.7c-3.3 2.4-7 4.3-10.9 5.7-3.9 1.4-7.5 2.1-10.7 2.1-8.7 0-15.8-2.7-20.9-8.1-5.1-5.4-7.7-13-7.7-22.5 0-9.6 2.7-17.4 8-23.1 5.3-5.7 12.3-8.6 20.9-8.6 7.3 0 14.5 2.5 21.2 7.4l.9.7V84.6l-.3-.2c-2.5-1.4-6-2.6-10.3-3.5-4.3-1.1-8.5-1.5-12.5-1.5m-66.5 2.3h-22.3v94.8h22.3V81.7zm-10.9-40.4c-3.7 0-6.9 1.2-9.5 3.7s-4 5.6-4 9.3c0 3.6 1.3 6.7 3.9 9.1 2.6 2.4 5.8 3.6 9.5 3.6s7-1.2 9.6-3.6c2.6-2.4 4-5.5 4-9.1s-1.3-6.7-3.9-9.2c-2.5-2.5-5.7-3.8-9.6-3.8m-55.6 33.4v101.8H430V44.2h-31.5l-40 98.2-38.8-98.2h-32.8v132.2h21.4V74.7h.7l41 101.8h16.1l40.3-101.8h.8z"/>
</svg>
