<svg data-name="Layer 1" xmlns="http://www.w3.org/2000/svg" xmlns:xlink="http://www.w3.org/1999/xlink" viewBox="0 0 840 211.607">
    <defs>
        <linearGradient id="dungeonsN" x1="287.094" y1="-65.612" x2="291.214" y2="-43.751" xlink:href="#dungeonsb"/>
        <linearGradient id="dungeonsa" x1="194.435" y1="-132.147" x2="194.435" y2="-195.694" gradientTransform="translate(0 199.81)" gradientUnits="userSpaceOnUse">
            <stop offset="0" stop-color="#d0c4c1"/>
            <stop offset="1" stop-color="#9d9695"/>
        </linearGradient>
        <linearGradient id="dungeonsf" x1="299.853" y1="-132.276" x2="299.853" y2="-195.822" xlink:href="#dungeonsa"/>
        <linearGradient id="dungeonsg" x1="363.914" y1="-132.276" x2="363.914" y2="-195.822" xlink:href="#dungeonsa"/>
        <linearGradient id="dungeonsh" x1="660.423" y1="-132.381" x2="660.423" y2="-196.13" xlink:href="#dungeonsa"/>
        <linearGradient id="dungeonsi" x1="604.401" y1="-132.404" x2="604.401" y2="-196.08" xlink:href="#dungeonsa"/>
        <linearGradient id="dungeonsj" x1="547.093" y1="-132.276" x2="547.093" y2="-195.951" xlink:href="#dungeonsa"/>
        <linearGradient id="dungeonsk" x1="486.763" y1="-132.311" x2="486.763" y2="-195.986" xlink:href="#dungeonsa"/>
        <linearGradient id="dungeonsl" x1="425.146" y1="-132.276" x2="425.146" y2="-195.886" xlink:href="#dungeonsa"/>
        <linearGradient id="dungeonsb" x1="769.052" y1="-100.475" x2="760.69" y2="-83.27" gradientTransform="translate(0 199.81)" gradientUnits="userSpaceOnUse">
            <stop offset="0" stop-color="#510018"/>
            <stop offset="1" stop-color="#1f0008"/>
        </linearGradient>
        <linearGradient id="dungeonsm" x1="798.853" y1="-86.618" x2="782.13" y2="-45.936" xlink:href="#dungeonsb"/>
        <linearGradient id="dungeonsn" x1="820.725" y1="-59.862" x2="803.145" y2="-28.56" xlink:href="#dungeonsb"/>
        <linearGradient id="dungeonso" x1="794.813" y1="-27.587" x2="776.965" y2="5.215" xlink:href="#dungeonsb"/>
        <linearGradient id="dungeonsp" x1="729.163" y1="-92.905" x2="716.299" y2="-66.32" xlink:href="#dungeonsb"/>
        <linearGradient id="dungeonsq" x1="711.431" y1="-55.71" x2="693.422" y2="-20.55" xlink:href="#dungeonsb"/>
        <linearGradient id="dungeonsr" x1="735.591" y1="-19.424" x2="714.581" y2="38.034" xlink:href="#dungeonsb"/>
        <linearGradient id="dungeonss" x1="630.6" y1="-68.884" x2="617.308" y2="-30.293" xlink:href="#dungeonsb"/>
        <linearGradient id="dungeonst" x1="650.15" y1="-61.783" x2="631.712" y2="-12.043" xlink:href="#dungeonsb"/>
        <linearGradient id="dungeonsu" x1="678.376" y1="-30.208" x2="662.082" y2="17.817" xlink:href="#dungeonsb"/>
        <linearGradient id="dungeonsv" x1="619.163" y1="-30.573" x2="608.014" y2="19.595" xlink:href="#dungeonsb"/>
        <linearGradient id="dungeonsw" x1="547.489" y1="-97.946" x2="545.237" y2="-67.073" xlink:href="#dungeonsb"/>
        <linearGradient id="dungeonsx" x1="592.56" y1="-38.082" x2="584.842" y2="-10.64" xlink:href="#dungeonsb"/>
        <linearGradient id="dungeonsy" x1="518.257" y1="-42.782" x2="518.578" y2="34.4" xlink:href="#dungeonsb"/>
        <linearGradient id="dungeonsz" x1="556.814" y1="-19.968" x2="550.061" y2="24.412" xlink:href="#dungeonsb"/>
        <linearGradient id="dungeonsA" x1="476.922" y1="-93.599" x2="476.922" y2="-69.48" xlink:href="#dungeonsb"/>
        <linearGradient id="dungeonsB" x1="479.199" y1="-56.971" x2="478.235" y2="-40.248" xlink:href="#dungeonsb"/>
        <linearGradient id="dungeonsC" x1="467.564" y1="-22.971" x2="466.599" y2="19.5" xlink:href="#dungeonsb"/>
        <linearGradient id="dungeonsD" x1="71.93" y1="-98.058" x2="80.934" y2="-76.619" xlink:href="#dungeonsb"/>
        <linearGradient id="dungeonsE" x1="42.697" y1="-80.305" x2="50.199" y2="-62.085" xlink:href="#dungeonsb"/>
        <linearGradient id="dungeonsF" x1="25.845" y1="-50.914" x2="33.135" y2="-29.904" xlink:href="#dungeonsb"/>
        <linearGradient id="dungeonsG" x1="46.419" y1="-27.466" x2="56.71" y2="1.477" xlink:href="#dungeonsb"/>
        <linearGradient id="dungeonsH" x1="120.401" y1="-105.393" x2="144.199" y2="-53.295" xlink:href="#dungeonsb"/>
        <linearGradient id="dungeonsI" x1="140.319" y1="-37.55" x2="156.238" y2="2.971" xlink:href="#dungeonsb"/>
        <linearGradient id="dungeonsJ" x1="97.092" y1="-16.506" x2="106.579" y2="15.814" xlink:href="#dungeonsb"/>
        <linearGradient id="dungeonsK" x1="230.76" y1="-42.66" x2="255.522" y2="20.051" xlink:href="#dungeonsb"/>
        <linearGradient id="dungeonsL" x1="159.079" y1="-44.919" x2="174.998" y2="-4.399" xlink:href="#dungeonsb"/>
        <linearGradient id="dungeonsM" x1="197.141" y1="-22.965" x2="207.754" y2="16.269" xlink:href="#dungeonsb"/>
        <linearGradient id="dungeonse" x1="251.55" y1="-132.018" x2="251.55" y2="-195.565" xlink:href="#dungeonsa"/>
        <linearGradient id="dungeonsO" x1="298.14" y1="-58.334" x2="304.773" y2="-23.551" xlink:href="#dungeonsb"/>
        <linearGradient id="dungeonsP" x1="255.758" y1="-32.611" x2="267.335" y2="7.588" xlink:href="#dungeonsb"/>
        <linearGradient id="dungeonsQ" x1="316.178" y1="-35.517" x2="320.037" y2="22.798" xlink:href="#dungeonsb"/>
        <linearGradient id="dungeonsR" x1="393.193" y1="-95.43" x2="392.335" y2="-56.41" xlink:href="#dungeonsb"/>
        <linearGradient id="dungeonsS" x1="381.511" y1="-68.138" x2="384.405" y2="-45.305" xlink:href="#dungeonsb"/>
        <linearGradient id="dungeonsT" x1="376.826" y1="-23.396" x2="377.791" y2="12.623" xlink:href="#dungeonsb"/>
        <linearGradient id="dungeonsc" x1="822.759" y1="13.298" x2="791.029" y2="-110.623" gradientTransform="translate(0 199.81)" gradientUnits="userSpaceOnUse">
            <stop offset="0" stop-color="#f7eb87"/>
            <stop offset="1" stop-color="#e57834"/>
        </linearGradient>
        <linearGradient id="dungeonsU" x1="728.922" y1="-27.137" x2="728.922" y2="-69.589" xlink:href="#dungeonsc"/>
        <linearGradient id="dungeonsV" x1="641.77" y1="-27.12" x2="641.77" y2="-69.573" xlink:href="#dungeonsc"/>
        <linearGradient id="dungeonsW" x1="554.104" y1="-27.137" x2="554.104" y2="-69.589" xlink:href="#dungeonsc"/>
        <linearGradient id="dungeonsX" x1="467.531" y1="-27.137" x2="467.531" y2="-69.589" xlink:href="#dungeonsc"/>
        <linearGradient id="dungeonsY" x1="111.914" y1="-27.137" x2="111.914" y2="-69.589" xlink:href="#dungeonsc"/>
        <linearGradient id="dungeonsZ" x1="203.954" y1="-27.137" x2="203.954" y2="-69.589" xlink:href="#dungeonsc"/>
        <linearGradient id="dungeonsaa" x1="289.627" y1="-27.137" x2="289.627" y2="-69.589" xlink:href="#dungeonsc"/>
        <linearGradient id="dungeonsab" x1="376.649" y1="-27.137" x2="376.649" y2="-69.589" xlink:href="#dungeonsc"/>
        <linearGradient id="dungeonsac" x1="19.779" y1="-27.248" x2="56.441" y2="-114.722" xlink:href="#dungeonsc"/>
        <linearGradient id="dungeonsd" x1="300.843" y1="-31.296" x2="329.272" y2="-31.296" gradientTransform="translate(0 199.81)" gradientUnits="userSpaceOnUse">
            <stop offset="0" stop-color="#b9432d"/>
            <stop offset="1" stop-color="#923724"/>
        </linearGradient>
        <linearGradient id="dungeonsad" x1="333.041" y1="-31.296" x2="420.257" y2="-31.296" xlink:href="#dungeonsd"/>
        <linearGradient id="dungeonsae" x1="164.527" y1="-32.068" x2="224.214" y2="-32.068" xlink:href="#dungeonsd"/>
        <linearGradient id="dungeonsaf" x1="242.181" y1="-32.068" x2="270.609" y2="-32.068" xlink:href="#dungeonsd"/>
        <linearGradient id="dungeonsag" x1="55.571" y1="-32.068" x2="123.749" y2="-32.068" xlink:href="#dungeonsd"/>
        <linearGradient id="dungeonsah" x1="153.927" y1="-42.487" x2="170.337" y2="-42.487" xlink:href="#dungeonsd"/>
        <linearGradient id="dungeonsai" x1="224.012" y1="-42.487" x2="240.22" y2="-42.487" xlink:href="#dungeonsd"/>
        <linearGradient id="dungeonsaj" x1="124.778" y1="-42.487" x2="150.175" y2="-42.487" xlink:href="#dungeonsd"/>
        <linearGradient id="dungeonsak" x1="23.798" y1="-38.757" x2="53.899" y2="-38.757" xlink:href="#dungeonsd"/>
        <linearGradient id="dungeonsal" x1="3.909" y1="-61.268" x2="36.197" y2="-61.268" xlink:href="#dungeonsd"/>
        <linearGradient id="dungeonsam" x1="529.342" y1="-31.296" x2="588.129" y2="-31.296" xlink:href="#dungeonsd"/>
        <linearGradient id="dungeonsan" x1="606.172" y1="-31.296" x2="634.601" y2="-31.296" xlink:href="#dungeonsd"/>
        <linearGradient id="dungeonsao" x1="664.962" y1="-31.296" x2="693.391" y2="-31.296" xlink:href="#dungeonsd"/>
        <linearGradient id="dungeonsap" x1="424.116" y1="-31.296" x2="511.332" y2="-31.296" xlink:href="#dungeonsd"/>
        <linearGradient id="dungeonsaq" x1="697.213" y1="-31.296" x2="784.429" y2="-31.296" xlink:href="#dungeonsd"/>
        <linearGradient id="dungeonsar" x1="785.587" y1="-38.757" x2="815.688" y2="-38.757" xlink:href="#dungeonsd"/>
        <linearGradient id="dungeonsas" x1="514.109" y1="-42.487" x2="530.49" y2="-42.487" xlink:href="#dungeonsd"/>
        <linearGradient id="dungeonsat" x1="583.317" y1="-42.487" x2="600.407" y2="-42.487" xlink:href="#dungeonsd"/>
        <linearGradient id="dungeonsau" x1="803.273" y1="-61.397" x2="835.566" y2="-61.397" xlink:href="#dungeonsd"/>
        <linearGradient id="dungeonsav" x1="655.731" y1="-21.601" x2="654.941" y2="11.833" xlink:href="#dungeonsb"/>
        <linearGradient id="dungeonsaw" x1="600.217" y1="-19.547" x2="598.166" y2="9.528" xlink:href="#dungeonsb"/>
    </defs>
    <path d="M167.614 90.946l-23.54-21.739L166.199.386h25.856l12.607 17.109 1.415-5.274h7.203L216.368.386l26.627-.129 1.544 2.83.643-2.83h26.885l1.415 2.959.515-2.959h27.142l4.76 12.092h.643l1.286 3.216L310.015.257h27.4l1.029 3.473.386-3.473 56.986-.128 2.83 25.856-.643 15.179h-1.286l1.029 7.975-.643 16.209h-1.544l1.158 8.618-.643 16.98h-56.472l-1.158-3.344-.386 3.344h-27.142l-6.947-14.407-2.058 14.407h-26.885l-1.672-2.701-.386 2.701H246.34l-1.801-2.572-.515 2.572h-26.37l-11.449-13.121h-6.946l-1.93-2.186-4.116 15.307h-25.599zM483.547 86.83l-.9 3.988h-27.915l-2.187-64.962L454.861 0h57.114l.386 3.73L513.39 0h56.6l.515 3.087L571.92 0h56.214l.644 2.701L630.45 0h55.828l5.146 16.337-11.063 13.25.129.386c.772 2.573 1.544 5.274 2.315 7.847.515 1.93 3.73 11.963 3.73 11.963l1.93 6.432c.516 1.8 1.03 3.473 1.545 5.274s1.029 3.602 1.543 5.274l.515 2.187-21.997 21.868H643.7l-10.42-42.45-12.092 16.851h-8.618l.772 3.473-15.437 22.126h-26.756l-.515-2.83-1.672 2.83h-27.014l-.386-3.087-1.415 3.087h-27.271l-.386-3.473-1.158 3.473h-27.657z"/>
    <path d="M394.273 68.306L396.588.129h57.501l.514 15.693-1.929 25.342h-26.885l-.386 9.39h30.229l.515 17.752-2.187 22.64h-56.986l-2.701-22.64z"/>
    <path fill="url(#dungeonsa)" d="M193.342 15.951l-3.602 12.478h15.822l3.345-12.349h7.332l3.087-11.964h20.968l-14.793 63.418h-22.64l6.817-26.885h-8.104l-3.602 13.121h-14.664l3.73-13.121h-8.232l-7.976 26.885-22.254.129 20.453-63.418 20.453-.129-3.344 11.578 7.204.257z"/>
    <path fill="url(#dungeonse)" d="M269.109 4.245l-12.478 63.418-22.64.129 14.15-63.547h20.968z"/>
    <path fill="url(#dungeonsf)" d="M299.596 47.081l1.929-13.121-8.232-.128-5.403 33.702h-22.512l11.835-63.418h20.968l-1.93 11.706 7.204.129-1.672 12.349 8.104.129 3.344-24.441h21.097l-7.461 63.546h-22.64l2.83-20.196-7.461-.257z"/>
    <path fill="url(#dungeonsg)" d="M390.028 54.413l-.515 13.121h-53.899l6.689-63.546h49.911l-.386 11.191h-29.457l-.901 12.993 29.715.128-.514 12.221h-30.359l-1.029 13.764 30.745.128z"/>
    <path d="M683.32 3.73l3.602 11.32h-14.536l.128.386c.644 2.444 1.287 5.017 1.93 7.59s1.415 5.146 2.187 7.847 1.544 5.403 2.444 8.104c.772 2.702 1.673 5.403 2.445 8.233l1.543 5.017a259.37 259.37 0 011.544 5.146c.514 1.672 1.029 3.473 1.544 5.145s1.029 3.473 1.543 5.146h-22.769l-14.279-52.485h-14.664l-2.83-11.32z" fill="url(#dungeonsh)"/>
    <path fill="url(#dungeonsi)" d="M630.965 27.786l3.087 12.606h-30.487l5.66 27.014h-22.769L574.75 3.73h50.297l2.702 11.321h-29.587l2.702 12.735h30.101z"/>
    <path d="M543.492 46.953l2.83 20.581h-22.77L516.479 3.86h50.168l11.063 63.675H554.94l-2.959-20.453zm14.793-24.956l-1.287-8.104h-9.905l.9 7.46h-7.846l-1.029-7.332h-9.648l1.03 8.105h8.875l.386 2.958h-4.374l1.673 12.478h5.274l-.386-4.245h7.847l.643 4.245h5.403l-1.93-12.35h-4.373l-.386-2.958 9.133-.257" fill="url(#dungeonsj)"/>
    <path d="M504.129 34.475h7.46l3.345 32.93h-22.64l-2.058-26.884-8.361-.258 1.8 27.014h-22.64L458.591 3.73h50.169l2.316 23.541h-7.461zm-14.794-6.304l-1.029-13.12h-8.104l.9 13.12h8.233" fill="url(#dungeonsk)"/>
    <path fill="url(#dungeonsl)" d="M421.672 15.179h29.072l-.386-11.32-50.039.129-2.187 63.546h54.027l-.386-13.121H420.9l.772-39.234z"/>
    <path d="M151.535 67.663c-1.544 0-1.93.9-.772 1.93l16.208 15.565a8.583 8.583 0 004.888 1.93h14.408c1.543 0 1.929-.9.9-2.058L172.888 69.72a7.313 7.313 0 00-4.76-2.058zM205.82 67.534c-1.544 0-2.059 1.03-1.03 2.187l12.607 15.18a7.14 7.14 0 004.63 2.186h15.051c1.544 0 2.058-1.029 1.158-2.315L227.173 69.85a6.211 6.211 0 00-4.502-2.315z" fill="#212428"/>
    <path d="M186.267 53.77c-1.544 0-2.059.9-.9 2.187l14.15 15.95a6.651 6.651 0 004.373 2.059c1.286 0 1.672-1.158.772-2.444l-1.03-1.544a7.181 7.181 0 01-.9-5.145l.387-1.158a6.35 6.35 0 00-1.03-5.017l-2.058-2.573A6.58 6.58 0 00195.4 53.9zM236.95 67.792c-1.544 0-2.058 1.029-1.158 2.315L246.597 84.9a6.21 6.21 0 004.503 2.316h14.922c1.544 0 2.187-1.03 1.286-2.444l-9.133-14.536a6.093 6.093 0 00-4.374-2.444zM268.208 67.534a1.5 1.5 0 00-1.415 2.445l8.748 14.407a5.862 5.862 0 004.373 2.444h14.536a1.615 1.615 0 001.544-2.573l-6.947-14.15a4.998 4.998 0 00-4.116-2.572zM307.185 67.534a1.693 1.693 0 00-1.672 2.573l6.69 14.408a4.826 4.826 0 004.116 2.572h15.05a1.91 1.91 0 001.93-2.701l-5.145-14.15a4.556 4.556 0 00-3.86-2.701zM338.444 67.534a1.91 1.91 0 00-1.93 2.702L341.403 84a4.197 4.197 0 003.859 2.701h44.122a2.41 2.41 0 002.444-2.83l-1.93-13.506a3.422 3.422 0 00-3.215-2.83zM400.962 67.534a2.57 2.57 0 00-2.573 2.83l1.544 13.893a3.215 3.215 0 003.216 2.83h43.865a3.422 3.422 0 003.216-2.83l1.672-13.893a2.5 2.5 0 00-2.573-2.83zM463.737 67.534a3.422 3.422 0 00-3.216 2.83L458.848 84a2.41 2.41 0 002.445 2.83h14.793a3.707 3.707 0 003.473-2.83l3.345-13.764a2.189 2.189 0 00-2.187-2.83zM495.124 67.534a3.707 3.707 0 00-3.473 2.83L488.435 84a2.189 2.189 0 002.187 2.83h14.664a4.336 4.336 0 003.86-2.701l4.888-13.765a1.91 1.91 0 00-1.93-2.701zM526.511 67.534a4.335 4.335 0 00-3.859 2.702l-4.888 14.021a1.91 1.91 0 001.93 2.702h14.793a5.183 5.183 0 004.116-2.573l6.69-14.15a1.693 1.693 0 00-1.673-2.573zM557.899 67.406a4.997 4.997 0 00-4.116 2.573l-6.947 14.278c-.643 1.415 0 2.573 1.544 2.573h15.308a5.613 5.613 0 004.245-2.444l8.361-14.407c.772-1.415.129-2.444-1.415-2.444zM589.286 67.406a6.093 6.093 0 00-4.373 2.444l-8.876 14.536c-.772 1.286-.258 2.444 1.415 2.444h15.05a6.21 6.21 0 004.503-2.315l10.548-14.794c.9-1.286.386-2.315-1.158-2.315zM667.755 67.406a7.456 7.456 0 00-4.76 2.187l-13.121 14.922c-1.03 1.157-.643 2.186 1.03 2.186h14.406a7.934 7.934 0 004.888-2.058l15.566-15.179c1.158-1.158.772-2.058-.772-2.058z" fill="#212428"/>
    <path d="M164.913 15.436l21.482.129.129-1.544h-20.968l-.643 1.415zM165.041 44.251h-9.647v1.287h7.718l-5.274 16.208h17.623v-1.415h-15.694l2.187-6.432h14.793v-1.415H162.34l2.701-8.233zM226.53 14.536h-10.42l-.514 1.415h9.262l-1.415 10.548h-20.068v1.287h33.832v-1.287h-12.349l1.672-11.963zM246.211 56.858l-1.929 3.087-1.544 8.104 4.117 6.046 3.087 2.315-5.789-8.618 2.058-10.934zM267.951 16.337l-11.835.129 2.959 1.157h8.876v-1.286zM277.084 60.331l-2.058 3.087-.9 4.116 1.929 5.017 2.058 2.83-2.572-7.975 1.543-7.075zM267.951 46.953l-.129 1.415 22.512 1.157 1.929 2.83 1.158-.643-2.315-3.602-23.155-1.157zM289.562 15.565h7.204V14.15l-9.519-.129 2.315 1.544zM305.256 47.596v1.415l15.565-.643-2.83 19.166 2.058 7.075 2.444 3.474-3.087-10.677 3.087-20.453-17.237.643zM311.43 15.18c.643.128 16.465 2.83 22.254 2.83v-1.416c-5.66 0-21.868-2.701-21.997-2.701zM347.191 53.256h-11.706v1.286h10.291l-.385 12.735 2.572 10.034 1.93 3.473-3.088-13.635.386-13.893zM338.959 23.155h11.448l3.088-1.544-14.536.257v1.287zM377.035 26.628h-1.415v12.735l1.544-3.473-.129-9.262zM383.724 57.758h-10.419v10.42h1.415v-9.005h10.291l.257-7.332h-1.415l-.129 5.917zM439.939 59.044l.9 8.619-2.701 20.067 1.672-.128 2.444-19.81-1.158-10.934-1.157 2.186zM398.904 78.983h6.689v1.415h-6.689zM405.593 25.084c8.104 0 16.98 3.86 16.98 3.86l.514-1.287c-.386-.129-11.963-3.988-20.324-3.988zM405.078 36.404l-6.432.129v1.415h4.117l2.315-1.544zM468.625 26.628h7.203a1.722 1.722 0 011.287 1.029l1.158-.772a3.514 3.514 0 00-2.316-1.672h-6.174l-2.445-22.254-1.415.128 2.059 18.781h-10.677v1.415h10.805zM466.695 60.46c-1.93.9-3.087 5.402-3.344 6.817l1.286.258c.643-2.83 1.93-5.918 2.83-5.918h.772l-.9-13.378h16.98v-1.415h-18.524zM489.721 52.484H503.1l2.572-1.415h-15.951v1.415zM496.925 32.931h8.104v-1.415l-9.648.129 1.544 1.286zM458.134 81.568l.102-1.411 22.325 1.616-.103 1.411zM551.338 51.326v1.415c.258 0 18.91-.257 25.985 2.444l.515-1.286c-7.461-2.702-25.728-2.573-26.5-2.573zM616.429 25.985c3.344 9.519.772 14.922.772 14.922l1.286.643c.129-.257 2.83-5.917-.643-15.951zM603.694 8.49l-1.673-5.531-1.286.386 1.93 6.431h5.402l2.573 7.719 1.287-.515-2.959-8.49h-5.274zM658.107 48.625h24.956v1.415h-24.956zM676.116 15.822l-3.473-12.606-1.415.386 3.473 12.606 1.415-.386z"/>
    <path d="M215.21 15.694h6.303c1.544 0 1.544-.258 0-.515l-2.315-.514c-1.544-.258-2.702 0-2.573.643zM180.478 77.054a5.302 5.302 0 00-3.988-.9l-3.73.514c-1.544.128-1.544.514 0 .643l6.046.772c1.543.128 2.315-.386 1.672-1.03zM239.136 84.643c-.386-.643-2.058-1.158-3.601-1.029l-7.847.643c-1.544.129-1.544.386 0 .515l9.519.9c1.543.129 2.444-.257 1.93-1.029zM310.273 81.813c-.13-.643.9-1.158 2.572-1.029h2.187c1.544 0 1.672.386.129.9l-1.673.515c-1.672.386-3.087.257-3.215-.386zM391.571 77.31c-.128-.9-1.543-1.543-3.087-1.285l-5.66.771c-1.544.258-1.544.643 0 .9l6.046.9c1.543.258 2.701-.385 2.701-1.285zM398.26 80.527c-.129-.9 1.158-1.544 2.701-1.415h.386c1.544.128 1.673.9.258 1.543l-.644.258c-1.414.9-2.572.643-2.701-.386zM346.934 64.704c-.129-1.415-.514-1.543-.772-.257a11.372 11.372 0 00.386 5.017l.386 1.415c.515 1.544.772 1.415.643-.129v-.771c-.257-1.415-.514-3.86-.643-5.275zM373.82 65.734c-.258-.515-.515.257-.515 1.8v1.03c0 1.543.257 1.8.514.514a4.88 4.88 0 000-3.344zM319.149 65.219c0-1.415-.386-1.415-.515 0a14.857 14.857 0 00.386 5.274l.514 1.544c.515 1.543.644 1.415.386-.129l-.257-1.286c-.129-1.672-.386-3.988-.514-5.403zM275.283 66.248c-.257-.515-.643-.515-.9.257a3.867 3.867 0 00.515 2.83c.514.9 1.029.772.9-.257a7.94 7.94 0 00-.515-2.83zM244.668 65.219c-.258-1.415-.9-1.286-1.287.257v.257a5.358 5.358 0 001.415 4.76l.129.13c1.158 1.157 1.672.9 1.158-.387a36.633 36.633 0 01-1.415-5.017zM189.354 63.16c-.386-.514.514-.9 2.058-.771l4.888.386c1.544.129 1.544.386 0 .643l-3.344.386c-1.544.257-3.088 0-3.602-.643zM440.968 64.061c.257-1.543.643-1.543 1.029 0l.129.9a13.368 13.368 0 01-.13 5.532l-.642 2.315c-.386 1.544-.772 1.415-.772-.129v-2.186a41.859 41.859 0 01.386-5.66zM422.444 28.686c0 .643-1.029.515-2.315-.386l-1.029-.643c-1.286-.9-1.158-1.286.386-.9h.257c1.415.257 2.701 1.157 2.701 1.929zM512.49 75.51c.129-.643-.9-1.158-2.573-1.03l-2.315.13c-1.544 0-1.672.386-.129.9l1.93.514c1.543.386 2.83.13 3.087-.514zM500.913 65.734c-.386-.9-.772-.386-.644 1.157v.515c0 1.543.386 2.187.772 1.415a3.73 3.73 0 00-.128-3.087zM541.82 78.469c.257-.644-.773-1.158-2.445-1.03l-5.789.515c-1.543.129-1.543.386 0 .643l5.017.772c1.544.129 2.959-.257 3.216-.9zM536.16 66.12c-.258-.772-.644-.772-.772-.13a10.915 10.915 0 00.128 3.474c.257 1.158.643 1.286.772.129a10.083 10.083 0 00-.129-3.474zM617.844 41.55c-.515-.129-.515-1.544.128-2.959.644-1.415 1.03-1.286 1.03.258v.257c0 1.543-.515 2.572-1.158 2.444zM579.124 76.796c.515-.643 2.315-1.029 3.86-.9l8.232 1.286c1.544.258 1.544.515 0 .515l-10.162.257c-1.673.129-2.573-.386-1.93-1.158zM654.763 76.796a4.36 4.36 0 014.116-1.157l7.59 1.415c1.544.257 1.544.643 0 .771l-10.034.644c-1.672 0-2.315-.644-1.672-1.673zM657.721 49.14c-.257-1.03.644-1.802 2.316-1.544l6.818 1.029c1.543.257 1.543.643 0 .9l-5.66 1.03a2.987 2.987 0 01-3.474-1.416z"/>
    <path d="M650.003 17.109c-.515-.386-1.029-2.059-1.029-3.602v-.515c0-1.543.257-1.672.643-.128l.643 2.315c.386 1.544.258 2.316-.257 1.93z" opacity=".5"/>
    <path d="M576.68 55.7l-4.245-1.672c-1.415-.643-1.415-.9.129-.772l4.502.386"/>
    <path d="M418.328 69.078a6.266 6.266 0 000-3.087c-.258-.772-1.801-1.544-3.473-1.544h-1.93c-1.544 0-3.345.772-3.86 1.672s.258 2.059 1.673 2.573l4.245 1.158c1.544.514 3.087.129 3.345-.772z" opacity=".5"/>
    <path d="M415.626 66.763c-1.029-1.158-1.029-2.059.129-2.059a4.049 4.049 0 013.087 1.287c.515.643.386 2.315-.514 3.73l-.386.643c-.772 1.287-1.287 1.544-.9.515a5.394 5.394 0 00-1.416-4.116zM311.302 14.922c.128-.9 1.415-1.286 2.958-.9l.9.257c1.544.386 1.544 1.029 0 1.286l-1.286.257c-1.543.386-2.7 0-2.572-.9zM236.692 27.528c-.257.515-1.8.772-3.344.386l-1.158-.257c-1.544-.386-1.544-.772.129-.9l2.187-.13c1.414-.128 2.444.258 2.186.901zM176.619 52.998c.257-.771-.772-1.157-2.316-.9l-2.701.515c-1.544.257-1.544.772 0 1.029l1.672.257c1.544.257 3.087-.129 3.345-.9z"/>
    <path d="M181.25 77.31c-.514-.514-.514-2.315-.129-3.73l.644-2.315c.386-1.544.771-1.415.643.129l-.257 4.245c-.001 1.415-.516 2.186-.901 1.672zM238.879 84.9c-.514-.257-.514-1.672 0-3.087s.9-1.286.9.386v.515c.001 1.415-.385 2.444-.9 2.186zM290.848 50.169c0-1.03.386-.644.9.771l.386 1.158c.515 1.415.515 2.058-.128 1.286a6.923 6.923 0 01-1.158-3.215zM579.767 77.697c.515-.386.643-2.058.257-3.602l-.771-2.573c-.386-1.543-.772-1.415-.772.129l.129 3.988c.128 1.672.643 2.572 1.157 2.058zM655.92 77.31c.772-.385.9-1.93.257-3.344l-3.087-6.817c-.643-1.415-.9-1.287-.643.257l1.544 7.975c.129 1.415 1.158 2.316 1.929 1.93zM659.136 49.01c-.257-.642-1.157 0-1.8 1.416l-3.217 6.689c-.643 1.415-.514 1.544.386.257l3.602-4.888c.9-1.287 1.287-2.83 1.03-3.473z" fill="#212428"/>
    <path d="M609.611 17.495l.129-3.86c0-1.543.385-1.672.771-.128l1.158 4.373"/>
    <path d="M170.187 78.855c-1.415-.386-1.415-.644.257-.644h.129c1.543.129 3.859.386 5.145.515s1.158.514-.257.514a10.65 10.65 0 01-5.274-.385zM243.124 70.622c-1.158-1.158-1.286-1.03-.386.257l1.287 1.8a16.131 16.131 0 003.216 3.346c.9.514.9.128-.13-1.03-.9-1.157-2.7-2.958-3.73-4.116zM272.968 67.534c-.386 0-.129 1.03.514 2.445.644 1.286.9 1.286.644 0-.258-1.415-.772-2.445-1.158-2.445zM315.418 82.2c-1.286-.13-1.029-.516.515-.773l1.93-.386c1.543-.257 2.186-.128 1.286.386a5.76 5.76 0 01-3.73.772zM345.005 69.85c-.515-.772-.772-.257-.515 1.158a23.368 23.368 0 001.801 5.017c.643 1.286 1.029 1.029.643-.515l-.257-1.415a12.737 12.737 0 00-1.672-4.245zM443.026 72.423c-.129-.9-.643-.772-1.029.386a18.751 18.751 0 00-.643 4.888c0 1.543.386 1.543.9 0l.257-.772a9.704 9.704 0 00.515-4.502zM410.352 66.12c-.386-1.03-1.029-.772-1.672.385a2.66 2.66 0 001.544 3.345l.257.129c1.415.643 2.058.514 1.544-.386-.515-1.03-1.287-2.573-1.673-3.474zM465.152 82.714c-1.415-.386-1.415-.644.257-.644h.772a20.703 20.703 0 015.531.9c1.415.515 1.415.772-.257.772h-.772c-1.544-.257-3.988-.642-5.531-1.028zM502.2 69.85c-.13-.514-.644 0-1.03 1.158s-.386 1.672.257 1.029a2.88 2.88 0 00.772-2.187zM537.832 68.692c-.13-.514-.644 0-1.03 1.158s-.386 1.672.258 1.029a3.251 3.251 0 00.772-2.187zM532.043 79.369c-1.544-.257-1.544-.643 0-.772l1.415-.128a8.987 8.987 0 014.374.643c.771.514.514.9-.515.9a37.29 37.29 0 01-4.888-.514zM584.398 79.24c-1.415.129-1.415-.129 0-.514a19.716 19.716 0 015.531-.515l2.316.257q2.315.193 0 .386l-2.316.129c-1.543 0-3.987.129-5.53.257z" fill="#525155"/>
    <path d="M618.23 42.064c-.772.258-1.93 1.801-2.444 3.216l-.129.257c-.643 1.416-.257 1.673.643.386l1.673-2.186c.9-1.287 1.029-2.059.257-1.673z" fill="#212428"/>
    <path d="M675.473 16.723c-.643 0-1.415-1.287-1.543-2.83l-.13-1.415c-.128-1.544.258-1.673.901-.258l.9 1.93c.644 1.415.644 2.573-.128 2.573zM457.562 23.283c0-.772 1.158-1.415 2.701-1.415h1.158c1.544 0 1.672.644.257 1.158l-1.415.643c-1.415.643-2.572.515-2.701-.386zM376.52 26.37c-.643-.257-1.028.644-.771 2.316l.128 1.544c.258 1.543.644 1.543 1.03 0l.128-.386c.386-1.672.129-3.216-.514-3.473zM303.97 48.753c-.13-.643.9-1.157 2.572-1.157h6.56c1.544 0 1.544.257 0 .514l-5.917 1.158c-1.543.386-2.958.129-3.216-.515zM175.204 61.489c.128-.515-1.158-.901-2.702-.901h-1.672c-1.544 0-1.672.257-.129.643l1.544.386c1.544.386 2.959.386 2.959-.128z"/>
    <path d="M152.178 66.763c-1.544 0-2.573.257-2.316.643a8.246 8.246 0 003.473.514h12.22c1.544 0 3.088-.257 3.474-.643.257-.386-.772-.643-2.315-.643zM206.848 66.763c-1.543 0-2.572.257-2.315.643a8.248 8.248 0 003.473.514h12.22c1.544 0 3.087-.257 3.473-.643.258-.386-.771-.643-2.315-.643zM237.593 66.505c-1.544 0-2.83.386-2.702.644s1.544.514 3.088.514h.385c1.544 0 2.96-.257 3.088-.643s-1.03-.643-2.702-.643zM182.793 39.749c-1.543 0-2.83.386-2.701.643s1.543.515 3.087.515h.386c1.544 0 2.959-.258 3.087-.644s-1.029-.643-2.701-.643zM205.433 39.749c-1.543 0-2.83.386-2.701.643s1.544.515 3.087.515h.386c1.544 0 2.959-.258 3.087-.644s-1.029-.643-2.7-.643zM160.153 43.35c-1.543 0-2.83.387-2.701.644s1.415.514 2.958.514 2.83-.257 2.96-.643-1.159-.643-2.702-.643zM187.296 52.612c-1.544 0-2.702.258-2.444.644a7.212 7.212 0 003.215.514h5.66c1.544 0 2.96-.257 3.216-.643s-.9-.643-2.444-.643zM174.818 13.121c-1.544 0-2.702.257-2.444.643a7.213 7.213 0 003.216.515h5.66c1.543 0 2.958-.258 3.216-.643s-.9-.644-2.444-.644zM269.109 66.505c-1.544 0-2.83.386-2.702.644s1.544.514 3.088.514h.386c1.543 0 2.958-.257 3.087-.643s-1.03-.643-2.702-.643zM322.879 66.505c-1.544 0-2.83.386-2.701.644s1.415.514 2.958.514 2.83-.257 2.959-.643-1.158-.643-2.702-.643zM279.142 66.505c-1.543 0-2.7.258-2.572.644.128.257 1.543.514 3.216.514h4.245c1.543 0 2.958-.257 3.216-.643.128-.386-1.03-.643-2.573-.643zM307.7 66.634c-1.544 0-2.701.257-2.444.643a7.213 7.213 0 003.216.515h5.274c1.544 0 2.959-.258 3.216-.644s-.9-.643-2.444-.643zM339.087 66.505c-1.543 0-2.701.386-2.572.644s1.543.514 3.087.514h2.444c1.544 0 2.959-.257 3.087-.643s-1.029-.643-2.572-.643zM401.605 66.505c-1.544 0-2.702.386-2.573.644s1.544.514 3.087.514h2.444c1.544 0 2.96-.257 3.088-.643s-1.03-.643-2.573-.643zM445.985 66.505c-1.544 0-2.702.386-2.573.644s1.544.514 3.087.514h1.544c1.544 0 2.959-.257 3.087-.643s-1.029-.643-2.573-.643zM468.11 66.634c-1.544 0-2.573.257-2.316.643a7.947 7.947 0 003.345.515h9.905c1.544 0 3.087-.258 3.345-.644s-.772-.643-2.316-.643zM495.51 66.505c-1.544 0-2.701.386-2.701.644.128.257 1.543.514 3.087.514h.643c1.544 0 2.959-.257 3.087-.643s-1.029-.643-2.701-.643zM505.286 66.505c-1.543 0-2.701.258-2.572.644.128.257 1.672.514 3.216.514h4.373c1.544 0 2.959-.257 3.216-.643.129-.386-.9-.643-2.573-.643zM527.155 66.505c-1.544 0-2.702.386-2.573.644s1.544.514 3.087.514h2.83c1.544 0 2.959-.257 3.088-.643s-1.03-.643-2.573-.643zM540.147 66.505c-1.544 0-2.701.386-2.573.644s1.544.514 3.088.514h1.286c1.544 0 2.959-.257 3.087-.643s-1.029-.643-2.572-.643zM558.413 66.634c-1.543 0-2.572.257-2.186.643a9.233 9.233 0 003.473.515h13.507c1.543 0 3.087-.258 3.473-.644s-.643-.643-2.187-.643zM589.544 66.634c-1.544 0-2.573.257-2.187.643a9.233 9.233 0 003.473.515h13.507c1.544 0 3.087-.258 3.473-.644s-.643-.643-2.187-.643zM668.27 66.634c-1.544 0-2.573.257-2.187.643a9.233 9.233 0 003.473.515h13.507c1.544 0 3.088-.258 3.474-.644s-.644-.643-2.187-.643zM639.455 14.15c-1.544 0-2.702.257-2.573.643.129.257 1.672.515 3.216.515h5.146c1.543 0 2.958-.258 3.215-.643.129-.386-.9-.644-2.572-.644zM614.885 14.15c-1.543 0-2.701.257-2.444.643a7.213 7.213 0 003.216.515h6.69c1.543 0 3.086-.258 3.215-.643.257-.386-.9-.644-2.444-.644zM602.407 14.15c-1.543 0-2.701.386-2.572.643s1.543.515 3.087.515h2.959c1.543 0 2.958-.258 3.087-.643s-1.03-.644-2.573-.644zM606.524 39.62c-1.544 0-2.702.257-2.444.643a7.213 7.213 0 003.215.515h5.403c1.544 0 2.959-.258 3.216-.644s-.9-.643-2.444-.643zM530.628 12.478c-1.544 0-2.702.386-2.573.643s1.544.514 3.087.514h2.96c1.543 0 2.958-.257 3.086-.643s-1.029-.643-2.572-.643zM548.251 12.478c-1.543 0-2.701.386-2.573.643s1.544.514 3.088.514h2.958c1.544 0 2.959-.257 3.088-.643s-1.03-.643-2.573-.643zM537.06 23.67c-1.286 0-2.315.385-2.315.642.128.258 1.029.515 2.315.515s2.187-.257 2.316-.643c0-.386-1.03-.643-2.316-.515zM543.234 19.939c-1.543 0-2.83.386-2.701.643s1.415.515 2.83.515 2.701-.258 2.83-.644-1.158-.643-2.701-.643zM464.766 20.71c-1.544 0-2.83.386-2.702.644s1.415.514 2.83.514 2.702-.257 2.83-.643-1.158-.643-2.701-.643zM484.447 38.977c-1.544 0-2.701.386-2.701.643.128.257 1.543.515 3.087.515h.772c1.543 0 2.958-.258 3.087-.643s-1.029-.644-2.701-.644zM470.554 45.666c-1.543 0-2.701.257-2.572.643.128.258 1.543.515 3.215.515h4.246c1.543 0 2.958-.257 3.215-.643.13-.386-1.029-.643-2.572-.643zM666.34 47.081c-1.544 0-2.701.257-2.573.643.129.258 1.544.515 3.216.515h4.245c1.544 0 2.959-.257 3.216-.643.129-.386-1.029-.643-2.573-.643zM340.63 52.227c-1.543 0-2.7.386-2.572.643s1.544.514 3.088.514h1.8c1.544 0 2.959-.257 3.088-.643s-1.03-.643-2.573-.643zM312.974 46.695c-1.544 0-2.701.386-2.573.643s1.544.515 3.088.515h1.8c1.544 0 2.96-.257 3.088-.643s-1.03-.643-2.573-.643zM273.611 46.18c-1.544 0-2.701.387-2.573.644s1.544.514 3.088.514h1.8c1.544 0 2.96-.257 3.088-.643s-1.03-.643-2.573-.643zM213.923 25.084c-1.543 0-2.7.257-2.572.643a6.253 6.253 0 003.216.644h4.502c1.544 0 2.959-.258 3.216-.644.128-.386-.9-.643-2.573-.643zM325.838 15.05c-1.544-.128-2.83 0-2.702.258.129.386 1.415.772 2.959 1.029l1.8.257c1.545.257 2.96.129 3.217-.257.128-.386-.9-.772-2.444-.9zM495.639 49.911c-1.544 0-2.702.386-2.573.643s1.544.515 3.087.515h1.801c1.544 0 2.959-.257 3.087-.643s-1.029-.644-2.572-.644zM545.421 45.152c-1.544 0-2.701.386-2.573.643s1.544.514 3.088.514h1.8c1.544 0 2.96-.257 3.088-.643s-1.03-.643-2.573-.643zM425.789 13.636c-1.544 0-2.573.257-2.058.643a10.081 10.081 0 003.601.514h17.752c1.544 0 3.216-.257 3.602-.643s-.514-.643-2.058-.643zM366.487 13.893c-1.544 0-2.444.257-2.058.643a10.083 10.083 0 003.602.514h18.523c1.544 0 3.216-.257 3.602-.643s-.514-.643-2.058-.643zM363.4 39.106c-1.544 0-2.701.257-2.444.643a7.497 7.497 0 003.344.514h7.461c1.544 0 3.088-.257 3.345-.643s-.9-.643-2.444-.643zM379.222 39.106c-1.544 0-2.701.257-2.444.643a7.212 7.212 0 003.216.514h6.689c1.544 0 3.087-.257 3.216-.643.257-.386-.9-.643-2.444-.643zM413.31 63.29c-1.543 0-2.83.385-2.7.643s1.415.514 3.087.514h.257c1.544 0 2.959-.257 3.087-.643s-1.029-.643-2.701-.643zM408.68 22.64c-1.544-.129-2.701 0-2.573.257.129.386 1.415.772 3.088 1.03l3.216.385c1.543.258 2.958.129 3.215-.257s-.9-.772-2.444-1.03zM557.384 50.04c-1.543-.129-2.701 0-2.572.257.128.386 1.415.772 3.087 1.03l3.216.385c1.543.258 2.959.129 3.216-.257s-.9-.772-2.444-1.03zM552.11 23.67c-1.158 0-2.187.385-2.058.642a3.045 3.045 0 002.058.515c1.03 0 2.058-.257 2.058-.643.13-.386-.9-.643-2.058-.515zM622.217 39.62c-1.543 0-2.7.257-2.444.643a7.213 7.213 0 003.216.515h6.69c1.543 0 3.087-.258 3.215-.644.258-.385-.9-.643-2.444-.643zM679.332 14.15c-1.543 0-2.701.386-2.572.643s1.543.515 3.087.515h3.216c1.543 0 2.958-.258 3.087-.643s-1.03-.644-2.573-.644zM423.344 66.634c-1.543 0-2.572.257-2.315.643a7.947 7.947 0 003.345.515h11.32c1.543 0 3.087-.258 3.344-.644s-.772-.643-2.315-.643zM350.665 66.634c-1.544 0-2.573.257-2.187.643a10.081 10.081 0 003.602.515h16.722c1.544 0 3.216-.258 3.602-.644s-.514-.643-2.187-.643zM377.678 66.634c-1.543 0-2.701.257-2.444.643a7.213 7.213 0 003.216.515h6.56c1.544 0 3.088-.258 3.216-.644.257-.385-.9-.643-2.444-.643zM249.299 66.763c-1.544 0-2.702.386-2.573.643s1.543.514 3.087.514h2.83c1.544 0 2.959-.257 3.088-.643s-1.03-.643-2.573-.643zM506.83 26.37c-1.544 0-2.83.258-2.701.515s1.415.515 3.087.515h.129c1.543 0 2.958-.258 3.087-.515s-1.158-.514-2.702-.514zM482.646 13.636c-1.543 0-2.701.385-2.572.643s1.543.514 3.087.514h1.8c1.544 0 2.96-.257 3.088-.643s-1.03-.643-2.573-.643z" fill="#d8d4ce"/>
    <path d="M417.17 78.983c.514-.257 1.286.386 1.672 1.415l.643 1.801c.386 1.03.13 1.158-.643.386l-1.415-1.672c-.772-.772-.772-1.673-.257-1.93z" fill="#2d000e"/>
    <path d="M825.078 104.582H797.55l-7.847-20.325h-31.388l-2.444-6.946H641.384l-5.402 17.366H622.86l-3.602-17.366h-31.902l-2.187 9.519h-6.69l-1.543-9.52h-60.073l-1.287 9.52h-7.718l-.9-9.52H307.957l-3.473 29.973h-3.988l-2.315-13.25h-8.362l-3.216-17.366h-61.488l-8.876 43.737-13.121-43.737h-31.516l-2.444 9.52h-13.764l-3.602-9.52H84.257l-2.701 7.59H50.169l-7.847 20.325H14.793L0 140.343l26.113 41.936h5.66l13.636 22.125h25.985l3.73 6.56h69.078l2.701-10.162h26.242l4.116 10.162h61.746l1.801-10.162h6.56l2.83 10.162h32.674l6.56-49.91h3.216l2.572 13.506h2.96l6.946 37.047h204.147l1.543-10.934h7.847l1.03 10.934h61.488l2.958-10.934h6.304l1.8 10.934h32.417l12.22-36.275h2.96l7.717 36.275h117.447l4.245-7.332h25.342l13.636-22.125h5.66L840 140.214z" fill="#0b0000"/>
    <g>
        <path fill="url(#dungeonsb)" d="M777.482 97.378l-19.938 39.363h-14.15l19.166-39.363h14.922z"/>
        <path fill="url(#dungeonsm)" d="M813.115 118.089l-22.383 39.105H764.49l20.711-39.105h27.914z"/>
        <path fill="url(#dungeonsn)" d="M835.498 139.7l-24.055 38.591h-26.886l22.512-38.591h28.429z"/>
        <path fill="url(#dungeonso)" d="M815.688 162.34l-23.412 38.077h-28.301l21.612-38.077h30.101z"/>
    </g>
    <g>
        <path fill="url(#dungeonsp)" d="M759.859 99.951l-18.91 39.363h-51.84l15.951-39.363h54.799z"/>
        <path fill="url(#dungeonsq)" d="M744.423 134.04l-18.781 38.72h-53.385l15.437-38.72h56.729z"/>
        <path fill="url(#dungeonsr)" d="M784.429 169.801l-21.74 37.948h-82.07l16.594-37.948h87.216z"/>
    </g>
    <g>
        <path fill="url(#dungeonss)" d="M639.712 124.135l-12.478 39.105h-13.635l11.577-39.105h14.536z"/>
        <path fill="url(#dungeonst)" d="M658.879 132.882l-13.507 38.848h-13.893l12.864-38.848h14.536z"/>
        <path fill="url(#dungeonsu)" d="M693.354 169.801l-16.209 37.948h-26.756l14.536-37.948h28.429z"/>
        <path fill="url(#dungeonsv)" d="M634.567 169.801l-12.735 37.948h-26.757l11.063-37.948h28.429z"/>
    </g>
    <g>
        <path fill="url(#dungeonsw)" d="M563.559 99.951l-7.976 39.363h-26.756l6.432-39.363h28.3z"/>
        <path fill="url(#dungeonsx)" d="M600.349 158.609l-10.548 38.206h-13.25l9.777-38.206h14.021z"/>
        <path fill="url(#dungeonsy)" d="M528.184 158.609l-6.432 38.206h-13.25l5.66-38.206h14.022z"/>
        <path fill="url(#dungeonsz)" d="M588.129 169.801l-10.034 37.948h-55.314l6.561-37.948h58.787z"/>
    </g>
    <g>
        <path fill="url(#dungeonsA)" d="M505.158 99.951l-4.76 39.363h-51.712l1.672-39.363h54.8z"/>
        <path fill="url(#dungeonsB)" d="M508.116 133.268l-5.016 38.848h-53.513l1.8-38.848h56.729z"/>
        <path fill="url(#dungeonsC)" d="M511.332 169.801l-5.402 37.948h-82.071l.257-37.948h87.216z"/>
    </g>
    <g>
        <path fill="url(#dungeonsD)" d="M76.925 97.378l16.98 37.434-12.092 2.058-19.81-39.492h14.922z"/>
        <path fill="url(#dungeonsE)" d="M54.285 118.217l17.237 32.932h-26.37l-18.781-32.932h27.914z"/>
        <path fill="url(#dungeonsF)" d="M32.417 139.828l22.511 38.592H28.043L3.859 139.828h28.558z"/>
        <path fill="url(#dungeonsG)" d="M53.899 162.34l21.611 38.205h-28.3L23.798 162.34h30.101z"/>
    </g>
    <g>
        <path fill="url(#dungeonsH)" d="M139.185 99.179l15.694 39.492h-30.873l-17.495-39.492h32.674z"/>
        <path fill="url(#dungeonsI)" d="M150.119 158.609l15.951 38.206h-22.125l-17.237-38.206h23.411z"/>
        <path fill="url(#dungeonsJ)" d="M123.749 169.029l17.623 37.948h-64.19l-21.611-37.948h68.178z"/>
    </g>
    <g>
        <path fill="url(#dungeonsK)" d="M240.165 158.609l10.677 38.206h-13.249l-11.449-38.206h14.021z"/>
        <path fill="url(#dungeonsL)" d="M167.1 158.609l14.921 38.206h-12.477l-15.565-38.206H167.1z"/>
        <path fill="url(#dungeonsM)" d="M224.214 169.029l11.578 37.948h-56.086l-15.179-37.948h59.687z"/>
    </g>
    <g>
        <path fill="url(#dungeonsN)" d="M292.392 124.135l7.718 39.491h-13.635l-8.748-39.491h14.665z"/>
        <path fill="url(#dungeonsO)" d="M304.741 137.642l6.303 36.918H297.28l-7.203-36.918h14.664z"/>
        <path fill="url(#dungeonsP)" d="M270.652 168.9l8.876 37.948h-26.756L242.224 168.9h28.428z"/>
        <path fill="url(#dungeonsQ)" d="M329.311 169.801l5.403 37.948h-26.757l-7.075-37.948h28.429z"/>
    </g>
    <g>
        <path fill="url(#dungeonsR)" d="M420.257 99.951v39.363h-51.84l-2.959-39.363h54.799z"/>
        <path fill="url(#dungeonsS)" d="M392.858 133.268l1.543 38.848h-18.909l-2.83-38.848h20.196z"/>
        <path fill="url(#dungeonsT)" d="M420.257 169.801v37.948h-82.07l-5.146-37.948h87.216z"/>
    </g>
    <path fill="url(#dungeonsc)" d="M794.848 107.926h27.657l12.993 31.774H806.94l8.748 22.64h-30.101l-3.988-11.063h15.822l-8.104-22.254h28.172l-4.374-10.934h-27.914l-7.719-20.839H762.56l-3.473-9.648h27.915l7.846 20.324z"/>
    <path fill="url(#dungeonsU)" d="M687.694 134.04l-14.279-53.513h79.755l6.689 19.424H705.06l3.987 13.378h55.572l19.81 56.472h-87.216l-5.917-22.254h57.5l-4.373-13.507h-56.729z"/>
    <path fill="url(#dungeonsV)" d="M651.161 111.271l-7.204-30.616h25.985l23.412 89.146h-28.429l-7.59-32.031h-14.664l-2.959-13.635h-14.536l9.391 45.666h-28.429l-15.951-89.146h25.985l3.601 17.366h14.15l2.959 13.25h14.279z"/>
    <path d="M573.721 80.527l1.544 9.519h13.121l11.963 68.435h-14.021l1.8 11.191h-58.787l-1.157-11.191h-14.022l-6.303-68.435h13.121l-1.03-9.52zm-3.087 67.02l-7.075-47.596h-28.3l5.66 47.596h29.715" fill="url(#dungeonsW)"/>
    <path fill="url(#dungeonsX)" d="M424.116 169.801l-.386-89.274h79.755l1.673 19.424h-54.8l.386 12.606h55.571l1.801 20.711h-56.729l.515 14.279h57.501l1.929 22.254h-87.216z"/>
    <path d="M149.09 80.012l-2.701 9.52h21.868l-18.138 69.078h-23.412l-2.958 10.42H55.57L86.83 80.012zm-23.927 67.535l14.022-48.368H106.51l-15.693 48.368h34.346" fill="url(#dungeonsY)"/>
    <path fill="url(#dungeonsZ)" d="M214.438 146.903l13.507-66.891h25.985l-13.765 78.597h-14.021l-1.93 10.42h-59.687l2.573-10.42h-13.121l20.324-78.597h25.985l-15.565 66.891h29.715z"/>
    <path fill="url(#dungeonsaa)" d="M307.571 110.628l3.473-30.101h25.985l-7.718 89.274h-28.429l3.731-32.031h-14.536l2.315-13.635h-14.665l-7.075 44.894h-28.428l15.179-89.017h25.984l-2.444 17.238h14.15l-1.8 13.378h14.278z"/>
    <path fill="url(#dungeonsab)" d="M333.041 169.801l7.461-89.274h79.755v19.424h-54.799l-2.701 47.596h29.715l.386-14.279h-20.196l1.029-20.711h46.566v57.244h-87.216z"/>
    <path d="M302.94 168.643c-1.03 0-1.544.258-1.158.643a7.178 7.178 0 002.702.515h21.74a4.901 4.901 0 002.701-.643c.386-.386 0-.643-1.158-.643z" fill="#f8eb48"/>
    <path d="M607.81 168.643c-1.03 0-1.544.258-1.158.643a7.177 7.177 0 002.702.515h21.74a4.901 4.901 0 002.7-.643c.387-.386 0-.643-1.157-.643z" fill="#ffdc38"/>
    <path d="M666.983 168.643c-1.029 0-1.543.258-1.158.643a7.178 7.178 0 002.702.515h21.74a4.902 4.902 0 002.701-.643c.386-.386 0-.643-1.158-.643zM335.228 168.643c-1.029 0-1.029.258 0 .515l.643.128a18.594 18.594 0 003.73.515h64.963a18.608 18.608 0 003.73-.515l.772-.257c1.029-.257 1.029-.514-.129-.514z" fill="#f8eb48"/>
    <path d="M348.35 168.643c-1.03 0-1.03.258-.13.515l.515.128a18.589 18.589 0 003.73.515h61.231a12.631 12.631 0 003.73-.643l.515-.129c1.03-.386.9-.643-.129-.643zM426.046 168.643c-1.03 0-1.03.258 0 .515l.643.128a18.594 18.594 0 003.73.515h64.962a18.608 18.608 0 003.73-.515l.773-.257c1.029-.257 1.029-.514-.13-.514z" fill="#f8eb48"/>
    <path d="M439.167 168.643c-1.03 0-1.03.258-.129.515l.515.128a18.594 18.594 0 003.73.515h61.231a12.631 12.631 0 003.731-.643l.514-.129c1.03-.386.901-.643-.128-.643zM531.142 168.643c-1.029 0-1.157.258-.257.643a16.212 16.212 0 003.602.515h48.367a11.16 11.16 0 003.602-.643c.9-.386.772-.643-.257-.643z" fill="#f8eb48"/>
    <path fill="url(#dungeonsac)" d="M44.637 108.055l7.847-20.325h27.914l-3.473 9.648H62.003l-7.718 20.711H26.371l-4.374 11.063h28.171l-8.232 22.125h15.822l-3.859 11.063H23.798l8.619-22.512H3.859l13.121-31.773h27.657z"/>
    <g opacity=".41">
        <path fill="#828282" d="M164.527 169.029l2.573-10.42-2.573 10.42z"/>
        <path fill="#a7a7a7" d="M42.193 151.277h15.822-15.822zM362.757 147.547h29.715-29.715zM90.946 147.547h34.346-34.346zM184.723 146.903h29.715-29.715z"/>
        <path fill="#858585" d="M24.055 162.34l8.619-22.64-8.619 22.64z"/>
        <path fill="gray" d="M392.472 147.547l.386-14.279-.386 14.279z"/>
        <path fill="#a7a7a7" d="M22.126 129.152h28.3-28.3zM373.691 112.686h46.566-46.566z"/>
        <path fill="gray" d="M372.79 133.268l.901-20.582-.901 20.582z"/>
        <path fill="#a7a7a7" d="M293.293 110.628h14.278-14.278z"/>
        <path fill="#858585" d="M4.116 139.7l13.121-31.774L4.116 139.7z"/>
        <path fill="#a7a7a7" d="M17.237 107.926h27.657-27.657z"/>
        <path fill="#838383" d="M125.164 147.547l14.021-48.239-14.021 48.239z"/>
        <path fill="#a7a7a7" d="M280.943 97.378h14.15-14.15zM146.389 89.531h21.868-21.868z"/>
        <path fill="gray" d="M333.041 169.801l7.461-89.146-7.461 89.146z"/>
        <path fill="#a7a7a7" d="M340.502 80.655h79.755-79.755zM311.044 80.655h25.985-25.985z"/>
        <path fill="gray" d="M307.571 110.628l3.473-29.973-3.473 29.973z"/>
        <path fill="#a7a7a7" d="M257.403 80.012h25.984-25.984z"/>
        <path fill="#818181" d="M242.224 169.029l15.179-89.017-15.179 89.017z"/>
        <path fill="#a7a7a7" d="M174.303 80.012h25.985-25.985z"/>
        <path fill="#828282" d="M153.979 158.609l20.324-78.597-20.324 78.597z"/>
        <path fill="#a7a7a7" d="M227.945 80.012h25.985-25.985z"/>
        <path fill="#818181" d="M214.438 146.903l13.507-66.891-13.507 66.891z"/>
        <path fill="#a7a7a7" d="M86.83 80.012h62.389H86.83z"/>
        <path fill="#848484" d="M55.571 169.029L86.83 80.012l-31.259 89.017z"/>
        <path fill="url(#dungeonsd)" d="M326.867 167.228l2.444 2.573h-28.429l2.83-2.573h23.155z"/>
        <path fill="url(#dungeonsad)" d="M417.685 167.228l2.572 2.573h-87.216l2.83-2.573h81.814z"/>
        <path fill="url(#dungeonsae)" d="M222.028 166.456l2.186 2.573h-59.687l3.216-2.573h54.285z"/>
        <path fill="url(#dungeonsaf)" d="M268.337 166.456l2.315 2.573h-28.428l2.958-2.573h23.155z"/>
        <path fill="url(#dungeonsag)" d="M121.819 166.456l1.93 2.573H55.571l3.602-2.573h62.646z"/>
        <path fill="url(#dungeonsah)" d="M170.315 156.037l-3.215 2.572h-13.121l3.215-2.572h13.121z"/>
        <path fill="#d05930" d="M223.957 156.037l2.187 2.572-1.93 10.42-2.186-2.573 1.929-10.419z"/>
        <path fill="#cc482f" d="M167.743 166.456l-3.216 2.573 2.573-10.42 3.215-2.572-2.572 10.419z"/>
        <path fill="url(#dungeonsai)" d="M238.107 156.037l2.058 2.572h-14.021l-2.187-2.572h14.15z"/>
        <path fill="#d05930" d="M124.778 156.037l1.93 2.572-2.959 10.42-1.93-2.573 2.959-10.419z"/>
        <path fill="url(#dungeonsaj)" d="M148.19 156.037l1.929 2.572h-23.411l-1.93-2.572h23.412z"/>
        <path fill="#f7eb87" d="M360.055 150.119l2.702-2.572h29.715l2.572 2.572h-34.989zM87.345 150.119l3.601-2.572h34.218l2.058 2.572H87.345zM181.507 149.476l3.216-2.573h29.715l2.058 2.573h-34.989z"/>
        <path fill="#691d14" d="M395.559 130.695l-2.701 2.573H372.79l2.573-2.573h20.196z"/>
        <path fill="#fcefb3" d="M395.044 150.119l-2.572-2.572.386-14.279 2.701-2.573-.515 19.424z"/>
        <path fill="#cc482f" d="M303.455 167.614l-2.573 2.187 3.988-32.159 2.958-2.573-4.373 32.545z"/>
        <path fill="#691d14" d="M307.7 135.069l-2.83 2.573h-14.665l2.959-2.573H307.7z"/>
        <path fill="#cc482f" d="M293.164 135.069l-2.83 2.573 2.058-13.507 3.087-2.573-2.315 13.507zM275.798 121.562l1.929 2.573-7.075 44.894-2.315-2.573 7.461-44.894z"/>
        <path fill="#691d14" d="M295.351 121.562l-2.83 2.573h-14.794l-1.929-2.573h19.553z"/>
        <path fill="#f7eb87" d="M376.135 115.259l-2.444-2.573h46.566l-2.572 2.573h-41.55z"/>
        <path fill="#fcefb3" d="M375.363 130.695l-2.573 2.573.901-20.582 2.444 2.573-.772 15.436z"/>
        <path fill="#d05930" d="M417.685 115.259l2.572-2.573v57.115l-2.572-2.573v-51.969z"/>
        <path fill="#f7eb87" d="M290.462 113.201l2.831-2.573h14.278l2.316 2.573h-19.425zM277.985 99.951l2.958-2.573h14.15l-2.958 2.573h-14.15z"/>
        <path fill="#d05930" d="M292.135 99.951l2.958-2.573-1.8 13.25-2.831 2.573 1.673-13.25zM363.014 97.378l2.444 2.573-2.701 47.596-2.702 2.572 2.959-52.741z"/>
        <path fill="#691d14" d="M417.685 97.378l2.572 2.573h-54.799l-2.444-2.573h54.671z"/>
        <path fill="#cc482f" d="M104.582 96.735l1.929 2.573-15.565 48.239-3.601 2.572 17.237-53.384z"/>
        <path fill="#fcefb3" d="M127.222 150.119l-2.058-2.572 14.021-48.239 3.474-2.573-15.437 53.384z"/>
        <path fill="#691d14" d="M142.659 96.735l-3.474 2.573h-32.674l-1.929-2.573h38.077z"/>
        <path fill="#d05930" d="M164.913 92.104l3.344-2.573-18.138 69.078-1.929-2.572 16.723-63.933z"/>
        <path fill="#f7eb87" d="M143.044 92.104l3.345-2.573h21.868l-3.344 2.573h-21.869z"/>
        <path fill="url(#dungeonsak)" d="M52.098 159.767l1.801 2.573H23.798l3.73-2.573h24.57z"/>
        <path fill="#f7eb87" d="M38.334 153.979l3.602-2.573h15.951l-3.731 2.573H38.334z"/>
        <path fill="#d05930" d="M54.156 153.979l3.731-2.573-3.988 10.934-1.801-2.573 2.058-5.788z"/>
        <path fill="#cc482f" d="M27.528 159.767l-3.73 2.573 8.619-22.512 3.73-2.572-8.619 22.511z"/>
        <path fill="url(#dungeonsal)" d="M36.147 137.256l-3.73 2.572H3.859l3.859-2.572h28.429z"/>
        <path fill="#d05930" d="M46.438 131.724l3.73-2.572-8.232 22.254-3.602 2.573 8.104-22.255z"/>
        <path fill="#f7eb87" d="M18.138 131.724l3.859-2.572h28.171l-3.73 2.572h-28.3z"/>
        <path fill="#691d14" d="M52.484 115.645l1.801 2.572H26.371l-1.801-2.572h27.914z"/>
        <path fill="#cc482f" d="M24.57 115.645l1.801 2.572-4.374 10.935-3.859 2.572 6.432-16.079zM7.718 137.256l-3.859 2.572 13.121-31.773 1.801 2.573-11.063 26.628z"/>
        <path fill="#f7eb87" d="M18.781 110.628l-1.801-2.573h27.657l1.801 2.573H18.781z"/>
        <path fill="#691d14" d="M75.124 94.805l1.801 2.573H62.003l-1.801-2.573h14.922z"/>
        <path fill="#cc482f" d="M60.202 94.805l1.801 2.573-7.718 20.839-1.801-2.572 7.718-20.84zM46.438 110.628l-1.801-2.573 7.847-20.325 1.801 2.573-7.847 20.325z"/>
        <path fill="#d05930" d="M76.796 90.303l3.602-2.573-3.473 9.648-1.801-2.573 1.672-4.502z"/>
        <path fill="#f7eb87" d="M54.285 90.303l-1.801-2.573h27.914l-3.602 2.573H54.285zM342.946 83.228l-2.444-2.573h79.755l-2.572 2.573h-74.739z"/>
        <path fill="#d05930" d="M417.685 83.228l2.572-2.573v19.296l-2.572-2.573v-14.15z"/>
        <path fill="#cc482f" d="M335.871 167.228l-2.83 2.573 7.461-89.146 2.444 2.573-7.075 84zM309.887 113.201l-2.316-2.573 3.473-29.973 2.316 2.573-3.473 29.973z"/>
        <path fill="#d05930" d="M334.199 83.228l2.83-2.573-7.718 89.146-2.444-2.573 7.332-84z"/>
        <path fill="#f7eb87" d="M313.36 83.228l-2.316-2.573h25.985l-2.83 2.573H313.36z"/>
        <path fill="#d05930" d="M280.429 82.585l2.958-2.573-2.444 17.366-2.958 2.573 2.444-17.366z"/>
        <path fill="#f7eb87" d="M259.59 82.585l-2.187-2.573h25.984l-2.958 2.573H259.59z"/>
        <path fill="#cc482f" d="M245.182 166.456l-2.958 2.573 15.179-89.017 2.187 2.573-14.408 83.871z"/>
        <path fill="#d05930" d="M197.072 82.585l3.216-2.573-15.565 66.891-3.216 2.573 15.565-66.891zM250.842 82.585l3.088-2.573-13.765 78.597-2.058-2.572 12.735-73.452z"/>
        <path fill="#f7eb87" d="M230.132 82.585l-2.187-2.573h25.985l-3.088 2.573h-20.71zM176.233 82.585l-1.93-2.573h25.985l-3.216 2.573h-20.839z"/>
        <path fill="#cc482f" d="M157.194 156.037l-3.215 2.572 20.324-78.597 1.93 2.573-19.039 73.452z"/>
        <path fill="#fcefb3" d="M216.496 149.476l-2.058-2.573 13.507-66.891 2.187 2.573-13.636 66.891z"/>
        <path fill="#cc482f" d="M59.173 166.456l-3.602 2.573L86.83 80.012l1.801 2.573-29.458 83.871z"/>
        <path fill="#f7eb87" d="M88.631 82.585l-1.801-2.573h62.389l-3.473 2.573H88.631z"/>
        <path fill="#d05930" d="M145.746 82.585l3.473-2.573-2.83 9.519-3.345 2.573 2.702-9.519z"/>
        <g>
            <path fill="#818181" d="M586.328 158.609l1.801 11.192-1.801-11.192z"/>
            <path fill="#a7a7a7" d="M781.599 151.277h15.822-15.822zM691.296 147.547h57.5-57.5z"/>
            <path fill="gray" d="M509.403 147.547l1.929 22.254-1.929-22.254z"/>
            <path fill="#a7a7a7" d="M451.902 147.547h57.501-57.501zM540.919 147.547h29.715-29.715z"/>
            <path fill="#858585" d="M807.069 139.7l8.619 22.64-8.619-22.64z"/>
            <path fill="gray" d="M451.387 133.268l.515 14.279-.515-14.279z"/>
            <path fill="#a7a7a7" d="M789.317 129.152h28.3-28.3zM709.047 113.329h55.572-55.572z"/>
            <path fill="#848484" d="M764.619 113.329l19.81 56.472-19.81-56.472z"/>
            <path fill="gray" d="M506.315 112.686l1.801 20.582-1.801-20.582z"/>
            <path fill="#a7a7a7" d="M450.744 112.686h55.571-55.571zM636.882 111.271h14.279-14.279z"/>
            <path fill="#858585" d="M822.505 107.926l13.121 31.774-13.121-31.774z"/>
            <path fill="#a7a7a7" d="M794.848 107.926h27.657-27.657z"/>
            <path fill="gray" d="M450.358 99.951l.386 12.735-.386-12.735z"/>
            <path fill="#838383" d="M705.06 99.951l3.987 13.378-3.987-13.378z"/>
            <path fill="gray" d="M535.259 99.951l5.66 47.596-5.66-47.596z"/>
            <path fill="#818181" d="M633.923 98.021l2.959 13.25-2.959-13.25z"/>
            <path fill="#a7a7a7" d="M619.773 98.021h14.15-14.15zM507.859 90.175h13.121-13.121z"/>
            <path fill="#818181" d="M588.386 90.175l11.963 68.434-11.963-68.434z"/>
            <path fill="#a7a7a7" d="M575.265 90.175h13.121-13.121z"/>
            <path fill="#858585" d="M787.002 87.602l7.846 20.324-7.846-20.324z"/>
            <path fill="#a7a7a7" d="M759.087 87.602h27.915-27.915zM423.73 80.655h79.755-79.755z"/>
            <path fill="gray" d="M503.485 80.655l1.673 19.296-1.673-19.296z"/>
            <path fill="#818181" d="M616.172 80.655l3.601 17.366-3.601-17.366z"/>
            <path fill="#a7a7a7" d="M643.957 80.655h25.985-25.985z"/>
            <path fill="#828282" d="M669.942 80.655l23.412 89.146-23.412-89.146z"/>
            <path fill="#a7a7a7" d="M590.187 80.655h25.985-25.985zM519.951 80.655h53.77-53.77z"/>
            <path fill="#818181" d="M573.721 80.655l1.544 9.52-1.544-9.52z"/>
            <path fill="#a7a7a7" d="M673.415 80.655h79.755-79.755z"/>
            <path fill="#848484" d="M753.17 80.655l6.689 19.296-6.689-19.296z"/>
            <path fill="url(#dungeonsam)" d="M585.17 167.228l2.959 2.573h-58.787l2.315-2.573h53.513z"/>
            <path fill="url(#dungeonsan)" d="M631.479 167.228l3.088 2.573h-28.429l2.187-2.573h23.154z"/>
            <path fill="url(#dungeonsao)" d="M690.009 167.228l3.345 2.573h-28.429l2.058-2.573h23.026z"/>
            <path fill="url(#dungeonsap)" d="M508.502 167.228l2.83 2.573h-87.216l2.573-2.573h81.813z"/>
            <path fill="url(#dungeonsaq)" d="M780.827 167.228l3.602 2.573h-87.216l1.929-2.573h81.685z"/>
            <path fill="url(#dungeonsar)" d="M811.957 159.767l3.731 2.573h-30.101l1.8-2.573h24.57z"/>
            <path fill="url(#dungeonsas)" d="M530.499 156.037l-2.315 2.572h-14.022l2.316-2.572h14.021z"/>
            <path fill="#d05930" d="M583.369 156.037l2.959 2.572 1.801 11.192-2.959-2.573-1.801-11.191z"/>
            <path fill="url(#dungeonsat)" d="M597.39 156.037l2.959 2.572h-14.021l-2.959-2.572h14.021z"/>
            <path fill="#cc482f" d="M531.657 167.228l-2.315 2.573-1.158-11.192 2.315-2.572 1.158 11.191zM787.387 159.767l-1.8 2.573-3.988-11.063 3.73 2.573 2.058 5.917z"/>
            <path fill="#f7eb87" d="M785.329 153.85l-3.73-2.573h15.822l3.731 2.573h-15.823z"/>
            <path fill="#cc482f" d="M699.142 167.228l-1.929 2.573-5.917-22.254 3.344 2.572 4.502 17.109z"/>
            <path fill="#f7eb87" d="M694.64 150.119l-3.344-2.572h57.5l3.602 2.572H694.64zM449.329 150.119l2.573-2.572h57.501l-2.316 2.572h-57.758z"/>
            <path fill="#d05930" d="M507.087 150.119l2.316-2.572 1.929 22.254-2.83-2.573-1.415-17.109z"/>
            <path fill="#f7eb87" d="M538.603 150.119l2.316-2.572h29.715l2.959 2.572h-34.99z"/>
            <path fill="url(#dungeonsau)" d="M831.767 137.127l3.859 2.573h-28.557l-3.859-2.573h28.557z"/>
            <path fill="#d05930" d="M803.21 137.127l3.859 2.573 8.619 22.64-3.731-2.573-8.747-22.64z"/>
            <path fill="#f7eb87" d="M792.919 131.724l-3.602-2.572h28.172l3.859 2.572h-28.429z"/>
            <path fill="#cc482f" d="M801.152 153.85l-3.731-2.573-8.104-22.125 3.602 2.572 8.233 22.126z"/>
            <path fill="#691d14" d="M746.352 131.467l-1.929 2.573h-56.729l1.929-2.573h56.729z"/>
            <path fill="#cc482f" d="M752.398 150.119l-3.602-2.572-4.373-13.507 1.929-2.573 6.046 18.652z"/>
            <path fill="#d05930" d="M448.815 130.695l2.572 2.573.515 14.279-2.573 2.572-.514-19.424z"/>
            <path fill="#691d14" d="M505.286 130.695l2.83 2.573h-56.729l-2.572-2.573h56.471zM659.522 135.198l-2.187 2.701-14.664-.129 2.187-2.572h14.664z"/>
            <path fill="#cc482f" d="M666.983 167.228l-2.058 2.573-7.59-31.902 2.187-2.701 7.461 32.03z"/>
            <path fill="#691d14" d="M641.77 121.562l-2.058 2.573h-14.536l-3.087-2.573h19.681z"/>
            <path fill="#cc482f" d="M644.858 135.198l-2.187 2.572-2.959-13.635 2.058-2.573 3.088 13.636zM622.089 121.562l3.087 2.573 9.391 45.666-3.088-2.573-9.39-45.666z"/>
            <path fill="#f7eb87" d="M707.118 115.902l1.929-2.573h55.572l-1.801 2.573h-55.7z"/>
            <path fill="#d05930" d="M762.818 115.902l1.801-2.573 19.81 56.472-3.602-2.573-18.009-51.326z"/>
            <path fill="#cc482f" d="M821.348 131.724l-3.859-2.572-4.374-11.063 1.801-2.573 6.432 16.208z"/>
            <path fill="#691d14" d="M814.916 115.516l-1.801 2.573h-27.914l1.801-2.573h27.914z"/>
            <path fill="#d05930" d="M504 115.259l2.315-2.573 1.801 20.582-2.83-2.573L504 115.259z"/>
            <path fill="#f7eb87" d="M448.3 115.259l2.444-2.573h55.571L504 115.259h-55.7zM634.824 113.844l2.058-2.573h14.279l3.216 2.573h-19.553z"/>
            <path fill="#d05930" d="M820.704 110.499l1.801-2.573 13.121 31.774-3.859-2.573-11.063-26.628z"/>
            <path fill="#f7eb87" d="M793.047 110.499l1.801-2.573h27.657l-1.801 2.573h-27.657z"/>
            <path fill="#d05930" d="M631.865 100.594l2.058-2.573 2.959 13.25-2.058 2.573-2.959-13.25z"/>
            <path fill="#f7eb87" d="M617.715 100.594l2.058-2.573h14.15l-2.058 2.573h-14.15z"/>
            <path fill="#691d14" d="M502.328 97.378l2.83 2.573h-54.8l-2.701-2.573h54.671z"/>
            <path fill="#d05930" d="M447.657 97.378l2.701 2.573.386 12.735-2.444 2.573-.643-17.881z"/>
            <path fill="#691d14" d="M756.257 97.378l3.602 2.573H705.06l-3.474-2.573h54.671z"/>
            <path fill="#d05930" d="M701.586 97.378l3.474 2.573 3.987 13.378-1.929 2.573-5.532-18.524z"/>
            <path fill="#691d14" d="M565.746 97.378l-2.187 2.573h-28.3l-2.959-2.573h33.446z"/>
            <path fill="#cc482f" d="M532.3 97.378l2.959 2.573 5.66 47.596-2.316 2.572-6.303-52.741z"/>
            <path fill="#fcefb3" d="M573.593 150.119l-2.959-2.572-7.075-47.596 2.187-2.573 7.847 52.741z"/>
            <path fill="#691d14" d="M779.283 94.805l-1.801 2.573H762.56l1.801-2.573h14.922z"/>
            <path fill="#cc482f" d="M787.002 115.516l-1.801 2.573-7.719-20.711 1.801-2.573 7.719 20.711zM516.478 156.037l-2.316 2.572-6.303-68.434 2.83 2.572 5.789 63.29z"/>
            <path fill="#f7eb87" d="M573.078 92.747l2.187-2.572h13.121l-2.187 2.572h-13.121zM510.689 92.747l-2.83-2.572h13.121l2.83 2.572h-13.121z"/>
            <path fill="#d05930" d="M586.199 92.747l2.187-2.572 11.963 68.434-2.959-2.572-11.191-63.29z"/>
            <path fill="#f7eb87" d="M762.689 90.175l-3.602-2.573h27.915l-1.801 2.573h-22.512z"/>
            <path fill="#d05930" d="M785.201 90.175l1.801-2.573 7.846 20.324-1.801 2.573-7.846-20.324z"/>
            <path fill="#cc482f" d="M764.361 94.805l-1.801 2.573-3.473-9.776 3.602 2.573 1.672 4.63z"/>
            <path fill="#f7eb87" d="M647.173 83.228l-3.216-2.573h25.985l-2.058 2.573h-20.711z"/>
            <path fill="#cc482f" d="M654.377 113.844l-3.216-2.573-7.204-30.616 3.216 2.573 7.204 30.616z"/>
            <path fill="#d05930" d="M614.113 83.228l2.059-2.573 3.601 17.366-2.058 2.573-3.602-17.366z"/>
            <path fill="#f7eb87" d="M593.274 83.228l-3.087-2.573h25.985l-2.059 2.573h-20.839z"/>
            <path fill="#cc482f" d="M608.325 167.228l-2.187 2.573-15.951-89.146 3.087 2.573 15.051 84z"/>
            <path fill="#d05930" d="M667.884 83.228l2.058-2.573 23.412 89.146-3.345-2.573-22.125-84z"/>
            <path fill="#cc482f" d="M426.689 167.228l-2.573 2.573-.386-89.146 2.573 2.573.386 84z"/>
            <path fill="#f7eb87" d="M426.303 83.228l-2.573-2.573h79.755l-2.315 2.573h-74.867z"/>
            <path fill="#d05930" d="M501.17 83.228l2.315-2.573 1.673 19.296-2.83-2.573-1.158-14.15zM571.534 83.228l2.187-2.573 1.544 9.52-2.187 2.572-1.544-9.519z"/>
            <path fill="#cc482f" d="M689.623 131.467l-1.929 2.573-14.279-53.385 3.345 2.573 12.863 48.239z"/>
            <path fill="#d05930" d="M751.24 83.228l1.93-2.573 6.689 19.296-3.602-2.573-5.017-14.15z"/>
            <path fill="#f7eb87" d="M522.781 83.228l-2.83-2.573h53.77l-2.187 2.573h-48.753z"/>
            <path fill="gray" d="M523.81 92.747l-2.83-2.572-1.029-9.52 2.83 2.573 1.029 9.519z"/>
            <path fill="#f7eb87" d="M676.76 83.228l-3.345-2.573h79.755l-1.93 2.573h-74.48z"/>
        </g>
    </g>
    <g opacity=".81">
        <path d="M78.983 125.293a2.473 2.473 0 00-2.444-3.474h-3.087a1.906 1.906 0 00-1.801 1.287c0 .386.643.386 2.444.128l.515-.128c2.315-.129 3.087 1.543 2.315 3.473l-3.473 9.262c-.643 1.93.386 3.473 2.315 3.473h10.934c2.059 0 3.602-.257 3.602-.643s-1.672-.643-3.602-.643h-8.747c-2.058 0-3.087-1.415-2.315-3.216.643-1.801 1.672-3.345 3.602-3.345h8.875c2.059 0 3.602-.257 3.602-.643s-1.672-.643-3.602-.643h-7.203a2.433 2.433 0 01-2.444-3.474z" fill="#691d14" opacity=".48" style="isolation:isolate"/>
    </g>
    <g opacity=".44">
        <path d="M74.48 120.919c-1.028 0-1.93.643-1.93 1.029 0 .257.901.257 2.06.257h1.671c1.03 0 2.059-.257 2.187-.643s-.643-.643-1.672-.643z" fill="#f7eb87"/>
    </g>
    <g opacity=".81">
        <path fill="#691d14" opacity=".48" style="isolation:isolate" d="M167.1 107.283l2.701-.514h21.482l2.573.386.386-1.544-2.573-.386h-21.482l-2.573.386-.514 1.672z"/>
    </g>
    <g opacity=".44">
        <path d="M174.818 104.325c-1.03 0-1.801.257-1.544.643s1.287.514 2.316.514h7.46a3.312 3.312 0 002.316-.643c.257-.386-.514-.643-1.544-.643z" fill="#f7eb87"/>
    </g>
    <g opacity=".81">
        <path d="M256.888 166.585l1.93-12.992a.857.857 0 00-.9-1.03l-9.39.13a12.662 12.662 0 00-2.187.257l-.515.128c-.643.129-1.157.515-1.157.9s.385.643 1.029.515l.514-.129a12.683 12.683 0 012.187-.257l7.718-.129a.848.848 0 01.9 1.03l-1.543 11.577" fill="#691d14" opacity=".48" style="isolation:isolate"/>
    </g>
    <path d="M256.245 172.245c-.514-.772-.9-.643-.643.386l.386 1.544a17.13 17.13 0 001.286 3.601l.643 1.287c.515.9.772.9.515-.129l-.772-3.216a7.646 7.646 0 00-1.415-3.473z" fill="#691d14"/>
    <g opacity=".44">
        <path d="M249.813 151.663c-1.029 0-1.8.257-1.672.643a3.508 3.508 0 002.187.515h3.602c1.029 0 2.058-.258 2.187-.643s-.643-.644-1.673-.644z" fill="#f7eb87"/>
    </g>
    <path d="M255.473 166.456l2.573 9.005a13.396 13.396 0 00.772 2.058l.9 1.672c.257.515.386.515.257-.128l-3.087-12.607" fill="#691d14" opacity=".48" style="isolation:isolate"/>
    <path d="M256.76 164.012c-.129-1.029-.386-1.029-.643 0l-.258.9a8.44 8.44 0 00.13 3.602l1.286 3.602c.385 1.029.514.9.385-.129l-.514-3.344a35.637 35.637 0 01-.386-3.86z" fill="#2d000e"/>
    <g opacity=".81">
        <path d="M293.807 107.026l-1.8.772a5.824 5.824 0 01-2.06.386h-33.702a6.533 6.533 0 01-2.187-.386l-.386-.129c-.514-.129-1.029-.643-.9-1.029s.643-.514 1.158-.386l.257.129a11.039 11.039 0 002.187.386h9.52a1.134 1.134 0 001.157-1.03l1.8-16.594a1.22 1.22 0 011.158-1.029h8.362a5.332 5.332 0 002.058-.386l.9-.385c.515-.258 1.03-.129.9.257 0 .386-.514.9-1.029 1.158l-.9.385a6.051 6.051 0 01-2.058.515h-6.56a1.134 1.134 0 00-1.157 1.03l-1.673 15.178c-.128.643.386 1.03 1.03 1.03h20.195a5.332 5.332 0 002.059-.387l1.8-.771" fill="#691d14" opacity=".48" style="isolation:isolate"/>
    </g>
    <g opacity=".44">
        <path d="M265.378 105.74c1.03 0 1.801.257 1.544.515a3.703 3.703 0 01-2.315.514h-6.56a3.313 3.313 0 01-2.316-.643c-.129-.386.515-.643 1.544-.643z" fill="#f7eb87"/>
    </g>
    <g opacity=".81">
        <path d="M104.325 156.423c.128-.644-.129-.644-.386-.129l-.772 1.158a9.756 9.756 0 00-.772 2.058l-1.158 6.046a2.86 2.86 0 00.386 2.058l3.73 5.917a15.597 15.597 0 001.287 1.801l1.672 1.93c.386.515.515.386.13-.128l-5.404-9.777a5.332 5.332 0 01-.386-2.058z" fill="#691d14" opacity=".48" style="isolation:isolate"/>
    </g>
    <path d="M102.91 162.983c-.257-1.029-.643-1.029-.9 0l-.515 2.058a3.705 3.705 0 00.9 3.216l1.416 1.415c.771.772 1.029.515.771-.514l-.386-1.158c-.386-1.03-.772-2.701-1.03-3.73z" fill="#2d000e"/>
    <path d="M107.54 177.133a12.575 12.575 0 00-1.029-1.415c-.643-.772-1.543-2.187-2.186-2.958l-.9-1.287c-.644-.9-.773-.772-.258.129l1.672 3.087a30.363 30.363 0 001.673 2.573 6.64 6.64 0 01.771.9" fill="#691d14"/>
    <path d="M94.934 166.456h4.245c1.03 0 2.058-.257 2.058-.643s-.643-.643-1.672-.643l-5.017.129M113.458 164.913l-7.718.128c-1.03 0-1.801.258-1.673.644a3.508 3.508 0 002.187.514h6.69" fill="#f7eb87" opacity=".74" style="isolation:isolate"/>
    <g opacity=".81">
        <path fill="#691d14" opacity=".48" style="isolation:isolate" d="M733.36 99.951l.386-2.444-3.731-14.279-1.286-2.701-1.415.128 1.286 2.573 3.859 14.279-.514 2.444h1.415z"/>
    </g>
    <g opacity=".44">
        <path d="M735.418 96.606c-1.029 0-1.8.258-1.672.644s1.158.514 2.187.514h5.531c1.03 0 2.058-.257 2.187-.643s-.515-.643-1.672-.643z" fill="#f7eb87"/>
    </g>
    <g opacity=".81">
        <path fill="#691d14" opacity=".48" style="isolation:isolate" d="M511.075 125.292l.129 1.287 2.444-1.672h21.997l2.701.9-.129-1.544-2.701-.771H513.39l-2.315 1.8z"/>
    </g>
    <g opacity=".44">
        <path d="M515.706 122.72c-1.03 0-1.8.257-1.544.643a4.348 4.348 0 002.316.515h7.332a3.312 3.312 0 002.315-.643c.258-.386-.514-.644-1.543-.644z" fill="#f7eb87"/>
    </g>
    <path d="M171.988 188.84c0 .385.386.642 1.029.642l56.471-.128c.644 0 1.158-.258 1.158-.644s-.386-.643-1.029-.643l-56.471.129c-.644 0-1.158.257-1.158.643z" fill="#1f0008" opacity=".48" style="isolation:isolate"/>
    <path d="M178.162 190.254c-1.029 0-1.029-.128 0-.257l10.291-.772a19.334 19.334 0 013.86 0l7.975.643c1.029.129 1.029.258 0 .258l-10.291.385h-3.86z" fill="#691d14"/>
    <path d="M423.73 190.512c0 .385.386.643 1.03.643l83.228-.129c.643 0 1.157-.257 1.157-.643s-.385-.643-1.028-.643l-83.229.128a1.035 1.035 0 00-1.157.644z" fill="#1f0008" opacity=".48" style="isolation:isolate"/>
    <path d="M470.04 192.312c-1.03 0-1.03-.128 0-.128l13.378-1.03a19.334 19.334 0 013.86 0l10.42.644c1.029 0 1.029.128 0 .257l-13.379.643c-1.029 0-2.83.129-3.859 0z" fill="#691d14"/>
    <path d="M141.758 173.017l-7.46 1.93c-1.03.128-1.802-1.287-2.316-1.801-.386-.515 0-.9 1.157-.9l8.619.772M241.709 188.196l2.187 7.075a2.445 2.445 0 01-.643 2.573c-.643.386-1.287-.129-1.287-1.158l-.386-8.619" fill="#0b0000"/>
    <g opacity=".81">
        <path fill="#691d14" opacity=".48" style="isolation:isolate" d="M127.737 106.769l-4.76-9.262 2.573-10.677-2.058 2.701-1.93 8.362 4.116 5.917 1.673 2.83"/>
    </g>
    <path d="M123.234 94.29c-.257-1.028-.643-1.028-.9 0l-.386 2.06a3.705 3.705 0 00.9 3.215l1.415 1.415c.772.772 1.03.515.772-.515l-.386-1.157c-.386-1.03-.772-2.702-1.029-3.73z" fill="#030303"/>
    <path d="M126.322 106.383a9.305 9.305 0 01-.515-.9 28.559 28.559 0 00-1.672-2.445l-1.03-1.415c-.642-.9-.771-.772-.257.129l1.03 2.187a8.765 8.765 0 001.415 2.058 6.673 6.673 0 00.643.386" fill="#691d14"/>
    <g opacity=".81">
        <path d="M400.833 183.18c.257-1.03.643-12.607.9-13.38.515-1.543 1.03-2.572 1.286-2.572h.13l.385-14.021h16.852v-1.415h-18.267l-1.157 15.308c-1.158.515-1.415 1.672-1.544 2.83-.129.9.515 11.963.386 12.606" fill="#691d14" opacity=".48" style="isolation:isolate"/>
    </g>
    <g opacity=".44">
        <path d="M406.107 151.02c-1.029 0-1.8.257-1.544.643s1.287.515 2.316.515h7.332a3.313 3.313 0 002.316-.643c.257-.386-.515-.644-1.544-.644z" fill="#f7eb87"/>
    </g>
    <path d="M399.032 173.274c-.386-.9-.643-.772-.643.257v1.544a12.434 12.434 0 00.514 3.73l.386 1.415c.258 1.03.515 1.03.515-.128v-3.216a16.289 16.289 0 00-.772-3.602z" fill="#691d14"/>
    <path d="M401.476 168.257c.258-1.029-.128-1.158-.772-.386l-.643.772a3.876 3.876 0 00-.514 3.345l.257.772c.386 1.029.772 1.029.9-.13v-.256a37.743 37.743 0 01.644-3.73z" fill="#2d000e"/>
    <path d="M400.19 168.772c-.386 1.029-.129 1.158.643.386l.515-.515a4.455 4.455 0 001.157-3.344v-.386c-.128-1.03-.514-1.03-.771-.129v.129c-.386 1.029-.9 2.572-1.287 3.601z" fill="#2d000e"/>
    <path d="M320.95 188.453l9.776-1.286a3.62 3.62 0 012.959 1.158c.515.772.129 1.415-.9 1.286l-11.835-1.158M657.464 186.395a1.84 1.84 0 012.253-1.304l.062.018 7.204 2.187c1.03.257 1.03.643 0 .9l-8.619 1.543c-1.029.129-1.672-.514-1.415-1.543z" fill="#0b0000"/>
    <path d="M656.563 186.395a3.42 3.42 0 001.03-3.087l-2.702-10.548c-.257-1.029-.514-1.029-.643 0l-.772 14.15c0 1.03.515 1.415 1.415.772z" fill="url(#dungeonsav)"/>
    <path d="M599.577 187.038a3.8 3.8 0 012.959-1.029l10.034 1.544q1.543.193 0 .386l-12.092.386c-1.03 0-1.415-.515-.9-1.287z" fill="#0b0000"/>
    <path d="M600.35 187.424a2.99 2.99 0 00.514-2.701l-1.287-4.374c-.257-1.029-.514-1.029-.514.129l.128 5.788q.193 1.737 1.158 1.158z" fill="url(#dungeonsaw)"/>
    <path d="M604.208 189.611c-1.029.129-1.029-.129-.128-.386l1.672-.514a12.284 12.284 0 013.73-.386l4.245.386c1.03.128 1.03.257 0 .257l-4.245.257c-1.029 0-2.83.129-3.859.257z" fill="#691d14"/>
    <g opacity=".81">
        <path d="M336.772 125.035l-.129 1.801a6.28 6.28 0 012.959-1.286c5.531-.258 18.652-.515 24.44 1.158l.13-1.416c-5.918-1.8-18.782-1.415-24.57-1.029a4.79 4.79 0 00-2.83.772z" fill="#691d14" opacity=".48" style="isolation:isolate"/>
    </g>
    <g opacity=".44">
        <path d="M341.66 122.72c-1.03 0-1.8.386-1.672.643a3.508 3.508 0 002.187.515l5.016-.129c1.03 0 2.059-.386 2.187-.772s-.643-.643-1.672-.643z" fill="#f7eb87"/>
    </g>
    <g opacity=".81">
        <path d="M474.156 80.655c.129.258 1.544 2.444 1.672 2.702 2.445 7.59.9 12.606.258 14.021l-1.287 2.573 1.287.129a26.411 26.411 0 001.543-2.573c.772-1.93 2.187-6.69-.257-14.15 0-.129-1.544-2.444-1.544-2.701z" fill="#691d14" opacity=".48" style="isolation:isolate"/>
    </g>
    <path d="M476.472 98.279c-.515-.258-.515-1.287-.129-2.187l1.03-2.058c.385-.9.77-.9.642.128l-.257 2.702c-.257 1.029-.772 1.672-1.286 1.415z" fill="#030303"/>
    <path d="M476.472 97.893a5.472 5.472 0 00-2.187 2.315l-.772 1.93c-.386 1.03-.257 1.03.386.258l2.701-3.603c.772-.772.643-1.286-.128-.9z" fill="#2d000e"/>
    <g opacity=".44">
        <path d="M464.894 96.606c-1.029 0-1.8.258-1.543.644a4.348 4.348 0 002.315.514h7.332a3.312 3.312 0 002.316-.643c.257-.386-.515-.643-1.544-.643z" fill="#f7eb87"/>
    </g>
    <g opacity=".81">
        <path fill="#691d14" opacity=".48" style="isolation:isolate" d="M465.923 147.547h-1.543l-1.673 2.572.258 17.109 1.415 2.573h1.415l-1.415-2.573v-17.109l1.543-2.572z"/>
    </g>
    <path d="M465.28 169.93c.515-.257.386-.9-.257-1.544l-.515-.514c-.772-.643-1.157-.386-.772.514v.258c.258 1.028 1.03 1.543 1.544 1.286zM762.432 192.57l6.689 1.03a3.116 3.116 0 002.83-1.416l.129-.386c.514-.9 0-1.543-1.03-1.286l-8.618 2.058" fill="#2d000e"/>
    <g opacity=".81">
        <path fill="#691d14" opacity=".48" style="isolation:isolate" d="M464.38 169.801l3.344 5.66 3.602 2.573-5.531-8.233"/>
    </g>
    <path d="M467.853 171.602c-.515-.9-.772-.772-.515.257l.13.386a7.013 7.013 0 001.929 3.087l1.672 1.415c.772.643.9.643.257-.257l-1.157-1.415c-.644-.9-1.544-2.316-2.187-3.216z" fill="#691d14"/>
    <g opacity=".81">
        <path d="M572.435 158.095a5.468 5.468 0 00-.257 1.415l.643 7.075a5.272 5.272 0 01-.129 1.415l-3.859 18.652c-.129.386 0 .386.129 0l2.701-7.203a5.797 5.797 0 00.386-1.415l2.315-10.163a5.273 5.273 0 00.129-1.415l-1.158-9.261c0-.386-.257-.386-.386-.13z" fill="#691d14" opacity=".48" style="isolation:isolate"/>
    </g>
    <path d="M573.207 162.855c.128-1.03.514-1.03.643 0l.514 2.7a8.6 8.6 0 01.13 3.088 28.625 28.625 0 01-1.03 3.088l-1.03 2.83c-.385 1.029-.514.9-.385-.13l.386-2.572c.129-1.029.257-2.444.257-3.087s.129-2.058.257-3.087z" fill="#1f0008" opacity=".48" style="isolation:isolate"/>
    <path d="M574.75 174.046c-.129-.9-.772-.9-1.158 0l-.386.772a8.63 8.63 0 00-.771 3.602v1.672c0 1.029.385 1.158.771.128l1.158-2.83a5.77 5.77 0 00.386-3.344z" fill="#691d14"/>
    <g opacity=".44">
        <path d="M583.498 165.813l-6.175.129c-1.03 0-1.8.257-1.672.643a3.508 3.508 0 002.187.514h5.274" fill="#f7eb87"/>
    </g>
    <g opacity=".44">
        <path d="M553.783 167.228h15.05a3.714 3.714 0 002.444-.643c.257-.386-.258-.643-1.415-.643l-17.238.257" fill="#f7eb87"/>
    </g>
    <g opacity=".81">
        <path d="M658.879 142.401v1.415l15.565-.643 5.146 23.927a24.36 24.36 0 00-.643 2.959l-.257 1.93-.386 3.987 3.344-9.004-5.788-25.214z" fill="#691d14" opacity=".48" style="isolation:isolate"/>
    </g>
    <path d="M679.976 164.14c-.13-1.028.128-1.157.514-.128l.129.515c.257 1.029.643 1.93.643 2.187a10.503 10.503 0 01-.643 2.186l-1.03 2.573c-.385 1.03-.514.9-.385-.128l.386-2.316c.128-1.029.385-2.058.385-2.187z" fill="#1f0008" opacity=".48" style="isolation:isolate"/>
    <g opacity=".44">
        <path d="M665.825 141.372c-1.029 0-1.8.257-1.672.643s1.158.515 2.187.515h3.602c1.029 0 2.058-.257 2.187-.643s-.644-.644-1.673-.644z" fill="#f7eb87"/>
    </g>
    <g opacity=".44">
        <path d="M580.796 101.495c-1.029 0-1.8.257-1.672.643s1.158.514 2.187.514h3.602c1.029 0 2.058-.257 2.187-.643s-.643-.643-1.673-.643z" fill="#f7eb87"/>
    </g>
    <path d="M30.616 173.531l10.548.386c1.029 0 1.029.258 0 .515l-8.748 1.93" fill="#1f0008"/>
    <path d="M34.86 176.49c-1.028.129-1.028-.129-.128-.386l1.672-.514a18.888 18.888 0 013.73-.644h.9c1.03 0 1.03.129.129.386l-1.03.258c-1.028.257-2.7.643-3.73.771z" fill="#691d14"/>
    <g opacity=".81">
        <path d="M801.023 162.083a3.217 3.217 0 01-1.286-1.415c-.129-.515-.386-1.673-.644-2.702l-.128-.643c-.257-1.029 0-1.158.386-.129l.386.9c.514.9 1.158 2.445 1.543 3.216.386.644.258 1.03-.257.773z" fill="#691d14" opacity=".48" style="isolation:isolate"/>
    </g>
    <g opacity=".81">
        <path d="M69.464 87.73a3.575 3.575 0 00-1.544 1.544 7.52 7.52 0 00-.515 2.444c0 .772.258.772.386 0a10.269 10.269 0 011.544-2.83c.644-.9.644-1.415.129-1.158z" fill="#691d14" opacity=".48" style="isolation:isolate"/>
    </g>
    <g opacity=".81">
        <path fill="#691d14" opacity=".48" style="isolation:isolate" d="M746.224 139.828l.257 1.415 2.573-.9h22.382l2.959.643-.643-1.543-2.959-.515h-22.125l-2.444.9z"/>
    </g>
    <path d="M744.809 140.6a1.155 1.155 0 011.286-1.672l3.087.257c1.03.129 1.158.643.258 1.158l-2.187 1.286a1.8 1.8 0 01-2.386-.887q-.032-.07-.058-.142z" fill="#0b0000"/>
    <g opacity=".44">
        <path d="M755.228 138.028c-1.029 0-1.8.257-1.543.643s1.157.514 2.186.514h6.046c1.03 0 2.059-.257 2.187-.643s-.514-.643-1.543-.643z" fill="#f7eb87"/>
    </g>
    <g opacity=".81">
        <path fill="#691d14" opacity=".48" style="isolation:isolate" d="M603.308 154.622l2.701-1.415 22.512.128 2.83.644-.386-1.801-2.444-.515h-22.898l-2.572 1.029.257 1.93z"/>
    </g>
    <g opacity=".44">
        <path d="M611.026 150.763c-1.029 0-1.8.257-1.544.643s1.287.514 2.316.514h7.46a3.312 3.312 0 002.316-.643c.258-.386-.514-.643-1.543-.643z" fill="#f7eb87"/>
    </g>
    <path d="M716.766 166.714c0-.772-.772-.258-1.672 1.029l-.515.772c-.9 1.286-.772 1.672.257.9a4.47 4.47 0 001.93-2.701z" fill="#1f0008" opacity=".48" style="isolation:isolate"/>
    <g opacity=".44">
        <path d="M718.567 156.423c-1.03 0-1.801.257-1.673.643a3.51 3.51 0 002.187.514h3.602c1.03 0 2.058-.257 2.187-.643s-.643-.643-1.672-.643z" fill="#f7eb87"/>
    </g>
    <path d="M785.072 191.67l-.515 7.074a2.197 2.197 0 01-2.058 1.93h-1.929c-1.03 0-1.415-.772-.9-1.544l5.017-7.332" fill="#0b0000"/>
    <g opacity=".81">
        <path fill="#691d14" opacity=".48" style="isolation:isolate" d="M244.668 133.654l-2.573-.643-11.063-.129 3.473 1.415 7.204.386 2.573.9.386-1.929z"/>
    </g>
    <path d="M763.461 193.985c-1.03-.386-.9-.644.129-.515h.9a12.864 12.864 0 013.73.772c1.03.386.9.643-.128.643h-.258a18.9 18.9 0 01-3.73-.643z" fill="#691d14"/>
    <g fill="#2d000e">
        <path d="M96.092 131.081l-.643-.386a6.926 6.926 0 00-3.602-.643l-1.158.129c-.9.128-.9 1.157 0 1.157l.643.13a20.167 20.167 0 013.73 1.028l.258.129c.128 0 .257 0 .257.129l.514-1.673zM91.332 138.156l-2.572.129c-1.03.257-1.03.514.128.643l3.345 1.158a1.998 1.998 0 001.286-.129l.386-1.158a3.041 3.041 0 00-2.573-.643z"/>
    </g>
    <path d="M254.83 106.64l-.514-.257a2.544 2.544 0 00-1.287-.258l-.257 1.287a1.995 1.995 0 001.544.257h.385c.9-.128 1.03-.514.129-1.029zM282.358 86.959l-1.157.514c-.9.515-.9.772.128.515l.9-.129.13-.9zM293.421 105.997l-1.158.514c-.9.515-.9.772.129.515l1.286-.129.13-1.157c0 .128-.258.257-.387.257zM360.956 125.035c-1.03 0-1.158.258-.13.643l3.217 1.287.129-1.673zM463.608 148.833l-.129.257c-.386 1.03 0 1.287.9.643l.643-.514c.644-.643.9-1.286.515-1.544h-1.03c-.385.129-.642.643-.899 1.158zM512.361 124.52l-1.286.773.129 1.543 1.543-1.8c.772-.773.515-1.03-.386-.515zM537.832 124.263l-2.187-.257c-.643-.128-.643.129-.129.386l2.444 1.158c.257.129.257.129.386 0l-.129-1.158a.473.473 0 00-.385-.129z" fill="#2d000e"/>
    <g opacity=".81">
        <path d="M588.9 102.781a5.827 5.827 0 00-2.058-.386h-9.004c-.644 0-1.158.257-1.158.643s.515.643 1.158.643h9.133a5.395 5.395 0 012.058.515l2.187 1.286-.386-1.93z" fill="#691d14" opacity=".48" style="isolation:isolate"/>
    </g>
    <g>
        <g opacity=".81">
            <path d="M726.156 149.09c0 .9-.386.9-.9 0l-.386-.514a2.568 2.568 0 01-.386-1.03h-.128a1.4 1.4 0 00.128.644l.386.643a9.636 9.636 0 01.643 2.058l.772 5.017a.856.856 0 01-.9 1.029H714.45a.848.848 0 00-.9 1.029l1.801 7.59a2.17 2.17 0 01-.515 1.8l-1.415 1.416c-.385.386-.257.772.258.772a2.457 2.457 0 001.8-.9l1.03-1.158a2.09 2.09 0 00.386-1.93l-1.672-6.56a.78.78 0 01.771-1.029l10.935.129a.848.848 0 00.9-1.029l-1.03-6.432a9.636 9.636 0 00-.643-2.058l-.386-.643a2.807 2.807 0 00-.514-.643 2.433 2.433 0 01.9 1.799z" fill="#691d14" opacity=".48" style="isolation:isolate"/>
        </g>
        <path d="M724.998 148.576l.386.514c.515.9.9.772.9 0a2.13 2.13 0 00-.643-1.543h-.9a1.134 1.134 0 00.257 1.029z" fill="#691d14" opacity=".48" style="isolation:isolate"/>
        <path d="M724.998 148.576l.386.514c.515.9.9.772.9 0a2.13 2.13 0 00-.643-1.543h-.9a1.134 1.134 0 00.257 1.029z" fill="#1f0008" opacity=".48" style="isolation:isolate"/>
    </g>
    <path d="M733.617 97.507l-.9-2.83c-.643-1.03-.514-.9-.514.129l.257 2.444-.257 1.286c-.258.772-.129 1.287.257 1.544h.643a3.365 3.365 0 00.514-2.573z" fill="#030303"/>
    <path d="M667.626 142.401h-8.361a1.631 1.631 0 00-.772.129l.515 1.8h1.029l7.718-1.543c.9-.257.9-.386-.129-.386z" fill="#0b0000"/>
</svg>
