<svg width="381" height="88" viewBox="0 0 381 88" fill="none" xmlns="http://www.w3.org/2000/svg">
<path d="M17.1279 64.9778L0.684692 49.6907L16.17 1.75912H34.529L42.8304 13.0652L43.6286 10.0397H48.7372L50.8125 1.75912H69.6504L70.4486 3.03305L70.7679 1.75912L89.925 1.59988L90.5636 3.03305L90.7233 1.59988H110.04L113.393 10.0397H113.712L114.191 11.3136L115.628 1.59988H135.264L135.583 2.71457V1.59988H175.653L177.729 19.7534L177.25 30.5818H176.451L177.09 35.8367L176.611 47.3021H175.653L176.451 52.8755L175.973 64.9778H136.221L135.743 63.8631V64.9778H116.426L111.956 55.9011L110.679 64.9778H91.5215L90.7233 63.7039L90.5636 64.9778H71.7258L70.7679 63.7039L70.4486 64.9778H51.7704L43.9479 55.9011H39.1586L38.0411 54.7864L35.3272 64.9778H17.1279Z" fill="#030303"/>
<path d="M235.998 64.1816L235.838 64.8185H215.883L214.287 19.5941L215.883 1.44058H256.113L256.273 2.39603L256.592 1.44058H296.343L296.503 2.71451L297.141 1.44058H336.573L336.892 2.71451L337.691 1.28134H376.803L380.475 12.9059L372.812 22.1419V22.3012C373.291 24.0528 373.929 25.9637 374.408 27.7154C374.728 28.9893 376.164 33.2888 376.164 33.2888L377.442 37.5883L378.24 40.4546C378.559 41.7286 379.038 42.8433 379.357 44.1172L380.475 47.7797L380.954 49.3721L365.468 64.6593H346.79L339.606 35.8367L331.464 46.9835H325.717L326.196 49.2129L315.341 64.8185H296.343L296.183 63.5446L295.385 64.8185H276.228L276.068 63.5446L275.43 64.8185H255.953L255.794 63.7038L255.474 64.8185H235.838L235.998 64.1816Z" fill="#030303"/>
<path d="M173.897 49.0537L175.653 1.59988H216.043L216.362 12.7468L215.085 30.5818H196.407L196.247 36.4737L217.16 36.3144L217.48 49.0537L215.883 64.9778H175.813L173.897 49.0537Z" fill="#030303"/>
<path d="M35.1677 12.9058L32.6134 21.5049H43.6288L46.0235 12.9058H50.9724L53.0477 4.62531H67.5752L57.3581 48.5758H41.7131L46.5024 29.9446H40.7552L38.3606 39.0214H28.3031L30.6977 29.9446H25.1102L19.5227 48.5758H4.19702L18.2456 4.78455H32.4538L30.2188 12.5874L35.1677 12.9058Z" fill="url(#paint0_linear)"/>
<path d="M87.6904 4.78467L79.0697 48.576H63.4247L73.1629 4.78467H87.6904Z" fill="url(#paint1_linear)"/>
<path d="M108.763 34.4034L110.04 25.3266L104.453 25.1674L100.621 48.5758H84.9764L93.2779 4.62531H107.805L106.528 12.7466L111.477 12.9058L110.2 21.3456L115.788 21.5049L118.182 4.62531H132.71L127.601 48.4166L111.956 48.5758L113.872 34.5626L108.763 34.4034Z" fill="url(#paint2_linear)"/>
<path d="M171.343 39.4991L171.024 48.4166H133.667L138.297 4.62531H172.94L172.62 12.2689L152.186 12.4281L151.547 21.3456H172.141L171.822 29.7854H150.749L150.111 39.3398L171.343 39.4991Z" fill="url(#paint3_linear)"/>
<path d="M374.569 4.30676L377.123 12.1096H367.065V12.4281C367.544 14.1797 367.863 15.9314 368.502 17.683C368.981 19.4347 369.46 21.3456 370.098 23.0972C370.577 25.0081 371.216 26.7597 371.695 28.6706C372.333 30.5815 372.812 32.4924 373.451 34.2441C373.77 35.3588 374.09 36.4734 374.569 37.7474C374.888 38.8621 375.367 40.136 375.686 41.2507C376.005 42.3654 376.325 43.6393 376.803 44.754C377.123 46.0279 377.442 47.1426 377.921 48.4165H362.116L352.218 12.1096H342.161L340.245 4.30676H374.569Z" fill="url(#paint4_linear)"/>
<path d="M338.17 21.0273L340.405 29.7855H319.172L323.163 48.4167H307.359L299.377 4.46619H334.179L336.094 12.269H315.501L317.416 21.0273H338.17Z" fill="url(#paint5_linear)"/>
<path d="M277.665 34.2443L279.581 48.4167H263.776L258.827 4.46619H293.63L301.292 48.4167H285.488L283.412 34.2443H277.665ZM287.882 17.0462L286.925 11.4728H280.06L280.699 16.5685H275.271L274.632 11.4728H267.927L268.566 17.0462H274.632L274.951 19.1164H271.918L273.036 27.7154H276.707L276.388 24.849H281.816L282.295 27.7154H285.967L284.69 19.1164H281.656L281.337 17.0462H287.882Z" fill="url(#paint6_linear)"/>
<path d="M250.366 25.6453H255.635L257.87 48.4167H242.225L240.788 29.9448L235.041 29.7855L236.318 48.4167H220.673L218.917 4.46619H253.559L255.156 20.7088H250.047L250.366 25.6453ZM240.149 21.3457L239.511 12.269H233.923L234.562 21.3457H240.149Z" fill="url(#paint7_linear)"/>
<path d="M193.214 12.269H213.329L213.17 4.46619L178.527 4.62543L176.931 48.4167H214.447L214.128 39.4992H192.736L193.214 12.269Z" fill="url(#paint8_linear)"/>
<path d="M6.59151 48.5759C5.31437 48.5759 4.99508 49.3721 5.95294 50.1683L16.649 60.3598C17.6069 61.3152 19.5226 61.9522 20.7997 61.9522H29.8994C31.1765 61.9522 31.4958 61.156 30.6976 60.2005L21.2787 50.1683C20.3208 49.2129 18.5647 48.4167 17.2876 48.4167L6.59151 48.5759Z" fill="#29282A"/>
<path d="M44.1076 48.5759C42.8305 48.5759 42.3515 49.3721 43.3094 50.3276L51.6108 60.2005C52.409 61.156 54.1651 61.9522 55.6019 61.9522H65.1805C66.4576 61.9522 66.9365 61.156 66.1383 60.0413L58.9544 50.3276C58.1562 49.2129 56.4001 48.4167 55.123 48.4167L44.1076 48.5759Z" fill="#29282A"/>
<path d="M30.6977 39.0215C29.4206 39.0215 28.9416 39.8178 29.8995 40.7732L39.1588 51.1238C39.957 52.0793 41.5534 52.8755 42.3516 52.8755C43.3095 52.8755 43.4691 51.9201 42.6709 50.8054L42.3516 50.3276C41.5534 49.213 41.2341 47.3021 41.5534 46.0281C41.8727 44.7542 41.5534 42.8433 40.7552 41.8879L39.7973 40.7732C38.9991 39.8178 37.243 38.8623 35.9659 38.8623L30.6977 39.0215Z" fill="#29282A"/>
<path d="M65.6592 48.5759C64.3821 48.5759 63.9032 49.3721 64.7014 50.4868L71.7257 60.0413C72.5239 61.156 74.28 61.9522 75.5571 61.9522H84.976C86.2532 61.9522 86.7321 60.9967 86.0935 59.8821L80.1867 50.4868C79.5482 49.3721 77.7921 48.4167 76.515 48.4167L65.6592 48.5759Z" fill="#29282A"/>
<path d="M87.371 48.5757C86.0939 48.5757 85.615 49.5312 86.2535 50.6459L92.0007 59.8819C92.6393 60.9966 94.3953 61.952 95.6725 61.952H104.932C106.209 61.952 106.847 60.9966 106.209 59.8819L101.739 50.8051C101.1 49.6904 99.6635 48.735 98.2268 48.735L87.371 48.5757Z" fill="#29282A"/>
<path d="M114.35 48.4167C113.073 48.4167 112.434 49.3721 112.913 50.6461L117.224 59.8821C117.703 60.9967 119.299 62.1114 120.576 62.1114H130.155C131.432 62.1114 132.23 61.156 131.751 59.8821L128.399 50.8053C127.92 49.5314 126.483 48.5759 125.206 48.5759L114.35 48.4167Z" fill="#29282A"/>
<path d="M136.062 48.4167C134.785 48.4167 133.986 49.3721 134.465 50.6461L137.658 59.4043C138.137 60.6783 139.574 61.6337 140.851 61.6337H170.545C171.822 61.6337 172.78 60.519 172.62 59.2451L171.343 50.8053C171.183 49.5314 169.906 48.4167 168.629 48.4167H136.062Z" fill="#29282A"/>
<path d="M179.325 48.4167C178.048 48.4167 177.09 49.5314 177.249 50.8053L178.207 59.5636C178.367 60.8375 179.484 61.9522 180.921 61.9522H210.455C211.732 61.9522 213.009 60.8375 213.169 59.5636L214.286 50.8053C214.446 49.5314 213.488 48.4167 212.211 48.4167H179.325Z" fill="#29282A"/>
<path d="M222.748 48.4166C221.471 48.4166 220.193 49.5312 220.034 50.8052L218.916 59.4042C218.757 60.6781 219.715 61.7928 220.992 61.7928H230.411C231.688 61.7928 233.125 60.6781 233.284 59.4042L235.36 50.6459C235.679 49.372 234.881 48.2573 233.603 48.2573L222.748 48.4166Z" fill="#29282A"/>
<path d="M244.459 48.4167C243.182 48.4167 241.745 49.5314 241.586 50.8053L239.51 59.4043C239.191 60.6783 239.989 61.7929 241.426 61.7929H250.845C252.122 61.7929 253.559 60.8375 254.038 59.5636L257.071 50.8053C257.55 49.5314 256.752 48.5759 255.475 48.5759L244.459 48.4167Z" fill="#29282A"/>
<path d="M266.33 48.4166C265.053 48.4166 263.616 49.372 263.138 50.6459L259.945 59.5634C259.466 60.8373 260.264 61.7928 261.541 61.7928H270.96C272.237 61.7928 273.834 60.8373 274.312 59.5634L278.623 50.4867C279.102 49.372 278.623 48.2573 277.186 48.2573L266.33 48.4166Z" fill="#29282A"/>
<path d="M288.042 48.4166C286.765 48.4166 285.168 49.372 284.53 50.4867L280.06 59.5634C279.421 60.6781 280.06 61.6336 281.337 61.6336H291.075C292.352 61.6336 293.949 60.6781 294.587 59.5634L300.015 50.3275C300.654 49.2128 300.175 48.2573 298.898 48.2573L288.042 48.4166Z" fill="#29282A"/>
<path d="M309.753 48.4167C308.476 48.4167 306.879 49.3721 306.081 50.4868L300.334 59.8821C299.696 60.9967 300.174 61.9522 301.452 61.9522H311.03C312.307 61.9522 314.063 61.156 314.862 60.0413L321.726 50.4868C322.524 49.3721 322.046 48.5759 320.768 48.5759L309.753 48.4167Z" fill="#29282A"/>
<path d="M364.191 48.4167C362.914 48.4167 361.158 49.2129 360.2 50.1683L351.58 59.8821C350.781 60.8375 351.101 61.6337 352.378 61.6337H361.478C362.755 61.6337 364.67 60.8375 365.628 60.0413L375.845 50.1683C376.803 49.2129 376.484 48.5759 375.207 48.5759L364.191 48.4167Z" fill="#29282A"/>
<g opacity="0.44">
<g opacity="0.44">
<g opacity="0.44">
<path opacity="0.44" d="M15.6914 11.9503C15.5318 12.2688 16.6493 12.428 17.9264 12.428H27.9839C29.261 12.428 30.3785 12.2688 30.3785 11.9503C30.3785 11.6318 29.261 11.4726 27.9839 11.4726H18.2457C16.9685 11.4726 15.851 11.7911 15.6914 11.9503Z" fill="#030303"/>
</g>
<g opacity="0.44">
<path opacity="0.44" d="M14.8932 34.5627C15.3722 33.2888 14.5739 32.3333 13.2968 32.3333H11.3811C10.1039 32.3333 8.98645 32.4926 8.98645 32.8111C8.98645 33.1296 10.1039 33.2888 11.3811 33.2888H12.0197C13.2968 33.2888 14.095 34.2442 13.6161 35.5182L11.3811 42.2063C10.9022 43.4802 11.7004 44.4357 12.9775 44.4357H20.3211C21.5982 44.4357 22.7157 44.2764 22.7157 43.9579C22.7157 43.6395 21.5982 43.4802 20.3211 43.4802H14.2547C12.9775 43.4802 12.1793 42.5248 12.6582 41.2508C13.1372 39.9769 14.4143 39.0215 15.8511 39.0215H21.2789C22.5561 39.0215 23.6736 38.8622 23.6736 38.5437C23.6736 38.2253 22.5561 38.066 21.2789 38.066H16.0107C14.7336 38.066 13.9354 37.1106 14.4143 35.8366L14.8932 34.5627Z" fill="#030303"/>
</g>
<g opacity="0.44">
<path opacity="0.44" d="M57.8374 14.1797C57.997 12.9058 57.0391 11.7911 55.762 11.7911H53.2077C51.9306 11.7911 50.8131 11.9503 50.6534 12.2688C50.4938 12.5873 51.6113 12.7466 52.8884 12.7466H54.6445C55.9216 12.7466 56.8795 13.8612 56.7199 15.1352L56.4006 17.683C56.2409 18.9569 54.9638 20.0716 53.6866 20.0716H44.4274C43.1502 20.0716 42.0327 20.2309 42.0327 20.5494C42.0327 20.8678 43.1502 21.0271 44.4274 21.0271H53.527C54.8041 21.0271 56.0813 21.0271 56.2409 21.0271C56.4006 21.0271 57.5181 21.0271 58.9549 21.0271H63.2652C64.5424 21.0271 65.6599 20.8678 65.6599 20.5494C65.6599 20.2309 64.5424 20.0716 63.2652 20.0716H59.4338C58.1566 20.0716 57.1988 18.9569 57.3584 17.683L57.8374 14.1797Z" fill="#030303"/>
</g>
<g opacity="0.44">
<path opacity="0.44" d="M71.2475 43.4804C71.4071 42.2065 71.4071 41.5695 71.0879 42.2065C70.7686 42.8434 70.2896 44.2766 69.9703 45.5505L69.8107 46.506C69.4914 47.7799 69.9703 49.6908 70.7686 50.8055L70.9282 50.9647C71.7264 52.0794 72.8439 53.3533 73.3229 53.6718C73.9614 54.1495 73.8018 53.5126 73.1632 52.5571L71.8861 50.487C71.0879 49.3723 70.7686 47.4614 70.9282 46.1875L71.2475 43.4804Z" fill="#030303"/>
</g>
<g opacity="0.44">
<path opacity="0.44" d="M86.7326 13.5427C86.7326 13.2242 85.6151 13.065 84.3379 13.065H80.9854C79.7083 13.065 79.0697 13.2242 79.7083 13.5427C80.3469 13.8612 81.7836 14.0204 83.0608 14.0204H84.3379C85.7747 14.0204 86.7326 13.8612 86.7326 13.5427Z" fill="#030303"/>
</g>
<g opacity="0.44">
<path opacity="0.44" d="M92.639 45.8688C92.9583 44.5948 92.7986 43.9579 92.4793 44.5948C92.16 45.2318 91.6811 46.3465 91.3618 47.1427C91.2022 47.9389 91.3618 49.3721 91.6811 50.3275C92.0004 51.2829 92.639 52.5569 93.1179 53.0346C93.5969 53.5123 93.5969 53.0346 93.1179 51.7607L92.7986 50.8052C92.3197 49.5313 92.3197 47.4612 92.639 46.1872V45.8688Z" fill="#030303"/>
</g>
<g opacity="0.44">
<path opacity="0.44" d="M89.1273 34.4032C87.8502 34.4032 86.7327 34.5624 86.7327 34.7216C86.7327 35.0401 87.8502 35.1994 89.1273 35.3586L99.983 35.8363C101.26 35.8363 102.697 36.4733 103.016 36.951C103.336 37.4288 103.814 37.9065 104.134 37.7472C104.293 37.588 104.134 36.951 103.814 36.3141C103.336 35.6771 101.899 35.0401 100.622 35.0401L89.1273 34.4032Z" fill="#030303"/>
</g>
<g opacity="0.44">
<path opacity="0.44" d="M100.94 12.1097C101.419 12.4282 102.856 12.5874 104.133 12.5874H104.293C105.57 12.5874 106.688 12.4282 106.688 12.1097C106.688 11.7912 105.57 11.632 104.293 11.632H102.537C101.26 11.4727 100.621 11.7912 100.94 12.1097Z" fill="#030303"/>
</g>
<g opacity="0.44">
<path opacity="0.44" d="M114.989 34.722C113.712 34.722 112.594 35.0405 112.594 35.359C112.594 35.6774 113.712 35.8367 114.989 35.6774L121.056 35.359C122.333 35.359 123.291 36.3144 123.131 37.5883L121.854 46.1874C121.694 47.4613 121.854 49.5314 122.173 50.8053L122.333 51.1238C122.652 52.3978 123.45 53.9902 123.929 54.6271C124.408 55.2641 124.408 54.7864 124.089 53.5124L123.291 50.6461C122.971 49.3722 122.812 47.302 122.971 46.0281L124.408 36.6329C124.568 35.359 123.77 34.2443 122.333 34.4035L114.989 34.722Z" fill="#030303"/>
</g>
<g opacity="0.44">
<path opacity="0.44" d="M116.905 11.7911C116.905 12.1096 117.863 12.4281 119.14 12.5873L129.836 13.8612C131.113 14.0205 132.231 13.8612 132.231 13.702C132.231 13.5428 131.113 13.065 129.836 12.9058L119.459 11.7911C118.182 11.4726 117.065 11.6319 116.905 11.7911Z" fill="#030303"/>
</g>
<g opacity="0.44">
<path opacity="0.44" d="M141.65 40.9324C141.65 39.6585 140.692 38.5438 139.415 38.5438H136.062C134.785 38.5438 133.668 38.7031 133.668 39.0215C133.668 39.34 134.785 39.4993 136.062 39.4993H138.457C139.734 39.4993 140.852 40.614 140.692 41.8879L140.532 45.8689C140.532 47.1428 140.692 49.213 141.011 50.4869L141.65 52.7163C141.969 53.9902 142.608 55.5826 142.927 56.2196C143.246 56.8565 143.406 56.3788 143.087 55.1049L141.969 50.3277C141.65 49.0537 141.49 46.9836 141.49 45.5504L141.65 40.9324Z" fill="#030303"/>
</g>
<g opacity="0.44">
<path opacity="0.44" d="M136.062 17.3647C136.062 17.6832 137.18 17.8424 138.457 17.8424H141.65C142.927 17.8424 144.523 17.5239 145.002 17.2054C145.641 16.887 145.002 16.7277 143.725 16.7277L138.457 16.887C137.02 16.887 136.062 17.2054 136.062 17.3647Z" fill="#030303"/>
</g>
<g opacity="0.44">
<path opacity="0.44" d="M162.403 22.6196C162.403 21.3457 162.084 20.231 161.924 20.231C161.765 20.231 161.445 21.3457 161.445 22.6196V26.6006C161.445 27.8746 161.765 28.5115 162.084 27.7153C162.403 27.0784 162.563 25.486 162.563 24.212L162.403 22.6196Z" fill="#030303"/>
</g>
<g opacity="0.44">
<path opacity="0.44" d="M167.033 39.6581C167.033 40.7728 165.915 41.7283 164.638 41.7283H162.244C160.966 41.7283 159.849 42.8429 159.849 44.1169V46.5055C159.849 47.7794 160.009 48.8941 160.328 48.8941C160.647 48.8941 160.807 47.7794 160.807 46.5055V45.0723C160.807 43.7984 161.924 42.6837 163.201 42.6837H165.596C166.873 42.6837 167.991 41.569 167.991 40.2951V39.9766C167.991 38.7027 167.831 37.588 167.671 37.588C167.352 37.588 167.033 38.5434 167.033 39.6581Z" fill="#030303"/>
</g>
<g opacity="0.44">
<path opacity="0.44" d="M206.305 41.8879C206.145 42.3657 205.986 43.6396 206.145 45.0728L206.305 46.3467C206.465 47.6206 206.465 49.85 206.305 51.1239L205.028 60.2007C204.868 61.4746 205.028 62.5893 205.347 62.5893C205.666 62.5893 206.145 61.4746 206.305 60.2007L207.422 51.1239C207.582 49.85 207.582 47.6206 207.422 46.3467L207.103 43.4803C206.784 42.2064 206.624 41.4102 206.305 41.8879Z" fill="#030303"/>
</g>
<g opacity="0.44">
<path opacity="0.44" d="M179.804 57.3342C181.127 57.3342 182.199 57.1203 182.199 56.8564C182.199 56.5926 181.127 56.3787 179.804 56.3787C178.482 56.3787 177.41 56.5926 177.41 56.8564C177.41 57.1203 178.482 57.3342 179.804 57.3342Z" fill="#030303"/>
</g>
<g opacity="0.44">
<path opacity="0.44" d="M181.241 18.6386C181.72 18.9571 183.317 19.2756 184.594 19.5941L191.778 20.868C193.055 21.3457 194.013 21.6642 194.172 21.3457C194.332 21.0272 193.374 20.5495 192.097 20.231L182.678 18.6386C181.241 18.3201 180.603 18.4794 181.241 18.6386Z" fill="#030303"/>
</g>
<g opacity="0.44">
<path opacity="0.44" d="M181.081 27.5562C181.56 27.2378 180.922 27.0785 179.645 27.0785C178.368 27.0785 177.41 27.397 177.41 27.7155C177.41 28.034 178.048 28.1932 178.846 28.1932C179.645 28.1932 180.603 27.8747 181.081 27.5562Z" fill="#030303"/>
</g>
<g opacity="0.44">
<path opacity="0.44" d="M225.622 19.1163C225.622 19.7532 226.899 20.231 228.176 20.231H228.336C229.613 20.231 230.89 20.231 231.05 20.3902C231.209 20.5494 231.848 20.8679 232.008 20.7087C232.167 20.5494 232.008 20.231 231.688 19.9125C231.209 19.594 229.932 19.2755 228.655 19.2755C227.538 19.2755 226.42 18.1608 226.26 16.8869L225.143 6.21775C224.983 4.94382 224.664 3.82913 224.345 3.82913C224.025 3.82913 224.025 4.94382 224.185 6.21775L225.143 14.4983C225.303 15.7722 224.345 16.8869 223.068 16.8869H220.513C219.236 16.8869 218.119 17.0461 218.119 17.3646C218.119 17.6831 219.236 17.8423 220.513 17.8423H223.227C224.504 18.0016 225.622 18.4793 225.622 19.1163Z" fill="#030303"/>
</g>
<g opacity="0.44">
<path opacity="0.44" d="M224.345 41.2505C224.504 42.5245 224.025 44.4354 223.387 45.55C222.748 46.5055 222.269 48.4164 222.589 48.5756C222.908 48.5756 223.387 47.7794 223.706 46.6647C224.025 45.55 225.143 44.5946 225.303 44.5946C225.462 44.5946 225.462 43.4799 225.462 42.206L225.143 37.7472C224.983 36.4733 226.101 35.3586 227.378 35.3586H234.402C235.679 35.3586 236.797 35.1994 236.797 34.8809C236.797 34.5624 235.679 34.4032 234.402 34.4032H226.42C225.143 34.4032 224.025 35.5179 224.185 36.7918L224.345 41.2505Z" fill="#030303"/>
</g>
<g opacity="0.44">
<path opacity="0.44" d="M240.469 37.5883C240.469 37.9068 241.586 38.066 242.863 38.066H247.333C248.61 38.066 250.047 37.9068 250.526 37.5883C251.005 37.2698 250.366 37.1105 249.089 37.1105H242.863C241.586 37.1105 240.469 37.429 240.469 37.5883Z" fill="#030303"/>
</g>
<g opacity="0.44">
<path opacity="0.44" d="M244.939 24.0526C245.258 24.2119 246.535 24.5304 247.812 24.5304H248.61C249.888 24.5304 251.005 24.3711 251.005 24.0526C251.005 23.7342 249.888 23.5749 248.61 23.5749H246.695C245.418 23.7342 244.619 23.8934 244.939 24.0526Z" fill="#030303"/>
</g>
<g opacity="0.44">
<path opacity="0.44" d="M218.597 57.6526C218.597 57.971 219.555 58.1303 220.992 58.2895L231.688 59.0857C232.965 59.245 234.083 59.0857 234.083 58.7672C234.083 58.4488 233.125 58.2895 231.688 58.1303L220.992 57.3341C219.715 57.3341 218.597 57.4933 218.597 57.6526Z" fill="#030303"/>
</g>
<g opacity="0.44">
<path opacity="0.44" d="M285.488 37.2699C284.211 37.2699 283.094 37.5884 283.094 37.7477C283.094 38.0661 284.211 38.2254 285.488 38.2254L298.738 39.8178C300.016 39.977 301.133 39.8178 301.293 39.6585C301.452 39.3401 300.335 39.1808 299.058 39.0216L285.488 37.2699Z" fill="#030303"/>
</g>
<g opacity="0.44">
<path opacity="0.44" d="M328.591 19.5937C328.272 19.753 328.272 20.8676 328.272 22.1416C328.272 22.1416 330.028 27.078 329.549 28.1927C329.07 29.3074 328.911 30.1036 329.07 30.2629C329.23 30.4221 329.869 29.6259 330.507 28.5112C331.146 27.3965 328.911 19.5937 328.591 19.5937Z" fill="#030303"/>
</g>
<g opacity="0.44">
<path opacity="0.44" d="M321.248 7.65104C320.29 7.65104 319.173 6.85483 318.853 5.74014C318.534 4.62545 318.055 3.82925 317.736 3.98849C317.417 3.98849 317.576 5.10318 317.895 6.37711C318.215 7.65104 319.492 8.60648 320.45 8.60648C321.408 8.60648 322.685 9.56193 323.004 10.8359L323.323 11.6321C323.802 12.906 324.281 13.8614 324.6 13.7022C324.92 13.543 324.76 12.5875 324.281 11.3136L323.802 9.88041C323.323 8.60648 322.206 7.65104 321.248 7.65104Z" fill="#030303"/>
</g>
<g opacity="0.44">
<path opacity="0.44" d="M359.402 35.359C358.125 35.359 357.008 35.5183 357.008 35.8368C357.008 36.1553 358.125 36.3145 359.402 36.3145H371.855C373.132 36.3145 374.249 36.1553 374.249 35.8368C374.249 35.5183 373.132 35.359 371.855 35.359H359.402Z" fill="#030303"/>
</g>
<g opacity="0.44">
<path opacity="0.44" d="M368.981 12.9059C369.301 12.9059 369.141 11.7912 368.822 10.5173L367.704 6.37705C367.385 5.10312 366.906 4.14767 366.587 4.14767C366.267 4.14767 366.427 5.26236 366.746 6.53629L367.864 10.6766C368.343 11.9505 368.822 13.0652 368.981 12.9059Z" fill="#030303"/>
</g>
</g>
</g>
<path d="M50.3337 12.5873H54.3248C55.6019 12.5873 55.6019 12.428 54.3248 12.1095L53.5266 11.9503C52.2494 11.6318 51.2916 11.7911 51.2916 12.2688C51.2916 12.428 51.2916 12.428 50.3337 12.5873Z" fill="#030303"/>
<path d="M26.2274 55.1049C25.7484 54.6272 24.3116 54.3087 23.0345 54.468L21.2784 54.6272C20.0013 54.7865 20.0013 55.1049 21.2784 55.2642L24.6309 55.7419C25.9081 55.7419 26.7063 55.5827 26.2274 55.1049Z" fill="#030303"/>
<path d="M66.9368 60.3601C66.6175 59.8824 65.3403 59.5639 64.0632 59.7231L59.4336 60.0416C58.1564 60.2008 58.1564 60.3601 59.4336 60.5193L65.1807 60.9971C66.4578 61.1563 67.2561 60.8378 66.9368 60.3601Z" fill="#030303"/>
<path d="M116.107 58.2899C115.947 57.8121 116.905 57.4937 118.182 57.4937H118.82C120.098 57.4937 120.098 57.8121 118.98 58.2899L118.661 58.4491C117.384 58.7676 116.266 58.7676 116.107 58.2899Z" fill="#030303"/>
<path d="M172.46 55.264C172.301 54.627 171.183 54.1493 169.906 54.4677L166.873 54.9455C165.596 55.1047 165.596 55.4232 166.873 55.5824L170.225 56.0602C171.503 56.2194 172.46 55.9009 172.46 55.264Z" fill="#030303"/>
<path d="M177.09 57.4936C177.09 56.8566 177.888 56.3789 179.165 56.5382C180.442 56.6974 180.442 57.1751 179.325 57.6528C178.048 58.2898 177.09 58.1306 177.09 57.4936Z" fill="#030303"/>
<path d="M141.49 46.506C141.33 45.5505 141.17 45.3913 140.851 46.3468C140.691 47.3022 140.851 48.8946 141.17 50.1685V50.3278C141.49 51.6017 141.809 51.6017 141.649 50.3278C141.49 49.0538 141.649 47.4614 141.49 46.506Z" fill="#030303"/>
<path d="M160.168 47.302C160.008 46.9835 159.849 47.6204 159.849 48.8944C159.849 50.1683 160.008 50.4868 160.168 49.5314C160.487 48.7351 160.328 47.6204 160.168 47.302Z" fill="#030303"/>
<path d="M122.332 46.8241C122.332 45.8687 122.173 45.8687 122.013 46.8241C121.853 47.7795 122.013 49.5312 122.492 50.8051L122.652 51.1236C123.131 52.3975 123.29 52.3975 122.971 50.9644C122.652 49.6904 122.332 47.7795 122.332 46.8241Z" fill="#030303"/>
<path d="M91.8409 47.6207C91.6812 47.3022 91.362 47.3022 91.2023 47.7799C91.0427 48.2576 91.2023 49.2131 91.6813 49.8501C92.0005 50.487 92.3198 50.3278 92.3198 49.6908C92.3198 48.8946 92.0005 47.9392 91.8409 47.6207Z" fill="#030303"/>
<path d="M70.608 46.8243C70.4484 45.8689 69.9695 46.0281 69.6502 46.9836C69.3309 48.0982 69.8098 49.6907 70.608 50.4869C71.4063 51.2831 71.7256 51.1238 71.5659 50.3276C71.2466 49.3722 70.9273 47.939 70.608 46.8243Z" fill="#030303"/>
<path d="M32.4537 45.5505C32.1344 45.232 32.9326 44.9136 34.2098 45.0728L36.7641 45.232C38.0412 45.3913 38.0412 45.5505 36.7641 45.7098L35.3273 45.869C34.0501 46.0282 32.773 45.869 32.4537 45.5505Z" fill="#030303"/>
<path d="M206.624 46.3465C206.783 45.0725 207.103 45.0725 207.422 46.3465C207.741 47.6204 207.582 49.6905 207.262 50.8052L207.103 51.6014C206.783 52.8753 206.464 52.8753 206.464 51.6014V50.9645C206.304 49.6905 206.464 47.6204 206.624 46.3465Z" fill="#030303"/>
<path d="M193.853 21.664C193.853 22.1418 192.895 21.9825 191.937 21.1863C190.819 20.3901 190.819 20.0716 191.937 20.3901C192.895 20.5493 193.853 21.1863 193.853 21.664Z" fill="#030303"/>
<path d="M256.113 53.9901C256.273 53.5124 255.315 53.1939 254.038 53.1939H253.24C251.963 53.1939 251.963 53.5124 253.08 53.8309L253.559 53.9901C254.836 54.4678 256.113 54.4678 256.113 53.9901Z" fill="#030303"/>
<path d="M248.131 47.3022C247.812 46.6653 247.652 47.143 247.652 48.2577C247.652 49.3723 247.972 50.0093 248.131 49.5316C248.291 49.0539 248.451 47.9392 248.131 47.3022Z" fill="#030303"/>
<path d="M276.547 56.0601C276.707 55.5823 275.749 55.2639 274.472 55.4231L271.279 55.7416C270.002 55.9008 270.002 56.0601 271.279 56.2193L273.833 56.697C275.111 56.697 276.388 56.5378 276.547 56.0601Z" fill="#030303"/>
<path d="M272.557 47.461C272.397 46.9833 272.078 46.824 271.918 47.461C271.759 47.9387 271.759 49.0534 271.918 49.8496C272.078 50.6458 272.397 50.6458 272.557 49.8496C272.716 49.0534 272.716 48.098 272.557 47.461Z" fill="#030303"/>
<path d="M329.23 30.5816C328.91 30.4224 328.91 29.4669 329.23 28.5115C329.549 27.5561 330.028 27.5561 330.028 28.83C329.868 29.7854 329.549 30.7409 329.23 30.5816Z" fill="#030303"/>
<path d="M302.41 54.9457C302.729 54.468 304.166 54.1495 305.443 54.468L310.232 55.2642C311.509 55.4234 311.509 55.5827 310.232 55.7419L304.006 55.9011C302.729 55.7419 301.931 55.4234 302.41 54.9457Z" fill="#030303"/>
<path d="M354.773 54.9456C355.252 54.3086 356.688 53.9902 357.966 54.1494L362.436 54.9456C363.713 55.2641 363.713 55.4233 362.436 55.5826L356.369 55.901C354.932 56.0603 354.294 55.5826 354.773 54.9456Z" fill="#030303"/>
<path d="M356.848 35.8364C356.688 35.0402 357.487 34.5625 358.764 34.8809L362.595 35.5179C363.872 35.6772 363.872 35.9956 362.595 36.3141L359.402 36.9511C358.285 36.9511 357.008 36.4734 356.848 35.8364Z" fill="#030303"/>
<g opacity="0.5">
<path opacity="0.5" d="M351.42 13.7022C351.101 13.3838 350.782 12.1098 350.622 10.9951C350.622 9.88046 350.782 9.88046 351.101 11.1544L351.261 11.9506C351.74 13.2245 351.74 14.0207 351.42 13.7022Z" fill="#030303"/>
</g>
<path d="M300.653 40.2951L298.099 39.3396C296.822 38.8619 296.982 38.5434 298.259 38.7026L300.973 39.0211" fill="#030303"/>
<g opacity="0.5">
<path opacity="0.5" d="M190.979 49.5314C191.139 48.8945 191.139 47.939 190.979 47.3021C190.819 46.6651 189.542 46.1874 188.265 46.1874H187.786C186.509 46.1874 185.072 46.6651 184.753 47.4613C184.434 48.0983 185.072 48.8945 186.349 49.3722L188.425 50.0092C189.542 50.3276 190.819 50.1684 190.979 49.5314Z" fill="#030303"/>
</g>
<path d="M189.064 47.9386C188.265 47.1424 188.425 46.5054 189.064 46.5054C189.702 46.5054 190.82 46.8239 191.299 47.4609C191.618 47.9386 191.458 49.2125 190.82 50.3272C190.181 51.4419 189.862 51.6012 190.021 50.9642C190.181 50.3272 189.862 48.7348 189.064 47.9386Z" fill="#030303"/>
<path d="M116.745 12.1097C116.905 11.4728 117.863 11.3135 119.14 11.632C120.417 11.9505 120.257 12.4282 118.98 12.7467H118.821C117.703 13.0652 116.745 12.7467 116.745 12.1097Z" fill="#030303"/>
<path d="M65.1806 20.868C65.0209 21.1865 63.7438 21.3457 62.4666 21.0272C61.1895 20.7087 61.1895 20.3903 62.4666 20.3903H63.1052C64.542 20.231 65.3402 20.3903 65.1806 20.868Z" fill="#030303"/>
<path d="M23.5139 38.3844C23.6735 37.9067 22.7157 37.5882 21.4385 37.9067L20.321 38.0659C19.0439 38.3844 19.0439 38.7029 20.321 38.8621H20.6403C22.2367 39.1806 23.3542 39.0214 23.5139 38.3844Z" fill="#030303"/>
<path d="M26.7063 55.264C26.387 54.9455 26.387 53.5124 26.7063 52.2384L27.0255 51.4422C27.3448 50.1683 27.6641 50.1683 27.6641 51.6015L27.5045 53.6716C27.3448 54.9455 27.0255 55.5825 26.7063 55.264Z" fill="#29282A"/>
<path d="M66.6171 60.5193C66.2979 60.36 66.2979 59.4046 66.6171 58.2899C66.9364 57.1752 67.2557 57.4937 67.2557 58.7676C67.2557 60.0415 67.0961 60.6785 66.6171 60.5193Z" fill="#29282A"/>
<path d="M102.696 36.4736C102.696 35.8367 103.016 36.1552 103.495 37.4291C103.974 38.703 103.974 39.1807 103.495 38.703C103.175 38.2253 102.696 37.2698 102.696 36.4736Z" fill="#29282A"/>
<path d="M302.889 55.5828C303.208 55.2644 303.368 53.9904 302.889 52.7165L302.57 51.7611C302.25 50.4871 301.931 50.4871 301.931 51.9203V53.8312C302.091 55.1051 302.41 55.9013 302.889 55.5828Z" fill="#29282A"/>
<path d="M355.571 55.2639C356.209 54.9454 356.209 53.6715 355.571 52.5568L353.815 48.5758C353.336 47.4611 353.016 47.4611 353.176 48.735L354.134 53.5122C354.294 54.7862 354.932 55.5824 355.571 55.2639Z" fill="#29282A"/>
<path d="M357.806 35.6776C357.646 35.1999 357.007 35.8369 356.369 36.9516L354.453 40.7734C353.815 41.888 353.974 42.0473 354.772 40.9326L356.688 38.2255C357.486 37.4293 357.965 36.1554 357.806 35.6776Z" fill="#29282A"/>
<path d="M323.483 13.8612C323.483 13.8612 323.483 12.7466 323.642 11.4726C323.642 10.1987 323.962 10.1987 324.281 11.4726L324.92 14.1797" fill="#030303"/>
<path d="M19.203 56.379C18.2452 56.0605 18.2451 55.9012 19.3626 55.9012C20.4801 56.0605 22.0766 56.2197 23.0344 56.379C23.9923 56.5382 23.8327 56.6974 22.8748 56.8567C21.7573 56.8567 20.1609 56.6974 19.203 56.379Z" fill="#5A5558"/>
<path d="M69.8098 50.8054C69.0116 50.0092 68.8519 50.1684 69.6502 51.2831L70.1291 51.9201C70.9273 53.0347 72.0448 54.1494 72.6834 54.6271C73.322 55.1049 73.322 54.6271 72.6834 53.8309C71.8852 52.8755 70.608 51.6016 69.8098 50.8054Z" fill="#5A5558"/>
<path d="M90.2446 48.4167C89.9253 48.4167 90.085 49.2129 90.5639 50.1684C91.0428 51.1238 91.2024 51.1238 91.0428 50.1684C90.8831 49.2129 90.5639 48.4167 90.2446 48.4167Z" fill="#5A5558"/>
<path d="M119.618 58.608C118.661 58.4487 119.14 58.2895 120.417 57.971L121.055 57.8118C122.332 57.6525 122.971 57.6525 122.332 57.971C121.694 58.4487 120.576 58.7672 119.618 58.608Z" fill="#5A5558"/>
<path d="M140.212 50.1684C139.893 49.5314 139.733 50.0091 139.893 50.9646C140.053 51.92 140.691 53.5124 141.17 54.4679C141.649 55.4233 141.809 54.9456 141.49 53.6717V53.5124C141.17 52.2385 140.532 50.6461 140.212 50.1684Z" fill="#5A5558"/>
<path d="M208.061 51.9201C207.901 51.2832 207.582 51.4424 207.423 52.0794C207.103 52.8756 206.944 54.3088 206.944 55.4235C206.944 56.5381 207.263 56.3789 207.582 55.2642C208.061 53.9903 208.221 52.5571 208.061 51.9201Z" fill="#5A5558"/>
<path d="M185.551 47.4611C185.391 46.8242 184.753 46.8242 184.433 47.7796C184.114 48.5758 184.593 49.6905 185.551 50.1682C186.509 50.646 187.147 50.4867 186.668 49.8498C186.189 49.2128 185.71 48.0981 185.551 47.4611Z" fill="#5A5558"/>
<path d="M223.386 58.9265C222.429 58.608 222.588 58.4487 223.865 58.4487C225.142 58.4487 226.898 58.7672 228.016 59.0857C228.974 59.4042 228.814 59.7227 227.537 59.5634C226.26 59.5634 224.504 59.2449 223.386 58.9265Z" fill="#5A5558"/>
<path d="M249.089 50.1682C248.93 49.8497 248.61 50.1682 248.291 50.9644C247.972 51.7606 248.131 52.0791 248.451 51.7606C248.77 51.4421 249.089 50.4867 249.089 50.1682Z" fill="#5A5558"/>
<path d="M273.674 49.2131C273.515 48.8946 273.195 49.2131 272.876 50.0093C272.557 50.8055 272.716 51.124 273.036 50.8055C273.514 50.3278 273.834 49.6908 273.674 49.2131Z" fill="#5A5558"/>
<path d="M269.842 56.6973C268.725 56.5381 268.885 56.2196 270.162 56.0604H270.321C271.599 55.9011 273.195 56.0604 273.674 56.5381C274.153 57.0158 273.993 57.175 273.195 57.175C272.556 57.0158 270.96 56.8566 269.842 56.6973Z" fill="#5A5558"/>
<path d="M306.082 56.5381C305.124 56.6973 305.124 56.3788 306.082 56.0604C307.04 55.7419 308.955 55.5826 310.232 55.7419H311.031C312.308 55.9011 312.308 56.0604 311.031 56.0604H310.232C308.955 56.3788 307.04 56.5381 306.082 56.5381Z" fill="#5A5558"/>
<path d="M329.39 30.9004C328.911 31.0597 328.112 32.1744 327.633 33.2891C327.155 34.4037 327.474 34.4037 328.272 33.2891L328.911 32.4929C329.709 31.3782 329.869 30.582 329.39 30.9004Z" fill="#29282A"/>
<path d="M369.141 13.3838C368.662 13.3838 368.183 12.2691 368.023 10.9952V10.8359C367.864 9.56201 368.183 9.40277 368.821 10.6767L369.141 11.3137C369.46 12.4283 369.62 13.3838 369.141 13.3838Z" fill="#030303"/>
<path d="M218.118 18.0014C218.118 17.3644 219.076 17.0459 220.353 17.0459C221.631 17.0459 221.79 17.5237 220.513 18.0014L220.353 18.1606C219.236 18.6383 218.278 18.4791 218.118 18.0014Z" fill="#030303"/>
<path d="M162.084 20.0718C161.605 19.9126 161.445 20.7088 161.605 21.9827V22.142C161.765 23.4159 162.084 23.5751 162.403 22.4604C162.563 21.3458 162.403 20.2311 162.084 20.0718Z" fill="#030303"/>
<path d="M111.796 35.5183C111.636 35.0406 112.594 34.7221 113.871 34.7221H117.543C118.82 34.7221 118.82 34.8814 117.543 35.1999L114.19 35.8368C113.073 36.1553 111.955 35.9961 111.796 35.5183Z" fill="#030303"/>
<path d="M22.5558 44.2765C22.5558 43.958 21.598 43.6395 20.3208 43.6395H20.0016C18.7244 43.6395 18.7244 43.958 20.0016 44.2765H20.3208C21.4383 44.595 22.5558 44.595 22.5558 44.2765Z" fill="#030303"/>
<path d="M7.07049 47.9393C5.79335 47.9393 4.83549 48.0985 5.15478 48.417C5.31442 48.5762 6.59156 48.8947 7.86871 48.8947H15.5316C16.8087 48.8947 18.0858 48.7355 18.2455 48.417C18.4051 48.0985 17.6069 47.9393 16.3298 47.9393H7.07049Z" fill="#DFDBD5"/>
<path d="M44.9061 47.9393C43.6289 47.9393 42.6711 48.0985 42.9903 48.417C43.15 48.5762 44.4271 48.8947 45.7043 48.8947H53.3671C54.6443 48.8947 55.9214 48.7355 56.0811 48.417C56.2407 48.0985 55.4425 47.9393 54.1653 47.9393H44.9061Z" fill="#DFDBD5"/>
<path d="M66.1381 47.7799C64.8609 47.7799 63.7434 48.0984 63.9031 48.2576C63.9031 48.4168 65.0206 48.7353 66.1381 48.7353C67.2556 48.7353 68.3731 48.5761 68.3731 48.2576C68.5327 47.9391 67.5749 47.7799 66.1381 47.7799Z" fill="#DFDBD5"/>
<path d="M28.3031 29.308C27.026 29.308 25.9085 29.6265 26.0681 29.7857C26.2278 29.945 27.1856 30.1042 28.3031 30.1042C29.4206 30.1042 30.5381 29.945 30.5381 29.6265C30.5381 29.4672 29.5803 29.1487 28.3031 29.308Z" fill="#DFDBD5"/>
<path d="M43.9479 29.308C42.6707 29.308 41.5532 29.6265 41.7129 29.7857C41.8725 29.945 42.8304 30.1042 43.9479 30.1042C45.0654 30.1042 46.1829 29.945 46.1829 29.6265C46.3425 29.4672 45.225 29.1487 43.9479 29.308Z" fill="#DFDBD5"/>
<path d="M12.3387 31.6963C11.2212 31.6963 10.2633 32.0148 10.2633 32.174C10.2633 32.3333 11.2212 32.4925 12.3387 32.4925C13.4562 32.4925 14.2544 32.3333 14.414 32.0148C14.414 31.8556 13.4562 31.6963 12.3387 31.6963Z" fill="#DFDBD5"/>
<path d="M31.3362 38.0664C30.059 38.0664 29.1012 38.2256 29.2608 38.5441C29.4205 38.7034 30.538 39.0219 31.9747 39.0219H35.008C36.2851 39.0219 37.5622 38.8626 37.7219 38.5441C37.8815 38.2256 36.9237 38.0664 35.6465 38.0664H31.3362Z" fill="#DFDBD5"/>
<path d="M22.7157 10.8355C21.4385 10.8355 20.4807 10.9948 20.6403 11.3133C20.8 11.4725 21.9175 11.6317 23.3543 11.6317H26.3875C27.6646 11.6317 28.9418 11.4725 29.1014 11.154C29.2611 10.8355 28.3032 10.6763 27.0261 10.6763L22.7157 10.8355Z" fill="#DFDBD5"/>
<path d="M88.0095 47.7799C86.7324 47.7799 85.6149 48.0984 85.7745 48.2576C85.7745 48.4168 86.892 48.7353 88.0095 48.7353C89.127 48.7353 90.2445 48.5761 90.2445 48.2576C90.4041 47.9391 89.2867 47.7799 88.0095 47.7799Z" fill="#DFDBD5"/>
<path d="M125.047 47.7799C123.929 47.7799 122.971 48.0984 122.971 48.2576C122.971 48.4168 123.929 48.7353 125.047 48.7353C126.164 48.7353 126.962 48.5761 127.122 48.2576C127.122 47.9391 126.164 47.7799 125.047 47.7799Z" fill="#DFDBD5"/>
<path d="M95.0339 47.7799C93.7568 47.7799 92.799 47.9391 92.799 48.2576C92.9586 48.4168 94.0761 48.7353 95.3532 48.7353H97.4286C98.7057 48.7353 99.9829 48.5761 99.9829 48.2576C100.143 47.9391 99.1847 47.7799 97.7479 47.7799H95.0339Z" fill="#DFDBD5"/>
<path d="M114.669 47.7799C113.392 47.7799 112.434 47.9391 112.594 48.2576C112.754 48.4168 113.871 48.7353 115.308 48.7353H118.181C119.459 48.7353 120.736 48.5761 120.895 48.2576C121.055 47.9391 120.097 47.7799 118.82 47.7799H114.669Z" fill="#DFDBD5"/>
<path d="M136.541 47.7799C135.264 47.7799 134.306 48.0984 134.306 48.2576C134.466 48.4168 135.583 48.7353 136.86 48.7353H137.818C139.095 48.7353 140.213 48.5761 140.372 48.2576C140.532 47.9391 139.414 47.7799 138.137 47.7799H136.541Z" fill="#DFDBD5"/>
<path d="M179.804 47.7799C178.527 47.7799 177.569 48.0984 177.569 48.2576C177.728 48.4168 178.846 48.7353 180.123 48.7353H180.921C182.198 48.7353 183.316 48.5761 183.476 48.2576C183.635 47.9391 182.518 47.7799 181.241 47.7799H179.804Z" fill="#DFDBD5"/>
<path d="M210.615 47.7799C209.338 47.7799 208.22 48.0984 208.38 48.2576C208.54 48.4168 209.657 48.7353 210.934 48.7353H211.094C212.371 48.7353 213.488 48.5761 213.648 48.2576C213.808 47.9391 212.69 47.7799 211.413 47.7799H210.615Z" fill="#DFDBD5"/>
<path d="M225.941 47.7799C224.664 47.7799 223.706 47.9391 223.865 48.2576C224.025 48.4168 225.302 48.7353 226.579 48.7353H232.646C233.923 48.7353 235.2 48.5761 235.36 48.2576C235.519 47.9391 234.561 47.7799 233.284 47.7799H225.941Z" fill="#DFDBD5"/>
<path d="M244.778 47.7799C243.501 47.7799 242.384 48.0984 242.543 48.2576C242.543 48.4168 243.661 48.7353 244.938 48.7353C246.215 48.7353 247.173 48.5761 247.333 48.2576C247.333 47.9391 246.375 47.7799 245.098 47.7799H244.778Z" fill="#DFDBD5"/>
<path d="M251.643 47.7799C250.366 47.7799 249.408 47.9391 249.408 48.2576C249.568 48.4168 250.685 48.7353 251.962 48.7353H254.197C255.474 48.7353 256.751 48.5761 256.751 48.2576C256.911 47.9391 255.953 47.7799 254.516 47.7799H251.643Z" fill="#DFDBD5"/>
<path d="M266.809 47.7799C265.532 47.7799 264.574 47.9391 264.574 48.2576C264.734 48.4168 265.851 48.7353 267.128 48.7353H268.246C269.523 48.7353 270.8 48.5761 270.8 48.2576C270.96 47.9391 269.842 47.7799 268.565 47.7799H266.809Z" fill="#DFDBD5"/>
<path d="M275.749 47.7799C274.472 47.7799 273.355 48.0984 273.515 48.2576C273.674 48.4168 274.792 48.7353 276.069 48.7353C277.346 48.7353 278.463 48.5761 278.623 48.2576C278.783 47.9391 277.665 47.7799 276.388 47.7799H275.749Z" fill="#DFDBD5"/>
<path d="M288.361 47.7799C287.084 47.7799 286.126 47.9391 286.446 48.2576C286.605 48.4168 287.882 48.7353 289.319 48.7353H297.94C299.217 48.7353 300.494 48.5761 300.814 48.2576C300.973 47.9391 300.175 47.7799 298.898 47.7799H288.361Z" fill="#DFDBD5"/>
<path d="M309.913 47.7799C308.636 47.7799 307.678 47.9391 307.997 48.2576C308.157 48.4168 309.434 48.7353 310.871 48.7353H319.492C320.769 48.7353 322.046 48.5761 322.365 48.2576C322.525 47.9391 321.727 47.7799 320.449 47.7799H309.913Z" fill="#DFDBD5"/>
<path d="M364.511 47.7799C363.233 47.7799 362.276 47.9391 362.595 48.2576C362.754 48.4168 364.032 48.7353 365.468 48.7353H374.089C375.366 48.7353 376.643 48.5761 376.963 48.2576C377.122 47.9391 376.324 47.7799 375.047 47.7799H364.511Z" fill="#DFDBD5"/>
<path d="M344.555 11.632C343.278 11.632 342.32 11.7913 342.48 12.1097C342.639 12.269 343.757 12.4282 345.034 12.4282H347.748C349.025 12.4282 350.302 12.269 350.302 11.9505C350.462 11.632 349.504 11.4728 348.227 11.4728L344.555 11.632Z" fill="#DFDBD5"/>
<path d="M327.474 11.632C326.197 11.632 325.239 11.7913 325.398 12.1097C325.558 12.269 326.676 12.4282 328.112 12.4282H331.944C333.221 12.4282 334.498 12.269 334.658 11.9505C334.817 11.632 333.859 11.4728 332.582 11.4728L327.474 11.632Z" fill="#DFDBD5"/>
<path d="M318.853 11.632C317.576 11.632 316.618 11.7913 316.618 12.1097C316.777 12.269 317.895 12.4282 319.172 12.4282H320.449C321.726 12.4282 323.004 12.269 323.004 11.9505C323.163 11.632 322.046 11.4728 320.769 11.4728L318.853 11.632Z" fill="#DFDBD5"/>
<path d="M321.727 29.1483C320.449 29.1483 319.492 29.3076 319.651 29.6261C319.811 29.7853 320.928 29.9446 322.365 29.9446H325.239C326.516 29.9446 327.793 29.7853 327.953 29.4668C328.112 29.1483 327.154 28.9891 325.877 28.9891L321.727 29.1483Z" fill="#DFDBD5"/>
<path d="M269.204 10.3578C267.927 10.3578 266.969 10.517 266.969 10.8355C267.128 10.9947 268.246 11.3132 269.523 11.3132H270.8C272.077 11.3132 273.354 11.154 273.354 10.8355C273.354 10.517 272.397 10.3578 271.119 10.3578H269.204Z" fill="#DFDBD5"/>
<path d="M281.337 10.3578C280.06 10.3578 279.102 10.517 279.102 10.8355C279.261 10.9947 280.379 11.3132 281.656 11.3132H282.933C284.21 11.3132 285.487 11.154 285.487 10.8355C285.647 10.517 284.529 10.3578 283.252 10.3578H281.337Z" fill="#DFDBD5"/>
<path d="M273.195 18.1612C272.237 18.1612 271.599 18.4796 271.599 18.6389C271.599 18.7981 272.397 19.1166 273.195 19.1166C273.994 19.1166 274.632 18.9574 274.792 18.6389C274.792 18.3204 274.153 18.1612 273.195 18.1612Z" fill="#DFDBD5"/>
<path d="M277.505 15.6129C276.388 15.6129 275.43 15.9314 275.59 16.0906C275.59 16.2499 276.547 16.5684 277.505 16.5684C278.463 16.5684 279.421 16.4091 279.421 16.0906C279.581 15.7722 278.782 15.6129 277.505 15.6129Z" fill="#DFDBD5"/>
<path d="M223.227 16.0909C222.109 16.0909 221.151 16.4094 221.311 16.5686C221.311 16.7278 222.269 17.0463 223.227 17.0463C224.185 17.0463 225.142 16.8871 225.142 16.5686C225.142 16.2501 224.344 16.0909 223.227 16.0909Z" fill="#DFDBD5"/>
<path d="M237.116 28.8298C235.839 28.8298 234.721 29.1483 234.881 29.3076C234.881 29.4668 235.998 29.626 237.275 29.626C238.552 29.626 239.51 29.4668 239.67 29.1483C239.67 28.8298 238.712 28.6706 237.435 28.6706L237.116 28.8298Z" fill="#DFDBD5"/>
<path d="M227.537 33.289C226.26 33.289 225.302 33.4482 225.302 33.7667C225.302 34.0852 226.58 34.0852 227.857 34.0852H229.932C231.209 34.0852 232.486 33.926 232.486 33.6075C232.646 33.289 231.688 33.1298 230.251 33.1298L227.537 33.289Z" fill="#DFDBD5"/>
<path d="M363.234 34.2444C361.957 34.2444 360.999 34.4036 360.999 34.7221C361.159 34.8813 362.276 35.0406 363.553 35.0406H365.629C366.906 35.0406 368.183 34.8813 368.183 34.5628C368.343 34.2444 367.385 34.0851 365.948 34.0851L363.234 34.2444Z" fill="#DFDBD5"/>
<path d="M137.658 37.907C136.381 37.907 135.423 38.2254 135.423 38.3847C135.583 38.5439 136.7 38.8624 137.977 38.8624H138.456C139.733 38.8624 140.851 38.7032 141.011 38.3847C141.17 38.0662 140.053 37.907 138.776 37.907H137.658Z" fill="#DFDBD5"/>
<path d="M118.501 34.085C117.224 34.085 116.266 34.4034 116.266 34.5627C116.426 34.7219 117.543 34.8812 118.82 34.8812H119.299C120.576 34.8812 121.694 34.7219 121.854 34.4034C122.013 34.085 120.896 33.9257 119.618 33.9257L118.501 34.085Z" fill="#DFDBD5"/>
<path d="M91.202 33.7664C89.9249 33.7664 88.967 34.0849 88.967 34.2441C88.967 34.4034 90.2442 34.5626 91.5213 34.5626H92.0002C93.2774 34.5626 94.3949 34.4034 94.5545 34.0849C94.7142 33.7664 93.5967 33.6072 92.3195 33.6072L91.202 33.7664Z" fill="#DFDBD5"/>
<path d="M49.8545 19.1162C48.5774 19.1162 47.6195 19.2755 47.6195 19.5939C47.7792 19.7532 48.8967 20.0717 50.1738 20.0717H52.5685C53.8456 20.0717 55.1228 19.9124 55.1228 19.5939C55.2824 19.2755 54.3245 19.1162 52.8877 19.1162H49.8545Z" fill="#DFDBD5"/>
<path d="M127.441 12.2689C126.164 12.1097 125.046 12.2689 125.206 12.4282C125.206 12.5874 126.323 13.0651 127.76 13.2244H128.239C129.516 13.3836 130.634 13.3836 130.793 13.0651C130.953 12.7467 129.995 12.4282 128.718 12.4282L127.441 12.2689Z" fill="#DFDBD5"/>
<path d="M244.938 36.3144C243.661 36.3144 242.703 36.6329 242.703 36.7921C242.863 36.9514 243.981 37.1106 245.258 37.1106H245.737C247.014 37.1106 248.131 36.9514 248.291 36.6329C248.451 36.3144 247.333 36.1552 246.056 36.1552L244.938 36.3144Z" fill="#DFDBD5"/>
<path d="M279.421 32.9705C278.144 32.9705 277.186 33.289 277.186 33.4482C277.346 33.6075 278.463 33.7667 279.741 33.7667H280.22C281.497 33.7667 282.614 33.6075 282.774 33.289C282.934 32.9705 281.816 32.8112 280.539 32.8112L279.421 32.9705Z" fill="#DFDBD5"/>
<path d="M196.566 11.3134C195.289 11.3134 194.491 11.4727 194.651 11.7912C194.97 11.9504 196.247 12.1097 197.524 12.1097H209.019C210.296 12.1097 211.573 11.9504 211.892 11.6319C212.211 11.3134 211.413 11.1542 209.976 11.1542L196.566 11.3134Z" fill="#DFDBD5"/>
<path d="M155.538 11.4729C154.261 11.4729 153.463 11.6321 153.622 11.9506C153.942 12.1099 155.219 12.2691 156.496 12.2691H168.469C169.746 12.2691 171.023 12.1099 171.343 11.7914C171.662 11.4729 170.864 11.3137 169.427 11.3137L155.538 11.4729Z" fill="#DFDBD5"/>
<path d="M153.303 28.8298C152.026 28.8298 151.068 28.9891 151.228 29.3076C151.388 29.4668 152.665 29.626 153.942 29.626H158.252C159.529 29.626 160.806 29.4668 160.966 29.1483C161.126 28.8298 160.168 28.6706 158.891 28.6706L153.303 28.8298Z" fill="#DFDBD5"/>
<path d="M164.318 28.8298C163.041 28.8298 162.083 28.9891 162.243 29.3076C162.403 29.4668 163.52 29.626 164.957 29.626H168.788C170.066 29.626 171.343 29.4668 171.502 29.1483C171.662 28.8298 170.704 28.6706 169.427 28.6706L164.318 28.8298Z" fill="#DFDBD5"/>
<path d="M187.946 45.5504C186.669 45.5504 185.711 45.8689 185.711 46.0282C185.711 46.1874 186.828 46.3466 187.946 46.3466C189.063 46.3466 190.021 46.1874 190.181 45.8689C190.181 45.7097 189.223 45.3912 187.946 45.5504Z" fill="#DFDBD5"/>
<path d="M184.753 17.5239C183.476 17.3647 182.518 17.3647 182.518 17.6831C182.518 17.8424 183.795 18.3201 185.072 18.4793L186.509 18.6386C187.786 18.7978 189.063 18.7978 189.063 18.4793C189.223 18.1609 188.265 17.8424 186.988 17.6831L184.753 17.5239Z" fill="#DFDBD5"/>
<path d="M287.722 36.4736C286.445 36.3143 285.487 36.3143 285.487 36.6328C285.487 36.792 286.765 37.2698 288.042 37.429L289.478 37.5882C290.756 37.7475 292.033 37.7475 292.033 37.429C292.192 37.1105 291.235 36.792 289.957 36.6328L287.722 36.4736Z" fill="#DFDBD5"/>
<path d="M283.572 18.1612C282.773 18.1612 282.135 18.4796 282.135 18.6389C282.135 18.7981 282.773 19.1166 283.572 19.1166C284.37 19.1166 285.008 18.9574 285.008 18.6389C285.008 18.3204 284.529 18.1612 283.572 18.1612Z" fill="#DFDBD5"/>
<path d="M332.582 29.1483C331.305 29.1483 330.347 29.3076 330.507 29.6261C330.666 29.7853 331.784 29.9446 333.22 29.9446H337.052C338.329 29.9446 339.606 29.7853 339.766 29.4668C339.926 29.1483 338.968 28.9891 337.691 28.9891L332.582 29.1483Z" fill="#DFDBD5"/>
<path d="M372.173 11.632C370.896 11.632 369.938 11.7913 369.938 12.1097C370.098 12.269 371.216 12.4282 372.493 12.4282H373.929C375.207 12.4282 376.484 12.269 376.484 11.9505C376.643 11.632 375.685 11.4728 374.249 11.4728L372.173 11.632Z" fill="#DFDBD5"/>
<path d="M194.81 47.7799C193.533 47.7799 192.575 47.9391 192.735 48.2576C192.895 48.4168 194.172 48.7353 195.449 48.7353H202.473C203.75 48.7353 205.027 48.5761 205.187 48.2576C205.347 47.9391 204.548 47.7799 203.112 47.7799H194.81Z" fill="#DFDBD5"/>
<path d="M144.523 47.7799C143.246 47.7799 142.288 47.9391 142.607 48.2576C142.927 48.4168 144.204 48.7353 145.481 48.7353H156.177C157.454 48.7353 158.731 48.5761 159.05 48.2576C159.37 47.9391 158.412 47.7799 157.135 47.7799H144.523Z" fill="#DFDBD5"/>
<path d="M163.201 47.7799C161.924 47.7799 160.966 47.9391 161.126 48.2576C161.286 48.4168 162.403 48.7353 163.84 48.7353H167.512C168.789 48.7353 170.066 48.5761 170.226 48.2576C170.385 47.9391 169.427 47.7799 168.15 47.7799H163.201Z" fill="#DFDBD5"/>
<path d="M74.2803 47.9393C73.0032 47.9393 72.0453 48.0985 72.0453 48.417C72.2049 48.5762 73.3224 48.8947 74.5996 48.8947H75.7171C76.9942 48.8947 78.2714 48.7355 78.2714 48.417C78.431 48.0985 77.3135 47.9393 76.0364 47.9393H74.2803Z" fill="#DFDBD5"/>
<path d="M158.412 62.7485L157.933 60.2006H155.219H154.58L154.261 59.0859L153.782 56.5381H151.228H136.86H133.986L133.667 59.4044V60.2006H133.507L133.028 58.9267L132.39 56.5381H129.995H124.248H121.374L121.055 59.4044L120.097 67.685H118.501H118.022H117.224L117.703 64.3409L117.862 63.3855L117.543 62.7485L115.947 58.6082L115.148 56.5381H112.913H107.166H104.452L103.973 59.2452V60.0414L103.175 58.449L102.377 56.5381H100.302H85.9337H83.3794L82.9005 59.2452L82.7409 59.7229L81.9427 58.2897L80.9848 56.5381H79.0691H60.5505H57.9962L57.5173 59.0859L56.2402 64.0224L55.9209 65.2963L56.7191 66.5703L57.5173 67.685H53.5262H51.1316L50.493 70.0736L49.2159 75.1693L48.8966 76.6025L49.8545 77.8764L52.728 81.6982L53.6859 82.9721H54.3245L56.0805 85.52L57.0384 86.7939H58.6348H73.1623H75.8762L76.3552 84.2461L76.5148 83.6091L77.4727 85.2015L78.4305 86.7939H80.1866H86.0934H88.6477L89.1266 84.0868L89.4459 82.9721H93.5966L94.5544 85.0423L95.5123 86.7939H97.428H103.335H106.049L106.528 84.0868L107.166 79.4688L107.964 81.0612L108.763 82.9721H110.838L111.636 84.883L112.434 86.7939H114.669H120.417H123.29L123.609 83.9276L123.769 82.9721H125.206H128.079V82.8129L128.718 84.5645L129.516 86.7939H131.751H137.658H140.532L140.851 83.9276V82.9721H145.64L145.959 84.2461L146.598 86.7939H148.993H154.899H157.933L158.092 83.7683L159.05 67.5257L159.21 67.2072L159.05 66.8888L158.412 62.7485Z" fill="#010101"/>
<path d="M332.263 78.9911L327.474 59.0859L326.835 56.5381H324.281H318.534H316.778L315.82 57.9713L314.543 60.2006H312.308H310.711L310.392 59.0859L309.913 56.5381H307.359H301.452H299.536L298.738 58.2897L297.94 59.7229L297.78 59.2452L297.301 56.5381H294.587H280.379H278.304L277.346 58.449L276.707 60.0414L276.548 59.2452L276.228 56.5381H273.355H259.306H259.147H256.912H256.433H234.083H233.604H231.049H216.682H213.968L213.648 59.4044L213.489 60.2006H213.169V59.7229L213.01 56.5381H209.977H191.937H191.298H188.744H188.105H165.915H162.882L162.722 59.5637L161.764 79.6281V79.9465V80.265L162.403 84.0868L162.722 86.7939H165.436H188.105H188.744H191.298H191.777H210.136H213.01L213.329 83.9276L213.489 82.9721H213.968V83.7683L214.127 86.7939H217.16H231.688H234.242L234.721 84.2461L235.679 80.4243L235.839 80.1058L235.679 79.4688L235.36 74.3731L235.2 71.9845H238.712L239.83 83.9276L239.989 86.7939H242.863H248.77H251.164L251.803 84.5645L253.08 80.7427L253.399 80.1058L253.24 79.4688L252.442 71.9845H255.475H255.794H258.029H258.348H258.508L258.029 73.4177L256.433 77.2394L256.273 78.0356V78.8318L256.912 83.9276L257.231 86.7939H260.104H274.632H276.707L277.505 84.883L278.304 83.2906L278.463 84.0868L278.942 86.7939H281.656H296.184H297.94L298.898 85.2015L299.855 83.6091L300.015 84.2461L300.494 86.7939H303.048H308.955H310.711L311.669 85.3607L313.265 82.9721H315.181H316.937L317.257 84.2461L317.895 86.7939H320.449H326.197H327.793L328.751 85.52L331.624 81.6982L332.582 80.5835L332.263 78.9911Z" fill="#010101"/>
<path d="M103.974 63.3854H101.898L100.302 59.7229H85.934L85.2954 63.3854H81.1447L79.0693 59.7229H60.5507L59.4332 64.6593L62.1472 68.6404H71.5661L70.2889 74.5323H62.1472L59.5929 70.8697H53.6861L52.4089 75.9655L55.2825 79.7873H55.9211L58.7947 83.609H73.3222L74.1204 79.7873H77.9518L80.3464 83.609H86.2532L86.8918 79.7873H95.6722L97.5879 83.609H103.495L105.889 67.3664L103.974 63.3854ZM96.9493 70.8697H88.3286L88.6479 68.7996H97.2686L96.9493 70.8697Z" fill="#534C4B"/>
<path d="M129.996 59.7229H124.248L122.971 70.8697H118.501L118.022 74.5323H117.224L115.787 70.8697H113.552L114.51 63.8631L112.914 59.7229H107.167L105.251 72.1437L107.007 76.1247H109.082L110.838 79.7873H112.914L114.67 83.609H120.417L120.896 79.7873H125.206L125.685 76.1247H129.996L131.273 63.8631L129.996 59.7229Z" fill="#534C4B"/>
<path d="M151.866 63.3854L151.228 59.7229H136.86L136.541 63.3854H132.23L130.474 79.7873L131.751 83.609H137.658L137.977 79.7873H148.194L149.152 83.609H155.059L156.017 67.3664L155.219 63.3854H151.866ZM138.776 70.8697L138.935 68.7996H148.833L148.673 70.8697H138.776Z" fill="#534C4B"/>
<path d="M165.915 59.7229L164.957 79.7873L165.436 83.609H188.744V78.3541L188.584 74.5323H180.123L180.283 71.029L180.123 68.7996H188.744V63.8631V59.7229H165.915Z" fill="#534C4B"/>
<path d="M209.976 63.3854L209.817 59.7229H191.298V63.8631V83.609H210.136L210.615 79.7873H214.287L214.766 75.9655L214.287 63.3854H209.976ZM208.22 68.7996L208.38 74.6915H197.365V68.7996H208.22Z" fill="#534C4B"/>
<path d="M227.857 74.5323L227.378 68.7996H230.571L231.369 64.6593L231.049 59.7229H216.682L216.203 63.8631L216.362 68.7996H220.673L220.992 74.5323H217.48L216.841 78.3541L217.16 83.609H231.688L232.486 79.7873L232.167 74.5323H227.857Z" fill="#534C4B"/>
<path d="M233.604 59.7229L232.805 63.8631L233.125 68.7996H241.586L242.863 83.609H248.77L250.047 79.7873L248.929 68.7996H255.794L257.071 64.6593L256.433 59.7229H233.604Z" fill="#534C4B"/>
<path d="M271.28 74.5323L270.481 68.7996H272.397L274.153 64.6593L273.355 59.7229H259.147L257.71 63.8631L258.348 68.7996H262.499L263.297 74.5323H260.903L259.466 78.3541L260.104 83.609H274.632L276.388 79.7873L275.59 74.5323H271.28Z" fill="#534C4B"/>
<path d="M324.281 59.7229H318.533L315.979 63.8631L316.777 67.048H313.265L312.467 63.3854H308.157L307.358 59.7229H301.611L299.536 63.3854H295.385L294.747 59.7229H280.379L278.782 63.3854H276.707L274.951 67.3664L276.867 79.7873H281.177L281.816 83.609H296.343L298.578 79.7873H299.855L301.771 76.6024L303.208 83.609H309.115L311.669 79.7873L310.871 76.1247H314.542L315.341 79.9465H319.651L320.449 83.7683H326.356L329.23 79.9465L324.281 59.7229ZM292.991 74.5323H284.37L283.412 68.6404H292.033L292.991 74.5323Z" fill="#534C4B"/>
<path d="M60.5507 59.7229L59.4332 64.6593H72.3643L70.1293 74.5323H58.635L59.5929 70.8697H53.5264L52.4089 75.9655H56.7193L55.9211 79.7872H70.6082L71.5661 75.9655H75.8764L79.0693 59.7229H60.5507Z" fill="#D8D4CE"/>
<path d="M99.663 63.3854L100.302 59.7229H85.9338L85.2952 63.3854H80.9848L77.792 79.7872H83.8584L84.497 75.9655H96.1509L95.5123 79.7872H101.579L104.133 63.3854H99.663ZM96.9491 70.8697H85.4548L86.5723 64.8186H97.907L96.9491 70.8697Z" fill="#D8D4CE"/>
<path d="M107.167 59.7229H112.914L111.477 70.8697H115.787L115.308 74.5323H118.022L118.501 70.8697H122.971L124.248 59.7229H129.996L128.718 72.1437H124.248L123.929 75.9655H119.459L118.98 79.7872H112.914L113.552 75.9655H109.082L109.721 72.1437H105.251L107.167 59.7229Z" fill="#D8D4CE"/>
<path d="M150.908 63.3854L151.228 59.7229H136.86L136.541 63.3854H132.23L130.474 79.7872H136.541L136.86 75.9655H148.514L148.194 79.7872H154.261L155.219 63.3854H150.908ZM148.833 70.8697H137.339L137.977 64.8186H149.312L148.833 70.8697Z" fill="#D8D4CE"/>
<path d="M165.915 59.7229L164.957 79.7872H188.584V74.5323H171.183V72.1437H179.964L180.123 67.048H171.343L171.503 64.6593H188.744V59.7229H165.915Z" fill="#D8D4CE"/>
<path d="M214.766 75.9655L214.287 63.3854H209.976L209.817 59.7229H191.298V79.7872H210.615L210.455 75.9655H214.766ZM197.365 74.5323L197.205 64.6593H208.54L208.859 74.5323H197.365Z" fill="#D8D4CE"/>
<path d="M216.681 59.7229L217.001 64.6593H221.311L221.79 74.5323H217.479L217.639 79.7872H232.486L232.167 74.5323H227.856L227.218 64.6593H231.368L231.049 59.7229H216.681Z" fill="#D8D4CE"/>
<path d="M233.604 59.7229L234.082 64.6593H242.703L244.14 79.7872H250.047L248.45 64.6593H257.071L256.432 59.7229H233.604Z" fill="#D8D4CE"/>
<path d="M259.146 59.7229L259.785 64.6593H264.095L265.373 74.5323H260.903L261.541 79.7872H276.388L275.59 74.5323H271.279L269.843 64.6593H274.153L273.355 59.7229H259.146Z" fill="#D8D4CE"/>
<path d="M301.452 59.7229L305.443 79.7872H311.509L309.115 68.3219H311.829L312.627 72.1437H317.097L317.895 75.9655H322.365L323.163 79.7872H329.23L324.281 59.7229H318.534L321.088 70.8697H318.374L317.416 67.048H313.106L312.307 63.3854H307.997L307.359 59.7229H301.452Z" fill="#D8D4CE"/>
<path d="M302.09 75.9655L299.696 63.3854H295.385L294.747 59.7229H280.379L281.018 63.3854H276.707L278.623 75.9655H283.093L283.731 79.7872H298.578L297.78 75.9655H302.09ZM284.37 74.5323L282.774 64.6593H294.108L295.864 74.5323H284.37Z" fill="#D8D4CE"/>
<defs>
<linearGradient id="paint0_linear" x1="35.9054" y1="48.5312" x2="35.9054" y2="4.67451" gradientUnits="userSpaceOnUse">
<stop stop-color="#D9CDC9"/>
<stop offset="1" stop-color="#A79D9A"/>
</linearGradient>
<linearGradient id="paint1_linear" x1="75.4914" y1="48.6223" x2="75.4914" y2="4.76285" gradientUnits="userSpaceOnUse">
<stop stop-color="#D9CDC9"/>
<stop offset="1" stop-color="#A79D9A"/>
</linearGradient>
<linearGradient id="paint2_linear" x1="108.884" y1="48.5059" x2="108.884" y2="4.61177" gradientUnits="userSpaceOnUse">
<stop stop-color="#D9CDC9"/>
<stop offset="1" stop-color="#A79D9A"/>
</linearGradient>
<linearGradient id="paint3_linear" x1="153.291" y1="48.4886" x2="153.291" y2="4.57164" gradientUnits="userSpaceOnUse">
<stop stop-color="#D9CDC9"/>
<stop offset="1" stop-color="#A79D9A"/>
</linearGradient>
<linearGradient id="paint4_linear" x1="358.623" y1="48.4124" x2="358.623" y2="4.37269" gradientUnits="userSpaceOnUse">
<stop stop-color="#D9CDC9"/>
<stop offset="1" stop-color="#A79D9A"/>
</linearGradient>
<linearGradient id="paint5_linear" x1="319.848" y1="48.4312" x2="319.848" y2="4.41173" gradientUnits="userSpaceOnUse">
<stop stop-color="#D9CDC9"/>
<stop offset="1" stop-color="#A79D9A"/>
</linearGradient>
<linearGradient id="paint6_linear" x1="280.191" y1="48.4459" x2="280.191" y2="4.4517" gradientUnits="userSpaceOnUse">
<stop stop-color="#D9CDC9"/>
<stop offset="1" stop-color="#A79D9A"/>
</linearGradient>
<linearGradient id="paint7_linear" x1="238.297" y1="48.4621" x2="238.297" y2="4.4931" gradientUnits="userSpaceOnUse">
<stop stop-color="#D9CDC9"/>
<stop offset="1" stop-color="#A79D9A"/>
</linearGradient>
<linearGradient id="paint8_linear" x1="195.71" y1="48.4753" x2="195.71" y2="4.53196" gradientUnits="userSpaceOnUse">
<stop stop-color="#D9CDC9"/>
<stop offset="1" stop-color="#A79D9A"/>
</linearGradient>
</defs>
</svg>
