<svg viewBox="0 0 1920 561.26" xmlns="http://www.w3.org/2000/svg">
    <path d="m1748.07993 241.94733 29.5527-49.00688-16.39515-52.625h-1126.75605l-5.274 38.40382-10.44232-38.40377h-262.5935l-9.04332 36.15735h-21.83051l-5.17657 19.99624-28.98785-56.15359h-85.57458l-65.21978 209.34402 51.9699 71.28405 85.46507.00093 10.45624-39.54973h34.518l23.1464 39.54942h263.80664l6.28246-45.86931 14.60175 45.86931h881.36529l35.68081-73.94361h32.26609l29.97013-58.6545 32.00028 132.59811h88.72506l49.11888-71.40269zm-761.53306 49.66292.10951-24.9878h75.8071l.76739 24.9878z"/>
    <g fill="#3d3938">
        <path d="m199.709 406.391-43.299-59.39h69.889l39.637 59.391z"/>
        <path d="m482.546 347.001h-69.886l29.883 59.391h66.227z"/>
        <path d="m505.842 347.001 25.004 59.391h66.228l-21.346-59.391z"/>
        <path d="m715.501 347.001 14.027 59.391h154.531l-5.49-59.391z"/>
        <path d="m1064.934 347.001-4.268 59.391h-154.531l-4.271-59.391z"/>
        <path d="m1088.229 347.001h69.884l-9.144 59.391h-66.227z"/>
        <path d="m1181.41 347.001-10.365 59.391h66.227l14.024-59.391z"/>
        <path d="m1274.591 347.001-15.243 59.39 66.228.001 18.902-59.391z"/>
        <path d="m1367.773 347.001-20.122 59.391h66.228l23.78-59.391z"/>
        <path d="m1460.954 347.001-24.999 59.391h66.227l28.66-59.391z"/>
        <path d="m1693.909 347.001-37.196 59.391h66.227l40.856-59.391z"/>
        <path d="m622.319 347.001 18.906 59.391h66.228l-15.248-59.391z"/>
        <path d="m319.48 347.001h69.888l31.099 59.391h-66.228z"/>
    </g>
    <path d="m339.58166 266.62244h-22.59006l-10.2365 39.54029h-45.8741l10.93049-39.54029h-22.59008l-22.92525 80.37814h-69.88632l59.8576-192.1325h64.828l-10.31266 36.15745h21.92663l-10.29326 37.23515h44.50685l9.63973-37.23515h21.92663l9.04341-36.15745h64.83133l-42.99623 192.1325h-69.88757z"
          fill="#d0c5c0"/>
    <path d="m453.97012 154.86809h64.82823l-36.2519 192.13248h-69.88654z" fill="#d0c5c0"/>
    <path d="m734.89129 154.86809h151.26527l-1.42793 36.15745h-87.70654l-2.77757 37.23515h89.01362l-1.515 38.36175h-90.35983l-2.94992 39.54029h91.74824l-1.61263 40.83785h-163.06884z"
          fill="#d0c5c0"/>
    <path d="m907.76589 154.86809h151.26527l1.11056 36.15745h-87.70672l-.5044 115.13719h91.74721l1.25415 40.83785h-163.06762z"
          fill="#d0c5c0"/>
    <path d="m1175.414 266.62244h-22.59061l5.29 80.37813h-69.8849l-7.58749-192.13263 151.2648.00015 7.40729 73.39261h-22.25382l1.75474 19.03689h22.42026l10.06188 99.703h-69.88615zm-27.5657-75.5969 2.45015 37.23516h22.25491l-2.77842-37.23516z"
          fill="#d0c5c0"/>
    <path d="m1426.38969 154.86809h151.26531l8.726 36.15745h-87.70654l7.67821 37.23516h89.01453l9.258 38.36174h-90.35981l16.57643 80.37814h-69.88733z"
          fill="#d0c5c0"/>
    <path d="m1652.16091 191.02554h-43.85327l-9.04335-36.15745h151.26471l11.26455 36.15744h-43.85269l45.85557 155.975h-69.887z"
          fill="#d0c5c0"/>
    <path d="m630.58371 286.2419h-22.76224l5.63916-38.94432h-22.42041l-15.31218 99.703h-69.88634l34.56566-192.13249h64.828l-5.55311 36.15745h21.92675l-5.39172 37.23515h22.2534l9.98332-73.3926h64.828l-21.07721 192.13249h-69.88585z"
          fill="#d0c5c0"/>
    <path d="m1404.78014 154.8681h-151.26494l21.0763 192.13248h69.88609l-8.26463-60.75873h22.76253l8.79755 60.75873h69.88607zm-50.95154 70.24723h11.11279l5.27788 35.03309h-15.02219l-1.86079-12.85077h-22.42021l1.74724 12.85077h-15.02173l-4.56035-35.03309h11.11276l-1.26344-9.38918h-25.83391l-3.07123-24.70055h29.236l2.93637 21.58637h22.11591l-3.1257-21.58637h29.23541l3.86584 24.70055h-25.83392z"
          fill="#d0c5c0"/>
</svg>