<svg xmlns="http://www.w3.org/2000/svg" xmlns:xlink="http://www.w3.org/1999/xlink" viewBox="0 0 840 211.61">
  <defs>
    <linearGradient id="a" x1="194.43" y1="152.15" x2="194.43" y2="215.69" gradientTransform="matrix(1 0 0 -1 0 219.81)" gradientUnits="userSpaceOnUse">
      <stop offset="0" stop-color="#d0c4c1"/>
      <stop offset="1" stop-color="#9d9695"/>
    </linearGradient>
    <linearGradient id="e" x1="251.55" y1="152.02" x2="251.55" y2="215.57" xlink:href="#a"/>
    <linearGradient id="f" x1="299.85" y1="152.28" x2="299.85" y2="215.82" xlink:href="#a"/>
    <linearGradient id="g" x1="363.91" y1="152.28" x2="363.91" y2="215.82" xlink:href="#a"/>
    <linearGradient id="h" x1="660.42" y1="152.38" x2="660.42" y2="216.13" xlink:href="#a"/>
    <linearGradient id="i" x1="604.4" y1="152.4" x2="604.4" y2="216.08" xlink:href="#a"/>
    <linearGradient id="j" x1="547.09" y1="152.28" x2="547.09" y2="215.95" xlink:href="#a"/>
    <linearGradient id="k" x1="486.76" y1="152.31" x2="486.76" y2="215.99" xlink:href="#a"/>
    <linearGradient id="l" x1="425.15" y1="152.28" x2="425.15" y2="215.88" xlink:href="#a"/>
    <linearGradient id="b" x1="769.05" y1="120.48" x2="760.69" y2="103.27" gradientTransform="matrix(1 0 0 -1 0 219.81)" gradientUnits="userSpaceOnUse">
      <stop offset="0" stop-color="#510018"/>
      <stop offset="1" stop-color="#1f0008"/>
    </linearGradient>
    <linearGradient id="m" x1="798.85" y1="106.62" x2="782.13" y2="65.94" xlink:href="#b"/>
    <linearGradient id="n" x1="820.73" y1="79.86" x2="803.14" y2="48.56" xlink:href="#b"/>
    <linearGradient id="o" x1="794.81" y1="47.59" x2="776.96" y2="14.78" xlink:href="#b"/>
    <linearGradient id="p" x1="729.16" y1="112.91" x2="716.3" y2="86.32" xlink:href="#b"/>
    <linearGradient id="q" x1="711.43" y1="75.71" x2="693.42" y2="40.55" xlink:href="#b"/>
    <linearGradient id="r" x1="735.59" y1="39.42" x2="714.58" y2="-18.03" xlink:href="#b"/>
    <linearGradient id="s" x1="630.6" y1="88.88" x2="617.31" y2="50.29" xlink:href="#b"/>
    <linearGradient id="t" x1="650.15" y1="81.78" x2="631.71" y2="32.04" xlink:href="#b"/>
    <linearGradient id="u" x1="678.38" y1="50.21" x2="662.08" y2="2.18" xlink:href="#b"/>
    <linearGradient id="v" x1="619.16" y1="50.57" x2="608.01" y2=".4" xlink:href="#b"/>
    <linearGradient id="w" x1="547.49" y1="117.95" x2="545.24" y2="87.07" xlink:href="#b"/>
    <linearGradient id="x" x1="592.56" y1="58.08" x2="584.84" y2="30.64" xlink:href="#b"/>
    <linearGradient id="y" x1="518.26" y1="62.78" x2="518.58" y2="-14.4" xlink:href="#b"/>
    <linearGradient id="z" x1="556.81" y1="39.97" x2="550.06" y2="-4.41" xlink:href="#b"/>
    <linearGradient id="A" x1="476.92" y1="113.6" x2="476.92" y2="89.48" xlink:href="#b"/>
    <linearGradient id="B" x1="479.2" y1="76.97" x2="478.24" y2="60.25" xlink:href="#b"/>
    <linearGradient id="C" x1="467.56" y1="42.97" x2="466.6" y2=".5" xlink:href="#b"/>
    <linearGradient id="D" x1="71.93" y1="118.06" x2="80.93" y2="96.62" xlink:href="#b"/>
    <linearGradient id="E" x1="42.7" y1="100.31" x2="50.2" y2="82.09" xlink:href="#b"/>
    <linearGradient id="F" x1="25.85" y1="70.91" x2="33.13" y2="49.9" xlink:href="#b"/>
    <linearGradient id="G" x1="46.42" y1="47.47" x2="56.71" y2="18.52" xlink:href="#b"/>
    <linearGradient id="H" x1="120.4" y1="125.39" x2="144.2" y2="73.29" xlink:href="#b"/>
    <linearGradient id="I" x1="140.32" y1="57.55" x2="156.24" y2="17.03" xlink:href="#b"/>
    <linearGradient id="J" x1="97.09" y1="36.51" x2="106.58" y2="4.19" xlink:href="#b"/>
    <linearGradient id="K" x1="230.76" y1="62.66" x2="255.52" y2="-.05" xlink:href="#b"/>
    <linearGradient id="L" x1="159.08" y1="64.92" x2="175" y2="24.4" xlink:href="#b"/>
    <linearGradient id="M" x1="197.14" y1="42.97" x2="207.75" y2="3.73" xlink:href="#b"/>
    <linearGradient id="N" x1="287.09" y1="85.61" x2="291.21" y2="63.75" xlink:href="#b"/>
    <linearGradient id="O" x1="298.14" y1="78.33" x2="304.77" y2="43.55" xlink:href="#b"/>
    <linearGradient id="P" x1="255.76" y1="52.61" x2="267.33" y2="12.41" xlink:href="#b"/>
    <linearGradient id="Q" x1="316.18" y1="55.52" x2="320.04" y2="-2.8" xlink:href="#b"/>
    <linearGradient id="R" x1="393.19" y1="115.43" x2="392.34" y2="76.41" xlink:href="#b"/>
    <linearGradient id="S" x1="381.51" y1="88.14" x2="384.4" y2="65.31" xlink:href="#b"/>
    <linearGradient id="T" x1="376.83" y1="43.4" x2="377.79" y2="7.38" xlink:href="#b"/>
    <linearGradient id="c" x1="822.76" y1="6.7" x2="791.03" y2="130.62" gradientTransform="matrix(1 0 0 -1 0 219.81)" gradientUnits="userSpaceOnUse">
      <stop offset="0" stop-color="#f7eb87"/>
      <stop offset="1" stop-color="#e57834"/>
    </linearGradient>
    <linearGradient id="U" x1="728.92" y1="47.14" x2="728.92" y2="89.59" xlink:href="#c"/>
    <linearGradient id="V" x1="641.77" y1="47.12" x2="641.77" y2="89.57" xlink:href="#c"/>
    <linearGradient id="W" x1="554.1" y1="47.14" x2="554.1" y2="89.59" xlink:href="#c"/>
    <linearGradient id="X" x1="467.53" y1="47.14" x2="467.53" y2="89.59" xlink:href="#c"/>
    <linearGradient id="Y" x1="111.91" y1="47.14" x2="111.91" y2="89.59" xlink:href="#c"/>
    <linearGradient id="Z" x1="203.95" y1="47.14" x2="203.95" y2="89.59" xlink:href="#c"/>
    <linearGradient id="aa" x1="289.63" y1="47.14" x2="289.63" y2="89.59" xlink:href="#c"/>
    <linearGradient id="ab" x1="376.65" y1="47.14" x2="376.65" y2="89.59" xlink:href="#c"/>
    <linearGradient id="ac" x1="19.78" y1="47.25" x2="56.44" y2="134.72" xlink:href="#c"/>
    <linearGradient id="d" x1="300.84" y1="51.3" x2="329.27" y2="51.3" gradientTransform="matrix(1 0 0 -1 0 219.81)" gradientUnits="userSpaceOnUse">
      <stop offset="0" stop-color="#b9432d"/>
      <stop offset="1" stop-color="#923724"/>
    </linearGradient>
    <linearGradient id="ad" x1="333.04" y1="51.3" x2="420.26" y2="51.3" xlink:href="#d"/>
    <linearGradient id="ae" x1="164.53" y1="52.07" x2="224.21" y2="52.07" xlink:href="#d"/>
    <linearGradient id="af" x1="242.18" y1="52.07" x2="270.61" y2="52.07" xlink:href="#d"/>
    <linearGradient id="ag" x1="55.57" y1="52.07" x2="123.75" y2="52.07" xlink:href="#d"/>
    <linearGradient id="ah" x1="153.93" y1="62.49" x2="170.34" y2="62.49" xlink:href="#d"/>
    <linearGradient id="ai" x1="224.01" y1="62.49" x2="240.22" y2="62.49" xlink:href="#d"/>
    <linearGradient id="aj" x1="124.78" y1="62.49" x2="150.17" y2="62.49" xlink:href="#d"/>
    <linearGradient id="ak" x1="23.8" y1="58.76" x2="53.9" y2="58.76" xlink:href="#d"/>
    <linearGradient id="al" x1="3.91" y1="81.27" x2="36.2" y2="81.27" xlink:href="#d"/>
    <linearGradient id="am" x1="529.34" y1="51.3" x2="588.13" y2="51.3" xlink:href="#d"/>
    <linearGradient id="an" x1="606.17" y1="51.3" x2="634.6" y2="51.3" xlink:href="#d"/>
    <linearGradient id="ao" x1="664.96" y1="51.3" x2="693.39" y2="51.3" xlink:href="#d"/>
    <linearGradient id="ap" x1="424.12" y1="51.3" x2="511.33" y2="51.3" xlink:href="#d"/>
    <linearGradient id="aq" x1="697.21" y1="51.3" x2="784.43" y2="51.3" xlink:href="#d"/>
    <linearGradient id="ar" x1="785.59" y1="58.76" x2="815.69" y2="58.76" xlink:href="#d"/>
    <linearGradient id="as" x1="514.11" y1="62.49" x2="530.49" y2="62.49" xlink:href="#d"/>
    <linearGradient id="at" x1="583.32" y1="62.49" x2="600.41" y2="62.49" xlink:href="#d"/>
    <linearGradient id="au" x1="803.27" y1="81.4" x2="835.57" y2="81.4" xlink:href="#d"/>
    <linearGradient id="av" x1="655.74" y1="41.6" x2="654.95" y2="8.17" xlink:href="#b"/>
    <linearGradient id="aw" x1="600.21" y1="39.55" x2="598.16" y2="10.47" xlink:href="#b"/>
  </defs>
  <path d="M167.61 90.95L144.07 69.2 166.2.39h25.86l12.6 17.1 1.42-5.27h7.2L216.37.4 243 .26l1.54 2.83.64-2.83h26.89l1.41 2.96.52-2.96h27.14l4.76 12.09h.64l1.29 3.21 2.19-15.3h27.4l1.02 3.47.39-3.47 56.99-.13 2.83 25.85-.65 15.18h-1.28l1.03 7.98-.65 16.2h-1.54l1.16 8.63-.65 16.98H339.6l-1.16-3.35-.38 3.35h-27.14l-6.95-14.41-2.06 14.4h-26.88l-1.68-2.7-.38 2.7h-26.63l-1.8-2.57-.52 2.58h-26.37l-11.44-13.13h-6.95l-1.93-2.18-4.12 15.3h-25.6zM483.55 86.83l-.9 3.99h-27.92l-2.18-64.96L454.86 0h57.12l.38 3.73L513.4 0h56.6l.51 3.09L571.92 0h56.21l.65 2.7 1.67-2.7h55.83l5.14 16.34-11.06 13.25.13.38c.77 2.58 1.54 5.28 2.32 7.85.51 1.93 3.73 11.96 3.73 11.96l1.93 6.43c.51 1.8 1.02 3.48 1.54 5.28s1.03 3.6 1.54 5.27l.52 2.19-22 21.87H643.7l-10.42-42.45-12.1 16.85h-8.61l.77 3.47-15.44 22.13h-26.75l-.52-2.83-1.67 2.83h-27.01l-.39-3.09-1.41 3.09h-27.27l-.39-3.48-1.16 3.48h-27.65z"/>
  <path d="M394.27 68.3L396.6.14h57.5l.51 15.7-1.93 25.33H425.8l-.39 9.4h30.23l.52 17.75-2.19 22.64h-56.99l-2.7-22.64z"/>
  <path fill="url(#a)" d="M193.34 15.95l-3.6 12.48h15.82l3.35-12.35h7.33l3.09-11.96h20.96L225.5 67.53h-22.64l6.82-26.88h-8.1l-3.6 13.12H183.3l3.73-13.12h-8.23l-7.98 26.88-22.25.13 20.45-63.41 20.45-.13-3.34 11.57 7.2.26z"/>
  <path fill="url(#e)" d="M269.1 4.25l-12.47 63.41-22.64.13 14.15-63.55h20.97z"/>
  <path fill="url(#f)" d="M299.6 47.08l1.92-13.12-8.23-.13-5.4 33.7h-22.51L277.2 4.12h20.97l-1.93 11.7 7.2.13-1.67 12.35 8.1.13 3.35-24.44h21.1l-7.46 63.54h-22.64l2.83-20.2-7.46-.25z"/>
  <path fill="url(#g)" d="M390.03 54.41l-.52 13.12h-53.9L342.31 4h49.9l-.38 11.19h-29.46l-.9 13 29.71.12-.5 12.22H360.3l-1.03 13.76 30.75.13z"/>
  <path d="M683.32 3.73l3.6 11.32H672.4l.12.39c.65 2.44 1.3 5.01 1.93 7.59s1.42 5.14 2.2 7.84 1.53 5.4 2.44 8.1c.77 2.7 1.67 5.41 2.44 8.24l1.54 5.02c.52 1.67 1.03 3.34 1.55 5.14.51 1.67 1.03 3.48 1.54 5.15s1.03 3.47 1.54 5.14h-22.76l-14.28-52.48h-14.67l-2.83-11.32z" fill="url(#h)"/>
  <path fill="url(#i)" d="M630.97 27.79l3.08 12.6h-30.48l5.65 27.02h-22.76L574.75 3.73h50.3l2.7 11.32h-29.59l2.7 12.74h30.1z"/>
  <path d="M543.5 46.95l2.82 20.58h-22.77l-7.07-63.67h50.17l11.06 63.67h-22.77l-2.96-20.45zM558.27 22L557 13.9h-9.9l.9 7.45h-7.85l-1.03-7.33h-9.65l1.03 8.1h8.88l.38 2.96h-4.37l1.67 12.48h5.27l-.38-4.24h7.85l.64 4.24h5.4l-1.93-12.35h-4.37l-.39-2.96 9.14-.25" fill="url(#j)"/>
  <path d="M504.13 34.47h7.46l3.34 32.94H492.3l-2.05-26.89-8.37-.26 1.8 27.02h-22.63l-2.45-63.55h50.17l2.32 23.54h-7.47zm-14.8-6.3l-1.02-13.12h-8.1l.9 13.12h8.23" fill="url(#k)"/>
  <path fill="url(#l)" d="M421.67 15.18h29.07l-.38-11.32-50.04.13-2.19 63.54h54.03l-.39-13.12H420.9l.77-39.23z"/>
  <path d="M151.53 67.66c-1.54 0-1.93.9-.77 1.93l16.21 15.57a8.58 8.58 0 004.89 1.93h14.4c1.55 0 1.94-.9.9-2.06l-14.27-15.3a7.31 7.31 0 00-4.76-2.07zM205.82 67.53c-1.54 0-2.06 1.03-1.03 2.2l12.6 15.17a7.14 7.14 0 004.64 2.19h15.05c1.54 0 2.06-1.03 1.16-2.32l-11.07-14.92a6.21 6.21 0 00-4.5-2.32z" fill="#212428"/>
  <path d="M186.27 53.77c-1.55 0-2.06.9-.9 2.19l14.15 15.95a6.65 6.65 0 004.37 2.06c1.29 0 1.67-1.16.77-2.45l-1.03-1.54a7.18 7.18 0 01-.9-5.15l.39-1.15a6.35 6.35 0 00-1.03-5.02l-2.06-2.57a6.58 6.58 0 00-4.63-2.2zM236.95 67.8c-1.54 0-2.06 1.02-1.16 2.3l10.8 14.8a6.21 6.21 0 004.51 2.32h14.92c1.55 0 2.19-1.03 1.29-2.45l-9.13-14.53a6.1 6.1 0 00-4.38-2.45zM268.2 67.53a1.5 1.5 0 00-1.4 2.45l8.74 14.4a5.86 5.86 0 004.37 2.45h14.54a1.61 1.61 0 001.54-2.57l-6.94-14.15a5 5 0 00-4.12-2.58zM307.19 67.53a1.7 1.7 0 00-1.68 2.58l6.7 14.4a4.83 4.83 0 004.1 2.58h15.06a1.91 1.91 0 001.93-2.7l-5.15-14.15a4.56 4.56 0 00-3.86-2.7zM338.44 67.53a1.91 1.91 0 00-1.93 2.7l4.9 13.77a4.2 4.2 0 003.85 2.7h44.12a2.41 2.41 0 002.45-2.83l-1.93-13.5a3.42 3.42 0 00-3.22-2.84zM400.96 67.53a2.57 2.57 0 00-2.57 2.83l1.54 13.9a3.22 3.22 0 003.22 2.83H447a3.42 3.42 0 003.22-2.83l1.67-13.9a2.5 2.5 0 00-2.57-2.83zM463.74 67.53a3.42 3.42 0 00-3.22 2.83L458.85 84a2.41 2.41 0 002.44 2.83h14.8a3.7 3.7 0 003.47-2.83l3.34-13.76a2.19 2.19 0 00-2.18-2.83zM495.12 67.53a3.7 3.7 0 00-3.47 2.83L488.43 84a2.19 2.19 0 002.2 2.83h14.66a4.34 4.34 0 003.86-2.7l4.88-13.77a1.91 1.91 0 00-1.93-2.7zM526.51 67.53a4.34 4.34 0 00-3.86 2.7l-4.89 14.03a1.91 1.91 0 001.93 2.7h14.8a5.18 5.18 0 004.11-2.57l6.7-14.15a1.7 1.7 0 00-1.68-2.58zM557.9 67.4a5 5 0 00-4.12 2.58l-6.94 14.28c-.65 1.41 0 2.57 1.54 2.57h15.3a5.61 5.61 0 004.25-2.44l8.36-14.41c.78-1.42.13-2.45-1.41-2.45zM589.29 67.4a6.1 6.1 0 00-4.38 2.45l-8.87 14.54c-.78 1.28-.26 2.44 1.41 2.44h15.05a6.21 6.21 0 004.5-2.32l10.55-14.79c.9-1.29.39-2.31-1.15-2.31zM667.75 67.4a7.46 7.46 0 00-4.76 2.2L649.88 84.5c-1.03 1.16-.64 2.2 1.03 2.2h14.41a7.93 7.93 0 004.89-2.07l15.56-15.18c1.16-1.15.78-2.05-.77-2.05z" fill="#212428"/>
  <path d="M164.91 15.44l21.49.13.12-1.55h-20.96l-.65 1.42zM165.04 44.25h-9.65v1.29h7.72l-5.27 16.2h17.62v-1.4h-15.7l2.2-6.44h14.79v-1.42h-14.41l2.7-8.23zM226.53 14.54h-10.42l-.51 1.41h9.26l-1.42 10.55h-20.06v1.29h33.83v-1.3h-12.35l1.67-11.95zM246.21 56.86l-1.93 3.09-1.54 8.1 4.11 6.05 3.1 2.31-5.8-8.62 2.06-10.93zM267.95 16.34l-11.83.13 2.95 1.15h8.88v-1.28zM277.08 60.33l-2.05 3.09-.9 4.11 1.93 5.02 2.05 2.83-2.57-7.97 1.54-7.08zM267.95 46.95l-.13 1.42 22.51 1.16 1.93 2.82 1.16-.64-2.31-3.6-23.16-1.16zM289.56 15.56h7.2v-1.41l-9.51-.13 2.31 1.54zM305.26 47.6V49l15.56-.64L318 67.53l2.06 7.08 2.44 3.47-3.08-10.67 3.08-20.46-17.23.65zM311.43 15.18c.64.13 16.47 2.83 22.25 2.83v-1.42c-5.66 0-21.86-2.7-22-2.7zM347.2 53.26h-11.71v1.28h10.29l-.39 12.74 2.57 10.03 1.93 3.47-3.08-13.63.38-13.9zM338.96 23.16h11.45l3.08-1.55-14.53.26v1.29zM377.04 26.63h-1.42v12.73l1.54-3.47-.13-9.26zM383.72 57.76H373.3v10.42h1.42v-9h10.3l.25-7.34h-1.42l-.13 5.92zM439.94 59.04l.9 8.62-2.7 20.07 1.67-.13 2.44-19.8-1.15-10.94-1.16 2.18zM398.9 78.98h6.69v1.42h-6.69zM405.6 25.08c8.1 0 16.97 3.86 16.97 3.86l.52-1.28c-.39-.13-11.97-4-20.33-4zM405.08 36.4l-6.43.13v1.42h4.11l2.32-1.55zM468.62 26.63h7.2a1.72 1.72 0 011.3 1.03l1.15-.77a3.51 3.51 0 00-2.31-1.68h-6.18l-2.44-22.25-1.42.13 2.06 18.78H457.3v1.41h10.81zM466.7 60.46c-1.93.9-3.1 5.4-3.35 6.82l1.29.25c.64-2.83 1.93-5.91 2.83-5.91h.77l-.9-13.38h16.98v-1.42h-18.53zM489.72 52.48h13.38l2.57-1.41h-15.95v1.41zM496.93 32.93h8.1v-1.41l-9.65.13 1.55 1.28zM458.14 81.57l.1-1.42 22.32 1.62-.1 1.41zM551.34 51.33v1.41c.26 0 18.9-.26 25.98 2.45l.52-1.3c-7.46-2.7-25.73-2.56-26.5-2.56zM616.43 25.98c3.34 9.52.77 14.93.77 14.93l1.29.64c.13-.26 2.83-5.92-.65-15.95zM603.7 8.49l-1.68-5.53-1.28.39 1.92 6.43h5.4l2.58 7.72 1.29-.52-2.96-8.49h-5.28zM658.11 48.62h24.96v1.42h-24.96zM676.12 15.82l-3.48-12.6-1.41.38 3.47 12.6 1.42-.38z"/>
  <path d="M215.21 15.7h6.3c1.55 0 1.55-.26 0-.52l-2.31-.52c-1.55-.25-2.7 0-2.57.65zM180.48 77.05a5.3 5.3 0 00-3.99-.9l-3.73.52c-1.54.13-1.54.51 0 .64l6.05.77c1.54.13 2.31-.38 1.67-1.03zM239.14 84.64c-.39-.64-2.06-1.15-3.6-1.03l-7.85.65c-1.55.13-1.55.38 0 .51l9.52.9c1.54.13 2.44-.25 1.93-1.03zM310.27 81.81c-.13-.64.9-1.15 2.58-1.03h2.18c1.55 0 1.67.39.13.9l-1.67.52c-1.67.38-3.09.26-3.22-.39zM391.57 77.31c-.13-.9-1.54-1.54-3.09-1.29l-5.66.78c-1.54.25-1.54.64 0 .9l6.05.9c1.54.25 2.7-.39 2.7-1.29zM398.26 80.53c-.13-.9 1.16-1.55 2.7-1.42h.39c1.54.13 1.67.9.25 1.55l-.64.25c-1.41.9-2.57.65-2.7-.38zM346.93 64.7c-.12-1.41-.51-1.54-.77-.25a11.37 11.37 0 00.39 5.01l.38 1.42c.52 1.54.78 1.41.65-.13v-.77a73.74 73.74 0 01-.65-5.28zM373.82 65.73c-.26-.51-.52.26-.52 1.8v1.03c0 1.55.26 1.8.52.52a4.88 4.88 0 000-3.35zM319.15 65.22c0-1.42-.39-1.42-.52 0a14.86 14.86 0 00.39 5.27l.51 1.55c.52 1.54.65 1.41.39-.13l-.26-1.29c-.13-1.67-.38-3.99-.51-5.4zM275.28 66.25c-.25-.52-.64-.52-.9.26a3.87 3.87 0 00.52 2.83c.51.9 1.03.77.9-.26a7.94 7.94 0 00-.52-2.83zM244.67 65.22c-.26-1.42-.9-1.29-1.29.26v.25a5.36 5.36 0 001.42 4.76l.12.13c1.16 1.16 1.68.9 1.16-.38a36.64 36.64 0 01-1.41-5.02zM189.35 63.16c-.38-.51.52-.9 2.06-.77l4.89.38c1.54.13 1.54.4 0 .65l-3.34.38c-1.55.26-3.1 0-3.6-.64zM440.97 64.06c.26-1.54.64-1.54 1.03 0l.13.9a13.37 13.37 0 01-.13 5.53l-.65 2.32c-.38 1.54-.77 1.41-.77-.13v-2.19a41.84 41.84 0 01.39-5.66zM422.44 28.69c0 .64-1.03.51-2.31-.39l-1.03-.64c-1.29-.9-1.16-1.29.39-.9h.25c1.42.25 2.7 1.15 2.7 1.93zM512.49 75.51c.13-.64-.9-1.16-2.57-1.03l-2.32.13c-1.54 0-1.67.39-.13.9l1.93.51c1.55.39 2.83.13 3.09-.51zM500.91 65.73c-.38-.9-.77-.38-.64 1.16v.52c0 1.54.39 2.18.77 1.41a3.73 3.73 0 00-.13-3.09zM541.82 78.47c.26-.64-.77-1.16-2.44-1.03l-5.8.51c-1.54.13-1.54.39 0 .65l5.02.77c1.55.13 2.96-.26 3.22-.9zM536.16 66.12c-.26-.77-.64-.77-.77-.13a10.91 10.91 0 00.13 3.47c.25 1.16.64 1.29.77.13a10.08 10.08 0 00-.13-3.47zM617.84 41.55c-.51-.13-.51-1.54.13-2.96.65-1.41 1.03-1.29 1.03.26v.26c0 1.54-.51 2.57-1.16 2.44zM579.12 76.8c.52-.65 2.32-1.03 3.86-.9l8.24 1.28c1.54.26 1.54.52 0 .52l-10.17.25c-1.67.13-2.57-.38-1.93-1.15zM654.76 76.8a4.36 4.36 0 014.12-1.16l7.59 1.41c1.54.26 1.54.65 0 .78l-10.03.64c-1.68 0-2.32-.64-1.68-1.67zM657.72 49.14c-.26-1.03.64-1.8 2.32-1.54l6.81 1.02c1.55.26 1.55.65 0 .9l-5.66 1.03a2.99 2.99 0 01-3.47-1.41z"/>
  <path d="M650 17.1c-.51-.38-1.03-2.05-1.03-3.6V13c0-1.55.26-1.68.65-.14l.64 2.32c.39 1.54.26 2.31-.26 1.93z" opacity=".5"/>
  <path d="M576.68 55.7l-4.25-1.67c-1.41-.65-1.41-.9.13-.77l4.5.38"/>
  <path d="M418.33 69.08a6.26 6.26 0 000-3.09c-.26-.77-1.8-1.54-3.48-1.54h-1.93c-1.54 0-3.34.77-3.85 1.67s.25 2.06 1.67 2.57l4.24 1.16c1.55.51 3.09.13 3.35-.77z" opacity=".5"/>
  <path d="M415.63 66.76c-1.03-1.16-1.03-2.06.13-2.06a4.05 4.05 0 013.08 1.3c.52.63.39 2.3-.51 3.72l-.39.64c-.77 1.3-1.28 1.55-.9.52a5.4 5.4 0 00-1.41-4.12zM311.3 14.92c.13-.9 1.42-1.28 2.96-.9l.9.26c1.54.38 1.54 1.03 0 1.29l-1.29.25c-1.54.39-2.7 0-2.57-.9zM236.7 27.53c-.27.51-1.8.77-3.35.38l-1.16-.25c-1.54-.39-1.54-.77.13-.9l2.19-.13c1.41-.13 2.44.26 2.18.9zM176.62 53c.26-.77-.77-1.16-2.32-.9l-2.7.51c-1.54.26-1.54.77 0 1.03l1.67.26c1.55.26 3.1-.13 3.35-.9z"/>
  <path d="M181.25 77.31c-.51-.51-.51-2.31-.13-3.73l.64-2.32c.4-1.54.78-1.41.65.13l-.26 4.25c0 1.41-.51 2.19-.9 1.67zM238.88 84.9c-.52-.26-.52-1.67 0-3.09s.9-1.28.9.39v.51c0 1.42-.39 2.45-.9 2.19zM290.85 50.17c0-1.03.38-.64.9.77l.38 1.16c.52 1.41.52 2.06-.12 1.28a6.92 6.92 0 01-1.16-3.21zM579.77 77.7c.51-.39.64-2.06.25-3.6l-.77-2.58c-.38-1.54-.77-1.41-.77.13l.13 3.99c.13 1.67.64 2.57 1.16 2.06zM655.92 77.31c.77-.38.9-1.93.26-3.34l-3.09-6.82c-.64-1.42-.9-1.29-.64.26l1.54 7.97c.13 1.42 1.16 2.32 1.93 1.93zM659.14 49.01c-.26-.64-1.16 0-1.8 1.42l-3.22 6.68c-.64 1.42-.52 1.55.39.26l3.6-4.89c.9-1.28 1.28-2.83 1.03-3.47z" fill="#212428"/>
  <path d="M609.61 17.5l.13-3.86c0-1.55.39-1.68.77-.13l1.16 4.37"/>
  <path d="M170.19 78.85c-1.42-.38-1.42-.64.25-.64h.13c1.55.13 3.86.39 5.15.52s1.16.51-.26.51a10.65 10.65 0 01-5.27-.39zM243.12 70.62c-1.15-1.16-1.28-1.03-.38.26l1.28 1.8a16.13 16.13 0 003.22 3.34c.9.52.9.13-.13-1.02-.9-1.16-2.7-2.96-3.73-4.12zM272.97 67.53c-.39 0-.13 1.03.51 2.45.65 1.28.9 1.28.65 0-.26-1.42-.78-2.45-1.16-2.45zM315.42 82.2c-1.29-.13-1.03-.52.51-.77l1.93-.39c1.55-.26 2.19-.13 1.29.39a5.76 5.76 0 01-3.73.77zM345 69.85c-.51-.77-.77-.26-.51 1.16a23.37 23.37 0 001.8 5.01c.64 1.3 1.03 1.03.64-.51l-.25-1.42a12.74 12.74 0 00-1.68-4.24zM443.03 72.42c-.13-.9-.65-.77-1.03.39a18.75 18.75 0 00-.65 4.89c0 1.54.39 1.54.9 0l.26-.78a9.7 9.7 0 00.52-4.5zM410.35 66.12c-.38-1.03-1.03-.77-1.67.39a2.66 2.66 0 001.54 3.34l.26.13c1.42.64 2.06.51 1.54-.39-.51-1.03-1.28-2.57-1.67-3.47zM465.15 82.71c-1.41-.38-1.41-.64.26-.64h.77a20.7 20.7 0 015.53.9c1.42.51 1.42.77-.26.77h-.77c-1.54-.25-3.98-.64-5.53-1.03zM502.2 69.85c-.13-.51-.64 0-1.03 1.16s-.39 1.67.26 1.03a2.88 2.88 0 00.77-2.19zM537.83 68.7c-.13-.52-.64 0-1.03 1.15s-.38 1.67.26 1.03a3.25 3.25 0 00.77-2.19zM532.04 79.37c-1.54-.26-1.54-.64 0-.77l1.42-.13a8.99 8.99 0 014.37.64c.77.52.52.9-.51.9a37.28 37.28 0 01-4.9-.51zM584.4 79.24c-1.42.13-1.42-.13 0-.51a19.72 19.72 0 015.53-.52l2.32.26q2.31.2 0 .38l-2.32.13c-1.54 0-3.99.13-5.53.26z" fill="#525155"/>
  <path d="M618.23 42.06c-.77.26-1.93 1.8-2.44 3.22l-.13.26c-.65 1.41-.26 1.67.64.38l1.67-2.18c.9-1.29 1.03-2.06.26-1.68z" fill="#212428"/>
  <path d="M675.47 16.72c-.64 0-1.41-1.28-1.54-2.83l-.13-1.41c-.13-1.55.26-1.67.9-.26l.9 1.93c.64 1.42.64 2.57-.13 2.57zM457.56 23.28c0-.77 1.16-1.41 2.7-1.41h1.16c1.54 0 1.67.64.26 1.16l-1.42.64c-1.41.64-2.57.51-2.7-.39zM376.52 26.37c-.64-.26-1.03.64-.77 2.32l.13 1.54c.25 1.54.64 1.54 1.03 0l.13-.39c.38-1.67.12-3.21-.52-3.47zM303.97 48.75c-.13-.64.9-1.15 2.57-1.15h6.56c1.55 0 1.55.25 0 .51l-5.92 1.16c-1.54.38-2.95.13-3.21-.52zM175.2 61.49c.13-.52-1.15-.9-2.7-.9h-1.67c-1.54 0-1.67.26-.13.64l1.55.39c1.54.38 2.95.38 2.95-.13z"/>
  <path d="M152.18 66.76c-1.55 0-2.58.26-2.32.65a8.25 8.25 0 003.48.51h12.22c1.54 0 3.08-.26 3.47-.64.26-.39-.77-.65-2.32-.65zM206.85 66.76c-1.55 0-2.57.26-2.32.65a8.25 8.25 0 003.48.51h12.22c1.54 0 3.08-.26 3.47-.64.26-.39-.77-.65-2.32-.65zM237.6 66.5c-1.55 0-2.84.4-2.7.65s1.53.51 3.08.51h.38c1.55 0 2.96-.25 3.1-.64s-1.04-.64-2.71-.64zM182.8 39.75c-1.55 0-2.84.38-2.7.64s1.54.52 3.08.52h.39c1.54 0 2.95-.26 3.08-.65s-1.03-.64-2.7-.64zM205.43 39.75c-1.54 0-2.83.38-2.7.64s1.55.52 3.09.52h.39c1.54 0 2.95-.26 3.08-.65s-1.03-.64-2.7-.64zM160.15 43.35c-1.54 0-2.83.39-2.7.64s1.42.52 2.96.52 2.83-.26 2.96-.64-1.16-.65-2.7-.65zM187.3 52.61c-1.55 0-2.7.26-2.45.65a7.21 7.21 0 003.22.51h5.66c1.54 0 2.96-.26 3.21-.64s-.9-.65-2.44-.65zM174.82 13.12c-1.55 0-2.7.26-2.45.64a7.21 7.21 0 003.22.52h5.66c1.54 0 2.96-.26 3.22-.64s-.9-.65-2.45-.65zM269.1 66.5c-1.53 0-2.82.4-2.7.65s1.55.51 3.1.51h.38c1.54 0 2.96-.25 3.09-.64s-1.03-.64-2.7-.64zM322.88 66.5c-1.54 0-2.83.4-2.7.65s1.41.51 2.96.51 2.83-.25 2.95-.64-1.15-.64-2.7-.64zM279.14 66.5c-1.54 0-2.7.26-2.57.65.13.26 1.54.51 3.22.51h4.24c1.54 0 2.96-.25 3.22-.64.13-.39-1.03-.64-2.58-.64zM307.7 66.63c-1.54 0-2.7.26-2.44.65a7.21 7.21 0 003.21.51h5.28c1.54 0 2.95-.26 3.21-.64s-.9-.64-2.44-.64zM339.09 66.5c-1.55 0-2.7.4-2.58.65s1.55.51 3.1.51h2.44c1.54 0 2.95-.25 3.08-.64s-1.03-.64-2.57-.64zM401.6 66.5c-1.54 0-2.7.4-2.57.65s1.55.51 3.09.51h2.44c1.55 0 2.96-.25 3.1-.64s-1.04-.64-2.58-.64zM445.98 66.5c-1.54 0-2.7.4-2.57.65s1.55.51 3.09.51h1.54c1.55 0 2.96-.25 3.09-.64s-1.03-.64-2.57-.64zM468.11 66.63c-1.54 0-2.57.26-2.32.65a7.95 7.95 0 003.35.51h9.9c1.55 0 3.1-.26 3.35-.64s-.77-.64-2.32-.64zM495.51 66.5c-1.54 0-2.7.4-2.7.65.13.26 1.54.51 3.09.51h.64c1.54 0 2.96-.25 3.09-.64s-1.03-.64-2.7-.64zM505.29 66.5c-1.55 0-2.7.26-2.58.65.13.26 1.68.51 3.22.51h4.37c1.55 0 2.96-.25 3.22-.64.13-.39-.9-.64-2.57-.64zM527.15 66.5c-1.54 0-2.7.4-2.57.65s1.55.51 3.09.51h2.83c1.54 0 2.96-.25 3.09-.64s-1.03-.64-2.58-.64zM540.15 66.5c-1.55 0-2.7.4-2.58.65s1.55.51 3.1.51h1.28c1.54 0 2.96-.25 3.09-.64s-1.03-.64-2.58-.64zM558.41 66.63c-1.54 0-2.57.26-2.18.65a9.23 9.23 0 003.47.51h13.5c1.55 0 3.1-.26 3.48-.64s-.64-.64-2.19-.64zM589.54 66.63c-1.54 0-2.57.26-2.18.65a9.23 9.23 0 003.47.51h13.5c1.55 0 3.1-.26 3.48-.64s-.64-.64-2.19-.64zM668.27 66.63c-1.54 0-2.57.26-2.19.65a9.23 9.23 0 003.48.51h13.5c1.55 0 3.1-.26 3.48-.64s-.65-.64-2.19-.64zM639.45 14.15c-1.54 0-2.7.26-2.57.64.13.26 1.67.52 3.22.52h5.14c1.55 0 2.96-.26 3.22-.65.13-.38-.9-.64-2.57-.64zM614.89 14.15c-1.55 0-2.7.26-2.45.64a7.21 7.21 0 003.22.52h6.69c1.54 0 3.08-.26 3.21-.65.26-.38-.9-.64-2.44-.64zM602.4 14.15c-1.54 0-2.7.39-2.57.64s1.55.52 3.1.52h2.95c1.54 0 2.96-.26 3.09-.65s-1.03-.64-2.57-.64zM606.52 39.62c-1.54 0-2.7.26-2.44.64a7.21 7.21 0 003.22.52h5.4c1.54 0 2.96-.26 3.21-.65s-.9-.64-2.44-.64zM530.63 12.48c-1.55 0-2.7.38-2.57.64s1.54.52 3.08.52h2.96c1.54 0 2.96-.26 3.09-.65s-1.03-.64-2.57-.64zM548.25 12.48c-1.54 0-2.7.38-2.57.64s1.54.52 3.09.52h2.95c1.55 0 2.96-.26 3.1-.65s-1.04-.64-2.58-.64zM537.06 23.67c-1.29 0-2.32.39-2.32.64.13.26 1.03.52 2.32.52s2.19-.26 2.32-.65c0-.38-1.03-.64-2.32-.51zM543.23 19.94c-1.54 0-2.83.38-2.7.64s1.42.52 2.83.52 2.7-.26 2.83-.65-1.15-.64-2.7-.64zM464.77 20.71c-1.55 0-2.83.39-2.7.64s1.4.52 2.82.52 2.7-.26 2.83-.64-1.15-.65-2.7-.65zM484.45 38.98c-1.55 0-2.7.38-2.7.64.12.26 1.54.51 3.08.51h.77c1.55 0 2.96-.25 3.1-.64s-1.04-.64-2.7-.64zM470.55 45.67c-1.54 0-2.7.25-2.57.64.13.26 1.55.51 3.22.51h4.24c1.55 0 2.96-.25 3.22-.64.13-.39-1.03-.64-2.57-.64zM666.34 47.08c-1.54 0-2.7.26-2.57.64.13.26 1.54.52 3.21.52h4.25c1.54 0 2.96-.26 3.21-.64.13-.39-1.03-.65-2.57-.65zM340.63 52.23c-1.54 0-2.7.38-2.57.64s1.54.51 3.09.51h1.8c1.54 0 2.96-.25 3.08-.64s-1.03-.64-2.57-.64zM312.97 46.7c-1.54 0-2.7.38-2.57.64s1.54.51 3.09.51h1.8c1.54 0 2.96-.25 3.09-.64s-1.03-.64-2.58-.64zM273.61 46.18c-1.54 0-2.7.39-2.57.64s1.54.52 3.09.52h1.8c1.54 0 2.96-.26 3.08-.64s-1.03-.65-2.57-.65zM213.92 25.08c-1.54 0-2.7.26-2.57.65a6.25 6.25 0 003.22.64h4.5c1.54 0 2.96-.26 3.21-.64.13-.39-.9-.65-2.57-.65zM325.84 15.05c-1.55-.13-2.83 0-2.7.26.12.38 1.41.77 2.95 1.03l1.8.25c1.55.26 2.96.13 3.22-.25.13-.39-.9-.77-2.44-.9zM495.64 49.91c-1.55 0-2.7.39-2.57.64s1.54.52 3.08.52h1.8c1.55 0 2.96-.26 3.1-.64s-1.04-.65-2.58-.65zM545.42 45.15c-1.54 0-2.7.39-2.57.64s1.54.52 3.09.52h1.8c1.54 0 2.96-.26 3.08-.64s-1.03-.65-2.57-.65zM425.79 13.64c-1.55 0-2.57.25-2.06.64a10.08 10.08 0 003.6.51h17.75c1.55 0 3.22-.25 3.6-.64s-.5-.64-2.05-.64zM366.49 13.9c-1.55 0-2.45.25-2.06.64a10.08 10.08 0 003.6.51h18.52c1.55 0 3.22-.26 3.6-.64s-.5-.65-2.05-.65zM363.4 39.1c-1.54 0-2.7.26-2.44.65a7.5 7.5 0 003.34.51h7.46c1.55 0 3.09-.25 3.35-.64s-.9-.64-2.45-.64zM379.22 39.1c-1.54 0-2.7.26-2.44.65a7.21 7.21 0 003.21.51h6.7c1.54 0 3.08-.25 3.2-.64.27-.39-.9-.64-2.44-.64zM413.31 63.29c-1.54 0-2.83.39-2.7.64s1.41.52 3.09.52h.25c1.55 0 2.96-.26 3.1-.65s-1.04-.64-2.71-.64zM408.68 22.64c-1.54-.13-2.7 0-2.57.26.13.38 1.41.77 3.08 1.03l3.22.38c1.54.26 2.96.13 3.22-.25s-.9-.78-2.45-1.03zM557.38 50.04c-1.54-.13-2.7 0-2.57.26.13.38 1.42.77 3.09 1.03l3.21.38c1.55.26 2.96.13 3.22-.26s-.9-.77-2.44-1.02zM552.11 23.67c-1.16 0-2.19.39-2.06.64a3.05 3.05 0 002.06.52c1.03 0 2.06-.26 2.06-.65.13-.38-.9-.64-2.06-.51zM622.22 39.62c-1.55 0-2.7.26-2.45.64a7.21 7.21 0 003.22.52h6.69c1.54 0 3.09-.26 3.21-.65.26-.38-.9-.64-2.44-.64zM679.33 14.15c-1.54 0-2.7.39-2.57.64s1.54.52 3.09.52h3.21c1.55 0 2.96-.26 3.09-.65s-1.03-.64-2.57-.64zM423.34 66.63c-1.54 0-2.57.26-2.31.65a7.95 7.95 0 003.34.51h11.32c1.55 0 3.1-.26 3.35-.64s-.77-.64-2.32-.64zM350.66 66.63c-1.54 0-2.57.26-2.18.65a10.08 10.08 0 003.6.51h16.72c1.55 0 3.22-.26 3.6-.64s-.51-.64-2.18-.64zM377.68 66.63c-1.55 0-2.7.26-2.45.65a7.21 7.21 0 003.22.51h6.56c1.54 0 3.09-.26 3.22-.64.25-.39-.9-.64-2.45-.64zM249.3 66.76c-1.55 0-2.7.39-2.57.65s1.54.51 3.08.51h2.83c1.55 0 2.96-.26 3.1-.64s-1.04-.65-2.58-.65zM506.83 26.37c-1.54 0-2.83.26-2.7.52s1.41.51 3.09.51h.12c1.55 0 2.96-.26 3.1-.51s-1.17-.52-2.7-.52zM482.65 13.64c-1.55 0-2.7.38-2.58.64s1.55.51 3.1.51h1.8c1.54 0 2.95-.25 3.08-.64s-1.03-.64-2.57-.64z" fill="#d8d4ce"/>
  <path d="M417.17 78.98c.51-.25 1.29.39 1.67 1.42l.65 1.8c.38 1.03.12 1.16-.65.38l-1.41-1.67c-.77-.77-.77-1.67-.26-1.93z" fill="#2d000e"/>
  <path d="M825.08 104.58h-27.53l-7.85-20.32h-31.38l-2.45-6.95H641.38l-5.4 17.37h-13.12l-3.6-17.37h-31.9l-2.19 9.52h-6.69l-1.54-9.52h-60.08l-1.28 9.52h-7.72l-.9-9.52h-199l-3.48 29.97h-3.98l-2.32-13.25h-8.36l-3.22-17.36h-61.49l-8.87 43.73-13.12-43.73H171.6l-2.44 9.52h-13.77l-3.6-9.52H84.26l-2.7 7.59h-31.4l-7.84 20.32H14.8L0 140.34l26.11 41.94h5.66l13.64 22.12h25.98l3.73 6.56h69.08l2.7-10.16h26.25l4.11 10.16h61.75l1.8-10.16h6.56l2.83 10.16h32.67l6.56-49.9h3.22l2.57 13.5h2.96l6.95 37.05h204.14l1.55-10.94h7.84l1.03 10.94h61.5l2.95-10.94h6.3l1.8 10.94h32.42l12.22-36.28h2.96l7.72 36.28H765l4.25-7.33h25.34l13.64-22.13h5.66L840 140.21z" fill="#0b0000"/>
  <g style="isolation:isolate">
    <path fill="url(#b)" d="M777.48 97.38l-19.94 39.36H743.4l19.17-39.36h14.92z"/>
    <path fill="url(#m)" d="M813.12 118.09l-22.39 39.1H764.5l20.71-39.1h27.91z"/>
    <path fill="url(#n)" d="M835.5 139.7l-24.06 38.6h-26.88l22.5-38.6h28.44z"/>
    <path fill="url(#o)" d="M815.69 162.34l-23.41 38.08h-28.3l21.6-38.08h30.1z"/>
  </g>
  <g style="isolation:isolate">
    <path fill="url(#p)" d="M759.86 99.95l-18.91 39.36H689.1l15.95-39.36h54.8z"/>
    <path fill="url(#q)" d="M744.42 134.04l-18.78 38.72h-53.38l15.43-38.72h56.73z"/>
    <path fill="url(#r)" d="M784.43 169.8l-21.74 37.95h-82.07l16.6-37.95h87.2z"/>
  </g>
  <g style="isolation:isolate">
    <path fill="url(#s)" d="M639.71 124.14l-12.48 39.1H613.6l11.58-39.1h14.53z"/>
    <path fill="url(#t)" d="M658.88 132.88l-13.5 38.85h-13.9l12.86-38.85h14.54z"/>
    <path fill="url(#u)" d="M693.35 169.8l-16.2 37.95h-26.76l14.53-37.95h28.43z"/>
    <path fill="url(#v)" d="M634.57 169.8l-12.74 37.95h-26.75l11.06-37.95h28.43z"/>
  </g>
  <g style="isolation:isolate">
    <path fill="url(#w)" d="M563.56 99.95l-7.98 39.36h-26.75l6.43-39.36h28.3z"/>
    <path fill="url(#x)" d="M600.35 158.6l-10.55 38.22h-13.25l9.78-38.21h14.02z"/>
    <path fill="url(#y)" d="M528.18 158.6l-6.43 38.22H508.5l5.66-38.21h14.02z"/>
    <path fill="url(#z)" d="M588.13 169.8l-10.03 37.95h-55.32l6.56-37.95h58.79z"/>
  </g>
  <g style="isolation:isolate">
    <path fill="url(#A)" d="M505.16 99.95l-4.76 39.36h-51.71l1.67-39.36h54.8z"/>
    <path fill="url(#B)" d="M508.12 133.27l-5.02 38.85h-53.51l1.8-38.85h56.73z"/>
    <path fill="url(#C)" d="M511.33 169.8l-5.4 37.95h-82.07l.26-37.95h87.21z"/>
  </g>
  <g style="isolation:isolate">
    <path fill="url(#D)" d="M76.92 97.38L93.9 134.8l-12.09 2.06-19.8-39.5h14.91z"/>
    <path fill="url(#E)" d="M54.28 118.22l17.24 32.93H45.15l-18.78-32.93h27.91z"/>
    <path fill="url(#F)" d="M32.42 139.83l22.5 38.59H28.05l-24.18-38.6h28.56z"/>
    <path fill="url(#G)" d="M53.9 162.34l21.61 38.2h-28.3l-23.41-38.2h30.1z"/>
  </g>
  <g style="isolation:isolate">
    <path fill="url(#H)" d="M139.19 99.18l15.69 39.5H124l-17.5-39.5h32.67z"/>
    <path fill="url(#I)" d="M150.12 158.6l15.95 38.22h-22.13l-17.23-38.21h23.4z"/>
    <path fill="url(#J)" d="M123.75 169.03l17.62 37.95H77.18l-21.6-37.95h68.17z"/>
  </g>
  <g style="isolation:isolate">
    <path fill="url(#K)" d="M240.16 158.6l10.68 38.22H237.6l-11.45-38.21h14.03z"/>
    <path fill="url(#L)" d="M167.1 158.6l14.92 38.22h-12.48l-15.56-38.21h13.12z"/>
    <path fill="url(#M)" d="M224.21 169.03l11.58 37.95h-56.08l-15.18-37.95h59.68z"/>
  </g>
  <g style="isolation:isolate">
    <path fill="url(#N)" d="M292.4 124.14l7.71 39.49h-13.63l-8.75-39.5h14.66z"/>
    <path fill="url(#O)" d="M304.74 137.64l6.3 36.92h-13.76l-7.2-36.92h14.66z"/>
    <path fill="url(#P)" d="M270.65 168.9l8.88 37.95h-26.76l-10.55-37.95h28.43z"/>
    <path fill="url(#Q)" d="M329.31 169.8l5.4 37.95h-26.75l-7.08-37.95h28.43z"/>
  </g>
  <g style="isolation:isolate">
    <path fill="url(#R)" d="M420.26 99.95v39.36h-51.84l-2.96-39.36h54.8z"/>
    <path fill="url(#S)" d="M392.86 133.27l1.54 38.85h-18.9l-2.84-38.85h20.2z"/>
    <path fill="url(#T)" d="M420.26 169.8v37.95h-82.07l-5.15-37.95h87.22z"/>
  </g>
  <path fill="url(#c)" d="M794.85 107.93h27.65l13 31.77h-28.56l8.75 22.64h-30.1l-4-11.06h15.83l-8.1-22.26h28.17l-4.38-10.93h-27.9l-7.73-20.84h-14.92l-3.47-9.65H787l7.85 20.33z"/>
  <path fill="url(#U)" d="M687.7 134.04L673.4 80.53h79.76l6.69 19.42h-54.8l3.99 13.38h55.57l19.8 56.47h-87.2l-5.92-22.25h57.5l-4.38-13.51H687.7z"/>
  <path fill="url(#V)" d="M651.16 111.27l-7.2-30.61h25.98l23.41 89.14h-28.43l-7.58-32.03h-14.67l-2.96-13.64h-14.53l9.39 45.67h-28.43l-15.95-89.15h25.98l3.6 17.37h14.15l2.96 13.25h14.28z"/>
  <path d="M573.72 80.53l1.55 9.52h13.12l11.96 68.43h-14.02l1.8 11.2h-58.79l-1.16-11.2h-14.02l-6.3-68.43h13.12l-1.03-9.52zm-3.09 67.02l-7.07-47.6h-28.3l5.66 47.6h29.71" fill="url(#W)"/>
  <path fill="url(#X)" d="M424.12 169.8l-.39-89.27h79.75l1.68 19.42h-54.8l.38 12.6h55.57l1.8 20.72H451.4l.51 14.28h57.5l1.93 22.25h-87.21z"/>
  <path d="M149.09 80.01l-2.7 9.52h21.87l-18.14 69.08H126.7l-2.96 10.42H55.57l31.26-89.02zm-23.93 67.54l14.02-48.37h-32.67l-15.7 48.37h34.35" fill="url(#Y)"/>
  <path fill="url(#Z)" d="M214.44 146.9l13.5-66.89h25.99l-13.77 78.6h-14.02l-1.93 10.42h-59.68l2.57-10.42h-13.12L174.3 80h25.99l-15.57 66.9h29.72z"/>
  <path fill="url(#aa)" d="M307.57 110.63l3.47-30.1h25.99l-7.72 89.27h-28.43l3.73-32.03h-14.53l2.31-13.64h-14.66l-7.08 44.9h-28.43L257.4 80h25.99l-2.45 17.24h14.15l-1.8 13.38h14.28z"/>
  <path fill="url(#ab)" d="M333.04 169.8l7.46-89.27h79.76v19.42h-54.8l-2.7 47.6h29.71l.39-14.28h-20.2l1.03-20.71h46.57v57.24h-87.22z"/>
  <path d="M302.94 168.64c-1.03 0-1.54.26-1.16.65a7.18 7.18 0 002.7.51h21.74a4.9 4.9 0 002.7-.64c.4-.39 0-.65-1.15-.65z" fill="#f8eb48"/>
  <path d="M607.81 168.64c-1.03 0-1.54.26-1.16.65a7.18 7.18 0 002.7.51h21.74a4.9 4.9 0 002.7-.64c.4-.39 0-.65-1.15-.65z" fill="#ffdc38"/>
  <path d="M666.98 168.64c-1.03 0-1.54.26-1.15.65a7.18 7.18 0 002.7.51h21.74a4.9 4.9 0 002.7-.64c.38-.39 0-.65-1.16-.65zM335.23 168.64c-1.03 0-1.03.26 0 .52l.64.13a18.6 18.6 0 003.73.51h64.96a18.6 18.6 0 003.73-.51l.78-.26c1.02-.26 1.02-.52-.13-.52z" fill="#f8eb48"/>
  <path d="M348.35 168.64c-1.03 0-1.03.26-.13.52l.52.13a18.6 18.6 0 003.73.51h61.23a12.63 12.63 0 003.73-.64l.51-.13c1.03-.39.9-.64-.13-.64zM426.05 168.64c-1.03 0-1.03.26 0 .52l.64.13a18.6 18.6 0 003.73.51h64.96a18.6 18.6 0 003.73-.51l.77-.26c1.03-.26 1.03-.52-.13-.52z" fill="#f8eb48"/>
  <path d="M439.17 168.64c-1.03 0-1.03.26-.13.52l.51.13a18.6 18.6 0 003.73.51h61.23a12.63 12.63 0 003.74-.64l.51-.13c1.03-.39.9-.64-.13-.64zM531.14 168.64c-1.03 0-1.16.26-.25.65a16.21 16.21 0 003.6.51h48.36a11.16 11.16 0 003.6-.64c.9-.39.78-.65-.25-.65z" fill="#f8eb48"/>
  <path fill="url(#ac)" d="M44.64 108.06l7.84-20.33H80.4l-3.48 9.65H62l-7.72 20.7h-27.9L22 129.16h28.17l-8.23 22.13h15.82l-3.86 11.06H23.8l8.62-22.51H3.86l13.12-31.78h27.66z"/>
  <g opacity=".41">
    <g style="isolation:isolate">
      <path fill="#828282" d="M164.53 169.03l2.57-10.42-2.57 10.42z"/>
      <path fill="#a7a7a7" d="M42.2 151.28H58 42.2zM362.76 147.55h29.71-29.71zM90.95 147.55h34.34-34.34zM184.72 146.9h29.72-29.72z"/>
      <path fill="#858585" d="M24.05 162.34l8.62-22.64-8.62 22.64z"/>
      <path fill="gray" d="M392.47 147.55l.39-14.28-.39 14.28z"/>
      <path fill="#a7a7a7" d="M22.13 129.15h28.3-28.3zM373.7 112.69h46.56-46.57z"/>
      <path fill="gray" d="M372.79 133.27l.9-20.58-.9 20.58z"/>
      <path fill="#a7a7a7" d="M293.3 110.63h14.27-14.28z"/>
      <path fill="#858585" d="M4.12 139.7l13.12-31.77L4.12 139.7z"/>
      <path fill="#a7a7a7" d="M17.24 107.93h27.65-27.65z"/>
      <path fill="#838383" d="M125.16 147.55L139.2 99.3l-14.03 48.24z"/>
      <path fill="#a7a7a7" d="M280.94 97.38h14.15-14.15zM146.39 89.53h21.87-21.87z"/>
      <path fill="gray" d="M333.04 169.8l7.46-89.15-7.46 89.15z"/>
      <path fill="#a7a7a7" d="M340.5 80.66h79.76-79.76zM311.04 80.66h25.99-25.99z"/>
      <path fill="gray" d="M307.57 110.63l3.47-29.97-3.47 29.97z"/>
      <path fill="#a7a7a7" d="M257.4 80.01h25.99-25.99z"/>
      <path fill="#818181" d="M242.22 169.03L257.4 80l-15.18 89.02z"/>
      <path fill="#a7a7a7" d="M174.3 80.01h25.99-25.99z"/>
      <path fill="#828282" d="M153.98 158.6l20.32-78.59-20.32 78.6z"/>
      <path fill="#a7a7a7" d="M227.94 80.01h25.99-25.99z"/>
      <path fill="#818181" d="M214.44 146.9l13.5-66.89-13.5 66.9z"/>
      <path fill="#a7a7a7" d="M86.83 80.01h62.39-62.39z"/>
      <path fill="#848484" d="M55.57 169.03L86.83 80l-31.26 89.02z"/>
      <path fill="url(#d)" d="M326.87 167.23l2.44 2.57h-28.43l2.83-2.57h23.16z"/>
      <path fill="url(#ad)" d="M417.69 167.23l2.57 2.57h-87.22l2.83-2.57h81.81z"/>
      <path fill="url(#ae)" d="M222.03 166.46l2.18 2.57h-59.68l3.21-2.57h54.29z"/>
      <path fill="url(#af)" d="M268.34 166.46l2.31 2.57h-28.43l2.96-2.57h23.16z"/>
      <path fill="url(#ag)" d="M121.82 166.46l1.93 2.57H55.57l3.6-2.57h62.65z"/>
      <path fill="url(#ah)" d="M170.31 156.04l-3.21 2.57h-13.12l3.21-2.57h13.13z"/>
      <path fill="#d05930" d="M223.96 156.04l2.18 2.57-1.93 10.42-2.18-2.57 1.93-10.42z"/>
      <path fill="#cc482f" d="M167.74 166.46l-3.21 2.57 2.57-10.42 3.22-2.57-2.58 10.42z"/>
      <path fill="url(#ai)" d="M238.1 156.04l2.06 2.57h-14.02l-2.18-2.57h14.15z"/>
      <path fill="#d05930" d="M124.78 156.04l1.93 2.57-2.96 10.42-1.93-2.57 2.96-10.42z"/>
      <path fill="url(#aj)" d="M148.19 156.04l1.93 2.57H126.7l-1.93-2.57h23.41z"/>
      <path fill="#f7eb87" d="M360.06 150.12l2.7-2.57h29.71l2.57 2.57h-34.99zM87.34 150.12l3.6-2.57h34.22l2.06 2.57H87.34zM181.5 149.48l3.22-2.58h29.72l2.06 2.58h-35z"/>
      <path fill="#691d14" d="M395.56 130.7l-2.7 2.57h-20.07l2.57-2.58h20.2z"/>
      <path fill="#fcefb3" d="M395.04 150.12l-2.57-2.57.39-14.28 2.7-2.58-.52 19.43z"/>
      <path fill="#cc482f" d="M303.45 167.61l-2.57 2.2 3.99-32.17 2.96-2.57-4.38 32.54z"/>
      <path fill="#691d14" d="M307.7 135.07l-2.83 2.57H290.2l2.96-2.57h14.54z"/>
      <path fill="#cc482f" d="M293.16 135.07l-2.83 2.57 2.06-13.5 3.09-2.58-2.32 13.5zM275.8 121.56l1.93 2.58-7.08 44.89-2.31-2.57 7.46-44.9z"/>
      <path fill="#691d14" d="M295.35 121.56l-2.83 2.58h-14.8l-1.92-2.58h19.55z"/>
      <path fill="#f7eb87" d="M376.13 115.26l-2.44-2.57h46.57l-2.57 2.57h-41.56z"/>
      <path fill="#fcefb3" d="M375.36 130.7l-2.57 2.57.9-20.58 2.44 2.57-.77 15.43z"/>
      <path fill="#d05930" d="M417.69 115.26l2.57-2.57v57.11l-2.57-2.57v-51.97z"/>
      <path fill="#f7eb87" d="M290.46 113.2l2.83-2.57h14.28l2.32 2.57h-19.43zM277.99 99.95l2.95-2.57h14.15l-2.95 2.57h-14.15z"/>
      <path fill="#d05930" d="M292.13 99.95l2.96-2.57-1.8 13.25-2.83 2.57 1.68-13.25zM363.01 97.38l2.45 2.57-2.7 47.6-2.7 2.57L363 97.38z"/>
      <path fill="#691d14" d="M417.69 97.38l2.57 2.57h-54.8L363 97.38h54.68z"/>
      <path fill="#cc482f" d="M104.58 96.73l1.93 2.58-15.56 48.24-3.6 2.57 17.23-53.39z"/>
      <path fill="#fcefb3" d="M127.22 150.12l-2.06-2.57L139.2 99.3l3.47-2.58-15.44 53.39z"/>
      <path fill="#691d14" d="M142.66 96.73l-3.47 2.58H106.5l-1.93-2.58h38.08z"/>
      <path fill="#d05930" d="M164.91 92.1l3.35-2.57-18.14 69.08-1.93-2.57 16.72-63.94z"/>
      <path fill="#f7eb87" d="M143.04 92.1l3.35-2.57h21.87l-3.35 2.57h-21.87z"/>
      <path fill="url(#ak)" d="M52.1 159.77l1.8 2.57H23.8l3.73-2.57H52.1z"/>
      <path fill="#f7eb87" d="M38.33 153.98l3.6-2.57H57.9l-3.73 2.57H38.33z"/>
      <path fill="#d05930" d="M54.16 153.98l3.73-2.57-4 10.93-1.8-2.57 2.07-5.8z"/>
      <path fill="#cc482f" d="M27.53 159.77l-3.73 2.57 8.62-22.51 3.73-2.57-8.62 22.5z"/>
      <path fill="url(#al)" d="M36.15 137.26l-3.73 2.57H3.86l3.86-2.57h28.43z"/>
      <path fill="#d05930" d="M46.44 131.72l3.73-2.57-8.23 22.26-3.6 2.57 8.1-22.26z"/>
      <path fill="#f7eb87" d="M18.14 131.72l3.86-2.57h28.17l-3.73 2.57h-28.3z"/>
      <path fill="#691d14" d="M52.48 115.64l1.8 2.58h-27.9l-1.81-2.58h27.91z"/>
      <path fill="#cc482f" d="M24.57 115.64l1.8 2.58L22 129.15l-3.86 2.57 6.43-16.08zM7.72 137.26l-3.86 2.57 13.12-31.78 1.8 2.58-11.06 26.63z"/>
      <path fill="#f7eb87" d="M18.78 110.63l-1.8-2.57h27.66l1.8 2.57H18.78z"/>
      <path fill="#691d14" d="M75.12 94.8l1.8 2.58H62l-1.8-2.57h14.92z"/>
      <path fill="#cc482f" d="M60.2 94.8l1.8 2.58-7.72 20.84-1.8-2.58 7.72-20.83zM46.44 110.63l-1.8-2.57 7.84-20.33 1.8 2.57-7.84 20.33z"/>
      <path fill="#d05930" d="M76.8 90.3l3.6-2.57-3.48 9.65-1.8-2.57 1.68-4.5z"/>
      <path fill="#f7eb87" d="M54.28 90.3l-1.8-2.57H80.4l-3.6 2.57H54.28zM342.95 83.23l-2.45-2.58h79.76l-2.57 2.58h-74.74z"/>
      <path fill="#d05930" d="M417.69 83.23l2.57-2.58v19.3l-2.57-2.57V83.23z"/>
      <path fill="#cc482f" d="M335.87 167.23l-2.83 2.57 7.46-89.15 2.45 2.58-7.08 84zM309.89 113.2l-2.32-2.57 3.47-29.97 2.32 2.57-3.47 29.97z"/>
      <path fill="#d05930" d="M334.2 83.23l2.83-2.58-7.72 89.15-2.44-2.57 7.33-84z"/>
      <path fill="#f7eb87" d="M313.36 83.23l-2.32-2.58h25.99l-2.83 2.58h-20.84z"/>
      <path fill="#d05930" d="M280.43 82.58l2.96-2.57-2.45 17.37-2.95 2.57 2.44-17.37z"/>
      <path fill="#f7eb87" d="M259.59 82.58l-2.19-2.57h25.99l-2.96 2.57h-20.84z"/>
      <path fill="#cc482f" d="M245.18 166.46l-2.96 2.57L257.4 80l2.19 2.57-14.4 83.88z"/>
      <path fill="#d05930" d="M197.07 82.58l3.22-2.57-15.57 66.9-3.21 2.57 15.56-66.9zM250.84 82.58l3.09-2.57-13.77 78.6-2.05-2.57 12.73-73.45z"/>
      <path fill="#f7eb87" d="M230.13 82.58l-2.19-2.57h25.99l-3.09 2.57h-20.7zM176.23 82.58l-1.93-2.57h25.99l-3.22 2.57h-20.84z"/>
      <path fill="#cc482f" d="M157.2 156.04l-3.22 2.57L174.3 80l1.93 2.57-19.04 73.46z"/>
      <path fill="#fcefb3" d="M216.5 149.48l-2.06-2.58 13.5-66.89 2.2 2.57-13.64 66.9z"/>
      <path fill="#cc482f" d="M59.17 166.46l-3.6 2.57L86.83 80l1.8 2.57-29.46 83.88z"/>
      <path fill="#f7eb87" d="M88.63 82.58l-1.8-2.57h62.39l-3.47 2.57H88.63z"/>
      <path fill="#d05930" d="M145.75 82.58l3.47-2.57-2.83 9.52-3.35 2.57 2.7-9.52z"/>
    </g>
    <g style="isolation:isolate">
      <path fill="#818181" d="M586.33 158.6l1.8 11.2-1.8-11.2z"/>
      <path fill="#a7a7a7" d="M781.6 151.28h15.82-15.82zM691.3 147.55h57.5-57.5z"/>
      <path fill="gray" d="M509.4 147.55l1.93 22.25-1.93-22.25z"/>
      <path fill="#a7a7a7" d="M451.9 147.55h57.5-57.5zM540.92 147.55h29.71-29.71z"/>
      <path fill="#858585" d="M807.07 139.7l8.62 22.64-8.62-22.64z"/>
      <path fill="gray" d="M451.39 133.27l.51 14.28-.51-14.28z"/>
      <path fill="#a7a7a7" d="M789.32 129.15h28.3-28.3zM709.05 113.33h55.57-55.57z"/>
      <path fill="#848484" d="M764.62 113.33l19.8 56.47-19.8-56.47z"/>
      <path fill="gray" d="M506.31 112.69l1.8 20.58-1.8-20.58z"/>
      <path fill="#a7a7a7" d="M450.74 112.69h55.57-55.57zM636.88 111.27h14.28-14.28z"/>
      <path fill="#858585" d="M822.5 107.93l13.13 31.77-13.13-31.77z"/>
      <path fill="#a7a7a7" d="M794.85 107.93h27.65-27.65z"/>
      <path fill="gray" d="M450.36 99.95l.38 12.74-.38-12.74z"/>
      <path fill="#838383" d="M705.06 99.95l3.99 13.38-3.99-13.38z"/>
      <path fill="gray" d="M535.26 99.95l5.66 47.6-5.66-47.6z"/>
      <path fill="#818181" d="M633.92 98.02l2.96 13.25-2.96-13.25z"/>
      <path fill="#a7a7a7" d="M619.77 98.02h14.15-14.15zM507.86 90.17h13.12-13.12z"/>
      <path fill="#818181" d="M588.39 90.17l11.96 68.44-11.96-68.44z"/>
      <path fill="#a7a7a7" d="M575.26 90.17h13.13-13.13z"/>
      <path fill="#858585" d="M787 87.6l7.85 20.33L787 87.6z"/>
      <path fill="#a7a7a7" d="M759.09 87.6H787 759.1zM423.73 80.66h79.75-79.75z"/>
      <path fill="gray" d="M503.49 80.66l1.67 19.3-1.68-19.3z"/>
      <path fill="#818181" d="M616.17 80.66l3.6 17.36-3.6-17.36z"/>
      <path fill="#a7a7a7" d="M643.96 80.66h25.98-25.98z"/>
      <path fill="#828282" d="M669.94 80.66l23.41 89.14-23.4-89.15z"/>
      <path fill="#a7a7a7" d="M590.19 80.66h25.98-25.98zM519.95 80.66h53.77-53.77z"/>
      <path fill="#818181" d="M573.72 80.66l1.54 9.52-1.54-9.53z"/>
      <path fill="#a7a7a7" d="M673.41 80.66h79.76-79.75z"/>
      <path fill="#848484" d="M753.17 80.66l6.69 19.3-6.69-19.3z"/>
      <path fill="url(#am)" d="M585.17 167.23l2.96 2.57h-58.79l2.32-2.57h53.51z"/>
      <path fill="url(#an)" d="M631.48 167.23l3.09 2.57h-28.43l2.19-2.57h23.15z"/>
      <path fill="url(#ao)" d="M690 167.23l3.35 2.57h-28.43l2.06-2.57h23.03z"/>
      <path fill="url(#ap)" d="M508.5 167.23l2.83 2.57h-87.21l2.57-2.57h81.81z"/>
      <path fill="url(#aq)" d="M780.83 167.23l3.6 2.57H697.2l1.93-2.57h81.69z"/>
      <path fill="url(#ar)" d="M811.96 159.77l3.73 2.57h-30.1l1.8-2.57h24.57z"/>
      <path fill="url(#as)" d="M530.5 156.04l-2.32 2.57h-14.02l2.32-2.57h14.02z"/>
      <path fill="#d05930" d="M583.37 156.04l2.96 2.57 1.8 11.2-2.96-2.58-1.8-11.2z"/>
      <path fill="url(#at)" d="M597.39 156.04l2.96 2.57h-14.02l-2.96-2.57h14.02z"/>
      <path fill="#cc482f" d="M531.66 167.23l-2.32 2.57-1.16-11.2 2.32-2.56 1.16 11.19zM787.39 159.77l-1.8 2.57-4-11.06 3.74 2.57 2.06 5.92z"/>
      <path fill="#f7eb87" d="M785.33 153.85l-3.73-2.57h15.82l3.73 2.57h-15.82z"/>
      <path fill="#cc482f" d="M699.14 167.23l-1.93 2.57-5.91-22.25 3.34 2.57 4.5 17.1z"/>
      <path fill="#f7eb87" d="M694.64 150.12l-3.34-2.57h57.5l3.6 2.57h-57.76zM449.33 150.12l2.57-2.57h57.5l-2.31 2.57h-57.76z"/>
      <path fill="#d05930" d="M507.09 150.12l2.31-2.57 1.93 22.25-2.83-2.57-1.41-17.11z"/>
      <path fill="#f7eb87" d="M538.6 150.12l2.32-2.57h29.71l2.96 2.57H538.6z"/>
      <path fill="url(#au)" d="M831.77 137.13l3.86 2.57h-28.56l-3.86-2.57h28.56z"/>
      <path fill="#d05930" d="M803.21 137.13l3.86 2.57 8.62 22.64-3.73-2.57-8.75-22.64z"/>
      <path fill="#f7eb87" d="M792.92 131.72l-3.6-2.57h28.17l3.86 2.57h-28.43z"/>
      <path fill="#cc482f" d="M801.15 153.85l-3.73-2.57-8.1-22.13 3.6 2.57 8.23 22.13z"/>
      <path fill="#691d14" d="M746.35 131.47l-1.93 2.57H687.7l1.93-2.57h56.73z"/>
      <path fill="#cc482f" d="M752.4 150.12l-3.6-2.57-4.38-13.51 1.93-2.57 6.05 18.65z"/>
      <path fill="#d05930" d="M448.81 130.7l2.58 2.57.51 14.28-2.57 2.57-.51-19.43z"/>
      <path fill="#691d14" d="M505.29 130.7l2.83 2.57h-56.73l-2.57-2.58h56.47zM659.52 135.2l-2.18 2.7-14.67-.13 2.19-2.57h14.66z"/>
      <path fill="#cc482f" d="M666.98 167.23l-2.06 2.57-7.58-31.9 2.18-2.7 7.46 32.03z"/>
      <path fill="#691d14" d="M641.77 121.56l-2.06 2.58h-14.53l-3.1-2.58h19.69z"/>
      <path fill="#cc482f" d="M644.86 135.2l-2.19 2.57-2.96-13.64 2.06-2.57 3.09 13.64zM622.09 121.56l3.09 2.58 9.39 45.66-3.1-2.57-9.38-45.67z"/>
      <path fill="#f7eb87" d="M707.12 115.9l1.93-2.57h55.57l-1.8 2.57h-55.7z"/>
      <path fill="#d05930" d="M762.82 115.9l1.8-2.57 19.8 56.47-3.6-2.57-18-51.33z"/>
      <path fill="#cc482f" d="M821.35 131.72l-3.86-2.57-4.38-11.06 1.8-2.57 6.44 16.2z"/>
      <path fill="#691d14" d="M814.92 115.52l-1.8 2.57H785.2l1.8-2.57h27.92z"/>
      <path fill="#d05930" d="M504 115.26l2.31-2.57 1.8 20.58-2.82-2.58-1.29-15.43z"/>
      <path fill="#f7eb87" d="M448.3 115.26l2.44-2.57h55.57l-2.31 2.57h-55.7zM634.82 113.84l2.06-2.57h14.28l3.22 2.57h-19.56z"/>
      <path fill="#d05930" d="M820.7 110.5l1.8-2.57 13.13 31.77-3.86-2.57-11.07-26.63z"/>
      <path fill="#f7eb87" d="M793.05 110.5l1.8-2.57h27.65l-1.8 2.57h-27.65z"/>
      <path fill="#d05930" d="M631.87 100.6l2.05-2.58 2.96 13.25-2.06 2.57-2.96-13.25z"/>
      <path fill="#f7eb87" d="M617.72 100.6l2.05-2.58h14.15l-2.05 2.57h-14.15z"/>
      <path fill="#691d14" d="M502.33 97.38l2.83 2.57h-54.8l-2.7-2.57h54.67z"/>
      <path fill="#d05930" d="M447.66 97.38l2.7 2.57.38 12.74-2.44 2.57-.64-17.88z"/>
      <path fill="#691d14" d="M756.26 97.38l3.6 2.57h-54.8l-3.47-2.57h54.67z"/>
      <path fill="#d05930" d="M701.59 97.38l3.47 2.57 3.99 13.38-1.93 2.57-5.53-18.52z"/>
      <path fill="#691d14" d="M565.75 97.38l-2.2 2.57h-28.3l-2.95-2.57h33.45z"/>
      <path fill="#cc482f" d="M532.3 97.38l2.96 2.57 5.66 47.6-2.32 2.57-6.3-52.74z"/>
      <path fill="#fcefb3" d="M573.6 150.12l-2.97-2.57-7.07-47.6 2.19-2.57 7.84 52.74z"/>
      <path fill="#691d14" d="M779.28 94.8l-1.8 2.58h-14.92l1.8-2.57h14.92z"/>
      <path fill="#cc482f" d="M787 115.52l-1.8 2.57-7.72-20.71 1.8-2.57 7.72 20.7zM516.48 156.04l-2.32 2.57-6.3-68.44 2.83 2.58 5.79 63.29z"/>
      <path fill="#f7eb87" d="M573.08 92.75l2.18-2.58h13.13l-2.2 2.58h-13.11zM510.69 92.75l-2.83-2.58h13.12l2.83 2.58h-13.12z"/>
      <path fill="#d05930" d="M586.2 92.75l2.19-2.58 11.96 68.44-2.96-2.57-11.2-63.3z"/>
      <path fill="#f7eb87" d="M762.69 90.17l-3.6-2.57H787l-1.8 2.58H762.7z"/>
      <path fill="#d05930" d="M785.2 90.17l1.8-2.57 7.85 20.33-1.8 2.57-7.85-20.33z"/>
      <path fill="#cc482f" d="M764.36 94.8l-1.8 2.58-3.47-9.78 3.6 2.58 1.67 4.63z"/>
      <path fill="#f7eb87" d="M647.17 83.23l-3.21-2.58h25.98l-2.06 2.58h-20.7z"/>
      <path fill="#cc482f" d="M654.38 113.84l-3.22-2.57-7.2-30.61 3.21 2.57 7.2 30.61z"/>
      <path fill="#d05930" d="M614.11 83.23l2.06-2.58 3.6 17.37-2.05 2.57-3.6-17.36z"/>
      <path fill="#f7eb87" d="M593.27 83.23l-3.08-2.58h25.98l-2.06 2.58h-20.84z"/>
      <path fill="#cc482f" d="M608.33 167.23l-2.2 2.57-15.94-89.15 3.08 2.58 15.06 84z"/>
      <path fill="#d05930" d="M667.88 83.23l2.06-2.58 23.41 89.15-3.34-2.57-22.13-84z"/>
      <path fill="#cc482f" d="M426.69 167.23l-2.57 2.57-.39-89.15 2.57 2.58.39 84z"/>
      <path fill="#f7eb87" d="M426.3 83.23l-2.57-2.58h79.75l-2.31 2.58H426.3z"/>
      <path fill="#d05930" d="M501.17 83.23l2.31-2.58 1.68 19.3-2.83-2.57-1.16-14.15zM571.53 83.23l2.2-2.58 1.53 9.52-2.18 2.58-1.55-9.52z"/>
      <path fill="#cc482f" d="M689.62 131.47l-1.93 2.57-14.28-53.38 3.35 2.57 12.86 48.24z"/>
      <path fill="#d05930" d="M751.24 83.23l1.93-2.58 6.69 19.3-3.6-2.57-5.02-14.15z"/>
      <path fill="#f7eb87" d="M522.78 83.23l-2.83-2.58h53.77l-2.19 2.58h-48.75z"/>
      <path fill="gray" d="M523.81 92.75l-2.83-2.58-1.03-9.52 2.83 2.58 1.03 9.52z"/>
      <path fill="#f7eb87" d="M676.76 83.23l-3.35-2.58h79.76l-1.93 2.58h-74.48z"/>
    </g>
  </g>
  <g opacity=".81">
    <path d="M78.98 125.3a2.47 2.47 0 00-2.44-3.48h-3.09a1.9 1.9 0 00-1.8 1.29c0 .38.64.38 2.45.12l.51-.12c2.32-.13 3.09 1.54 2.32 3.47l-3.48 9.26c-.64 1.93.39 3.47 2.32 3.47H86.7c2.06 0 3.6-.25 3.6-.64s-1.67-.64-3.6-.64h-8.75c-2.05 0-3.08-1.42-2.31-3.22.64-1.8 1.67-3.34 3.6-3.34h8.88c2.05 0 3.6-.26 3.6-.65s-1.67-.64-3.6-.64h-7.2a2.43 2.43 0 01-2.45-3.47z" fill="#691d14" opacity=".48" style="isolation:isolate"/>
  </g>
  <g opacity=".44">
    <path d="M74.48 120.92c-1.03 0-1.93.64-1.93 1.03 0 .26.9.26 2.06.26h1.67c1.03 0 2.06-.26 2.19-.65s-.65-.64-1.67-.64z" fill="#f7eb87"/>
  </g>
  <g opacity=".81">
    <path fill="#691d14" opacity=".48" style="isolation:isolate" d="M167.1 107.28l2.7-.51h21.48l2.58.39.38-1.55-2.57-.39h-21.48l-2.58.4-.51 1.66z"/>
  </g>
  <g opacity=".44">
    <path d="M174.82 104.32c-1.03 0-1.8.26-1.55.65s1.29.51 2.32.51h7.46a3.31 3.31 0 002.32-.64c.25-.39-.52-.64-1.55-.64z" fill="#f7eb87"/>
  </g>
  <g opacity=".81">
    <path d="M256.89 166.59l1.93-13a.86.86 0 00-.9-1.03l-9.4.13a12.67 12.67 0 00-2.18.26l-.51.13c-.65.13-1.16.51-1.16.9s.38.64 1.03.51l.51-.13a12.68 12.68 0 012.19-.25l7.72-.13a.85.85 0 01.9 1.03l-1.55 11.57" fill="#691d14" opacity=".48" style="isolation:isolate"/>
  </g>
  <path d="M256.25 172.25c-.52-.78-.9-.65-.65.38l.39 1.54a17.13 17.13 0 001.28 3.6l.65 1.3c.51.9.77.9.51-.14l-.77-3.21a7.64 7.64 0 00-1.42-3.47z" fill="#691d14"/>
  <g opacity=".44">
    <path d="M249.81 151.66c-1.03 0-1.8.26-1.67.65a3.5 3.5 0 002.19.51h3.6c1.03 0 2.06-.26 2.19-.64s-.65-.65-1.68-.65z" fill="#f7eb87"/>
  </g>
  <path d="M255.47 166.46l2.58 9a13.4 13.4 0 00.77 2.06l.9 1.67c.26.52.38.52.26-.13l-3.1-12.6" fill="#691d14" opacity=".48" style="isolation:isolate"/>
  <path d="M256.76 164.01c-.13-1.03-.39-1.03-.64 0l-.26.9a8.44 8.44 0 00.13 3.6l1.28 3.6c.39 1.03.52.9.39-.12l-.51-3.35a35.6 35.6 0 01-.39-3.86z" fill="#2d000e"/>
  <g opacity=".81">
    <path d="M293.8 107.03l-1.8.77a5.83 5.83 0 01-2.05.38h-33.7a6.53 6.53 0 01-2.2-.38l-.38-.13c-.51-.13-1.03-.64-.9-1.03s.65-.51 1.16-.39l.26.13a11.04 11.04 0 002.18.39h9.52a1.13 1.13 0 001.16-1.03l1.8-16.6a1.22 1.22 0 011.16-1.02h8.36a5.33 5.33 0 002.06-.39l.9-.39c.51-.25 1.03-.12.9.26 0 .39-.52.9-1.03 1.16l-.9.39a6.05 6.05 0 01-2.06.51h-6.56a1.13 1.13 0 00-1.16 1.03l-1.67 15.18c-.13.64.39 1.03 1.03 1.03h20.2a5.33 5.33 0 002.06-.39l1.8-.77" fill="#691d14" opacity=".48" style="isolation:isolate"/>
  </g>
  <g opacity=".44">
    <path d="M265.38 105.74c1.03 0 1.8.26 1.54.51a3.7 3.7 0 01-2.31.52h-6.56a3.31 3.31 0 01-2.32-.64c-.13-.39.52-.65 1.54-.65z" fill="#f7eb87"/>
  </g>
  <g opacity=".81">
    <path d="M104.32 156.42c.13-.64-.12-.64-.38-.13l-.77 1.16a9.75 9.75 0 00-.77 2.06l-1.16 6.05a2.86 2.86 0 00.38 2.05l3.73 5.92a15.59 15.59 0 001.29 1.8l1.67 1.93c.39.52.52.39.13-.13l-5.4-9.77a5.33 5.33 0 01-.39-2.06z" fill="#691d14" opacity=".48" style="isolation:isolate"/>
  </g>
  <path d="M102.91 162.98c-.26-1.03-.64-1.03-.9 0l-.51 2.06a3.7 3.7 0 00.9 3.22l1.41 1.41c.77.77 1.03.52.77-.51l-.38-1.16c-.39-1.03-.78-2.7-1.03-3.73z" fill="#2d000e"/>
  <path d="M107.54 177.13a12.58 12.58 0 00-1.03-1.41c-.64-.77-1.54-2.19-2.19-2.96l-.9-1.29c-.64-.9-.77-.77-.25.13l1.67 3.09a30.37 30.37 0 001.67 2.57 6.64 6.64 0 01.77.9" fill="#691d14"/>
  <path d="M94.93 166.46h4.25c1.03 0 2.06-.26 2.06-.65s-.65-.64-1.67-.64l-5.02.13M113.46 164.91l-7.72.13c-1.03 0-1.8.26-1.67.64a3.5 3.5 0 002.18.52h6.7" fill="#f7eb87" opacity=".74" style="isolation:isolate"/>
  <g opacity=".81">
    <path fill="#691d14" opacity=".48" style="isolation:isolate" d="M733.36 99.95l.39-2.44L730 83.23l-1.28-2.7-1.42.13 1.29 2.57 3.86 14.28-.51 2.44h1.41z"/>
  </g>
  <g opacity=".44">
    <path d="M735.42 96.6c-1.03 0-1.8.26-1.67.65s1.15.51 2.18.51h5.53c1.03 0 2.06-.25 2.2-.64s-.52-.64-1.68-.64z" fill="#f7eb87"/>
  </g>
  <g opacity=".81">
    <path fill="#691d14" opacity=".48" style="isolation:isolate" d="M511.07 125.3l.13 1.28 2.45-1.67h22l2.7.9-.13-1.55-2.7-.77h-22.13l-2.31 1.8z"/>
  </g>
  <g opacity=".44">
    <path d="M515.7 122.72c-1.02 0-1.8.26-1.54.64a4.35 4.35 0 002.32.52h7.33a3.31 3.31 0 002.32-.65c.25-.38-.52-.64-1.55-.64z" fill="#f7eb87"/>
  </g>
  <path d="M171.99 188.84c0 .39.38.64 1.03.64l56.47-.13c.64 0 1.16-.25 1.16-.64s-.39-.64-1.03-.64l-56.47.13c-.65 0-1.16.25-1.16.64z" fill="#1f0008" opacity=".48" style="isolation:isolate"/>
  <path d="M178.16 190.25c-1.03 0-1.03-.12 0-.25l10.3-.77a19.33 19.33 0 013.85 0l7.98.64c1.03.13 1.03.26 0 .26l-10.3.38h-3.85z" fill="#691d14"/>
  <path d="M423.73 190.51c0 .39.39.64 1.03.64l83.23-.12c.64 0 1.16-.26 1.16-.65s-.39-.64-1.03-.64l-83.23.13a1.04 1.04 0 00-1.16.64z" fill="#1f0008" opacity=".48" style="isolation:isolate"/>
  <path d="M470.04 192.31c-1.03 0-1.03-.13 0-.13l13.38-1.03a19.33 19.33 0 013.86 0l10.42.65c1.03 0 1.03.13 0 .26l-13.38.64c-1.03 0-2.83.13-3.86 0z" fill="#691d14"/>
  <path d="M141.76 173.02l-7.46 1.93c-1.03.13-1.8-1.29-2.32-1.8-.38-.52 0-.9 1.16-.9l8.62.77M241.7 188.2l2.2 7.07a2.44 2.44 0 01-.65 2.57c-.64.39-1.28-.12-1.28-1.15l-.39-8.62" fill="#0b0000"/>
  <g opacity=".81">
    <path fill="#691d14" opacity=".48" style="isolation:isolate" d="M127.74 106.77l-4.76-9.26 2.57-10.68-2.06 2.7-1.93 8.36 4.12 5.92 1.67 2.83"/>
  </g>
  <path d="M123.23 94.3c-.25-1.04-.64-1.04-.9 0l-.38 2.05a3.7 3.7 0 00.9 3.22l1.41 1.41c.78.77 1.03.51.78-.51l-.4-1.16c-.38-1.03-.76-2.7-1.02-3.73z" fill="#030303"/>
  <path d="M126.32 106.38a9.29 9.29 0 01-.51-.9 28.57 28.57 0 00-1.68-2.44l-1.02-1.42c-.65-.9-.78-.77-.26.13l1.03 2.19a8.77 8.77 0 001.41 2.06 6.67 6.67 0 00.65.38" fill="#691d14"/>
  <g opacity=".81">
    <path d="M400.83 183.18c.26-1.03.65-12.6.9-13.38.52-1.54 1.03-2.57 1.29-2.57h.13l.38-14.02h16.86v-1.42h-18.27l-1.16 15.31c-1.16.51-1.41 1.67-1.54 2.83-.13.9.51 11.96.38 12.6" fill="#691d14" opacity=".48" style="isolation:isolate"/>
  </g>
  <g opacity=".44">
    <path d="M406.1 151.02c-1.02 0-1.8.26-1.54.64s1.29.52 2.32.52h7.33a3.31 3.31 0 002.32-.65c.25-.38-.52-.64-1.55-.64z" fill="#f7eb87"/>
  </g>
  <path d="M399.03 173.27c-.38-.9-.64-.77-.64.26v1.54a12.44 12.44 0 00.51 3.74l.39 1.41c.26 1.03.51 1.03.51-.13v-3.21a16.29 16.29 0 00-.77-3.6z" fill="#691d14"/>
  <path d="M401.48 168.26c.25-1.03-.13-1.16-.78-.39l-.64.77a3.88 3.88 0 00-.51 3.35l.25.77c.39 1.03.78 1.03.9-.13v-.26a37.72 37.72 0 01.65-3.73z" fill="#2d000e"/>
  <path d="M400.19 168.77c-.39 1.03-.13 1.16.64.39l.52-.52a4.46 4.46 0 001.16-3.34v-.39c-.13-1.03-.52-1.03-.78-.13v.13c-.38 1.03-.9 2.58-1.28 3.6z" fill="#2d000e"/>
  <path d="M320.95 188.45l9.78-1.28a3.62 3.62 0 012.95 1.15c.52.78.13 1.42-.9 1.3l-11.83-1.17M657.46 186.4a1.84 1.84 0 012.32-1.3l7.2 2.2c1.03.25 1.03.64 0 .9l-8.62 1.54c-1.02.13-1.67-.52-1.41-1.54z" fill="#0b0000"/>
  <path d="M656.56 186.4a3.42 3.42 0 001.03-3.1l-2.7-10.54c-.26-1.03-.51-1.03-.64 0l-.77 14.15c0 1.03.51 1.42 1.41.77z" fill="url(#av)"/>
  <path d="M599.58 187.04a3.8 3.8 0 012.96-1.03l10.03 1.54q1.54.2 0 .39l-12.1.38c-1.02 0-1.4-.51-.9-1.28z" fill="#0b0000"/>
  <path d="M600.35 187.42a2.99 2.99 0 00.51-2.7l-1.28-4.37c-.26-1.03-.52-1.03-.52.13l.13 5.79q.2 1.73 1.16 1.15z" fill="url(#aw)"/>
  <path d="M604.2 189.61c-1.02.13-1.02-.13-.12-.38l1.67-.52a12.28 12.28 0 013.73-.39l4.25.4c1.03.12 1.03.25 0 .25l-4.25.26c-1.03 0-2.83.12-3.86.25z" fill="#691d14"/>
  <g opacity=".81">
    <path d="M336.77 125.04l-.13 1.8a6.28 6.28 0 012.96-1.29c5.53-.26 18.65-.51 24.44 1.16l.13-1.42c-5.92-1.8-18.78-1.41-24.57-1.03a4.8 4.8 0 00-2.83.78z" fill="#691d14" opacity=".48" style="isolation:isolate"/>
  </g>
  <g opacity=".44">
    <path d="M341.66 122.72c-1.03 0-1.8.39-1.67.64a3.5 3.5 0 002.18.52l5.02-.13c1.03 0 2.06-.39 2.19-.77s-.64-.65-1.67-.65z" fill="#f7eb87"/>
  </g>
  <g opacity=".81">
    <path d="M474.16 80.66c.12.25 1.54 2.44 1.67 2.7 2.44 7.59.9 12.6.26 14.02l-1.3 2.57 1.3.13a26.43 26.43 0 001.54-2.57c.77-1.93 2.19-6.7-.26-14.15 0-.13-1.54-2.45-1.54-2.7z" fill="#691d14" opacity=".48" style="isolation:isolate"/>
  </g>
  <path d="M476.47 98.28c-.51-.26-.51-1.29-.13-2.19l1.03-2.06c.39-.9.77-.9.65.13l-.26 2.7c-.26 1.03-.77 1.68-1.29 1.42z" fill="#030303"/>
  <path d="M476.47 97.9a5.47 5.47 0 00-2.19 2.3l-.77 1.94c-.38 1.03-.25 1.03.39.26l2.7-3.6c.77-.78.64-1.3-.13-.9z" fill="#2d000e"/>
  <g opacity=".44">
    <path d="M464.9 96.6c-1.03 0-1.8.26-1.55.65a4.35 4.35 0 002.32.51H473a3.31 3.31 0 002.31-.64c.26-.38-.51-.64-1.54-.64z" fill="#f7eb87"/>
  </g>
  <g opacity=".81">
    <path fill="#691d14" opacity=".48" style="isolation:isolate" d="M465.92 147.55h-1.54l-1.67 2.57.25 17.1 1.42 2.58h1.42l-1.42-2.57v-17.11l1.54-2.57z"/>
  </g>
  <path d="M465.28 169.93c.51-.26.39-.9-.26-1.54l-.51-.52c-.77-.64-1.16-.38-.77.52v.25c.25 1.03 1.03 1.55 1.54 1.29zM762.43 192.57l6.7 1.03a3.12 3.12 0 002.82-1.42l.13-.38c.51-.9 0-1.55-1.03-1.29l-8.62 2.06" fill="#2d000e"/>
  <g opacity=".81">
    <path fill="#691d14" opacity=".48" style="isolation:isolate" d="M464.38 169.8l3.34 5.66 3.6 2.57-5.52-8.23"/>
  </g>
  <path d="M467.85 171.6c-.51-.9-.77-.77-.51.26l.13.38a7.01 7.01 0 001.93 3.1l1.67 1.4c.77.65.9.65.26-.25l-1.16-1.42c-.64-.9-1.55-2.31-2.19-3.21z" fill="#691d14"/>
  <g opacity=".81">
    <path d="M572.43 158.1a5.47 5.47 0 00-.25 1.41l.64 7.07a5.28 5.28 0 01-.13 1.42l-3.86 18.65c-.13.39 0 .39.13 0l2.7-7.2a5.8 5.8 0 00.39-1.42l2.31-10.16a5.28 5.28 0 00.13-1.41l-1.15-9.27c0-.38-.26-.38-.4-.12z" fill="#691d14" opacity=".48" style="isolation:isolate"/>
  </g>
  <path d="M573.2 162.85c.14-1.02.52-1.02.65 0l.51 2.7a8.6 8.6 0 01.13 3.1 28.64 28.64 0 01-1.03 3.08l-1.03 2.83c-.38 1.03-.51.9-.38-.13l.38-2.57c.13-1.03.26-2.45.26-3.09s.13-2.06.26-3.09z" fill="#1f0008" opacity=".48" style="isolation:isolate"/>
  <path d="M574.75 174.05c-.13-.9-.77-.9-1.16 0l-.38.77a8.63 8.63 0 00-.78 3.6v1.67c0 1.03.39 1.16.78.13l1.15-2.83a5.77 5.77 0 00.39-3.34z" fill="#691d14"/>
  <g opacity=".44">
    <path d="M583.5 165.81l-6.18.13c-1.03 0-1.8.26-1.67.65a3.5 3.5 0 002.19.51h5.27" fill="#f7eb87"/>
  </g>
  <g opacity=".44">
    <path d="M553.78 167.23h15.05a3.71 3.71 0 002.45-.65c.25-.38-.26-.64-1.42-.64l-17.24.26" fill="#f7eb87"/>
  </g>
  <g opacity=".81">
    <path d="M658.88 142.4v1.42l15.56-.65 5.15 23.93a24.34 24.34 0 00-.64 2.96l-.26 1.93-.39 3.99 3.35-9-5.79-25.22z" fill="#691d14" opacity=".48" style="isolation:isolate"/>
  </g>
  <path d="M679.98 164.14c-.13-1.03.12-1.16.51-.13l.13.52c.26 1.03.64 1.93.64 2.18a10.5 10.5 0 01-.64 2.19l-1.03 2.57c-.39 1.03-.52.9-.39-.13l.39-2.31c.13-1.03.39-2.06.39-2.19v-2.7z" fill="#1f0008" opacity=".48" style="isolation:isolate"/>
  <g opacity=".44">
    <path d="M665.83 141.37c-1.03 0-1.8.26-1.68.65s1.16.51 2.19.51h3.6c1.03 0 2.06-.26 2.19-.64s-.64-.65-1.67-.65z" fill="#f7eb87"/>
  </g>
  <g opacity=".44">
    <path d="M580.8 101.5c-1.03 0-1.8.25-1.68.64s1.16.51 2.2.51h3.6c1.02 0 2.05-.25 2.18-.64s-.64-.64-1.67-.64z" fill="#f7eb87"/>
  </g>
  <path d="M30.62 173.53l10.54.39c1.03 0 1.03.25 0 .51l-8.74 1.93" fill="#1f0008"/>
  <path d="M34.86 176.49c-1.03.13-1.03-.13-.13-.39l1.67-.51a18.89 18.89 0 013.73-.64h.9c1.03 0 1.03.13.13.38l-1.03.26c-1.03.26-2.7.64-3.73.77z" fill="#691d14"/>
  <g opacity=".81">
    <path d="M801.02 162.08a3.22 3.22 0 01-1.28-1.41c-.13-.52-.39-1.67-.65-2.7l-.13-.65c-.25-1.03 0-1.15.4-.13l.38.9c.51.9 1.15 2.45 1.54 3.22.39.64.26 1.03-.26.77z" fill="#691d14" opacity=".48" style="isolation:isolate"/>
  </g>
  <g opacity=".81">
    <path d="M69.46 87.73a3.57 3.57 0 00-1.54 1.54 7.52 7.52 0 00-.51 2.45c0 .77.25.77.38 0a10.27 10.27 0 011.54-2.83c.65-.9.65-1.42.13-1.16z" fill="#691d14" opacity=".48" style="isolation:isolate"/>
  </g>
  <g opacity=".81">
    <path fill="#691d14" opacity=".48" style="isolation:isolate" d="M746.22 139.83l.26 1.41 2.57-.9h22.39l2.95.65-.64-1.55-2.96-.51h-22.12l-2.45.9z"/>
  </g>
  <path d="M744.8 140.6a1.15 1.15 0 011.3-1.67l3.08.25c1.03.13 1.16.65.26 1.16l-2.19 1.29a1.8 1.8 0 01-2.44-1.03z" fill="#0b0000"/>
  <g opacity=".44">
    <path d="M755.23 138.03c-1.03 0-1.8.25-1.55.64s1.16.52 2.2.52h6.04c1.03 0 2.06-.26 2.18-.65s-.51-.64-1.54-.64z" fill="#f7eb87"/>
  </g>
  <g opacity=".81">
    <path fill="#691d14" opacity=".48" style="isolation:isolate" d="M603.3 154.62l2.7-1.41 22.52.13 2.83.64-.38-1.8-2.45-.52h-22.9l-2.57 1.03.26 1.93z"/>
  </g>
  <g opacity=".44">
    <path d="M611.03 150.76c-1.03 0-1.8.26-1.55.65s1.29.51 2.32.51h7.46a3.31 3.31 0 002.31-.64c.26-.39-.51-.65-1.54-.65z" fill="#f7eb87"/>
  </g>
  <path d="M716.77 166.71c0-.77-.78-.25-1.68 1.03l-.51.77c-.9 1.3-.77 1.68.26.9a4.47 4.47 0 001.93-2.7z" fill="#1f0008" opacity=".48" style="isolation:isolate"/>
  <g opacity=".44">
    <path d="M718.57 156.42c-1.03 0-1.8.26-1.68.65a3.5 3.5 0 002.2.51h3.6c1.02 0 2.05-.26 2.18-.64s-.64-.65-1.67-.65z" fill="#f7eb87"/>
  </g>
  <path d="M785.07 191.67l-.51 7.07a2.2 2.2 0 01-2.06 1.93h-1.93c-1.03 0-1.42-.77-.9-1.54l5.02-7.33" fill="#0b0000"/>
  <g opacity=".81">
    <path fill="#691d14" opacity=".48" style="isolation:isolate" d="M244.67 133.65l-2.57-.64-11.07-.13 3.47 1.42 7.2.38 2.58.9.39-1.93z"/>
  </g>
  <path d="M763.46 193.98c-1.03-.38-.9-.64.13-.51h.9a12.87 12.87 0 013.73.77c1.03.39.9.65-.13.65h-.26a18.9 18.9 0 01-3.73-.65z" fill="#691d14"/>
  <g fill="#2d000e">
    <path d="M96.1 131.08l-.65-.38a6.93 6.93 0 00-3.6-.65l-1.16.13c-.9.13-.9 1.16 0 1.16l.64.13a20.17 20.17 0 013.73 1.03l.26.12c.13 0 .26 0 .26.13l.51-1.67zM91.33 138.16l-2.57.12c-1.03.26-1.03.52.13.65l3.34 1.16a2 2 0 001.29-.13l.39-1.16a3.04 3.04 0 00-2.58-.64z"/>
  </g>
  <path d="M254.83 106.64l-.51-.26a2.54 2.54 0 00-1.3-.25l-.25 1.28a2 2 0 001.55.26h.38c.9-.13 1.03-.52.13-1.03zM282.36 86.96l-1.16.51c-.9.52-.9.77.13.52l.9-.13.13-.9zM293.42 106l-1.16.51c-.9.52-.9.77.13.52l1.29-.13.13-1.16c0 .13-.26.26-.39.26zM360.96 125.04c-1.03 0-1.16.25-.13.64l3.21 1.28.13-1.67zM463.6 148.83l-.12.26c-.39 1.03 0 1.29.9.64l.64-.51c.65-.64.9-1.29.52-1.54h-1.03c-.39.12-.64.64-.9 1.15zM512.36 124.52l-1.29.77.13 1.55 1.55-1.8c.77-.78.51-1.03-.39-.52zM537.83 124.26l-2.19-.25c-.64-.13-.64.12-.12.38l2.44 1.16c.26.13.26.13.39 0l-.13-1.16a.47.47 0 00-.39-.13z" fill="#2d000e"/>
  <g opacity=".81">
    <path d="M588.9 102.78a5.83 5.83 0 00-2.06-.38h-9c-.65 0-1.16.25-1.16.64s.51.64 1.16.64h9.13a5.4 5.4 0 012.06.52l2.19 1.28-.39-1.93z" fill="#691d14" opacity=".48" style="isolation:isolate"/>
  </g>
  <g>
    <g opacity=".81">
      <path d="M726.16 149.09c0 .9-.39.9-.9 0l-.39-.51a2.57 2.57 0 01-.39-1.03h-.12a1.4 1.4 0 00.12.64l.39.64a9.64 9.64 0 01.64 2.06l.78 5.02a.86.86 0 01-.9 1.03h-10.94a.85.85 0 00-.9 1.03l1.8 7.59a2.17 2.17 0 01-.51 1.8l-1.42 1.41c-.38.39-.26.77.26.77a2.46 2.46 0 001.8-.9l1.03-1.15a2.1 2.1 0 00.38-1.93l-1.67-6.56a.78.78 0 01.77-1.03l10.94.13a.85.85 0 00.9-1.03l-1.03-6.44a9.64 9.64 0 00-.64-2.05l-.39-.65a2.8 2.8 0 00-.51-.64 2.43 2.43 0 01.9 1.8z" fill="#691d14" opacity=".48" style="isolation:isolate"/>
    </g>
    <path d="M725 148.58l.38.51c.52.9.9.77.9 0a2.13 2.13 0 00-.64-1.54h-.9a1.13 1.13 0 00.26 1.03z" fill="#691d14" opacity=".48" style="isolation:isolate"/>
    <path d="M725 148.58l.38.51c.52.9.9.77.9 0a2.13 2.13 0 00-.64-1.54h-.9a1.13 1.13 0 00.26 1.03z" fill="#1f0008" opacity=".48" style="isolation:isolate"/>
  </g>
  <path d="M733.62 97.5l-.9-2.82c-.65-1.03-.52-.9-.52.13l.26 2.44-.26 1.29c-.25.77-.13 1.28.26 1.54h.64a3.37 3.37 0 00.52-2.57z" fill="#030303"/>
  <path d="M667.63 142.4h-8.37a1.63 1.63 0 00-.77.13l.52 1.8h1.03l7.72-1.54c.9-.26.9-.39-.13-.39z" fill="#0b0000"/>
</svg>
