<svg id="Dungeons_logo" data-name="Dungeons logo" xmlns="http://www.w3.org/2000/svg"
     xmlns:xlink="http://www.w3.org/1999/xlink" viewBox="0 0 3082 1046">
    <defs>
        <style>
            .MCD-1{fill:url(#linear-gradient);}.MCD-2{fill:url(#linear-gradient-2);}.MCD-3{fill:url(#linear-gradient-3);}.MCD-4{fill:url(#linear-gradient-4);}.MCD-5{fill:url(#linear-gradient-5);}.MCD-6{fill:url(#linear-gradient-6);}.MCD-7{fill:url(#linear-gradient-7);}.MCD-8{fill:url(#linear-gradient-8);}.MCD-9{fill:url(#linear-gradient-9);}.MCD-10{fill:url(#linear-gradient-10);}.MCD-11{fill:url(#linear-gradient-11);}.MCD-12{fill:url(#linear-gradient-12);}.MCD-13{fill:url(#linear-gradient-13);}.MCD-14{fill:#d0c5c0;}.MCD-15{fill:#190d19;}.MCD-16{fill:#9b2a5e;}.MCD-16,.MCD-42{opacity:0.5;}.MCD-17,.MCD-18,.MCD-19,.MCD-20,.MCD-21,.MCD-22,.MCD-23,.MCD-24,.MCD-25,.MCD-26,.MCD-27{opacity:0.75;}.MCD-17{fill:url(#Mulberry_6-4);}.MCD-18{fill:url(#Mulberry_6-4-2);}.MCD-19{fill:url(#Mulberry_6-4-3);}.MCD-20{fill:url(#Mulberry_6-4-4);}.MCD-21{fill:url(#Mulberry_6-4-5);}.MCD-22{fill:url(#Mulberry_6-4-6);}.MCD-23{fill:url(#Mulberry_6-4-7);}.MCD-24{fill:url(#Mulberry_6-4-8);}.MCD-25{fill:url(#Mulberry_6-4-9);}.MCD-26{fill:url(#Mulberry_6-4-10);}.MCD-27{fill:url(#Mulberry_6-4-11);}.MCD-28{fill:url(#Mulberry_6-4-12);}.MCD-29{fill:url(#Mulberry_6-4-13);}.MCD-30{fill:url(#Mulberry_6-3);}.MCD-31{fill:url(#Mulberry_6-3-2);}.MCD-32{fill:url(#Mulberry_6-3-3);}.MCD-33{fill:url(#Mulberry_6-3-4);}.MCD-34{fill:url(#Mulberry_6-3-5);}.MCD-35{fill:url(#Mulberry_6-3-6);}.MCD-36{fill:url(#Mulberry_6-3-7);}.MCD-37{fill:url(#Mulberry_6-3-8);}.MCD-38{fill:url(#Mulberry_6-3-9);}.MCD-39{fill:url(#Mulberry_6-3-10);}.MCD-40{fill:url(#Mulberry_6-3-11);}.MCD-41{fill:url(#Mulberry_6-1);}.MCD-42{fill:url(#linear-gradient-14);}.MCD-43{fill:url(#Grad_Orange_2-5);}.MCD-44{fill:url(#Grad_Orange_2-5-2);}.MCD-45{fill:url(#Grad_Orange_2-5-3);}.MCD-46{fill:url(#Grad_Orange_2-5-4);}.MCD-47{fill:url(#Grad_Orange_2-5-5);}.MCD-48{fill:url(#Grad_Orange_2-5-6);}.MCD-49{fill:url(#Grad_Orange_2-5-7);}.MCD-50{fill:url(#Grad_Orange_2-5-8);}.MCD-51{fill:url(#Grad_Orange_2-5-9);}.MCD-52{fill:url(#Grad_Orange_2-5-10);}.MCD-53{fill:url(#Red_3_-_Orange_3);}.MCD-54{fill:url(#Red_5_-_Orange_5_Grad);}.MCD-55{fill:url(#Grand_Orange_1-3);}.MCD-56{fill:#8f1f0b;}.MCD-57{fill:url(#linear-gradient-15);}.MCD-58{fill:url(#Red_4_-_Orange_5);}.MCD-59{fill:url(#Orange_6-4);}.MCD-60{fill:#5e0f33;}.MCD-61{fill:url(#Mulberry_5-3);}
        </style>
        <linearGradient id="linear-gradient" x1="1127.95" y1="385.2" x2="1127.95" y2="432.13"
                        gradientUnits="userSpaceOnUse">
            <stop offset="0.25" stop-color="#3d3938"/>
            <stop offset="1"/>
        </linearGradient>
        <linearGradient id="linear-gradient-2" x1="1199.66" y1="385.2" x2="1199.66" y2="432.13"
                        xlink:href="#linear-gradient"/>
        <linearGradient id="linear-gradient-3" x1="1395.89" y1="385.2" x2="1395.89" y2="432.13"
                        xlink:href="#linear-gradient"/>
        <linearGradient id="linear-gradient-4" x1="1541" y1="385.2" x2="1541" y2="432.13"
                        xlink:href="#linear-gradient"/>
        <linearGradient id="linear-gradient-5" x1="1649.28" y1="385.2" x2="1649.28" y2="432.13"
                        xlink:href="#linear-gradient"/>
        <linearGradient id="linear-gradient-6" x1="1720.99" y1="385.2" x2="1720.99" y2="432.13"
                        xlink:href="#linear-gradient"/>
        <linearGradient id="linear-gradient-7" x1="1792.7" y1="385.2" x2="1792.7" y2="432.13"
                        xlink:href="#linear-gradient"/>
        <linearGradient id="linear-gradient-8" x1="1864.41" y1="385.2" x2="1864.41" y2="432.13"
                        xlink:href="#linear-gradient"/>
        <linearGradient id="linear-gradient-9" x1="1936.11" y1="385.2" x2="1936.11" y2="432.13"
                        xlink:href="#linear-gradient"/>
        <linearGradient id="linear-gradient-10" x1="2115.38" y1="385.2" x2="2115.38" y2="432.13"
                        xlink:href="#linear-gradient"/>
        <linearGradient id="linear-gradient-11" x1="1289.3" y1="385.2" x2="1289.3" y2="432.13"
                        xlink:href="#linear-gradient"/>
        <linearGradient id="linear-gradient-12" x1="1056.24" y1="385.2" x2="1056.24" y2="432.13"
                        xlink:href="#linear-gradient"/>
        <linearGradient id="linear-gradient-13" x1="930.75" y1="385.2" x2="930.75" y2="432.13"
                        xlink:href="#linear-gradient"/>
        <linearGradient id="Mulberry_6-4" x1="1445.79" y1="491.91" x2="1445.79" y2="604.96"
                        gradientUnits="userSpaceOnUse">
            <stop offset="0" stop-color="#4f1030"/>
            <stop offset="1" stop-color="#190d19"/>
        </linearGradient>
        <linearGradient id="Mulberry_6-4-2" x1="2515.76" y1="491.91" x2="2515.76" y2="538.98"
                        xlink:href="#Mulberry_6-4"/>
        <linearGradient id="Mulberry_6-4-3" x1="2610.41" y1="491.91" x2="2610.41" y2="538.98"
                        xlink:href="#Mulberry_6-4"/>
        <linearGradient id="Mulberry_6-4-4" x1="2198.59" y1="555.12" x2="2198.59" y2="600.95"
                        xlink:href="#Mulberry_6-4"/>
        <linearGradient id="Mulberry_6-4-5" x1="1935.43" y1="491.91" x2="1935.43" y2="618.68"
                        xlink:href="#Mulberry_6-4"/>
        <linearGradient id="Mulberry_6-4-6" x1="449.37" y1="491.91" x2="449.37" y2="525.37" xlink:href="#Mulberry_6-4"/>
        <linearGradient id="Mulberry_6-4-7" x1="602.51" y1="491.91" x2="602.51" y2="546.83" xlink:href="#Mulberry_6-4"/>
        <linearGradient id="Mulberry_6-4-8" x1="1708.75" y1="491.91" x2="1708.75" y2="538.98"
                        xlink:href="#Mulberry_6-4"/>
        <linearGradient id="Mulberry_6-4-9" x1="1108.31" y1="555.12" x2="1108.31" y2="652.61"
                        xlink:href="#Mulberry_6-4"/>
        <linearGradient id="Mulberry_6-4-10" x1="2705.19" y1="555.12" x2="2705.19" y2="618.72"
                        xlink:href="#Mulberry_6-4"/>
        <linearGradient id="Mulberry_6-4-11" x1="376.81" y1="555.12" x2="376.81" y2="618.71"
                        xlink:href="#Mulberry_6-4"/>
        <linearGradient id="Mulberry_6-4-12" x1="2803.78" y1="622.07" x2="2803.78" y2="652.83"
                        xlink:href="#Mulberry_6-4"/>
        <linearGradient id="Mulberry_6-4-13" x1="278.22" y1="622.07" x2="278.22" y2="652.83"
                        xlink:href="#Mulberry_6-4"/>
        <linearGradient id="Mulberry_6-3" x1="1421.84" y1="604.96" x2="1421.84" y2="657.04"
                        gradientUnits="userSpaceOnUse">
            <stop offset="0" stop-color="#5e0f33"/>
            <stop offset="1" stop-color="#190d19"/>
        </linearGradient>
        <linearGradient id="Mulberry_6-3-2" x1="2751.05" y1="693.09" x2="2751.05" y2="730.28"
                        xlink:href="#Mulberry_6-3"/>
        <linearGradient id="Mulberry_6-3-3" x1="688.91" y1="693.09" x2="688.91" y2="776.13" xlink:href="#Mulberry_6-3"/>
        <linearGradient id="Mulberry_6-3-4" x1="947.5" y1="693.09" x2="947.5" y2="776.14" xlink:href="#Mulberry_6-3"/>
        <linearGradient id="Mulberry_6-3-5" x1="2478.34" y1="604.96" x2="2478.34" y2="673.54"
                        xlink:href="#Mulberry_6-3"/>
        <linearGradient id="Mulberry_6-3-6" x1="2247.69" y1="604.96" x2="2247.69" y2="686.81"
                        xlink:href="#Mulberry_6-3"/>
        <linearGradient id="Mulberry_6-3-7" x1="330.95" y1="693.09" x2="330.95" y2="730.24" xlink:href="#Mulberry_6-3"/>
        <linearGradient id="Mulberry_6-3-8" x1="2080.28" y1="693.09" x2="2080.28" y2="727.03"
                        xlink:href="#Mulberry_6-3"/>
        <linearGradient id="Mulberry_6-3-9" x1="1841.3" y1="693.09" x2="1841.3" y2="776.14" xlink:href="#Mulberry_6-3"/>
        <linearGradient id="Mulberry_6-3-10" x1="1707.82" y1="604.96" x2="1707.82" y2="657.04"
                        xlink:href="#Mulberry_6-3"/>
        <linearGradient id="Mulberry_6-3-11" x1="1145.4" y1="604.96" x2="1145.4" y2="677.79"
                        xlink:href="#Mulberry_6-3"/>
        <linearGradient id="Mulberry_6-1" x1="1541" y1="732.64" x2="1541" y2="812.4" gradientUnits="userSpaceOnUse">
            <stop offset="0" stop-color="#7b0d3a"/>
            <stop offset="1" stop-color="#190d19"/>
        </linearGradient>
        <linearGradient id="linear-gradient-14" x1="694.97" y1="693.75" x2="694.97" y2="715.8"
                        gradientUnits="userSpaceOnUse">
            <stop offset="0" stop-color="#8f2244"/>
            <stop offset="1" stop-color="#303"/>
        </linearGradient>
        <linearGradient id="Grad_Orange_2-5" x1="552.42" y1="720.02" x2="552.42" y2="456.21"
                        gradientUnits="userSpaceOnUse">
            <stop offset="0" stop-color="#ffd953"/>
            <stop offset="1" stop-color="#ff791a"/>
        </linearGradient>
        <linearGradient id="Grad_Orange_2-5-2" x1="838.05" y1="720.02" x2="838.05" y2="456.21"
                        xlink:href="#Grad_Orange_2-5"/>
        <linearGradient id="Grad_Orange_2-5-3" x1="1113.82" y1="720.02" x2="1113.82" y2="456.21"
                        xlink:href="#Grad_Orange_2-5"/>
        <linearGradient id="Grad_Orange_2-5-4" x1="2241.66" y1="720.02" x2="2241.66" y2="456.21"
                        xlink:href="#Grad_Orange_2-5"/>
        <linearGradient id="Grad_Orange_2-5-5" x1="2523.99" y1="720.02" x2="2523.99" y2="456.21"
                        xlink:href="#Grad_Orange_2-5"/>
        <linearGradient id="Grad_Orange_2-5-6" x1="356.91" y1="716.2" x2="356.91" y2="452.81"
                        xlink:href="#Grad_Orange_2-5"/>
        <linearGradient id="Grad_Orange_2-5-7" x1="2725.08" y1="716.2" x2="2725.08" y2="452.81"
                        xlink:href="#Grad_Orange_2-5"/>
        <linearGradient id="Grad_Orange_2-5-8" x1="1684.68" y1="720.02" x2="1684.68" y2="456.21"
                        xlink:href="#Grad_Orange_2-5"/>
        <linearGradient id="Grad_Orange_2-5-9" x1="1397.31" y1="720.02" x2="1397.31" y2="456.21"
                        xlink:href="#Grad_Orange_2-5"/>
        <linearGradient id="Grad_Orange_2-5-10" x1="1955.88" y1="720.02" x2="1955.88" y2="456.21"
                        xlink:href="#Grad_Orange_2-5"/>
        <linearGradient id="Red_3_-_Orange_3" x1="1541" y1="733.62" x2="1541" y2="430.62"
                        gradientUnits="userSpaceOnUse">
            <stop offset="0" stop-color="#ffc42b"/>
            <stop offset="1" stop-color="#ff481b"/>
        </linearGradient>
        <linearGradient id="Red_5_-_Orange_5_Grad" x1="1541" y1="731.8" x2="1541" y2="432.71"
                        gradientUnits="userSpaceOnUse">
            <stop offset="0" stop-color="#ff791a"/>
            <stop offset="1" stop-color="#b42d10"/>
        </linearGradient>
        <linearGradient id="Grand_Orange_1-3" x1="1541" y1="732.2" x2="1541" y2="427.16" gradientUnits="userSpaceOnUse">
            <stop offset="0" stop-color="#fff27a"/>
            <stop offset="1" stop-color="#ffc42b"/>
        </linearGradient>
        <linearGradient id="linear-gradient-15" x1="1478.49" y1="665.95" x2="1478.49" y2="432.13"
                        gradientUnits="userSpaceOnUse">
            <stop offset="0" stop-color="#e2611c"/>
            <stop offset="1" stop-color="#8c180c"/>
        </linearGradient>
        <linearGradient id="Red_4_-_Orange_5" x1="1639.5" y1="732.51" x2="1639.5" y2="433.37"
                        gradientUnits="userSpaceOnUse">
            <stop offset="0" stop-color="#ff791a"/>
            <stop offset="1" stop-color="#da3a16"/>
        </linearGradient>
        <linearGradient id="Orange_6-4" x1="1598.97" y1="724.03" x2="1598.97" y2="438" gradientUnits="userSpaceOnUse">
            <stop offset="0" stop-color="#ffa41f"/>
            <stop offset="1" stop-color="#de5b0d"/>
        </linearGradient>
        <linearGradient id="Mulberry_5-3" x1="1541.03" y1="729.56" x2="1541.03" y2="774.37"
                        gradientUnits="userSpaceOnUse">
            <stop offset="0" stop-color="#5e0f33"/>
            <stop offset="1" stop-color="#32122a"/>
        </linearGradient>
    </defs>
    <polygon
            points="2092.68 596.63 944.12 596.63 944.12 302.76 1457.84 302.76 1501.44 385.19 1679.06 385.19 1735.57 302.76 2092.68 302.76 2092.68 596.63"/>
    <path d="M2145.28,302.18l23.35-38.73-13-41.59h-890.4l-4.17,30.35-8.25-30.35H1045.34l-7.15,28.58h-17.25l-4.09,15.8-22.91-44.38H926.32L874.78,387.3l41.07,56.33h67.54l8.26-31.26h27.28l18.29,31.26h208.47l5-36.25,11.54,36.25h696.49l28.19-58.43h25.5l22.37-43.78h1.94l24.66,102.21h70.12l38.81-56.43Zm-601.8,39.24.09-19.74h59.91l.6,19.74Z"/>
    <polygon class="MCD-1" points="1145.2 385.19 1089.98 385.19 1113.59 432.13 1165.93 432.13 1145.2 385.19"/>
    <polygon class="MCD-2" points="1163.61 385.19 1183.37 432.13 1235.71 432.13 1218.84 385.19 1163.61 385.19"/>
    <polygon class="MCD-3" points="1329.29 385.19 1340.38 432.13 1462.49 432.13 1458.16 385.19 1329.29 385.19"/>
    <polygon class="MCD-4" points="1605.43 385.19 1602.06 432.13 1479.94 432.13 1476.56 385.19 1605.43 385.19"/>
    <polygon class="MCD-5" points="1623.84 385.19 1679.06 385.19 1671.84 432.13 1619.5 432.13 1623.84 385.19"/>
    <polygon class="MCD-6" points="1697.47 385.19 1689.28 432.13 1741.62 432.13 1752.7 385.19 1697.47 385.19"/>
    <polygon class="MCD-7" points="1771.11 385.19 1759.06 432.13 1811.4 432.13 1826.33 385.19 1771.11 385.19"/>
    <polygon class="MCD-8" points="1844.74 385.19 1828.84 432.13 1881.18 432.13 1899.97 385.19 1844.74 385.19"/>
    <polygon class="MCD-9" points="1918.38 385.19 1898.62 432.13 1950.96 432.13 1973.61 385.19 1918.38 385.19"/>
    <polygon class="MCD-10" points="2102.47 385.19 2073.07 432.13 2125.41 432.13 2157.7 385.19 2102.47 385.19"/>
    <polygon class="MCD-11" points="1255.66 385.19 1270.6 432.13 1322.93 432.13 1310.88 385.19 1255.66 385.19"/>
    <polygon class="MCD-12" points="1016.34 385.19 1071.57 385.19 1096.15 432.13 1043.81 432.13 1016.34 385.19"/>
    <polygon class="MCD-13" points="921.7 432.13 887.48 385.19 942.71 385.19 974.03 432.13 921.7 432.13"/>
    <path class="MCD-14"
          d="M1032.23,321.68h-17.85l-8.09,31.24H970l8.63-31.24H960.82L942.71,385.2H887.48l47.3-151.84H986l-8.15,28.58h17.33l-8.14,29.42h35.17l7.62-29.42h17.33l7.15-28.58h51.23l-34,151.84h-55.23Zm90.39-88.32h51.23L1145.2,385.2H1090Zm222,0h119.53L1463,261.94h-69.31l-2.19,29.42h70.34l-1.2,30.32h-71.4l-2.33,31.24h72.5l-1.27,32.28H1329.29Zm136.61,0h119.53l.88,28.58h-69.31l-.4,91h72.51l1,32.28H1476.56Zm211.5,88.32h-17.85l4.18,63.52h-55.22l-6-151.84h119.54l5.85,58h-17.59l1.39,15.05h17.72l8,78.79h-55.23ZM1671,261.94l1.94,29.42h17.58l-2.19-29.42Zm220.11-28.58H2010.6l6.89,28.58h-69.3l6.06,29.42h70.35l7.31,30.32h-71.4l13.1,63.52h-55.23Zm178.42,28.58h-34.66l-7.14-28.58h119.53l8.9,28.58h-34.65L2157.7,385.2h-55.23Zm-807.29,75.24h-18l4.46-30.77h-17.72l-12.1,78.79h-55.23l27.32-151.84h51.23l-4.39,28.58h17.33l-4.26,29.42h17.58l7.89-58h51.23L1310.88,385.2h-55.22ZM1874,233.36H1754.45l16.66,151.84h55.22l-6.53-48h18l7,48H1900Zm-40.27,55.52h8.79l4.17,27.68H1834.8l-1.47-10.15h-17.71l1.38,10.15h-11.87l-3.61-27.68h8.79l-1-7.42h-20.42l-2.43-19.52h23.11l2.32,17.06h17.48l-2.47-17.06H1850l3,19.52h-20.41Z"/>
    <polygon
            points="2860.14 627.57 2794.65 510.07 2721.31 510.07 2689.08 448.61 2605.26 448.61 2594.85 456.59 2576.9 419.13 2236.19 419.13 2199.43 463.66 2158.7 463.66 2146.34 419.13 2058.63 419.13 2040.42 448.61 2020.99 448.61 2014.62 419.13 1832.49 419.13 1821.93 448.61 1798.55 448.61 1795.2 419.13 1190.26 419.13 1175.86 510.07 1171.44 510.07 1148.33 463.66 1126.72 463.66 1103.37 419.13 912.22 419.13 916.44 424.92 899.5 484.16 845.8 419.13 759.97 419.13 747.31 454.29 712.81 419.13 505.09 419.13 487.14 456.59 476.74 448.61 392.92 448.61 360.68 510.07 287.34 510.07 221.86 627.55 282.86 658.47 261.54 699.11 356.15 743.24 367.51 743.24 534.99 822.12 736.7 822.06 747.32 789.13 767.98 789.13 818.15 822.12 987.46 822.12 994.77 789.14 996.99 789.14 1032.15 822.12 1117.13 822.12 1134.02 724.17 1202.74 822.12 1785.81 822.12 1802.34 789.14 1822.61 789.14 1826.49 822.12 1998.59 822.12 2034.96 784.11 2042.68 822.12 2126.93 822.12 2199.53 763.02 2215.57 822.12 2547 822.12 2714.48 743.24 2725.95 743.24 2820.45 699.1 2799.1 658.4 2860.14 627.57"/>
    <polygon class="MCD-15"
             points="2842.19 622.07 2787.01 523.07 2713.45 523.07 2681.21 461.61 2609.67 461.61 2590.05 476.66 2568.72 432.13 2339.35 432.13 2320.22 452.49 2312.89 432.13 2242.32 432.13 2203.57 479.05 2202.85 476.66 2148.82 476.66 2136.46 432.13 2065.88 432.13 2046.65 463.26 2046.27 461.61 2010.5 461.61 2004.13 432.13 1845.34 432.13 1834.78 461.61 1813.76 461.61 1780 566.08 1777.16 538.98 1775.49 538.98 1790.35 491.91 1783.59 432.13 1298.4 432.13 1291.44 493.68 1271.94 432.13 1201.36 432.13 1186.96 523.07 1163.39 523.07 1140.28 476.66 1118.86 476.66 1095.51 432.13 1024.93 432.13 1017.69 462.23 998.47 432.13 927.9 432.13 905.21 511.5 839.68 432.13 769.11 432.13 752.54 478.17 707.35 432.13 513.28 432.13 491.94 476.66 472.32 461.61 400.78 461.61 368.55 523.07 294.98 523.07 239.8 622.07 300.49 652.83 279.38 693.09 359.03 730.24 370.42 730.24 538.02 809.12 727.32 809.12 737.86 776.13 771.91 776.13 822.13 809.12 977.02 809.12 984.34 776.14 1002.13 776.14 1037.3 809.12 1106.23 809.12 1133.17 652.61 1146.67 652.61 1162.46 677.79 1154.15 730.24 1209.51 809.12 1278.38 809.12 1282.83 766.45 1304.22 809.12 1777.8 809.12 1799.2 766.4 1800.22 776.14 1834.21 776.14 1838.07 809.12 1993.06 809.12 2042.76 757.14 2053.33 809.12 2122.21 809.12 2206.84 740.31 2225.53 809.12 2294.42 809.12 2315.98 795.6 2320.25 809.12 2544.09 809.12 2711.57 730.24 2722.97 730.24 2802.61 693.09 2781.5 652.83 2842.19 622.07"/>
    <polygon class="MCD-16" points="933.85 772.95 935.26 766.8 939.57 770.47 938.13 776.53 933.85 772.95"/>
    <polygon class="MCD-16" points="2277.93 772.95 2275.22 763.84 2270.02 767.5 2272.74 776.53 2277.93 772.95"/>
    <polyline class="MCD-17"
              points="1364.18 491.91 1527.4 491.91 1527.11 538.98 1397.45 538.98 1393.24 604.96 1389.49 604.96 1364.18 491.91"/>
    <polygon class="MCD-18" points="2597.36 491.91 2434.15 491.91 2453.22 538.98 2534.4 538.98 2597.36 491.91"/>
    <polygon class="MCD-19" points="2660.84 491.91 2624.57 491.91 2559.98 538.98 2594.09 538.98 2660.84 491.91"/>
    <polygon class="MCD-20" points="2170.61 555.12 2183.33 600.95 2226.57 555.12 2170.61 555.12"/>
    <polygon class="MCD-21" points="1980.77 491.91 1890.1 491.91 1910.17 618.68 1980.77 491.91"/>
    <polygon class="MCD-22" points="421.16 491.91 468.6 525.37 477.59 506.61 457.43 491.91 421.16 491.91"/>
    <polygon class="MCD-23" points="557.17 491.91 625.6 546.83 647.85 491.91 557.17 491.91"/>
    <polygon class="MCD-24" points="1627.14 491.91 1628.98 538.98 1775.49 538.98 1790.35 491.91 1627.14 491.91"/>
    <polygon class="MCD-25"
             points="1069.96 555.12 1133.17 652.61 1146.67 652.61 1116.8 604.96 1125.92 555.12 1069.96 555.12"/>
    <polygon class="MCD-26"
             points="2692.95 555.12 2642.81 586.74 2658.13 618.72 2709.7 588.11 2711.88 588.11 2767.57 555.12 2692.95 555.12"/>
    <polygon class="MCD-27"
             points="314.43 555.12 370.12 588.11 372.29 588.11 423.87 618.71 439.19 586.74 389.05 555.12 314.43 555.12"/>
    <polygon class="MCD-28" points="2842.19 622.07 2781.5 652.83 2765.37 622.07 2842.19 622.07"/>
    <polygon class="MCD-29" points="239.8 622.07 300.49 652.83 316.63 622.07 239.8 622.07"/>
    <polyline class="MCD-30" points="1393.24 604.96 1404.62 657.04 1448.4 657.04 1450.44 604.96 1393.24 604.96"/>
    <polygon class="MCD-31"
             points="2802.61 693.09 2723.45 693.09 2699.49 705.01 2711.57 730.24 2722.98 730.28 2802.61 693.09"/>
    <polygon class="MCD-32"
             points="605.92 693.09 737.84 776.13 771.91 776.13 702.05 730.24 645.5 693.09 605.92 693.09"/>
    <polygon class="MCD-33"
             points="892.87 693.09 984.34 776.14 1002.13 776.14 953.2 730.24 956.53 716.37 932.45 693.09 892.87 693.09"/>
    <polygon class="MCD-34"
             points="2399.78 673.54 2423.08 657.04 2495.67 657.04 2575.28 604.96 2403.69 604.96 2381.39 622.46 2399.78 673.54"/>
    <polygon class="MCD-35" points="2207.17 686.81 2298.84 604.96 2241.64 604.96 2196.54 648.52 2207.17 686.81"/>
    <polygon class="MCD-36"
             points="279.38 693.09 359.03 730.24 370.42 730.24 382.51 705.01 358.54 693.09 279.38 693.09"/>
    <polygon class="MCD-37" points="2060.49 693.09 2067.82 727.03 2100.07 693.09 2060.49 693.09"/>
    <polygon class="MCD-38" points="1834.21 776.14 1882.38 693.09 1842.8 693.09 1800.22 776.14 1834.21 776.14"/>
    <polygon class="MCD-39" points="1631.56 604.96 1633.59 657.04 1765.37 657.04 1784.08 604.96 1631.56 604.96"/>
    <polygon class="MCD-40" points="1162.46 677.79 1173.99 604.96 1116.8 604.96 1162.46 677.79"/>
    <path class="MCD-41"
          d="M2544.09,809.12H2320.25l130.08-78.88h261.24Zm-123.91-78.88H2339.8l-114.27,78.88h68.89Zm-200.95,0h-80.39l-85.51,78.88h68.88Zm-150.72,0H1887.65l-49.58,78.88h155Zm-251.2,0H1556.07l-2.15,78.88H1777.8Zm-291.38,0H1264.68l39.54,78.88h223.87Zm-291.39,0h-80.39l55.36,78.88h68.87Zm-201,0H953.2l84.09,78.88h68.94Zm-150.72,0H702.05l120.08,78.88H977Zm-291.39,0h-221L538,809.12h189.3Z"/>
    <polygon class="MCD-42" points="675.18 693.09 707.27 714.9 714.76 693.09 675.18 693.09"/>
    <path class="MCD-43"
          d="M384.93,720.84,518.64,439.42h177L684,469.11H719.9L639,684H599.6l-14.48,36.87ZM469.71,666h117.4L660,484.26H551.55Z"/>
    <polygon class="MCD-44"
             points="715.24 720.84 727.75 683.97 688.32 683.97 775.33 439.42 828.44 439.42 753.43 665.95 870.83 665.95 934.66 439.42 987.77 439.42 924.9 683.97 885.47 683.97 875.38 720.84 715.24 720.84"/>
    <polygon class="MCD-45"
             points="1165.65 720.84 1184.83 596.51 1127.85 596.51 1136.7 547.02 1062.35 547.02 1025.52 720.84 965.47 720.84 1032.03 439.42 1085.14 439.42 1075.64 484.26 1129.86 484.26 1121.11 531 1194.94 531 1209.06 439.42 1262.17 439.42 1225.71 720.84 1165.65 720.84"/>
    <polygon class="MCD-46"
             points="2346.74 720.84 2305.57 596.51 2248.58 596.51 2233.42 547.02 2159.06 547.02 2206.61 720.84 2146.55 720.84 2076.52 439.42 2129.63 439.42 2141.89 484.26 2196.11 484.26 2210.05 531 2283.88 531 2253.55 439.42 2306.66 439.42 2406.79 720.84 2346.74 720.84"/>
    <polygon class="MCD-47"
             points="2456.84 720.84 2436.18 665.95 2612.28 665.95 2581 596.51 2410.04 596.51 2350.92 439.42 2563.36 439.42 2584.66 484.26 2422.01 484.26 2447.18 547.02 2614.48 547.02 2697.06 720.84 2456.84 720.84"/>
    <polygon class="MCD-48"
             points="294.02 683.97 330.7 613.49 254.16 613.49 299.79 531 373.62 531 405.82 469.11 459.66 469.11 452.15 484.26 416.01 484.26 383.87 547.02 309.51 547.02 282.54 596.51 358.53 596.51 322.96 665.95 362.1 665.95 353.16 683.97 294.02 683.97"/>
    <polygon class="MCD-49"
             points="2728.83 683.97 2719.9 665.95 2759.03 665.95 2723.47 596.51 2799.45 596.51 2772.48 547.02 2698.13 547.02 2665.98 484.26 2629.84 484.26 2622.33 469.11 2676.17 469.11 2708.38 531 2782.2 531 2827.84 613.49 2751.3 613.49 2787.98 683.97 2728.83 683.97"/>
    <polygon class="MCD-50"
             points="1566.02 720.84 1563.13 439.42 1775.57 439.42 1780.45 484.26 1617.8 484.26 1620 547.02 1768.71 547.02 1773.69 596.51 1621.73 596.51 1624.16 665.95 1800.26 665.95 1806.24 720.84 1566.02 720.84"/>
    <polygon class="MCD-51"
             points="1275.75 720.84 1306.43 439.42 1518.87 439.42 1518.41 484.26 1355.76 484.26 1340.44 665.95 1457.84 665.95 1460.27 596.51 1403.28 596.51 1406.23 547.02 1517.76 547.02 1515.97 720.84 1275.75 720.84"/>
    <path class="MCD-52"
          d="M1896.32,720.84,1890.94,684h-39.43l-27.84-214.86h35.89l-4.33-29.69h141.63l6.28,29.69H2039L2088.09,684h-39.43l7.81,36.87ZM1907.88,666h117.4l-37-181.69H1879.85Z"/>
    <path class="MCD-53"
          d="M368.55,523.07l5.07,7.93,32.2-61.89-5-7.5Zm-128.75,99,14.35-8.59L299.79,531,295,523.07Zm90.9-8.59-14.07,8.59-37.25,71L294,684Zm39.72,116.76,14.51-9.4L518.64,439.42l-5.36-7.29ZM660,484.26l-12.13,7.65L580.94,657l6.17,8.91Zm15.2,208.83L688.32,684l87-244.55-6.22-7.29ZM727.75,684l-13,9.12-12.71,37.15,13.19-9.4ZM863.6,657l7.23,8.91,63.83-226.53-6.76-7.29Zm89.6,73.2,12.27-9.4L1032,439.42l-7.1-7.29ZM1187,523.07l8,7.93,14.12-91.58-7.69-7.29ZM1136.7,547l-10.78,8.1L1116.8,605l11-8.45Zm48.13,49.49L1174,605l-19.84,125.28,11.5-9.4Zm79.85,133.73,11.07-9.4,30.68-281.42-8-7.29ZM1397.45,539l-4.21,66,10-8.45,3-49.49Zm62.82,57.53-9.83,8.45-2,52.08,9.44,8.91Zm95.8,133.73,10-9.4-2.89-281.42-8.9-7.29Zm286.73-37.15,8.71-9.12-27.84-214.86-9.92-7.5Zm2.54-261,4.19,29.48,10,7.5-4.33-29.69Zm142.94,52.13-7.51,7.65,33,165.13,11.56,8.91m-134.34,18-8.56,9.12,5.27,37.15,8.67-9.4Zm185.58-244.55-10.64-7.29,73,298.11,7.71-9.4Zm195.53,83.65,11.83,7.93-30.33-91.58-11.23-7.29ZM2233.42,547l-6.85,8.1L2241.64,605l6.94-8.45Zm72.15,49.49-6.73,8.45,41,125.28,6.94-9.4Zm98.12,8.45,6.35-8.45-59.12-157.09-11.57-7.29Zm220.88-113,5.27-7.65-7.51-15.15-12.66-7.5Zm41.41-7.65-5.14,7.65L2693,555.12l5.18-8.1ZM2772.48,547l-4.91,8.1,17.84,33,14,8.4Zm-27.76,110L2759,666l-35.56-69.44-13.77-8.4Zm-21.27,36.05,5.38-9.12-8.93-18L2705.74,657Zm-273.12,37.15,6.51-9.4L2436.18,666l-13.1-8.91ZM2581,596.51l-5.72,8.45L2598.52,657l13.76,8.91ZM383.87,547l5.18,8.1,32.11-63.21L416,484.26Zm88.45-85.41-12.66,7.5-7.51,15.15,5.28,7.65Zm-100,126.5-13.76,8.4L323,666,337.27,657Zm4,68.93L362.09,666l-8.93,18,5.38,9.12ZM314.43,555.12l-4.92-8.1-27,49.49,14-8.4ZM469.71,666,483.47,657l73.7-165.13-5.62-7.65Zm262-204.34-11.77,7.5L639,684l6.47,9.12Zm-24.31-29.48-11.69,7.29L684,469.11l11.89-7.5ZM585.12,720.84l6.35,9.4,14.45-37.15L599.6,684Zm290.26,0,7.48,9.4,10-37.15-7.4-9.12ZM924.9,684l7.55,9.12,66-261-10.7,7.29ZM839.68,432.13l-11.24,7.29L753.43,666l12.7-8.91Zm255.83,0-10.37,7.29-9.5,44.84,10.62-7.6Zm44.77,44.53-10.42,7.6L1121.11,531l10.68-7.93Zm131.66-44.53-9.77,7.29-36.46,281.42,8.83,9.4ZM1025.52,720.84l8.06,9.4L1070,555.12l-7.62-8.1Zm502.24-288.71-8.89,7.29-.46,44.84,9,7.65ZM1527.11,539l-9.35,8L1516,720.84l10,9.4ZM1340.44,666l10.49-8.91,13.25-165.13-8.42-7.65ZM1620,547l9-8-1.84-47.07-9.34-7.65Zm157.16-8-8.45,8,5,49.49,10.39,8.45ZM1809,657l-8.77,8.91,6,54.89,11.07,9.4ZM1624.16,666l9.43-8.91-2-52.08-9.83-8.45Zm159.43-233.82-8,7.29,4.88,44.84,9.9,7.65ZM1907.88,666l8.37-8.91L1890.1,491.91l-10.25-7.65Zm138.39-204.34-7.23,7.5L2088.09,684l12,9.12Zm-42.14-29.48-7.27,7.29,6.28,29.69,7.36-7.5Zm52.34,288.71,12,9.4-8-37.15L2048.66,684Zm80-288.71-6.83,7.29,12.26,44.84,6.93-7.6Zm66.39,44.53-6.74,7.6L2210.05,531l6.83-7.93Zm110-44.53-6.23,7.29,100.13,281.42,13.39,9.4Zm255.82,0-5.35,7.29,21.3,44.84,12.7,7.65ZM2619.92,539l-5.44,8,82.58,173.82,14.51,9.4Zm-185.77-47.07L2422,484.26,2447.18,547l6-8Zm247.06-30.3-5,7.5L2708.38,531l5.07-7.93ZM2787,523.07,2782.2,531l45.64,82.48,14.35,8.59Zm-35.71,90.41L2788,684l14.63,9.12-37.24-71ZM2159.06,547l47.55,173.82,12.62,9.4-48.62-175.12Z"/>
    <path class="MCD-54"
          d="M472.32,461.61l-12.66,7.5H405.82l-5-7.5ZM295,523.07l4.81,7.93h73.83l-5.07-7.93Zm1.6,65-14,8.4h76l13.76-8.4ZM362.09,666,376.26,657h-39L323,666ZM513.28,432.13l5.36,7.29h177l11.69-7.29Zm206.62,37,11.77-7.5H695.9L684,469.11ZM483.47,657,469.71,666h117.4L580.94,657ZM769.11,432.13l6.22,7.29h53.11l11.24-7.29Zm158.79,0,6.76,7.29h53.11l10.7-7.29ZM766.13,657,753.43,666h117.4L863.6,657Zm258.8-224.91,7.1,7.29h53.11l10.37-7.29Zm61.33,44.53-10.62,7.6h54.22l10.42-7.6Zm45.53,46.41L1121.11,531h73.83l-8-7.93Zm69.58-90.94,7.69,7.29h53.11l9.77-7.29Zm97,0,8,7.29h212.44l8.89-7.29Zm99,106.85,8.78,8h111.53l9.35-8ZM1350.93,657,1340.44,666h117.4L1448.4,657Zm203.3-224.91,8.9,7.29h212.44l8-7.29ZM1629,539l-9,8h148.71l8.45-8ZM1633.59,657l-9.43,8.91h176.1L1809,657Zm180.16-195.43,9.92,7.5h35.89l-10-7.5Zm31.59-29.48,9.89,7.29h141.63l7.27-7.29Zm165.16,29.48-7.36,7.5H2039l7.23-7.5ZM1916.25,657l-8.37,8.91h117.4L2013.72,657Zm149.63-224.91,10.64,7.29h53.11l6.83-7.29Zm82.94,44.53-6.93,7.6h54.22l6.74-7.6Zm68.06,46.41-6.83,7.93h73.83l-11.83-7.93Zm25.44-90.94,11.23,7.29h53.11l6.23-7.29Zm97,0,11.57,7.29h212.44l5.35-7.29ZM2453.22,539l-6,8h167.3l5.44-8ZM2423.08,657l13.1,8.91h176.1L2598.52,657Zm186.59-195.43,12.66,7.5h53.84l5-7.5Zm103.78,61.46-5.07,7.93h73.82l4.81-7.93Zm-3.75,65,13.77,8.4h76l-14-8.4Zm-4,68.93L2719.9,666H2759L2744.72,657Z"/>
    <path class="MCD-55"
          d="M452.15,484.26l5.28,7.65H421.16L416,484.26ZM309.51,547l4.92,8.1h74.62l-5.18-8.1Zm-55.36,66.46-14.35,8.59h76.83l14.07-8.59ZM294,684l-14.64,9.12h79.16L353.16,684Zm90.91,36.87-14.51,9.4H591.47l-6.35-9.4ZM599.6,684l6.32,9.12H645.5L639,684ZM551.55,484.26l5.62,7.65h90.68L660,484.26ZM688.32,684l-13.14,9.12h39.58l13-9.12Zm197.15,0,7.4,9.12h39.58L924.9,684ZM715.24,720.84l-13.19,9.4H882.86l-7.48-9.4Zm250.23,0-12.27,9.4h80.38l-8.06-9.4ZM1062.34,547l7.62,8.1h56l10.78-8.1Zm65.5,49.49-11,8.45H1174l10.84-8.45Zm37.81,124.33-11.5,9.4h80.39l-8.83-9.4Zm110.1,0-11.07,9.4h261.25l-10-9.4Zm127.53-124.33-10,8.45h57.2l9.83-8.45Zm-47.52-112.25,8.42,7.65H1527.4l-9-7.65Zm262,0,9.34,7.65h163.21l-9.9-7.65Zm3.93,112.25,9.83,8.45h152.52l-10.39-8.45ZM1566,720.84l-10,9.4h261.24l-11.07-9.4Zm330.3,0-8.67,9.4h180.86l-12-9.4ZM1851.51,684l-8.71,9.12h39.58l8.56-9.12Zm197.15,0,11.83,9.12h39.58l-12-9.12ZM1879.85,484.26l10.25,7.65h90.67l7.51-7.65ZM2159.06,547l11.55,8.1h56l6.85-8.1Zm89.52,49.49-6.94,8.45h57.2l6.73-8.45Zm98.16,124.33-6.94,9.4h80.38l-13.39-9.4Zm-200.19,0-7.71,9.4h80.39l-12.62-9.4ZM2422,484.26l12.14,7.65h163.21l-12.7-7.65Zm-12,112.25-6.35,8.45h171.59l5.72-8.45Zm46.8,124.33-6.51,9.4h261.24l-14.51-9.4Zm272-36.87-5.38,9.12h79.16L2788,684Zm22.47-70.49,14.07,8.59h76.82l-14.35-8.59ZM2698.13,547l-5.18,8.1h74.62l4.91-8.1Zm-68.29-62.76-5.27,7.65h36.27l5.14-7.65Zm-734,103.85h-56.78l.54,4.19h56.88ZM1127.7,495.76H1055l-.85,3.86H1127Zm-77.2,0h-31.8l-.91,3.86h31.85Zm31.52-41.6h-18.25a5,5,0,0,0-4.83,3.59l0,.13h22.32Zm628.6,3.72h-18.27a3.54,3.54,0,0,0-3.8,3.6v.13l22.35-.13Zm-1204,126H478.32l-1.94,4.19h28.39ZM491.19,547H467.51l-1.92,4.05h27.94l.06-.14C494.59,548.77,493.51,547,491.19,547ZM946.3,600.73H922.07a5.89,5.89,0,0,0-5.42,4.09l0,.14h28.59ZM1004.22,684h-30l-1.08,4.55h34.57l0-.16A3.44,3.44,0,0,0,1004.22,684Zm512.13,0h-30a4.57,4.57,0,0,0-4.58,4.39v.16h34.57Zm-1023-70.49h-28.7l-2,4.29h28.76Zm1558-90.41h-55.18l.81,4h55.27Zm137.8,134h-58.48l1.1,4.45h58.59Zm458.93-39.27h-57.51l1.94,4.3h57.61ZM1351.48,535H1296l-.43,4h55.56ZM809.79,495.76h-54.5l-1.38,3.86h54.6Zm1536.47,135h-29.37l1.44,4.34h33.8l-.05-.15A6.6,6.6,0,0,0,2346.26,630.72Zm182.36,57.8h-35c-2.47,0-3.69,2-2.73,4.41l.06.16h39.58Z"/>
    <path class="MCD-56"
          d="M512.36,592.31h-9.48l1.89-4.19h9.46ZM501,617.77h-9.58l-1.94,4.3h9.6Zm-46.66-62.65h9.33l1.92-4h-9.31ZM743.42,503.5h9.12l1.37-3.87h-9.1Zm63.81,0h9.11l1.27-3.87h-9.1ZM944.12,609.22h9.55l1.07-4.25h-9.53Zm886.55-12.71h9.51l-.55-4.21h-9.48Zm66.49,0h9.5l-.66-4.2h-9.49ZM1988.57,531h9.23l-.81-4h-9.21Zm64.6,0h9.23l-.92-4h-9.22Zm69.94,135h9.78l-1.11-4.46H2122Zm68.48,0h9.79l-1.24-4.46h-9.77Zm118.51-26.52h9.68l-1.45-4.37h-9.65Zm274.74-13h9.62l-1.94-4.31h-9.61Zm67.34,0h9.62l-2.06-4.31h-9.61ZM1007.76,503.5h9.11l.92-3.88h-9.1Zm118.5,0h9.11l.71-3.87H1127ZM1285.86,543h9.28l.44-4h-9.26Zm65,0h9.27l.32-4h-9.26Zm165.45,150h9.9l0-4.44h-9.87ZM1080.44,461.61h8.94l.78-3.73h-8.93ZM962.14,693.09H972l1.08-4.57h-9.87Z"/>
    <path class="MCD-57"
          d="M437.23,469.11h-4.49l3.81-7.5H441Zm1275.79-37h-4.41l.57,7.29h4.42Zm793.94,0h-4.41l3.27,7.29h4.43ZM2520.55,657h-4.87l3.66,8.91h4.89Zm-813.86,0h-4.87l.6,8.91h4.9Z"/>
    <path class="MCD-58"
          d="M611.58,491.91H607l3.25-7.65h4.51Zm1083-7.65h-4.52l.52,7.65h4.53ZM515.05,720.84h-5l-4,9.4h5Zm485.45,0h-5l-2.11,9.4h5Zm485.45,0h-5l-.23,9.4h5Zm225.2,0h-5l.64,9.4h5Zm285.27,0h-5l1.74,9.4h5Zm510.47,0h-5l3.71,9.4h5Zm23.55-236.58h-4.51l3.43,7.65h4.53ZM2381.77,720.84h-5l3.22,9.4h5Zm391.16-27.75H2768l-4.65-9.12h4.93Z"/>
    <path class="MCD-59"
          d="M1295.58,539h55.56l-.33,4h-55.67Zm-543-35.49h54.69l1.28-3.87h-54.6ZM622.19,461.61h-.14a3.48,3.48,0,0,0-3,1.93l-8.77,20.72h4.51l8.74-20.72A1.31,1.31,0,0,0,622.19,461.61Zm440.36,0h17.89l.79-3.73h-22.32l-9.27,41.74h-31.85l-.92,3.88h109.39l.72-3.87h-72.79Zm-59.81,226.91H973.11L972,693.09h29.69l-6.22,27.75h5l7.18-32.32h-4.94m-86.16-83.41a3.12,3.12,0,0,0,3.22,4.11h24.32l1.09-4.25h-28.6Zm-392.3,88a4.06,4.06,0,0,0-3.44,2.28l-10.79,25.47h5l10.74-25.47A1.52,1.52,0,0,0,524.28,693.09ZM429.9,474.7a1.24,1.24,0,0,0,1.19,2h.14a3.91,3.91,0,0,0,3.17-2l2.83-5.59h-4.49Zm2100.54,9.56-20.19-44.84h-4.43l20.11,44.84Zm-2056,108h28.44l1.89-4.19H476.38l17.15-37H465.59l-1.92,4H487l-29.12,62.65c-1.11,2.37.15,4.3,2.8,4.3h28.81l1.94-4.3H462.66Zm1365.19,0,.55,4.21h57l-.65-4.21ZM2535.43,693h0l-11.2-27h-4.89l11.16,27.14h-39.58l11,27.75h5l-9.22-23.3h35.16c2.48,0,3.68-2,2.67-4.42Zm-403.65-31.47,1.11,4.46h58.7l-1.22-4.46Zm633,15.77a4.47,4.47,0,0,0-3.57-2.33h-.15c-1.32,0-1.85,1-1.19,2.33l3.42,6.71h4.93Zm-172.3-55.19,1.94,4.31h57.72l-2-4.31Zm-215.75,98.77h5l-29.64-85.78h-33.8l1.45,4.37h29ZM1702.42,666l3.73,54.89h5L1707.32,666Zm-215.86,27h29.7l0-4.44h-34.57l-.8,32.32h5Zm502.25,0h-.16a1.93,1.93,0,0,0-2,2.36l4.72,25.52h5l-4.77-25.52A3,3,0,0,0,1988.81,693ZM1715.38,461.59v-.11h0l-1.77-22.06h-4.42l1.72,22.06-22.35.13,1.54,22.65h4.52l-1.34-19h18.34a3.51,3.51,0,0,0,3.77-3.61v0ZM1997,527l.81,4h55.37l-.91-4Z"/>
    <polygon class="MCD-16" points="1258.28 772.95 1259.08 766.03 1261.05 769.62 1260.27 776.53 1258.28 772.95"/>
    <polygon class="MCD-16" points="2092.54 772.95 2090.2 762.63 2086.35 766.28 2088.66 776.53 2092.54 772.95"/>
    <path class="MCD-60"
          d="M772.53,776.53h165.6L933.85,773H767.07ZM1258.28,773h-27.79a7.47,7.47,0,0,0,6.39,3.58h23.39Zm537.62,0h-241l-.1,3.61H1794.1Zm333.67,0h-37l-3.88,3.58h31.28a14.76,14.76,0,0,0,9.63-3.58ZM2315,773h-37l-5.19,3.58h29.85A23.11,23.11,0,0,0,2315,773Zm241.82,3.58h56.51l7.61-3.58h-65A1.89,1.89,0,0,0,2556.77,776.53Zm-2088,0h37.9a1.89,1.89,0,0,0,.83-3.58H461.1Z"/>
    <path class="MCD-61"
          d="M2555.92,773h0a33.84,33.84,0,0,1,15.17-3.58h57.41l-7.61,3.58Zm-241,0h0a2,2,0,0,0-1.07-3.58h-30.76l-5.19,3.58Zm-222.41,0h37a2,2,0,0,0-1.33-3.58h-31.82Zm-834.26,0-2-3.58H1232.5a2.35,2.35,0,0,0-2,3.58h27.79Zm-324.43,0-4.28-3.58h-168l5.46,3.58Zm-426.33,0h0a34.91,34.91,0,0,0-15.41-3.58H453.56L461.1,773Zm1288.38,0,1.81-3.61h-98l12.11-39.13h-5L1695,769.37H1555l-.1,3.61Zm714.72-42.74-28.49,16.19a1.32,1.32,0,0,1-.61.16h0a1.24,1.24,0,0,1-.61-2.31l24.67-14Zm-1029.91,0,1.52,14.16a2.47,2.47,0,0,0,2.44,2.19h0a2.44,2.44,0,0,0,2.43-2.69l-1.38-13.66Zm-974.64,0,30.74,16.22a1.14,1.14,0,0,0,.51.13h0a1.09,1.09,0,0,0,.51-2.05l-26.74-14.3Zm487.32,0,15.74,15.84a1.78,1.78,0,0,0,1.23.51h0a1.73,1.73,0,0,0,1.23-3l-13.18-13.4Zm999.76,0-17.28,21.08a1.88,1.88,0,0,0,1.45,3.08h0a1.89,1.89,0,0,0,1.45-.68l19.4-23.48Zm373.67,11.91,18.2-11.91h-5l-14.67,9.61a1.38,1.38,0,0,0-.4,1.9h0A1.38,1.38,0,0,0,2366.82,742.15Z"/>
</svg>