<svg viewBox="0 0 252 43" xmlns="http://www.w3.org/2000/svg"><defs><linearGradient x1="50%" y1="100%" x2="50%" y2="0%" id="a"><stop stop-color="#D9CDCA" offset="0%"/><stop stop-color="#A89F9C" offset="100%"/></linearGradient><linearGradient x1="50%" y1="99.876%" x2="50%" y2="-.124%" id="b"><stop stop-color="#D9CDCA" offset="0%"/><stop stop-color="#A89F9C" offset="100%"/></linearGradient><linearGradient x1="50%" y1="100.129%" x2="50%" y2="-.158%" id="c"><stop stop-color="#D9CDCA" offset="0%"/><stop stop-color="#A89F9C" offset="100%"/></linearGradient><linearGradient x1="50%" y1="99.819%" x2="50%" y2="-.067%" id="d"><stop stop-color="#D9CDCA" offset="0%"/><stop stop-color="#A89F9C" offset="100%"/></linearGradient><linearGradient x1="50%" y1="99.855%" x2="50%" y2="-.316%" id="e"><stop stop-color="#D9CDCA" offset="0%"/><stop stop-color="#A89F9C" offset="100%"/></linearGradient><linearGradient x1="50%" y1="99.886%" x2="50%" y2=".115%" id="f"><stop stop-color="#D9CDCA" offset="0%"/><stop stop-color="#A89F9C" offset="100%"/></linearGradient></defs><g fill="none" fill-rule="evenodd"><g fill="#030303"><path d="M11.1 42.4L.2 32.4 10.4.7h12.1l5.6 7.6.6-2.2H32L33.4.7 45.8.6l.6 1.1.2-1.1h12.5l.5 1.1.2-1.1h12.6l2.2 5.6h.3l.4 1 1-6.6h12.8l.3 1 .1-1h26.3l1.3 11.9-.3 7.1h-.5l.4 3.5-.3 7.6h-.6l.5 3.8-.3 7.9H89.8l-.3-1-.1 1H76.7l-3-6.2-.9 6.2H60.3l-.6-1-.2 1H47.2l-.7-.9-.2.9H34l-5.2-6h-3.2l-.8-.8-1.8 6.8zm144.7-1l-.2 1h-13.1l-1-29.9 1.1-12H169l.1 1.1.3-1.1h26.2l.2 1.1.5-1.1h25.9l.3 1 .6-1h25.7l2.4 7.6-5.1 6.1v.1c.4 1.2.7 2.4 1.1 3.6.3.9 1.8 5.7 1.8 5.7l.8 2.7c.2.8.5 1.6.7 2.4l.7 2.4.3 1.1-10.2 10.1h-12.2L224.4 23l-5.4 7.5h-3.8l.3 1.5-7.2 10.2h-12.5l-.2-1-.6 1h-12.6l-.1-1-.5 1h-12.7l-.1-1.1-.4 1.1h-12.9l.1-.8z"/><path d="M114.8 31.9L115.9.6l26.6-.1.2 7.4-.9 11.7h-12.3l-.1 4h13.8l.2 8.3-1 10.5h-26.3z"/></g><path fill="url(#a)" d="M20.9 5.9l-1.6 5.8h7.3L28.1 6h3.3L32.8.5h9.6l-6.7 29.1H25.3l3.1-12.3h-3.7l-1.6 6h-6.7l1.7-6.1-3.8.1-3.7 12.3H.5L9.8.6h9.4l-1.5 5.2z" transform="translate(2 2)"/><path fill="url(#b)" d="M55.7.6l-5.8 29.1H39.6L46.1.6z" transform="translate(2 2)"/><path fill="url(#a)" d="M69.6 20.2l.9-6h-3.7l-2.5 15.4H53.9L59.4.5H69l-.9 5.4 3.3.1-.8 5.6h3.7L75.9.5h9.6l-3.4 29.1H71.8l1.3-9.3zm41.5 3.4l-.3 6H86.1L89.2.5h22.9l-.3 5.1H98.4l-.5 6h13.7l-.3 5.6H97.4l-.4 6.3zM245.4.3l1.6 5.2h-6.7v.2c.3 1.1.6 2.3.9 3.4.3 1.2.7 2.4 1 3.6.4 1.2.7 2.4 1.1 3.7.4 1.2.8 2.5 1.1 3.7.2.8.5 1.5.7 2.3.2.8.5 1.6.7 2.3.2.8.5 1.6.7 2.4.2.8.5 1.6.7 2.4h-10.4l-6.6-24h-6.7L222.2.3h23.2z" transform="translate(2 2)"/><path fill="url(#c)" d="M221.4 11.4l1.4 5.8h-14l2.6 12.3H201L195.7.4h23l1.2 5.1h-13.5l1.2 5.9z" transform="translate(2 2)"/><path d="M181.3 20.1l1.3 9.4h-10.4L169 .4h23l5 29.2h-10.4l-1.4-9.4-3.9-.1zm6.8-11.4l-.6-3.7H183l.4 3.4h-3.6l-.5-3.4h-4.4l.5 3.7h4l.2 1.4h-2l.7 5.7h2.4l-.2-1.9h3.6l.3 2h2.5l-.9-5.7h-2l-.2-1.4 4.3-.1z" fill="url(#d)" transform="translate(2 2)"/><path d="M163.3 14.5h3.4l1.5 15.1h-10.4l-.9-12.3-3.9-.1.8 12.4h-10.4L142.3.5h23l1.1 10.8H163l.3 3.2zm-6.8-2.9l-.4-6h-3.7l.4 6h3.7z" fill="url(#e)" transform="translate(2 2)"/><path fill="url(#f)" d="M125.5 5.6h13.3l-.1-5.2-23 .1-.9 29.1h24.7l-.2-6h-14.1z" transform="translate(2 2)"/><path d="M4 31.6c-.8 0-1 .5-.4 1l7.2 6.9c.6.6 1.8 1 2.6 1h6.2c.8 0 1-.5.5-1.1l-6.3-6.7c-.6-.6-1.7-1.1-2.5-1.1H4zm24.8 0c-.8 0-1.1.5-.5 1.1l5.6 6.6c.5.6 1.6 1.1 2.5 1.1h6.5c.8 0 1.1-.5.6-1.2l-4.9-6.5c-.5-.7-1.6-1.2-2.4-1.2l-7.4.1z" fill="#29282A"/><path d="M19.9 25.3c-.8 0-1.1.5-.5 1.1l6.2 7c.5.6 1.5 1.1 2.1 1.1.6 0 .7-.6.2-1.3l-.3-.4c-.5-.7-.7-1.9-.5-2.7v-.2c.2-.8 0-2-.5-2.6l-.6-.9c-.5-.6-1.6-1.2-2.4-1.2l-3.7.1zm23.2 6.4c-.8 0-1.1.5-.6 1.2l4.7 6.5c.5.7 1.6 1.2 2.4 1.2H56c.8 0 1.1-.6.7-1.3l-4-6.3c-.4-.7-1.5-1.3-2.3-1.3h-7.3zm14.3-.1c-.8 0-1.1.6-.7 1.3l3.8 6.3c.4.7 1.5 1.3 2.3 1.3h6.3c.8 0 1.2-.6.8-1.3l-3-6.2c-.4-.7-1.3-1.3-2.2-1.3l-7.3-.1zm17.9 0c-.8 0-1.2.6-.9 1.4l2.9 6.2c.3.7 1.3 1.4 2.1 1.4h6.5c.8 0 1.3-.6 1-1.4L84.6 33c-.3-.8-1.2-1.4-2-1.4h-7.3zm14.3 0c-.8 0-1.3.6-1 1.4l2.1 5.9c.3.8 1.2 1.4 2 1.4h19.8c.8 0 1.4-.7 1.3-1.5L113 33c-.1-.8-.9-1.5-1.7-1.5l-21.7.1zm28.7 0c-.8 0-1.4.7-1.3 1.5l.6 6c.1.8.8 1.5 1.7 1.5H139c.8 0 1.6-.7 1.7-1.5l.7-6c.1-.8-.5-1.5-1.3-1.5h-21.8zm28.7 0c-.8 0-1.6.7-1.7 1.5l-.7 5.9c-.1.8.5 1.5 1.3 1.5h6.4c.8 0 1.7-.7 1.8-1.5l1.4-6c.2-.8-.3-1.5-1.1-1.5l-7.4.1zm14.3 0c-.8 0-1.7.7-1.8 1.5l-1.4 5.9c-.2.8.3 1.5 1.2 1.5h6.4c.8 0 1.7-.6 2-1.4l2.1-5.9c.3-.8-.2-1.4-1-1.4l-7.5-.2zm14.4-.1c-.8 0-1.7.6-2 1.4l-2.1 6.1c-.3.8.2 1.4 1 1.4h6.4c.8 0 1.8-.6 2.1-1.4l2.9-6.2c.3-.7 0-1.4-.9-1.4l-7.4.1zm14.4 0c-.8 0-1.8.6-2.2 1.3l-3 6.2c-.4.7 0 1.3.8 1.3h6.6c.8 0 1.8-.6 2.2-1.3l3.6-6.3c.4-.7.1-1.3-.7-1.3l-7.3.1zm14.4 0c-.8 0-1.8.6-2.3 1.3l-3.9 6.3c-.4.7-.1 1.3.7 1.3h6.5c.8 0 1.9-.5 2.4-1.2l4.6-6.5c.5-.7.2-1.2-.6-1.2h-7.4zm35.9 0c-.8 0-1.9.5-2.5 1.1l-5.8 6.6c-.5.6-.3 1.1.5 1.1h6.2c.8 0 2-.5 2.6-1l6.9-6.7c.6-.6.4-1-.4-1l-7.5-.1z" fill="#29282A"/><path d="M10.1 7.4c-.1.2.5.3 1.4.3h6.8c.8 0 1.5-.2 1.5-.4s-.7-.4-1.5-.4h-6.6c-.8.1-1.5.3-1.6.5zm-.6 14.9c.3-.8-.2-1.4-1-1.4H7c-.8 0-1.5.1-1.5.3 0 .2.7.3 1.5.3h.6c.8 0 1.3.6 1 1.4l-1.5 4.5c-.3.8.2 1.4 1 1.4h5c.8 0 1.5-.1 1.5-.3 0-.2-.7-.3-1.5-.3H8.9c-.8 0-1.3-.6-1-1.4v-.1c.3-.8 1.1-1.4 2-1.4h3.8c.8 0 1.5-.1 1.5-.3 0-.2-.7-.3-1.5-.3h-3.6c-.8 0-1.3-.6-1-1.4l.4-1zM37.9 8.8c.1-.8-.4-1.5-1.3-1.5h-1.8c-.8 0-1.6.1-1.6.3-.1.2.6.3 1.4.3h1.3c.8 0 1.4.7 1.3 1.5l-.2 1.9c-.1.8-.9 1.5-1.7 1.5H29c-.8 0-1.5.1-1.5.3 0 .2.7.3 1.5.3h12.6c.8 0 1.5-.1 1.5-.3 0-.2-.7-.3-1.5-.3h-2.7c-.8 0-1.4-.7-1.3-1.5l.3-2.5zm9 19.4c.1-.8.1-1.2-.2-.8-.2.4-.6 1.4-.7 2.2l-.2.8c-.2.8.1 2 .6 2.7l.2.3c.5.7 1.2 1.5 1.6 1.8.4.3.4 0-.1-.7l-1-1.5c-.5-.7-.7-1.9-.6-2.7l.4-2.1zM57.1 8.4c0-.2-.7-.3-1.5-.3h-2.4c-.8 0-1.2.1-.8.3.4.1 1.4.3 2.2.3h1c.8 0 1.5-.1 1.5-.3zM61 29.7c.2-.8.1-1.1-.1-.7-.3.4-.6 1.1-.7 1.7-.1.5 0 1.5.2 2.1.2.6.7 1.4.9 1.8.3.3.3 0 0-.8l-.2-.8c-.3-.8-.3-2.1-.1-2.9v-.4zm-2.4-7.5c-.8 0-1.5.1-1.5.2s.7.3 1.5.4l7.3.4c.8 0 1.7.4 1.9.7.2.4.6.6.7.5.1-.1 0-.5-.3-1-.3-.4-1.2-.8-2-.9l-7.6-.3zm7.9-14.8c.3.2 1.2.4 2 .4h.3c.8 0 1.5-.1 1.5-.3 0-.2-.7-.3-1.5-.4h-1.4c-.8 0-1.2.1-.9.3zm9.2 15c-.8 0-1.5.2-1.5.4s.7.3 1.5.3l4.1-.2c.8 0 1.4.6 1.3 1.4l-.9 5.8c-.1.8 0 2.1.2 2.9l.1.4c.2.8.7 1.8 1 2.2.3.4.4.2.1-.6l-.6-2c-.2-.8-.3-2.1-.2-2.9l1-6.4c.1-.8-.4-1.5-1.3-1.4l-4.8.1zm1.4-15.1c0 .2.6.4 1.4.6l7.2.8c.8.1 1.5 0 1.5-.1 0-.2-.7-.4-1.5-.5l-7.1-.8c-.8-.2-1.5-.2-1.5 0zm16.3 19.2c0-.8-.6-1.5-1.4-1.5h-2.4c-.8 0-1.5.1-1.5.3 0 .2.7.3 1.5.3h1.7c.8 0 1.5.7 1.4 1.5l-.1 2.9c0 .8.1 2.1.3 2.9l.4 1.7c.2.8.6 1.8.8 2.2.2.4.3.1.1-.7l-.7-3.3c-.2-.8-.3-2.1-.3-3l.2-3.3zM89.6 11c0 .2.7.3 1.5.3h2.3c.8 0 1.8-.2 2.2-.4.4-.2 0-.4-.8-.3l-3.7.1c-.8-.1-1.5.1-1.5.3zm17.5 3.4c0-.8-.2-1.5-.4-1.5s-.3.7-.3 1.5v2.8c0 .8.2 1.1.4.7.2-.4.4-1.5.3-2.3v-1.2zm3.1 11.3c0 .8-.7 1.4-1.5 1.4h-1.8c-.8 0-1.5.7-1.5 1.5v1.8c0 .8.1 1.5.3 1.5.2 0 .3-.7.3-1.5v-1.1c0-.8.7-1.5 1.5-1.5h1.8c.8 0 1.5-.7 1.5-1.5v-.4c0-.8-.1-1.5-.3-1.5-.1 0-.3.6-.3 1.3zm26 1.5c-.1.3-.2 1.2-.1 2l.1 1c.1.8.1 2.2 0 3l-.9 6.2c-.1.8 0 1.5.2 1.5s.5-.7.6-1.5l.8-6.1c.1-.8.1-2.2 0-3l-.2-2c-.2-1-.4-1.4-.5-1.1zm-19.1 10c0 .2.7.3 1.5.3h.1c.8 0 1.5-.1 1.5-.3 0-.2-.7-.3-1.5-.3h-.1c-.8-.1-1.5.1-1.5.3zm2.4-25.4c.3.2 1.3.5 2.1.6l5 .8c.8.3 1.4.5 1.5.3.1-.2-.5-.5-1.3-.8l-6.4-1.1c-.8 0-1.2 0-.9.2zm-.1 5.9c.3-.2-.1-.3-.9-.3s-1.5.2-1.5.4.4.3.9.3 1.2-.2 1.5-.4zm29.5-5.6c0 .4.8.7 1.6.7h.3c.8 0 1.6 0 1.7.1.1 0 .5.3.7.2.2-.1 0-.3-.2-.6-.3-.2-1.2-.4-2-.4s-1.5-.7-1.6-1.5l-.8-7.2c-.1-.8-.3-1.5-.5-1.5s-.2.7-.1 1.5l.6 5.7c.1.8-.5 1.5-1.3 1.5h-1.9c-.8 0-1.5.1-1.5.3 0 .2.7.3 1.5.3h1.9c.9.2 1.6.5 1.6.9zm-.9 14.8c.1.8-.2 2-.6 2.7-.4.7-.7 1.9-.5 2 .2.1.5-.5.7-1.3.2-.7.9-1.4 1-1.4.1 0 .1-.7.1-1.5l-.2-3.1c-.1-.8.6-1.5 1.4-1.5h4.8c.8 0 1.5-.1 1.5-.3 0-.2-.7-.3-1.5-.3h-5.5c-.8 0-1.5.7-1.4 1.5l.2 3.2zm10.7-2.5c0 .2.7.3 1.5.3h3.1c.8 0 1.8-.1 2.1-.3.3-.2-.1-.3-.9-.3h-4.3c-.8 0-1.5.1-1.5.3zm2.9-9c.2.2 1 .3 1.8.3h.7c.8 0 1.5-.1 1.5-.3 0-.2-.7-.3-1.5-.3h-1.4c-.7 0-1.2.2-1.1.3zm-17.4 22.3c0 .2.6.4 1.5.4l7.3.5c.8.1 1.5 0 1.5-.2s-.6-.4-1.5-.4l-7.3-.5c-.8-.1-1.4 0-1.5.2zm44.2-13.6c-.8 0-1.5.2-1.5.3 0 .2.7.3 1.5.3l8.9 1c.8.1 1.5 0 1.6-.2.1-.2-.6-.4-1.4-.4l-9.1-1zM217 12.4c-.2.1-.3.8-.2 1.6 0 0 1.2 3.4.8 4.1-.4.7-.5 1.3-.3 1.4.2.1.6-.5.9-1.2l-.9-4.5c0-.8-.1-1.4-.3-1.4zm-4.9-7.9c-.7 0-1.4-.6-1.6-1.3-.2-.7-.5-1.2-.7-1.1-.2.1-.1.7.1 1.5v.1c.2.8 1 1.4 1.7 1.4s1.4.6 1.7 1.4l.2.7c.3.8.6 1.4.8 1.3.2-.1.1-.7-.2-1.5l-.4-1.1c-.1-.7-.9-1.4-1.6-1.4zm25.2 18.4c-.8 0-1.5.1-1.5.3 0 .2.7.3 1.5.3h8.4c.8 0 1.5-.1 1.5-.3 0-.2-.7-.3-1.5-.3h-8.4zM243.7 8c.2 0 .1-.7-.1-1.5l-.8-2.9c-.2-.8-.5-1.4-.7-1.4-.2 0-.1.7.1 1.5l.8 2.9c.3.8.6 1.4.7 1.4z" opacity=".44" fill="#030303"/><path d="M33 7.8h2.7c.8 0 .8-.1 0-.3l-.7-.1c-.8-.2-1.4 0-1.4.3l-.6.1zM17.1 35.9c-.3-.3-1.2-.5-2-.4l-1.4.2c-.8.1-.8.3 0 .4l2.4.3c.8 0 1.3-.1 1-.5zM44 39.4c-.2-.3-1-.5-1.9-.5l-3.2.3c-.8.1-.8.2 0 .3l4 .4c.8 0 1.3-.2 1.1-.5zm32.5-1.3c-.1-.3.5-.5 1.3-.5h.6c.8 0 .8.2.1.5l-.4.1c-.8.2-1.5.2-1.6-.1zm37.2-2.1c-.1-.4-.8-.7-1.6-.6l-2.2.3c-.8.1-.8.3 0 .4l2.4.4c.9.2 1.5 0 1.4-.5zm3.1 1.6c0-.4.6-.7 1.3-.6.8.1.8.4.1.8-.7.4-1.3.2-1.4-.2zm-23.5-7.3c-.1-.6-.3-.7-.4-.1-.1.6 0 1.7.2 2.5l.1.3c.2.8.4.8.3 0 0-.9-.1-2.1-.2-2.7zm12.3.5c-.1-.3-.2.2-.2 1v.1c0 .8.1 1 .3.4.1-.6.1-1.3-.1-1.5zm-25-.3c0-.6-.1-.6-.3 0-.1.6 0 1.8.3 2.6l.1.3c.3.8.4.8.2-.1v-.2c-.1-.8-.3-2-.3-2.6zm-20.1.5c-.1-.3-.3-.2-.4.1-.1.3 0 .9.3 1.3s.5.4.4-.1c-.1-.5-.2-1.1-.3-1.3zm-14.1-.5c-.1-.6-.4-.6-.6.2-.2.7.1 1.7.6 2.3.5.5.8.5.6-.2-.1-.6-.4-1.6-.6-2.3zm-25.3-.9c-.2-.3.3-.4 1.1-.3l1.9.2c.8.1.8.2 0 .3l-1.1.1c-.8.1-1.7 0-1.9-.3zm115.2.6c.1-.8.4-.8.5 0 .2.8.1 2.1-.1 2.9l-.2.7c-.2.8-.4.8-.4 0v-.6c0-.9.1-2.2.2-3zm-8.4-16.4c0 .3-.6.2-1.2-.3l-.2-.1c-.7-.5-.6-.7.1-.5.7.1 1.3.5 1.3.9zm41.2 21.4c.1-.3-.5-.5-1.3-.5h-.7c-.8 0-.8.2-.1.4l.5.1c.8.4 1.5.3 1.6 0zm-5.3-4.4c-.2-.4-.3-.2-.3.6s.2 1.1.4.8c.2-.4.1-1-.1-1.4zm18.8 5.8c.1-.3-.5-.5-1.3-.5l-2.3.2c-.8.1-.8.2 0 .3l1.9.3c.8.2 1.6 0 1.7-.3zm-2.7-5.7c-.1-.3-.3-.4-.4-.1-.1.3-.1 1 .1 1.6.1.6.3.6.4.1.1-.5.1-1.2-.1-1.6zm37.5-11.2c-.3-.1-.2-.7.1-1.4.3-.7.5-.6.5.2s-.4 1.3-.6 1.2zm-17.8 16.1c.3-.3 1.1-.5 2-.4l3.4.6c.8.1.8.2 0 .3l-4.3.1c-.9 0-1.3-.2-1.1-.6zm34.7 0c.3-.4 1.2-.7 2.1-.5l3.1.6c.8.2.8.3 0 .4l-4.2.2c-.9.1-1.3-.2-1-.7zm1.4-12.6c-.1-.5.4-.8 1.2-.7l2.7.4c.8.1.8.3 0 .5l-2.2.4c-.8.1-1.6-.2-1.7-.6z" fill="#030303"/><path d="M232.1 8.5c-.2-.2-.4-1-.5-1.8-.1-.8.1-.8.3 0l.2.7c.3.8.3 1.3 0 1.1z" opacity=".5" fill="#030303"/><path d="M198.5 26.2l-1.8-.7c-.8-.3-.7-.5.1-.4l1.9.2" fill="#030303"/><path d="M126 32.3c.1-.4.1-1 0-1.4-.1-.4-.9-.7-1.8-.7h-.5c-.8 0-1.7.4-2 .8-.3.4.2 1 1 1.2l1.6.4c.8.2 1.6.1 1.7-.3z" opacity=".5" fill="#030303"/><path d="M124.8 31.2c-.5-.5-.5-1 .1-1 .5 0 1.2.3 1.4.6.3.3.1 1.2-.3 1.8-.4.7-.7.9-.5.4 0-.4-.3-1.2-.7-1.8zM77 7.5c.1-.4.8-.6 1.6-.4h.1c.8.2.8.5 0 .7l-.3.1c-.9.2-1.5 0-1.4-.4zm-34.2 5.7c-.1.3-.9.3-1.7.1h-.2c-.8-.2-.8-.4 0-.4h.6c.9-.1 1.4.1 1.3.3zM15.3 24.9c.1-.3-.4-.5-1.3-.3l-.9.2c-.8.2-.8.4 0 .5l.4.1c.9 0 1.7-.2 1.8-.5z" fill="#030303"/><path d="M17.4 36c-.2-.3-.2-1.1 0-1.9l.2-.7c.2-.8.4-.8.4.1l-.1 1.5c-.1.8-.3 1.3-.5 1zm26.4 3.5c-.2-.1-.2-.8 0-1.4.2-.6.4-.5.4.3s-.2 1.3-.4 1.1zm23.8-15.9c0-.5.2-.2.5.5l.1.2c.3.8.3 1.1 0 .8-.3-.3-.6-1-.6-1.5zM200 36.3c.3-.2.3-1 .1-1.8l-.2-.8c-.2-.8-.4-.8-.4.1v1.4c0 .8.2 1.3.5 1.1zm34.8-.3c.4-.2.4-1 .1-1.7l-1.3-2.8c-.3-.7-.5-.7-.4.1l.6 3.3c.2.8.6 1.3 1 1.1zm1.5-12.9c-.1-.3-.6.1-.9.8l-1.3 2.7c-.4.7-.3.8.2.1l1.4-1.9c.5-.6.7-1.4.6-1.7z" fill="#29282A"/><path d="M213.6 8.6l.1-1.6c0-.8.2-.8.4 0l.5 1.8" fill="#030303"/><path d="M12.4 36.8c-.7-.2-.6-.3.1-.3.7.1 1.8.2 2.4.3.6.1.5.2-.1.3-.7 0-1.8-.1-2.4-.3zm33.5-3.7c-.6-.6-.6-.5-.1.2l.4.5c.5.7 1.2 1.4 1.6 1.7.4.3.4 0-.1-.5s-1.3-1.4-1.8-1.9zm13.5-1.5c-.2 0-.1.5.2 1.1.3.6.4.6.3 0-.1-.6-.3-1.1-.5-1.1zm19.5 6.7c-.6-.1-.4-.2.4-.4l.5-.1c.8-.1 1.2-.1.8.2-.4.2-1.2.4-1.7.3zm13.5-5.6c-.3-.4-.4-.1-.2.5.1.7.5 1.7.8 2.3.3.6.4.4.2-.4l-.1-.3c0-.8-.4-1.8-.7-2.1zm44.9 1.1c-.1-.4-.3-.4-.5.2-.2.6-.3 1.5-.3 2.2 0 .7.2.6.5-.2.3-.7.4-1.7.3-2.2zm-14.9-2.9c-.1-.4-.5-.4-.7.2-.3.5.1 1.2.8 1.6.7.4 1 .3.7-.2-.3-.4-.7-1.1-.8-1.6zm25.1 7.6c-.7-.2-.5-.3.3-.3s2 .2 2.7.4c.7.2.5.4-.3.3-.9 0-2.1-.2-2.7-.4zm16.9-5.8c-.1-.3-.3 0-.5.5s-.2.8.1.5c.3-.3.5-.8.4-1zm16.3-.6c-.1-.3-.3 0-.5.5-.2.6-.2.8.1.5.3-.3.5-.8.4-1zm-2.6 4.9c-.8-.1-.7-.3.1-.4h.3c.8-.1 1.8 0 2.2.3.4.2.3.4-.3.4-.5 0-1.5-.2-2.3-.3zm24-.1c-.7.1-.7-.1 0-.3.7-.2 1.9-.3 2.7-.2l.7.1c.8.1.8.2 0 .2h-.7c-.8.1-2.1.2-2.7.2z" fill="#5A5558"/><path d="M217.5 19.9c-.3.1-.9.8-1.2 1.5-.3.7-.1.7.4.1l.5-.7c.6-.6.7-1.1.3-.9z" fill="#29282A"/><path d="M243.8 8.3c-.3 0-.6-.7-.7-1.5v-.3c-.1-.8.1-.9.5-.1l.2.5c.3.8.3 1.4 0 1.4zm-99.8 3c0-.4.6-.7 1.4-.6h.2c.8 0 .9.3.1.6l-.3.1c-.7.4-1.4.3-1.4-.1zm-37.1 1.4c-.3-.1-.4.4-.3 1.2v.3c.1.8.3.9.5.1.1-.7 0-1.5-.2-1.6zM73.6 23c-.1-.3.5-.5 1.3-.5h2.6c.8 0 .8.1 0 .3l-2.3.5c-.7.1-1.5 0-1.6-.3zm-58.9 5.8c0-.2-.6-.4-1.4-.4h-.4c-.8 0-.8.2 0 .4l.3.1c.7.1 1.4.1 1.5-.1z" fill="#030303"/><path d="M4.3 31.2c-.8 0-1.4.1-1.2.3.1.1.9.3 1.8.3h5.2c.8 0 1.6-.1 1.8-.3.2-.2-.4-.3-1.2-.3H4.3zm25 0c-.8 0-1.4.1-1.2.3.1.1.9.3 1.8.3h5.2c.8 0 1.6-.1 1.8-.3.1-.2-.4-.3-1.2-.3h-6.4zm14.1-.1c-.8 0-1.5.2-1.4.3 0 .1.7.3 1.5.3s1.4-.1 1.5-.3c0-.2-.6-.3-1.4-.3h-.2zM18.3 18.8c-.8 0-1.5.2-1.4.3 0 .1.7.3 1.5.3s1.4-.1 1.5-.3c0-.2-.6-.3-1.4-.3h-.2zm10.4 0c-.8 0-1.5.2-1.4.3 0 .1.7.3 1.5.3s1.4-.1 1.5-.3c.1-.2-.6-.3-1.4-.3h-.2zM7.9 20.5c-.8 0-1.4.2-1.3.3 0 .1.6.3 1.3.3.7 0 1.3-.1 1.3-.3 0-.2-.6-.3-1.3-.3zm12.5 4.2c-.8 0-1.4.1-1.3.3.1.1.8.3 1.7.3H23c.8 0 1.6-.1 1.7-.3.1-.2-.5-.3-1.3-.3h-3zm-5.7-18c-.8 0-1.4.1-1.3.3.1.2.8.3 1.7.3h2.2c.8 0 1.6-.1 1.7-.3.1-.2-.5-.3-1.3-.3h-3zm43.1 24.4c-.8 0-1.5.2-1.4.3.1.1.7.3 1.5.3s1.4-.1 1.5-.3c0-.2-.6-.3-1.4-.3h-.2zm24.6 0c-.8 0-1.4.2-1.3.3 0 .1.6.3 1.3.3.7 0 1.3-.1 1.3-.3.1-.2-.5-.3-1.3-.3zm-20 0c-.8 0-1.4.1-1.4.3.1.1.8.3 1.6.3h1.6c.8 0 1.6-.1 1.6-.3.1-.2-.5-.3-1.4-.3h-2zm13.1 0c-.8 0-1.4.1-1.3.3.1.1.8.3 1.7.3H78c.8 0 1.6-.1 1.7-.3.1-.2-.5-.3-1.3-.3h-2.9zm14.4 0c-.8 0-1.4.2-1.4.3 0 .1.8.3 1.6.3h.7c.8 0 1.6-.1 1.6-.3.1-.2-.6-.3-1.4-.3h-1.1zm28.6 0c-.8 0-1.4.2-1.4.3.1.1.8.3 1.6.3h.7c.8 0 1.6-.1 1.6-.3.1-.2-.6-.3-1.4-.3h-1.1zm20.4 0c-.8 0-1.4.2-1.4.3.1.1.8.3 1.6.3h.3c.8 0 1.5-.1 1.6-.3.1-.2-.6-.3-1.4-.3h-.7zm10.1 0c-.8 0-1.4.1-1.3.3.1.1.9.3 1.7.3h4.1c.8 0 1.6-.1 1.7-.3.1-.2-.4-.3-1.3-.3H149zm12.5 0c-.8 0-1.5.2-1.4.3.1.1.8.3 1.6.3s1.5-.1 1.6-.3c.1-.2-.6-.3-1.4-.3h-.4zm4.5 0c-.8 0-1.4.1-1.3.3.1.2.8.3 1.6.3h1.6c.8 0 1.6-.1 1.6-.3.1-.2-.5-.3-1.3-.3H166zm10 0c-.8 0-1.4.2-1.4.3 0 .1.8.3 1.6.3h.9c.8 0 1.6-.1 1.6-.3.1-.2-.5-.3-1.4-.3H176zm6 0c-.8 0-1.4.2-1.4.3.1.1.8.3 1.6.3h.2c.8 0 1.5-.1 1.6-.3.1-.2-.6-.3-1.4-.3h-.6zm8.4 0c-.8 0-1.4.1-1.2.3.2.2 1 .3 1.8.3h5.8c.8 0 1.6-.1 1.8-.3.2-.2-.4-.3-1.2-.3h-7zm14.2 0c-.8 0-1.4.1-1.2.3.2.1 1 .3 1.8.3h5.8c.8 0 1.6-.1 1.8-.3.2-.2-.4-.3-1.2-.3h-7zm36.1 0c-.8 0-1.4.1-1.2.3.2.1 1 .3 1.8.3h5.8c.8 0 1.6-.1 1.8-.3.2-.2-.4-.3-1.2-.3h-7zm-13.3-24c-.8 0-1.4.1-1.3.3.1.1.8.3 1.7.3h2c.8 0 1.6-.1 1.7-.3.1-.2-.5-.3-1.3-.3h-2.8zm-11.2 0c-.8 0-1.4.1-1.3.3.1.2.9.3 1.7.3h2.7c.8 0 1.6-.1 1.7-.3.1-.2-.5-.3-1.3-.3h-3.5zm-5.7 0c-.8 0-1.4.2-1.4.3.1.1.8.3 1.6.3h1c.8 0 1.6-.1 1.6-.3.1-.2-.5-.3-1.4-.3h-1.4zm1.9 11.7c-.8 0-1.4.1-1.3.3.1.1.8.3 1.7.3h2.1c.8 0 1.6-.1 1.7-.3.1-.2-.5-.3-1.3-.3h-2.9zM177.6 6.3c-.8 0-1.4.2-1.4.3 0 .1.8.3 1.6.3h1c.8 0 1.6-.1 1.6-.3.1-.2-.5-.3-1.4-.3h-1.4zm8.1 0c-.8 0-1.4.2-1.4.3.1.1.8.3 1.6.3h1c.8 0 1.6-.1 1.6-.3.1-.2-.5-.3-1.4-.3h-1.4zm-5.3 5.2c-.6 0-1.1.2-1 .3 0 .1.5.3 1 .3s1-.1 1-.3c0-.3-.4-.4-1-.3zm2.9-1.7c-.8 0-1.3.2-1.3.3 0 .1.6.3 1.3.3.7 0 1.3-.1 1.3-.3 0-.2-.6-.3-1.3-.3zm-36 .3c-.8 0-1.3.2-1.3.3 0 .1.6.3 1.3.3.7 0 1.3-.1 1.3-.3 0-.2-.5-.3-1.3-.3zm9.2 8.4c-.8 0-1.5.2-1.4.3.1.1.8.3 1.6.3s1.5-.1 1.6-.3c.1-.2-.6-.3-1.4-.3h-.4zm-6.4 3c-.8 0-1.4.1-1.3.3.1.1.8.3 1.6.3h1.6c.8 0 1.6-.1 1.6-.3.1-.2-.5-.3-1.3-.3h-2.2zm89.7.7c-.8 0-1.4.1-1.3.3.1.1.8.3 1.6.3h1.6c.8 0 1.6-.1 1.6-.3.1-.2-.5-.3-1.3-.3h-2.2zM90.6 24.5c-.8 0-1.4.2-1.4.3 0 .1.8.3 1.6.3h.4c.8 0 1.5-.1 1.6-.3.1-.2-.6-.3-1.4-.3h-.8zM78 22c-.8 0-1.4.2-1.4.3.1.1.8.3 1.6.3h.4c.8 0 1.5-.1 1.6-.3.1-.2-.5-.3-1.4-.3H78zm-18.1-.2c-.8 0-1.4.2-1.4.3.1.1.8.3 1.6.3h.4c.8 0 1.5-.1 1.6-.3.1-.2-.6-.3-1.4-.3h-.8zm-27.3-9.7c-.8 0-1.4.1-1.3.3.1.2.8.3 1.6.3h1.7c.8 0 1.6-.1 1.6-.3.1-.2-.5-.3-1.3-.3h-2.3zm51.3-4.6c-.8-.1-1.5 0-1.4.1.1.1.7.4 1.5.5l.4.1c.8.1 1.6.1 1.6-.1.1-.2-.5-.4-1.3-.5l-.8-.1zm77.7 16c-.8 0-1.4.2-1.4.3.1.1.8.3 1.6.3h.4c.8 0 1.5-.1 1.6-.3.1-.2-.6-.3-1.4-.3h-.8zm22.8-2.2c-.8 0-1.4.2-1.4.3.1.1.8.3 1.6.3h.4c.8 0 1.5-.1 1.6-.3.1-.2-.6-.3-1.4-.3h-.8zM129.6 6.9c-.8 0-1.3.1-1.2.3.2.1 1 .3 1.8.3h7.7c.8 0 1.7-.1 1.8-.3.1-.2-.3-.3-1.2-.3h-8.9zm-27.2.1c-.8 0-1.3.1-1.1.3.2.1 1 .3 1.9.3h8.1c.8 0 1.7-.1 1.9-.3.2-.2-.3-.3-1.1-.3h-9.7zM101 18.5c-.8 0-1.4.1-1.3.3.1.1.9.3 1.7.3h3c.8 0 1.6-.1 1.7-.3.1-.2-.5-.3-1.3-.3H101zm7.3 0c-.8 0-1.4.1-1.3.3.1.1.9.3 1.7.3h2.7c.8 0 1.6-.1 1.7-.3.1-.2-.5-.3-1.3-.3h-3.5zm15.6 11.1c-.8 0-1.5.2-1.4.3.1.1.7.3 1.5.3s1.4-.1 1.5-.3c0-.2-.7-.3-1.6-.3zm-2.1-18.5c-.8-.1-1.4 0-1.4.1.1.2.8.4 1.6.5l1.1.1c.8.1 1.6.1 1.7-.1.1-.2-.5-.4-1.3-.5l-1.7-.1zm68.1 12.5c-.8-.1-1.4 0-1.4.1.1.2.8.4 1.6.5l1.1.1c.8.1 1.6.1 1.7-.1.1-.2-.5-.4-1.3-.5l-1.7-.1zm-2.6-12.1c-.6 0-1 .2-1 .3 0 .1.5.3 1 .3s.9-.1 1-.3c0-.3-.5-.4-1-.3zm32.3 7.3c-.8 0-1.4.1-1.3.3.1.1.9.3 1.7.3h2.7c.8 0 1.6-.1 1.7-.3.1-.2-.5-.3-1.3-.3h-3.5zm26.1-11.7c-.8 0-1.4.2-1.4.3.1.1.8.3 1.6.3h1.1c.8 0 1.6-.1 1.6-.3.1-.2-.5-.3-1.4-.3h-1.5zm-117.2 24c-.8 0-1.4.1-1.2.3.1.1.9.3 1.7.3h4.8c.8 0 1.6-.1 1.7-.3.1-.2-.4-.3-1.2-.3h-5.8zm-33.3 0c-.8 0-1.3.1-1.2.3.1.2 1 .3 1.8.3h7.3c.8 0 1.6-.1 1.8-.3.2-.2-.3-.3-1.2-.3h-8.5zm12.4 0c-.8 0-1.4.1-1.3.3.1.1.9.3 1.7.3h2.6c.8 0 1.6-.1 1.7-.3.1-.2-.5-.3-1.3-.3h-3.4zm-58.8.1c-.8 0-1.4.2-1.4.3.1.1.8.3 1.6.3h1c.8 0 1.6-.1 1.6-.3.1-.2-.5-.3-1.4-.3h-1.4z" fill="#E0DBD6"/></g></svg>