<svg viewBox="0 0 3082 1046" xmlns="http://www.w3.org/2000/svg" xmlns:xlink="http://www.w3.org/1999/xlink">
    <linearGradient id="a" gradientUnits="userSpaceOnUse" x1="1127.95" x2="1127.95" y1="385.2" y2="432.13">
        <stop offset=".25" stop-color="#3d3938"/>
        <stop offset="1"/>
    </linearGradient>
    <linearGradient id="b" x1="1199.66" x2="1199.66" xlink:href="#a" y1="385.2" y2="432.13"/>
    <linearGradient id="c" x1="1395.89" x2="1395.89" xlink:href="#a" y1="385.2" y2="432.13"/>
    <linearGradient id="d" x1="1541" x2="1541" xlink:href="#a" y1="385.2" y2="432.13"/>
    <linearGradient id="e" x1="1649.28" x2="1649.28" xlink:href="#a" y1="385.2" y2="432.13"/>
    <linearGradient id="f" x1="1720.99" x2="1720.99" xlink:href="#a" y1="385.2" y2="432.13"/>
    <linearGradient id="g" x1="1792.7" x2="1792.7" xlink:href="#a" y1="385.2" y2="432.13"/>
    <linearGradient id="h" x1="1864.41" x2="1864.41" xlink:href="#a" y1="385.2" y2="432.13"/>
    <linearGradient id="i" x1="1936.11" x2="1936.11" xlink:href="#a" y1="385.2" y2="432.13"/>
    <linearGradient id="j" x1="2115.38" x2="2115.38" xlink:href="#a" y1="385.2" y2="432.13"/>
    <linearGradient id="k" x1="1289.3" x2="1289.3" xlink:href="#a" y1="385.2" y2="432.13"/>
    <linearGradient id="l" x1="1056.24" x2="1056.24" xlink:href="#a" y1="385.2" y2="432.13"/>
    <linearGradient id="m" x1="930.75" x2="930.75" xlink:href="#a" y1="385.2" y2="432.13"/>
    <linearGradient id="n" gradientUnits="userSpaceOnUse" x1="1445.79" x2="1445.79" y1="491.91" y2="604.96">
        <stop offset="0" stop-color="#4f1030"/>
        <stop offset="1" stop-color="#190d19"/>
    </linearGradient>
    <linearGradient id="o" x1="2515.76" x2="2515.76" xlink:href="#n" y1="491.91" y2="538.98"/>
    <linearGradient id="p" x1="2610.41" x2="2610.41" xlink:href="#n" y1="491.91" y2="538.98"/>
    <linearGradient id="q" x1="2198.59" x2="2198.59" xlink:href="#n" y1="555.12" y2="600.95"/>
    <linearGradient id="r" x1="1935.43" x2="1935.43" xlink:href="#n" y1="491.91" y2="618.68"/>
    <linearGradient id="s" x1="449.37" x2="449.37" xlink:href="#n" y1="491.91" y2="525.37"/>
    <linearGradient id="t" x1="602.51" x2="602.51" xlink:href="#n" y1="491.91" y2="546.83"/>
    <linearGradient id="u" x1="1708.75" x2="1708.75" xlink:href="#n" y1="491.91" y2="538.98"/>
    <linearGradient id="v" x1="1108.31" x2="1108.31" xlink:href="#n" y1="555.12" y2="652.61"/>
    <linearGradient id="w" x1="2705.19" x2="2705.19" xlink:href="#n" y1="555.12" y2="618.72"/>
    <linearGradient id="x" x1="376.81" x2="376.81" xlink:href="#n" y1="555.12" y2="618.71"/>
    <linearGradient id="y" x1="2803.78" x2="2803.78" xlink:href="#n" y1="622.07" y2="652.83"/>
    <linearGradient id="z" x1="278.22" x2="278.22" xlink:href="#n" y1="622.07" y2="652.83"/>
    <linearGradient id="A" gradientUnits="userSpaceOnUse" x1="1421.84" x2="1421.84" y1="604.96" y2="657.04">
        <stop offset="0" stop-color="#5e0f33"/>
        <stop offset="1" stop-color="#190d19"/>
    </linearGradient>
    <linearGradient id="B" x1="2751.05" x2="2751.05" xlink:href="#A" y1="693.09" y2="730.28"/>
    <linearGradient id="C" x1="688.91" x2="688.91" xlink:href="#A" y1="693.09" y2="776.13"/>
    <linearGradient id="D" x1="947.5" x2="947.5" xlink:href="#A" y1="693.09" y2="776.14"/>
    <linearGradient id="E" x1="2478.34" x2="2478.34" xlink:href="#A" y1="604.96" y2="673.54"/>
    <linearGradient id="F" x1="2247.69" x2="2247.69" xlink:href="#A" y1="604.96" y2="686.81"/>
    <linearGradient id="G" x1="330.95" x2="330.95" xlink:href="#A" y1="693.09" y2="730.24"/>
    <linearGradient id="H" x1="2080.28" x2="2080.28" xlink:href="#A" y1="693.09" y2="727.03"/>
    <linearGradient id="I" x1="1841.3" x2="1841.3" xlink:href="#A" y1="693.09" y2="776.14"/>
    <linearGradient id="J" x1="1707.82" x2="1707.82" xlink:href="#A" y1="604.96" y2="657.04"/>
    <linearGradient id="K" x1="1145.4" x2="1145.4" xlink:href="#A" y1="604.96" y2="677.79"/>
    <linearGradient id="L" gradientUnits="userSpaceOnUse" x1="1541" x2="1541" y1="732.64" y2="812.4">
        <stop offset="0" stop-color="#7b0d3a"/>
        <stop offset="1" stop-color="#190d19"/>
    </linearGradient>
    <linearGradient id="M" gradientUnits="userSpaceOnUse" x1="694.97" x2="694.97" y1="693.75" y2="715.8">
        <stop offset="0" stop-color="#8f2244"/>
        <stop offset="1" stop-color="#303"/>
    </linearGradient>
    <linearGradient id="N" gradientUnits="userSpaceOnUse" x1="552.42" x2="552.42" y1="720.02" y2="456.21">
        <stop offset="0" stop-color="#ffd953"/>
        <stop offset="1" stop-color="#ff791a"/>
    </linearGradient>
    <linearGradient id="O" x1="838.05" x2="838.05" xlink:href="#N" y1="720.02" y2="456.21"/>
    <linearGradient id="P" x1="1113.82" x2="1113.82" xlink:href="#N" y1="720.02" y2="456.21"/>
    <linearGradient id="Q" x1="2241.66" x2="2241.66" xlink:href="#N" y1="720.02" y2="456.21"/>
    <linearGradient id="R" x1="2523.99" x2="2523.99" xlink:href="#N" y1="720.02" y2="456.21"/>
    <linearGradient id="S" x1="356.91" x2="356.91" xlink:href="#N" y1="716.2" y2="452.81"/>
    <linearGradient id="T" x1="2725.08" x2="2725.08" xlink:href="#N" y1="716.2" y2="452.81"/>
    <linearGradient id="U" x1="1684.68" x2="1684.68" xlink:href="#N" y1="720.02" y2="456.21"/>
    <linearGradient id="V" x1="1397.31" x2="1397.31" xlink:href="#N" y1="720.02" y2="456.21"/>
    <linearGradient id="W" x1="1955.88" x2="1955.88" xlink:href="#N" y1="720.02" y2="456.21"/>
    <linearGradient id="X" gradientUnits="userSpaceOnUse" x1="1541" x2="1541" y1="733.62" y2="430.62">
        <stop offset="0" stop-color="#ffc42b"/>
        <stop offset="1" stop-color="#ff481b"/>
    </linearGradient>
    <linearGradient id="Y" gradientUnits="userSpaceOnUse" x1="1541" x2="1541" y1="731.8" y2="432.71">
        <stop offset="0" stop-color="#ff791a"/>
        <stop offset="1" stop-color="#b42d10"/>
    </linearGradient>
    <linearGradient id="Z" gradientUnits="userSpaceOnUse" x1="1541" x2="1541" y1="732.2" y2="427.16">
        <stop offset="0" stop-color="#fff27a"/>
        <stop offset="1" stop-color="#ffc42b"/>
    </linearGradient>
    <linearGradient id="aa" gradientUnits="userSpaceOnUse" x1="1478.49" x2="1478.49" y1="665.95" y2="432.13">
        <stop offset="0" stop-color="#e2611c"/>
        <stop offset="1" stop-color="#8c180c"/>
    </linearGradient>
    <linearGradient id="ab" gradientUnits="userSpaceOnUse" x1="1639.5" x2="1639.5" y1="732.51" y2="433.37">
        <stop offset="0" stop-color="#ff791a"/>
        <stop offset="1" stop-color="#da3a16"/>
    </linearGradient>
    <linearGradient id="ac" gradientUnits="userSpaceOnUse" x1="1598.97" x2="1598.97" y1="724.03" y2="438">
        <stop offset="0" stop-color="#ffa41f"/>
        <stop offset="1" stop-color="#de5b0d"/>
    </linearGradient>
    <linearGradient id="ad" gradientUnits="userSpaceOnUse" x1="1541.03" x2="1541.03" y1="729.56" y2="774.37">
        <stop offset="0" stop-color="#5e0f33"/>
        <stop offset="1" stop-color="#32122a"/>
    </linearGradient>
    <path d="m2092.68 596.63h-1148.56v-293.87h513.72l43.6 82.43h177.62l56.51-82.43h357.11z"/>
    <path d="m2145.28 302.18 23.35-38.73-13-41.59h-890.4l-4.17 30.35-8.25-30.35h-207.47l-7.15 28.58h-17.25l-4.09 15.8-22.91-44.38h-67.62l-51.54 165.44 41.07 56.33h67.54l8.26-31.26h27.28l18.29 31.26h208.47l5-36.25 11.54 36.25h696.49l28.19-58.43h25.5l22.37-43.78h1.94l24.66 102.21h70.12l38.81-56.43zm-601.8 39.24.09-19.74h59.91l.6 19.74z"/>
    <path d="m1145.2 385.19h-55.22l23.61 46.94h52.34z" fill="url(#a)"/>
    <path d="m1163.61 385.19 19.76 46.94h52.34l-16.87-46.94z" fill="url(#b)"/>
    <path d="m1329.29 385.19 11.09 46.94h122.11l-4.33-46.94z" fill="url(#c)"/>
    <path d="m1605.43 385.19-3.37 46.94h-122.12l-3.38-46.94z" fill="url(#d)"/>
    <path d="m1623.84 385.19h55.22l-7.22 46.94h-52.34z" fill="url(#e)"/>
    <path d="m1697.47 385.19-8.19 46.94h52.34l11.08-46.94z" fill="url(#f)"/>
    <path d="m1771.11 385.19-12.05 46.94h52.34l14.93-46.94z" fill="url(#g)"/>
    <path d="m1844.74 385.19-15.9 46.94h52.34l18.79-46.94z" fill="url(#h)"/>
    <path d="m1918.38 385.19-19.76 46.94h52.34l22.65-46.94z" fill="url(#i)"/>
    <path d="m2102.47 385.19-29.4 46.94h52.34l32.29-46.94z" fill="url(#j)"/>
    <path d="m1255.66 385.19 14.94 46.94h52.33l-12.05-46.94z" fill="url(#k)"/>
    <path d="m1016.34 385.19h55.23l24.58 46.94h-52.34z" fill="url(#l)"/>
    <path d="m921.7 432.13-34.22-46.94h55.23l31.32 46.94z" fill="url(#m)"/>
    <path d="m1032.23 321.68h-17.85l-8.09 31.24h-36.29l8.63-31.24h-17.81l-18.11 63.52h-55.23l47.3-151.84h51.22l-8.15 28.58h17.33l-8.14 29.42h35.17l7.62-29.42h17.33l7.15-28.58h51.23l-34 151.84h-55.23zm90.39-88.32h51.23l-28.65 151.84h-55.2zm222 0h119.53l-1.15 28.58h-69.31l-2.19 29.42h70.34l-1.2 30.32h-71.4l-2.33 31.24h72.5l-1.27 32.28h-128.85zm136.61 0h119.53l.88 28.58h-69.31l-.4 91h72.51l1 32.28h-128.88zm211.5 88.32h-17.85l4.18 63.52h-55.22l-6-151.84h119.54l5.85 58h-17.59l1.39 15.05h17.72l8 78.79h-55.23zm-21.73-59.74 1.94 29.42h17.58l-2.19-29.42zm220.11-28.58h119.49l6.89 28.58h-69.3l6.06 29.42h70.35l7.31 30.32h-71.4l13.1 63.52h-55.23zm178.42 28.58h-34.66l-7.14-28.58h119.53l8.9 28.58h-34.65l36.19 123.26h-55.23zm-807.29 75.24h-18l4.46-30.77h-17.72l-12.1 78.79h-55.23l27.32-151.84h51.23l-4.39 28.58h17.33l-4.26 29.42h17.58l7.89-58h51.23l-16.7 151.84h-55.22zm611.76-103.82h-119.55l16.66 151.84h55.22l-6.53-48h18l7 48h55.2zm-40.27 55.52h8.79l4.17 27.68h-11.89l-1.47-10.15h-17.71l1.38 10.15h-11.87l-3.61-27.68h8.79l-1-7.42h-20.42l-2.43-19.52h23.11l2.32 17.06h17.48l-2.47-17.06h23.1l3 19.52h-20.41z"
          fill="#d0c5c0"/>
    <path d="m2860.14 627.57-65.49-117.5h-73.34l-32.23-61.46h-83.82l-10.41 7.98-17.95-37.46h-340.71l-36.76 44.53h-40.73l-12.36-44.53h-87.71l-18.21 29.48h-19.43l-6.37-29.48h-182.13l-10.56 29.48h-23.38l-3.35-29.48h-604.94l-14.4 90.94h-4.42l-23.11-46.41h-21.61l-23.35-44.53h-191.15l4.22 5.79-16.94 59.24-53.7-65.03h-85.83l-12.66 35.16-34.5-35.16h-207.72l-17.95 37.46-10.4-7.98h-83.82l-32.24 61.46h-73.34l-65.48 117.48 61 30.92-21.32 40.64 94.61 44.13h11.36l167.48 78.88 201.71-.06 10.62-32.93h20.66l50.17 32.99h169.31l7.31-32.98h2.22l35.16 32.98h84.98l16.89-97.95 68.72 97.95h583.07l16.53-32.98h20.27l3.88 32.98h172.1l36.37-38.01 7.72 38.01h84.25l72.6-59.1 16.04 59.1h331.43l167.48-78.88h11.47l94.5-44.14-21.35-40.7z"/>
    <path d="m2842.19 622.07-55.18-99h-73.56l-32.24-61.46h-71.54l-19.62 15.05-21.33-44.53h-229.37l-19.13 20.36-7.33-20.36h-70.57l-38.75 46.92-.72-2.39h-54.03l-12.36-44.53h-70.58l-19.23 31.13-.38-1.65h-35.77l-6.37-29.48h-158.79l-10.56 29.48h-21.02l-33.76 104.47-2.84-27.1h-1.67l14.86-47.07-6.76-59.78h-485.19l-6.96 61.55-19.5-61.55h-70.58l-14.4 90.94h-23.57l-23.11-46.41h-21.42l-23.35-44.53h-70.58l-7.24 30.1-19.22-30.1h-70.57l-22.69 79.37-65.53-79.37h-70.57l-16.57 46.04-45.19-46.04h-194.07l-21.34 44.53-19.62-15.05h-71.54l-32.23 61.46h-73.57l-55.18 99 60.69 30.76-21.11 40.26 79.65 37.15h11.39l167.6 78.88h189.3l10.54-32.99h34.05l50.22 32.99h154.89l7.32-32.98h17.79l35.17 32.98h68.93l26.94-156.51h13.5l15.79 25.18-8.31 52.45 55.36 78.88h68.87l4.45-42.67 21.39 42.67h473.58l21.4-42.72 1.02 9.74h33.99l3.86 32.98h154.99l49.7-51.98 10.57 51.98h68.88l84.63-68.81 18.69 68.81h68.89l21.56-13.52 4.27 13.52h223.84l167.48-78.88h11.4l79.64-37.15-21.11-40.26z"
          fill="#190d19"/>
    <path d="m933.85 772.95 1.41-6.15 4.31 3.67-1.44 6.06z" fill="#9b2a5e" opacity=".5"/>
    <path d="m2277.93 772.95-2.71-9.11-5.2 3.66 2.72 9.03z" fill="#9b2a5e" opacity=".5"/>
    <path d="m1364.18 491.91h163.22l-.29 47.07h-129.66l-4.21 65.98h-3.75z" fill="url(#n)" opacity=".75"/>
    <path d="m2597.36 491.91h-163.21l19.07 47.07h81.18z" fill="url(#o)" opacity=".75"/>
    <path d="m2660.84 491.91h-36.27l-64.59 47.07h34.11z" fill="url(#p)" opacity=".75"/>
    <path d="m2170.61 555.12 12.72 45.83 43.24-45.83z" fill="url(#q)" opacity=".75"/>
    <path d="m1980.77 491.91h-90.67l20.07 126.77z" fill="url(#r)" opacity=".75"/>
    <path d="m421.16 491.91 47.44 33.46 8.99-18.76-20.16-14.7z" fill="url(#s)" opacity=".75"/>
    <path d="m557.17 491.91 68.43 54.92 22.25-54.92z" fill="url(#t)" opacity=".75"/>
    <path d="m1627.14 491.91 1.84 47.07h146.51l14.86-47.07z" fill="url(#u)" opacity=".75"/>
    <path d="m1069.96 555.12 63.21 97.49h13.5l-29.87-47.65 9.12-49.84z" fill="url(#v)" opacity=".75"/>
    <path d="m2692.95 555.12-50.14 31.62 15.32 31.98 51.57-30.61h2.18l55.69-32.99z" fill="url(#w)" opacity=".75"/>
    <path d="m314.43 555.12 55.69 32.99h2.17l51.58 30.6 15.32-31.97-50.14-31.62z" fill="url(#x)" opacity=".75"/>
    <path d="m2842.19 622.07-60.69 30.76-16.13-30.76z" fill="url(#y)"/>
    <path d="m239.8 622.07 60.69 30.76 16.14-30.76z" fill="url(#z)"/>
    <path d="m1393.24 604.96 11.38 52.08h43.78l2.04-52.08z" fill="url(#A)"/>
    <path d="m2802.61 693.09h-79.16l-23.96 11.92 12.08 25.23 11.41.04z" fill="url(#B)"/>
    <path d="m605.92 693.09 131.92 83.04h34.07l-69.86-45.89-56.55-37.15z" fill="url(#C)"/>
    <path d="m892.87 693.09 91.47 83.05h17.79l-48.93-45.9 3.33-13.87-24.08-23.28z" fill="url(#D)"/>
    <path d="m2399.78 673.54 23.3-16.5h72.59l79.61-52.08h-171.59l-22.3 17.5z" fill="url(#E)"/>
    <path d="m2207.17 686.81 91.67-81.85h-57.2l-45.1 43.56z" fill="url(#F)"/>
    <path d="m279.38 693.09 79.65 37.15h11.39l12.09-25.23-23.97-11.92z" fill="url(#G)"/>
    <path d="m2060.49 693.09 7.33 33.94 32.25-33.94z" fill="url(#H)"/>
    <path d="m1834.21 776.14 48.17-83.05h-39.58l-42.58 83.05z" fill="url(#I)"/>
    <path d="m1631.56 604.96 2.03 52.08h131.78l18.71-52.08z" fill="url(#J)"/>
    <path d="m1162.46 677.79 11.53-72.83h-57.19z" fill="url(#K)"/>
    <path d="m2544.09 809.12h-223.84l130.08-78.88h261.24zm-123.91-78.88h-80.38l-114.27 78.88h68.89zm-200.95 0h-80.39l-85.51 78.88h68.88zm-150.72 0h-180.86l-49.58 78.88h155zm-251.2 0h-261.24l-2.15 78.88h223.88zm-291.38 0h-261.25l39.54 78.88h223.87zm-291.39 0h-80.39l55.36 78.88h68.87zm-201 0h-80.34l84.09 78.88h68.94zm-150.72 0h-180.77l120.08 78.88h154.87zm-291.39 0h-221l167.57 78.88h189.3z"
          fill="url(#L)"/>
    <path d="m675.18 693.09 32.09 21.81 7.49-21.81z" fill="url(#M)" opacity=".5"/>
    <path d="m384.93 720.84 133.71-281.42h177l-11.64 29.69h35.9l-80.9 214.89h-39.4l-14.48 36.87zm84.78-54.84h117.4l72.89-181.74h-108.45z"
          fill="url(#N)"/>
    <path d="m715.24 720.84 12.51-36.87h-39.43l87.01-244.55h53.11l-75.01 226.53h117.4l63.83-226.53h53.11l-62.87 244.55h-39.43l-10.09 36.87z"
          fill="url(#O)"/>
    <path d="m1165.65 720.84 19.18-124.33h-56.98l8.85-49.49h-74.35l-36.83 173.82h-60.05l66.56-281.42h53.11l-9.5 44.84h54.22l-8.75 46.74h73.83l14.12-91.58h53.11l-36.46 281.42z"
          fill="url(#P)"/>
    <path d="m2346.74 720.84-41.17-124.33h-56.99l-15.16-49.49h-74.36l47.55 173.82h-60.06l-70.03-281.42h53.11l12.26 44.84h54.22l13.94 46.74h73.83l-30.33-91.58h53.11l100.13 281.42z"
          fill="url(#Q)"/>
    <path d="m2456.84 720.84-20.66-54.89h176.1l-31.28-69.44h-170.96l-59.12-157.09h212.44l21.3 44.84h-162.65l25.17 62.76h167.3l82.58 173.82z"
          fill="url(#R)"/>
    <path d="m294.02 683.97 36.68-70.48h-76.54l45.63-82.49h73.83l32.2-61.89h53.84l-7.51 15.15h-36.14l-32.14 62.76h-74.36l-26.97 49.49h75.99l-35.57 69.44h39.14l-8.94 18.02z"
          fill="url(#S)"/>
    <path d="m2728.83 683.97-8.93-18.02h39.13l-35.56-69.44h75.98l-26.97-49.49h-74.35l-32.15-62.76h-36.14l-7.51-15.15h53.84l32.21 61.89h73.82l45.64 82.49h-76.54l36.68 70.48z"
          fill="url(#T)"/>
    <path d="m1566.02 720.84-2.89-281.42h212.44l4.88 44.84h-162.65l2.2 62.76h148.71l4.98 49.49h-151.96l2.43 69.44h176.1l5.98 54.89z"
          fill="url(#U)"/>
    <path d="m1275.75 720.84 30.68-281.42h212.44l-.46 44.84h-162.65l-15.32 181.69h117.4l2.43-69.44h-56.99l2.95-49.49h111.53l-1.79 173.82z"
          fill="url(#V)"/>
    <path d="m1896.32 720.84-5.38-36.84h-39.43l-27.84-214.86h35.89l-4.33-29.69h141.63l6.28 29.69h35.86l49.09 214.86h-39.43l7.81 36.87zm11.56-54.84h117.4l-37-181.69h-108.43z"
          fill="url(#W)"/>
    <path d="m368.55 523.07 5.07 7.93 32.2-61.89-5-7.5zm-128.75 99 14.35-8.59 45.64-82.48-4.79-7.93zm90.9-8.59-14.07 8.59-37.25 71 14.62-9.07zm39.72 116.76 14.51-9.4 133.71-281.42-5.36-7.29zm289.58-245.98-12.13 7.65-66.93 165.09 6.17 8.91zm15.2 208.83 13.12-9.09 87-244.55-6.22-7.29zm52.55-9.09-13 9.12-12.71 37.15 13.19-9.4zm135.85-27 7.23 8.91 63.83-226.53-6.76-7.29zm89.6 73.2 12.27-9.4 66.53-281.38-7.1-7.29zm233.8-207.13 8 7.93 14.12-91.58-7.69-7.29zm-50.3 23.93-10.78 8.1-9.12 49.9 11-8.45zm48.13 49.49-10.83 8.51-19.84 125.28 11.5-9.4zm79.85 133.73 11.07-9.4 30.68-281.42-8-7.29zm132.77-191.22-4.21 66 10-8.45 3-49.49zm62.82 57.53-9.83 8.45-2 52.08 9.44 8.91zm95.8 133.73 10-9.4-2.89-281.42-8.9-7.29zm286.73-37.15 8.71-9.12-27.84-214.86-9.92-7.5zm2.54-261 4.19 29.48 10 7.5-4.33-29.69zm142.94 52.13-7.51 7.65 33 165.13 11.56 8.91m-134.34 18-8.56 9.12 5.27 37.15 8.67-9.4zm185.58-244.55-10.64-7.29 73 298.11 7.71-9.4zm195.53 83.65 11.83 7.93-30.33-91.58-11.23-7.29zm-38.68 23.97-6.85 8.1 15.07 49.9 6.94-8.45zm72.15 49.49-6.73 8.45 41 125.28 6.94-9.4zm98.12 8.45 6.35-8.45-59.12-157.09-11.57-7.29zm220.88-113 5.27-7.65-7.51-15.15-12.66-7.5zm41.41-7.65-5.14 7.65 32.16 63.18 5.18-8.1zm106.5 62.71-4.91 8.1 17.84 33 14 8.4zm-27.76 110 14.28 9-35.56-69.44-13.77-8.4zm-21.27 36.05 5.38-9.12-8.93-18-14.16-8.93zm-273.12 37.15 6.51-9.4-20.66-54.8-13.1-8.91zm130.67-133.69-5.72 8.45 23.24 52.04 13.76 8.91zm-2197.13-49.51 5.18 8.1 32.11-63.21-5.16-7.63zm88.45-85.41-12.66 7.5-7.51 15.15 5.28 7.65zm-100 126.5-13.76 8.4-35.56 69.51 14.27-9zm4 68.93-14.23 8.98-8.93 18 5.38 9.12zm-61.89-101.9-4.92-8.1-27 49.49 14-8.4zm155.28 110.88 13.76-9 73.7-165.13-5.62-7.65zm262-204.34-11.77 7.5-80.94 214.84 6.47 9.12zm-24.31-29.48-11.69 7.29-11.71 29.64 11.89-7.5zm-122.28 288.66 6.35 9.4 14.45-37.15-6.32-9.09zm290.26 0 7.48 9.4 10-37.15-7.4-9.12zm49.52-36.84 7.55 9.12 66-261-10.7 7.29zm-85.22-251.87-11.24 7.29-75.01 226.58 12.7-8.91zm255.83 0-10.37 7.29-9.5 44.84 10.62-7.6zm44.77 44.53-10.42 7.6-8.75 46.74 10.68-7.93zm131.66-44.53-9.77 7.29-36.46 281.42 8.83 9.4zm-246.42 288.71 8.06 9.4 36.42-175.12-7.62-8.1zm502.24-288.71-8.89 7.29-.46 44.84 9 7.65zm-.65 106.87-9.35 8-1.76 173.84 10 9.4zm-186.67 127 10.49-8.91 13.25-165.13-8.42-7.65zm279.56-119 9-8-1.84-47.07-9.34-7.65zm157.16-8-8.45 8 5 49.49 10.39 8.45zm31.84 118-8.77 8.91 6 54.89 11.07 9.4zm-184.84 9 9.43-8.91-2-52.08-9.83-8.45zm159.43-233.82-8 7.29 4.88 44.84 9.9 7.65zm124.29 233.82 8.37-8.91-26.15-165.18-10.25-7.65zm138.39-204.34-7.23 7.5 49.05 214.84 12 9.12zm-42.14-29.48-7.27 7.29 6.28 29.69 7.36-7.5zm52.34 288.71 12 9.4-8-37.15-11.81-9.14zm80-288.71-6.83 7.29 12.26 44.84 6.93-7.6zm66.39 44.53-6.74 7.6 13.93 46.69 6.83-7.93zm110-44.53-6.23 7.29 100.13 281.42 13.39 9.4zm255.82 0-5.35 7.29 21.3 44.84 12.7 7.65zm51.24 106.82-5.44 8 82.58 173.82 14.51 9.4zm-185.77-47.07-12.15-7.67 25.18 62.74 6-8zm247.06-30.3-5 7.5 32.17 61.87 5.07-7.93zm105.79 61.44-4.8 7.93 45.64 82.48 14.35 8.59zm-35.71 90.41 36.71 70.52 14.63 9.12-37.24-71zm-592.23-66.48 47.55 173.82 12.62 9.4-48.62-175.12z"
          fill="url(#X)"/>
    <path d="m472.32 461.61-12.66 7.5h-53.84l-5-7.5zm-177.32 61.46 4.81 7.93h73.83l-5.07-7.93zm1.6 65-14 8.4h76l13.76-8.4zm65.49 77.93 14.17-9h-39l-14.26 9zm151.19-233.87 5.36 7.29h177l11.69-7.29zm206.62 37 11.77-7.5h-35.77l-11.9 7.48zm-236.43 187.87-13.76 9h117.4l-6.17-9zm285.64-224.87 6.22 7.29h53.11l11.24-7.29zm158.79 0 6.76 7.29h53.11l10.7-7.29zm-161.77 224.87-12.7 9h117.4l-7.23-9zm258.8-224.91 7.1 7.29h53.11l10.37-7.29zm61.33 44.53-10.62 7.6h54.22l10.42-7.6zm45.53 46.41-10.68 7.97h73.83l-8-7.93zm69.58-90.94 7.69 7.29h53.11l9.77-7.29zm97 0 8 7.29h212.44l8.89-7.29zm99 106.85 8.78 8h111.53l9.35-8zm-46.44 118.06-10.49 9h117.4l-9.44-9zm203.3-224.91 8.9 7.29h212.44l8-7.29zm74.77 106.91-9 8h148.71l8.45-8zm4.59 118-9.43 8.91h176.1l8.74-8.91zm180.16-195.43 9.92 7.5h35.89l-10-7.5zm31.59-29.48 9.89 7.29h141.63l7.27-7.29zm165.16 29.48-7.36 7.5h35.86l7.23-7.5zm-94.25 195.43-8.37 8.91h117.4l-11.56-8.91zm149.63-224.91 10.64 7.29h53.11l6.83-7.29zm82.94 44.53-6.93 7.6h54.22l6.74-7.6zm68.06 46.41-6.83 7.93h73.83l-11.83-7.93zm25.44-90.94 11.23 7.29h53.11l6.23-7.29zm97 0 11.57 7.29h212.44l5.35-7.29zm113.9 106.91-6 8h167.3l5.44-8zm-30.14 118 13.1 8.91h176.1l-13.76-8.91zm186.59-195.43 12.66 7.5h53.84l5-7.5zm103.78 61.46-5.07 7.93h73.82l4.81-7.93zm-3.75 65 13.77 8.4h76l-14-8.4zm-4 68.93 14.2 9.04h39.1l-14.28-9z"
          fill="url(#Y)"/>
    <path d="m452.15 484.26 5.28 7.65h-36.27l-5.16-7.65zm-142.64 62.74 4.92 8.1h74.62l-5.18-8.1zm-55.36 66.46-14.35 8.59h76.83l14.07-8.59zm39.85 70.54-14.64 9.12h79.16l-5.36-9.12zm90.91 36.87-14.51 9.4h221.07l-6.35-9.4zm214.69-36.87 6.32 9.12h39.58l-6.5-9.12zm-48.05-199.74 5.62 7.65h90.68l12.15-7.65zm136.77 199.74-13.14 9.12h39.58l13-9.12zm197.15 0 7.4 9.12h39.58l-7.55-9.12zm-170.23 36.84-13.19 9.4h180.81l-7.48-9.4zm250.23 0-12.27 9.4h80.38l-8.06-9.4zm96.87-173.84 7.62 8.1h56l10.78-8.1zm65.5 49.49-11 8.45h57.16l10.84-8.45zm37.81 124.33-11.5 9.4h80.39l-8.83-9.4zm110.1 0-11.07 9.4h261.25l-10-9.4zm127.53-124.33-10 8.45h57.2l9.83-8.45zm-47.52-112.25 8.42 7.65h163.22l-9-7.65zm262 0 9.34 7.65h163.21l-9.9-7.65zm3.93 112.25 9.83 8.45h152.52l-10.39-8.45zm-55.69 124.35-10 9.4h261.24l-11.07-9.4zm330.3 0-8.67 9.4h180.86l-12-9.4zm-44.79-36.84-8.71 9.12h39.58l8.56-9.12zm197.15 0 11.83 9.12h39.58l-12-9.12zm-168.81-199.74 10.25 7.65h90.67l7.51-7.65zm279.21 62.74 11.55 8.1h56l6.85-8.1zm89.52 49.49-6.94 8.45h57.2l6.73-8.45zm98.16 124.33-6.94 9.4h80.38l-13.39-9.4zm-200.19 0-7.71 9.4h80.39l-12.62-9.4zm275.45-236.56 12.14 7.65h163.21l-12.7-7.65zm-12 112.25-6.35 8.45h171.59l5.72-8.45zm46.8 124.33-6.51 9.4h261.24l-14.51-9.4zm272-36.87-5.38 9.12h79.16l-14.58-9.09zm22.47-70.49 14.07 8.59h76.82l-14.35-8.59zm-53.14-66.48-5.18 8.1h74.62l4.91-8.1zm-68.29-62.76-5.27 7.65h36.27l5.14-7.65zm-734 103.85h-56.78l.54 4.19h56.88zm-768.14-92.33h-72.7l-.85 3.86h72.85zm-77.2 0h-31.8l-.91 3.86h31.85zm31.52-41.6h-18.25a5 5 0 0 0 -4.83 3.59v.13h22.32zm628.6 3.72h-18.27a3.54 3.54 0 0 0 -3.8 3.6v.13l22.35-.13zm-1204 126h-28.3l-1.94 4.19h28.39zm-15.43-36.88h-23.68l-1.92 4.05h27.94l.06-.14c1-2.14-.08-3.91-2.4-3.91zm455.11 53.73h-24.23a5.89 5.89 0 0 0 -5.42 4.09v.14h28.59zm57.92 83.27h-30l-1.08 4.55h34.57v-.16a3.44 3.44 0 0 0 -3.49-4.39zm512.13 0h-30a4.57 4.57 0 0 0 -4.58 4.39v.16h34.57zm-1023-70.49h-28.7l-2 4.29h28.76zm1558-90.41h-55.18l.81 4h55.27zm137.8 134h-58.48l1.1 4.45h58.59zm458.93-39.27h-57.51l1.94 4.3h57.61zm-1296.6-82.83h-55.48l-.43 4h55.56zm-541.69-39.24h-54.5l-1.38 3.86h54.6zm1536.47 135h-29.37l1.44 4.34h33.8l-.05-.15a6.6 6.6 0 0 0 -5.82-4.23zm182.36 57.8h-35c-2.47 0-3.69 2-2.73 4.41l.06.16h39.58z"
          fill="url(#Z)"/>
    <path d="m512.36 592.31h-9.48l1.89-4.19h9.46zm-11.36 25.46h-9.58l-1.94 4.3h9.6zm-46.66-62.65h9.33l1.92-4h-9.31zm289.08-51.62h9.12l1.37-3.87h-9.1zm63.81 0h9.11l1.27-3.87h-9.1zm136.89 105.72h9.55l1.07-4.25h-9.53zm886.55-12.71h9.51l-.55-4.21h-9.48zm66.49 0h9.5l-.66-4.2h-9.49zm91.41-65.51h9.23l-.81-4h-9.21zm64.6 0h9.23l-.92-4h-9.22zm69.94 135h9.78l-1.11-4.46h-9.78zm68.48 0h9.79l-1.24-4.46h-9.77zm118.51-26.52h9.68l-1.45-4.37h-9.65zm274.74-13h9.62l-1.94-4.31h-9.61zm67.34 0h9.62l-2.06-4.31h-9.61zm-1644.42-122.98h9.11l.92-3.88h-9.1zm118.5 0h9.11l.71-3.87h-9.08zm159.6 39.5h9.28l.44-4h-9.26zm65 0h9.27l.32-4h-9.26zm165.45 150h9.9v-4.44h-9.87zm-435.87-231.39h8.94l.78-3.73h-8.93zm-118.3 231.48h9.86l1.08-4.57h-9.87z"
          fill="#8f1f0b"/>
    <path d="m437.23 469.11h-4.49l3.81-7.5h4.45zm1275.79-37h-4.41l.57 7.29h4.42zm793.94 0h-4.41l3.27 7.29h4.43zm13.59 224.89h-4.87l3.66 8.91h4.89zm-813.86 0h-4.87l.6 8.91h4.9z"
          fill="url(#aa)"/>
    <path d="m611.58 491.91h-4.58l3.25-7.65h4.51zm1083-7.65h-4.52l.52 7.65h4.53zm-1179.53 236.58h-5l-4 9.4h5zm485.45 0h-5l-2.11 9.4h5zm485.45 0h-5l-.23 9.4h5zm225.2 0h-5l.64 9.4h5zm285.27 0h-5l1.74 9.4h5zm510.47 0h-5l3.71 9.4h5zm23.55-236.58h-4.51l3.43 7.65h4.53zm-148.67 236.58h-5l3.22 9.4h5zm391.16-27.75h-4.93l-4.65-9.12h4.93z"
          fill="url(#ab)"/>
    <path d="m1295.58 539h55.56l-.33 4h-55.67zm-543-35.49h54.69l1.28-3.87h-54.6zm-130.39-41.9h-.14a3.48 3.48 0 0 0 -3 1.93l-8.77 20.72h4.51l8.74-20.72a1.31 1.31 0 0 0 -1.34-1.93zm440.36 0h17.89l.79-3.73h-22.32l-9.27 41.74h-31.85l-.92 3.88h109.39l.72-3.87h-72.79zm-59.81 226.91h-29.63l-1.11 4.57h29.69l-6.22 27.75h5l7.18-32.32h-4.94m-86.16-83.41a3.12 3.12 0 0 0 3.22 4.11h24.32l1.09-4.25h-28.6zm-392.3 88a4.06 4.06 0 0 0 -3.44 2.28l-10.79 25.47h5l10.74-25.47a1.52 1.52 0 0 0 -1.48-2.3zm-94.35-218.41a1.24 1.24 0 0 0 1.19 2h.14a3.91 3.91 0 0 0 3.17-2l2.83-5.59h-4.49zm2100.54 9.56-20.19-44.84h-4.43l20.11 44.84zm-2056 108h28.44l1.89-4.19h-28.39l17.15-37h-27.94l-1.92 4h23.33l-29.12 62.65c-1.11 2.37.15 4.3 2.8 4.3h28.81l1.94-4.3h-28.77zm1365.19 0 .55 4.21h57l-.65-4.21zm695.8 100.74-11.2-27h-4.89l11.16 27.14h-39.58l11 27.75h5l-9.22-23.3h35.16c2.48 0 3.68-2 2.67-4.42zm-403.65-31.47 1.11 4.46h58.7l-1.22-4.46zm633 15.77a4.47 4.47 0 0 0 -3.57-2.33h-.15c-1.32 0-1.85 1-1.19 2.33l3.42 6.71h4.93zm-172.3-55.19 1.94 4.31h57.72l-2-4.31zm-215.75 98.77h5l-29.64-85.78h-33.8l1.45 4.37h29zm-674.31-54.88 3.73 54.89h5l-3.83-54.89zm-215.86 27h29.7v-4.44h-34.57l-.8 32.32h5zm502.25 0h-.16a1.93 1.93 0 0 0 -2 2.36l4.72 25.52h5l-4.77-25.52a3 3 0 0 0 -2.79-2.36zm-273.43-231.41v-.11l-1.77-22.06h-4.42l1.72 22.06-22.35.13 1.54 22.65h4.52l-1.34-19h18.34a3.51 3.51 0 0 0 3.77-3.61zm281.62 65.41.81 4h55.37l-.91-4z"
          fill="url(#ac)"/>
    <path d="m1258.28 772.95.8-6.92 1.97 3.59-.78 6.91z" fill="#9b2a5e" opacity=".5"/>
    <path d="m2092.54 772.95-2.34-10.32-3.85 3.65 2.31 10.25z" fill="#9b2a5e" opacity=".5"/>
    <path d="m772.53 776.53h165.6l-4.28-3.53h-166.78zm485.75-3.53h-27.79a7.47 7.47 0 0 0 6.39 3.58h23.39zm537.62 0h-241l-.1 3.61h239.3zm333.67 0h-37l-3.88 3.58h31.28a14.76 14.76 0 0 0 9.63-3.58zm185.43 0h-37l-5.19 3.58h29.85a23.11 23.11 0 0 0 12.34-3.58zm241.82 3.58h56.51l7.61-3.58h-65a1.89 1.89 0 0 0 .83 3.53zm-2088 0h37.9a1.89 1.89 0 0 0 .83-3.58h-46.45z"
          fill="#5e0f33"/>
    <path d="m2555.92 773a33.84 33.84 0 0 1 15.17-3.58h57.41l-7.61 3.58zm-241 0a2 2 0 0 0 -1.07-3.58h-30.76l-5.19 3.58zm-222.41 0h37a2 2 0 0 0 -1.33-3.58h-31.82zm-834.26 0-2-3.58h-23.75a2.35 2.35 0 0 0 -2 3.58h27.79zm-324.43 0-4.28-3.58h-168l5.46 3.58zm-426.33 0a34.91 34.91 0 0 0 -15.41-3.58h-38.52l7.54 3.58zm1288.38 0 1.81-3.61h-98l12.11-39.13h-5l-11.79 39.11h-140l-.1 3.61zm714.72-42.74-28.49 16.19a1.32 1.32 0 0 1 -.61.16 1.24 1.24 0 0 1 -.61-2.31l24.67-14zm-1029.91 0 1.52 14.16a2.47 2.47 0 0 0 2.44 2.19 2.44 2.44 0 0 0 2.43-2.69l-1.38-13.66zm-974.64 0 30.74 16.22a1.14 1.14 0 0 0 .51.13 1.09 1.09 0 0 0 .51-2.05l-26.74-14.3zm487.32 0 15.74 15.84a1.78 1.78 0 0 0 1.23.51 1.73 1.73 0 0 0 1.23-3l-13.18-13.4zm999.76 0-17.28 21.08a1.88 1.88 0 0 0 1.45 3.08 1.89 1.89 0 0 0 1.45-.68l19.4-23.48zm373.67 11.91 18.2-11.91h-5l-14.67 9.61a1.38 1.38 0 0 0 -.4 1.9 1.38 1.38 0 0 0 1.9.38z"
          fill="url(#ad)"/>
</svg>