<svg viewBox="0 0 1518 444" xmlns="http://www.w3.org/2000/svg" xmlns:xlink="http://www.w3.org/1999/xlink">
    <linearGradient id="a" gradientUnits="userSpaceOnUse" x1="759.06" x2="759.06" y1="121.34" y2="273.75">
        <stop offset="0" stop-color="#d0c5c0"/>
        <stop offset=".99" stop-color="#aba09c"/>
    </linearGradient>
    <linearGradient id="b" gradientUnits="userSpaceOnUse" x1="723.54" x2="723.54" y1="142.84" y2="272.62">
        <stop offset="0" stop-color="#ede5e2"/>
        <stop offset="1" stop-color="#d0c5c0"/>
    </linearGradient>
    <linearGradient id="c" x1="435.91" x2="435.91" xlink:href="#b" y1="142.84" y2="272.62"/>
    <linearGradient id="d" x1="507.81" x2="507.81" xlink:href="#b" y1="142.84" y2="272.62"/>
    <linearGradient id="e" x1="1352.72" x2="1352.72" xlink:href="#b" y1="142.84" y2="272.62"/>
    <linearGradient id="f" x1="151.96" x2="151.96" xlink:href="#b" y1="142.84" y2="272.62"/>
    <linearGradient id="g" x1="170.55" x2="170.55" xlink:href="#b" y1="142.83" y2="272.62"/>
    <linearGradient id="h" x1="175.2" x2="175.2" xlink:href="#b" y1="142.84" y2="272.62"/>
    <linearGradient id="i" x1="224.98" x2="224.98" xlink:href="#b" y1="142.84" y2="272.62"/>
    <linearGradient id="j" x1="280.74" x2="280.74" xlink:href="#b" y1="142.84" y2="272.62"/>
    <linearGradient id="k" x1="354.81" x2="354.81" xlink:href="#b" y1="142.84" y2="272.62"/>
    <linearGradient id="l" x1="424.55" x2="424.55" xlink:href="#b" y1="142.84" y2="272.62"/>
    <linearGradient id="m" x1="581.73" x2="581.73" xlink:href="#b" y1="143.09" y2="272.51"/>
    <linearGradient id="n" x1="662.15" x2="662.15" xlink:href="#b" y1="142.84" y2="272.62"/>
    <linearGradient id="o" x1="900.94" x2="900.94" xlink:href="#b" y1="142.84" y2="272.62"/>
    <linearGradient id="p" x1="940.09" x2="940.09" xlink:href="#b" y1="142.84" y2="272.62"/>
    <linearGradient id="q" x1="1039.12" x2="1039.12" xlink:href="#b" y1="142.84" y2="272.62"/>
    <linearGradient id="r" x1="1103.54" x2="1103.54" xlink:href="#b" y1="142.84" y2="272.62"/>
    <linearGradient id="s" x1="1022.77" x2="1022.77" xlink:href="#b" y1="142.84" y2="272.62"/>
    <linearGradient id="t" x1="1053.43" x2="1053.43" xlink:href="#b" y1="142.84" y2="272.62"/>
    <linearGradient id="u" x1="1108.63" x2="1108.63" xlink:href="#b" y1="142.84" y2="272.62"/>
    <linearGradient id="v" x1="1182.22" x2="1182.22" xlink:href="#b" y1="142.84" y2="272.62"/>
    <linearGradient id="w" x1="1366.18" x2="1366.18" xlink:href="#b" y1="142.84" y2="272.62"/>
    <linearGradient id="x" x1="875.6" x2="875.6" xlink:href="#b" y1="142.84" y2="272.62"/>
    <linearGradient id="y" x1="906.25" x2="906.25" xlink:href="#b" y1="142.83" y2="272.62"/>
    <linearGradient id="z" x1="740.66" x2="740.66" xlink:href="#b" y1="142.84" y2="272.62"/>
    <linearGradient id="A" x1="808.15" x2="808.15" xlink:href="#b" y1="142.84" y2="272.62"/>
    <linearGradient id="B" x1="961.46" x2="961.46" xlink:href="#b" y1="142.84" y2="272.62"/>
    <linearGradient id="C" x1="575.1" x2="575.1" xlink:href="#b" y1="142.84" y2="272.62"/>
    <linearGradient id="D" x1="621.08" x2="621.08" xlink:href="#b" y1="142.84" y2="272.62"/>
    <linearGradient id="E" x1="676.28" x2="676.28" xlink:href="#b" y1="142.84" y2="272.62"/>
    <linearGradient id="F" x1="507.64" x2="507.64" xlink:href="#b" y1="142.84" y2="272.62"/>
    <linearGradient id="G" x1="538.31" x2="538.31" xlink:href="#b" y1="142.84" y2="272.62"/>
    <linearGradient id="H" x1="409.53" x2="409.53" xlink:href="#b" y1="142.84" y2="272.62"/>
    <linearGradient id="I" x1="440.19" x2="440.19" xlink:href="#b" y1="142.84" y2="272.62"/>
    <linearGradient id="J" x1="335.94" x2="335.94" xlink:href="#b" y1="142.84" y2="272.62"/>
    <linearGradient id="K" x1="366.6" x2="366.6" xlink:href="#b" y1="142.84" y2="272.62"/>
    <linearGradient id="L" x1="1007.66" x2="1007.66" xlink:href="#b" y1="143.09" y2="272.22"/>
    <linearGradient id="M" x1="476.46" x2="476.46" xlink:href="#b" y1="142.84" y2="272.62"/>
    <linearGradient id="N" x1="190.12" x2="190.12" xlink:href="#b" y1="142.84" y2="272.62"/>
    <linearGradient id="O" x1="296.66" x2="296.66" xlink:href="#b" y1="142.84" y2="272.62"/>
    <linearGradient id="P" x1="315.81" x2="315.81" xlink:href="#b" y1="142.84" y2="272.62"/>
    <linearGradient id="Q" x1="277.82" x2="277.82" xlink:href="#b" y1="142.84" y2="272.62"/>
    <linearGradient id="R" x1="394.55" x2="394.55" xlink:href="#b" y1="142.84" y2="272.62"/>
    <linearGradient id="S" x1="466.53" x2="466.53" xlink:href="#b" y1="142.84" y2="272.62"/>
    <linearGradient id="T" x1="535.61" x2="535.61" xlink:href="#b" y1="142.84" y2="272.62"/>
    <linearGradient id="U" x1="586.05" x2="586.05" xlink:href="#b" y1="142.84" y2="272.62"/>
    <linearGradient id="V" x1="742.56" x2="742.56" xlink:href="#b" y1="142.84" y2="272.62"/>
    <linearGradient id="W" x1="864.48" x2="864.48" xlink:href="#b" y1="142.84" y2="272.62"/>
    <linearGradient id="X" x1="916.01" x2="916.01" xlink:href="#b" y1="142.84" y2="272.62"/>
    <linearGradient id="Y" x1="1288.32" x2="1288.32" xlink:href="#b" y1="142.84" y2="272.62"/>
    <linearGradient id="Z" x1="1377.79" x2="1377.79" xlink:href="#b" y1="142.84" y2="272.62"/>
    <linearGradient id="aa" x1="1200.48" x2="1200.48" xlink:href="#b" y1="142.79" y2="271.98"/>
    <linearGradient id="ab" x1="1198.85" x2="1198.85" xlink:href="#b" y1="142.84" y2="272.61"/>
    <linearGradient id="ac" x1="1236.37" x2="1236.37" xlink:href="#b" y1="142.84" y2="272.62"/>
    <linearGradient id="ad" x1="885.58" x2="885.58" xlink:href="#b" y1="142.97" y2="272.18"/>
    <linearGradient id="ae" x1="1034.34" x2="1034.34" xlink:href="#b" y1="142.84" y2="272.61"/>
    <linearGradient id="af" x1="1056.93" x2="1056.93" xlink:href="#b" y1="142.84" y2="272.61"/>
    <linearGradient id="ag" x1="1074.75" x2="1074.75" xlink:href="#b" y1="142.84" y2="272.61"/>
    <linearGradient id="ah" x1="1074.41" x2="1074.41" xlink:href="#b" y1="142.84" y2="272.62"/>
    <linearGradient id="ai" x1="1042.23" x2="1042.23" xlink:href="#b" y1="142.84" y2="272.62"/>
    <linearGradient id="aj" x1="664.89" x2="664.89" xlink:href="#b" y1="142.84" y2="272.62"/>
    <linearGradient id="ak" x1="803.46" x2="803.46" xlink:href="#b" y1="142.84" y2="272.62"/>
    <linearGradient id="al" x1="970.8" x2="970.8" xlink:href="#b" y1="142.84" y2="272.62"/>
    <linearGradient id="am" x1="156.03" x2="156.03" xlink:href="#b" y1="142.84" y2="272.62"/>
    <linearGradient id="an" x1="206.58" x2="206.58" xlink:href="#b" y1="142.84" y2="272.62"/>
    <linearGradient id="ao" x1="260.1" x2="260.1" xlink:href="#b" y1="142.84" y2="272.62"/>
    <linearGradient id="ap" x1="1211.59" x2="1211.59" xlink:href="#b" y1="142.84" y2="272.62"/>
    <linearGradient id="aq" x1="1250.25" x2="1250.25" xlink:href="#b" y1="142.84" y2="272.62"/>
    <linearGradient id="ar" x1="1155.1" x2="1155.1" xlink:href="#b" y1="142.84" y2="272.62"/>
    <linearGradient id="as" x1="661.49" x2="661.49" xlink:href="#b" y1="142.84" y2="272.62"/>
    <linearGradient id="at" x1="771.38" x2="771.38" xlink:href="#b" y1="142.84" y2="272.62"/>
    <linearGradient id="au" x1="920.2" x2="920.2" xlink:href="#b" y1="142.84" y2="272.62"/>
    <linearGradient id="av" x1="1065.09" x2="1065.09" xlink:href="#b" y1="142.84" y2="272.62"/>
    <path d="m1381.75 191.43 23.35-38.73-12.95-41.58h-890.41l-4.16 30.35-8.26-30.35h-207.51l-7.14 28.57h-17.26l-4.09 15.8-22.9-44.37h-67.63l-51.54 165.43 41.07 56.33h67.54l8.26-31.25h27.28l18.29 31.25h208.47l5-36.25 11.53 36.25h696.49l28.2-58.43h25.5l23.68-46.35 25.29 104.78h70.11l38.82-56.42zm-601.75 39.25.08-19.75h59.92l.61 19.75z"/>
    <path d="m381.68 274.45h-55.23l23.62 46.93h52.33z" fill="#3d3938"/>
    <path d="m400.09 274.45 19.76 46.93h52.33l-16.87-46.93z" fill="#3d3938"/>
    <path d="m565.77 274.45 11.08 46.93h122.12l-4.34-46.93z" fill="#3d3938"/>
    <path d="m841.9 274.45-3.37 46.93h-122.12l-3.37-46.93z" fill="#3d3938"/>
    <path d="m860.31 274.45h55.23l-7.23 46.93h-52.33z" fill="#3d3938"/>
    <path d="m933.95 274.45-8.2 46.93h52.34l11.08-46.93z" fill="#3d3938"/>
    <path d="m1007.58 274.45-12.04 46.93h52.33l14.94-46.93z" fill="#3d3938"/>
    <path d="m1081.22 274.45-15.9 46.93h52.33l18.79-46.93z" fill="#3d3938"/>
    <path d="m1154.85 274.45-19.75 46.93h52.33l22.65-46.93z" fill="#3d3938"/>
    <path d="m1338.94 274.45-29.39 46.93h52.33l32.29-46.93z" fill="#3d3938"/>
    <path d="m492.13 274.45 14.94 46.93h52.34l-12.05-46.93z" fill="#3d3938"/>
    <path d="m252.82 274.45h55.23l24.57 46.93h-52.33z" fill="#3d3938"/>
    <path d="m158.17 321.38-34.22-46.93h55.23l31.32 46.93z" fill="#3d3938"/>
    <path d="m268.7 210.93h-17.85l-8.09 31.25h-36.25l8.64-31.25h-17.85l-18.12 63.52h-55.18l47.3-151.83h51.23l-8.15 28.57h17.33l-8.13 29.43h35.12l7.62-29.43h17.32l7.15-28.57h51.21l-34 151.83h-55.18zm90.4-88.31h51.23l-28.65 151.83h-55.23zm222 0h119.53l-1.13 28.57h-69.31l-2.19 29.43h70.35l-1.2 30.31h-71.42l-2.33 31.25h72.5l-1.27 32.27h-128.86zm136.61 0h119.53l.88 28.57h-69.31l-.4 91h72.5l1 32.27h-128.91zm211.51 88.31h-17.86l4.18 63.52h-55.23l-6-151.83h119.54l5.85 58h-17.58l1.38 15h17.72l7.95 78.79h-55.17zm-21.79-59.74 1.94 29.43h17.63l-2.2-29.43zm220.12-28.57h119.53l6.9 28.57h-69.31l6.07 29.43h70.34l7.32 30.31h-71.4l13.1 63.52h-55.23zm178.45 28.57h-34.7l-7.15-28.57h119.54l8.9 28.57h-34.66l36.24 123.26h-55.23zm-807.34 75.24h-18l4.45-30.77h-17.7l-12.1 78.79h-55.22l27.31-151.83h51.23l-4.39 28.57h17.33l-4.26 29.43h17.59l7.88-58h51.22l-16.64 151.83h-55.23zm611.8-103.81h-119.53l16.65 151.83h55.23l-6.53-48h18l7 48h55.22zm-40.26 55.51h8.8l4.17 27.68h-11.87l-1.47-10.15h-17.72l1.38 10.15h-11.89l-3.6-27.68h8.78l-1-7.42h-20.41l-2.43-19.52h23.06l2.32 17.06h17.48l-2.47-17.06h23.1l3.06 19.52h-20.42z"
          fill="url(#a)"/>
    <path d="m357.56 242.18-6.56 32.27h-6.14l6.66-32.27z" fill="#998f8b"/>
    <path d="m1042.33 258.16 2.07 16.29h-6.14l-2.02-16.29z" fill="#998f8b"/>
    <path d="m351 274.45 6.95 14.61h-6.04l-7.05-14.61z" fill="#262423"/>
    <path d="m427.37 258.16-2.74 16.29h-6.13l2.78-16.29z" fill="#998f8b"/>
    <path d="m528.95 274.45 4.05 14.61h-6.03l-4.16-14.61z" fill="#262423"/>
    <path d="m590.31 274.45 6.01 28.76h-5.94l-6.2-28.76z" fill="#262423"/>
    <path d="m198.38 303.21-3.12-4.66h-17.91l3.21 4.66z" fill="#262423"/>
    <path d="m1162.62 298.55h-17.91l-1.96 4.66h17.81z" fill="#262423"/>
    <path d="m947.65 298.55h-17.91l-.81 4.66h17.8z" fill="#262423"/>
    <path d="m653.73 289.06h6.03l-1.95-14.61h-6.13z" fill="#262423"/>
    <path d="m1320.93 303.21 2.92-4.66h17.91l-3.02 4.66z" fill="#262423"/>
    <path d="m323.11 303.21-2.45-4.66h-17.91l2.54 4.66z" fill="#262423"/>
    <path d="m1017.26 200.72-.6-5.06h-17.72l.55 5.06z" fill="#998f8b"/>
    <path d="m300.92 175.65 6.98-29.28h-23.05l-1.21 4.82h17.33l-5.9 24.46h-35.09l-1.28 4.97h70.34l1.11-4.97z"
          fill="#998f8b"/>
    <path d="m1355.22 122.62h-5.69l8.4 28.57h5.78z" fill="#998f8b"/>
    <path d="m1225.9 180.62h-5.86l6.69 30.31h5.95z" fill="#998f8b"/>
    <path d="m913.41 242.18-.34-5.28h-24.11l2.03 37.55h6.14l-1.84-32.27z" fill="#998f8b"/>
    <path d="m163.85 146.37h51.86l-1.37 4.82h-51.99z" fill="#998f8b"/>
    <path d="m407.79 231.66.94-5.22h53.96l-.8 5.22z" fill="#998f8b"/>
    <path d="m1327.49 231.66-1.4-5.22h53.96l1.54 5.22z" fill="#998f8b"/>
    <path d="m1077.31 247.48-.77-5.3h54.38l.91 5.3z" fill="#998f8b"/>
    <path d="m534.64 226.44h-35.98l-.71 5.22h30.06l-5.2 42.79h6.14z" fill="#998f8b"/>
    <path d="m891.78 180.62-.29-4.97h-11.69l-2.72-53.03h-5.69l1.85 38.28h-17.41l.19 4.89h17.46l.71 14.83z"
          fill="#998f8b"/>
    <path d="m891.78 180.62-.29-4.97h-11.69l-2.72-53.03h-5.69l1.85 38.28h-17.41l.19 4.89h17.46l.71 14.83z"
          fill="#998f8b"/>
    <path d="m188.38 242.18 1.51-5.28h-30.13l7.78-25.97h-23.8l-1.6 5.14h17.9l-12.75 42.09h6.09 30.44l1.53-5.35h-30.36l3.19-10.63z"
          fill="#998f8b"/>
    <path d="m1219.32 151.19-4.29-19.14h-28.6l-1.97-9.43h-5.69l2.92 14.18h28.67l3.18 14.39z" fill="#998f8b"/>
    <path d="m577.23 160.9h17.41l-.45 4.89h-17.46z" fill="#998f8b"/>
    <path d="m569.56 236.9-.54 5.28h18.13l-2.97 32.27h6.13l3.35-37.55z" fill="#998f8b"/>
    <path d="m474.98 146.37h-17.28l-.78 4.82h17.32z" fill="#998f8b"/>
    <path d="m561.41 146.37h-51.86l-.65 4.82h51.98z" fill="#998f8b"/>
    <path d="m1044.4 274.45h-6.14l-8.37 28.76h5.95z" fill="#262423"/>
    <path d="m931.14 236.9.4 5.28h18.12l-.43-5.28z" fill="#998f8b"/>
    <path d="m716.38 165.79-.15 4.92h17.49l-1.22 55.73h-17.99l-.16 5.22h24.05l1.16-60.95h29.16l.02-4.92z"
          fill="#998f8b"/>
    <path d="m1173.21 242.18-5.98-31.25h-23.8l.92 5.14h17.9l4.92 26.11z" fill="#998f8b"/>
    <path d="m774.4 274.45h-6.13l.06-13.6h6.09z" fill="#998f8b"/>
    <path d="m774.45 289.06h-6.04l-.14-14.61h6.13z" fill="#262423"/>
    <path d="m895.18 289.06h-6.04l1.85-14.61h6.14z" fill="#262423"/>
    <path d="m382.8 146.37-3.9 19.42h5.82l2.89-14.6h17.32l.91-4.82z" fill="#998f8b"/>
    <path d="m671.74 242.18-.55 10.63h-18.22l-1.29 21.64h6.13l.93-16.29h18.27l.77-15.98z" fill="#998f8b"/>
    <path d="m840 300.88.17-2.33h-17.92l-.12 2.33z" fill="#262423"/>
    <path d="m424.63 274.45 11.32 28.76h-5.94l-11.51-28.76z" fill="#262423"/>
    <g fill="#6b6562">
        <path d="m167.54 210.93-.77 2.57h-23.83l.8-2.57z"/>
        <path d="m159.76 236.9 2.22 2.64h27.16l.75-2.64z"/>
        <path d="m154.99 252.81 2.24 2.67h27.36l.76-2.67z"/>
        <path d="m163.85 146.37h51.86l-.69 2.41h-51.92z"/>
        <path d="m284.85 146.37-.6 2.41h23.07l.58-2.41z"/>
        <path d="m300.97 151.19 2.31 2.42-5.88 24.52h-38.06l.64-2.48h35.09z"/>
        <path d="m300.92 175.65 2.33 2.48h26.35l.55-2.48z"/>
        <path d="m160.04 216.07 2.2 2.58-11.9 39.51h-3.05z"/>
        <path d="m378.9 165.79h2.91l3.39-17.01h20.19l.45-2.41h-23.04z"/>
        <path d="m357.56 242.18-.54 2.64h-3.02l-6.07 29.63h-3.07l6.66-32.27z"/>
        <path d="m456.92 151.19h2.88l.39-2.41h14.42l.37-2.41h-17.28z"/>
        <path d="m509.55 146.37h51.86l-.27 2.41h-51.91z"/>
        <path d="m408.73 226.44h53.96l-.4 2.6h-54.03z"/>
        <path d="m427.37 258.16h-6.09l-2.78 16.29h3.06l2.31-13.6h3.05z"/>
        <path d="m498.66 226.44-.35 2.6h36.02l.31-2.6z"/>
        <path d="m528.01 231.66 2.69 2.62-4.82 40.17h-3.07z"/>
        <path d="m577.23 160.9-.25 2.45h17.43l.23-2.45z"/>
        <path d="m569.56 236.9-.27 2.64h24.14l.23-2.64z"/>
        <path d="m587.15 242.18 2.78 2.64-2.69 29.63h-3.06z"/>
        <path d="m674.76 242.18h-3.02l-.55 10.63h-18.22l-1.29 21.64h3.06l1.11-18.97h18.25z"/>
        <path d="m716.3 168.25h52.43l.01-2.46h-52.36z"/>
        <path d="m733.72 170.71 2.87 2.47-1.14 55.86h-21.02l.08-2.6h17.99z"/>
        <path d="m873.24 160.9h-17.41l.09 2.45h14.53z"/>
        <path d="m891.78 180.62-.29-4.97h-11.69l-2.72-53.03h-2.84l2.76 55.51h11.71l.14 2.49z"/>
        <path d="m913.24 239.54-.17-2.64h-24.11l.14 2.64z"/>
        <path d="m895.29 242.18-2.88 2.64 1.65 29.63h3.07z"/>
        <path d="m931.14 236.9.2 2.64h15.09l.21 2.64h3.02l-.43-5.28z"/>
        <path d="m999.22 198.19-.28-2.53h17.72l.6 5.06h-2.96l-.3-2.53z"/>
        <path d="m1076.54 242.18h54.38l.46 2.64h-54.45z"/>
        <path d="m1036.57 260.85h3.05l1.71 13.6h3.07l-2.07-16.29h-6.09z"/>
        <path d="m1143.89 213.5h20.85l5.45 28.68h3.02l-5.98-31.25h-23.8z"/>
        <path d="m1184.46 122.62h-2.85l2.46 11.8h28.63l3.73 16.77h2.89l-4.29-19.14h-28.6z"/>
        <path d="m1225.9 180.62h-2.93l6.74 30.31h2.97z"/>
        <path d="m1326.09 226.44h53.96l.77 2.6h-54.03z"/>
        <path d="m1352.38 122.62 8.44 28.57h2.89l-8.49-28.57z"/>
        <path d="m768.34 258.16-.01 2.69h6.09l.01-2.69z"/>
    </g>
    <path d="m305.29 303.21-2.54-4.66h2.98l1.27 2.33 14.88-.01 1.23 2.34z" fill="#171615"/>
    <path d="m347.93 274.45h-3.07l7.05 14.61h6.04l-1.14-2.4h-3.03z" fill="#171615"/>
    <path d="m525.88 274.45 3.43 12.21h3.03l.66 2.4h-6.03l-4.16-14.61z" fill="#171615"/>
    <path d="m587.24 274.45 5.61 26.43h2.98l.49 2.33h-5.94l-6.2-28.76z" fill="#171615"/>
    <path d="m654.74 274.45 1.68 12.21h3.02l.32 2.4h-6.03l-2.05-14.61z" fill="#171615"/>
    <path d="m1041.33 274.45-7.78 26.43h-2.98l-.68 2.33h5.95l8.56-28.76z" fill="#171615"/>
    <path d="m1160.56 303.21 2.06-4.66h-2.98l-1.03 2.33h-14.89l-.97 2.33z" fill="#171615"/>
    <path d="m1322.38 300.88h14.89l1.51-2.33h2.98l-3.02 4.66h-17.81z" fill="#171615"/>
    <path d="m177.35 298.55 3.21 4.66h17.82l-1.56-2.33h-14.88l-1.6-2.33z" fill="#171615"/>
    <path d="m894.06 274.45-1.59 12.21h-3.02l-.31 2.4h6.04l1.95-14.61z" fill="#171615"/>
    <path d="m768.39 286.66.02 2.4h6.04l-.01-2.4z" fill="#171615"/>
    <path d="m822.13 300.88-.12 2.33h17.83l.16-2.33z" fill="#171615"/>
    <path d="m421.56 274.45h-3.06l11.51 28.76h5.94l-.91-2.33h-2.98z" fill="#171615"/>
    <path d="m929.33 300.88-.4 2.33h17.8l.92-4.66h-2.98l-.45 2.33z" fill="#171615"/>
    <path d="m180.56 303.21 1.59 2.31h17.77l-1.54-2.31z" fill="#6b6562"/>
    <path d="m305.29 303.21h17.82l1.21 2.31h-17.77z" fill="#6b6562"/>
    <path d="m351.91 289.06 1.16 2.39h6.02l-1.14-2.39z" fill="#6b6562"/>
    <path d="m526.97 289.06.67 2.39h6.02l-.66-2.39z" fill="#6b6562"/>
    <path d="m590.38 303.21.5 2.31h5.92l-.48-2.31z" fill="#6b6562"/>
    <path d="m653.73 289.06.33 2.39h6.02l-.32-2.39z" fill="#6b6562"/>
    <path d="m928.93 303.21h17.8l-.44 2.31h-17.77z" fill="#6b6562"/>
    <path d="m1029.89 303.21-.67 2.31h5.93l.69-2.31z" fill="#6b6562"/>
    <path d="m1160.56 303.21-1.02 2.31h-17.77l.98-2.31z" fill="#6b6562"/>
    <path d="m1320.93 303.21-1.45 2.31h17.77l1.49-2.31z" fill="#6b6562"/>
    <path d="m768.41 289.06.03 2.39h6.02l-.01-2.39z" fill="#6b6562"/>
    <path d="m895.18 289.06-.32 2.39h-6.02l.3-2.39z" fill="#6b6562"/>
    <path d="m732.56 223.83h-17.97l-.08 2.61h17.99z" fill="url(#b)"/>
    <path d="m408.73 226.44h53.96l.4-2.61h-53.9z" fill="url(#c)"/>
    <path d="m534.95 223.83h-53.9l-.37 2.61h53.96z" fill="url(#d)"/>
    <path d="m1379.29 223.83h-53.9l.7 2.61h53.96z" fill="url(#e)"/>
    <path d="m123.95 274.45h55.23l.79-2.77h-55.15z" fill="url(#f)"/>
    <path d="m154.99 252.81h30.36l.76-2.67h-30.32z" fill="url(#g)"/>
    <path d="m159.76 236.9h30.13l.75-2.62h-30.1z" fill="url(#h)"/>
    <path d="m206.51 242.18h36.25l.68-2.64h-36.2z" fill="url(#i)"/>
    <path d="m252.82 274.45h55.23l.62-2.77h-55.16z" fill="url(#j)"/>
    <path d="m358.1 239.54h-6.04l-.54 2.64h6.04z" fill="url(#k)"/>
    <path d="m427.82 255.48h-6.08l-.46 2.68h6.09z" fill="url(#l)"/>
    <path d="m593.9 234.28h-24.08l-.26 2.62h24.1z" fill="url(#m)"/>
    <path d="m671.33 250.14h-18.2l-.16 2.67h18.22z" fill="url(#n)"/>
    <path d="m888.96 236.9h24.11l-.18-2.62h-24.07z" fill="url(#o)"/>
    <path d="m949.01 234.28h-18.06l.19 2.62h18.09z" fill="url(#p)"/>
    <path d="m1035.9 255.48.34 2.68h6.09l-.34-2.68z" fill="url(#q)"/>
    <path d="m1130.47 239.54h-54.31l.38 2.64h54.38z" fill="url(#r)"/>
    <path d="m1007.28 271.68.3 2.77h30.68l-.34-2.77z" fill="url(#s)"/>
    <path d="m1044.06 271.68.34 2.77h18.41l-.38-2.77z" fill="url(#t)"/>
    <path d="m1080.82 271.68.4 2.77h55.22l-.47-2.77z" fill="url(#u)"/>
    <path d="m1154.35 271.68.5 2.77h55.23l-.57-2.77z" fill="url(#v)"/>
    <path d="m1393.35 271.68h-55.15l.74 2.77h55.23z" fill="url(#w)"/>
    <path d="m860.2 271.68.11 2.77h30.68l-.15-2.77z" fill="url(#x)"/>
    <path d="m896.97 271.68.16 2.77h18.41l-.19-2.78z" fill="url(#y)"/>
    <path d="m713.04 274.45h55.23l.01-2.77h-55.16z" fill="url(#z)"/>
    <path d="m774.41 271.68-.01 2.77h67.5l-.08-2.77z" fill="url(#A)"/>
    <path d="m933.74 271.68.21 2.77h55.22l-.28-2.77z" fill="url(#B)"/>
    <path d="m565.77 274.45h18.41l.25-2.77h-18.38z" fill="url(#C)"/>
    <path d="m590.31 274.45h61.37l.16-2.77h-61.28z" fill="url(#D)"/>
    <path d="m657.81 274.45h36.82l.11-2.77h-36.77z" fill="url(#E)"/>
    <path d="m492.13 274.45h30.68l.34-2.77h-30.64z" fill="url(#F)"/>
    <path d="m528.95 274.45h18.41l.3-2.77h-18.38z" fill="url(#G)"/>
    <path d="m400.09 274.45h18.41l.47-2.77h-18.38z" fill="url(#H)"/>
    <path d="m424.63 274.45h30.68l.43-2.77h-30.64z" fill="url(#I)"/>
    <path d="m326.45 274.45h18.41l.57-2.77h-18.38z" fill="url(#J)"/>
    <path d="m351 274.45h30.68l.52-2.77h-30.64z" fill="url(#K)"/>
    <path d="m1016.36 193.14h-17.7l.28 2.52h17.72z" fill="url(#L)"/>
    <path d="m485.5 193.14h-17.7l-.39 2.52h17.72z" fill="url(#M)"/>
    <path d="m216.39 143.97h-51.79l-.75 2.4h51.86z" fill="url(#N)"/>
    <path d="m308.47 143.97h-23.02l-.6 2.4h23.05z" fill="url(#O)"/>
    <path d="m300.92 175.65h29.23l.56-2.47h-29.21z" fill="url(#P)"/>
    <path d="m295.67 173.18h-35.05l-.64 2.47h35.09z" fill="url(#Q)"/>
    <path d="m406.3 143.97h-23.02l-.48 2.4h23.04z" fill="url(#R)"/>
    <path d="m475.35 143.97h-17.26l-.39 2.4h17.28z" fill="url(#S)"/>
    <path d="m509.55 146.37h51.86l.26-2.4h-51.79z" fill="url(#T)"/>
    <path d="m594.86 158.47h-17.39l-.24 2.43h17.41z" fill="url(#U)"/>
    <path d="m768.75 163.35h-52.3l-.07 2.44h52.36z" fill="url(#V)"/>
    <path d="m873.12 158.47h-17.39l.1 2.43h17.41z" fill="url(#W)"/>
    <path d="m924.75 151.19-.18-2.41h-17.3l.15 2.41z" fill="url(#X)"/>
    <path d="m1270.69 148.78.61 2.41h34.65l-.64-2.41z" fill="url(#Y)"/>
    <path d="m1392.59 151.19-.75-2.41h-28.85l.72 2.41z" fill="url(#Z)"/>
    <path d="m1215.03 132.05-.53-2.37h-28.56l.49 2.37z" fill="url(#aa)"/>
    <path d="m1213.54 151.19-.53-2.41h-28.85l.5 2.41z" fill="url(#ab)"/>
    <path d="m1253.97 151.19-.58-2.41h-34.61l.54 2.41z" fill="url(#ac)"/>
    <path d="m891.49 175.65-.14-2.47h-11.68l.13 2.47z" fill="url(#ad)"/>
    <path d="m1046.04 151.19-.33-2.41h-23.07l.3 2.41z" fill="url(#ae)"/>
    <path d="m1065.84 168.25-.36-2.46h-17.45l.33 2.46z" fill="url(#af)"/>
    <path d="m1086.47 151.19-.37-2.41h-23.08l.35 2.41z" fill="url(#ag)"/>
    <path d="m1070.2 178.13h8.78l-.37-2.48h-8.77z" fill="url(#ah)"/>
    <path d="m1038 178.13h8.78l-.33-2.48h-8.78z" fill="url(#ai)"/>
    <path d="m630.19 151.19h69.31l.09-2.41h-69.22z" fill="url(#aj)"/>
    <path d="m838.04 148.78h-69.22l-.01 2.41h69.31z" fill="url(#ak)"/>
    <path d="m979.7 180.62-.25-2.49h-17.56l.23 2.49z" fill="url(#al)"/>
    <path d="m168.31 208.37h-23.77l-.8 2.56h23.8z" fill="url(#am)"/>
    <path d="m215.86 208.37h-17.83l-.73 2.56h17.85z" fill="url(#an)"/>
    <path d="m269.34 208.37h-17.83l-.66 2.56h17.85z" fill="url(#ao)"/>
    <path d="m1196.45 208.37.53 2.56h29.75l-.56-2.56z" fill="url(#ap)"/>
    <path d="m1232.11 208.37.57 2.56h35.71l-.62-2.56z" fill="url(#aq)"/>
    <path d="m1166.74 208.37h-23.78l.47 2.56h23.8z" fill="url(#ar)"/>
    <path d="m625.73 210.93h71.41l.1-2.56h-71.32z" fill="url(#as)"/>
    <path d="m774.43 255.48h-6.08l-.01 2.68h6.09z" fill="url(#at)"/>
    <path d="m911.19 208.37.17 2.56h17.85l-.19-2.56z" fill="url(#au)"/>
    <path d="m1055.92 223.83.36 2.61h17.99l-.38-2.61z" fill="url(#av)"/>
    <path d="m822.01 303.21-.11 2.31h17.77l.17-2.31z" fill="#6b6562"/>
    <path d="m430.01 303.21.93 2.31h5.92l-.91-2.31z" fill="#6b6562"/>
    <path d="m198.38 303.21 1.54 2.31 3.48-12.8-1.53-2.34z" fill="#3d3938"/>
    <path d="m1320.93 303.21-1.45 2.32-3.48-13.67 1.43-2.33z" fill="#3d3938"/>
</svg>