<?xml version="1.0" encoding="utf-8"?>
<svg version="1.1" id="Logo_Outline_Background" xmlns="http://www.w3.org/2000/svg" xmlns:xlink="http://www.w3.org/1999/xlink"
     x="0px" y="0px" viewBox="0 0 1295.5 221.8" style="enable-background:new 0 0 1295.5 221.8;" xml:space="preserve">
<style type="text/css">
	.MCVB-0{fill:#3D3938;}
	.MCVB-1{fill:url(#SVGIDMCVB_1_);}
	.MCVB-2{fill:#998F8B;}
	.MCVB-3{fill:#262423;}
	.MCVB-4{fill:#6B6562;}
	.MCVB-5{fill:#171615;}
	.MCVB-6{fill:url(#SVGIDMCVB_2_);}
	.MCVB-7{fill:url(#SVGIDMCVB_3_);}
	.MCVB-8{fill:url(#SVGIDMCVB_4_);}
	.MCVB-9{fill:url(#SVGIDMCVB_5_);}
	.MCVB-10{fill:url(#SVGIDMCVB_6_);}
	.MCVB-11{fill:url(#SVGIDMCVB_7_);}
	.MCVB-12{fill:url(#SVGIDMCVB_8_);}
	.MCVB-13{fill:url(#SVGIDMCVB_9_);}
	.MCVB-14{fill:url(#SVGIDMCVB_10_);}
	.MCVB-15{fill:url(#SVGIDMCVB_11_);}
	.MCVB-16{fill:url(#SVGIDMCVB_12_);}
	.MCVB-17{fill:url(#SVGIDMCVB_13_);}
	.MCVB-18{fill:url(#SVGIDMCVB_14_);}
	.MCVB-19{fill:url(#SVGIDMCVB_15_);}
	.MCVB-20{fill:url(#SVGIDMCVB_16_);}
	.MCVB-21{fill:url(#SVGIDMCVB_17_);}
	.MCVB-22{fill:url(#SVGIDMCVB_18_);}
	.MCVB-23{fill:url(#SVGIDMCVB_19_);}
	.MCVB-24{fill:url(#SVGIDMCVB_20_);}
	.MCVB-25{fill:url(#SVGIDMCVB_21_);}
	.MCVB-26{fill:url(#SVGIDMCVB_22_);}
	.MCVB-27{fill:url(#SVGIDMCVB_23_);}
	.MCVB-28{fill:url(#SVGIDMCVB_24_);}
	.MCVB-29{fill:url(#SVGIDMCVB_25_);}
	.MCVB-30{fill:url(#SVGIDMCVB_26_);}
	.MCVB-31{fill:url(#SVGIDMCVB_27_);}
	.MCVB-32{fill:url(#SVGIDMCVB_28_);}
	.MCVB-33{fill:url(#SVGIDMCVB_29_);}
	.MCVB-34{fill:url(#SVGIDMCVB_30_);}
	.MCVB-35{fill:url(#SVGIDMCVB_31_);}
	.MCVB-36{fill:url(#SVGIDMCVB_32_);}
	.MCVB-37{fill:url(#SVGIDMCVB_33_);}
	.MCVB-38{fill:url(#SVGIDMCVB_34_);}
	.MCVB-39{fill:url(#SVGIDMCVB_35_);}
	.MCVB-40{fill:url(#SVGIDMCVB_36_);}
	.MCVB-41{fill:url(#SVGIDMCVB_37_);}
	.MCVB-42{fill:url(#SVGIDMCVB_38_);}
	.MCVB-43{fill:url(#SVGIDMCVB_39_);}
	.MCVB-44{fill:url(#SVGIDMCVB_40_);}
	.MCVB-45{fill:url(#SVGIDMCVB_41_);}
	.MCVB-46{fill:url(#SVGIDMCVB_42_);}
	.MCVB-47{fill:url(#SVGIDMCVB_43_);}
	.MCVB-48{fill:url(#SVGIDMCVB_44_);}
	.MCVB-49{fill:url(#SVGIDMCVB_45_);}
	.MCVB-50{fill:url(#SVGIDMCVB_46_);}
	.MCVB-51{fill:url(#SVGIDMCVB_47_);}
	.MCVB-52{fill:url(#SVGIDMCVB_48_);}
	.MCVB-53{fill:url(#SVGIDMCVB_49_);}
	.MCVB-54{fill:url(#SVGIDMCVB_50_);}
	.MCVB-55{fill:url(#SVGIDMCVB_51_);}
	.MCVB-56{fill:url(#SVGIDMCVB_52_);}
	.MCVB-57{fill:url(#SVGIDMCVB_53_);}
	.MCVB-58{fill:url(#SVGIDMCVB_54_);}
	.MCVB-59{fill:url(#SVGIDMCVB_55_);}
	.MCVB-60{fill:url(#SVGIDMCVB_56_);}
	.MCVB-61{fill:url(#SVGIDMCVB_57_);}
	.MCVB-62{fill:url(#SVGIDMCVB_58_);}
	.MCVB-63{fill:url(#SVGIDMCVB_59_);}
	.MCVB-64{fill:url(#SVGIDMCVB_60_);}
	.MCVB-65{fill:url(#SVGIDMCVB_61_);}
	.MCVB-66{fill:url(#SVGIDMCVB_62_);}
	.MCVB-67{fill:url(#SVGIDMCVB_63_);}
	.MCVB-68{fill:url(#SVGIDMCVB_64_);}
	.MCVB-69{fill:url(#SVGIDMCVB_65_);}
	.MCVB-70{fill:url(#SVGIDMCVB_66_);}
	.MCVB-71{fill:url(#SVGIDMCVB_67_);}
	.MCVB-72{fill:url(#SVGIDMCVB_68_);}
	.MCVB-73{fill:url(#SVGIDMCVB_69_);}
	.MCVB-74{fill:url(#SVGIDMCVB_70_);}
	.MCVB-75{fill:url(#SVGIDMCVB_71_);}
	.MCVB-76{fill:url(#SVGIDMCVB_72_);}
	.MCVB-77{fill:url(#SVGIDMCVB_73_);}
	.MCVB-78{fill:url(#SVGIDMCVB_74_);}
</style>
    <path d="M1270.5,80.3l23.3-38.7L1280.9,0H390.5l-4.2,30.4L378.1,0H170.6l-7.1,28.6h-17.3l-4.1,15.8L119.2,0H51.5L0,165.4l41.1,56.3
	h67.5l8.3-31.2h27.3l18.3,31.2h208.5l5-36.2l11.5,36.2h696.5l28.2-58.4h25.5l23.7-46.4l25.3,104.8h70.1l38.8-56.4L1270.5,80.3z
	 M668.8,119.6l0.1-19.8h59.9l0.6,19.8H668.8z"/>
    <polygon class="MCVB-0" points="270.4,163.3 215.2,163.3 238.8,210.3 291.1,210.3 "/>
    <polygon class="MCVB-0" points="288.8,163.3 308.6,210.3 360.9,210.3 344.1,163.3 "/>
    <polygon class="MCVB-0" points="454.5,163.3 465.6,210.3 587.7,210.3 583.4,163.3 "/>
    <polygon class="MCVB-0" points="730.7,163.3 727.3,210.3 605.2,210.3 601.8,163.3 "/>
    <polygon class="MCVB-0" points="749.1,163.3 804.3,163.3 797.1,210.3 744.7,210.3 "/>
    <polygon class="MCVB-0" points="822.7,163.3 814.5,210.3 866.8,210.3 877.9,163.3 "/>
    <polygon class="MCVB-0" points="896.3,163.3 884.3,210.3 936.6,210.3 951.6,163.3 "/>
    <polygon class="MCVB-0" points="970,163.3 954.1,210.3 1006.4,210.3 1025.2,163.3 "/>
    <polygon class="MCVB-0" points="1043.6,163.3 1023.8,210.3 1076.2,210.3 1098.8,163.3 "/>
    <polygon class="MCVB-0" points="1227.7,163.3 1198.3,210.3 1250.6,210.3 1282.9,163.3 "/>
    <polygon class="MCVB-0" points="380.9,163.3 395.8,210.3 448.2,210.3 436.1,163.3 "/>
    <polygon class="MCVB-0" points="141.6,163.3 196.8,163.3 221.4,210.3 169,210.3 "/>
    <polygon class="MCVB-0" points="46.9,210.3 12.7,163.3 67.9,163.3 99.2,210.3 "/>
    <linearGradient id="SVGIDMCVB_1_" gradientUnits="userSpaceOnUse" x1="647.835" y1="213.54" x2="647.835" y2="61.13" gradientTransform="matrix(1 0 0 -1 0 223.76)">
	<stop  offset="0" style="stop-color:#D0C5C0"/>
        <stop  offset="0.99" style="stop-color:#ABA09C"/>
</linearGradient>
    <path class="MCVB-1" d="M157.5,99.8h-17.9l-8.1,31.2H95.3l8.6-31.2H86.1l-18.1,63.5H12.8L60.1,11.5h51.2l-8.1,28.6h17.3l-8.1,29.4h35.1
	l7.6-29.4h17.3l7.1-28.6h51.2l-34,151.8h-55.2L157.5,99.8z M247.9,11.5h51.2l-28.7,151.8h-55.2L247.9,11.5z M469.8,11.5h119.5
	l-1.1,28.6h-69.3l-2.2,29.4h70.3l-1.2,30.3h-71.4l-2.3,31.2h72.5l-1.3,32.3H454.5L469.8,11.5z M606.5,11.5H726l0.9,28.6h-69.3
	l-0.4,91h72.5l1,32.3H601.8L606.5,11.5z M818,99.8h-17.9l4.2,63.5h-55.2l-6-151.8h119.5l5.8,58h-17.6l1.4,15H870l8,78.8h-55.2
	L818,99.8z M796.2,40.1l1.9,29.4h17.6l-2.2-29.4L796.2,40.1z M1016.3,11.5h119.5l6.9,28.6h-69.3l6.1,29.4h70.3l7.3,30.3h-71.4
	l13.1,63.5h-55.2L1016.3,11.5z M1194.8,40.1h-34.7l-7.2-28.6h119.5l8.9,28.6h-34.7l36.2,123.3h-55.2L1194.8,40.1z M387.4,115.3h-18
	l4.5-30.8h-17.7l-12.1,78.8h-55.2l27.3-151.8h51.2L363,40.1h17.3l-4.3,29.4h17.6l7.9-58h51.2l-16.6,151.8h-55.2L387.4,115.3z
	 M999.2,11.5H879.7l16.7,151.8h55.2l-6.5-48h18l7,48h55.2L999.2,11.5z M958.9,67h8.8l4.2,27.7h-11.9l-1.5-10.1h-17.7l1.4,10.1h-11.9
	L926.8,67h8.8l-1-7.4h-20.4l-2.4-19.5h23.1l2.3,17.1h17.5l-2.5-17.1h23.1l3.1,19.5h-20.4L958.9,67z"/>
    <polygon class="MCVB-2" points="246.3,131.1 239.8,163.3 233.6,163.3 240.3,131.1 "/>
    <polygon class="MCVB-2" points="931.1,147 933.2,163.3 927,163.3 925,147 "/>
    <polygon class="MCVB-3" points="239.8,163.3 246.7,177.9 240.7,177.9 233.6,163.3 "/>
    <polygon class="MCVB-2" points="316.1,147 313.4,163.3 307.2,163.3 310,147 "/>
    <polygon class="MCVB-3" points="417.7,163.3 421.8,177.9 415.7,177.9 411.6,163.3 "/>
    <polygon class="MCVB-3" points="479.1,163.3 485.1,192.1 479.1,192.1 472.9,163.3 "/>
    <polygon class="MCVB-3" points="87.1,192.1 84,187.4 66.1,187.4 69.3,192.1 "/>
    <polygon class="MCVB-3" points="1051.4,187.4 1033.5,187.4 1031.5,192.1 1049.3,192.1 "/>
    <polygon class="MCVB-3" points="836.4,187.4 818.5,187.4 817.7,192.1 835.5,192.1 "/>
    <polygon class="MCVB-3" points="542.5,177.9 548.5,177.9 546.6,163.3 540.4,163.3 "/>
    <polygon class="MCVB-3" points="1209.7,192.1 1212.6,187.4 1230.5,187.4 1227.5,192.1 "/>
    <polygon class="MCVB-3" points="211.9,192.1 209.4,187.4 191.5,187.4 194,192.1 "/>
    <polygon class="MCVB-2" points="906,89.6 905.4,84.5 887.7,84.5 888.2,89.6 "/>
    <polygon class="MCVB-2" points="189.7,64.5 196.6,35.2 173.6,35.2 172.4,40.1 189.7,40.1 183.8,64.5 148.7,64.5 147.5,69.5 217.8,69.5
	218.9,64.5 "/>
    <polygon class="MCVB-2" points="1244,11.5 1238.3,11.5 1246.7,40.1 1252.5,40.1 "/>
    <polygon class="MCVB-2" points="1114.7,69.5 1108.8,69.5 1115.5,99.8 1121.4,99.8 "/>
    <polygon class="MCVB-2" points="802.2,131.1 801.8,125.8 777.7,125.8 779.7,163.3 785.9,163.3 784,131.1 "/>
    <polygon class="MCVB-2" points="52.6,35.2 104.5,35.2 103.1,40.1 51.1,40.1 "/>
    <polygon class="MCVB-2" points="296.5,120.5 297.5,115.3 351.4,115.3 350.6,120.5 "/>
    <polygon class="MCVB-2" points="1216.2,120.5 1214.8,115.3 1268.8,115.3 1270.3,120.5 "/>
    <polygon class="MCVB-2" points="966.1,136.4 965.3,131.1 1019.7,131.1 1020.6,136.4 "/>
    <polygon class="MCVB-2" points="423.4,115.3 387.4,115.3 386.7,120.5 416.8,120.5 411.6,163.3 417.7,163.3 "/>
    <polygon class="MCVB-2" points="780.5,69.5 780.2,64.5 768.5,64.5 765.8,11.5 760.1,11.5 762,49.8 744.6,49.8 744.8,54.7 762.2,54.7
	762.9,69.5 "/>
    <polygon class="MCVB-2" points="780.5,69.5 780.2,64.5 768.5,64.5 765.8,11.5 760.1,11.5 762,49.8 744.6,49.8 744.8,54.7 762.2,54.7
	762.9,69.5 "/>
    <polygon class="MCVB-2" points="77.1,131.1 78.6,125.8 48.5,125.8 56.3,99.8 32.5,99.8 30.9,105 48.8,105 36,147 42.1,147 72.6,147
	74.1,141.7 43.7,141.7 46.9,131.1 "/>
    <polygon class="MCVB-2" points="1108.1,40.1 1103.8,20.9 1075.2,20.9 1073.2,11.5 1067.5,11.5 1070.4,25.7 1099.1,25.7 1102.3,40.1 "/>
    <polygon class="MCVB-2" points="466,49.8 483.4,49.8 482.9,54.7 465.5,54.7 "/>
    <polygon class="MCVB-2" points="458.3,125.8 457.8,131.1 475.9,131.1 472.9,163.3 479.1,163.3 482.4,125.8 "/>
    <polygon class="MCVB-2" points="363.7,35.2 346.5,35.2 345.7,40.1 363,40.1 "/>
    <polygon class="MCVB-2" points="450.2,35.2 398.3,35.2 397.6,40.1 449.6,40.1 "/>
    <polygon class="MCVB-3" points="933.2,163.3 927,163.3 918.6,192.1 924.6,192.1 "/>
    <polygon class="MCVB-2" points="819.9,125.8 820.3,131.1 838.4,131.1 838,125.8 "/>
    <polygon class="MCVB-2" points="605.1,54.7 605,59.6 622.5,59.6 621.2,115.3 603.3,115.3 603.1,120.5 627.2,120.5 628.3,59.6
	657.5,59.6 657.5,54.7 "/>
    <polygon class="MCVB-2" points="1062,131.1 1056,99.8 1032.2,99.8 1033.1,105 1051,105 1055.9,131.1 "/>
    <polygon class="MCVB-2" points="663.2,163.3 657,163.3 657.1,149.7 663.2,149.7 "/>
    <polygon class="MCVB-3" points="663.2,177.9 657.2,177.9 657,163.3 663.2,163.3 "/>
    <polygon class="MCVB-3" points="783.9,177.9 777.9,177.9 779.7,163.3 785.9,163.3 "/>
    <polygon class="MCVB-2" points="271.5,35.2 267.6,54.7 273.5,54.7 276.4,40.1 293.7,40.1 294.6,35.2 "/>
    <polygon class="MCVB-2" points="560.5,131.1 559.9,141.7 541.7,141.7 540.4,163.3 546.6,163.3 547.5,147 565.8,147 566.5,131.1 "/>
    <polygon class="MCVB-3" points="728.8,189.8 728.9,187.4 711,187.4 710.9,189.8 "/>
    <polygon class="MCVB-3" points="313.4,163.3 324.7,192.1 318.8,192.1 307.2,163.3 "/>
    <polygon class="MCVB-4" points="56.3,99.8 55.5,102.4 31.7,102.4 32.5,99.8 "/>
    <polygon class="MCVB-4" points="48.5,125.8 50.7,128.4 77.9,128.4 78.6,125.8 "/>
    <polygon class="MCVB-4" points="43.7,141.7 46,144.4 73.3,144.4 74.1,141.7 "/>
    <polygon class="MCVB-4" points="52.6,35.2 104.5,35.2 103.8,37.7 51.9,37.7 "/>
    <polygon class="MCVB-4" points="173.6,35.2 173,37.7 196.1,37.7 196.6,35.2 "/>
    <polygon class="MCVB-4" points="189.7,40.1 192,42.5 186.1,67 148.1,67 148.7,64.5 183.8,64.5 "/>
    <polygon class="MCVB-4" points="189.7,64.5 192,67 218.4,67 218.9,64.5 "/>
    <polygon class="MCVB-4" points="48.8,105 51,107.5 39.1,147 36,147 "/>
    <polygon class="MCVB-4" points="267.6,54.7 270.6,54.7 274,37.7 294.1,37.7 294.6,35.2 271.5,35.2 "/>
    <polygon class="MCVB-4" points="246.3,131.1 245.8,133.7 242.8,133.7 236.7,163.3 233.6,163.3 240.3,131.1 "/>
    <polygon class="MCVB-4" points="345.7,40.1 348.5,40.1 348.9,37.7 363.4,37.7 363.7,35.2 346.5,35.2 "/>
    <polygon class="MCVB-4" points="398.3,35.2 450.2,35.2 449.9,37.7 398,37.7 "/>
    <polygon class="MCVB-4" points="297.5,115.3 351.4,115.3 351,117.9 297,117.9 "/>
    <polygon class="MCVB-4" points="316.1,147 310,147 307.2,163.3 310.3,163.3 312.6,149.7 315.7,149.7 "/>
    <polygon class="MCVB-4" points="387.4,115.3 387.1,117.9 423.1,117.9 423.4,115.3 "/>
    <polygon class="MCVB-4" points="416.8,120.5 419.5,123.2 414.6,163.3 411.6,163.3 "/>
    <polygon class="MCVB-4" points="466,49.8 465.7,52.2 483.2,52.2 483.4,49.8 "/>
    <polygon class="MCVB-4" points="458.3,125.8 458,128.4 482.2,128.4 482.4,125.8 "/>
    <polygon class="MCVB-4" points="475.9,131.1 478.7,133.7 476,163.3 472.9,163.3 "/>
    <polygon class="MCVB-4" points="563.5,131.1 560.5,131.1 559.9,141.7 541.7,141.7 540.4,163.3 543.5,163.3 544.6,144.4 562.8,144.4 "/>
    <polygon class="MCVB-4" points="605,57.1 657.5,57.1 657.5,54.7 605.1,54.7 "/>
    <polygon class="MCVB-4" points="622.5,59.6 625.3,62.1 624.2,117.9 603.2,117.9 603.3,115.3 621.2,115.3 "/>
    <polygon class="MCVB-4" points="762,49.8 744.6,49.8 744.7,52.2 759.2,52.2 "/>
    <polygon class="MCVB-4" points="780.5,69.5 780.2,64.5 768.5,64.5 765.8,11.5 763,11.5 765.8,67 777.5,67 777.6,69.5 "/>
    <polygon class="MCVB-4" points="802,128.4 801.8,125.8 777.7,125.8 777.8,128.4 "/>
    <polygon class="MCVB-4" points="784,131.1 781.2,133.7 782.8,163.3 785.9,163.3 "/>
    <polyline class="MCVB-4" points="819.9,125.8 820.1,128.4 835.2,128.4 835.4,131.1 838.4,131.1 838,125.8 819.9,125.8 "/>
    <polygon class="MCVB-4" points="888,87.1 887.7,84.5 905.4,84.5 906,89.6 903,89.6 902.8,87.1 "/>
    <polygon class="MCVB-4" points="965.3,131.1 1019.7,131.1 1020.1,133.7 965.7,133.7 "/>
    <polygon class="MCVB-4" points="925.3,149.7 928.4,149.7 930.1,163.3 933.2,163.3 931.1,147 925,147 "/>
    <polygon class="MCVB-4" points="1032.6,102.4 1053.5,102.4 1058.9,131.1 1062,131.1 1056,99.8 1032.2,99.8 "/>
    <polygon class="MCVB-4" points="1073.2,11.5 1070.4,11.5 1072.8,23.3 1101.4,23.3 1105.2,40.1 1108.1,40.1 1103.8,20.9 1075.2,20.9 "/>
    <polygon class="MCVB-4" points="1114.7,69.5 1111.7,69.5 1118.5,99.8 1121.4,99.8 "/>
    <polygon class="MCVB-4" points="1214.8,115.3 1268.8,115.3 1269.6,117.9 1215.5,117.9 "/>
    <polygon class="MCVB-4" points="1241.1,11.5 1249.6,40.1 1252.5,40.1 1244,11.5 "/>
    <polygon class="MCVB-4" points="657.1,147 657.1,149.7 663.2,149.7 663.2,147 "/>
    <polygon class="MCVB-5" points="194,192.1 191.5,187.4 194.5,187.4 195.8,189.8 210.6,189.8 211.9,192.1 "/>
    <polygon class="MCVB-5" points="236.7,163.3 233.6,163.3 240.7,177.9 246.7,177.9 245.6,175.5 242.5,175.5 "/>
    <polygon class="MCVB-5" points="414.6,163.3 418.1,175.5 421.1,175.5 421.8,177.9 415.7,177.9 411.6,163.3 "/>
    <polygon class="MCVB-5" points="476,163.3 481.6,189.8 484.6,189.8 485.1,192.1 479.1,192.1 472.9,163.3 "/>
    <polygon class="MCVB-5" points="543.5,163.3 545.2,175.5 548.2,175.5 548.5,177.9 542.5,177.9 540.4,163.3 "/>
    <polygon class="MCVB-5" points="930.1,163.3 922.3,189.8 919.3,189.8 918.6,192.1 924.6,192.1 933.2,163.3 "/>
    <polygon class="MCVB-5" points="1049.3,192.1 1051.4,187.4 1048.4,187.4 1047.4,189.8 1032.5,189.8 1031.5,192.1 "/>
    <polygon class="MCVB-5" points="1211.1,189.8 1226,189.8 1227.5,187.4 1230.5,187.4 1227.5,192.1 1209.7,192.1 "/>
    <polygon class="MCVB-5" points="66.1,187.4 69.3,192.1 87.1,192.1 85.6,189.8 70.7,189.8 69.1,187.4 "/>
    <polygon class="MCVB-5" points="782.8,163.3 781.2,175.5 778.2,175.5 777.9,177.9 783.9,177.9 785.9,163.3 "/>
    <polygon class="MCVB-5" points="657.1,175.5 657.2,177.9 663.2,177.9 663.2,175.5 "/>
    <polygon class="MCVB-5" points="710.9,189.8 710.8,192.1 728.6,192.1 728.8,189.8 "/>
    <polygon class="MCVB-5" points="310.3,163.3 307.2,163.3 318.8,192.1 324.7,192.1 323.8,189.8 320.8,189.8 "/>
    <polygon class="MCVB-5" points="818.1,189.8 817.7,192.1 835.5,192.1 836.4,187.4 833.4,187.4 833,189.8 "/>
    <polygon class="MCVB-4" points="69.3,192.1 70.9,194.4 88.7,194.4 87.1,192.1 "/>
    <polygon class="MCVB-4" points="194,192.1 211.9,192.1 213.1,194.4 195.3,194.4 "/>
    <polygon class="MCVB-4" points="240.7,177.9 241.8,180.3 247.8,180.3 246.7,177.9 "/>
    <polygon class="MCVB-4" points="415.7,177.9 416.4,180.3 422.4,180.3 421.8,177.9 "/>
    <polygon class="MCVB-4" points="479.1,192.1 479.6,194.4 485.5,194.4 485.1,192.1 "/>
    <polygon class="MCVB-4" points="542.5,177.9 542.8,180.3 548.8,180.3 548.5,177.9 "/>
    <polygon class="MCVB-4" points="817.7,192.1 835.5,192.1 835,194.4 817.3,194.4 "/>
    <polygon class="MCVB-4" points="918.6,192.1 918,194.4 923.9,194.4 924.6,192.1 "/>
    <polygon class="MCVB-4" points="1049.3,192.1 1048.3,194.4 1030.5,194.4 1031.5,192.1 "/>
    <polygon class="MCVB-4" points="1209.7,192.1 1208.2,194.4 1226,194.4 1227.5,192.1 "/>
    <polygon class="MCVB-4" points="657.2,177.9 657.2,180.3 663.2,180.3 663.2,177.9 "/>
    <polygon class="MCVB-4" points="783.9,177.9 783.6,180.3 777.6,180.3 777.9,177.9 "/>
    <linearGradient id="SVGIDMCVB_2_" gradientUnits="userSpaceOnUse" x1="612.285" y1="192.04" x2="612.285" y2="62.26" gradientTransform="matrix(1 0 0 -1 0 223.76)">
	<stop  offset="0" style="stop-color:#EDE5E2"/>
        <stop  offset="1" style="stop-color:#D0C5C0"/>
</linearGradient>
    <polygon class="MCVB-6" points="621.3,112.7 603.3,112.7 603.3,115.3 621.2,115.3 "/>
    <linearGradient id="SVGIDMCVB_3_" gradientUnits="userSpaceOnUse" x1="324.66" y1="192.04" x2="324.66" y2="62.26" gradientTransform="matrix(1 0 0 -1 0 223.76)">
	<stop  offset="0" style="stop-color:#EDE5E2"/>
        <stop  offset="1" style="stop-color:#D0C5C0"/>
</linearGradient>
    <polygon class="MCVB-7" points="297.5,115.3 351.4,115.3 351.8,112.7 297.9,112.7 "/>
    <linearGradient id="SVGIDMCVB_4_" gradientUnits="userSpaceOnUse" x1="396.565" y1="192.04" x2="396.565" y2="62.26" gradientTransform="matrix(1 0 0 -1 0 223.76)">
	<stop  offset="0" style="stop-color:#EDE5E2"/>
        <stop  offset="1" style="stop-color:#D0C5C0"/>
</linearGradient>
    <polygon class="MCVB-8" points="423.7,112.7 369.8,112.7 369.4,115.3 423.4,115.3 "/>
    <linearGradient id="SVGIDMCVB_5_" gradientUnits="userSpaceOnUse" x1="1241.4701" y1="192.04" x2="1241.4701" y2="62.26" gradientTransform="matrix(1 0 0 -1 0 223.76)">
	<stop  offset="0" style="stop-color:#EDE5E2"/>
        <stop  offset="1" style="stop-color:#D0C5C0"/>
</linearGradient>
    <polygon class="MCVB-9" points="1268,112.7 1214.1,112.7 1214.8,115.3 1268.8,115.3 "/>
    <linearGradient id="SVGIDMCVB_6_" gradientUnits="userSpaceOnUse" x1="40.71" y1="192.04" x2="40.71" y2="62.26" gradientTransform="matrix(1 0 0 -1 0 223.76)">
	<stop  offset="0" style="stop-color:#EDE5E2"/>
        <stop  offset="1" style="stop-color:#D0C5C0"/>
</linearGradient>
    <polygon class="MCVB-10" points="12.7,163.3 67.9,163.3 68.7,160.6 13.6,160.6 "/>
    <linearGradient id="SVGIDMCVB_7_" gradientUnits="userSpaceOnUse" x1="59.3" y1="192.05" x2="59.3" y2="62.26" gradientTransform="matrix(1 0 0 -1 0 223.76)">
	<stop  offset="0" style="stop-color:#EDE5E2"/>
        <stop  offset="1" style="stop-color:#D0C5C0"/>
</linearGradient>
    <polygon class="MCVB-11" points="43.7,141.7 74.1,141.7 74.9,139 44.5,139 "/>
    <linearGradient id="SVGIDMCVB_8_" gradientUnits="userSpaceOnUse" x1="63.95" y1="192.04" x2="63.95" y2="62.26" gradientTransform="matrix(1 0 0 -1 0 223.76)">
	<stop  offset="0" style="stop-color:#EDE5E2"/>
        <stop  offset="1" style="stop-color:#D0C5C0"/>
</linearGradient>
    <polygon class="MCVB-12" points="48.5,125.8 78.6,125.8 79.4,123.2 49.3,123.2 "/>
    <linearGradient id="SVGIDMCVB_9_" gradientUnits="userSpaceOnUse" x1="113.725" y1="192.04" x2="113.725" y2="62.26" gradientTransform="matrix(1 0 0 -1 0 223.76)">
	<stop  offset="0" style="stop-color:#EDE5E2"/>
        <stop  offset="1" style="stop-color:#D0C5C0"/>
</linearGradient>
    <polygon class="MCVB-13" points="95.3,131.1 131.5,131.1 132.2,128.4 96,128.4 "/>
    <linearGradient id="SVGIDMCVB_10_" gradientUnits="userSpaceOnUse" x1="169.495" y1="192.04" x2="169.495" y2="62.26" gradientTransform="matrix(1 0 0 -1 0 223.76)">
	<stop  offset="0" style="stop-color:#EDE5E2"/>
        <stop  offset="1" style="stop-color:#D0C5C0"/>
</linearGradient>
    <polygon class="MCVB-14" points="141.6,163.3 196.8,163.3 197.4,160.6 142.3,160.6 "/>
    <linearGradient id="SVGIDMCVB_11_" gradientUnits="userSpaceOnUse" x1="243.56" y1="192.04" x2="243.56" y2="62.26" gradientTransform="matrix(1 0 0 -1 0 223.76)">
	<stop  offset="0" style="stop-color:#EDE5E2"/>
        <stop  offset="1" style="stop-color:#D0C5C0"/>
</linearGradient>
    <polygon class="MCVB-15" points="246.9,128.4 240.8,128.4 240.3,131.1 246.3,131.1 "/>
    <linearGradient id="SVGIDMCVB_12_" gradientUnits="userSpaceOnUse" x1="313.3" y1="192.04" x2="313.3" y2="62.26" gradientTransform="matrix(1 0 0 -1 0 223.76)">
	<stop  offset="0" style="stop-color:#EDE5E2"/>
        <stop  offset="1" style="stop-color:#D0C5C0"/>
</linearGradient>
    <polygon class="MCVB-16" points="316.6,144.4 310.5,144.4 310,147 316.1,147 "/>
    <linearGradient id="SVGIDMCVB_13_" gradientUnits="userSpaceOnUse" x1="470.48" y1="191.79" x2="470.48" y2="62.37" gradientTransform="matrix(1 0 0 -1 0 223.76)">
	<stop  offset="0" style="stop-color:#EDE5E2"/>
        <stop  offset="1" style="stop-color:#D0C5C0"/>
</linearGradient>
    <polygon class="MCVB-17" points="482.7,123.2 458.6,123.2 458.3,125.8 482.4,125.8 "/>
    <linearGradient id="SVGIDMCVB_14_" gradientUnits="userSpaceOnUse" x1="550.9" y1="192.04" x2="550.9" y2="62.26" gradientTransform="matrix(1 0 0 -1 0 223.76)">
	<stop  offset="0" style="stop-color:#EDE5E2"/>
        <stop  offset="1" style="stop-color:#D0C5C0"/>
</linearGradient>
    <polygon class="MCVB-18" points="560.1,139 541.9,139 541.7,141.7 559.9,141.7 "/>
    <linearGradient id="SVGIDMCVB_15_" gradientUnits="userSpaceOnUse" x1="789.695" y1="192.04" x2="789.695" y2="62.26" gradientTransform="matrix(1 0 0 -1 0 223.76)">
	<stop  offset="0" style="stop-color:#EDE5E2"/>
        <stop  offset="1" style="stop-color:#D0C5C0"/>
</linearGradient>
    <polygon class="MCVB-19" points="777.7,125.8 801.8,125.8 801.6,123.2 777.6,123.2 "/>
    <linearGradient id="SVGIDMCVB_16_" gradientUnits="userSpaceOnUse" x1="828.84" y1="192.04" x2="828.84" y2="62.26" gradientTransform="matrix(1 0 0 -1 0 223.76)">
	<stop  offset="0" style="stop-color:#EDE5E2"/>
        <stop  offset="1" style="stop-color:#D0C5C0"/>
</linearGradient>
    <polygon class="MCVB-20" points="837.8,123.2 819.7,123.2 819.9,125.8 838,125.8 "/>
    <linearGradient id="SVGIDMCVB_17_" gradientUnits="userSpaceOnUse" x1="927.865" y1="192.04" x2="927.865" y2="62.26" gradientTransform="matrix(1 0 0 -1 0 223.76)">
	<stop  offset="0" style="stop-color:#EDE5E2"/>
        <stop  offset="1" style="stop-color:#D0C5C0"/>
</linearGradient>
    <polygon class="MCVB-21" points="924.7,144.4 925,147 931.1,147 930.7,144.4 "/>
    <linearGradient id="SVGIDMCVB_18_" gradientUnits="userSpaceOnUse" x1="992.29" y1="192.04" x2="992.29" y2="62.26" gradientTransform="matrix(1 0 0 -1 0 223.76)">
	<stop  offset="0" style="stop-color:#EDE5E2"/>
        <stop  offset="1" style="stop-color:#D0C5C0"/>
</linearGradient>
    <polygon class="MCVB-22" points="1019.2,128.4 964.9,128.4 965.3,131.1 1019.7,131.1 "/>
    <linearGradient id="SVGIDMCVB_19_" gradientUnits="userSpaceOnUse" x1="911.52" y1="192.04" x2="911.52" y2="62.26" gradientTransform="matrix(1 0 0 -1 0 223.76)">
	<stop  offset="0" style="stop-color:#EDE5E2"/>
        <stop  offset="1" style="stop-color:#D0C5C0"/>
</linearGradient>
    <polygon class="MCVB-23" points="896,160.6 896.3,163.3 927,163.3 926.7,160.6 "/>
    <linearGradient id="SVGIDMCVB_20_" gradientUnits="userSpaceOnUse" x1="942.1851" y1="192.04" x2="942.1851" y2="62.26" gradientTransform="matrix(1 0 0 -1 0 223.76)">
	<stop  offset="0" style="stop-color:#EDE5E2"/>
        <stop  offset="1" style="stop-color:#D0C5C0"/>
</linearGradient>
    <polygon class="MCVB-24" points="932.8,160.6 933.2,163.3 951.6,163.3 951.2,160.6 "/>
    <linearGradient id="SVGIDMCVB_21_" gradientUnits="userSpaceOnUse" x1="997.3799" y1="192.04" x2="997.3799" y2="62.26" gradientTransform="matrix(1 0 0 -1 0 223.76)">
	<stop  offset="0" style="stop-color:#EDE5E2"/>
        <stop  offset="1" style="stop-color:#D0C5C0"/>
</linearGradient>
    <polygon class="MCVB-25" points="969.6,160.6 970,163.3 1025.2,163.3 1024.7,160.6 "/>
    <linearGradient id="SVGIDMCVB_22_" gradientUnits="userSpaceOnUse" x1="1070.965" y1="192.04" x2="1070.965" y2="62.26" gradientTransform="matrix(1 0 0 -1 0 223.76)">
	<stop  offset="0" style="stop-color:#EDE5E2"/>
        <stop  offset="1" style="stop-color:#D0C5C0"/>
</linearGradient>
    <polygon class="MCVB-26" points="1043.1,160.6 1043.6,163.3 1098.8,163.3 1098.3,160.6 "/>
    <linearGradient id="SVGIDMCVB_23_" gradientUnits="userSpaceOnUse" x1="1254.9351" y1="192.04" x2="1254.9351" y2="62.26" gradientTransform="matrix(1 0 0 -1 0 223.76)">
	<stop  offset="0" style="stop-color:#EDE5E2"/>
        <stop  offset="1" style="stop-color:#D0C5C0"/>
</linearGradient>
    <polygon class="MCVB-27" points="1282.1,160.6 1226.9,160.6 1227.7,163.3 1282.9,163.3 "/>
    <linearGradient id="SVGIDMCVB_24_" gradientUnits="userSpaceOnUse" x1="764.345" y1="192.04" x2="764.345" y2="62.26" gradientTransform="matrix(1 0 0 -1 0 223.76)">
	<stop  offset="0" style="stop-color:#EDE5E2"/>
        <stop  offset="1" style="stop-color:#D0C5C0"/>
</linearGradient>
    <polygon class="MCVB-28" points="749,160.6 749.1,163.3 779.7,163.3 779.6,160.6 "/>
    <linearGradient id="SVGIDMCVB_25_" gradientUnits="userSpaceOnUse" x1="795.005" y1="192.05" x2="795.005" y2="62.26" gradientTransform="matrix(1 0 0 -1 0 223.76)">
	<stop  offset="0" style="stop-color:#EDE5E2"/>
        <stop  offset="1" style="stop-color:#D0C5C0"/>
</linearGradient>
    <polygon class="MCVB-29" points="785.7,160.6 785.9,163.3 804.3,163.3 804.1,160.6 "/>
    <linearGradient id="SVGIDMCVB_26_" gradientUnits="userSpaceOnUse" x1="629.41" y1="192.04" x2="629.41" y2="62.26" gradientTransform="matrix(1 0 0 -1 0 223.76)">
	<stop  offset="0" style="stop-color:#EDE5E2"/>
        <stop  offset="1" style="stop-color:#D0C5C0"/>
</linearGradient>
    <polygon class="MCVB-30" points="601.8,163.3 657,163.3 657,160.6 601.9,160.6 "/>
    <linearGradient id="SVGIDMCVB_27_" gradientUnits="userSpaceOnUse" x1="696.9" y1="192.04" x2="696.9" y2="62.26" gradientTransform="matrix(1 0 0 -1 0 223.76)">
	<stop  offset="0" style="stop-color:#EDE5E2"/>
        <stop  offset="1" style="stop-color:#D0C5C0"/>
</linearGradient>
    <polygon class="MCVB-31" points="663.2,160.6 663.2,163.3 730.7,163.3 730.6,160.6 "/>
    <linearGradient id="SVGIDMCVB_28_" gradientUnits="userSpaceOnUse" x1="850.205" y1="192.04" x2="850.205" y2="62.26" gradientTransform="matrix(1 0 0 -1 0 223.76)">
	<stop  offset="0" style="stop-color:#EDE5E2"/>
        <stop  offset="1" style="stop-color:#D0C5C0"/>
</linearGradient>
    <polygon class="MCVB-32" points="822.5,160.6 822.7,163.3 877.9,163.3 877.6,160.6 "/>
    <linearGradient id="SVGIDMCVB_29_" gradientUnits="userSpaceOnUse" x1="463.85" y1="192.04" x2="463.85" y2="62.26" gradientTransform="matrix(1 0 0 -1 0 223.76)">
	<stop  offset="0" style="stop-color:#EDE5E2"/>
        <stop  offset="1" style="stop-color:#D0C5C0"/>
</linearGradient>
    <polygon class="MCVB-33" points="454.5,163.3 472.9,163.3 473.2,160.6 454.8,160.6 "/>
    <linearGradient id="SVGIDMCVB_30_" gradientUnits="userSpaceOnUse" x1="509.825" y1="192.04" x2="509.825" y2="62.26" gradientTransform="matrix(1 0 0 -1 0 223.76)">
	<stop  offset="0" style="stop-color:#EDE5E2"/>
        <stop  offset="1" style="stop-color:#D0C5C0"/>
</linearGradient>
    <polygon class="MCVB-34" points="479.1,163.3 540.4,163.3 540.6,160.6 479.3,160.6 "/>
    <linearGradient id="SVGIDMCVB_31_" gradientUnits="userSpaceOnUse" x1="565.025" y1="192.04" x2="565.025" y2="62.26" gradientTransform="matrix(1 0 0 -1 0 223.76)">
	<stop  offset="0" style="stop-color:#EDE5E2"/>
        <stop  offset="1" style="stop-color:#D0C5C0"/>
</linearGradient>
    <polygon class="MCVB-35" points="546.6,163.3 583.4,163.3 583.5,160.6 546.7,160.6 "/>
    <linearGradient id="SVGIDMCVB_32_" gradientUnits="userSpaceOnUse" x1="396.39" y1="192.04" x2="396.39" y2="62.26" gradientTransform="matrix(1 0 0 -1 0 223.76)">
	<stop  offset="0" style="stop-color:#EDE5E2"/>
        <stop  offset="1" style="stop-color:#D0C5C0"/>
</linearGradient>
    <polygon class="MCVB-36" points="380.9,163.3 411.6,163.3 411.9,160.6 381.3,160.6 "/>
    <linearGradient id="SVGIDMCVB_33_" gradientUnits="userSpaceOnUse" x1="427.055" y1="192.04" x2="427.055" y2="62.26" gradientTransform="matrix(1 0 0 -1 0 223.76)">
	<stop  offset="0" style="stop-color:#EDE5E2"/>
        <stop  offset="1" style="stop-color:#D0C5C0"/>
</linearGradient>
    <polygon class="MCVB-37" points="417.7,163.3 436.1,163.3 436.4,160.6 418,160.6 "/>
    <linearGradient id="SVGIDMCVB_34_" gradientUnits="userSpaceOnUse" x1="298.28" y1="192.04" x2="298.28" y2="62.26" gradientTransform="matrix(1 0 0 -1 0 223.76)">
	<stop  offset="0" style="stop-color:#EDE5E2"/>
        <stop  offset="1" style="stop-color:#D0C5C0"/>
</linearGradient>
    <polygon class="MCVB-38" points="288.8,163.3 307.2,163.3 307.7,160.6 289.3,160.6 "/>
    <linearGradient id="SVGIDMCVB_35_" gradientUnits="userSpaceOnUse" x1="328.935" y1="192.04" x2="328.935" y2="62.26" gradientTransform="matrix(1 0 0 -1 0 223.76)">
	<stop  offset="0" style="stop-color:#EDE5E2"/>
        <stop  offset="1" style="stop-color:#D0C5C0"/>
</linearGradient>
    <polygon class="MCVB-39" points="313.4,163.3 344.1,163.3 344.5,160.6 313.9,160.6 "/>
    <linearGradient id="SVGIDMCVB_36_" gradientUnits="userSpaceOnUse" x1="224.69" y1="192.04" x2="224.69" y2="62.26" gradientTransform="matrix(1 0 0 -1 0 223.76)">
	<stop  offset="0" style="stop-color:#EDE5E2"/>
        <stop  offset="1" style="stop-color:#D0C5C0"/>
</linearGradient>
    <polygon class="MCVB-40" points="215.2,163.3 233.6,163.3 234.2,160.6 215.8,160.6 "/>
    <linearGradient id="SVGIDMCVB_37_" gradientUnits="userSpaceOnUse" x1="255.35" y1="192.04" x2="255.35" y2="62.26" gradientTransform="matrix(1 0 0 -1 0 223.76)">
	<stop  offset="0" style="stop-color:#EDE5E2"/>
        <stop  offset="1" style="stop-color:#D0C5C0"/>
</linearGradient>
    <polygon class="MCVB-41" points="239.8,163.3 270.4,163.3 271,160.6 240.3,160.6 "/>
    <linearGradient id="SVGIDMCVB_38_" gradientUnits="userSpaceOnUse" x1="896.41" y1="191.79" x2="896.41" y2="62.66" gradientTransform="matrix(1 0 0 -1 0 223.76)">
	<stop  offset="0" style="stop-color:#EDE5E2"/>
        <stop  offset="1" style="stop-color:#D0C5C0"/>
</linearGradient>
    <polygon class="MCVB-42" points="905.1,82 887.4,82 887.7,84.5 905.4,84.5 "/>
    <linearGradient id="SVGIDMCVB_39_" gradientUnits="userSpaceOnUse" x1="365.205" y1="192.04" x2="365.205" y2="62.26" gradientTransform="matrix(1 0 0 -1 0 223.76)">
	<stop  offset="0" style="stop-color:#EDE5E2"/>
        <stop  offset="1" style="stop-color:#D0C5C0"/>
</linearGradient>
    <polygon class="MCVB-43" points="374.2,82 356.5,82 356.2,84.5 373.9,84.5 "/>
    <linearGradient id="SVGIDMCVB_40_" gradientUnits="userSpaceOnUse" x1="78.87" y1="192.04" x2="78.87" y2="62.26" gradientTransform="matrix(1 0 0 -1 0 223.76)">
	<stop  offset="0" style="stop-color:#EDE5E2"/>
        <stop  offset="1" style="stop-color:#D0C5C0"/>
</linearGradient>
    <polygon class="MCVB-44" points="105.1,32.9 53.4,32.9 52.6,35.2 104.5,35.2 "/>
    <linearGradient id="SVGIDMCVB_41_" gradientUnits="userSpaceOnUse" x1="185.41" y1="192.04" x2="185.41" y2="62.26" gradientTransform="matrix(1 0 0 -1 0 223.76)">
	<stop  offset="0" style="stop-color:#EDE5E2"/>
        <stop  offset="1" style="stop-color:#D0C5C0"/>
</linearGradient>
    <polygon class="MCVB-45" points="197.2,32.9 174.2,32.9 173.6,35.2 196.6,35.2 "/>
    <linearGradient id="SVGIDMCVB_42_" gradientUnits="userSpaceOnUse" x1="204.565" y1="192.04" x2="204.565" y2="62.26" gradientTransform="matrix(1 0 0 -1 0 223.76)">
	<stop  offset="0" style="stop-color:#EDE5E2"/>
        <stop  offset="1" style="stop-color:#D0C5C0"/>
</linearGradient>
    <polygon class="MCVB-46" points="189.7,64.5 218.9,64.5 219.5,62.1 190.2,62.1 "/>
    <linearGradient id="SVGIDMCVB_43_" gradientUnits="userSpaceOnUse" x1="166.575" y1="192.04" x2="166.575" y2="62.26" gradientTransform="matrix(1 0 0 -1 0 223.76)">
	<stop  offset="0" style="stop-color:#EDE5E2"/>
        <stop  offset="1" style="stop-color:#D0C5C0"/>
</linearGradient>
    <polygon class="MCVB-47" points="184.4,62.1 149.4,62.1 148.7,64.5 183.8,64.5 "/>
    <linearGradient id="SVGIDMCVB_44_" gradientUnits="userSpaceOnUse" x1="283.3" y1="192.04" x2="283.3" y2="62.26" gradientTransform="matrix(1 0 0 -1 0 223.76)">
	<stop  offset="0" style="stop-color:#EDE5E2"/>
        <stop  offset="1" style="stop-color:#D0C5C0"/>
</linearGradient>
    <polygon class="MCVB-48" points="295,32.9 272,32.9 271.5,35.2 294.6,35.2 "/>
    <linearGradient id="SVGIDMCVB_45_" gradientUnits="userSpaceOnUse" x1="355.275" y1="192.04" x2="355.275" y2="62.26" gradientTransform="matrix(1 0 0 -1 0 223.76)">
	<stop  offset="0" style="stop-color:#EDE5E2"/>
        <stop  offset="1" style="stop-color:#D0C5C0"/>
</linearGradient>
    <polygon class="MCVB-49" points="364.1,32.9 346.8,32.9 346.5,35.2 363.7,35.2 "/>
    <linearGradient id="SVGIDMCVB_46_" gradientUnits="userSpaceOnUse" x1="424.36" y1="192.04" x2="424.36" y2="62.26" gradientTransform="matrix(1 0 0 -1 0 223.76)">
	<stop  offset="0" style="stop-color:#EDE5E2"/>
        <stop  offset="1" style="stop-color:#D0C5C0"/>
</linearGradient>
    <polygon class="MCVB-50" points="398.3,35.2 450.2,35.2 450.4,32.9 398.6,32.9 "/>
    <linearGradient id="SVGIDMCVB_47_" gradientUnits="userSpaceOnUse" x1="474.795" y1="192.04" x2="474.795" y2="62.26" gradientTransform="matrix(1 0 0 -1 0 223.76)">
	<stop  offset="0" style="stop-color:#EDE5E2"/>
        <stop  offset="1" style="stop-color:#D0C5C0"/>
</linearGradient>
    <polygon class="MCVB-51" points="483.6,47.4 466.2,47.4 466,49.8 483.4,49.8 "/>
    <linearGradient id="SVGIDMCVB_48_" gradientUnits="userSpaceOnUse" x1="631.315" y1="192.04" x2="631.315" y2="62.26" gradientTransform="matrix(1 0 0 -1 0 223.76)">
	<stop  offset="0" style="stop-color:#EDE5E2"/>
        <stop  offset="1" style="stop-color:#D0C5C0"/>
</linearGradient>
    <polygon class="MCVB-52" points="657.5,52.2 605.2,52.2 605.1,54.7 657.5,54.7 "/>
    <linearGradient id="SVGIDMCVB_49_" gradientUnits="userSpaceOnUse" x1="753.235" y1="192.04" x2="753.235" y2="62.26" gradientTransform="matrix(1 0 0 -1 0 223.76)">
	<stop  offset="0" style="stop-color:#EDE5E2"/>
        <stop  offset="1" style="stop-color:#D0C5C0"/>
</linearGradient>
    <polygon class="MCVB-53" points="761.9,47.4 744.5,47.4 744.6,49.8 762,49.8 "/>
    <linearGradient id="SVGIDMCVB_50_" gradientUnits="userSpaceOnUse" x1="804.76" y1="192.04" x2="804.76" y2="62.26" gradientTransform="matrix(1 0 0 -1 0 223.76)">
	<stop  offset="0" style="stop-color:#EDE5E2"/>
        <stop  offset="1" style="stop-color:#D0C5C0"/>
</linearGradient>
    <polygon class="MCVB-54" points="813.5,40.1 813.3,37.7 796,37.7 796.2,40.1 "/>
    <linearGradient id="SVGIDMCVB_51_" gradientUnits="userSpaceOnUse" x1="1177.0699" y1="192.04" x2="1177.0699" y2="62.26" gradientTransform="matrix(1 0 0 -1 0 223.76)">
	<stop  offset="0" style="stop-color:#EDE5E2"/>
        <stop  offset="1" style="stop-color:#D0C5C0"/>
</linearGradient>
    <polygon class="MCVB-55" points="1159.4,37.7 1160.1,40.1 1194.7,40.1 1194.1,37.7 "/>
    <linearGradient id="SVGIDMCVB_52_" gradientUnits="userSpaceOnUse" x1="1266.54" y1="192.04" x2="1266.54" y2="62.26" gradientTransform="matrix(1 0 0 -1 0 223.76)">
	<stop  offset="0" style="stop-color:#EDE5E2"/>
        <stop  offset="1" style="stop-color:#D0C5C0"/>
</linearGradient>
    <polygon class="MCVB-56" points="1281.3,40.1 1280.6,37.7 1251.7,37.7 1252.5,40.1 "/>
    <linearGradient id="SVGIDMCVB_53_" gradientUnits="userSpaceOnUse" x1="1089.235" y1="192.09" x2="1089.235" y2="62.9" gradientTransform="matrix(1 0 0 -1 0 223.76)">
	<stop  offset="0" style="stop-color:#EDE5E2"/>
        <stop  offset="1" style="stop-color:#D0C5C0"/>
</linearGradient>
    <polygon class="MCVB-57" points="1103.8,20.9 1103.2,18.6 1074.7,18.6 1075.2,20.9 "/>
    <linearGradient id="SVGIDMCVB_54_" gradientUnits="userSpaceOnUse" x1="1087.6001" y1="192.04" x2="1087.6001" y2="62.27" gradientTransform="matrix(1 0 0 -1 0 223.76)">
	<stop  offset="0" style="stop-color:#EDE5E2"/>
        <stop  offset="1" style="stop-color:#D0C5C0"/>
</linearGradient>
    <polygon class="MCVB-58" points="1102.3,40.1 1101.8,37.7 1072.9,37.7 1073.4,40.1 "/>
    <linearGradient id="SVGIDMCVB_55_" gradientUnits="userSpaceOnUse" x1="1125.125" y1="192.04" x2="1125.125" y2="62.26" gradientTransform="matrix(1 0 0 -1 0 223.76)">
	<stop  offset="0" style="stop-color:#EDE5E2"/>
        <stop  offset="1" style="stop-color:#D0C5C0"/>
</linearGradient>
    <polygon class="MCVB-59" points="1142.7,40.1 1142.1,37.7 1107.5,37.7 1108.1,40.1 "/>
    <linearGradient id="SVGIDMCVB_56_" gradientUnits="userSpaceOnUse" x1="774.33" y1="191.91" x2="774.33" y2="62.7" gradientTransform="matrix(1 0 0 -1 0 223.76)">
	<stop  offset="0" style="stop-color:#EDE5E2"/>
        <stop  offset="1" style="stop-color:#D0C5C0"/>
</linearGradient>
    <polygon class="MCVB-60" points="780.2,64.5 780.1,62.1 768.4,62.1 768.5,64.5 "/>
    <linearGradient id="SVGIDMCVB_57_" gradientUnits="userSpaceOnUse" x1="923.09" y1="192.04" x2="923.09" y2="62.27" gradientTransform="matrix(1 0 0 -1 0 223.76)">
	<stop  offset="0" style="stop-color:#EDE5E2"/>
        <stop  offset="1" style="stop-color:#D0C5C0"/>
</linearGradient>
    <polygon class="MCVB-61" points="934.8,40.1 934.5,37.7 911.4,37.7 911.7,40.1 "/>
    <linearGradient id="SVGIDMCVB_58_" gradientUnits="userSpaceOnUse" x1="945.685" y1="192.04" x2="945.685" y2="62.27" gradientTransform="matrix(1 0 0 -1 0 223.76)">
	<stop  offset="0" style="stop-color:#EDE5E2"/>
        <stop  offset="1" style="stop-color:#D0C5C0"/>
</linearGradient>
    <polygon class="MCVB-62" points="954.6,57.1 954.2,54.7 936.8,54.7 937.1,57.1 "/>
    <linearGradient id="SVGIDMCVB_59_" gradientUnits="userSpaceOnUse" x1="963.495" y1="192.04" x2="963.495" y2="62.27" gradientTransform="matrix(1 0 0 -1 0 223.76)">
	<stop  offset="0" style="stop-color:#EDE5E2"/>
        <stop  offset="1" style="stop-color:#D0C5C0"/>
</linearGradient>
    <polygon class="MCVB-63" points="975.2,40.1 974.8,37.7 951.8,37.7 952.1,40.1 "/>
    <linearGradient id="SVGIDMCVB_60_" gradientUnits="userSpaceOnUse" x1="963.16" y1="192.04" x2="963.16" y2="62.26" gradientTransform="matrix(1 0 0 -1 0 223.76)">
	<stop  offset="0" style="stop-color:#EDE5E2"/>
        <stop  offset="1" style="stop-color:#D0C5C0"/>
</linearGradient>
    <polygon class="MCVB-64" points="958.9,67 967.7,67 967.4,64.5 958.6,64.5 "/>
    <linearGradient id="SVGIDMCVB_61_" gradientUnits="userSpaceOnUse" x1="930.975" y1="192.04" x2="930.975" y2="62.26" gradientTransform="matrix(1 0 0 -1 0 223.76)">
	<stop  offset="0" style="stop-color:#EDE5E2"/>
        <stop  offset="1" style="stop-color:#D0C5C0"/>
</linearGradient>
    <polygon class="MCVB-65" points="926.8,67 935.5,67 935.2,64.5 926.4,64.5 "/>
    <linearGradient id="SVGIDMCVB_62_" gradientUnits="userSpaceOnUse" x1="553.64" y1="192.04" x2="553.64" y2="62.26" gradientTransform="matrix(1 0 0 -1 0 223.76)">
	<stop  offset="0" style="stop-color:#EDE5E2"/>
        <stop  offset="1" style="stop-color:#D0C5C0"/>
</linearGradient>
    <polygon class="MCVB-66" points="518.9,40.1 588.2,40.1 588.3,37.7 519.1,37.7 "/>
    <linearGradient id="SVGIDMCVB_63_" gradientUnits="userSpaceOnUse" x1="692.215" y1="192.04" x2="692.215" y2="62.26" gradientTransform="matrix(1 0 0 -1 0 223.76)">
	<stop  offset="0" style="stop-color:#EDE5E2"/>
        <stop  offset="1" style="stop-color:#D0C5C0"/>
</linearGradient>
    <polygon class="MCVB-67" points="726.8,37.7 657.6,37.7 657.6,40.1 726.9,40.1 "/>
    <linearGradient id="SVGIDMCVB_64_" gradientUnits="userSpaceOnUse" x1="859.545" y1="192.04" x2="859.545" y2="62.26" gradientTransform="matrix(1 0 0 -1 0 223.76)">
	<stop  offset="0" style="stop-color:#EDE5E2"/>
        <stop  offset="1" style="stop-color:#D0C5C0"/>
</linearGradient>
    <polygon class="MCVB-68" points="868.5,69.5 868.2,67 850.6,67 850.9,69.5 "/>
    <linearGradient id="SVGIDMCVB_65_" gradientUnits="userSpaceOnUse" x1="44.775" y1="192.04" x2="44.775" y2="62.26" gradientTransform="matrix(1 0 0 -1 0 223.76)">
	<stop  offset="0" style="stop-color:#EDE5E2"/>
        <stop  offset="1" style="stop-color:#D0C5C0"/>
</linearGradient>
    <polygon class="MCVB-69" points="57.1,97.2 33.3,97.2 32.5,99.8 56.3,99.8 "/>
    <linearGradient id="SVGIDMCVB_66_" gradientUnits="userSpaceOnUse" x1="95.33" y1="192.04" x2="95.33" y2="62.26" gradientTransform="matrix(1 0 0 -1 0 223.76)">
	<stop  offset="0" style="stop-color:#EDE5E2"/>
        <stop  offset="1" style="stop-color:#D0C5C0"/>
</linearGradient>
    <polygon class="MCVB-70" points="104.6,97.2 86.8,97.2 86.1,99.8 103.9,99.8 "/>
    <linearGradient id="SVGIDMCVB_67_" gradientUnits="userSpaceOnUse" x1="148.845" y1="192.04" x2="148.845" y2="62.26" gradientTransform="matrix(1 0 0 -1 0 223.76)">
	<stop  offset="0" style="stop-color:#EDE5E2"/>
        <stop  offset="1" style="stop-color:#D0C5C0"/>
</linearGradient>
    <polygon class="MCVB-71" points="158.1,97.2 140.3,97.2 139.6,99.8 157.5,99.8 "/>
    <linearGradient id="SVGIDMCVB_68_" gradientUnits="userSpaceOnUse" x1="1100.34" y1="192.04" x2="1100.34" y2="62.26" gradientTransform="matrix(1 0 0 -1 0 223.76)">
	<stop  offset="0" style="stop-color:#EDE5E2"/>
        <stop  offset="1" style="stop-color:#D0C5C0"/>
</linearGradient>
    <polygon class="MCVB-72" points="1085.2,97.2 1085.7,99.8 1115.5,99.8 1114.9,97.2 "/>
    <linearGradient id="SVGIDMCVB_69_" gradientUnits="userSpaceOnUse" x1="1139" y1="192.04" x2="1139" y2="62.26" gradientTransform="matrix(1 0 0 -1 0 223.76)">
	<stop  offset="0" style="stop-color:#EDE5E2"/>
        <stop  offset="1" style="stop-color:#D0C5C0"/>
</linearGradient>
    <polygon class="MCVB-73" points="1120.9,97.2 1121.4,99.8 1157.1,99.8 1156.5,97.2 "/>
    <linearGradient id="SVGIDMCVB_70_" gradientUnits="userSpaceOnUse" x1="1043.845" y1="192.04" x2="1043.845" y2="62.26" gradientTransform="matrix(1 0 0 -1 0 223.76)">
	<stop  offset="0" style="stop-color:#EDE5E2"/>
        <stop  offset="1" style="stop-color:#D0C5C0"/>
</linearGradient>
    <polygon class="MCVB-74" points="1055.5,97.2 1031.7,97.2 1032.2,99.8 1056,99.8 "/>
    <linearGradient id="SVGIDMCVB_71_" gradientUnits="userSpaceOnUse" x1="550.235" y1="192.04" x2="550.235" y2="62.26" gradientTransform="matrix(1 0 0 -1 0 223.76)">
	<stop  offset="0" style="stop-color:#EDE5E2"/>
        <stop  offset="1" style="stop-color:#D0C5C0"/>
</linearGradient>
    <polygon class="MCVB-75" points="514.5,99.8 585.9,99.8 586,97.2 514.7,97.2 "/>
    <linearGradient id="SVGIDMCVB_72_" gradientUnits="userSpaceOnUse" x1="660.135" y1="192.04" x2="660.135" y2="62.26" gradientTransform="matrix(1 0 0 -1 0 223.76)">
	<stop  offset="0" style="stop-color:#EDE5E2"/>
        <stop  offset="1" style="stop-color:#D0C5C0"/>
</linearGradient>
    <polygon class="MCVB-76" points="663.2,144.4 657.1,144.4 657.1,147 663.2,147 "/>
    <linearGradient id="SVGIDMCVB_73_" gradientUnits="userSpaceOnUse" x1="808.95" y1="192.04" x2="808.95" y2="62.26" gradientTransform="matrix(1 0 0 -1 0 223.76)">
	<stop  offset="0" style="stop-color:#EDE5E2"/>
        <stop  offset="1" style="stop-color:#D0C5C0"/>
</linearGradient>
    <polygon class="MCVB-77" points="799.9,97.2 800.1,99.8 818,99.8 817.8,97.2 "/>
    <linearGradient id="SVGIDMCVB_74_" gradientUnits="userSpaceOnUse" x1="953.845" y1="192.04" x2="953.845" y2="62.26" gradientTransform="matrix(1 0 0 -1 0 223.76)">
	<stop  offset="0" style="stop-color:#EDE5E2"/>
        <stop  offset="1" style="stop-color:#D0C5C0"/>
</linearGradient>
    <polygon class="MCVB-78" points="944.7,112.7 945,115.3 963,115.3 962.6,112.7 "/>
    <polygon class="MCVB-4" points="710.8,192.1 710.7,194.4 728.4,194.4 728.6,192.1 "/>
    <polygon class="MCVB-4" points="318.8,192.1 319.7,194.4 325.6,194.4 324.7,192.1 "/>
    <polygon class="MCVB-0" points="87.1,192.1 88.7,194.4 92.1,181.6 90.6,179.3 "/>
    <polygon class="MCVB-0" points="1209.7,192.1 1208.2,194.4 1204.8,180.7 1206.2,178.4 "/>
</svg>
