<?xml version="1.0" encoding="utf-8"?>
<svg version="1.1" id="Dungeons_logo" xmlns="http://www.w3.org/2000/svg" xmlns:xlink="http://www.w3.org/1999/xlink"
     x="0px"
     y="0px" viewBox="0 0 2638.3 600.3" style="enable-background:new 0 0 2638.3 600.3;" xml:space="preserve">
<style type="text/css">
	.MCD-0{fill:url(#SVGIDMCD_1_);}
	.MCD-1{fill:url(#SVGIDMCD_2_);}
	.MCD-2{fill:url(#SVGIDMCD_3_);}
	.MCD-3{fill:url(#SVGIDMCD_4_);}
	.MCD-4{fill:url(#SVGIDMCD_5_);}
	.MCD-5{fill:url(#SVGIDMCD_6_);}
	.MCD-6{fill:url(#SVGIDMCD_7_);}
	.MCD-7{fill:url(#SVGIDMCD_8_);}
	.MCD-8{fill:url(#SVGIDMCD_9_);}
	.MCD-9{fill:url(#SVGIDMCD_10_);}
	.MCD-10{fill:url(#SVGIDMCD_11_);}
	.MCD-11{fill:url(#SVGIDMCD_12_);}
	.MCD-12{fill:url(#SVGIDMCD_13_);}
	.MCD-13{fill:#D0C5C0;}
	.MCD-14{fill:#190D19;}
	.MCD-15{opacity:0.5;fill:#9B2A5E;enable-background:new    ;}
	.MCD-16{opacity:0.75;fill:url(#SVGIDMCD_14_);enable-background:new    ;}
	.MCD-17{opacity:0.75;fill:url(#SVGIDMCD_15_);enable-background:new    ;}
	.MCD-18{opacity:0.75;fill:url(#SVGIDMCD_16_);enable-background:new    ;}
	.MCD-19{opacity:0.75;fill:url(#SVGIDMCD_17_);enable-background:new    ;}
	.MCD-20{opacity:0.75;fill:url(#SVGIDMCD_18_);enable-background:new    ;}
	.MCD-21{opacity:0.75;fill:url(#SVGIDMCD_19_);enable-background:new    ;}
	.MCD-22{opacity:0.75;fill:url(#SVGIDMCD_20_);enable-background:new    ;}
	.MCD-23{opacity:0.75;fill:url(#SVGIDMCD_21_);enable-background:new    ;}
	.MCD-24{opacity:0.75;fill:url(#SVGIDMCD_22_);enable-background:new    ;}
	.MCD-25{opacity:0.75;fill:url(#SVGIDMCD_23_);enable-background:new    ;}
	.MCD-26{opacity:0.75;fill:url(#SVGIDMCD_24_);enable-background:new    ;}
	.MCD-27{fill:url(#SVGIDMCD_25_);}
	.MCD-28{fill:url(#SVGIDMCD_26_);}
	.MCD-29{fill:url(#SVGIDMCD_27_);}
	.MCD-30{fill:url(#SVGIDMCD_28_);}
	.MCD-31{fill:url(#SVGIDMCD_29_);}
	.MCD-32{fill:url(#SVGIDMCD_30_);}
	.MCD-33{fill:url(#SVGIDMCD_31_);}
	.MCD-34{fill:url(#SVGIDMCD_32_);}
	.MCD-35{fill:url(#SVGIDMCD_33_);}
	.MCD-36{fill:url(#SVGIDMCD_34_);}
	.MCD-37{fill:url(#SVGIDMCD_35_);}
	.MCD-38{fill:url(#SVGIDMCD_36_);}
	.MCD-39{fill:url(#SVGIDMCD_37_);}
	.MCD-40{fill:url(#SVGIDMCD_38_);}
	.MCD-41{opacity:0.5;fill:url(#SVGIDMCD_39_);enable-background:new    ;}
	.MCD-42{fill:url(#SVGIDMCD_40_);}
	.MCD-43{fill:url(#SVGIDMCD_41_);}
	.MCD-44{fill:url(#SVGIDMCD_42_);}
	.MCD-45{fill:url(#SVGIDMCD_43_);}
	.MCD-46{fill:url(#SVGIDMCD_44_);}
	.MCD-47{fill:url(#SVGIDMCD_45_);}
	.MCD-48{fill:url(#SVGIDMCD_46_);}
	.MCD-49{fill:url(#SVGIDMCD_47_);}
	.MCD-50{fill:url(#SVGIDMCD_48_);}
	.MCD-51{fill:url(#SVGIDMCD_49_);}
	.MCD-52{fill:url(#SVGIDMCD_50_);}
	.MCD-53{fill:url(#SVGIDMCD_51_);}
	.MCD-54{fill:url(#SVGIDMCD_52_);}
	.MCD-55{fill:#8F1F0B;}
	.MCD-56{fill:url(#SVGIDMCD_53_);}
	.MCD-57{fill:url(#SVGIDMCD_54_);}
	.MCD-58{fill:url(#SVGIDMCD_55_);}
	.MCD-59{fill:#5E0F33;}
	.MCD-60{fill:url(#SVGIDMCD_56_);}
</style>
    <polygon points="1870.8,374.8 722.3,374.8 722.3,80.9 1236,80.9 1279.6,163.3 1457.2,163.3 1513.7,80.9 1870.8,80.9 "/>
    <path d="M1923.4,80.3l23.4-38.7l-13-41.6h-890.4l-4.2,30.4L1031,0H823.5l-7.2,28.6h-17.2L795,44.4L772.1,0h-67.6l-51.5,165.4
	l41.1,56.3h67.5l8.3-31.3h27.3l18.3,31.3h208.5l5-36.2l11.5,36.2h696.5l28.2-58.4h25.5l22.4-43.8h1.9l24.7,102.2h70.1l38.8-56.4
	L1923.4,80.3z M1321.6,119.6l0.1-19.7h59.9l0.6,19.7H1321.6z"/>
    <linearGradient id="SVGIDMCD_1_" gradientUnits="userSpaceOnUse" x1="906.095" y1="440.95" x2="906.095" y2="394.01"
                    gradientTransform="matrix(1 0 0 -1 0 604.28)">
	<stop offset="0.25" style="stop-color:#3D3938"/>
        <stop offset="1" style="stop-color:#000000"/>
</linearGradient>
    <polygon class="MCD-0" points="923.3,163.3 868.1,163.3 891.7,210.3 944.1,210.3 "/>
    <linearGradient id="SVGIDMCD_2_" gradientUnits="userSpaceOnUse" x1="977.8" y1="440.95" x2="977.8" y2="394.01"
                    gradientTransform="matrix(1 0 0 -1 0 604.28)">
	<stop offset="0.25" style="stop-color:#3D3938"/>
        <stop offset="1" style="stop-color:#000000"/>
</linearGradient>
    <polygon class="MCD-1" points="941.8,163.3 961.5,210.3 1013.8,210.3 997,163.3 "/>
    <linearGradient id="SVGIDMCD_3_" gradientUnits="userSpaceOnUse" x1="1174.03" y1="440.95" x2="1174.03" y2="394.01"
                    gradientTransform="matrix(1 0 0 -1 0 604.28)">
	<stop offset="0.25" style="stop-color:#3D3938"/>
        <stop offset="1" style="stop-color:#000000"/>
</linearGradient>
    <polygon class="MCD-2" points="1107.4,163.3 1118.5,210.3 1240.6,210.3 1236.3,163.3 "/>
    <linearGradient id="SVGIDMCD_4_" gradientUnits="userSpaceOnUse" x1="1319.135" y1="440.95" x2="1319.135" y2="394.01"
                    gradientTransform="matrix(1 0 0 -1 0 604.28)">
	<stop offset="0.25" style="stop-color:#3D3938"/>
        <stop offset="1" style="stop-color:#000000"/>
</linearGradient>
    <polygon class="MCD-3" points="1383.6,163.3 1380.2,210.3 1258.1,210.3 1254.7,163.3 "/>
    <linearGradient id="SVGIDMCD_5_" gradientUnits="userSpaceOnUse" x1="1427.42" y1="440.95" x2="1427.42" y2="394.01"
                    gradientTransform="matrix(1 0 0 -1 0 604.28)">
	<stop offset="0.25" style="stop-color:#3D3938"/>
        <stop offset="1" style="stop-color:#000000"/>
</linearGradient>
    <polygon class="MCD-4" points="1402,163.3 1457.2,163.3 1450,210.3 1397.6,210.3 "/>
    <linearGradient id="SVGIDMCD_6_" gradientUnits="userSpaceOnUse" x1="1499.13" y1="440.95" x2="1499.13" y2="394.01"
                    gradientTransform="matrix(1 0 0 -1 0 604.28)">
	<stop offset="0.25" style="stop-color:#3D3938"/>
        <stop offset="1" style="stop-color:#000000"/>
</linearGradient>
    <polygon class="MCD-5" points="1475.6,163.3 1467.4,210.3 1519.8,210.3 1530.8,163.3 "/>
    <linearGradient id="SVGIDMCD_7_" gradientUnits="userSpaceOnUse" x1="1570.835" y1="440.95" x2="1570.835" y2="394.01"
                    gradientTransform="matrix(1 0 0 -1 0 604.28)">
	<stop offset="0.25" style="stop-color:#3D3938"/>
        <stop offset="1" style="stop-color:#000000"/>
</linearGradient>
    <polygon class="MCD-6" points="1549.2,163.3 1537.2,210.3 1589.5,210.3 1604.5,163.3 "/>
    <linearGradient id="SVGIDMCD_8_" gradientUnits="userSpaceOnUse" x1="1642.5449" y1="440.95" x2="1642.5449" y2="394.01"
                    gradientTransform="matrix(1 0 0 -1 0 604.28)">
	<stop offset="0.25" style="stop-color:#3D3938"/>
        <stop offset="1" style="stop-color:#000000"/>
</linearGradient>
    <polygon class="MCD-7" points="1622.9,163.3 1607,210.3 1659.3,210.3 1678.1,163.3 "/>
    <linearGradient id="SVGIDMCD_9_" gradientUnits="userSpaceOnUse" x1="1714.255" y1="440.95" x2="1714.255" y2="394.01"
                    gradientTransform="matrix(1 0 0 -1 0 604.28)">
	<stop offset="0.25" style="stop-color:#3D3938"/>
        <stop offset="1" style="stop-color:#000000"/>
</linearGradient>
    <polygon class="MCD-8" points="1696.5,163.3 1676.8,210.3 1729.1,210.3 1751.8,163.3 "/>
    <linearGradient id="SVGIDMCD_10_" gradientUnits="userSpaceOnUse" x1="1893.525" y1="440.95" x2="1893.525" y2="394.01"
                    gradientTransform="matrix(1 0 0 -1 0 604.28)">
	<stop offset="0.25" style="stop-color:#3D3938"/>
        <stop offset="1" style="stop-color:#000000"/>
</linearGradient>
    <polygon class="MCD-9" points="1880.6,163.3 1851.2,210.3 1903.5,210.3 1935.8,163.3 "/>
    <linearGradient id="SVGIDMCD_11_" gradientUnits="userSpaceOnUse" x1="1067.4351" y1="440.95" x2="1067.4351" y2="394.01"
                    gradientTransform="matrix(1 0 0 -1 0 604.28)">
	<stop offset="0.25" style="stop-color:#3D3938"/>
        <stop offset="1" style="stop-color:#000000"/>
</linearGradient>
    <polygon class="MCD-10" points="1033.8,163.3 1048.7,210.3 1101.1,210.3 1089,163.3 "/>
    <linearGradient id="SVGIDMCD_12_" gradientUnits="userSpaceOnUse" x1="834.385" y1="440.95" x2="834.385" y2="394.01"
                    gradientTransform="matrix(1 0 0 -1 0 604.28)">
	<stop offset="0.25" style="stop-color:#3D3938"/>
        <stop offset="1" style="stop-color:#000000"/>
</linearGradient>
    <polygon class="MCD-11" points="794.5,163.3 849.7,163.3 874.3,210.3 822,210.3 "/>
    <linearGradient id="SVGIDMCD_13_" gradientUnits="userSpaceOnUse" x1="708.895" y1="440.95" x2="708.895" y2="394.01"
                    gradientTransform="matrix(1 0 0 -1 0 604.28)">
	<stop offset="0.25" style="stop-color:#3D3938"/>
        <stop offset="1" style="stop-color:#000000"/>
</linearGradient>
    <polygon class="MCD-12" points="699.8,210.3 665.6,163.3 720.9,163.3 752.2,210.3 "/>
    <path class="MCD-13" d="M810.4,99.8h-17.8l-8.1,31.2h-36.3l8.6-31.2H739l-18.1,63.5h-55.2l47.3-151.8h51.2L756,40.1h17.3l-8.1,29.4
	h35.2l7.6-29.4h17.3l7.2-28.6h51.2l-34,151.8h-55.2L810.4,99.8z M900.8,11.5H952l-28.7,151.8h-55.2L900.8,11.5z M1122.8,11.5h119.5
	l-1.2,28.6h-69.3l-2.2,29.4h70.3l-1.2,30.3h-71.4l-2.3,31.2h72.5l-1.3,32.3h-128.8L1122.8,11.5z M1259.4,11.5h119.5l0.9,28.6h-69.3
	l-0.4,91h72.5l1,32.3h-128.9L1259.4,11.5z M1470.9,99.8H1453l4.2,63.5H1402l-6-151.8h119.5l5.8,58h-17.6l1.4,15h17.7l8,78.8h-55.2
	L1470.9,99.8z M1449.1,40.1l1.9,29.4h17.6l-2.2-29.4H1449.1z M1669.2,11.5h119.5l6.9,28.6h-69.3l6.1,29.4h70.3l7.3,30.3h-71.4
	l13.1,63.5h-55.2L1669.2,11.5z M1847.7,40.1H1813l-7.1-28.6h119.5l8.9,28.6h-34.6l36.2,123.3h-55.2L1847.7,40.1z M1040.4,115.3h-18
	l4.5-30.8h-17.7L997,163.3h-55.2l27.3-151.8h51.2l-4.4,28.6h17.3l-4.3,29.4h17.6l7.9-58h51.2L1089,163.3h-55.2L1040.4,115.3z
	 M1652.1,11.5h-119.6l16.7,151.8h55.2l-6.5-48h18l7,48h55.2L1652.1,11.5z M1611.9,67h8.8l4.2,27.7h-11.9l-1.5-10.1h-17.7l1.4,10.1
	h-11.9l-3.6-27.7h8.8l-1-7.4H1567l-2.4-19.5h23.1l2.3,17.1h17.5l-2.5-17.1h23.1l3,19.5h-20.4L1611.9,67z"/>
    <polygon points="2638.3,405.7 2572.8,288.2 2499.4,288.2 2467.2,226.8 2383.4,226.8 2373,234.7 2355,197.3 2014.3,197.3 
	1977.6,241.8 1936.8,241.8 1924.5,197.3 1836.8,197.3 1818.6,226.8 1799.1,226.8 1792.8,197.3 1610.6,197.3 1600.1,226.8 
	1576.7,226.8 1573.3,197.3 968.4,197.3 954,288.2 949.6,288.2 926.5,241.8 904.9,241.8 881.5,197.3 690.4,197.3 694.6,203.1 
	677.6,262.3 623.9,197.3 538.1,197.3 525.5,232.4 491,197.3 283.2,197.3 265.3,234.7 254.9,226.8 171.1,226.8 138.8,288.2 
	65.5,288.2 0,405.7 61,436.6 39.7,477.2 134.3,521.4 145.7,521.4 313.1,600.3 514.8,600.2 525.5,567.3 546.1,567.3 596.3,600.3 
	765.6,600.3 772.9,567.3 775.1,567.3 810.3,600.3 895.3,600.3 912.2,502.3 980.9,600.3 1564,600.3 1580.5,567.3 1600.8,567.3 
	1604.6,600.3 1776.7,600.3 1813.1,562.2 1820.8,600.3 1905.1,600.3 1977.7,541.2 1993.7,600.3 2325.1,600.3 2492.6,521.4 
	2504.1,521.4 2598.6,477.2 2577.2,436.5 "/>
    <polygon class="MCD-14" points="2620.3,400.2 2565.1,301.2 2491.6,301.2 2459.3,239.8 2387.8,239.8 2368.2,254.8 2346.9,210.3 
	2117.5,210.3 2098.4,230.6 2091,210.3 2020.5,210.3 1981.7,257.2 1981,254.8 1927,254.8 1914.6,210.3 1844,210.3 1824.8,241.4 
	1824.4,239.8 1788.6,239.8 1782.3,210.3 1623.5,210.3 1612.9,239.8 1591.9,239.8 1558.1,344.2 1555.3,317.1 1553.6,317.1 
	1568.5,270.1 1561.7,210.3 1076.5,210.3 1069.6,271.8 1050.1,210.3 979.5,210.3 965.1,301.2 941.5,301.2 918.4,254.8 897,254.8 
	873.7,210.3 803.1,210.3 795.8,240.4 776.6,210.3 706,210.3 683.4,289.6 617.8,210.3 547.2,210.3 530.7,256.3 485.5,210.3 
	291.4,210.3 270.1,254.8 250.5,239.8 178.9,239.8 146.7,301.2 73.1,301.2 17.9,400.2 78.6,431 57.5,471.2 137.2,508.4 148.6,508.4 
	316.2,587.3 505.5,587.3 516,554.3 550,554.3 600.3,587.3 755.2,587.3 762.5,554.3 780.3,554.3 815.4,587.3 884.4,587.3 
	911.3,430.8 924.8,430.8 940.6,455.9 932.3,508.4 987.7,587.3 1056.5,587.3 1061,544.6 1082.4,587.3 1555.9,587.3 1577.3,544.5 
	1578.4,554.3 1612.3,554.3 1616.2,587.3 1771.2,587.3 1820.9,535.3 1831.5,587.3 1900.3,587.3 1985,518.5 2003.7,587.3 
	2072.6,587.3 2094.1,573.7 2098.4,587.3 2322.2,587.3 2489.7,508.4 2501.1,508.4 2580.8,471.2 2559.6,431 "/>
    <polygon class="MCD-15" points="712,551.1 713.4,544.9 717.7,548.6 716.3,554.7 "/>
    <polygon class="MCD-15" points="2056.1,551.1 2053.4,542 2048.2,545.6 2050.9,554.7 "/>
    <linearGradient id="SVGIDMCD_14_" gradientUnits="userSpaceOnUse" x1="1223.9301" y1="334.23" x2="1223.9301" y2="221.18"
                    gradientTransform="matrix(1 0 0 -1 0 604.28)">
	<stop offset="0" style="stop-color:#4F1030"/>
        <stop offset="1" style="stop-color:#190D19"/>
</linearGradient>
    <polyline class="MCD-16"
              points="1142.3,270.1 1305.5,270.1 1305.2,317.1 1175.6,317.1 1171.4,383.1 1167.6,383.1 1142.3,270.1 "/>
    <linearGradient id="SVGIDMCD_15_" gradientUnits="userSpaceOnUse" x1="2293.895" y1="334.23" x2="2293.895" y2="287.16"
                    gradientTransform="matrix(1 0 0 -1 0 604.28)">
	<stop offset="0" style="stop-color:#4F1030"/>
        <stop offset="1" style="stop-color:#190D19"/>
</linearGradient>
    <polygon class="MCD-17" points="2375.5,270.1 2212.3,270.1 2231.4,317.1 2312.5,317.1 "/>
    <linearGradient id="SVGIDMCD_16_" gradientUnits="userSpaceOnUse" x1="2388.55" y1="334.23" x2="2388.55" y2="287.16"
                    gradientTransform="matrix(1 0 0 -1 0 604.28)">
	<stop offset="0" style="stop-color:#4F1030"/>
        <stop offset="1" style="stop-color:#190D19"/>
</linearGradient>
    <polygon class="MCD-18" points="2439,270.1 2402.7,270.1 2338.1,317.1 2372.2,317.1 "/>
    <linearGradient id="SVGIDMCD_17_" gradientUnits="userSpaceOnUse" x1="1976.7301" y1="271.02" x2="1976.7301" y2="225.19"
                    gradientTransform="matrix(1 0 0 -1 0 604.28)">
	<stop offset="0" style="stop-color:#4F1030"/>
        <stop offset="1" style="stop-color:#190D19"/>
</linearGradient>
    <polygon class="MCD-19" points="1948.8,333.3 1961.5,379.1 2004.7,333.3 "/>
    <linearGradient id="SVGIDMCD_18_" gradientUnits="userSpaceOnUse" x1="1713.575" y1="334.23" x2="1713.575" y2="207.46"
                    gradientTransform="matrix(1 0 0 -1 0 604.28)">
	<stop offset="0" style="stop-color:#4F1030"/>
        <stop offset="1" style="stop-color:#190D19"/>
</linearGradient>
    <polygon class="MCD-20" points="1758.9,270.1 1668.2,270.1 1688.3,396.8 "/>
    <linearGradient id="SVGIDMCD_19_" gradientUnits="userSpaceOnUse" x1="227.515" y1="334.23" x2="227.515" y2="300.77"
                    gradientTransform="matrix(1 0 0 -1 0 604.28)">
	<stop offset="0" style="stop-color:#4F1030"/>
        <stop offset="1" style="stop-color:#190D19"/>
</linearGradient>
    <polygon class="MCD-21" points="199.3,270.1 246.7,303.5 255.7,284.8 235.6,270.1 "/>
    <linearGradient id="SVGIDMCD_20_" gradientUnits="userSpaceOnUse" x1="380.65" y1="334.23" x2="380.65" y2="279.31"
                    gradientTransform="matrix(1 0 0 -1 0 604.28)">
	<stop offset="0" style="stop-color:#4F1030"/>
        <stop offset="1" style="stop-color:#190D19"/>
</linearGradient>
    <polygon class="MCD-22" points="335.3,270.1 403.7,325 426,270.1 "/>
    <linearGradient id="SVGIDMCD_21_" gradientUnits="userSpaceOnUse" x1="1486.885" y1="334.23" x2="1486.885" y2="287.16"
                    gradientTransform="matrix(1 0 0 -1 0 604.28)">
	<stop offset="0" style="stop-color:#4F1030"/>
        <stop offset="1" style="stop-color:#190D19"/>
</linearGradient>
    <polygon class="MCD-23" points="1405.3,270.1 1407.1,317.1 1553.6,317.1 1568.5,270.1 "/>
    <linearGradient id="SVGIDMCD_22_" gradientUnits="userSpaceOnUse" x1="886.455" y1="271.02" x2="886.455" y2="173.53"
                    gradientTransform="matrix(1 0 0 -1 0 604.28)">
	<stop offset="0" style="stop-color:#4F1030"/>
        <stop offset="1" style="stop-color:#190D19"/>
</linearGradient>
    <polygon class="MCD-24" points="848.1,333.3 911.3,430.8 924.8,430.8 894.9,383.1 904.1,333.3 "/>
    <linearGradient id="SVGIDMCD_23_" gradientUnits="userSpaceOnUse" x1="2483.3301" y1="271.02" x2="2483.3301" y2="207.42"
                    gradientTransform="matrix(1 0 0 -1 0 604.28)">
	<stop offset="0" style="stop-color:#4F1030"/>
        <stop offset="1" style="stop-color:#190D19"/>
</linearGradient>
    <polygon class="MCD-25" points="2471.1,333.3 2420.9,364.9 2436.3,396.9 2487.8,366.2 2490,366.2 2545.7,333.3 "/>
    <linearGradient id="SVGIDMCD_24_" gradientUnits="userSpaceOnUse" x1="154.95" y1="271.02" x2="154.95" y2="207.43"
                    gradientTransform="matrix(1 0 0 -1 0 604.28)">
	<stop offset="0" style="stop-color:#4F1030"/>
        <stop offset="1" style="stop-color:#190D19"/>
</linearGradient>
    <polygon class="MCD-26" points="92.6,333.3 148.3,366.2 150.4,366.2 202,396.9 217.3,364.9 167.2,333.3 "/>
    <linearGradient id="SVGIDMCD_25_" gradientUnits="userSpaceOnUse" x1="2581.9199" y1="204.07" x2="2581.9199" y2="173.31"
                    gradientTransform="matrix(1 0 0 -1 0 604.28)">
	<stop offset="0" style="stop-color:#4F1030"/>
        <stop offset="1" style="stop-color:#190D19"/>
</linearGradient>
    <polygon class="MCD-27" points="2620.3,400.2 2559.6,431 2543.5,400.2 "/>
    <linearGradient id="SVGIDMCD_26_" gradientUnits="userSpaceOnUse" x1="56.355" y1="204.07" x2="56.355" y2="173.31"
                    gradientTransform="matrix(1 0 0 -1 0 604.28)">
	<stop offset="0" style="stop-color:#4F1030"/>
        <stop offset="1" style="stop-color:#190D19"/>
</linearGradient>
    <polygon class="MCD-28" points="17.9,400.2 78.6,431 94.8,400.2 "/>
    <linearGradient id="SVGIDMCD_27_" gradientUnits="userSpaceOnUse" x1="1199.98" y1="221.18" x2="1199.98" y2="169.1"
                    gradientTransform="matrix(1 0 0 -1 0 604.28)">
	<stop offset="0" style="stop-color:#5E0F33"/>
        <stop offset="1" style="stop-color:#190D19"/>
</linearGradient>
    <polyline class="MCD-29" points="1171.4,383.1 1182.8,435.2 1226.5,435.2 1228.6,383.1 1171.4,383.1 "/>
    <linearGradient id="SVGIDMCD_28_" gradientUnits="userSpaceOnUse" x1="2529.1899" y1="133.05" x2="2529.1899" y2="95.86"
                    gradientTransform="matrix(1 0 0 -1 0 604.28)">
	<stop offset="0" style="stop-color:#5E0F33"/>
        <stop offset="1" style="stop-color:#190D19"/>
</linearGradient>
    <polygon class="MCD-30" points="2580.8,471.2 2501.6,471.2 2477.6,483.2 2489.7,508.4 2501.1,508.4 "/>
    <linearGradient id="SVGIDMCD_29_" gradientUnits="userSpaceOnUse" x1="467.055" y1="133.05" x2="467.055" y2="50.01"
                    gradientTransform="matrix(1 0 0 -1 0 604.28)">
	<stop offset="0" style="stop-color:#5E0F33"/>
        <stop offset="1" style="stop-color:#190D19"/>
</linearGradient>
    <polygon class="MCD-31" points="384.1,471.2 516,554.3 550,554.3 480.2,508.4 423.6,471.2 "/>
    <linearGradient id="SVGIDMCD_30_" gradientUnits="userSpaceOnUse" x1="725.64" y1="133.05" x2="725.64" y2="50"
                    gradientTransform="matrix(1 0 0 -1 0 604.28)">
	<stop offset="0" style="stop-color:#5E0F33"/>
        <stop offset="1" style="stop-color:#190D19"/>
</linearGradient>
    <polygon class="MCD-32" points="671,471.2 762.5,554.3 780.3,554.3 731.3,508.4 734.7,494.5 710.6,471.2 "/>
    <linearGradient id="SVGIDMCD_31_" gradientUnits="userSpaceOnUse" x1="2256.4749" y1="221.18" x2="2256.4749" y2="152.6"
                    gradientTransform="matrix(1 0 0 -1 0 604.28)">
	<stop offset="0" style="stop-color:#5E0F33"/>
        <stop offset="1" style="stop-color:#190D19"/>
</linearGradient>
    <polygon class="MCD-33" points="2177.9,451.7 2201.2,435.2 2273.8,435.2 2353.4,383.1 2181.8,383.1 2159.5,400.6 "/>
    <linearGradient id="SVGIDMCD_32_" gradientUnits="userSpaceOnUse" x1="2025.8301" y1="221.18" x2="2025.8301" y2="139.33"
                    gradientTransform="matrix(1 0 0 -1 0 604.28)">
	<stop offset="0" style="stop-color:#5E0F33"/>
        <stop offset="1" style="stop-color:#190D19"/>
</linearGradient>
    <polygon class="MCD-34" points="1985.3,465 2077,383.1 2019.8,383.1 1974.7,426.7 "/>
    <linearGradient id="SVGIDMCD_33_" gradientUnits="userSpaceOnUse" x1="109.085" y1="133.05" x2="109.085" y2="95.9"
                    gradientTransform="matrix(1 0 0 -1 0 604.28)">
	<stop offset="0" style="stop-color:#5E0F33"/>
        <stop offset="1" style="stop-color:#190D19"/>
</linearGradient>
    <polygon class="MCD-35" points="57.5,471.2 137.2,508.4 148.6,508.4 160.7,483.2 136.7,471.2 "/>
    <linearGradient id="SVGIDMCD_34_" gradientUnits="userSpaceOnUse" x1="1858.42" y1="133.05" x2="1858.42" y2="99.11"
                    gradientTransform="matrix(1 0 0 -1 0 604.28)">
	<stop offset="0" style="stop-color:#5E0F33"/>
        <stop offset="1" style="stop-color:#190D19"/>
</linearGradient>
    <polygon class="MCD-36" points="1838.6,471.2 1846,505.2 1878.2,471.2 "/>
    <linearGradient id="SVGIDMCD_35_" gradientUnits="userSpaceOnUse" x1="1619.4399" y1="133.05" x2="1619.4399" y2="50"
                    gradientTransform="matrix(1 0 0 -1 0 604.28)">
	<stop offset="0" style="stop-color:#5E0F33"/>
        <stop offset="1" style="stop-color:#190D19"/>
</linearGradient>
    <polygon class="MCD-37" points="1612.3,554.3 1660.5,471.2 1620.9,471.2 1578.4,554.3 "/>
    <linearGradient id="SVGIDMCD_36_" gradientUnits="userSpaceOnUse" x1="1485.96" y1="221.18" x2="1485.96" y2="169.1"
                    gradientTransform="matrix(1 0 0 -1 0 604.28)">
	<stop offset="0" style="stop-color:#5E0F33"/>
        <stop offset="1" style="stop-color:#190D19"/>
</linearGradient>
    <polygon class="MCD-38" points="1409.7,383.1 1411.7,435.2 1543.5,435.2 1562.2,383.1 "/>
    <linearGradient id="SVGIDMCD_37_" gradientUnits="userSpaceOnUse" x1="923.535" y1="221.18" x2="923.535" y2="148.35"
                    gradientTransform="matrix(1 0 0 -1 0 604.28)">
	<stop offset="0" style="stop-color:#5E0F33"/>
        <stop offset="1" style="stop-color:#190D19"/>
</linearGradient>
    <polygon class="MCD-39" points="940.6,455.9 952.1,383.1 894.9,383.1 "/>
    <linearGradient id="SVGIDMCD_38_" gradientUnits="userSpaceOnUse" x1="1319.1401" y1="93.5" x2="1319.1401" y2="13.74"
                    gradientTransform="matrix(1 0 0 -1 0 604.28)">
	<stop offset="0" style="stop-color:#7B0D3A"/>
        <stop offset="1" style="stop-color:#190D19"/>
</linearGradient>
    <path class="MCD-40" d="M2322.2,587.3h-223.8l130.1-78.9h261.2L2322.2,587.3z M2198.3,508.4h-80.4l-114.3,78.9h68.9L2198.3,508.4z
	 M1997.4,508.4H1917l-85.5,78.9h68.9L1997.4,508.4z M1846.7,508.4h-180.9l-49.6,78.9h155L1846.7,508.4z M1595.5,508.4h-261.2
	l-2.2,78.9h223.9L1595.5,508.4z M1304.1,508.4h-261.3l39.5,78.9h223.9L1304.1,508.4z M1012.7,508.4h-80.4l55.4,78.9h68.9
	L1012.7,508.4z M811.7,508.4h-80.3l84.1,78.9h68.9L811.7,508.4z M661,508.4H480.2l120.1,78.9h154.9L661,508.4z M369.6,508.4h-221
	l167.6,78.9h189.3L369.6,508.4z"/>
    <linearGradient id="SVGIDMCD_39_" gradientUnits="userSpaceOnUse" x1="473.11" y1="132.39" x2="473.11" y2="110.34"
                    gradientTransform="matrix(1 0 0 -1 0 604.28)">
	<stop offset="0" style="stop-color:#8F2244"/>
        <stop offset="1" style="stop-color:#330033"/>
</linearGradient>
    <polygon class="MCD-41" points="453.3,471.2 485.4,493 492.9,471.2 "/>
    <linearGradient id="SVGIDMCD_40_" gradientUnits="userSpaceOnUse" x1="330.555" y1="106.12" x2="330.555" y2="369.93"
                    gradientTransform="matrix(1 0 0 -1 0 604.28)">
	<stop offset="0" style="stop-color:#FFD953"/>
        <stop offset="1" style="stop-color:#FF791A"/>
</linearGradient>
    <path class="MCD-42" d="M163.1,499l133.7-281.4h177l-11.6,29.7H498l-80.9,214.9h-39.4L363.3,499L163.1,499z M247.8,444.1h117.4
	l72.9-181.7H329.7L247.8,444.1z"/>
    <linearGradient id="SVGIDMCD_41_" gradientUnits="userSpaceOnUse" x1="616.185" y1="106.12" x2="616.185" y2="369.93"
                    gradientTransform="matrix(1 0 0 -1 0 604.28)">
	<stop offset="0" style="stop-color:#FFD953"/>
        <stop offset="1" style="stop-color:#FF791A"/>
</linearGradient>
    <polygon class="MCD-43" points="493.4,499 505.9,462.1 466.5,462.1 553.5,217.6 606.6,217.6 531.6,444.1 649,444.1 712.8,217.6 
	765.9,217.6 703,462.1 663.6,462.1 653.5,499 "/>
    <linearGradient id="SVGIDMCD_42_" gradientUnits="userSpaceOnUse" x1="891.96" y1="106.12" x2="891.96" y2="369.93"
                    gradientTransform="matrix(1 0 0 -1 0 604.28)">
	<stop offset="0" style="stop-color:#FFD953"/>
        <stop offset="1" style="stop-color:#FF791A"/>
</linearGradient>
    <polygon class="MCD-44" points="943.8,499 963,374.7 906,374.7 914.8,325.2 840.5,325.2 803.7,499 743.6,499 810.2,217.6 863.3,217.6 
	853.8,262.4 908,262.4 899.2,309.1 973.1,309.1 987.2,217.6 1040.3,217.6 1003.8,499 "/>
    <linearGradient id="SVGIDMCD_43_" gradientUnits="userSpaceOnUse" x1="2019.795" y1="106.12" x2="2019.795" y2="369.93"
                    gradientTransform="matrix(1 0 0 -1 0 604.28)">
	<stop offset="0" style="stop-color:#FFD953"/>
        <stop offset="1" style="stop-color:#FF791A"/>
</linearGradient>
    <polygon class="MCD-45" points="2124.9,499 2083.7,374.7 2026.7,374.7 2011.6,325.2 1937.2,325.2 1984.8,499 1924.7,499 1854.7,217.6 
	1907.8,217.6 1920,262.4 1974.3,262.4 1988.2,309.1 2062,309.1 2031.7,217.6 2084.8,217.6 2184.9,499 "/>
    <linearGradient id="SVGIDMCD_44_" gradientUnits="userSpaceOnUse" x1="2302.1299" y1="106.12" x2="2302.1299" y2="369.93"
                    gradientTransform="matrix(1 0 0 -1 0 604.28)">
	<stop offset="0" style="stop-color:#FFD953"/>
        <stop offset="1" style="stop-color:#FF791A"/>
</linearGradient>
    <polygon class="MCD-46" points="2235,499 2214.3,444.1 2390.4,444.1 2359.1,374.7 2188.2,374.7 2129.1,217.6 2341.5,217.6 
	2362.8,262.4 2200.1,262.4 2225.3,325.2 2392.6,325.2 2475.2,499 "/>
    <linearGradient id="SVGIDMCD_45_" gradientUnits="userSpaceOnUse" x1="135.05" y1="109.94" x2="135.05" y2="373.33"
                    gradientTransform="matrix(1 0 0 -1 0 604.28)">
	<stop offset="0" style="stop-color:#FFD953"/>
        <stop offset="1" style="stop-color:#FF791A"/>
</linearGradient>
    <polygon class="MCD-47" points="72.2,462.1 108.8,391.6 32.3,391.6 77.9,309.1 151.8,309.1 184,247.2 237.8,247.2 230.3,262.4 
	194.2,262.4 162,325.2 87.7,325.2 60.7,374.7 136.7,374.7 101.1,444.1 140.2,444.1 131.3,462.1 "/>
    <linearGradient id="SVGIDMCD_46_" gradientUnits="userSpaceOnUse" x1="2503.2251" y1="109.94" x2="2503.2251" y2="373.33"
                    gradientTransform="matrix(1 0 0 -1 0 604.28)">
	<stop offset="0" style="stop-color:#FFD953"/>
        <stop offset="1" style="stop-color:#FF791A"/>
</linearGradient>
    <polygon class="MCD-48" points="2507,462.1 2498,444.1 2537.2,444.1 2501.6,374.7 2577.6,374.7 2550.6,325.2 2476.3,325.2 
	2444.1,262.4 2408,262.4 2400.5,247.2 2454.3,247.2 2486.5,309.1 2560.3,309.1 2606,391.6 2529.4,391.6 2566.1,462.1 "/>
    <linearGradient id="SVGIDMCD_47_" gradientUnits="userSpaceOnUse" x1="1462.825" y1="106.12" x2="1462.825" y2="369.93"
                    gradientTransform="matrix(1 0 0 -1 0 604.28)">
	<stop offset="0" style="stop-color:#FFD953"/>
        <stop offset="1" style="stop-color:#FF791A"/>
</linearGradient>
    <polygon class="MCD-49" points="1344.2,499 1341.3,217.6 1553.7,217.6 1558.6,262.4 1395.9,262.4 1398.1,325.2 1546.8,325.2 
	1551.8,374.7 1399.9,374.7 1402.3,444.1 1578.4,444.1 1584.4,499 "/>
    <linearGradient id="SVGIDMCD_48_" gradientUnits="userSpaceOnUse" x1="1175.45" y1="106.12" x2="1175.45" y2="369.93"
                    gradientTransform="matrix(1 0 0 -1 0 604.28)">
	<stop offset="0" style="stop-color:#FFD953"/>
        <stop offset="1" style="stop-color:#FF791A"/>
</linearGradient>
    <polygon class="MCD-50" points="1053.9,499 1084.6,217.6 1297,217.6 1296.6,262.4 1133.9,262.4 1118.6,444.1 1236,444.1 1238.4,374.7 
	1181.4,374.7 1184.4,325.2 1295.9,325.2 1294.1,499 "/>
    <linearGradient id="SVGIDMCD_49_" gradientUnits="userSpaceOnUse" x1="1734.02" y1="106.12" x2="1734.02" y2="369.93"
                    gradientTransform="matrix(1 0 0 -1 0 604.28)">
	<stop offset="0" style="stop-color:#FFD953"/>
        <stop offset="1" style="stop-color:#FF791A"/>
</linearGradient>
    <path class="MCD-51" d="M1674.5,499l-5.4-36.8h-39.4l-27.8-214.9h35.9l-4.3-29.7H1775l6.3,29.7h35.9l49.1,214.9h-39.4l7.8,36.9
	L1674.5,499z M1686,444.1h117.4l-37-181.7H1658L1686,444.1z"/>
    <linearGradient id="SVGIDMCD_50_" gradientUnits="userSpaceOnUse" x1="1319.135" y1="92.52" x2="1319.135" y2="395.52"
                    gradientTransform="matrix(1 0 0 -1 0 604.28)">
	<stop offset="0" style="stop-color:#FFC42B"/>
        <stop offset="1" style="stop-color:#FF481B"/>
</linearGradient>
    <path class="MCD-52" d="M146.7,301.2l5.1,7.9l32.2-61.9l-5-7.5L146.7,301.2z M17.9,400.2l14.4-8.6l45.6-82.5l-4.8-7.9L17.9,400.2z
	 M108.8,391.6l-14.1,8.6l-37.2,71l14.6-9.1L108.8,391.6z M148.6,508.4l14.5-9.4l133.7-281.4l-5.4-7.3L148.6,508.4z M438.1,262.4
	l-12.1,7.6l-66.9,165.1l6.2,8.9L438.1,262.4z M453.3,471.2l13.1-9.1l87-244.5l-6.2-7.3L453.3,471.2z M505.9,462.1l-13,9.1
	l-12.7,37.2l13.2-9.4L505.9,462.1z M641.7,435.1l7.2,8.9l63.8-226.5l-6.8-7.3L641.7,435.1z M731.3,508.3l12.3-9.4l66.5-281.4
	l-7.1-7.3L731.3,508.3z M965.1,301.2l8,7.9l14.1-91.6l-7.7-7.3L965.1,301.2z M914.8,325.1l-10.8,8.1l-9.1,49.9l11-8.5L914.8,325.1z
	 M963,374.6l-10.8,8.5l-19.8,125.3l11.5-9.4L963,374.6z M1042.8,508.4l11.1-9.4l30.7-281.4l-8-7.3L1042.8,508.4z M1175.6,317.1
	l-4.2,66l10-8.5l3-49.5L1175.6,317.1z M1238.4,374.7l-9.8,8.5l-2,52.1l9.4,8.9L1238.4,374.7z M1334.2,508.4l10-9.4l-2.9-281.4
	l-8.9-7.3L1334.2,508.4z M1620.9,471.2l8.7-9.1l-27.8-214.9l-9.9-7.5L1620.9,471.2z M1623.5,210.2l4.2,29.5l10,7.5l-4.3-29.7
	L1623.5,210.2z M1766.4,262.4l-7.5,7.6l33,165.1l11.6,8.9 M1669.1,462.1l-8.6,9.1l5.3,37.2l8.7-9.4L1669.1,462.1z M1854.7,217.5
	l-10.6-7.3l73,298.1l7.7-9.4L1854.7,217.5z M2050.2,301.2l11.8,7.9l-30.3-91.6l-11.2-7.3L2050.2,301.2z M2011.6,325.1l-6.9,8.1
	l15.1,49.9l6.9-8.5L2011.6,325.1z M2083.7,374.6l-6.7,8.5l41,125.3l6.9-9.4L2083.7,374.6z M2181.8,383.1l6.4-8.5l-59.1-157.1
	l-11.6-7.3L2181.8,383.1z M2402.7,270.1l5.3-7.6l-7.5-15.1l-12.7-7.5L2402.7,270.1z M2444.1,262.4l-5.1,7.6l32.2,63.2l5.2-8.1
	L2444.1,262.4z M2550.6,325.1l-4.9,8.1l17.8,33l14,8.4L2550.6,325.1z M2522.9,435.1l14.3,9l-35.6-69.4l-13.8-8.4L2522.9,435.1z
	 M2501.6,471.2l5.4-9.1l-8.9-18l-14.2-8.9L2501.6,471.2z M2228.5,508.3l6.5-9.4l-20.7-54.8l-13.1-8.9L2228.5,508.3z M2359.1,374.7
	l-5.7,8.5l23.2,52l13.8,8.9L2359.1,374.7z M162,325.1l5.2,8.1l32.1-63.2l-5.2-7.6L162,325.1z M250.5,239.7l-12.7,7.5l-7.5,15.1
	l5.3,7.6L250.5,239.7z M150.5,366.2l-13.8,8.4l-35.6,69.5l14.3-9L150.5,366.2z M154.5,435.2l-14.2,9l-8.9,18l5.4,9.1L154.5,435.2z
	 M92.6,333.3l-4.9-8.1l-27,49.5l14-8.4L92.6,333.3z M247.8,444.1l13.8-9L335.3,270l-5.6-7.6L247.8,444.1z M509.8,239.8l-11.8,7.5
	l-80.9,214.8l6.5,9.1L509.8,239.8z M485.5,210.3l-11.7,7.3l-11.7,29.6l11.9-7.5L485.5,210.3z M363.3,499l6.3,9.4l14.5-37.2l-6.3-9.1
	L363.3,499z M653.5,499l7.5,9.4l10-37.2l-7.4-9.1L653.5,499z M703,462.1l7.5,9.1l66-261l-10.7,7.3L703,462.1z M617.8,210.3
	l-11.2,7.3l-75,226.6l12.7-8.9L617.8,210.3z M873.7,210.3l-10.4,7.3l-9.5,44.8l10.6-7.6L873.7,210.3z M918.4,254.8l-10.4,7.6
	l-8.8,46.7l10.7-7.9L918.4,254.8z M1050.1,210.3l-9.8,7.3L1003.9,499l8.8,9.4L1050.1,210.3z M803.7,499l8.1,9.4l36.4-175.1l-7.6-8.1
	L803.7,499z M1305.9,210.3l-8.9,7.3l-0.5,44.8l9,7.6L1305.9,210.3z M1305.2,317.1l-9.3,8l-1.8,173.8l10,9.4L1305.2,317.1z
	 M1118.6,444.1l10.5-8.9l13.2-165.1l-8.4-7.6L1118.6,444.1z M1398.1,325.1l9-8l-1.8-47.1l-9.3-7.6L1398.1,325.1z M1555.3,317.1
	l-8.4,8l5,49.5l10.4,8.5L1555.3,317.1z M1587.1,435.1l-8.8,8.9l6,54.9l11.1,9.4L1587.1,435.1z M1402.3,444.1l9.4-8.9l-2-52.1
	l-9.8-8.5L1402.3,444.1z M1561.7,210.3l-8,7.3l4.9,44.8l9.9,7.6L1561.7,210.3z M1686,444.1l8.4-8.9l-26.2-165.2l-10.2-7.6
	L1686,444.1z M1824.4,239.8l-7.2,7.5l49.1,214.8l12,9.1L1824.4,239.8z M1782.3,210.3l-7.3,7.3l6.3,29.7l7.4-7.5L1782.3,210.3z
	 M1834.6,499l12,9.4l-8-37.2l-11.8-9.1L1834.6,499z M1914.6,210.3l-6.8,7.3l12.3,44.8l6.9-7.6L1914.6,210.3z M1981,254.9l-6.7,7.6
	l13.9,46.7l6.8-7.9L1981,254.9z M2091,210.3l-6.2,7.3L2184.9,499l13.4,9.4L2091,210.3z M2346.8,210.3l-5.4,7.3l21.3,44.8l12.7,7.6
	L2346.8,210.3z M2398.1,317.1l-5.4,8l82.6,173.8l14.5,9.4L2398.1,317.1z M2212.3,270.1l-12.1-7.7l25.2,62.7l6-8L2212.3,270.1z
	 M2459.3,239.8l-5,7.5l32.2,61.9l5.1-7.9L2459.3,239.8z M2565.1,301.2l-4.8,7.9l45.6,82.5l14.4,8.6L2565.1,301.2z M2529.4,391.6
	l36.7,70.5l14.6,9.1l-37.2-71L2529.4,391.6z M1937.2,325.1l47.6,173.8l12.6,9.4l-48.6-175.1L1937.2,325.1z"/>
    <linearGradient id="SVGIDMCD_51_" gradientUnits="userSpaceOnUse" x1="1319.175" y1="94.34" x2="1319.175" y2="393.43"
                    gradientTransform="matrix(1 0 0 -1 0 604.28)">
	<stop offset="0" style="stop-color:#FF791A"/>
        <stop offset="1" style="stop-color:#B42D10"/>
</linearGradient>
    <path class="MCD-53" d="M250.5,239.8l-12.7,7.5H184l-5-7.5H250.5z M73.1,301.2l4.8,7.9h73.8l-5.1-7.9H73.1z M74.7,366.2l-14,8.4h76
	l13.8-8.4H74.7z M140.2,444.1l14.2-9h-39l-14.3,9H140.2z M291.4,210.3l5.4,7.3h177l11.7-7.3H291.4z M498,247.3l11.8-7.5H474
	l-11.9,7.5L498,247.3z M261.6,435.1l-13.8,9h117.4l-6.2-9H261.6z M547.2,210.3l6.2,7.3h53.1l11.2-7.3H547.2z M706,210.3l6.8,7.3
	h53.1l10.7-7.3H706z M544.3,435.1l-12.7,9H649l-7.2-9H544.3z M803.1,210.2l7.1,7.3h53.1l10.4-7.3H803.1z M864.4,254.8l-10.6,7.6H908
	l10.4-7.6H864.4z M909.9,301.2l-10.7,8h73.8l-8-7.9L909.9,301.2z M979.5,210.2l7.7,7.3h53.1l9.8-7.3H979.5z M1076.5,210.2l8,7.3
	h212.4l8.9-7.3H1076.5z M1175.5,317.1l8.8,8h111.5l9.3-8H1175.5z M1129.1,435.1l-10.5,9H1236l-9.4-9H1129.1z M1332.4,210.2l8.9,7.3
	h212.4l8-7.3H1332.4z M1407.1,317.1l-9,8h148.7l8.4-8H1407.1z M1411.7,435.1l-9.4,8.9h176.1l8.7-8.9H1411.7z M1591.9,239.7l9.9,7.5
	h35.9l-10-7.5H1591.9z M1623.5,210.2l9.9,7.3H1775l7.3-7.3H1623.5z M1788.6,239.7l-7.4,7.5h35.9l7.2-7.5H1788.6z M1694.4,435.1
	l-8.4,8.9h117.4l-11.6-8.9H1694.4z M1844,210.2l10.6,7.3h53.1l6.8-7.3H1844z M1927,254.8l-6.9,7.6h54.2l6.7-7.6H1927z M1995,301.2
	l-6.8,7.9h73.8l-11.8-7.9H1995z M2020.5,210.2l11.2,7.3h53.1l6.2-7.3H2020.5z M2117.5,210.2l11.6,7.3h212.4l5.4-7.3H2117.5z
	 M2231.4,317.1l-6,8h167.3l5.4-8H2231.4z M2201.2,435.1l13.1,8.9h176.1l-13.8-8.9H2201.2z M2387.8,239.7l12.7,7.5h53.8l5-7.5H2387.8
	z M2491.6,301.2l-5.1,7.9h73.8l4.8-7.9H2491.6z M2487.8,366.2l13.8,8.4h76l-14-8.4H2487.8z M2483.8,435.1l14.2,9h39.1l-14.3-9
	L2483.8,435.1z"/>
    <linearGradient id="SVGIDMCD_52_" gradientUnits="userSpaceOnUse" x1="1319.1201" y1="93.94" x2="1319.1201" y2="398.98"
                    gradientTransform="matrix(1 0 0 -1 0 604.28)">
	<stop offset="0" style="stop-color:#FFF27A"/>
        <stop offset="1" style="stop-color:#FFC42B"/>
</linearGradient>
    <path class="MCD-54" d="M230.3,262.4l5.3,7.6h-36.3l-5.2-7.6H230.3z M87.7,325.1l4.9,8.1h74.6l-5.2-8.1H87.7z M32.3,391.6l-14.4,8.6
	h76.8l14.1-8.6H32.3z M72.1,462.1l-14.6,9.1h79.2l-5.4-9.1H72.1z M163.1,499l-14.5,9.4h221.1l-6.3-9.4H163.1z M377.7,462.1l6.3,9.1
	h39.6l-6.5-9.1H377.7z M329.7,262.4l5.6,7.6H426l12.2-7.6H329.7z M466.5,462.1l-13.1,9.1h39.6l13-9.1H466.5z M663.6,462.1l7.4,9.1
	h39.6l-7.5-9.1H663.6z M493.4,499l-13.2,9.4H661l-7.5-9.4H493.4z M743.6,499l-12.3,9.4h80.4l-8.1-9.4H743.6z M840.5,325.1l7.6,8.1
	h56l10.8-8.1H840.5z M906,374.6l-11,8.5h57.2l10.8-8.5H906z M943.8,499l-11.5,9.4h80.4l-8.8-9.4H943.8z M1053.9,499l-11.1,9.4h261.2
	l-10-9.4H1053.9z M1181.4,374.6l-10,8.5h57.2l9.8-8.5H1181.4z M1133.9,262.4l8.4,7.6h163.2l-9-7.6H1133.9z M1395.9,262.4l9.3,7.6
	h163.2l-9.9-7.6H1395.9z M1399.8,374.6l9.8,8.5h152.5l-10.4-8.5H1399.8z M1344.1,499l-10,9.4h261.2l-11.1-9.4H1344.1z M1674.4,499
	l-8.7,9.4h180.9l-12-9.4H1674.4z M1629.7,462.1l-8.7,9.1h39.6l8.6-9.1H1629.7z M1826.8,462.1l11.8,9.1h39.6l-12-9.1H1826.8z
	 M1658,262.4l10.2,7.6h90.7l7.5-7.6H1658z M1937.2,325.1l11.6,8.1h56l6.9-8.1H1937.2z M2026.7,374.6l-6.9,8.5h57.2l6.7-8.5H2026.7z
	 M2124.9,499l-6.9,9.4h80.4l-13.4-9.4H2124.9z M1924.7,499l-7.7,9.4h80.4l-12.6-9.4H1924.7z M2200.1,262.4l12.1,7.6h163.2l-12.7-7.6
	H2200.1z M2188.1,374.7l-6.4,8.5h171.6l5.7-8.5H2188.1z M2234.9,499l-6.5,9.4h261.2l-14.5-9.4H2234.9z M2506.9,462.1l-5.4,9.1h79.2
	l-14.6-9.1L2506.9,462.1z M2529.4,391.6l14.1,8.6h76.8l-14.4-8.6H2529.4z M2476.3,325.1l-5.2,8.1h74.6l4.9-8.1H2476.3z M2408,262.4
	l-5.3,7.6h36.3l5.1-7.6H2408z M1674,366.2h-56.8l0.5,4.2h56.9L1674,366.2z M905.8,273.9h-72.7l-0.8,3.9h72.8L905.8,273.9z
	 M828.6,273.9h-31.8l-0.9,3.9h31.8L828.6,273.9z M860.2,232.3h-18.2c-2.2,0-4.2,1.4-4.8,3.6v0.1h22.3L860.2,232.3z M1488.8,236
	h-18.3c-1.9-0.1-3.6,1.3-3.8,3.3c0,0.1,0,0.2,0,0.3v0.1l22.3-0.1L1488.8,236z M284.8,362h-28.3l-1.9,4.2h28.4L284.8,362z
	 M269.3,325.1h-23.7l-1.9,4h27.9l0.1-0.1C272.7,326.9,271.7,325.1,269.3,325.1z M724.4,378.9h-24.2c-2.5,0.1-4.7,1.7-5.4,4.1v0.1
	h28.6L724.4,378.9z M782.4,462.1h-30l-1.1,4.5h34.6v-0.2c0.5-1.8-0.5-3.7-2.3-4.3C783.1,462.2,782.7,462.1,782.4,462.1z
	 M1294.5,462.1h-30c-2.5,0-4.5,1.9-4.6,4.4v0.2h34.6L1294.5,462.1z M271.5,391.7h-28.7l-2,4.3h28.8L271.5,391.7z M1829.5,301.2
	h-55.2l0.8,4h55.3L1829.5,301.2z M1967.3,435.2h-58.5l1.1,4.5h58.6L1967.3,435.2z M2426.2,396h-57.5l1.9,4.3h57.6L2426.2,396z
	 M1129.6,313.1h-55.5l-0.4,4h55.6L1129.6,313.1z M587.9,273.9h-54.5l-1.4,3.9h54.6L587.9,273.9z M2124.4,408.9H2095l1.4,4.3h33.8
	l-0.1-0.2C2129.3,410.7,2127,409,2124.4,408.9L2124.4,408.9z M2306.8,466.7h-35c-2.5,0-3.7,2-2.7,4.4l0.1,0.2h39.6L2306.8,466.7z"/>
    <path class="MCD-55" d="M290.5,370.5H281l1.9-4.2h9.5L290.5,370.5z M279.1,395.9h-9.6l-1.9,4.3h9.6L279.1,395.9z M232.5,333.3h9.3
	l1.9-4h-9.3L232.5,333.3z M521.6,281.6h9.1l1.4-3.9H523L521.6,281.6z M585.4,281.6h9.1l1.3-3.9h-9.1L585.4,281.6z M722.3,387.4h9.5
	l1.1-4.2h-9.5L722.3,387.4z M1608.8,374.6h9.5l-0.6-4.2h-9.5L1608.8,374.6z M1675.3,374.6h9.5l-0.7-4.2h-9.5L1675.3,374.6z
	 M1766.7,309.1h9.2l-0.8-4h-9.2L1766.7,309.1z M1831.3,309.1h9.2l-0.9-4h-9.2L1831.3,309.1z M1901.2,444.1h9.8l-1.1-4.5h-9.8
	L1901.2,444.1z M1969.7,444.1h9.8l-1.2-4.5h-9.8L1969.7,444.1z M2088.2,417.6h9.7l-1.4-4.4h-9.6L2088.2,417.6z M2363,404.6h9.6
	l-1.9-4.3h-9.6L2363,404.6z M2430.3,404.6h9.6l-2.1-4.3h-9.6L2430.3,404.6z M785.9,281.6h9.1l0.9-3.9h-9.1L785.9,281.6z
	 M904.4,281.6h9.1l0.7-3.9h-9.1L904.4,281.6z M1064,321.1h9.3l0.4-4h-9.3L1064,321.1z M1129,321.1h9.3l0.3-4h-9.3L1129,321.1z
	 M1294.4,471.1h9.9v-4.4h-9.9L1294.4,471.1z M858.6,239.8h8.9l0.8-3.7h-8.9L858.6,239.8z M740.3,471.2h9.9l1.1-4.6h-9.9L740.3,471.2
	z"/>
    <linearGradient id="SVGIDMCD_53_" gradientUnits="userSpaceOnUse" x1="1256.6249" y1="160.23" x2="1256.6249" y2="394.03"
                    gradientTransform="matrix(1 0 0 -1 0 604.28)">
	<stop offset="0" style="stop-color:#E2611C"/>
        <stop offset="1" style="stop-color:#8C180C"/>
</linearGradient>
    <path class="MCD-56" d="M215.4,247.2h-4.5l3.8-7.5h4.4L215.4,247.2z M1491.2,210.2h-4.4l0.6,7.3h4.4L1491.2,210.2z M2285.1,210.2h-4.4
	l3.3,7.3h4.4L2285.1,210.2z M2298.7,435.1h-4.9l3.7,8.9h4.9L2298.7,435.1z M1484.8,435.1h-4.9l0.6,8.9h4.9L1484.8,435.1z"/>
    <linearGradient id="SVGIDMCD_54_" gradientUnits="userSpaceOnUse" x1="1417.63" y1="93.63" x2="1417.63" y2="392.77"
                    gradientTransform="matrix(1 0 0 -1 0 604.28)">
	<stop offset="0" style="stop-color:#FF791A"/>
        <stop offset="1" style="stop-color:#DA3A16"/>
</linearGradient>
    <path class="MCD-57" d="M389.7,270.1h-4.6l3.2-7.6h4.5L389.7,270.1z M1472.7,262.4h-4.5l0.5,7.6h4.5L1472.7,262.4z M293.2,499h-5
	l-4,9.4h5L293.2,499z M778.6,499h-5l-2.1,9.4h5L778.6,499z M1264.1,499h-5l-0.2,9.4h5L1264.1,499z M1489.3,499h-5l0.6,9.4h5
	L1489.3,499z M1774.6,499h-5l1.7,9.4h5L1774.6,499z M2285,499h-5l3.7,9.4h5L2285,499z M2308.6,262.4h-4.5l3.4,7.6h4.5L2308.6,262.4z
	 M2159.9,499h-5l3.2,9.4h5L2159.9,499z M2551.1,471.2h-4.9l-4.6-9.1h4.9L2551.1,471.2z"/>
    <linearGradient id="SVGIDMCD_55_" gradientUnits="userSpaceOnUse" x1="1377.0615" y1="102.11" x2="1377.0615" y2="388.14"
                    gradientTransform="matrix(1 0 0 -1 0 604.28)">
	<stop offset="0" style="stop-color:#FFA41F"/>
        <stop offset="1" style="stop-color:#DE5B0D"/>
</linearGradient>
    <path class="MCD-58" d="M1073.7,317.1h55.6l-0.3,4h-55.7L1073.7,317.1z M530.7,281.7h54.7l1.3-3.9h-54.6L530.7,281.7z M400.3,239.8
	h-0.1c-1.3,0-2.4,0.8-3,1.9l-8.8,20.7h4.5l8.7-20.7c0.4-0.6,0.1-1.4-0.5-1.8C400.9,239.8,400.6,239.7,400.3,239.8z M840.7,239.8
	h17.9l0.8-3.7h-22.3l-9.3,41.7h-31.8l-0.9,3.9h109.4l0.7-3.9h-72.8L840.7,239.8z M780.9,466.7h-29.6l-1.1,4.6h29.7l-6.2,27.8h5
	l7.2-32.3H780.9 M694.7,383.2c-0.6,1.6,0.3,3.4,2,4c0.4,0.1,0.8,0.2,1.3,0.2h24.3l1.1-4.2h-28.6L694.7,383.2z M302.4,471.2
	c-1.5,0.1-2.8,1-3.4,2.3L288.2,499h5l10.7-25.5c0.4-0.7,0.2-1.7-0.5-2.1C303.1,471.3,302.8,471.2,302.4,471.2L302.4,471.2z
	 M208,252.8c-0.4,0.5-0.3,1.3,0.2,1.7c0.3,0.2,0.7,0.3,1,0.3h0.1c1.3-0.1,2.5-0.8,3.2-2l2.8-5.6h-4.5L208,252.8z M2308.6,262.4
	l-20.2-44.8h-4.4l20.1,44.8H2308.6z M252.6,370.4H281l1.9-4.2h-28.4l17.1-37h-27.9l-1.9,4h23.3L236,395.9c-1.1,2.4,0.1,4.3,2.8,4.3
	h28.8l1.9-4.3h-28.8L252.6,370.4z M1617.8,370.4l0.6,4.2h57l-0.7-4.2H1617.8z M2313.6,471.1L2313.6,471.1l-11.2-27h-4.9l11.2,27.1
	h-39.6l11,27.8h5l-9.2-23.3h35.2c2.5,0,3.7-2,2.7-4.4L2313.6,471.1z M1909.9,439.7l1.1,4.5h58.7l-1.2-4.5H1909.9z M2542.9,455.4
	c-0.7-1.3-2.1-2.2-3.6-2.3h-0.1c-1.3,0-1.9,1-1.2,2.3l3.4,6.7h4.9L2542.9,455.4z M2370.6,400.3l1.9,4.3h57.7l-2-4.3H2370.6z
	 M2154.9,499h5l-29.6-85.8h-33.8l1.4,4.4h29L2154.9,499z M1480.6,444.1l3.7,54.9h5l-3.8-54.9H1480.6z M1264.7,471.1h29.7v-4.4h-34.6
	L1259,499h5L1264.7,471.1z M1767,471.1h-0.2c-1.1-0.1-2,0.7-2,1.8c0,0.2,0,0.4,0,0.6l4.7,25.5h5l-4.8-25.5
	C1769.5,472.2,1768.3,471.2,1767,471.1z M1493.5,239.7v-0.1l0,0l-1.8-22.1h-4.4l1.7,22.1l-22.3,0.1l1.5,22.6h4.5l-1.3-19h18.3
	c1.9,0.1,3.6-1.3,3.8-3.2C1493.5,240,1493.5,239.9,1493.5,239.7L1493.5,239.7L1493.5,239.7z M1775.1,305.1l0.8,4h55.4l-0.9-4H1775.1
	z"/>
    <polygon class="MCD-15" points="1036.4,551.1 1037.2,544.2 1039.2,547.8 1038.4,554.7 "/>
    <polygon class="MCD-15" points="1870.7,551.1 1868.3,540.8 1864.5,544.4 1866.8,554.7 "/>
    <path class="MCD-59" d="M550.7,554.7h165.6l-4.3-3.5H545.2L550.7,554.7z M1036.4,551.1h-27.8c1.4,2.2,3.8,3.6,6.4,3.6h23.4
	L1036.4,551.1z M1574,551.1h-241l-0.1,3.6h239.3L1574,551.1z M1907.7,551.1h-37l-3.9,3.6h31.3
	C1901.6,554.7,1905.1,553.4,1907.7,551.1L1907.7,551.1z M2093.1,551.1h-37l-5.2,3.6h29.9C2085.2,554.7,2089.4,553.5,2093.1,551.1z
	 M2335,554.7h56.5l7.6-3.6h-65c-0.9,0.5-1.2,1.7-0.7,2.6C2333.7,554.3,2334.3,554.6,2335,554.7L2335,554.7z M247,554.7h37.9
	c1,0,1.9-0.9,1.9-1.9c0-0.7-0.4-1.4-1-1.7h-46.5L247,554.7z"/>
    <linearGradient id="SVGIDMCD_56_" gradientUnits="userSpaceOnUse" x1="1319.1699" y1="96.58" x2="1319.1699" y2="51.77"
                    gradientTransform="matrix(1 0 0 -1 0 604.28)">
	<stop offset="0" style="stop-color:#5E0F33"/>
        <stop offset="1" style="stop-color:#32122A"/>
</linearGradient>
    <path class="MCD-60" d="M2334.1,551.1L2334.1,551.1c4.7-2.4,9.9-3.6,15.2-3.6h57.4l-7.6,3.6H2334.1z M2093.1,551.1L2093.1,551.1
	c0.9-0.7,1-1.9,0.4-2.8c-0.3-0.5-0.9-0.7-1.4-0.8h-30.8l-5.2,3.6H2093.1z M1870.7,551.1h37c0.9-0.7,1-1.9,0.4-2.8
	c-0.4-0.5-1-0.8-1.7-0.8h-31.8L1870.7,551.1z M1036.4,551.1l-2-3.6h-23.8c-1.3,0-2.3,1.1-2.3,2.4c0,0.4,0.1,0.9,0.3,1.2H1036.4
	L1036.4,551.1z M712,551.1l-4.3-3.6h-168l5.5,3.6H712z M285.6,551.1L285.6,551.1c-4.8-2.4-10.1-3.6-15.4-3.6h-38.5l7.5,3.6H285.6z
	 M1574,551.1l1.8-3.6h-98l12.1-39.1h-5l-11.8,39.1h-140l-0.1,3.6L1574,551.1z M2288.7,508.4l-28.5,16.2c-0.2,0.1-0.4,0.2-0.6,0.2
	l0,0c-0.7,0-1.2-0.6-1.2-1.3c0-0.4,0.2-0.8,0.6-1.1l24.7-14L2288.7,508.4z M1258.8,508.4l1.5,14.2c0.1,1.2,1.2,2.2,2.4,2.2l0,0
	c1.3,0,2.4-1.1,2.4-2.4c0-0.1,0-0.2,0-0.3l-1.4-13.7H1258.8z M284.2,508.4l30.7,16.2c0.2,0.1,0.3,0.1,0.5,0.1l0,0
	c0.6,0,1.1-0.5,1.1-1.1c0-0.4-0.2-0.8-0.6-1l-26.7-14.3H284.2z M771.5,508.4l15.7,15.8c0.3,0.3,0.8,0.5,1.2,0.5l0,0
	c1,0,1.8-0.7,1.8-1.7c0-0.5-0.2-1-0.6-1.3l-13.2-13.4L771.5,508.4z M1771.3,508.4l-17.3,21.1c-0.7,0.8-0.6,2,0.2,2.6
	c0.3,0.3,0.8,0.4,1.2,0.4l0,0c0.6,0,1.1-0.2,1.4-0.7l19.4-23.5L1771.3,508.4z M2144.9,520.3l18.2-11.9h-5l-14.7,9.6
	c-0.6,0.4-0.8,1.3-0.4,1.9l0,0C2143.5,520.5,2144.3,520.7,2144.9,520.3L2144.9,520.3z"/>
</svg>
