<?xml version="1.0" encoding="UTF-8"?>
<svg width="350px" height="222px" viewBox="0 0 350 222" version="1.1" xmlns="http://www.w3.org/2000/svg" xmlns:xlink="http://www.w3.org/1999/xlink">
    <title>minecon_earth_party_2018</title>
    <defs>
        <linearGradient x1="50%" y1="102.043223%" x2="50%" y2="-5.94865888%" id="linearGradient-1">
            <stop stop-color="#F39E25" offset="0%"></stop>
            <stop stop-color="#E75D25" offset="100%"></stop>
        </linearGradient>
        <linearGradient x1="50.0022263%" y1="102.043223%" x2="50.0022263%" y2="-5.94865888%" id="linearGradient-2">
            <stop stop-color="#F39E25" offset="0%"></stop>
            <stop stop-color="#E75D25" offset="100%"></stop>
        </linearGradient>
        <linearGradient x1="50.0009617%" y1="102.043223%" x2="50.0009617%" y2="-5.94865888%" id="linearGradient-3">
            <stop stop-color="#F39E25" offset="0%"></stop>
            <stop stop-color="#E75D25" offset="100%"></stop>
        </linearGradient>
        <linearGradient x1="50.0010496%" y1="8.94925763%" x2="50.0010496%" y2="98.0176211%" id="linearGradient-4">
            <stop stop-color="#502B4C" offset="0%"></stop>
            <stop stop-color="#643B48" offset="100%"></stop>
        </linearGradient>
        <linearGradient x1="50%" y1="8.94925763%" x2="50%" y2="98.0176211%" id="linearGradient-5">
            <stop stop-color="#502B4C" offset="0%"></stop>
            <stop stop-color="#643B48" offset="100%"></stop>
        </linearGradient>
        <linearGradient x1="49.9981343%" y1="8.94925763%" x2="49.9981343%" y2="98.0176211%" id="linearGradient-6">
            <stop stop-color="#502B4C" offset="0%"></stop>
            <stop stop-color="#643B48" offset="100%"></stop>
        </linearGradient>
        <linearGradient x1="49.9982886%" y1="8.94925763%" x2="49.9982886%" y2="98.0176211%" id="linearGradient-7">
            <stop stop-color="#502B4C" offset="0%"></stop>
            <stop stop-color="#643B48" offset="100%"></stop>
        </linearGradient>
        <linearGradient x1="50%" y1="8.56583456%" x2="50%" y2="103.271333%" id="linearGradient-8">
            <stop stop-color="#000000" offset="24%"></stop>
            <stop stop-color="#000000" stop-opacity="0" offset="75%"></stop>
        </linearGradient>
        <linearGradient x1="50%" y1="0%" x2="50%" y2="100%" id="linearGradient-9">
            <stop stop-color="#212328" offset="0%"></stop>
            <stop stop-color="#202227" offset="1%"></stop>
            <stop stop-color="#121316" offset="13%"></stop>
            <stop stop-color="#080809" offset="29%"></stop>
            <stop stop-color="#020202" offset="50%"></stop>
            <stop stop-color="#000000" offset="100%"></stop>
        </linearGradient>
        <linearGradient x1="50%" y1="100%" x2="50%" y2="0%" id="linearGradient-10">
            <stop stop-color="#CFC3C0" offset="0%"></stop>
            <stop stop-color="#9C9593" offset="100%"></stop>
        </linearGradient>
        <linearGradient x1="49.99748%" y1="100%" x2="49.99748%" y2="0%" id="linearGradient-11">
            <stop stop-color="#CFC3C0" offset="0%"></stop>
            <stop stop-color="#9C9593" offset="100%"></stop>
        </linearGradient>
        <linearGradient x1="49.9986988%" y1="100%" x2="49.9986988%" y2="0%" id="linearGradient-12">
            <stop stop-color="#CFC3C0" offset="0%"></stop>
            <stop stop-color="#9C9593" offset="100%"></stop>
        </linearGradient>
        <linearGradient x1="49.9932631%" y1="100%" x2="49.9932631%" y2="0%" id="linearGradient-13">
            <stop stop-color="#CFC3C0" offset="0%"></stop>
            <stop stop-color="#9C9593" offset="100%"></stop>
        </linearGradient>
        <linearGradient x1="49.9982958%" y1="100%" x2="49.9982958%" y2="0%" id="linearGradient-14">
            <stop stop-color="#CFC3C0" offset="0%"></stop>
            <stop stop-color="#9C9593" offset="100%"></stop>
        </linearGradient>
        <linearGradient x1="50.0015719%" y1="100%" x2="50.0015719%" y2="0%" id="linearGradient-15">
            <stop stop-color="#CFC3C0" offset="0%"></stop>
            <stop stop-color="#9C9593" offset="100%"></stop>
        </linearGradient>
        <linearGradient x1="50%" y1="77.420328%" x2="50%" y2="-94.5450058%" id="linearGradient-16">
            <stop stop-color="#FFFFFF" offset="0%"></stop>
            <stop stop-color="#121617" offset="100%"></stop>
        </linearGradient>
        <linearGradient x1="49.99748%" y1="77.420328%" x2="49.99748%" y2="-94.5450058%" id="linearGradient-17">
            <stop stop-color="#FFFFFF" offset="0%"></stop>
            <stop stop-color="#121617" offset="100%"></stop>
        </linearGradient>
        <linearGradient x1="49.9986988%" y1="77.420328%" x2="49.9986988%" y2="-94.5450058%" id="linearGradient-18">
            <stop stop-color="#FFFFFF" offset="0%"></stop>
            <stop stop-color="#121617" offset="100%"></stop>
        </linearGradient>
        <linearGradient x1="49.9932631%" y1="77.420328%" x2="49.9932631%" y2="-94.5450058%" id="linearGradient-19">
            <stop stop-color="#FFFFFF" offset="0%"></stop>
            <stop stop-color="#121617" offset="100%"></stop>
        </linearGradient>
        <linearGradient x1="49.9982958%" y1="77.420328%" x2="49.9982958%" y2="-94.5450058%" id="linearGradient-20">
            <stop stop-color="#FFFFFF" offset="0%"></stop>
            <stop stop-color="#121617" offset="100%"></stop>
        </linearGradient>
        <linearGradient x1="50.0015719%" y1="77.420328%" x2="50.0015719%" y2="-94.5450058%" id="linearGradient-21">
            <stop stop-color="#FFFFFF" offset="0%"></stop>
            <stop stop-color="#121617" offset="100%"></stop>
        </linearGradient>
        <linearGradient x1="50%" y1="1.27555748%" x2="50%" y2="99.4054605%" id="linearGradient-22">
            <stop stop-color="#7EC260" offset="0%"></stop>
            <stop stop-color="#42B449" offset="100%"></stop>
        </linearGradient>
        <linearGradient x1="49.998897%" y1="1.27555748%" x2="49.998897%" y2="99.4054605%" id="linearGradient-23">
            <stop stop-color="#7EC260" offset="0%"></stop>
            <stop stop-color="#42B449" offset="100%"></stop>
        </linearGradient>
        <linearGradient x1="50%" y1="1.27246896%" x2="50%" y2="99.402372%" id="linearGradient-24">
            <stop stop-color="#7EC260" offset="0%"></stop>
            <stop stop-color="#42B449" offset="100%"></stop>
        </linearGradient>
    </defs>
    <g id="Viewing-Parties" stroke="none" stroke-width="1" fill="none" fill-rule="evenodd">
        <g id="Minecon-start---Parties---Map---19-june" transform="translate(-553.000000, -2210.000000)" fill-rule="nonzero">
            <g id="minecon_earth_party_2018" transform="translate(553.000000, 2210.000000)">
                <rect id="Rectangle-path-minecon-earth" fill="#000000" x="36.3407148" y="55.267094" width="283.015929" height="50.0456488"></rect>
                <polygon id="Shape-1" fill="#000000" points="326.389277 148.630342 22.9566822 148.630342 3.9473582 168.416084 48.5050505 221.404235 76.1148019 221.404235 64.3040016 204.80575 90.8381896 204.80575 99.0687646 221.404235 201.081391 221.404235 206.701243 184.157925 221.997086 184.157925 211.556915 221.404235 237.813714 221.404235 253.071484 184.157925 267.819347 184.157925 259.237956 200.077894 273.828089 200.077894 260.493007 221.404235 287.773699 221.404235 303.869075 200.077894 318.77603 200.077894 345.399961 168.416084"></polygon>
                <polygon id="Shape-2" fill="url(#linearGradient-1)" points="212.304779 168.855284 273.38481 168.855284 267.268648 181.188228 250.882284 181.188228 235.623155 218.434538 215.861888 218.434538 226.302059 181.188228 209.911616 181.188228"></polygon>
                <polygon id="Shape-3" fill="url(#linearGradient-1)" points="279.933372 168.855284 306.108586 168.855284 294.11014 186.808081 302.064685 186.808081 314.83819 168.855284 341.013403 168.855284 317.257187 197.106838 302.242813 197.106838 286.148796 218.434538 266.38345 218.434538 279.718531 197.106838 264.704157 197.106838"></polygon>
                <path d="M202.245338,192.107032 L205.754856,168.855284 L144.677545,168.855284 L152.156177,218.434538 L171.917444,218.434538 L171.559829,201.836053 L178.861694,201.836053 L178.504079,218.434538 L198.265346,218.434538 L201.485237,197.106838 L193.97805,197.106838 L194.52195,192.107032 L202.245338,192.107032 Z M179.079254,192.107032 L171.357226,192.107032 L171.120629,181.188228 L179.314491,181.188228 L179.079254,192.107032 Z" id="Shape-4" fill="url(#linearGradient-2)"></path>
                <path d="M137.582362,168.855284 L76.5064103,168.855284 L101.093434,218.434538 L120.854701,218.434538 L114.771173,201.836053 L122.074398,201.836053 L127.442696,218.434538 L147.203963,218.434538 L137.582362,168.855284 Z M111.203186,192.107032 L107.201437,181.188228 L115.393939,181.188228 L118.929293,192.107032 L111.203186,192.107032 Z" id="Shape-5" fill="url(#linearGradient-3)"></path>
                <path d="M87.1913364,201.836053 L69.4139472,168.855284 L8.33391608,168.855284 L50.0238928,218.434538 L69.786519,218.434538 L57.9757187,201.836053 L87.1913364,201.836053 Z M43.2836053,181.188228 L51.477467,181.188228 L58.7752525,192.107032 L51.0532246,192.107032 L43.2836053,181.188228 Z" id="Shape-6" fill="url(#linearGradient-1)"></path>
                <polygon id="Shape-7" fill="url(#linearGradient-4)" points="137.582362 168.855284 141.278166 152.187451 85.9512432 152.187451 76.5064103 168.855284"></polygon>
                <polygon id="Shape-8" fill="url(#linearGradient-4)" points="24.3477078 152.187451 8.33391608 168.855284 69.4139472 168.855284 79.6787102 152.187451"></polygon>
                <polygon id="Shape-9" fill="url(#linearGradient-5)" points="205.754856 168.855284 202.881702 152.187451 147.553419 152.187451 144.680264 168.855284"></polygon>
                <polygon id="Shape-10" fill="url(#linearGradient-5)" points="208.608974 152.187451 212.304779 168.855284 273.38481 168.855284 263.939977 152.187451"></polygon>
                <polygon id="Shape-11" fill="url(#linearGradient-6)" points="269.668609 152.187451 279.933372 168.855284 306.108586 168.855284 293.379953 152.187451"></polygon>
                <polygon id="Shape-12" fill="url(#linearGradient-7)" points="301.288267 152.187451 314.83819 168.855284 341.013403 168.855284 324.999611 152.187451"></polygon>
                <polygon id="Shape-13" fill="#000000" points="76.1148019 221.404235 82.8836441 204.80575 64.3040016 204.80575"></polygon>
                <polygon id="Shape-14" fill="#000000" points="249.857032 192.003691 260.493007 221.404235 273.828089 200.077894 259.237956 200.077894 267.819347 184.157925 253.071484 184.157925"></polygon>
                <polygon id="Shape-15" fill="#000000" points="206.11519 188.045455 211.556915 221.404235 221.997086 184.157925 206.701243 184.157925"></polygon>
                <path d="M212.452991,168.855284 L273.190365,168.855284" id="Shape-16" fill="#FFE164"></path>
                <path d="M273.191725,168.855284 C273.191725,169.161228 272.566239,169.411422 271.802059,169.411422 L213.842657,169.411422 C213.078477,169.411422 212.452991,169.161228 212.452991,168.855284 C212.452991,168.54934 213.078477,168.299145 213.842657,168.299145 L271.802059,168.299145 C272.566239,168.299145 273.191725,168.54934 273.191725,168.855284 Z" id="Shape-17" fill="#FFE164"></path>
                <path d="M144.848873,168.855284 L205.586247,168.855284" id="Shape-18" fill="#FFE164"></path>
                <path d="M205.586247,168.855284 C205.586247,169.161228 204.960761,169.411422 204.196581,169.411422 L146.238539,169.411422 C145.474359,169.411422 144.848873,169.161228 144.848873,168.855284 C144.848873,168.54934 145.474359,168.299145 146.238539,168.299145 L204.196581,168.299145 C204.960761,168.299145 205.586247,168.54934 205.586247,168.855284 Z" id="Shape-19" fill="#FFE164"></path>
                <path d="M76.7470862,168.855284 L137.48446,168.855284" id="Shape-20" fill="#FFE164"></path>
                <path d="M137.48446,168.855284 C137.48446,169.161228 136.858974,169.411422 136.094794,169.411422 L78.1367521,169.411422 C77.3725719,169.411422 76.7470862,169.161228 76.7470862,168.855284 C76.7470862,168.54934 77.3725719,168.299145 78.1367521,168.299145 L136.094794,168.299145 C136.858974,168.299145 137.48446,168.54934 137.48446,168.855284 Z" id="Shape-21" fill="#FFE164"></path>
                <path d="M8.71192696,168.855284 L69.1936674,168.855284" id="Shape-22" fill="#FFE164"></path>
                <path d="M69.1950272,168.855284 C69.1950272,169.161228 68.5695416,169.411422 67.8053613,169.411422 L10.1015929,169.411422 C9.33741259,169.411422 8.71192696,169.161228 8.71192696,168.855284 C8.71192696,168.54934 9.33741259,168.299145 10.1015929,168.299145 L67.8053613,168.299145 C68.5695416,168.299145 69.1950272,168.54934 69.1950272,168.855284 Z" id="Shape-23" fill="#FFE164"></path>
                <path d="M280.081585,168.855284 L305.874709,168.855284" id="Shape-24" fill="#FFE164"></path>
                <path d="M305.874709,168.855284 C305.874709,169.161228 305.249223,169.411422 304.485043,169.411422 L281.468531,169.411422 C280.704351,169.411422 280.078866,169.161228 280.078866,168.855284 C280.078866,168.54934 280.704351,168.299145 281.468531,168.299145 L304.482323,168.299145 C305.249223,168.299145 305.874709,168.54934 305.874709,168.855284 Z" id="Shape-25" fill="#FFE164"></path>
                <path d="M293.602953,187.365579 L301.911033,187.365579" id="Shape-26" fill="#FFE164"></path>
                <path d="M301.911033,187.365579 C301.911033,187.671523 301.285548,187.921717 300.521368,187.921717 L294.992618,187.921717 C294.228438,187.921717 293.602953,187.671523 293.602953,187.365579 C293.602953,187.059635 294.228438,186.809441 294.992618,186.809441 L300.521368,186.809441 C301.285548,186.809441 301.911033,187.059635 301.911033,187.365579 Z" id="Shape-27" fill="#FFE164"></path>
                <path d="M171.376263,192.66317 L179.086053,192.66317" id="Shape-28" fill="#FFE164"></path>
                <path d="M179.086053,192.66317 C179.086053,192.967754 178.460567,193.217949 177.696387,193.217949 L172.765929,193.217949 C172.001748,193.217949 171.376263,192.967754 171.376263,192.66317 C171.376263,192.358586 172.001748,192.107032 172.765929,192.107032 L177.696387,192.107032 C178.460567,192.107032 179.086053,192.357226 179.086053,192.66317 Z" id="Shape-29" fill="#FFE164"></path>
                <path d="M111.505051,192.66317 L119.214841,192.66317" id="Shape-30" fill="#FFE164"></path>
                <path d="M119.214841,192.66317 C119.214841,192.967754 118.589355,193.217949 117.825175,193.217949 L112.894716,193.217949 C112.129176,193.217949 111.505051,192.967754 111.505051,192.66317 C111.505051,192.358586 112.129176,192.107032 112.894716,192.107032 L117.825175,192.107032 C118.589355,192.107032 119.214841,192.357226 119.214841,192.66317 Z" id="Shape-31" fill="#FFE164"></path>
                <path d="M51.3782051,192.66317 L59.0879953,192.66317" id="Shape-32" fill="#FFE164"></path>
                <path d="M59.0879953,192.66317 C59.0879953,192.967754 58.4638695,193.217949 57.6983294,193.217949 L52.767871,193.217949 C52.0036908,193.217949 51.3782051,192.967754 51.3782051,192.66317 C51.3782051,192.358586 52.0036908,192.107032 52.767871,192.107032 L57.6983294,192.107032 C58.4693085,192.107032 59.0879953,192.357226 59.0879953,192.66317 Z" id="Shape-33" fill="#FFE164"></path>
                <path d="M314.956488,168.855284 L340.749611,168.855284" id="Shape-34" fill="#FFE164"></path>
                <path d="M340.753691,168.855284 C340.753691,169.161228 340.129565,169.411422 339.365385,169.411422 L316.346154,169.411422 C315.581974,169.411422 314.956488,169.161228 314.956488,168.855284 C314.956488,168.54934 315.581974,168.299145 316.346154,168.299145 L339.361305,168.299145 C340.125486,168.299145 340.753691,168.54934 340.753691,168.855284 Z" id="Shape-35" fill="#FFE164"></path>
                <polygon id="Shape-36" fill="url(#linearGradient-8)" points="24.3477078 152.187451 8.33391608 168.855284 341.013403 168.855284 325.059441 152.187451"></polygon>
                <polygon id="Shape-37" fill="#000000" points="131.241841 72.7970085 128.019231 62.8789821 126.707071 62.8789821 126.573815 62.480575 125.522727 72.7970085 104.333722 72.7970085 103.405012 71.0714841 103.154817 72.7970085 82.3383838 72.7970085 81.1132479 71.0810023 80.789627 72.7970085 60.298174 72.7970085 51.4856255 62.8789821 46.4491064 62.8789821 45.2797203 61.6157731 42.3399378 72.7970085 22.3189588 72.7970085 0 54.0215618 18.5986791 0 39.2043512 0 48.3187646 12.8550894 49.3181818 9.1524864 54.9529915 9.1524864 57.3080808 0 78.4358974 0 79.4162782 1.92948718 79.8146853 0 101.286519 0 102.028943 1.8982129 102.325369 0 124.172494 0 126.685315 9.1524864 128.79157 9.1524864 129.003691 9.96017871 129.940559 0 152.343823 0 155.414141 23.4176379 153.01418 72.7970085"></polygon>
                <path d="M307.547203,72.7970085 L306.035159,67.0452603 L300.432984,72.7970085 L280.095183,72.7970085 L279.737568,71.0905206 L278.377817,72.7970085 L235.744172,72.7970085 L235.53885,71.1408314 L234.788267,72.7970085 L196.891997,72.7970085 L194.485237,23.4189977 L197.558275,0 L236.52467,0 L236.761267,1.79623155 L237.360917,0 L281.131313,0 L281.581391,1.94444444 L282.68007,0 L303.639277,0 L305.644911,7.10606061 L310.675991,0 L331.29662,0 L349.895299,54.0215618 L327.581779,72.7970085 L307.547203,72.7970085 Z M231.556138,38.9663947 L231.027195,34.6967754 L230.832751,35.2937063 L223.271173,35.2937063 L223.61655,38.965035 L231.556138,38.9663947 Z" id="Shape-38" fill="#000000"></path>
                <polygon id="Shape-39" fill="#000000" points="153.057692 72.7970085 150.107032 53.1581197 152.419969 0 197.467172 0 198.008353 12.452603 195.554002 35.2937063 192.626457 35.2937063 192.297397 38.9663947 199.161422 38.9663947 199.778749 53.1581197 196.830808 72.7970085"></polygon>
                <polygon id="Shape-40" fill="#000000" points="54.255439 34.2698135 54.8034188 32.0942113 51.0777001 26.977467 51.9778555 23.5495338 37.5522533 3.1981352 34.7416472 12.3506216 38.8344988 17.740676 37.6161616 21.8756799 46.2342657 32.8638306 43.7241647 42.1658897 43.4862082 42.1658897 34.6899767 31.8045843 28.7682595 31.8045843 22.2645688 52.9881507 39.8747086 69.5975136 43.6684149 55.1651127 47.8469308 59.6794872 58.5685703 59.6794872 60.7713675 50.1367521 66.0227273 50.1367521"></polygon>
                <polygon id="Shape-41" fill="#000000" points="65.5168998 52.9881507 78.1381119 69.5975136 86.8146853 23.5495338 76.4724165 3.1981352"></polygon>
                <polygon id="Shape-42" fill="#000000" points="90.6641414 52.9881507 100.386364 69.5975136 107.066822 23.5495338 99.1027584 3.1981352"></polygon>
                <polygon id="Shape-43" fill="#000000" points="126.915113 27.534965 130.718337 40.9475524 131.52331 32.0942113 126.32634 12.3506216 125.744367 17.8073038 121.73446 3.1981352 120.645299 12.3506216 126.451437 32.0942113"></polygon>
                <polygon id="Shape-44" fill="#000000" points="127.433178 42.1658897 124.25272 31.8045843 118.332362 31.8045843 115.812743 52.9881507 122.633256 69.5975136 124.614413 50.1367521 125.816434 50.1367521 129.00913 59.6794872 134.363831 59.6794872 129.187257 42.1658897"></polygon>
                <polygon id="Shape-45" fill="#000000" points="146.710373 52.9881507 149.966977 69.5975136 152.206488 23.5495338 149.537296 3.1981352"></polygon>
                <polygon id="Shape-46" fill="#000000" points="324.29934 42.1658897 318.262044 42.1658897 315.209402 31.8045843 309.955322 31.8045843 318.068959 21.8756799 312.334887 3.1981352 297.910645 23.5495338 302.329837 40.3628594 295.657537 48.5675991 284.547009 3.1981352 273.039433 23.5495338 282.692308 69.5975136 296.739899 52.9881507 296.042347 50.1367521 299.645688 50.1367521 302.052448 59.6794872 307.405789 59.6794872 310.012432 69.5975136 327.621212 52.9881507"></polygon>
                <polygon id="Shape-47" fill="#000000" points="258.01418 12.3506216 249.133644 32.0942113 254.193279 32.0942113 258.78244 59.6794872 269.472805 42.1658897 263.680264 12.3506216"></polygon>
                <polygon id="Shape-48" fill="#000000" points="232.869658 23.5495338 238.571096 69.5975136 246.865579 52.9881507 239.665695 3.1981352"></polygon>
                <polygon id="Shape-49" fill="#000000" points="217.896076 12.3506216 213.304196 32.0942113 228.508936 32.0942113 234.921523 12.3506216"></polygon>
                <polygon id="Shape-50" fill="#000000" points="197.69561 23.5495338 199.933761 69.5975136 203.191725 52.9881507 200.364802 3.1981352"></polygon>
                <polygon id="Shape-51" fill="#000000" points="172.050699 21.8756799 172.215229 31.8045843 171.98951 31.8045843 171.925602 42.1658897 172.26826 59.6794872 172.31857 50.1367521 188.086247 50.1367521 189.701632 32.0942113 192.679487 32.0942113 194.802059 12.3506216 172.110528 12.3506216"></polygon>
                <polygon id="Shape-52" fill="#212328" points="3.73931624 52.9881507 23.4856255 69.5975136 39.8747086 69.5975136 22.2645688 52.9881507"></polygon>
                <polygon id="Shape-53" fill="#212328" points="3.73931624 52.9881507 23.4856255 69.5975136 39.8747086 69.5975136 22.2645688 52.9881507"></polygon>
                <polygon id="Shape-54" fill="#212328" points="72.1239316 52.9881507 83.983683 69.5975136 100.386364 69.5975136 90.6641414 52.9881507"></polygon>
                <polygon id="Shape-55" fill="#212328" points="72.1239316 52.9881507 83.983683 69.5975136 100.386364 69.5975136 90.6641414 52.9881507"></polygon>
                <polygon id="Shape-56" fill="#212328" points="97.2861305 52.9881507 106.244172 69.5975136 122.633256 69.5975136 115.812743 52.9881507"></polygon>
                <polygon id="Shape-57" fill="#212328" points="97.2861305 52.9881507 106.244172 69.5975136 122.633256 69.5975136 115.812743 52.9881507"></polygon>
                <polygon id="Shape-58" fill="#212328" points="128.168803 52.9881507 133.565657 69.5975136 149.966977 69.5975136 146.710373 52.9881507"></polygon>
                <polygon id="Shape-59" fill="#212328" points="128.168803 52.9881507 133.565657 69.5975136 149.966977 69.5975136 146.710373 52.9881507"></polygon>
                <polygon id="Shape-60" fill="#212328" points="296.739899 52.9881507 282.692308 69.5975136 299.082751 69.5975136 315.266511 52.9881507"></polygon>
                <polygon id="Shape-61" fill="#212328" points="296.739899 52.9881507 282.692308 69.5975136 299.082751 69.5975136 315.266511 52.9881507"></polygon>
                <polygon id="Shape-62" fill="#212328" points="327.621212 52.9881507 310.012432 69.5975136 326.415113 69.5975136 346.162782 52.9881507"></polygon>
                <polygon id="Shape-63" fill="#212328" points="327.621212 52.9881507 310.012432 69.5975136 326.415113 69.5975136 346.162782 52.9881507"></polygon>
                <polygon id="Shape-64" fill="#212328" points="246.865579 52.9881507 238.571096 69.5975136 276.835859 69.5975136 290.11791 52.9881507"></polygon>
                <polygon id="Shape-65" fill="#212328" points="246.865579 52.9881507 238.571096 69.5975136 276.835859 69.5975136 290.11791 52.9881507"></polygon>
                <polygon id="Shape-66" fill="#212328" points="203.191725 52.9881507 199.933761 69.5975136 232.725524 69.5975136 240.258547 52.9881507"></polygon>
                <polygon id="Shape-67" fill="#212328" points="203.191725 52.9881507 199.933761 69.5975136 232.725524 69.5975136 240.258547 52.9881507"></polygon>
                <polygon id="Shape-68" fill="#212328" points="155.812549 69.5975136 194.075952 69.5975136 196.568376 52.9881507 153.316045 52.9881507"></polygon>
                <polygon id="Shape-69" fill="#212328" points="155.812549 69.5975136 194.075952 69.5975136 196.568376 52.9881507 153.316045 52.9881507"></polygon>
                <polygon id="Shape-70" fill="#212328" points="31.6373349 42.0203963 47.8469308 59.6128594 58.5685703 59.6794872 43.7241647 42.0203963"></polygon>
                <polygon id="Shape-71" fill="#212328" points="31.6373349 42.0203963 47.8469308 59.6128594 58.5685703 59.6794872 43.7241647 42.0203963"></polygon>
                <polygon id="Shape-72" fill="#212328" points="46.97669 52.9881507 61.7354312 69.5975136 78.1381119 69.5975136 65.5168998 52.9881507"></polygon>
                <polygon id="Shape-73" fill="#212328" points="46.97669 52.9881507 61.7354312 69.5975136 78.1381119 69.5975136 65.5168998 52.9881507"></polygon>
                <polygon id="Shape-74" fill="#212328" points="3.73931624 52.9881507 23.4856255 69.5975136 39.8747086 69.5975136 22.2645688 52.9881507"></polygon>
                <polygon id="Shape-75" fill="#212328" points="72.1239316 52.9881507 83.983683 69.5975136 100.386364 69.5975136 90.6641414 52.9881507"></polygon>
                <polygon id="Shape-76" fill="#212328" points="97.2861305 52.9881507 106.244172 69.5975136 122.633256 69.5975136 115.812743 52.9881507"></polygon>
                <polygon id="Shape-77" fill="#212328" points="128.168803 52.9881507 133.565657 69.5975136 149.966977 69.5975136 146.710373 52.9881507"></polygon>
                <polygon id="Shape-78" fill="#212328" points="296.739899 52.9881507 282.692308 69.5975136 299.082751 69.5975136 315.266511 52.9881507"></polygon>
                <polygon id="Shape-79" fill="#212328" points="327.621212 52.9881507 310.012432 69.5975136 326.415113 69.5975136 346.162782 52.9881507"></polygon>
                <polygon id="Shape-80" fill="#212328" points="246.865579 52.9881507 238.571096 69.5975136 276.835859 69.5975136 290.11791 52.9881507"></polygon>
                <polygon id="Shape-81" fill="#212328" points="203.191725 52.9881507 199.933761 69.5975136 232.725524 69.5975136 240.258547 52.9881507"></polygon>
                <polygon id="Shape-82" fill="#212328" points="155.812549 69.5975136 194.075952 69.5975136 196.568376 52.9881507 153.316045 52.9881507"></polygon>
                <polygon id="Shape-83" fill="url(#linearGradient-9)" points="31.6373349 42.0203963 47.8469308 59.6128594 58.5685703 59.6794872 43.7241647 42.0203963"></polygon>
                <polygon id="Shape-84" fill="#212328" points="46.97669 52.9881507 61.7354312 69.5975136 78.1381119 69.5975136 65.5168998 52.9881507"></polygon>
                <polygon id="Shape-85" fill="url(#linearGradient-10)" points="59.7882673 3.63597514 57.4331779 11.6326729 51.767094 11.6326729 49.1985237 21.2284382 37.6161616 21.2284382 40.4213287 11.6326729 34.7416472 11.6326729 37.5522533 3.63597514 20.8803419 3.63597514 3.73931624 53.2152292 22.2645688 53.2152292 28.7682595 32.4246309 34.6899767 32.4246309 31.6373349 42.0203963 43.7241647 42.0203963 46.5198135 32.4246309 52.4265734 32.4246309 46.97669 53.2152292 65.5168998 53.2152292 76.4724165 3.63597514"></polygon>
                <polygon id="Shape-86" fill="url(#linearGradient-11)" points="82.4186092 3.63597514 72.1239316 53.2152292 90.6641414 53.2152292 99.1027584 3.63597514"></polygon>
                <polygon id="Shape-87" fill="url(#linearGradient-12)" points="131.096348 21.2284382 125.310606 21.2284382 126.32634 11.6326729 120.645299 11.6326729 121.73446 3.63597514 105.062549 3.63597514 97.2861305 53.2152292 115.812743 53.2152292 118.332362 32.4246309 124.25272 32.4246309 123.151321 42.0203963 129.187257 42.0203963 128.168803 53.2152292 146.710373 53.2152292 149.537296 3.63597514 132.853147 3.63597514"></polygon>
                <polygon id="Shape-88" fill="url(#linearGradient-10)" points="329.020396 3.63597514 312.334887 3.63597514 318.068959 21.2284382 312.285936 21.2284382 309.47805 11.6326729 303.799728 11.6326729 301.21756 3.63597514 284.547009 3.63597514 296.739899 53.2152292 315.266511 53.2152292 309.290404 32.4246309 315.209402 32.4246309 318.262044 42.0203963 324.29934 42.0203963 327.621212 53.2152292 346.162782 53.2152292"></polygon>
                <path d="M239.665695,3.63597514 L246.872378,53.2152292 L290.124709,53.2152292 L278.588578,3.63597514 L239.665695,3.63597514 Z M263.438228,42.016317 L258.01418,11.6326729 L263.680264,11.6326729 L269.472805,42.016317 L263.438228,42.016317 Z" id="Shape-89" fill="url(#linearGradient-13)"></path>
                <polygon id="Shape-90" fill="url(#linearGradient-14)" points="220.699883 42.0203963 217.896076 11.6326729 234.921523 11.6326729 233.719503 3.63597514 200.364802 3.63597514 203.191725 53.2152292 240.258547 53.2152292 238.837607 42.0203963"></polygon>
                <polygon id="Shape-91" fill="url(#linearGradient-15)" points="171.925602 42.0203963 171.98951 32.4246309 189.726107 32.4246309 189.418803 21.2284382 172.050699 21.2284382 172.110528 11.6326729 194.802059 11.6326729 194.403652 3.63597514 155.482129 3.63597514 153.316045 53.2152292 196.568376 53.2152292 196.099262 42.0203963"></polygon>
                <polygon id="Shape-92" fill="url(#linearGradient-10)" points="59.7882673 3.63597514 57.4331779 11.6326729 51.767094 11.6326729 49.1985237 21.2284382 37.6161616 21.2284382 40.4213287 11.6326729 34.7416472 11.6326729 37.5522533 3.63597514 20.8803419 3.63597514 3.73931624 53.2152292 22.2645688 53.2152292 28.7682595 32.4246309 34.6899767 32.4246309 31.6373349 42.0203963 43.7241647 42.0203963 46.5198135 32.4246309 52.4265734 32.4246309 46.97669 53.2152292 65.5168998 53.2152292 76.4724165 3.63597514"></polygon>
                <polygon id="Shape-93" fill="url(#linearGradient-11)" points="82.4186092 3.63597514 72.1239316 53.2152292 90.6641414 53.2152292 99.1027584 3.63597514"></polygon>
                <polygon id="Shape-94" fill="url(#linearGradient-12)" points="131.096348 21.2284382 125.310606 21.2284382 126.32634 11.6326729 120.645299 11.6326729 121.73446 3.63597514 105.062549 3.63597514 97.2861305 53.2152292 115.812743 53.2152292 118.332362 32.4246309 124.25272 32.4246309 123.151321 42.0203963 129.187257 42.0203963 128.168803 53.2152292 146.710373 53.2152292 149.537296 3.63597514 132.853147 3.63597514"></polygon>
                <polygon id="Shape-95" fill="url(#linearGradient-10)" points="329.020396 3.63597514 312.334887 3.63597514 318.068959 21.2284382 312.285936 21.2284382 309.47805 11.6326729 303.799728 11.6326729 301.21756 3.63597514 284.547009 3.63597514 296.739899 53.2152292 315.266511 53.2152292 309.290404 32.4246309 315.209402 32.4246309 318.262044 42.0203963 324.29934 42.0203963 327.621212 53.2152292 346.162782 53.2152292"></polygon>
                <path d="M239.665695,3.63597514 L246.872378,53.2152292 L290.124709,53.2152292 L278.588578,3.63597514 L239.665695,3.63597514 Z M263.438228,42.016317 L258.01418,11.6326729 L263.680264,11.6326729 L269.472805,42.016317 L263.438228,42.016317 Z" id="Shape-96" fill="url(#linearGradient-13)"></path>
                <polygon id="Shape-97" fill="url(#linearGradient-14)" points="220.699883 42.0203963 217.896076 11.6326729 234.921523 11.6326729 233.719503 3.63597514 200.364802 3.63597514 203.191725 53.2152292 240.258547 53.2152292 238.837607 42.0203963"></polygon>
                <polygon id="Shape-98" fill="url(#linearGradient-15)" points="171.925602 42.0203963 171.98951 32.4246309 189.726107 32.4246309 189.418803 21.2284382 172.050699 21.2284382 172.110528 11.6326729 194.802059 11.6326729 194.403652 3.63597514 155.482129 3.63597514 153.316045 53.2152292 196.568376 53.2152292 196.099262 42.0203963"></polygon>
                <g id="Group" opacity="0.34" style="mix-blend-mode: multiply;" transform="translate(3.671329, 3.535354)">
                    <polygon id="Shape-99" fill="url(#linearGradient-16)" points="56.1169386 0.100621601 53.7618493 8.09731935 48.0957653 8.09731935 45.527195 17.6930847 33.9448329 17.6930847 36.75 8.09731935 31.0703186 8.09731935 33.8809246 0.100621601 17.2090132 0.100621601 0.067987568 49.6798757 18.5932401 49.6798757 25.0969308 28.8892774 31.018648 28.8892774 27.9660062 38.4850427 40.0528361 38.4850427 42.8484848 28.8892774 48.7552448 28.8892774 43.3053613 49.6798757 61.8455711 49.6798757 72.8010878 0.100621601"></polygon>
                    <polygon id="Shape-100" fill="url(#linearGradient-17)" points="78.7472805 0.100621601 68.452603 49.6798757 86.9928127 49.6798757 95.4314297 0.100621601"></polygon>
                    <polygon id="Shape-101" fill="url(#linearGradient-18)" points="127.425019 17.6930847 121.639277 17.6930847 122.655012 8.09731935 116.97397 8.09731935 118.063131 0.100621601 101.39122 0.100621601 93.6148019 49.6798757 112.141414 49.6798757 114.661033 28.8892774 120.581391 28.8892774 119.479992 38.4850427 125.515929 38.4850427 124.497475 49.6798757 143.039044 49.6798757 145.865967 0.100621601 129.181818 0.100621601"></polygon>
                    <polygon id="Shape-102" fill="url(#linearGradient-16)" points="325.349068 0.100621601 308.663559 0.100621601 314.39763 17.6930847 308.614608 17.6930847 305.806721 8.09731935 300.128399 8.09731935 297.546232 0.100621601 280.87568 0.100621601 293.06857 49.6798757 311.595183 49.6798757 305.619075 28.8892774 311.538073 28.8892774 314.590715 38.4850427 320.628011 38.4850427 323.949883 49.6798757 342.491453 49.6798757"></polygon>
                    <path d="M235.994367,0.100621601 L243.201049,49.6798757 L286.45338,49.6798757 L274.917249,0.100621601 L235.994367,0.100621601 Z M259.7669,38.4809635 L254.342852,8.09731935 L260.008936,8.09731935 L265.801476,38.4809635 L259.7669,38.4809635 Z" id="Shape-103" fill="url(#linearGradient-19)"></path>
                    <polygon id="Shape-104" fill="url(#linearGradient-20)" points="217.028555 38.4850427 214.224747 8.09731935 231.250194 8.09731935 230.048174 0.100621601 196.693473 0.100621601 199.520396 49.6798757 236.587218 49.6798757 235.166278 38.4850427"></polygon>
                    <polygon id="Shape-105" fill="url(#linearGradient-21)" points="168.254274 38.4850427 168.318182 28.8892774 186.054779 28.8892774 185.747475 17.6930847 168.379371 17.6930847 168.4392 8.09731935 191.13073 8.09731935 190.732323 0.100621601 151.8108 0.100621601 149.644716 49.6798757 192.897047 49.6798757 192.427933 38.4850427"></polygon>
                    <polygon id="Shape-106" fill="url(#linearGradient-16)" points="56.1169386 0.100621601 53.7618493 8.09731935 48.0957653 8.09731935 45.527195 17.6930847 33.9448329 17.6930847 36.75 8.09731935 31.0703186 8.09731935 33.8809246 0.100621601 17.2090132 0.100621601 0.067987568 49.6798757 18.5932401 49.6798757 25.0969308 28.8892774 31.018648 28.8892774 27.9660062 38.4850427 40.0528361 38.4850427 42.8484848 28.8892774 48.7552448 28.8892774 43.3053613 49.6798757 61.8455711 49.6798757 72.8010878 0.100621601"></polygon>
                    <polygon id="Shape-107" fill="url(#linearGradient-17)" points="78.7472805 0.100621601 68.452603 49.6798757 86.9928127 49.6798757 95.4314297 0.100621601"></polygon>
                    <polygon id="Shape-108" fill="url(#linearGradient-18)" points="127.425019 17.6930847 121.639277 17.6930847 122.655012 8.09731935 116.97397 8.09731935 118.063131 0.100621601 101.39122 0.100621601 93.6148019 49.6798757 112.141414 49.6798757 114.661033 28.8892774 120.581391 28.8892774 119.479992 38.4850427 125.515929 38.4850427 124.497475 49.6798757 143.039044 49.6798757 145.865967 0.100621601 129.181818 0.100621601"></polygon>
                    <polygon id="Shape-109" fill="url(#linearGradient-16)" points="325.349068 0.100621601 308.663559 0.100621601 314.39763 17.6930847 308.614608 17.6930847 305.806721 8.09731935 300.128399 8.09731935 297.546232 0.100621601 280.87568 0.100621601 293.06857 49.6798757 311.595183 49.6798757 305.619075 28.8892774 311.538073 28.8892774 314.590715 38.4850427 320.628011 38.4850427 323.949883 49.6798757 342.491453 49.6798757"></polygon>
                    <path d="M235.994367,0.100621601 L243.201049,49.6798757 L286.45338,49.6798757 L274.917249,0.100621601 L235.994367,0.100621601 Z M259.7669,38.4809635 L254.342852,8.09731935 L260.008936,8.09731935 L265.801476,38.4809635 L259.7669,38.4809635 Z" id="Shape-110" fill="url(#linearGradient-19)"></path>
                    <polygon id="Shape-111" fill="url(#linearGradient-20)" points="217.028555 38.4850427 214.224747 8.09731935 231.250194 8.09731935 230.048174 0.100621601 196.693473 0.100621601 199.520396 49.6798757 236.587218 49.6798757 235.166278 38.4850427"></polygon>
                    <polygon id="Shape-112" fill="url(#linearGradient-21)" points="168.254274 38.4850427 168.318182 28.8892774 186.054779 28.8892774 185.747475 17.6930847 168.379371 17.6930847 168.4392 8.09731935 191.13073 8.09731935 190.732323 0.100621601 151.8108 0.100621601 149.644716 49.6798757 192.897047 49.6798757 192.427933 38.4850427"></polygon>
                </g>
                <path d="M6.23310023,52.5639083 C4.91550117,52.5911033 3.9527972,52.8249806 4.09149184,53.0806138 C4.23018648,53.3362471 5.42132867,53.5483683 6.73892774,53.5483683 L9.85819736,53.5483683 C11.1744367,53.5483683 12.3655789,53.2954545 12.5042735,52.986791 C12.6429681,52.6781274 11.6802642,52.4496892 10.3640249,52.4768842 L6.23310023,52.5639083 Z" id="Shape-113" fill="#E6E6E4"></path>
                <path d="M17.472805,52.5503108 C16.1565657,52.5856643 15.1693862,52.8222611 15.2781663,53.0806138 C15.3869464,53.3389666 16.5536131,53.5483683 17.8712121,53.5483683 L19.2948718,53.5483683 C20.6124709,53.5483683 21.7791375,53.2954545 21.8879176,52.986791 C21.9966977,52.6781274 21.0095183,52.4551282 19.6932789,52.4904817 L17.472805,52.5503108 Z" id="Shape-114" fill="#E6E6E4"></path>
                <path d="M49.3698524,52.5911033 C48.0522533,52.6033411 47.211927,52.8249806 47.501554,53.0806138 C47.791181,53.3362471 49.1033411,53.5483683 50.4209402,53.5483683 L62.0658508,53.5483683 C63.3820901,53.5483683 64.6956099,53.2954545 64.985237,52.986791 C65.274864,52.6781274 64.4331779,52.4428904 63.1169386,52.4496892 L49.3698524,52.5911033 Z" id="Shape-115" fill="#E6E6E4"></path>
                <path d="M74.5143745,52.5911033 C73.1981352,52.6033411 72.3578089,52.8249806 72.6460761,53.0806138 C72.9343434,53.3362471 74.249223,53.5483683 75.5654623,53.5483683 L87.210373,53.5483683 C88.5266123,53.5483683 89.8401321,53.2954545 90.1297591,52.986791 C90.4193862,52.6781274 89.5777001,52.4428904 88.2614608,52.4496892 L74.5143745,52.5911033 Z" id="Shape-116" fill="#E6E6E4"></path>
                <path d="M99.8057498,52.5503108 C98.4895105,52.5856643 97.502331,52.8222611 97.6124709,53.0806138 C97.7226107,53.3389666 98.8892774,53.5483683 100.205517,53.5483683 L101.676768,53.5483683 C102.993007,53.5483683 104.159674,53.2954545 104.271173,52.986791 C104.382673,52.6781274 103.394134,52.4551282 102.077894,52.4904817 L99.8057498,52.5503108 Z" id="Shape-117" fill="#E6E6E4"></path>
                <path d="M108.327312,52.5693473 C107.011072,52.5938228 106.061966,52.8249806 106.218337,53.0806138 C106.374709,53.3362471 107.578089,53.5483683 108.898407,53.5483683 L113.048368,53.5483683 C114.364608,53.5483683 115.570707,53.2954545 115.727078,52.986791 C115.88345,52.6781274 114.935703,52.4428904 113.619464,52.472805 L108.327312,52.5693473 Z" id="Shape-118" fill="#E6E6E4"></path>
                <path d="M130.561966,52.5911033 C129.245726,52.6033411 128.4054,52.8249806 128.695027,53.0806138 C128.984654,53.3362471 130.296814,53.5483683 131.614413,53.5483683 L143.259324,53.5483683 C144.575563,53.5483683 145.889083,53.2954545 146.17871,52.986791 C146.468337,52.6781274 145.626651,52.4428904 144.310412,52.4496892 L130.561966,52.5911033 Z" id="Shape-119" fill="#E6E6E4"></path>
                <path d="M155.710567,52.5707071 C154.392968,52.5938228 153.446581,52.8249806 153.605672,53.0806138 C153.764763,53.3362471 154.965423,53.5483683 156.289821,53.5483683 L160.56216,53.5483683 C161.878399,53.5483683 163.085859,53.2954545 163.244949,52.986791 C163.40404,52.6781274 162.459013,52.4428904 161.142774,52.4700855 L155.710567,52.5707071 Z" id="Shape-120" fill="#E6E6E4"></path>
                <path d="M168.073427,52.6006216 C166.757187,52.6074204 166.074592,52.8249806 166.555944,53.0806138 C167.037296,53.3362471 168.508547,53.5483683 169.819347,53.5483683 L192.415695,53.5483683 C193.731935,53.5483683 195.204545,53.2954545 195.687257,52.986791 C196.169969,52.6781274 195.486014,52.4333722 194.169775,52.4428904 L168.073427,52.6006216 Z" id="Shape-121" fill="#E6E6E4"></path>
                <path d="M205.714064,52.6454934 C204.396465,52.6563714 203.791375,52.8752914 204.36927,53.1295649 C204.947164,53.3838384 206.495921,53.5905206 207.81216,53.5850816 L235.771368,53.4926185 C237.087607,53.4926185 238.636364,53.2315462 239.212898,52.9201632 C239.789433,52.6087801 239.178904,52.3653846 237.862665,52.3762626 L205.714064,52.6454934 Z" id="Shape-122" fill="#E6E6E4"></path>
                <path d="M249.378399,52.6454934 C248.0608,52.6563714 247.535936,52.8725719 248.210373,53.1282051 C248.88481,53.3838384 250.52195,53.5878011 251.832751,53.5823621 L285.354701,53.473582 C286.6723,53.473582 288.301282,53.21115 288.972999,52.8997669 C289.644716,52.5883838 289.118493,52.3422688 287.802253,52.3558664 L249.378399,52.6454934 Z" id="Shape-123" fill="#E6E6E4"></path>
                <path d="M299.165695,52.6332556 C297.849456,52.6522922 297.00777,52.8752914 297.297397,53.1309246 C297.587024,53.3865579 298.900544,53.5932401 300.216783,53.5891608 L311.808664,53.5510878 C313.126263,53.5510878 314.437063,53.2900155 314.72533,52.981352 C315.013598,52.6726884 314.170552,52.4374514 312.854312,52.4496892 L299.165695,52.6332556 Z" id="Shape-124" fill="#E6E6E4"></path>
                <path d="M330.051088,52.6101399 C328.734848,52.6400544 327.777584,52.8752914 327.923077,53.1309246 C328.06857,53.3865579 329.262432,53.5932401 330.580031,53.5891608 L333.979409,53.5782828 C335.295649,53.5782828 336.49087,53.3172106 336.633644,53.0099068 C336.776418,52.702603 335.817793,52.4660062 334.501554,52.5027195 L330.051088,52.6101399 Z" id="Shape-125" fill="#E6E6E4"></path>
                <path d="M341.519231,52.5897436 C340.201632,52.6278166 339.215812,52.8698524 339.325952,53.1268454 C339.436092,53.3838384 340.602758,53.5891608 341.920357,53.5837218 L343.334499,53.5837218 C344.652098,53.5837218 345.818765,53.3226496 345.926185,53.0153458 C346.033605,52.708042 345.046426,52.4877622 343.730186,52.5258353 L341.519231,52.5897436 Z" id="Shape-126" fill="#E6E6E4"></path>
                <path d="M34.0304973,41.6083916 C32.714258,41.6274281 31.7937063,41.8545066 31.9840715,42.1114996 C32.1744367,42.3684926 33.4077312,42.5778943 34.7253302,42.5778943 L40.7925408,42.5778943 C42.1087801,42.5778943 43.3420746,42.3249806 43.5324398,42.0176768 C43.722805,41.710373 42.8036131,41.4737762 41.4928127,41.4928127 L34.0304973,41.6083916 Z" id="Shape-127" fill="#D7D2CD"></path>
                <path d="M120.69289,31.3599456 C119.376651,31.3993784 118.381313,31.6414141 118.479215,31.9038462 C118.577117,32.1662782 119.735625,32.3702409 121.051865,32.3702409 L121.867716,32.3702409 C123.185315,32.3702409 124.342463,32.1173271 124.440365,31.8100233 C124.538267,31.5027195 123.542929,31.2797203 122.22805,31.3191531 L120.69289,31.3599456 Z" id="Shape-128" fill="#D7D2CD"></path>
                <path d="M125.804196,41.01554 C124.487956,41.0549728 123.492618,41.2970085 123.59188,41.5526418 C123.691142,41.8082751 124.846931,42.0203963 126.16317,42.0203963 L126.979021,42.0203963 C128.29526,42.0203963 129.452409,41.7674825 129.551671,41.458819 C129.650932,41.1501554 128.654235,40.9298757 127.337995,40.9693085 L125.804196,41.01554 Z" id="Shape-129" fill="#D7D2CD"></path>
                <path d="M174.384033,31.4102564 C173.066434,31.4238539 172.20843,31.6454934 172.488539,31.9024864 C172.768648,32.1594794 174.063131,32.3688811 175.379371,32.3688811 L186.183955,32.3688811 C187.500194,32.3688811 188.802836,32.1159674 189.080225,31.8086636 C189.357615,31.5013598 188.502331,31.2579643 187.186092,31.2729215 L174.384033,31.4102564 Z" id="Shape-130" fill="#D7D2CD"></path>
                <path d="M174.382673,11.3607226 C173.066434,11.3919969 172.092852,11.6326729 172.217949,11.8842269 C172.343046,12.1357809 173.52331,12.3506216 174.839549,12.3506216 L177.1892,12.3506216 C178.506799,12.3506216 179.687063,12.0977078 179.81352,11.790404 C179.939977,11.4831002 178.965035,11.254662 177.650155,11.2859363 L174.382673,11.3607226 Z" id="Shape-131" fill="#D7D2CD"></path>
                <path d="M184.338772,11.3824786 C183.022533,11.4015152 182.112859,11.6285936 182.316822,11.8842269 C182.520785,12.1398601 183.766317,12.3506216 185.082556,12.3506216 L191.926185,12.3506216 C193.242424,12.3506216 194.489316,12.0977078 194.693279,11.790404 C194.897242,11.4831002 193.990287,11.2465035 192.675408,11.2641803 L184.338772,11.3824786 Z" id="Shape-132" fill="#D7D2CD"></path>
                <path d="M220.383061,10.8304196 C219.065462,10.8440171 218.207459,11.0670163 218.463092,11.3240093 C218.718726,11.5810023 220.015929,11.790404 221.332168,11.790404 L231.379371,11.790404 C232.69697,11.790404 233.987374,11.5374903 234.248446,11.2301865 C234.509518,10.9228827 233.646076,10.6862859 232.331197,10.6958042 L220.383061,10.8304196 Z" id="Shape-133" fill="#D7D2CD"></path>
                <path d="M260.407343,10.778749 C259.089744,10.8209013 258.087607,11.0670163 258.175991,11.3226496 C258.264375,11.5782828 259.414724,11.7890443 260.732323,11.7890443 L260.994755,11.7890443 C262.310995,11.7890443 263.461344,11.5361305 263.549728,11.2288267 C263.638112,10.9215229 262.635975,10.7039627 261.318376,10.746115 L260.407343,10.778749 Z" id="Shape-134" fill="#D7D2CD"></path>
                <path d="M311.679487,31.3531469 C310.363248,31.3952991 309.359751,31.6414141 309.449495,31.8970474 C309.539239,32.1526807 310.688228,32.3634421 312.004468,32.3634421 L312.2669,32.3634421 C313.583139,32.3634421 314.734848,32.1105284 314.821873,31.8032246 C314.908897,31.4959207 313.90812,31.2783605 312.59188,31.3205128 L311.679487,31.3531469 Z" id="Shape-135" fill="#D7D2CD"></path>
                <path d="M320.475719,40.9489122 C319.159479,40.9910645 318.155983,41.2371795 318.245726,41.4928127 C318.33547,41.748446 319.48446,41.9592075 320.800699,41.9592075 L321.063131,41.9592075 C322.379371,41.9592075 323.53108,41.7062937 323.618104,41.3989899 C323.705128,41.0916861 322.704351,40.8741259 321.388112,40.9162782 L320.475719,40.9489122 Z" id="Shape-136" fill="#D7D2CD"></path>
                <path d="M30.6637529,31.3585859 C29.3475136,31.3980186 28.3521756,31.6414141 28.4473582,31.9024864 C28.5425408,32.1635587 29.701049,32.3688811 31.0172883,32.3688811 L31.762432,32.3688811 C33.0786713,32.3688811 34.2358197,32.1159674 34.3323621,31.8086636 C34.4289044,31.5013598 33.4335664,31.2797203 32.1173271,31.3191531 L30.6637529,31.3585859 Z" id="Shape-137" fill="#D7D2CD"></path>
                <path d="M48.2970085,31.3585859 C46.9807692,31.3980186 45.9854312,31.6414141 46.0806138,31.9024864 C46.1757964,32.1635587 47.3343046,32.3688811 48.6505439,32.3688811 L49.3956876,32.3688811 C50.7132867,32.3688811 51.8690754,32.1159674 51.9656177,31.8086636 C52.0621601,31.5013598 51.0668221,31.2797203 49.7505828,31.3191531 L48.2970085,31.3585859 Z" id="Shape-138" fill="#D7D2CD"></path>
                <path d="M105.38073,48.715812 L104.791958,51.2735043 C104.481036,52.8235744 104.393124,54.4101104 104.530886,55.9850427 L104.543124,56.0965423 C104.694056,57.4059829 105.097902,57.493007 105.440559,56.2977855 C105.783217,55.1025641 106.061966,54.1221834 106.061966,54.1221834" id="Shape-139" fill="#000000"></path>
                <path d="M96.2187257,23.3605284 L94.2062937,23.8282828 C93.0994561,24.0839161 93.0668221,24.4741647 94.1342269,24.6944444 L96.0745921,25.0942113" id="Shape-140" fill="#000000"></path>
                <path d="M50.2645688,37.2218337 L52.6686092,37.2218337 C53.9862082,37.2218337 54.0283605,37.5019425 52.751554,37.8418803 L49.5996503,38.6890054" id="Shape-141" fill="#000000"></path>
                <path d="M14.3467366,50.1489899 L13.496892,51.6161616 C13.0304973,52.4224942 13.1950272,53.7713675 13.8640249,54.6076146 C14.5330225,55.4438617 15.0796426,55.480575 15.0796426,54.6742424 L15.0796426,53.2152292" id="Shape-142" fill="#000000"></path>
                <path d="M37.4706682,6.83411033 L35.8716006,6.83411033 C34.9918415,6.83411033 34.9918415,7.19444444 35.8716006,7.63364413 L37.4706682,8.43045843" id="Shape-143" fill="#000000"></path>
                <path d="M74.8883061,15.0932401 L72.712704,15.8261461 C71.5120435,16.2340715 71.6017871,16.6732712 72.9112277,16.8160451 L75.4621212,17.0879953" id="Shape-144" fill="#000000"></path>
                <path d="M149.424437,29.225136 L147.020396,29.225136 C145.704157,29.225136 145.63345,29.6058664 146.866744,30.0722611 L149.966977,31.243007" id="Shape-145" fill="#000000"></path>
                <path d="M163.418998,53.5945998 L163.818765,52.2226107 C164.039044,51.4679487 164.60742,51.3836441 165.081974,52.0336053 C165.556527,52.6835664 165.851593,54.2527195 165.736014,55.5213675 C165.620435,56.7900155 165.525253,57.8261461 165.525253,57.8261461" id="Shape-146" fill="#000000"></path>
                <path d="M220.951437,18.030303 L218.196581,19.3370241 C217.005439,19.9013209 217.096542,20.534965 218.396465,20.7443667 L221.387918,21.2284382" id="Shape-147" fill="#000000"></path>
                <path d="M200.602758,45.2185315 L204.042929,45.2185315 C205.359169,45.2185315 205.560412,45.8453768 204.487568,46.6081974 L201.536908,48.7144522" id="Shape-148" fill="#000000"></path>
                <path d="M179.412393,14.1645299 L180.108586,11.7985625 C180.479798,10.5353535 181.045455,10.3028361 181.364996,11.2995338 L181.94561,13.0998446" id="Shape-149" fill="#000000"></path>
                <path d="M293.634227,46.2859363 L295.47669,45.7529138 C296.488345,45.4592075 296.89763,46.0058275 296.386364,46.9671717 C295.875097,47.9285159 295.452214,48.7144522 295.452214,48.7144522" id="Shape-150" fill="#000000"></path>
                <path d="M245.38481,46.9671717 L246.983877,47.6932789 C247.863636,48.0916861 247.863636,48.9320124 246.983877,49.5588578 L245.38481,50.701049" id="Shape-151" fill="#000000"></path>
                <path d="M262.975913,18.030303 L265.379953,18.030303 C266.696193,18.030303 266.806333,18.5021368 265.620629,19.0759518 L262.975913,20.3636364" id="Shape-152" fill="#000000"></path>
                <path d="M312.135004,14.4310412 L309.468531,15.5188423 C308.244755,16.0192308 308.32906,16.4271562 309.645299,16.4271562 L312.557887,16.4271562" id="Shape-153" fill="#000000"></path>
                <path d="M336.749223,50.701049 C336.749223,50.701049 336.783217,51.2191142 336.825369,51.8541181 C336.867521,52.489122 336.344017,53.6829837 335.660062,54.5097125 C334.976107,55.3364413 335.369075,55.5118493 336.533023,54.8945221 L339.081197,53.5483683" id="Shape-154" fill="#000000"></path>
                <path d="M13.1501554,54.3479021 C12.485237,53.6884227 12.1072261,53.8311966 12.3098291,54.6647242 C12.512432,55.4982517 13.6043124,56.5792541 14.7315462,57.0660451 C15.8587801,57.5528361 16.2381507,57.4087024 15.5718726,56.7505828 L13.1501554,54.3479021 Z" id="Shape-155" fill="#525054"></path>
                <path d="M103.043318,54.8142968 L103.043318,55.6138306 C103.043318,56.0530303 103.520591,56.8770396 104.103924,57.4440559 C104.687257,58.0110723 105.008159,57.9498834 104.816434,57.3080808 L104.468337,56.1441336" id="Shape-156" fill="#525054"></path>
                <path d="M164.393939,57.6330614 C163.923465,57.2564103 164.026807,57.9050117 164.621018,59.0839161 C164.621018,59.0839161 165.028943,59.8820901 165.291375,59.6794872 C165.437546,59.5738772 165.56566,59.4453045 165.670746,59.2987568 C166.377817,58.1878399 166.572261,57.5134033 166.103147,57.8030303 C165.634033,58.0926573 164.860334,58.0083528 164.393939,57.6330614 Z" id="Shape-157" fill="#525054"></path>
                <polygon id="Shape-158" fill="#212328" points="245.919192 48.7144522 243.838772 51.7494172 245.38481 47.3506216"></polygon>
                <polygon id="Shape-159" fill="#212328" points="202.004662 45.6862859 200.965812 49.5493395 202.536325 46.9671717"></polygon>
                <polygon id="Shape-160" fill="#212328" points="181.12432 13.0971251 180.678322 16.5631313 182.479992 13.8300311"></polygon>
                <polygon id="Shape-161" fill="#212328" points="264.343823 18.495338 263.711538 22.6942502 264.702797 20.5947941"></polygon>
                <polygon id="Shape-162" fill="#212328" points="293.922494 46.2016317 292.425408 51.0192308 294.698912 47.950272"></polygon>
                <path d="M337.75272,55.2426185 C338.227273,54.8183761 337.669775,54.9244367 336.516706,55.4764957 C335.363636,56.0285548 334.973388,56.3766511 335.653263,56.2488345 C336.333139,56.1210179 337.278166,55.6682207 337.75272,55.2426185 Z" id="Shape-163" fill="#525054"></path>
                <polygon id="Shape-164" fill="#000000" points="349.110723 158.329448 349.110723 63.6078089 0.0856643357 63.6078089 0.0856643357 158.329448"></polygon>
                <polygon id="Shape-165" fill="url(#linearGradient-22)" points="284.137723 66.9432789 310.552253 66.9432789 310.552253 102.162199 319.356643 102.162199 319.356643 66.9432789 345.775253 66.9432789 345.775253 154.995338 319.356643 154.995338 319.356643 119.770979 310.552253 119.770979 310.552253 154.995338 284.137723 154.995338"></polygon>
                <polygon id="Shape-166" fill="url(#linearGradient-22)" points="3.42113442 66.9432789 65.0586636 66.9432789 65.0586636 84.5534188 29.8397436 84.5534188 29.8397436 102.162199 56.2529138 102.162199 56.2529138 119.770979 29.8397436 119.770979 29.8397436 137.385198 65.0586636 137.385198 65.0586636 154.995338 3.42113442 154.995338"></polygon>
                <polygon id="Shape-167" fill="url(#linearGradient-22)" points="213.958236 66.9432789 275.595765 66.9432789 275.595765 84.5534188 257.981546 84.5534188 257.981546 154.995338 231.568376 154.995338 231.568376 84.5534188 213.958236 84.5534188"></polygon>
                <path d="M73.5992618,66.9432789 L73.5992618,154.995338 L100.013792,154.995338 L100.013792,119.770979 L108.823621,119.770979 L108.823621,154.995338 L135.238151,154.995338 L135.238151,66.9432789 L73.5992618,66.9432789 Z M108.823621,102.160839 L100.013792,102.160839 L100.013792,84.5534188 L108.823621,84.5534188 L108.823621,102.160839 Z" id="Shape-168" fill="url(#linearGradient-23)"></path>
                <path d="M196.681235,102.163559 L205.416278,102.163559 L205.416278,66.9459984 L143.778749,66.9459984 L143.778749,154.998057 L170.193279,154.998057 L170.193279,119.770979 L178.997669,119.770979 L178.997669,154.995338 L205.416278,154.995338 L205.416278,110.885004 L196.681235,110.885004 L196.681235,102.163559 Z M179.004468,102.163559 L170.200078,102.163559 L170.200078,84.5534188 L179.004468,84.5534188 L179.004468,102.163559 Z" id="Shape-169" fill="url(#linearGradient-24)"></path>
                <polygon id="Shape-170" fill="#ACD88F" points="272.39763 70.0951826 217.11014 70.0951826 213.958236 66.9432789 275.595765 66.9432789"></polygon>
                <polygon id="Shape-171" fill="#188040" points="319.356643 102.162199 319.356643 66.9432789 322.507187 70.0951826 322.507187 105.315462"></polygon>
                <polygon id="Shape-172" fill="#ACD88F" points="342.624709 70.0951826 322.507187 70.0951826 319.356643 66.9432789 345.775253 66.9432789"></polygon>
                <polygon id="Shape-173" fill="#ACD88F" points="322.507187 105.315462 307.40035 105.315462 310.552253 102.162199 319.356643 102.162199"></polygon>
                <polygon id="Shape-174" fill="#054B29" points="319.356643 119.770979 310.552253 119.770979 307.40035 116.623155 322.507187 116.623155"></polygon>
                <polygon id="Shape-175" fill="#46AD4D" points="254.833722 151.840715 254.833722 81.4001554 257.981546 84.5534188 257.984266 154.995338"></polygon>
                <polygon id="Shape-176" fill="#054B29" points="345.775253 154.995338 319.356643 154.995338 322.507187 151.843434 342.624709 151.840715"></polygon>
                <polygon id="Shape-177" fill="#054B29" points="275.595765 84.5534188 257.981546 84.5534188 254.833722 81.4015152 272.39763 81.4001554"></polygon>
                <polygon id="Shape-178" fill="#054B29" points="231.568376 84.5534188 213.958236 84.5534188 217.11014 81.4015152 234.615579 81.4001554"></polygon>
                <polygon id="Shape-179" fill="#054B29" points="310.552253 154.995338 284.137723 154.995338 287.289627 151.843434 307.40035 151.840715"></polygon>
                <polygon id="Shape-180" fill="#054B29" points="257.984266 154.995338 231.568376 154.995338 234.615579 151.843434 254.833722 151.840715"></polygon>
                <polygon id="Shape-181" fill="#188040" points="319.356643 154.995338 319.356643 119.770979 322.507187 116.623155 322.507187 151.843434"></polygon>
                <polygon id="Shape-182" fill="#46AD4D" points="307.40035 151.840715 307.40035 116.623155 310.552253 119.770979 310.552253 154.995338"></polygon>
                <polygon id="Shape-183" fill="#46AD4D" points="272.39763 81.4001554 272.39763 70.0951826 275.549534 66.9432789 275.549534 84.5534188"></polygon>
                <polygon id="Shape-184" fill="#188040" points="213.958236 84.5534188 213.958236 66.9432789 217.11014 70.0951826 217.11014 81.4015152"></polygon>
                <polygon id="Shape-185" fill="#188040" points="231.568376 154.995338 231.568376 84.5534188 234.615579 81.4001554 234.615579 151.843434"></polygon>
                <polygon id="Shape-186" fill="#ACD88F" points="307.40035 70.0951826 287.289627 70.0951826 284.137723 66.9432789 310.552253 66.9432789"></polygon>
                <polygon id="Shape-187" fill="#188040" points="284.137723 154.995338 284.137723 66.9432789 287.289627 70.0951826 287.289627 151.843434"></polygon>
                <polygon id="Shape-188" fill="#46AD4D" points="307.40035 105.315462 307.40035 70.0951826 310.552253 66.9432789 310.552253 102.162199"></polygon>
                <polygon id="Shape-189" fill="#188040" points="182.149573 151.842075 178.997669 154.995338 178.997669 119.770979 182.149573 116.620435"></polygon>
                <polygon id="Shape-190" fill="#46AD4D" points="170.193279 154.995338 167.041375 151.842075 167.041375 116.620435 170.193279 119.770979"></polygon>
                <polygon id="Shape-191" fill="#188040" points="182.149573 105.312743 178.997669 102.162199 178.997669 84.5534188 182.149573 81.4015152"></polygon>
                <polygon id="Shape-192" fill="#46AD4D" points="170.193279 102.162199 167.041375 105.312743 167.041375 81.4015152 170.193279 84.5534188"></polygon>
                <polygon id="Shape-193" fill="#46AD4D" points="135.238151 154.995338 132.086247 151.842075 132.086247 70.0951826 135.238151 66.9432789"></polygon>
                <polygon id="Shape-194" fill="#188040" points="111.970085 151.842075 108.818182 154.995338 108.823621 119.770979 111.970085 116.620435"></polygon>
                <polygon id="Shape-195" fill="#46AD4D" points="100.013792 154.995338 96.8632479 151.842075 96.8632479 116.620435 100.013792 119.770979"></polygon>
                <polygon id="Shape-196" fill="#188040" points="76.7511655 151.842075 73.5992618 154.993978 73.5992618 66.9432789 76.7511655 70.0951826"></polygon>
                <polygon id="Shape-197" fill="#188040" points="6.57167832 151.842075 3.42113442 154.993978 3.42113442 66.9432789 6.57167832 70.0951826"></polygon>
                <polygon id="Shape-198" fill="#188040" points="111.975524 105.312743 108.823621 102.162199 108.823621 84.5534188 111.975524 81.4015152"></polygon>
                <polygon id="Shape-199" fill="#46AD4D" points="65.0586636 154.995338 61.9067599 151.842075 61.9067599 140.537102 65.0586636 137.385198"></polygon>
                <polygon id="Shape-200" fill="#46AD4D" points="56.2529138 119.773699 53.1023699 116.620435 53.1023699 105.315462 56.2529138 102.163559"></polygon>
                <polygon id="Shape-201" fill="#46AD4D" points="29.8397436 137.385198 26.6878399 140.537102 26.6878399 116.620435 29.8397436 119.770979"></polygon>
                <polygon id="Shape-202" fill="#46AD4D" points="29.8397436 102.162199 26.6878399 105.315462 26.6878399 81.4015152 29.8397436 84.5534188"></polygon>
                <polygon id="Shape-203" fill="#46AD4D" points="100.013792 102.162199 96.8632479 105.312743 96.8632479 81.4015152 100.013792 84.5534188"></polygon>
                <polygon id="Shape-204" fill="#ACD88F" points="146.930653 70.0951826 202.265734 70.0951826 205.416278 66.9432789 143.778749 66.9432789"></polygon>
                <polygon id="Shape-205" fill="#054B29" points="196.681235 102.163559 205.416278 102.163559 202.265734 99.0130148 193.530692 99.0130148"></polygon>
                <polygon id="Shape-206" fill="#46AD4D" points="205.416278 102.163559 202.265734 99.0130148 202.265734 70.0951826 205.416278 66.9432789"></polygon>
                <polygon id="Shape-207" fill="#46AD4D" points="196.681235 110.885004 193.530692 114.036908 193.530692 99.0130148 196.681235 102.163559"></polygon>
                <polygon id="Shape-208" fill="#A1D084" points="193.530692 114.036908 202.265734 114.036908 205.416278 110.886364 196.681235 110.886364"></polygon>
                <polygon id="Shape-209" fill="#46AD4D" points="205.416278 154.995338 202.265734 151.842075 202.265734 114.036908 205.416278 110.886364"></polygon>
                <polygon id="Shape-210" fill="#054B29" points="178.997669 154.993978 205.416278 154.993978 202.265734 151.842075 182.149573 151.842075"></polygon>
                <polygon id="Shape-211" fill="#054B29" points="170.193279 119.770979 178.997669 119.770979 182.149573 116.620435 167.041375 116.620435"></polygon>
                <polygon id="Shape-212" fill="#054B29" points="143.778749 154.993978 170.197358 154.993978 167.041375 151.842075 146.930653 151.842075"></polygon>
                <polygon id="Shape-213" fill="#188040" points="146.930653 151.842075 143.778749 154.993978 143.778749 66.9432789 146.930653 70.0951826"></polygon>
                <polygon id="Shape-214" fill="#054B29" points="170.193279 84.5520591 178.997669 84.5520591 182.149573 81.4015152 167.041375 81.4015152"></polygon>
                <polygon id="Shape-215" fill="#ACD88F" points="167.041375 105.312743 182.149573 105.312743 178.997669 102.162199 170.193279 102.162199"></polygon>
                <polygon id="Shape-216" fill="#ACD88F" points="76.7511655 70.0951826 132.086247 70.0951826 135.238151 66.9432789 73.5992618 66.9432789"></polygon>
                <polygon id="Shape-217" fill="#054B29" points="108.818182 154.993978 135.238151 154.993978 132.086247 151.842075 111.970085 151.842075"></polygon>
                <polygon id="Shape-218" fill="#054B29" points="100.013792 119.770979 108.823621 119.770979 111.970085 116.620435 96.8632479 116.620435"></polygon>
                <polygon id="Shape-219" fill="#054B29" points="100.013792 84.5520591 108.823621 84.5520591 111.975524 81.4015152 96.8632479 81.4015152"></polygon>
                <polygon id="Shape-220" fill="#ACD88F" points="96.8632479 105.312743 111.975524 105.312743 108.823621 102.162199 100.013792 102.162199"></polygon>
                <polygon id="Shape-221" fill="#054B29" points="73.5992618 154.993978 100.019231 154.993978 96.8632479 151.842075 76.7511655 151.842075"></polygon>
                <polygon id="Shape-222" fill="#ACD88F" points="26.6878399 140.537102 61.9067599 140.537102 65.0586636 137.385198 29.8397436 137.385198"></polygon>
                <polygon id="Shape-223" fill="#054B29" points="29.8397436 119.770979 56.2529138 119.770979 53.1023699 116.620435 26.6878399 116.620435"></polygon>
                <polygon id="Shape-224" fill="#ACD88F" points="26.6878399 105.315462 53.1023699 105.315462 56.2529138 102.163559 29.8397436 102.163559"></polygon>
                <polygon id="Shape-225" fill="#ACD88F" points="6.57167832 70.0951826 61.9067599 70.0951826 65.0586636 66.9432789 3.42113442 66.9432789"></polygon>
                <polygon id="Shape-226" fill="#054B29" points="3.42113442 154.993978 65.0586636 154.993978 61.9067599 151.842075 6.57167832 151.842075"></polygon>
                <polygon id="Shape-227" fill="#054B29" points="29.8397436 84.5534188 65.0586636 84.5534188 61.9067599 81.4015152 26.6878399 81.4015152"></polygon>
                <polygon id="Shape-228" fill="#46AD4D" points="65.0586636 84.5534188 61.9067599 81.4015152 61.9067599 70.0951826 65.0586636 66.9432789"></polygon>
            </g>
        </g>
    </g>
</svg>