<svg xmlns="http://www.w3.org/2000/svg" xmlns:xlink="http://www.w3.org/1999/xlink" id="MineconLogoLager_1" data-name="Lager 1" viewBox="0 0 642.9 266.3">
  <defs>
    <style>
      .MineconLogo1{fill:#02261c}
      .MineconLogo8{fill:#3b80e2}
      .MineconLogo10{isolation:isolate}
      .MineconLogo11{fill:#21477e}
      .MineconLogo12{fill:#254f8c}
      .MineconLogo13{fill:#25508e}
      .MineconLogo14{fill:#244e8a}
      .MineconLogo15{fill:#25508d}
      .MineconLogo16{fill:#234c87}
      .MineconLogo17{fill:#0a4a2a}
      .MineconLogo18{fill:#9aec8e}
      .MineconLogo19{fill:#49ad53}
      .MineconLogo20{fill:#1e7e3c}
      .MineconLogo23{fill:url(#MineconLogoGradient13-3)}
      .MineconLogo24{fill:#1e4071}
      .MineconLogo27{fill:#24202f}
      .MineconLogo29{fill:#98cb7e}
      .MineconLogo30{fill:#6ab54b}
      .MineconLogo31{fill:#7bc163}
      .MineconLogo32{fill:#58a145}
      .MineconLogo33{fill:#73bb58}
      .MineconLogo34{fill:#65b047}
      .MineconLogo35{fill:#71ba54}
      .MineconLogo36{fill:#68b54a}
      .MineconLogo39{opacity:.5}
      .MineconLogo40{fill:#00b222}
      .MineconLogo46{fill:#010101}
      .MineconLogo47{fill:#2a282b}
      .MineconLogo49{fill:url(#MineconLogoGradient28)}
      .MineconLogo50{fill:url(#MineconLogoGradient28-2)}
      .MineconLogo51{fill:url(#MineconLogoGradient28-3)}
      .MineconLogo52{fill:url(#MineconLogoGradient28-4)}
      .MineconLogo53{fill:url(#MineconLogoGradient28-5)}
      .MineconLogo54{fill:url(#MineconLogoGradient28-6)}
      .MineconLogo55{fill:url(#MineconLogoGradient28-7)}
      .MineconLogo57{fill:url(#MineconLogoGradient42)}
      .MineconLogo58{fill:url(#MineconLogoGradient42-2)}
      .MineconLogo59{fill:url(#MineconLogoGradient42-3)}
      .MineconLogo60{fill:url(#MineconLogoGradient42-4)}
      .MineconLogo61{fill:url(#MineconLogoGradient42-5)}
      .MineconLogo62{fill:url(#MineconLogoGradient42-6)}
      .MineconLogo63{fill:url(#MineconLogoGradient42-7)}
      .MineconLogo66{fill:#5b5659}
    </style>
    <linearGradient id="MineconLogoGradient6" x1="120.04" x2="122.29" y1="130.72" y2="176.47" gradientTransform="matrix(1 0 0 -1 -2.3 277.4)" gradientUnits="userSpaceOnUse">
      <stop offset="0" stop-color="#47b34f"/>
      <stop offset="1" stop-color="#082302"/>
    </linearGradient>
    <linearGradient id="MineconLogoGradient6-2" x1="220.58" x2="221.99" y1="122.6" y2="177.74" xlink:href="#MineconLogoGradient6"/>
    <linearGradient id="MineconLogoGradient6-3" x1="506.87" x2="496.54" y1="122.09" y2="168.76" xlink:href="#MineconLogoGradient6"/>
    <linearGradient id="MineconLogoGradient6-4" x1="558.07" x2="543.57" y1="123.57" y2="177.07" xlink:href="#MineconLogoGradient6"/>
    <linearGradient id="MineconLogoGradient6-5" x1="427.51" x2="425.51" y1="127.12" y2="159.78" xlink:href="#MineconLogoGradient6"/>
    <linearGradient id="MineconLogoGradient6-6" x1="323.5" x2="323.5" y1="118.84" y2="179.1" xlink:href="#MineconLogoGradient6"/>
    <linearGradient id="MineconLogoGradient13" x1="324.74" x2="326.49" y1="81.61" y2="27.11" gradientTransform="matrix(1 0 0 -1 0 282)" gradientUnits="userSpaceOnUse">
      <stop offset="0" stop-color="#80c165"/>
      <stop offset="1" stop-color="#47b34f"/>
    </linearGradient>
    <linearGradient id="MineconLogoGradient13-2" x1="224.7" x2="243.45" y1="102.53" y2="24.53" xlink:href="#MineconLogoGradient13"/>
    <linearGradient id="MineconLogoGradient13-3" x1="135.57" x2="167.57" y1="85.76" y2="25.76" gradientTransform="matrix(1 0 0 -1 -2.3 277.4)" xlink:href="#MineconLogoGradient13"/>
    <linearGradient id="MineconLogoGradient13-4" x1="421.83" x2="407.58" y1="100.45" y2="42.7" gradientTransform="matrix(1 0 0 -1 -2.3 277.4)" xlink:href="#MineconLogoGradient13"/>
    <linearGradient id="MineconLogoGradient13-5" x1="515.03" x2="492.03" y1="84.63" y2="24.63" gradientTransform="matrix(1 0 0 -1 -2.3 277.4)" xlink:href="#MineconLogoGradient13"/>
    <linearGradient id="MineconLogoGradient14" x1="85.15" x2="85.15" y1="-615.48" y2="-583.02" gradientTransform="translate(-2.3 692.68)" gradientUnits="userSpaceOnUse">
      <stop offset="0" stop-color="#2a282b"/>
      <stop offset=".02" stop-color="#272528"/>
      <stop offset=".14" stop-color="#161517"/>
      <stop offset=".3" stop-color="#0a0a0a"/>
      <stop offset=".51" stop-color="#030303"/>
      <stop offset="1" stop-color="#010101"/>
    </linearGradient>
    <linearGradient id="MineconLogoGradient28" x1="75.95" x2="75.95" y1="-594.88" y2="-686.08" gradientTransform="translate(-2.3 692.68)" gradientUnits="userSpaceOnUse">
      <stop offset="0" stop-color="#dacecb"/>
      <stop offset="1" stop-color="#a99f9c"/>
    </linearGradient>
    <linearGradient id="MineconLogoGradient28-2" x1="159.6" x2="159.6" y1="-594.88" y2="-686.08" xlink:href="#MineconLogoGradient28"/>
    <linearGradient id="MineconLogoGradient28-3" x1="229.15" x2="229.15" y1="-594.88" y2="-686.08" xlink:href="#MineconLogoGradient28"/>
    <linearGradient id="MineconLogoGradient28-4" x1="581.95" x2="581.95" y1="-594.88" y2="-686.08" xlink:href="#MineconLogoGradient28"/>
    <linearGradient id="MineconLogoGradient28-5" x1="489.15" x2="489.15" y1="-594.98" y2="-686.08" gradientTransform="translate(0 697.28)" xlink:href="#MineconLogoGradient28"/>
    <linearGradient id="MineconLogoGradient28-6" x1="407.25" x2="407.25" y1="-594.88" y2="-686.08" xlink:href="#MineconLogoGradient28"/>
    <linearGradient id="MineconLogoGradient28-7" x1="323.85" x2="323.85" y1="-594.88" y2="-686.08" xlink:href="#MineconLogoGradient28"/>
    <linearGradient id="MineconLogoGradient42" x1="75.95" x2="75.95" y1="-615.48" y2="-772.22" gradientTransform="translate(-2.3 692.68)" gradientUnits="userSpaceOnUse">
      <stop offset="0" stop-color="#fff"/>
      <stop offset="1" stop-color="#1e1e1c"/>
    </linearGradient>
    <linearGradient id="MineconLogoGradient42-2" x1="159.6" x2="159.6" y1="-615.48" y2="-772.22" xlink:href="#MineconLogoGradient42"/>
    <linearGradient id="MineconLogoGradient42-3" x1="229.15" x2="229.15" y1="-615.48" y2="-772.22" xlink:href="#MineconLogoGradient42"/>
    <linearGradient id="MineconLogoGradient42-4" x1="581.95" x2="581.95" y1="-615.48" y2="-772.22" xlink:href="#MineconLogoGradient42"/>
    <linearGradient id="MineconLogoGradient42-5" x1="489.15" x2="489.15" y1="-615.48" y2="-772.22" gradientTransform="translate(0 697.28)" xlink:href="#MineconLogoGradient42"/>
    <linearGradient id="MineconLogoGradient42-6" x1="407.25" x2="407.25" y1="-615.48" y2="-772.22" xlink:href="#MineconLogoGradient42"/>
    <linearGradient id="MineconLogoGradient42-7" x1="323.85" x2="323.85" y1="-615.48" y2="-772.22" xlink:href="#MineconLogoGradient42"/>
  </defs>
  <path d="M558.8 70.9h-44.1l-2.1 5.1-1-5.1h-44.7l-2.2 7.1-1.2-7.1h-93.3l-1.3 11.5-.6-11.5h-94.2l-.6 11.5-1.3-11.5h-93.3l-1.2 7.1-2.2-7.1H83.6L61 154.2l71 112.1h74.7l.2-1.6.6 1.6h152.1l5.7-51-.2-5.1h.8L370 174l.7 12.4h4.6l-1.6 9.9 4.1 70h38.3l14.2-46.1 5.3 46.1h37.3l.6-1.2.2 1.2h36.7l71-112.1-22.6-83.3z" class="MineconLogo1"/>
  <path d="M230.3 225.2l6.2-68.5 8.5 39.9-5 63.8-9.7-35.2z" class="MineconLogo1"/>
  <path d="M224.5 204.3l7-71.1H242l-6.2 71.1h-11.3zm-6.5-23.8l7.9-73.7 5.6 26.4-7 71.1-6.5-23.8zm44.1-27.3l4.8-76.4 13.7 119.8-2.7 63.8-15.8-107.2zm216.6 107.2l-9.6-63.8 16.5-39.9 12 68.5-18.9 35.2zm18.9-56.1l-12.7-71.1h10.4l13.5 71.1h-11.2zm-56.7 56.1l-7.3-63.8 37.6-119.8 13.3 76.4-43.6 107.2zm67.9-56.1l-13.5-71.1 23.4-56.4 17.5 76.4-27.4 51.1zm-125.4 56.1l-3.8-63.8 14.7-89.8 6 73.7-16.9 79.9zm-7.2-79.9l-4.2-73.7 3.4-30 4.9 76.4-4.1 27.3zm-60.3 44.7l.3-68.5.5 39.9-.3 63.8-.5-35.2zm10 35.2l-.3-63.8.5-39.9.4 68.5-.6 35.2zm22.6-45.3l-1.9-69.8h10.2l2.6 69.8h-10.9z" class="MineconLogo1"/>
  <path d="M315.5 204.3l.4-71.1h10.5l.4 71.1h-11.3z" class="MineconLogo1"/>
  <path d="M315.2 180.5l.4-73.7.3 26.4-.4 71.1-.3-23.8zm11.6 23.8l-.4-71.1.4-26.4.4 73.7-.4 23.8z" class="MineconLogo1"/>
  <path fill="url(#MineconLogoGradient6)" d="M67.4 153.2l20.7-76.4h83.1l-13.4 76.4H67.4z"/>
  <path fill="url(#MineconLogoGradient6-2)" d="M171.7 153.2l12.2-76.4h83l-4.8 76.4h-90.4z"/>
  <path fill="url(#MineconLogoGradient6-3)" d="M484.5 153.2l-13.3-76.4h35.6l16.5 76.4h-38.8z"/>
  <path fill="url(#MineconLogoGradient6-4)" d="M536.2 153.2l-17.5-76.4h35.6l20.7 76.4h-38.8z"/>
  <path fill="url(#MineconLogoGradient6-5)" d="M380.3 153.2l-4.9-76.4h83.1l12.2 76.4h-90.4z"/>
  <path fill="url(#MineconLogoGradient6-6)" d="M276 153.2l3.7-76.4h83l3.7 76.4H276z"/>
  <path d="M154.7 243.8l-9.9-18.6h31.8l-9.2-20.9h-33.9l-12.7-23.8h48.1l-11.1-27.3H67.4l67.8 107.2h66.3l-6.8-16.6h-40z" class="MineconLogo8"/>
  <path d="M174 157.8L214 265h28.4l-9.7-35.2h10.6l8.6 35.2h28.4l-15.8-107.2zm52.8 51.1l-6.6-23.8h12l5.8 23.8z" class="MineconLogo8" transform="translate(-2.3 -4.6)"/>
  <path d="M536.2 153.2l-27.4 51.1h-11.2l25.7-51.1h-38.8l-43.6 107.2h28.4l17.7-35.2h10.6l-18.9 35.2h28.5L575 153.2h-38.8zm-65.5 0h-90.4l-4.1 27.3h24.1l-16.9 79.9h28.4l24.6-79.9h24.1l10.2-27.3z" class="MineconLogo8"/>
  <path d="M290.4 265h28.4l-.6-35.2h10.6l-.6 35.2h28.4l5.1-45.3h-10.9l.9-10.8h11.2l5.8-51.1h-90.4zm39.1-79.9l-.4 23.8h-11.3l-.4-23.8z" class="MineconLogo8" transform="translate(-2.3 -4.6)"/>
  <path fill="#b9c698" d="M444 164.2c-1.6 1.3-2.5 2.7-2.1 3.1s2 0 3.5-1.1 2.4-2.5 2.1-3.1-1.9-.2-3.5 1.1zm-206.1 4.2c-.1 1.2.3 2.2 1 2.3s1.3-.8 1.5-1.8-.2-2.1-1-2.3-1.4.6-1.5 1.8z" transform="translate(-2.3 -4.6)"/>
  <g class="MineconLogo10">
    <path d="M152.3 247.8H192h-39.7z" class="MineconLogo11"/>
    <path d="M192.1 247.8l3.5 8.6-3.5-8.6z" class="MineconLogo12"/>
    <path d="M138.2 221.2l14.1 26.6-14.1-26.6z" class="MineconLogo13"/>
    <path d="M225.2 221.2l9.7 35.2-9.7-35.2z" class="MineconLogo14"/>
    <path d="M344.2 219.1H355h-10.8zm-122.7-10.8h19.3-19.3zm90.1 0h19.2-19.2zm-180.5 0h33.7-33.7z" class="MineconLogo11"/>
    <path d="M164.8 208.3l5.7 12.9-5.7-12.9z" class="MineconLogo15"/>
    <path d="M212.7 176.5l8.8 31.8-8.8-31.8z" class="MineconLogo14"/>
    <path d="M114.2 176.5l16.9 31.8-16.9-31.8z" class="MineconLogo13"/>
    <path d="M280.5 157.2h81.4-81.4z" class="MineconLogo11"/>
    <path d="M258.8 157.2l14.6 99.2-14.6-99.2z" class="MineconLogo16"/>
    <path d="M177.5 157.2h81.3-81.3z" class="MineconLogo11"/>
    <path d="M155.1 157.2l7.9 19.3-7.9-19.3z" class="MineconLogo12"/>
    <path d="M74.7 157.2h80.4-80.4z" class="MineconLogo11"/>
    <path d="M234.9 256.4l5.2 4h-28.4l2.8-4h20.4zm38.5 0l4.6 4h-28.4l3.2-4h20.6zm77.4 0l3.5 4h-28.4l4.1-4h20.8zm-38.3 0l4 4h-28.4l3.6-4h20.8zm-116.9 0l5.9 4h-66.3l2.2-4h58.2z" class="MineconLogo17"/>
    <path d="M152.3 247.8l2.4-4h40l-2.6 4h-39.8z" class="MineconLogo18"/>
    <path d="M192.1 247.8l2.6-4 6.8 16.6-5.9-4-3.5-8.6z" class="MineconLogo19"/>
    <path d="M330 256.4l-4.1 4 .6-35.2 4.1-4-.6 35.2z" class="MineconLogo20"/>
    <path d="M330.6 221.2l-4.1 4h-10.6l-4-4h18.7z" class="MineconLogo17"/>
    <path d="M311.9 221.2l4 4 .6 35.2-4-4-.6-35.2z" class="MineconLogo19"/>
    <path d="M244.2 221.2l-3.2 4h-10.6l-5.2-4h19zm-73.7 0l6.1 4h-31.8l-6.6-4h32.3z" class="MineconLogo17"/>
    <path d="M138.2 221.2l6.6 4 9.9 18.6-2.4 4-14.1-26.6z" class="MineconLogo19"/>
    <path d="M252.8 256.4l-3.2 4-8.6-35.2 3.2-4 8.6 35.2z" class="MineconLogo20"/>
    <path d="M225.2 221.2l5.2 4 9.7 35.2-5.2-4-9.7-35.2z" class="MineconLogo19"/>
    <path d="M344.2 219.1l4.3-4h10.9l-4.4 4h-10.8z" class="MineconLogo18"/>
    <path d="M355 219.1l4.4-4-5.1 45.3-3.5-4 4.2-37.3z" class="MineconLogo19"/>
    <path d="M221.5 208.3l3-4h11.2l5.1 4h-19.3zm90.1 0l3.9-4h11.3l4 4h-19.2zm-180.5 0l2.4-4h33.9l-2.6 4h-33.7z" class="MineconLogo18"/>
    <path d="M164.8 208.3l2.6-4 9.2 20.9-6.1-4-5.7-12.9zm181-8l3.6 4-.9 10.8-4.3 4 1.6-18.8z" class="MineconLogo19"/>
    <path d="M357.1 200.3l3.5 4h-11.2l-3.6-4h11.3z" class="MineconLogo17"/>
    <path d="M311.1 176.5l4 4 .4 23.8-3.9 4-.5-31.8z" class="MineconLogo19"/>
    <path d="M331.3 176.5l-4.1 4h-12.1l-4-4h20.2z" class="MineconLogo17"/>
    <path d="M330.8 208.3l-4-4 .4-23.8 4.1-4-.5 31.8z" class="MineconLogo20"/>
    <path d="M233.1 176.5l-3.2 4h-12l-5.2-4h20.4z" class="MineconLogo17"/>
    <path d="M240.8 208.3l-5.1-4-5.8-23.8 3.2-4 7.7 31.8z" class="MineconLogo20"/>
    <path d="M212.7 176.5l5.2 4 6.6 23.8-3 4-8.8-31.8z" class="MineconLogo19"/>
    <path d="M163 176.5l5.9 4h-48.1l-6.6-4H163z" class="MineconLogo17"/>
    <path d="M114.2 176.5l6.6 4 12.7 23.8-2.4 4-16.9-31.8z" class="MineconLogo19"/>
    <path d="M291.7 256.4l-3.6 4L276 153.2l4.5 4 11.2 99.2z" class="MineconLogo20"/>
    <path d="M280.5 157.2l-4.5-4h90.4l-4.4 4h-81.5z" class="MineconLogo18"/>
    <path d="M362 157.2l4.4-4-5.8 51.1-3.5-4 4.9-43.1zm-103.2 0l3.4-4L278 260.4l-4.6-4-14.6-99.2z" class="MineconLogo19"/>
    <path d="M177.5 157.2l-5.8-4h90.5l-3.4 4h-81.3z" class="MineconLogo18"/>
    <path d="M214.5 256.4l-2.8 4-40-107.2 5.8 4 37 99.2z" class="MineconLogo20"/>
    <path d="M155.1 157.2l2.7-4 11.1 27.3-5.9-4-7.9-19.3z" class="MineconLogo19"/>
    <path d="M137.4 256.4l-2.2 4-67.8-107.2 7.3 4 62.7 99.2z" class="MineconLogo20"/>
    <path d="M74.7 157.2l-7.3-4h90.4l-2.7 4H74.7z" class="MineconLogo18"/>
    <path d="M192.1 247.8l3.5 8.6-3.5-8.6z" class="MineconLogo12"/>
    <path d="M152.3 247.8H192h-39.7z" class="MineconLogo11"/>
    <path d="M138.2 221.2l14.1 26.6-14.1-26.6z" class="MineconLogo13"/>
    <path d="M225.2 221.2l9.7 35.2-9.7-35.2z" class="MineconLogo14"/>
    <path d="M344.2 219.1H355h-10.8zm-122.7-10.8h19.3-19.3zm90.1 0h19.2-19.2zm-180.5 0h33.7-33.7z" class="MineconLogo11"/>
    <path d="M164.8 208.3l5.7 12.9-5.7-12.9z" class="MineconLogo15"/>
    <path d="M212.7 176.5l8.8 31.8-8.8-31.8z" class="MineconLogo14"/>
    <path d="M114.2 176.5l16.9 31.8-16.9-31.8z" class="MineconLogo13"/>
    <path fill="url(#MineconLogoGradient13)" d="M359.4 204.9h-11.3l-1.6 18.8h10.8l-4.2 37.3h-20.8l.6-35.2h-18.7l.6 35.2H294l-11.2-99.2h81.4zm-26.3 8l.5-31.8h-20.2l.5 31.8h19.2" transform="translate(-2.3 -4.6)"/>
    <path d="M280.5 157.2h81.4-81.4z" class="MineconLogo11"/>
    <path fill="url(#MineconLogoGradient13-2)" d="M261.1 161.8l14.6 99.2h-20.6l-8.6-35.2h-19l9.7 35.2h-20.4l-37-99.2zm-37.3 51.1h19.3l-7.7-31.8H215l8.8 31.8" transform="translate(-2.3 -4.6)"/>
    <path d="M258.8 157.2l14.6 99.2-14.6-99.2z" class="MineconLogo16"/>
    <path d="M74.7 157.2h80.4-80.4zm102.8 0h81.3-81.3z" class="MineconLogo11"/>
    <path d="M155.1 157.2l7.9 19.3h-48.8l16.9 31.8h33.7l5.7 12.9h-32.3l14.1 26.6h39.8l3.5 8.6h-58.2l-62.7-99.2h80.4z" class="MineconLogo23"/>
    <path d="M155.1 157.2l7.9 19.3-7.9-19.3z" class="MineconLogo12"/>
  </g>
  <g class="MineconLogo10">
    <path d="M485.4 256.4l18.9-35.2-18.9 35.2z" class="MineconLogo24"/>
    <path d="M491.1 208.3h20.1-20.1z" class="MineconLogo11"/>
    <path d="M388.4 256.4l16.9-79.9-16.9 79.9z" class="MineconLogo24"/>
    <path d="M383.8 157.2H465h-81.2z" class="MineconLogo11"/>
    <path d="M446.9 256.4l40.3-99.2-40.3 99.2z" class="MineconLogo24"/>
    <path d="M487.2 157.2h29.6-29.6z" class="MineconLogo11"/>
    <path d="M511.2 208.3l27.4-51.1-27.4 51.1z" class="MineconLogo24"/>
    <path d="M538.6 157.2h29.1-29.1z" class="MineconLogo11"/>
    <path d="M505 256.4l2.2 4h-28.5l6.7-4H505zm-96.1 0l2.9 4h-28.4l5-4h20.5zm58 0l2.4 4h-28.4l6-4h20z" class="MineconLogo17"/>
    <path d="M485.4 256.4l-6.7 4 18.9-35.2 6.7-4-18.9 35.2z" class="MineconLogo20"/>
    <path d="M504.3 221.2l-6.7 4H487l-2.4-4h19.7z" class="MineconLogo17"/>
    <path d="M484.6 221.2l2.4 4-17.7 35.2-2.4-4 17.7-35.2z" class="MineconLogo19"/>
    <path d="M491.1 208.3l6.5-4h11.2l2.4 4h-20.1z" class="MineconLogo18"/>
    <path d="M457.8 176.5l2.7 4h-24.1l-2.9-4h24.3z" class="MineconLogo17"/>
    <path d="M388.4 256.4l-5 4 16.9-79.9 5-4-16.9 79.9z" class="MineconLogo20"/>
    <path d="M433.5 176.5l2.9 4-24.6 79.9-2.9-4 24.6-79.9z" class="MineconLogo19"/>
    <path d="M405.3 176.5l-5 4h-24.1l4.7-4h24.4z" class="MineconLogo17"/>
    <path d="M567.8 157.2l7.2-4-67.8 107.2-2.2-4 62.8-99.2z" class="MineconLogo19"/>
    <path d="M446.9 256.4l-6 4 43.6-107.2 2.7 4-40.3 99.2z" class="MineconLogo20"/>
    <path d="M487.2 157.2l-2.7-4h38.8l-6.5 4h-29.6z" class="MineconLogo18"/>
    <path d="M516.8 157.2l6.5-4-25.7 51.1-6.5 4 25.7-51.1z" class="MineconLogo19"/>
    <path d="M511.2 208.3l-2.4-4 27.4-51.1 2.4 4-27.4 51.1z" class="MineconLogo20"/>
    <path d="M538.6 157.2l-2.4-4H575l-7.2 4h-29.2z" class="MineconLogo18"/>
    <path d="M380.9 176.5l-4.7 4 4.1-27.3 3.5 4-2.9 19.3z" class="MineconLogo20"/>
    <path d="M383.8 157.2l-3.5-4h90.4l-5.7 4h-81.2z" class="MineconLogo18"/>
    <path d="M465 157.2l5.7-4-10.2 27.3-2.7-4 7.2-19.3z" class="MineconLogo19"/>
    <path d="M485.4 256.4l18.9-35.2-18.9 35.2z" class="MineconLogo24"/>
    <path d="M491.1 208.3h20.1-20.1z" class="MineconLogo11"/>
    <path d="M388.4 256.4l16.9-79.9-16.9 79.9zm58.5 0l40.3-99.2-40.3 99.2zm64.3-48.1l27.4-51.1-27.4 51.1z" class="MineconLogo24"/>
    <path d="M538.6 157.2h29.1-29.1zm-51.4 0h29.6-29.6zm-103.4 0H465h-81.2z" class="MineconLogo11"/>
    <path fill="url(#MineconLogoGradient13-4)" d="M465 157.2l-7.2 19.3h-24.3l-24.6 79.9h-20.5l16.9-79.9h-24.4l2.9-19.3H465z"/>
    <path fill="url(#MineconLogoGradient13-5)" d="M567.8 157.2L505 256.4h-19.6l18.9-35.2h-19.7l-17.7 35.2h-20l40.3-99.2h29.6l-25.7 51.1h20.1l27.4-51.1h29.2z"/>
  </g>
  <g class="MineconLogo10">
    <path d="M91.2 80.7h75.3-75.3zm0 0h75.3-75.3z" class="MineconLogo27"/>
  </g>
  <g class="MineconLogo10">
    <path d="M187.3 80.7h75.3-75.3z" class="MineconLogo27"/>
  </g>
  <path fill="#878787" d="M476 80.7h27.6H476zm47.8 0h27.5-27.5zm-47.8 0h27.6H476zm47.8 0h27.5-27.5z"/>
  <g class="MineconLogo10">
    <path d="M379.7 80.7h75.4-75.4zm0 0h75.4-75.4z" class="MineconLogo27"/>
  </g>
  <g class="MineconLogo10">
    <path d="M283.5 80.7h75.4-75.4zm0 0h75.4-75.4z" class="MineconLogo27"/>
  </g>
  <path d="M155.1 157.2l7.9 19.3h-48.8l16.9 31.8h33.7l5.7 12.9h-32.3l14.1 26.6h39.8l3.5 8.6h-58.2l-62.7-99.2h80.4z" class="MineconLogo23"/>
  <path d="M155.1 157.2l7.9 19.3h-48.8l16.9 31.8h33.7l5.7 12.9h-32.3l14.1 26.6h39.8l3.5 8.6h-58.2l-62.7-99.2h80.4z" class="MineconLogo23"/>
  <path d="M90.5 163.8l3.7 6.5H83l-4.1-6.5h11.6z" class="MineconLogo29"/>
  <path d="M105.4 170.3l3.4 6.2H97.9l-3.7-6.2h11.2z" class="MineconLogo30"/>
  <path d="M127.7 170.3l3 6.2h-10.9l-3.3-6.2h11.2z" class="MineconLogo31"/>
  <path d="M138.8 170.3l2.9 6.2h-11l-3-6.2h11.1z" class="MineconLogo29"/>
  <path d="M150 170.3l2.6 6.2h-10.9l-2.9-6.2H150z" class="MineconLogo31"/>
  <path d="M160.5 170.3l2.5 6.2h-10.4l-2.6-6.2h10.5z" class="MineconLogo29"/>
  <path d="M101.9 163.8l3.5 6.5H94.2l-3.7-6.5h11.4z" class="MineconLogo32"/>
  <path d="M157.8 163.8l2.7 6.5H150l-2.7-6.5h10.5z" class="MineconLogo29"/>
  <path d="M147.3 163.8l2.7 6.5h-11.2l-2.9-6.5h11.4z" class="MineconLogo30"/>
  <path d="M135.9 163.8l2.9 6.5h-11.1l-3.1-6.5h11.3z" class="MineconLogo33"/>
  <path d="M124.6 163.8l3.1 6.5h-11.2l-3.3-6.5h11.4z" class="MineconLogo31"/>
  <path d="M113.2 163.8l3.3 6.5h-11.1l-3.5-6.5h11.3z" class="MineconLogo31"/>
  <path d="M98.2 157.2l3.7 6.6H90.5l-3.9-6.6h11.6z" class="MineconLogo34"/>
  <path d="M109.8 157.2l3.4 6.6h-11.3l-3.7-6.6h11.6z" class="MineconLogo35"/>
  <path d="M121.3 157.2l3.3 6.6h-11.4l-3.4-6.6h11.5z" class="MineconLogo36"/>
  <path d="M132.9 157.2l3 6.6h-11.3l-3.3-6.6h11.6z" class="MineconLogo29"/>
  <path d="M144.4 157.2l2.9 6.6h-11.4l-3-6.6h11.5z" class="MineconLogo31"/>
  <path d="M155.1 157.2l2.7 6.6h-10.5l-2.9-6.6h10.7z" class="MineconLogo34"/>
  <path d="M86.6 157.2l3.9 6.6H78.9l-4.2-6.6h11.9z" class="MineconLogo30"/>
  <g class="MineconLogo10">
    <path fill="none" d="M197.6 163.7h9.9m0 0h9.8m0 0h9.8m0 0h9.8m0 0h9.9m0 0h9.8m-10.8-5.7h9.9m-19.9 0h10m-20 0h10m-20 0h10m-20 0h10m-20 0h10"/>
    <path d="M260.7 170.1l.9 6.1h-11.3l-1.1-6.1h11.5z" class="MineconLogo30"/>
    <path d="M249.2 170.1l1.1 6.1h-11l-1.3-6.1h11.2z" class="MineconLogo31"/>
    <path d="M204.5 170.1l1.9 6.1h-11l-2-6.1h11.1zm55.2-6.4l1 6.4h-11.5l-1.1-6.4h11.6z" class="MineconLogo30"/>
    <path d="M248.1 163.7l1.1 6.4H238l-1.3-6.4h11.4z" class="MineconLogo30"/>
    <path d="M236.7 163.7l1.3 6.4h-11.1l-1.6-6.4h11.4z" class="MineconLogo29"/>
    <path d="M214 163.7l1.7 6.4h-11.2l-1.9-6.4H214z" class="MineconLogo32"/>
    <path d="M202.6 163.7l1.9 6.4h-11.1l-2.1-6.4h11.3z" class="MineconLogo33"/>
    <path d="M191.3 163.7l2.1 6.4h-11.2l-2.3-6.4h11.4z" class="MineconLogo33"/>
    <path d="M189.1 157.2l2.2 6.5h-11.4l-2.4-6.5h11.6z" class="MineconLogo34"/>
    <path d="M200.6 157.2l2 6.5h-11.3l-2.2-6.5h11.5z" class="MineconLogo29"/>
    <path d="M212.2 157.2l1.8 6.5h-11.4l-2-6.5h11.6z" class="MineconLogo36"/>
    <path d="M223.8 157.2l1.5 6.5H214l-1.8-6.5h11.6z" class="MineconLogo34"/>
    <path d="M235.3 157.2l1.4 6.5h-11.4l-1.5-6.5h11.5z" class="MineconLogo32"/>
    <path d="M246.9 157.2l1.2 6.5h-11.4l-1.4-6.5h11.6z" class="MineconLogo29"/>
    <path d="M258.8 157.2l.9 6.5h-11.6l-1.2-6.5h11.9z" class="MineconLogo33"/>
  </g>
  <g class="MineconLogo10">
    <path d="M359.8 175.6l-.6 5.7h-11l.4-5.7h11.2zm-10.7-5.9l-.5 5.9h-11l.3-5.9h11.2z" class="MineconLogo29"/>
    <path d="M360.5 169.7l-.7 5.9h-11.2l.5-5.9h11.4zm-67.4 0l.5 5.9h-11l-.7-5.9h11.2z" class="MineconLogo30"/>
    <path d="M292.6 163.6l.5 6.1h-11.2l-.7-6.1h11.4z" class="MineconLogo32"/>
    <path d="M304 163.6l.3 6.1h-11.2l-.5-6.1H304z" class="MineconLogo36"/>
    <path d="M315.4 163.6l.1 6.1h-11.2l-.3-6.1h11.4z" class="MineconLogo32"/>
    <path d="M338.2 163.6l-.3 6.1h-11.2l.1-6.1h11.4z" class="MineconLogo31"/>
    <path d="M349.6 163.6l-.5 6.1h-11.2l.3-6.1h11.4z" class="MineconLogo34"/>
    <path d="M361.2 163.6l-.7 6.1h-11.4l.5-6.1h11.6z" class="MineconLogo32"/>
    <path d="M361.9 157.1l-.7 6.5h-11.6l.5-6.4 11.8-.1z" class="MineconLogo35"/>
    <path d="M350.1 157.2l-.5 6.4h-11.4l.3-6.4h11.6z" class="MineconLogo36"/>
    <path d="M315.3 157.2l.1 6.4H304l-.3-6.4h11.6z" class="MineconLogo34"/>
    <path d="M303.7 157.2l.3 6.4h-11.4l-.5-6.4h11.6z" class="MineconLogo29"/>
    <path d="M292.1 157.2l.5 6.4h-11.4l-.7-6.4h11.6z" class="MineconLogo36"/>
  </g>
  <path d="M338.5 157.2l-.3 6.4h-11.4l.1-6.4h11.6zm-11.7 6.4l-.1 6.1h-11.2l-.1-6.1h11.4z" class="MineconLogo29"/>
  <path d="M326.9 157.2l-.1 6.4h-11.4l-.1-6.4h11.6z" class="MineconLogo30"/>
  <g class="MineconLogo10">
    <path d="M449 170.3l-2.1 6.2h-11l1.9-6.2H449z" class="MineconLogo30"/>
    <path d="M460.1 170.3l-2.3 6.2h-10.9l2.1-6.2h11.1z" class="MineconLogo32"/>
    <path d="M426.5 170.3l-1.6 6.2h-11.1l1.5-6.2h11.2z" class="MineconLogo30"/>
    <path d="M392.9 170.3l-1.1 6.2h-10.9l.9-6.2h11.1z" class="MineconLogo32"/>
    <path d="M404.1 170.3l-1.3 6.2h-11l1.1-6.2h11.2z" class="MineconLogo36"/>
    <path d="M394 163.8l-1.1 6.5h-11.1l1-6.5H394z" class="MineconLogo29"/>
    <path d="M405.4 163.8l-1.3 6.5h-11.2l1.1-6.5h11.4z" class="MineconLogo32"/>
    <path d="M416.8 163.8l-1.5 6.5h-11.2l1.3-6.5h11.4z" class="MineconLogo30"/>
    <path d="M428.3 163.8l-1.8 6.5h-11.2l1.5-6.5h11.5z" class="MineconLogo32"/>
    <path d="M439.7 163.8l-1.9 6.5h-11.3l1.8-6.5h11.4z" class="MineconLogo29"/>
    <path d="M451.1 163.8l-2.1 6.5h-11.2l1.9-6.5h11.4z" class="MineconLogo35"/>
    <path d="M462.5 163.8l-2.4 6.5H449l2.1-6.5h11.4z" class="MineconLogo30"/>
    <path d="M465 157.2l-2.5 6.6h-11.4l2.2-6.6H465zm-69.8 0l-1.2 6.6h-11.2l1-6.6h11.4z" class="MineconLogo35"/>
    <path d="M406.8 157.2l-1.4 6.6H394l1.2-6.6h11.6z" class="MineconLogo35"/>
    <path d="M418.4 157.2l-1.6 6.6h-11.4l1.4-6.6h11.6z" class="MineconLogo32"/>
    <path d="M430.1 157.2l-1.8 6.6h-11.5l1.6-6.6h11.7z" class="MineconLogo29"/>
    <path d="M441.7 157.2l-2 6.6h-11.4l1.8-6.6h11.6z" class="MineconLogo36"/>
    <path d="M453.3 157.2l-2.2 6.6h-11.4l2-6.6h11.6z" class="MineconLogo32"/>
  </g>
  <path d="M559.5 170.3l-3.9 6.2H541l4.4-6.2h14.1z" class="MineconLogo30"/>
  <path d="M563.7 163.9l-4.2 6.4h-14.1l4.5-6.4h13.8z" class="MineconLogo29"/>
  <path d="M549.9 163.9l-4.5 6.4h-13.8l3.6-6.7 14.7.3z" class="MineconLogo35"/>
  <path d="M567.8 157.2l-4.1 6.7h-13.8l4.7-6.7h13.2z" class="MineconLogo36"/>
  <path d="M554.6 157.2l-4.7 6.7-14.7-.3 3.4-6.4h16z" class="MineconLogo32"/>
  <path d="M513.5 163.9l-3.3 6.5-14.7-.1 3.6-6.4h14.4z" class="MineconLogo35"/>
  <path d="M499.1 163.9l-3.4 6.5h-13.8l2.6-6.5h14.6z" class="MineconLogo29"/>
  <path d="M516.8 157.2l-3.3 6.7h-14.4l3.7-6.7h14z" class="MineconLogo30"/>
  <path d="M502.8 157.2l-3.7 6.7h-14.6l2.6-6.7h15.7z" class="MineconLogo32"/>
  <g class="MineconLogo39">
    <path d="M248.3 242.2c-1.1 0-2 .5-2 1.1s.9 1 2 .9l7.9-.3a2.67 2.67 0 0 1 2.5 1.9l4 15.3a18.77 18.77 0 0 0-1.5 2.6c-.2.8.1 1.4.6 1.4a3.42 3.42 0 0 0 2-1.6l1.4-1.9c.1-.2.3-.2.3-.4l-4.3-17.4a2.67 2.67 0 0 0-2.5-1.9z" class="MineconLogo40" transform="translate(-2.3 -4.6)"/>
  </g>
  <path d="M252.4 243.4c-.8 0-1.4.4-1.3.9s.9.8 1.7.8h4.4c.8 0 1.6-.4 1.7-1s-.4-1-1.3-.9z" class="MineconLogo29" transform="translate(-2.3 -4.6)"/>
  <path d="M251 242.2h-5.2c-.2 0-.3.1-.5.2l.3 3.5a.47.47 0 0 0 .6-.1l4.9-2.9c.6-.4.5-.7-.1-.7z" class="MineconLogo1" transform="translate(-2.3 -4.6)"/>
  <g class="MineconLogo39">
    <path d="M317.8 204.4l-2.7 1.1a4.53 4.53 0 0 1-1.6.3h-25.1c-.5 0-1.2-.1-1.7-.1l-2.4-.4a1 1 0 0 1-.8-1v-.7a.66.66 0 0 1 .8-.7l2.5.6a9.85 9.85 0 0 0 1.7.2h8.7a.79.79 0 0 0 .8-.8l-1-12.5c.1-.8 1-.9 1.8-.9h13.6a7.58 7.58 0 0 0 1.6-.3l2.8-1.2a.52.52 0 0 1 .8.5v.7a1.48 1.48 0 0 1-.8 1.2l-2.6 1.3a4.19 4.19 0 0 1-1.6.4l-12.7.1a.82.82 0 0 0-.8.9l.7 9.8a.82.82 0 0 0 .9.8l11.7-.5a5.08 5.08 0 0 0 1.7-.3l3.8-1" class="MineconLogo40" transform="translate(-2.3 -4.6)"/>
  </g>
  <path d="M311.6 206.3c.8 0 1.2.3.8.7a3.61 3.61 0 0 1-2.2.7l-18.5.1a3.64 3.64 0 0 1-2.2-.8c-.4-.5 0-.8.8-.8z" class="MineconLogo29" transform="translate(-2.3 -4.6)"/>
  <path d="M285.2 203.3l-.9-.5a3.23 3.23 0 0 0-2-.4l-.3 2.3a2.88 2.88 0 0 0 2.3.6l.5-.1c1.8-.3 1.9-1.1.4-1.9zm109.3 29.6l-3.5.3-1.3 3.6 5.2-2.5c2.2-1 2-1.7-.4-1.4zm31.3 1.2l-4-1.2c-1-.3-1.1.4-.1 1.6l4.4 5.3c.4.5.5.3.6 0l-.2-5.3a1 1 0 0 0-.7-.4z" class="MineconLogo1" transform="translate(-2.3 -4.6)"/>
  <g opacity=".6">
    <g opacity=".81">
      <path fill="#00b222" d="M356.2 246.4a6.53 6.53 0 0 0-2.4-.6h-10.1c-.7 0-1.2.4-1.2 1a1.2 1.2 0 0 0 1.2 1H354a4.89 4.89 0 0 1 2.3.8l2.4 1.8-.4-2.8z" opacity=".48" style="isolation:isolate" transform="translate(-2.3 -4.6)"/>
    </g>
  </g>
  <g class="MineconLogo39">
    <path d="M99.6 204.8c-.6.9-1.5 1-2.1.1a2.57 2.57 0 0 1 .3-3.1l.8-.9a5.18 5.18 0 0 1 3.3-1.6l21.6-1.2a12.63 12.63 0 0 1 3.9.4l2.1.6a2.07 2.07 0 0 1 1.7 2c-.1.8-1.1 1.2-2.2.9l-.9-.3a17.37 17.37 0 0 0-3.9-.5l-21 .9a4 4 0 0 0-3 1.8z" class="MineconLogo40" transform="translate(-2.3 -4.6)"/>
  </g>
  <path d="M110.5 204.4c-1.1 0-2-.4-2.1-1.1s.8-1.2 1.9-1.3l14.6-.6c1.1 0 2 .4 2.1 1.1s-.8 1.2-1.9 1.3z" class="MineconLogo29" transform="translate(-2.3 -4.6)"/>
  <path d="M97.8 202.8l2.2-.8c.4-.2.8.4.5.7l-1.4 1.8m36-.4l-8.2-3.7c-.8-.3-.7-.7.1-.8l8.6-1.3" class="MineconLogo1" transform="translate(-2.3 -4.6)"/>
  <g class="MineconLogo39">
    <path d="M178 265.2c-.6.2-1.4-.5-1.7-1.5l-.2-.8a16.89 16.89 0 0 0-1.7-3.6l-3.3-5.4a3.25 3.25 0 0 1 .1-3.3l.8-1.1c.6-.9 1.7-1.4 2.3-1.1s.6 1.3 0 2.1l-.3.4a3.25 3.25 0 0 0-.1 3.3l3.2 5.1a16.49 16.49 0 0 1 1.6 3.6c.2 1-.1 2.1-.7 2.3z" class="MineconLogo40" transform="translate(-2.3 -4.6)"/>
  </g>
  <path d="M177.7 261.9l3.8 4.7c.5.6.3 1.2-.6 1.1h-2.4a1.54 1.54 0 0 1-1.5-1.5l-.1-4.6m-5-10.5l1.7-10.9c.1-.8.7-1 1.3-.4l3.9 3.9a1.45 1.45 0 0 1 0 2.1l-6.4 6.4" class="MineconLogo1" transform="translate(-2.3 -4.6)"/>
  <g class="MineconLogo39">
    <path d="M140.6 174c-.3.5-1 .2-1.5-.7l-5.9-9.6a9.49 9.49 0 0 1-1.2-3.7l-.1-1.1a7.79 7.79 0 0 1 .9-3.7l2.6-4.1c.6-.9 1.3-1.6 1.6-1.6s.3 1-.1 2l-1.2 3.6a10.23 10.23 0 0 0-.5 3.9v.4a16.37 16.37 0 0 0 1 3.8l3.9 8a3.48 3.48 0 0 1 .5 2.8z" class="MineconLogo40" transform="translate(-2.3 -4.6)"/>
  </g>
  <path fill="#11491e" d="M134.5 154c-.2-.8-.5-.8-.8-.1l-2 5.8a2.78 2.78 0 0 0 .5 2.5l4.7 4.9c.6.6.8.4.6-.4l-1.4-4.8-.7-2.9z" transform="translate(-2.3 -4.6)"/>
  <path d="M134.5 156.3c0-.8-.3-.9-.7-.1l-1.3 2.6a2.69 2.69 0 0 0 .2 2.6l1.6 2.4c.4.7.7.6.6-.2l-.2-2.1c-.1-.8-.2-2.2-.2-3zm125.6 108.6l2-1.5c.7-.5 1.2-.2 1.1.6l-.1 3.1" class="MineconLogo1" transform="translate(-2.3 -4.6)"/>
  <path d="M352.8 247.5c.8 0 1.3.4 1.1.8a2.26 2.26 0 0 1-1.9.7h-3.7c-.8 0-1.5-.4-1.6-.9s.6-.9 1.4-.8z" class="MineconLogo29" transform="translate(-2.3 -4.6)"/>
  <path d="M360.1 250.3l-4.3-2.7c-.7-.4-.6-.9.2-1l5-.6" class="MineconLogo1" transform="translate(-2.3 -4.6)"/>
  <g class="MineconLogo39">
    <path d="M423.4 234.9c-.3.5-1.2.4-2-.2a6.82 6.82 0 0 0-3.5-1h-19.1a16.71 16.71 0 0 0-3.9.6l-.4.1c-1.1.3-2 .1-2.2-.4s.6-1.2 1.6-1.5l.8-.2a17.56 17.56 0 0 1 3.9-.6h19.8a8.34 8.34 0 0 1 3.7 1.1l.2.1c.9.6 1.4 1.5 1.1 2z" class="MineconLogo40" transform="translate(-2.3 -4.6)"/>
  </g>
  <g class="MineconLogo39">
    <path d="M511.1 187.3a2.56 2.56 0 0 1-2.4.3 15.83 15.83 0 0 0-3.8-.5h-24.5a4 4 0 0 1-3-1.7l-.4-.6c-.5-1-.7-2.1-.3-2.4s1.2-.2 1.8.4a5 5 0 0 0 3.1 1.1h24.2a6.74 6.74 0 0 1 3.6 1.2l.6.4c1 .5 1.5 1.4 1.1 1.8z" class="MineconLogo40" transform="translate(-2.3 -4.6)"/>
  </g>
  <path d="M316.7 204.4h1a2.56 2.56 0 0 0 1.9-.7l-.9-2.2a2.62 2.62 0 0 0-2.4.7l-.4.4c-1.2 1-.9 1.8.8 1.8z" class="MineconLogo1" transform="translate(-2.3 -4.6)"/>
  <path d="M311.3 191.8c.8 0 1.2.4.8.8a3.39 3.39 0 0 1-2.2.7h-9.4c-.8 0-1.6-.4-1.6-.9s.6-.9 1.4-.9z" class="MineconLogo29" transform="translate(-2.3 -4.6)"/>
  <path d="M509.5 188.2l1.2 1.1a4.13 4.13 0 0 0 3.1 1.3l1.4-3.7a4.89 4.89 0 0 0-3.6-1.9l-.9-.1c-2.8 0-3.3 1.4-1.2 3.3zm-30.8-5.9l-.8-1a3.77 3.77 0 0 0-2.1-1.5l-1.6 2.6a3.21 3.21 0 0 0 2.5 1.9l.7.2c2 .5 2.6-.5 1.3-2.2z" class="MineconLogo1" transform="translate(-2.3 -4.6)"/>
  <path d="M481 187.4c-.8 0-1.2.5-.7 1a2.93 2.93 0 0 0 2.3 1H503a3.1 3.1 0 0 0 2.3-1.2c.4-.7.1-1.2-.7-1.2zm-82.1 46.8c-.8 0-1.2.4-.9.8a3.12 3.12 0 0 0 2.1.8h15.7a2.76 2.76 0 0 0 2.1-.9c.3-.5-.1-.9-.9-.9z" class="MineconLogo29" transform="translate(-2.3 -4.6)"/>
  <g class="MineconLogo39">
    <path d="M519.3 250.2a2.28 2.28 0 0 1-2.6.6h-.2a17.56 17.56 0 0 0-3.9-.6h-17.3a4.52 4.52 0 0 1-3.2-1.6l-.3-.4c-.7-.9-.9-2-.5-2.5s1.2-.3 1.8.5a4.3 4.3 0 0 0 3.1 1.4h17.6a12.8 12.8 0 0 1 3.9.7l.4.2c1 .2 1.6 1 1.2 1.7z" class="MineconLogo40" transform="translate(-2.3 -4.6)"/>
  </g>
  <path d="M517.1 250.4l.9.8a3.56 3.56 0 0 0 2.3 1l1-2.7a3.56 3.56 0 0 0-2.7-1.4h-.7c-1.9-.1-2.3.9-.8 2.3zm-24-4.2l-.6-.8a3.18 3.18 0 0 0-1.8-1.2l-1.3 2.1a3 3 0 0 0 2 1.6l.6.1c1.7.4 2.2-.4 1.1-1.8z" class="MineconLogo1" transform="translate(-2.3 -4.6)"/>
  <path d="M495.3 249.5c-.8 0-1.2.5-.9 1.1a2.59 2.59 0 0 0 2.1 1.1H512a2.53 2.53 0 0 0 2.1-1.3.88.88 0 0 0-.9-1.3z" class="MineconLogo29" transform="translate(-2.3 -4.6)"/>
  <g class="MineconLogo39">
    <path d="M557.4 152.7c-.3-.7-.6-.7-.6.1l.4 10.4c0 .8.4.9.7.2l1.6-3.3a3.19 3.19 0 0 0 0-2.7z" class="MineconLogo40" transform="translate(-2.3 -4.6)"/>
  </g>
  <path d="M561.2 159.2c-.2-.8-.6-.8-.8-.1l-2.7 7.3c-.3.8-.1.9.5.3l2.8-3.1a3.09 3.09 0 0 0 .7-2.6z" class="MineconLogo29" transform="translate(-2.3 -4.6)"/>
  <path d="M557.4 155.6c-.3-.7-.6-.7-.6.1l.4 10.4c0 .8.4.9.7.2l1.6-3.3a3.19 3.19 0 0 0 0-2.7z" class="MineconLogo1" transform="translate(-2.3 -4.6)"/>
  <path d="M313.8 179.6c-.8 0-1.2.3-.9.7a3.1 3.1 0 0 0 2.1.7h17a2.76 2.76 0 0 0 2.1-.9c.4-.5 0-.9-.9-.8zm122.5 0c-.8 0-1.2.3-.8.7a3.61 3.61 0 0 0 2.2.7h19.4a3.17 3.17 0 0 0 2.2-.9c.4-.5 0-.9-.8-.9zm-52.3 0c-.8 0-1.2.3-.8.7a3.61 3.61 0 0 0 2.2.7h19.4a3.17 3.17 0 0 0 2.2-.9c.4-.5 0-.9-.8-.9zm-70.2 44.1c-.8 0-1.2.3-.9.7a3.1 3.1 0 0 0 2.1.7h17a2.76 2.76 0 0 0 2.1-.9c.3-.5 0-.9-.9-.8zm173.2-.4c-.8 0-1.2.4-.9.9a2.86 2.86 0 0 0 2.1.8h16.9a2.82 2.82 0 0 0 2.1-1c.3-.5 0-1-.9-1zm-259.4.5c-.8 0-1.2.3-.9.7a3.1 3.1 0 0 0 2.1.7h15.8a2.76 2.76 0 0 0 2.1-.9c.3-.5-.1-.9-.9-.8zm-86.3-.3c-.8 0-1.1.4-.6.8a3.85 3.85 0 0 0 2.4.8h24.4a3.49 3.49 0 0 0 2.4-1c.5-.5.2-1-.6-1zM118 179.1c-.8 0-.9.3-.2.7l.2.1a6.81 6.81 0 0 0 2.8.7h40a6.08 6.08 0 0 0 2.7-.8l.3-.2c.7-.5.6-.8-.3-.8zm98.6-.2c-.8 0-1.2.4-.9.8a3.12 3.12 0 0 0 2.1.8h15a2.76 2.76 0 0 0 2.1-.9c.3-.5-.1-.9-.9-.9zm-75.3 80.5c-.8 0-1 .3-.5.7a4.9 4.9 0 0 0 2.5.7h28.2a4.47 4.47 0 0 0 2.5-.9c.6-.5.3-.9-.5-.9zm38-.1c-.8 0-1.3.4-.9.8a2.82 2.82 0 0 0 2 .7h14a2.53 2.53 0 0 0 2-.9c.3-.5-.1-.9-.9-.9zm38.7.1c-.8 0-1.2.4-.9.8a2.92 2.92 0 0 0 2.1.8h14.4a2.93 2.93 0 0 0 2.1-.9c.3-.5-.1-.9-.9-.9zm77.5-.2c-.8 0-1.2.4-.9.8a2.92 2.92 0 0 0 2.1.8h14.6a2.76 2.76 0 0 0 2.1-.9c.3-.5-.1-.9-.9-.9zm38 0c-.8 0-1.2.4-.9.8a3.12 3.12 0 0 0 2.1.8h15.7a2.76 2.76 0 0 0 2.1-.9c.3-.5-.1-.9-.9-.9zm-77.4.2c-.8 0-1.4.4-1.3.8s.9.8 1.7.8h3.8c.8 0 1.6-.4 1.7-.9s-.5-.9-1.3-.9zm11 0c-.8 0-1.4.4-1.2.8s.9.8 1.8.8h5.3a2 2 0 0 0 1.8-.9c.2-.5-.4-.9-1.2-.9zm82.5-55.8c-.8 0-1.4.3-1.2.6a2.54 2.54 0 0 0 1.8.6h7a2.17 2.17 0 0 0 1.8-.7c.2-.4-.4-.7-1.2-.7zm42.8 55.5c-.8 0-1.2.5-.9 1a2.82 2.82 0 0 0 2.1 1h15.7a2.44 2.44 0 0 0 2.1-1.2c.3-.7-.1-1.2-.9-1.2zm58.3 0c-.8 0-1.2.5-.9 1a2.82 2.82 0 0 0 2.1 1h15.7a2.44 2.44 0 0 0 2.1-1.2c.3-.7-.1-1.2-.9-1.2zm40.3 0c-.8 0-1.2.5-.9 1a2.6 2.6 0 0 0 2 1h14.1a2.27 2.27 0 0 0 2-1.2c.3-.7-.1-1.2-.9-1.2z" class="MineconLogo29" transform="translate(-2.3 -4.6)"/>
  <path d="M91.3 204l9.3-2.9c2.3-.7 2.8.1 1.1 1.8l-4.9 4.9" class="MineconLogo1" transform="translate(-2.3 -4.6)"/>
  <path d="M103.8 203.7c-1.6.6-2.8 1.6-2.5 2.2s1.7.7 3.2.3 2.6-1.4 2.5-2.2-1.5-.9-3.2-.3z" class="MineconLogo29" transform="translate(-2.3 -4.6)"/>
  <path d="M241.2 133.8l-5.9-18.3h-2.4l-.3-.7-1.9 19h-38.9l-1.8-3.2-.4 3.2h-38.3l-2.2-3.2-.6 3.2h-37.7l-16.2-18.3h-9.3l-2.1-2.3-5.4 20.6H41L0 99.3 34.1 0H72l16.8 23.6 1.8-6.8H101L105.3 0h38.8l1.8 3.5.8-3.5h39.5l1.3 3.4.6-3.4h40.1l4.6 16.8h3.9l.4 1.5L238.8 0H280l5.7 43-4.5 90.8h-40z" class="MineconLogo46"/>
  <path d="M567.6 138.4l-2.8-10.6-10.3 10.6h-37.4l-.7-3.1-2.5 3.1h-78.4l-.4-3-1.4 3H364l-4.4-90.8 5.6-43h71.6l.4 3.3 1.1-3.3h80.5l.8 3.6 2-3.6h38.5l3.7 13.1 9.3-13.1H611l34.2 99.3-41 34.5zM427.9 76.2l-1-7.8-.4 1.1h-13.9l.6 6.8h14.7z" class="MineconLogo46" transform="translate(-2.3 -4.6)"/>
  <path d="M281.3 133.8l-5.4-36.1L280.2 0H363l1 22.8-4.6 42h-5.3l-.6 6.8h12.6l1.1 26.1-5.4 36.1h-80.5zM99.7 63l1-4-6.8-9.5 1.6-6.3L69 5.8l-5.2 16.9 7.5 9.9-2.2 7.6 15.8 20.2-4.6 17.1h-.4L63.7 58.4H52.8l-11.9 39 32.4 30.5 6.9-26.5 7.7 8.3h19.7l4.1-17.6h9.6L99.7 63zm20.7 34.4l23.2 30.5 15.9-84.7-19-37.4-20.1 91.6zm46.2 0l17.9 30.5 12.3-84.7-14.7-37.4-15.5 91.6zm66.7-46.8l7 24.6 1.4-16.2-9.5-36.3-1.1 10-7.4-26.9-2 16.9L232.4 59l.9-8.4zm.9 26.9l-5.8-19.1h-10.9l-4.6 39 12.5 30.5 3.6-35.8h2.2l5.9 17.6h9.9l-9.6-32.2h-3.2z" class="MineconLogo46"/>
  <path d="M269.7 97.4l5.9 30.5 4.2-84.7-4.9-37.4-5.2 91.6zm326.4-19.9H585l-5.6-19.1h-9.6l14.9-18.2-10.6-34.4-26.5 37.4 8.1 31-12.2 15L523 5.8l-21.1 37.4 17.7 84.7 25.9-30.5-1.3-5.3h6.6l4.4 17.6h9.9l4.8 18.2 32.3-30.5-6.1-19.9zM474.3 22.7L457.9 59h9.3l8.5 50.7 19.6-32.2-10.6-54.8h-10.4zM428 43.2l10.5 84.7 15.3-30.5-13.3-91.6L428 43.2zm-27.5-20.5L392.1 59H420l11.8-36.3h-31.3zm-37.1 20.5l4.1 84.7 6-30.5-5.2-91.6-4.9 37.4zm-47.2-3l.3 18.2h-.4l-.1 19.1.6 32.2.1-17.6h29l3-33.1h5.5l3.9-36.3h-41.7l-.2 17.5z" class="MineconLogo46"/>
  <path d="M6.8 97.4l36.3 30.5h30.2L40.9 97.4H6.8z" class="MineconLogo47"/>
  <path d="M6.8 97.4l36.3 30.5h30.2L40.9 97.4H6.8zm125.7 0l21.8 30.5h30.2l-17.9-30.5h-34.1z" class="MineconLogo47"/>
  <path d="M132.5 97.4l21.8 30.5h30.2l-17.9-30.5h-34.1zm46.3 0l16.5 30.5h30.1l-12.5-30.5h-34.1z" class="MineconLogo47"/>
  <path d="M178.8 97.4l16.5 30.5h30.1l-12.5-30.5h-34.1zm56.8 0l9.9 30.5h30.1l-5.9-30.5h-34.1z" class="MineconLogo47"/>
  <path d="M235.6 97.4l9.9 30.5h30.1l-5.9-30.5h-34.1zm309.9 0l-25.9 30.5h30.2l29.7-30.5h-34z" class="MineconLogo47"/>
  <path d="M545.5 97.4l-25.9 30.5h30.2l29.7-30.5h-34zm56.7 0l-32.3 30.5H600l36.3-30.5h-34.1z" class="MineconLogo47"/>
  <path d="M602.2 97.4l-32.3 30.5H600l36.3-30.5h-34.1zm-148.4 0l-15.3 30.5h70.4l24.4-30.5h-79.5z" class="MineconLogo47"/>
  <path d="M453.8 97.4l-15.3 30.5h70.4l24.4-30.5h-79.5zm-80.3 0l-6 30.5h60.3l13.8-30.5h-68.1z" class="MineconLogo47"/>
  <path d="M373.5 97.4l-6 30.5h60.3l13.8-30.5h-68.1zm-87.1 30.5h70.3l4.6-30.5h-79.5l4.6 30.5z" class="MineconLogo47"/>
  <path d="M286.4 127.9h70.3l4.6-30.5h-79.5l4.6 30.5zM58.1 77.2l29.8 32.3 19.7.2-27.3-32.5H58.1z" class="MineconLogo47"/>
  <path d="M58.1 77.2l29.8 32.3 19.7.2-27.3-32.5H58.1z" class="MineconLogo47"/>
  <path d="M86.3 97.4l27.1 30.5h30.2l-23.2-30.5H86.3z" class="MineconLogo47"/>
  <path d="M86.3 97.4l27.1 30.5h30.2l-23.2-30.5H86.3zm-79.5 0l36.3 30.5h30.2L40.9 97.4H6.8zm125.7 0l21.8 30.5h30.2l-17.9-30.5h-34.1zm46.3 0l16.5 30.5h30.1l-12.5-30.5h-34.1zm56.8 0l9.9 30.5h30.1l-5.9-30.5h-34.1zm309.9 0l-25.9 30.5h30.2l29.7-30.5h-34zm56.7 0l-32.3 30.5H600l36.3-30.5h-34.1zm-148.4 0l-15.3 30.5h70.4l24.4-30.5h-79.5zm-80.3 0l-6 30.5h60.3l13.8-30.5h-68.1zm-87.1 30.5h70.3l4.6-30.5h-79.5l4.6 30.5z" class="MineconLogo47"/>
  <path fill="url(#MineconLogoGradient14)" d="M58.1 77.2l29.8 32.3 19.7.2-27.3-32.5H58.1z"/>
  <path d="M86.3 97.4l27.1 30.5h30.2l-23.2-30.5H86.3z" class="MineconLogo47"/>
  <path d="M109.9 6.6l-4.4 14.7H95.1L90.4 39H69.1l5.2-17.7H63.8L69 6.6H38.3L6.8 97.8h34.1l11.9-38.2h10.9l-5.6 17.6h22.2l5.2-17.6h10.8l-10 38.2h34.1l20.1-91.2h-30.6z" class="MineconLogo49"/>
  <path d="M151.5 6.6l-19 91.2h34.1l15.5-91.2h-30.6z" class="MineconLogo50"/>
  <path d="M241 39h-10.7l1.9-17.7h-10.5l2-14.7h-30.6l-14.3 91.2h34.1l4.6-38.2h10.9l-2.1 17.6h11.1l-1.8 20.6h34.1l5.2-91.2h-30.7L241 39z" class="MineconLogo51"/>
  <path d="M604.8 6.6h-30.7L584.7 39H574l-5.1-17.7h-10.5l-4.7-14.7H523l22.5 91.2h34l-11-38.2h10.9l5.6 17.6h11.1l6.1 20.6h34.1L604.8 6.6z" class="MineconLogo52"/>
  <path d="M442.8 11.2l13.2 91.1h79.5l-21.2-91.1zm43.7 70.6l-10-55.9H487l10.7 55.9z" class="MineconLogo53" transform="translate(-2.3 -4.6)"/>
  <path d="M405.7 77.2l-5.2-55.9h31.3l-2.2-14.7h-61.3l5.2 91.2h68.1L439 77.2h-33.3z" class="MineconLogo54"/>
  <path d="M316 77.2l.1-17.6h32.6l-.5-20.6h-32l.2-17.7h41.7l-.8-14.7h-71.5l-4 91.2h79.5l-.8-20.6H316z" class="MineconLogo55"/>
  <path d="M109.9 6.6l-4.4 14.7H95.1L90.4 39H69.1l5.2-17.7H63.8L69 6.6H38.3L6.8 97.8h34.1l11.9-38.2h10.9l-5.6 17.6h22.2l5.2-17.6h10.8l-10 38.2h34.1l20.1-91.2h-30.6z" class="MineconLogo49"/>
  <path d="M151.5 6.6l-19 91.2h34.1l15.5-91.2h-30.6z" class="MineconLogo50"/>
  <path d="M241 39h-10.7l1.9-17.7h-10.5l2-14.7h-30.6l-14.3 91.2h34.1l4.6-38.2h10.9l-2.1 17.6h11.1l-1.8 20.6h34.1l5.2-91.2h-30.7L241 39z" class="MineconLogo51"/>
  <path d="M604.8 6.6h-30.7L584.7 39H574l-5.1-17.7h-10.5l-4.7-14.7H523l22.5 91.2h34l-11-38.2h10.9l5.6 17.6h11.1l6.1 20.6h34.1L604.8 6.6z" class="MineconLogo52"/>
  <path d="M442.8 11.2l13.2 91.1h79.5l-21.2-91.1zm43.7 70.6l-10-55.9H487l10.7 55.9z" class="MineconLogo53" transform="translate(-2.3 -4.6)"/>
  <path d="M405.7 77.2l-5.2-55.9h31.3l-2.2-14.7h-61.3l5.2 91.2h68.1L439 77.2h-33.3z" class="MineconLogo54"/>
  <path d="M316 77.2l.1-17.6h32.6l-.5-20.6h-32l.2-17.7h41.7l-.8-14.7h-71.5l-4 91.2h79.5l-.8-20.6H316z" class="MineconLogo55"/>
  <g opacity=".34">
    <path d="M109.9 6.6l-4.4 14.7H95.1L90.4 39H69.1l5.2-17.7H63.8L69 6.6H38.3L6.8 97.8h34.1l11.9-38.2h10.9l-5.6 17.6h22.2l5.2-17.6h10.8l-10 38.2h34.1l20.1-91.2h-30.6z" class="MineconLogo57"/>
    <path d="M151.5 6.6l-19 91.2h34.1l15.5-91.2h-30.6z" class="MineconLogo58"/>
    <path d="M241 39h-10.7l1.9-17.7h-10.5l2-14.7h-30.6l-14.3 91.2h34.1l4.6-38.2h10.9l-2.1 17.6h11.1l-1.8 20.6h34.1l5.2-91.2h-30.7L241 39z" class="MineconLogo59"/>
    <path d="M604.8 6.6h-30.7L584.7 39H574l-5.1-17.7h-10.5l-4.7-14.7H523l22.5 91.2h34l-11-38.2h10.9l5.6 17.6h11.1l6.1 20.6h34.1L604.8 6.6z" class="MineconLogo60"/>
    <path d="M442.8 11.2l13.2 91.1h79.5l-21.2-91.1zm43.7 70.6l-10-55.9H487l10.7 55.9z" class="MineconLogo61" transform="translate(-2.3 -4.6)"/>
    <path d="M405.7 77.2l-5.2-55.9h31.3l-2.2-14.7h-61.3l5.2 91.2h68.1L439 77.2h-33.3z" class="MineconLogo62"/>
    <path d="M316 77.2l.1-17.6h32.6l-.5-20.6h-32l.2-17.7h41.7l-.8-14.7h-71.5l-4 91.2h79.5l-.8-20.6H316z" class="MineconLogo63"/>
    <path d="M109.9 6.6l-4.4 14.7H95.1L90.4 39H69.1l5.2-17.7H63.8L69 6.6H38.3L6.8 97.8h34.1l11.9-38.2h10.9l-5.6 17.6h22.2l5.2-17.6h10.8l-10 38.2h34.1l20.1-91.2h-30.6z" class="MineconLogo57"/>
    <path d="M151.5 6.6l-19 91.2h34.1l15.5-91.2h-30.6z" class="MineconLogo58"/>
    <path d="M241 39h-10.7l1.9-17.7h-10.5l2-14.7h-30.6l-14.3 91.2h34.1l4.6-38.2h10.9l-2.1 17.6h11.1l-1.8 20.6h34.1l5.2-91.2h-30.7L241 39z" class="MineconLogo59"/>
    <path d="M604.8 6.6h-30.7L584.7 39H574l-5.1-17.7h-10.5l-4.7-14.7H523l22.5 91.2h34l-11-38.2h10.9l5.6 17.6h11.1l6.1 20.6h34.1L604.8 6.6z" class="MineconLogo60"/>
    <path d="M442.8 11.2l13.2 91.1h79.5l-21.2-91.1zm43.7 70.6l-10-55.9H487l10.7 55.9z" class="MineconLogo61" transform="translate(-2.3 -4.6)"/>
    <path d="M405.7 77.2l-5.2-55.9h31.3l-2.2-14.7h-61.3l5.2 91.2h68.1L439 77.2h-33.3z" class="MineconLogo62"/>
    <path d="M316 77.2l.1-17.6h32.6l-.5-20.6h-32l.2-17.7h41.7l-.8-14.7h-71.5l-4 91.2h79.5l-.8-20.6H316z" class="MineconLogo63"/>
  </g>
  <path fill="#eeeded" d="M13.7 101.2c-2.4 0-4.2.5-3.9 1s2.4.9 4.9.9h5.7c2.4 0 4.6-.5 4.9-1s-1.5-1-3.9-.9zm20.7 0c-2.4.1-4.2.5-4 1s2.3.9 4.8.9h2.6c2.4 0 4.6-.5 4.8-1s-1.6-1-4-.9zm58.6 0c-2.4 0-4 .4-3.4.9s2.9.9 5.4.9h21.4c2.4 0 4.8-.5 5.4-1s-1-1-3.4-1zm46.3 0c-2.4 0-4 .4-3.4.9s3 .9 5.4.9h21.4c2.4 0 4.8-.5 5.4-1s-1-1-3.4-1zm46.4 0c-2.4.1-4.2.5-4 1s2.4.9 4.8.9h2.7c2.4 0 4.6-.5 4.8-1s-1.6-1-4-.9zm15.7 0c-2.4 0-4.2.5-3.9.9s2.5.9 4.9.9h7.6c2.4 0 4.6-.5 4.9-1s-1.5-1-3.9-1zm40.9 0c-2.4 0-4 .4-3.4.9s3 .9 5.4.9h21.4c2.4 0 4.8-.5 5.4-1s-1-1-3.4-1zm46.2 0c-2.4 0-4.2.5-3.9.9s2.5.9 4.9.9h7.9c2.4 0 4.6-.5 4.9-1s-1.5-1-3.9-1zm22.8.1c-2.4 0-3.7.4-2.8.9a20.29 20.29 0 0 0 6 .9H356a16.32 16.32 0 0 0 6-1c.9-.5-.4-1-2.8-1zm69.1 0c-2.4 0-3.5.4-2.5.9a19.49 19.49 0 0 0 6.3.8l51.4-.2a16.73 16.73 0 0 0 6.3-1.1c1.1-.6-.1-1-2.5-1zm80.3 0c-2.4 0-3.4.4-2.1.9a21.6 21.6 0 0 0 6.7.8l61.6-.2a19.22 19.22 0 0 0 6.7-1.1c1.2-.6.3-1-2.2-1zm91.6 0c-2.4 0-4 .5-3.4.9a12.54 12.54 0 0 0 5.4.8l21.3-.1c2.4 0 4.8-.5 5.4-1s-1-1-3.4-1zm56.7 0c-2.4.1-4.2.5-3.9 1s2.5.9 4.9.8h6.2c2.4 0 4.6-.5 4.9-1s-1.5-1-3.9-.9zm21.1-.1c-2.4.1-4.2.5-4 1s2.3.9 4.8.8h2.6c2.4 0 4.6-.5 4.8-1s-1.6-1-4-.9z" transform="translate(-2.3 -4.6)"/>
  <path fill="#e0dbd6" d="M64.8 81c-2.4 0-4.1.4-3.8.9s2.6.9 5 .9h11.2c2.4 0 4.7-.5 5-1s-1.3-1-3.8-1zm159.3-18.8c-2.4.1-4.2.5-4.1 1s2.3.9 4.7.9h1.5c2.4 0 4.6-.5 4.7-1s-1.6-1-4.1-.9zm9.4 17.8c-2.4.1-4.2.5-4.1 1s2.3.9 4.7.9h1.5c2.4 0 4.6-.5 4.7-1s-1.6-1-4.1-.9zm89.3-17.7c-2.4 0-4 .4-3.5.9s2.9.9 5.3.9h19.9c2.4 0 4.8-.5 5.3-1s-1.1-1-3.5-1zm0-36.9c-2.4.1-4.2.5-4 1s2.4.9 4.8.9h4.3c2.4 0 4.6-.5 4.8-1s-1.6-1-4-.9zm18.3.1c-2.4 0-4.1.5-3.7.9s2.7.9 5.1.9h12.6c2.4 0 4.7-.5 5.1-1s-1.3-1-3.7-1zm66.3-1c-2.4 0-4 .4-3.5.9s2.8.9 5.3.9h18.5c2.4 0 4.8-.5 5.3-1s-1.1-1-3.5-1zm73.6-.1c-2.4.1-4.3.5-4.1 1s2.3.9 4.7.9h.5c2.4 0 4.5-.5 4.7-1s-1.7-1-4.1-.9zm94.3 37.8c-2.4.1-4.3.5-4.1 1s2.3.9 4.7.9h.5c2.4 0 4.5-.5 4.7-1s-1.7-1-4.1-.9zm16.1 17.6c-2.4.1-4.3.5-4.1 1s2.3.9 4.7.9h.5c2.4 0 4.5-.5 4.7-1s-1.7-1-4.1-.9zM58.6 62.2c-2.4.1-4.2.5-4.1 1s2.3.9 4.7.9h1.4c2.4 0 4.5-.5 4.7-1s-1.7-1-4.1-.9zm32.4 0c-2.4.1-4.2.5-4.1 1s2.3.9 4.7.9H93c2.4 0 4.6-.5 4.7-1s-1.6-1-4.1-.9z" transform="translate(-2.3 -4.6)"/>
  <path d="M196 94.1l-1.1 4.7a31.62 31.62 0 0 0-.5 8.7v.2c.3 2.4 1 2.6 1.6.4l1.1-4m-18-56.6l-3.7.9c-2 .5-2.1 1.2-.1 1.6l3.6.7M94.7 73h4.4c2.4 0 2.5.5.1 1.1l-5.8 1.6m-64.8 21L27 99.4a5.25 5.25 0 0 0 .7 5.5c1.2 1.5 2.2 1.6 2.2.1v-2.7m41.2-85.2h-2.9c-1.6 0-1.6.7 0 1.5l2.9 1.5m68.8 12.2l-4 1.4c-2.2.7-2 1.6.4 1.8l4.7.5m135.9 22.3h-4.4c-2.4 0-2.5.7-.3 1.6l5.7 2.2m24.8 41l.7-2.5c.4-1.4 1.5-1.5 2.3-.3a12 12 0 0 1 1.2 6.4l-.4 4.2m101.9-73.2l-5.1 2.4c-2.2 1-2 2.2.4 2.6l5.5.9M371 87.7h6.3c2.4 0 2.8 1.2.8 2.6l-5.4 3.9m-40.6-63.6l1.3-4.4c.7-2.3 1.7-2.7 2.3-.9l1.1 3.3m205.3 61l3.4-1c1.9-.5 2.6.5 1.7 2.2l-1.7 3.2m-92.1-3.1l2.9 1.3c1.6.7 1.6 2.3 0 3.4l-2.9 2.1m32.3-60h4.4c2.4 0 2.6.9.4 1.9l-4.9 2.4m90.5-10.9l-4.9 2c-2.2.9-2.1 1.7.3 1.7h5.3m44.5 63l.1 2.1c.1 1.2-.9 3.4-2.1 4.9s-.5 1.8 1.6.7l4.7-2.5" class="MineconLogo46" transform="translate(-2.3 -4.6)"/>
  <path d="M26.4 104.5c-1.2-1.2-1.9-1-1.5.6s2.4 3.5 4.4 4.4 2.8.6 1.5-.6zm165.3.8v1.5a6.58 6.58 0 0 0 2 3.4c1.1 1 1.7.9 1.3-.2l-.6-2.1m110.1 2.6c-.9-.7-.7.5.4 2.7 0 0 .7 1.5 1.2 1.1a2.34 2.34 0 0 0 .7-.7c1.3-2 1.7-3.3.8-2.8a2.91 2.91 0 0 1-3.1-.3z" class="MineconLogo66" transform="translate(-2.3 -4.6)"/>
  <path d="M452 89.5l-3.8 5.6 2.9-8.1.9 2.5zm-80.7-5.6l-1.9 7.1 2.9-4.7-1-2.4zM332.9 24l-.8 6.4 3.3-5-2.5-1.4zm153 10l-1.2 7.7 1.9-3.9-.7-3.8zm54.4 50.9l-2.8 8.8 4.2-5.6-1.4-3.2z" class="MineconLogo47"/>
  <path d="M623.2 106.1c.9-.8-.2-.6-2.3.4s-2.8 1.7-1.6 1.4a9.9 9.9 0 0 0 3.9-1.8z" class="MineconLogo66" transform="translate(-2.3 -4.6)"/>
</svg>