<svg id="Lager_1" data-name="Lager 1" xmlns="http://www.w3.org/2000/svg" xmlns:xlink="http://www.w3.org/1999/xlink" viewBox="0 0 642.9 266.3"><defs><style>.cls-1{fill:#02261c;}.cls-2{fill:url(#Namnlös_övertoning_6);}.cls-3{fill:url(#Namnlös_övertoning_6-2);}.cls-4{fill:url(#Namnlös_övertoning_6-3);}.cls-5{fill:url(#Namnlös_övertoning_6-4);}.cls-6{fill:url(#Namnlös_övertoning_6-5);}.cls-7{fill:url(#Namnlös_övertoning_6-6);}.cls-8{fill:#3b80e2;}.cls-9{fill:#b9c698;}.cls-10,.cls-44{isolation:isolate;}.cls-11{fill:#21477e;}.cls-12{fill:#254f8c;}.cls-13{fill:#25508e;}.cls-14{fill:#244e8a;}.cls-15{fill:#25508d;}.cls-16{fill:#234c87;}.cls-17{fill:#0a4a2a;}.cls-18{fill:#9aec8e;}.cls-19{fill:#49ad53;}.cls-20{fill:#1e7e3c;}.cls-21{fill:url(#Namnlös_övertoning_13);}.cls-22{fill:url(#Namnlös_övertoning_13-2);}.cls-23{fill:url(#Namnlös_övertoning_13-3);}.cls-24{fill:#1e4071;}.cls-25{fill:url(#Namnlös_övertoning_13-4);}.cls-26{fill:url(#Namnlös_övertoning_13-5);}.cls-27{fill:#24202f;}.cls-28{fill:#878787;}.cls-29{fill:#98cb7e;}.cls-30{fill:#6ab54b;}.cls-31{fill:#7bc163;}.cls-32{fill:#58a145;}.cls-33{fill:#73bb58;}.cls-34{fill:#65b047;}.cls-35{fill:#71ba54;}.cls-36{fill:#68b54a;}.cls-37{fill:none;}.cls-38{fill:#737474;}.cls-39{opacity:0.5;}.cls-40,.cls-44{fill:#00b222;}.cls-41{fill:#200008;}.cls-42{opacity:0.6;}.cls-43{opacity:0.81;}.cls-44{opacity:0.48;}.cls-45{fill:#11491e;}.cls-46{fill:#010101;}.cls-47{fill:#2a282b;}.cls-48{fill:url(#Namnlös_övertoning_14);}.cls-49{fill:url(#Namnlös_övertoning_28);}.cls-50{fill:url(#Namnlös_övertoning_28-2);}.cls-51{fill:url(#Namnlös_övertoning_28-3);}.cls-52{fill:url(#Namnlös_övertoning_28-4);}.cls-53{fill:url(#Namnlös_övertoning_28-5);}.cls-54{fill:url(#Namnlös_övertoning_28-6);}.cls-55{fill:url(#Namnlös_övertoning_28-7);}.cls-56{opacity:0.34;}.cls-57{fill:url(#Namnlös_övertoning_42);}.cls-58{fill:url(#Namnlös_övertoning_42-2);}.cls-59{fill:url(#Namnlös_övertoning_42-3);}.cls-60{fill:url(#Namnlös_övertoning_42-4);}.cls-61{fill:url(#Namnlös_övertoning_42-5);}.cls-62{fill:url(#Namnlös_övertoning_42-6);}.cls-63{fill:url(#Namnlös_övertoning_42-7);}.cls-64{fill:#eeeded;}.cls-65{fill:#e0dbd6;}.cls-66{fill:#5b5659;}</style><linearGradient id="Namnlös_övertoning_6" x1="120.04" y1="130.72" x2="122.29" y2="176.47" gradientTransform="matrix(1, 0, 0, -1, -2.3, 277.4)" gradientUnits="userSpaceOnUse"><stop offset="0" stop-color="#47b34f"/><stop offset="1" stop-color="#082302"/></linearGradient><linearGradient id="Namnlös_övertoning_6-2" x1="220.58" y1="122.6" x2="221.99" y2="177.74" xlink:href="#Namnlös_övertoning_6"/><linearGradient id="Namnlös_övertoning_6-3" x1="506.87" y1="122.09" x2="496.54" y2="168.76" xlink:href="#Namnlös_övertoning_6"/><linearGradient id="Namnlös_övertoning_6-4" x1="558.07" y1="123.57" x2="543.57" y2="177.07" xlink:href="#Namnlös_övertoning_6"/><linearGradient id="Namnlös_övertoning_6-5" x1="427.51" y1="127.12" x2="425.51" y2="159.78" xlink:href="#Namnlös_övertoning_6"/><linearGradient id="Namnlös_övertoning_6-6" x1="323.5" y1="118.84" x2="323.5" y2="179.1" xlink:href="#Namnlös_övertoning_6"/><linearGradient id="Namnlös_övertoning_13" x1="324.74" y1="81.61" x2="326.49" y2="27.11" gradientTransform="matrix(1, 0, 0, -1, 0, 282)" gradientUnits="userSpaceOnUse"><stop offset="0" stop-color="#80c165"/><stop offset="1" stop-color="#47b34f"/></linearGradient><linearGradient id="Namnlös_övertoning_13-2" x1="224.7" y1="102.53" x2="243.45" y2="24.53" xlink:href="#Namnlös_övertoning_13"/><linearGradient id="Namnlös_övertoning_13-3" x1="135.57" y1="85.76" x2="167.57" y2="25.76" gradientTransform="matrix(1, 0, 0, -1, -2.3, 277.4)" xlink:href="#Namnlös_övertoning_13"/><linearGradient id="Namnlös_övertoning_13-4" x1="421.83" y1="100.45" x2="407.58" y2="42.7" gradientTransform="matrix(1, 0, 0, -1, -2.3, 277.4)" xlink:href="#Namnlös_övertoning_13"/><linearGradient id="Namnlös_övertoning_13-5" x1="515.03" y1="84.63" x2="492.03" y2="24.63" gradientTransform="matrix(1, 0, 0, -1, -2.3, 277.4)" xlink:href="#Namnlös_övertoning_13"/><linearGradient id="Namnlös_övertoning_14" x1="85.15" y1="-615.48" x2="85.15" y2="-583.02" gradientTransform="translate(-2.3 692.68)" gradientUnits="userSpaceOnUse"><stop offset="0" stop-color="#2a282b"/><stop offset="0.02" stop-color="#272528"/><stop offset="0.14" stop-color="#161517"/><stop offset="0.3" stop-color="#0a0a0a"/><stop offset="0.51" stop-color="#030303"/><stop offset="1" stop-color="#010101"/></linearGradient><linearGradient id="Namnlös_övertoning_28" x1="75.95" y1="-594.88" x2="75.95" y2="-686.08" gradientTransform="translate(-2.3 692.68)" gradientUnits="userSpaceOnUse"><stop offset="0" stop-color="#dacecb"/><stop offset="1" stop-color="#a99f9c"/></linearGradient><linearGradient id="Namnlös_övertoning_28-2" x1="159.6" y1="-594.88" x2="159.6" y2="-686.08" xlink:href="#Namnlös_övertoning_28"/><linearGradient id="Namnlös_övertoning_28-3" x1="229.15" y1="-594.88" x2="229.15" y2="-686.08" xlink:href="#Namnlös_övertoning_28"/><linearGradient id="Namnlös_övertoning_28-4" x1="581.95" y1="-594.88" x2="581.95" y2="-686.08" xlink:href="#Namnlös_övertoning_28"/><linearGradient id="Namnlös_övertoning_28-5" x1="489.15" y1="-594.98" x2="489.15" y2="-686.08" gradientTransform="translate(0 697.28)" xlink:href="#Namnlös_övertoning_28"/><linearGradient id="Namnlös_övertoning_28-6" x1="407.25" y1="-594.88" x2="407.25" y2="-686.08" xlink:href="#Namnlös_övertoning_28"/><linearGradient id="Namnlös_övertoning_28-7" x1="323.85" y1="-594.88" x2="323.85" y2="-686.08" xlink:href="#Namnlös_övertoning_28"/><linearGradient id="Namnlös_övertoning_42" x1="75.95" y1="-615.48" x2="75.95" y2="-772.22" gradientTransform="translate(-2.3 692.68)" gradientUnits="userSpaceOnUse"><stop offset="0" stop-color="#fff"/><stop offset="1" stop-color="#1e1e1c"/></linearGradient><linearGradient id="Namnlös_övertoning_42-2" x1="159.6" y1="-615.48" x2="159.6" y2="-772.22" xlink:href="#Namnlös_övertoning_42"/><linearGradient id="Namnlös_övertoning_42-3" x1="229.15" y1="-615.48" x2="229.15" y2="-772.22" xlink:href="#Namnlös_övertoning_42"/><linearGradient id="Namnlös_övertoning_42-4" x1="581.95" y1="-615.48" x2="581.95" y2="-772.22" xlink:href="#Namnlös_övertoning_42"/><linearGradient id="Namnlös_övertoning_42-5" x1="489.15" y1="-615.48" x2="489.15" y2="-772.22" gradientTransform="translate(0 697.28)" xlink:href="#Namnlös_övertoning_42"/><linearGradient id="Namnlös_övertoning_42-6" x1="407.25" y1="-615.48" x2="407.25" y2="-772.22" xlink:href="#Namnlös_övertoning_42"/><linearGradient id="Namnlös_övertoning_42-7" x1="323.85" y1="-615.48" x2="323.85" y2="-772.22" xlink:href="#Namnlös_övertoning_42"/></defs><title>minecon_logo_green</title><polygon class="cls-1" points="558.8 70.9 514.7 70.9 512.6 76 511.6 70.9 466.9 70.9 464.7 78 463.5 70.9 370.2 70.9 368.9 82.4 368.3 70.9 274.1 70.9 273.5 82.4 272.2 70.9 178.9 70.9 177.7 78 175.5 70.9 83.6 70.9 61 154.2 132 266.3 206.7 266.3 206.9 264.7 207.5 266.3 282.8 266.3 283.6 266.3 359.6 266.3 365.3 215.3 365.1 210.2 365.9 210.2 370 174 370.7 186.4 375.3 186.4 373.7 196.3 377.8 266.3 416.1 266.3 430.3 220.2 435.6 266.3 472.9 266.3 473.5 265.1 473.7 266.3 510.4 266.3 581.4 154.2 558.8 70.9"/><polygon class="cls-1" points="230.3 225.2 236.5 156.7 245 196.6 240 260.4 230.3 225.2"/><polygon class="cls-1" points="224.5 204.3 231.5 133.2 242 133.2 235.8 204.3 224.5 204.3"/><polygon class="cls-1" points="218 180.5 225.9 106.8 231.5 133.2 224.5 204.3 218 180.5"/><polygon class="cls-1" points="262.1 153.2 266.9 76.8 280.6 196.6 277.9 260.4 262.1 153.2"/><polygon class="cls-1" points="478.7 260.4 469.1 196.6 485.6 156.7 497.6 225.2 478.7 260.4"/><polygon class="cls-1" points="497.6 204.3 484.9 133.2 495.3 133.2 508.8 204.3 497.6 204.3"/><polygon class="cls-1" points="440.9 260.4 433.6 196.6 471.2 76.8 484.5 153.2 440.9 260.4"/><polygon class="cls-1" points="508.8 204.3 495.3 133.2 518.7 76.8 536.2 153.2 508.8 204.3"/><polygon class="cls-1" points="383.4 260.4 379.6 196.6 394.3 106.8 400.3 180.5 383.4 260.4"/><polygon class="cls-1" points="376.2 180.5 372 106.8 375.4 76.8 380.3 153.2 376.2 180.5"/><polygon class="cls-1" points="315.9 225.2 316.2 156.7 316.7 196.6 316.4 260.4 315.9 225.2"/><polygon class="cls-1" points="325.9 260.4 325.6 196.6 326.1 156.7 326.5 225.2 325.9 260.4"/><polygon class="cls-1" points="348.5 215.1 346.6 145.3 356.8 145.3 359.4 215.1 348.5 215.1"/><polygon class="cls-1" points="315.5 204.3 315.9 133.2 326.4 133.2 326.8 204.3 315.5 204.3"/><polygon class="cls-1" points="315.2 180.5 315.6 106.8 315.9 133.2 315.5 204.3 315.2 180.5"/><polygon class="cls-1" points="326.8 204.3 326.4 133.2 326.8 106.8 327.2 180.5 326.8 204.3"/><polygon class="cls-2" points="67.4 153.2 88.1 76.8 171.2 76.8 157.8 153.2 67.4 153.2"/><polygon class="cls-3" points="171.7 153.2 183.9 76.8 266.9 76.8 262.1 153.2 171.7 153.2"/><polygon class="cls-4" points="484.5 153.2 471.2 76.8 506.8 76.8 523.3 153.2 484.5 153.2"/><polygon class="cls-5" points="536.2 153.2 518.7 76.8 554.3 76.8 575 153.2 536.2 153.2"/><polygon class="cls-6" points="380.3 153.2 375.4 76.8 458.5 76.8 470.7 153.2 380.3 153.2"/><polygon class="cls-7" points="276 153.2 279.7 76.8 362.7 76.8 366.4 153.2 276 153.2"/><polygon class="cls-8" points="154.7 243.8 144.8 225.2 176.6 225.2 167.4 204.3 133.5 204.3 120.8 180.5 168.9 180.5 157.8 153.2 67.4 153.2 135.2 260.4 201.5 260.4 194.7 243.8 154.7 243.8"/><path class="cls-8" d="M174,157.8,214,265h28.4l-9.7-35.2h10.6l8.6,35.2h28.4L264.5,157.8Zm52.8,51.1-6.6-23.8h12l5.8,23.8Z" transform="translate(-2.3 -4.6)"/><polygon class="cls-8" points="536.2 153.2 508.8 204.3 497.6 204.3 523.3 153.2 484.5 153.2 440.9 260.4 469.3 260.4 487 225.2 497.6 225.2 478.7 260.4 507.2 260.4 575 153.2 536.2 153.2"/><polygon class="cls-8" points="470.7 153.2 380.3 153.2 376.2 180.5 400.3 180.5 383.4 260.4 411.8 260.4 436.4 180.5 460.5 180.5 470.7 153.2"/><path class="cls-8" d="M290.4,265h28.4l-.6-35.2h10.6l-.6,35.2h28.4l5.1-45.3H350.8l.9-10.8h11.2l5.8-51.1H278.3Zm39.1-79.9-.4,23.8H317.8l-.4-23.8Z" transform="translate(-2.3 -4.6)"/><path class="cls-9" d="M444,164.2c-1.6,1.3-2.5,2.7-2.1,3.1s2,0,3.5-1.1,2.4-2.5,2.1-3.1S445.6,162.9,444,164.2Z" transform="translate(-2.3 -4.6)"/><path class="cls-9" d="M237.9,168.4c-.1,1.2.3,2.2,1,2.3s1.3-.8,1.5-1.8-.2-2.1-1-2.3S238,167.2,237.9,168.4Z" transform="translate(-2.3 -4.6)"/><g class="cls-10"><polygon class="cls-11" points="152.3 247.8 192 247.8 192 247.8 152.3 247.8"/><polygon class="cls-12" points="192.1 247.8 192.1 247.8 195.6 256.4 195.6 256.4 192.1 247.8"/><polygon class="cls-13" points="138.2 221.2 138.2 221.2 152.3 247.8 152.3 247.8 138.2 221.2"/><polygon class="cls-14" points="225.2 221.2 225.2 221.2 234.9 256.4 234.9 256.4 225.2 221.2"/><polygon class="cls-11" points="344.2 219.1 355 219.1 355 219.1 344.2 219.1"/><polygon class="cls-11" points="221.5 208.3 240.8 208.3 240.8 208.3 221.5 208.3"/><polygon class="cls-11" points="311.6 208.3 330.8 208.3 330.8 208.3 311.6 208.3"/><polygon class="cls-11" points="131.1 208.3 164.8 208.3 164.8 208.3 131.1 208.3"/><polygon class="cls-15" points="164.8 208.3 164.8 208.3 170.5 221.2 170.5 221.2 164.8 208.3"/><polygon class="cls-14" points="212.7 176.5 212.7 176.5 221.5 208.3 221.5 208.3 212.7 176.5"/><polygon class="cls-13" points="114.2 176.5 114.2 176.5 131.1 208.3 131.1 208.3 114.2 176.5"/><polygon class="cls-11" points="280.5 157.2 361.9 157.2 361.9 157.2 280.5 157.2"/><polygon class="cls-16" points="258.8 157.2 258.8 157.2 273.4 256.4 273.4 256.4 258.8 157.2"/><polygon class="cls-11" points="177.5 157.2 258.8 157.2 258.8 157.2 177.5 157.2"/><polygon class="cls-12" points="155.1 157.2 155.1 157.2 163 176.5 163 176.5 155.1 157.2"/><polygon class="cls-11" points="74.7 157.2 155.1 157.2 155.1 157.2 74.7 157.2"/><polygon class="cls-17" points="234.9 256.4 240.1 260.4 211.7 260.4 214.5 256.4 234.9 256.4"/><polygon class="cls-17" points="273.4 256.4 278 260.4 249.6 260.4 252.8 256.4 273.4 256.4"/><polygon class="cls-17" points="350.8 256.4 354.3 260.4 325.9 260.4 330 256.4 350.8 256.4"/><polygon class="cls-17" points="312.5 256.4 316.5 260.4 288.1 260.4 291.7 256.4 312.5 256.4"/><polygon class="cls-17" points="195.6 256.4 201.5 260.4 135.2 260.4 137.4 256.4 195.6 256.4"/><polygon class="cls-18" points="152.3 247.8 154.7 243.8 194.7 243.8 192.1 247.8 152.3 247.8"/><polygon class="cls-19" points="192.1 247.8 194.7 243.8 201.5 260.4 195.6 256.4 192.1 247.8"/><polygon class="cls-20" points="330 256.4 325.9 260.4 326.5 225.2 330.6 221.2 330 256.4"/><polygon class="cls-17" points="330.6 221.2 326.5 225.2 315.9 225.2 311.9 221.2 330.6 221.2"/><polygon class="cls-19" points="311.9 221.2 315.9 225.2 316.5 260.4 312.5 256.4 311.9 221.2"/><polygon class="cls-17" points="244.2 221.2 241 225.2 230.4 225.2 225.2 221.2 244.2 221.2"/><polygon class="cls-17" points="170.5 221.2 176.6 225.2 144.8 225.2 138.2 221.2 170.5 221.2"/><polygon class="cls-19" points="138.2 221.2 144.8 225.2 154.7 243.8 152.3 247.8 138.2 221.2"/><polygon class="cls-20" points="252.8 256.4 249.6 260.4 241 225.2 244.2 221.2 252.8 256.4"/><polygon class="cls-19" points="225.2 221.2 230.4 225.2 240.1 260.4 234.9 256.4 225.2 221.2"/><polygon class="cls-18" points="344.2 219.1 348.5 215.1 359.4 215.1 355 219.1 344.2 219.1"/><polygon class="cls-19" points="355 219.1 359.4 215.1 354.3 260.4 350.8 256.4 355 219.1"/><polygon class="cls-18" points="221.5 208.3 224.5 204.3 235.7 204.3 240.8 208.3 221.5 208.3"/><polygon class="cls-18" points="311.6 208.3 315.5 204.3 326.8 204.3 330.8 208.3 311.6 208.3"/><polygon class="cls-18" points="131.1 208.3 133.5 204.3 167.4 204.3 164.8 208.3 131.1 208.3"/><polygon class="cls-19" points="164.8 208.3 167.4 204.3 176.6 225.2 170.5 221.2 164.8 208.3"/><polygon class="cls-19" points="345.8 200.3 349.4 204.3 348.5 215.1 344.2 219.1 345.8 200.3"/><polygon class="cls-17" points="357.1 200.3 360.6 204.3 349.4 204.3 345.8 200.3 357.1 200.3"/><polygon class="cls-19" points="311.1 176.5 315.1 180.5 315.5 204.3 311.6 208.3 311.1 176.5"/><polygon class="cls-17" points="331.3 176.5 327.2 180.5 315.1 180.5 311.1 176.5 331.3 176.5"/><polygon class="cls-20" points="330.8 208.3 326.8 204.3 327.2 180.5 331.3 176.5 330.8 208.3"/><polygon class="cls-17" points="233.1 176.5 229.9 180.5 217.9 180.5 212.7 176.5 233.1 176.5"/><polygon class="cls-20" points="240.8 208.3 235.7 204.3 229.9 180.5 233.1 176.5 240.8 208.3"/><polygon class="cls-19" points="212.7 176.5 217.9 180.5 224.5 204.3 221.5 208.3 212.7 176.5"/><polygon class="cls-17" points="163 176.5 168.9 180.5 120.8 180.5 114.2 176.5 163 176.5"/><polygon class="cls-19" points="114.2 176.5 120.8 180.5 133.5 204.3 131.1 208.3 114.2 176.5"/><polygon class="cls-20" points="291.7 256.4 288.1 260.4 276 153.2 280.5 157.2 291.7 256.4"/><polygon class="cls-18" points="280.5 157.2 276 153.2 366.4 153.2 362 157.2 280.5 157.2"/><polygon class="cls-19" points="362 157.2 366.4 153.2 360.6 204.3 357.1 200.3 362 157.2"/><polygon class="cls-19" points="258.8 157.2 262.2 153.2 278 260.4 273.4 256.4 258.8 157.2"/><polygon class="cls-18" points="177.5 157.2 171.7 153.2 262.2 153.2 258.8 157.2 177.5 157.2"/><polygon class="cls-20" points="214.5 256.4 211.7 260.4 171.7 153.2 177.5 157.2 214.5 256.4"/><polygon class="cls-19" points="155.1 157.2 157.8 153.2 168.9 180.5 163 176.5 155.1 157.2"/><polygon class="cls-20" points="137.4 256.4 135.2 260.4 67.4 153.2 74.7 157.2 137.4 256.4"/><polygon class="cls-18" points="74.7 157.2 67.4 153.2 157.8 153.2 155.1 157.2 74.7 157.2"/><polygon class="cls-12" points="192.1 247.8 192.1 247.8 195.6 256.4 195.6 256.4 192.1 247.8"/><polygon class="cls-11" points="152.3 247.8 192 247.8 192 247.8 152.3 247.8"/><polygon class="cls-13" points="138.2 221.2 138.2 221.2 152.3 247.8 152.3 247.8 138.2 221.2"/><polygon class="cls-14" points="225.2 221.2 225.2 221.2 234.9 256.4 234.9 256.4 225.2 221.2"/><polygon class="cls-11" points="344.2 219.1 355 219.1 355 219.1 344.2 219.1"/><polygon class="cls-11" points="221.5 208.3 240.8 208.3 240.8 208.3 221.5 208.3"/><polygon class="cls-11" points="311.6 208.3 330.8 208.3 330.8 208.3 311.6 208.3"/><polygon class="cls-11" points="131.1 208.3 164.8 208.3 164.8 208.3 131.1 208.3"/><polygon class="cls-15" points="164.8 208.3 164.8 208.3 170.5 221.2 170.5 221.2 164.8 208.3"/><polygon class="cls-14" points="212.7 176.5 212.7 176.5 221.5 208.3 221.5 208.3 212.7 176.5"/><polygon class="cls-13" points="114.2 176.5 114.2 176.5 131.1 208.3 131.1 208.3 114.2 176.5"/><path class="cls-21" d="M359.4,204.9H348.1l-1.6,18.8h10.8L353.1,261H332.3l.6-35.2H314.2l.6,35.2H294l-11.2-99.2h81.4Zm-26.3,8,.5-31.8H313.4l.5,31.8h19.2" transform="translate(-2.3 -4.6)"/><polygon class="cls-11" points="280.5 157.2 361.9 157.2 361.9 157.2 280.5 157.2"/><path class="cls-22" d="M261.1,161.8,275.7,261H255.1l-8.6-35.2h-19l9.7,35.2H216.8l-37-99.2Zm-37.3,51.1h19.3l-7.7-31.8H215l8.8,31.8" transform="translate(-2.3 -4.6)"/><polygon class="cls-16" points="258.8 157.2 258.8 157.2 273.4 256.4 273.4 256.4 258.8 157.2"/><polygon class="cls-11" points="74.7 157.2 155.1 157.2 155.1 157.2 74.7 157.2"/><polygon class="cls-11" points="177.5 157.2 258.8 157.2 258.8 157.2 177.5 157.2"/><polygon class="cls-23" points="155.1 157.2 163 176.5 114.2 176.5 131.1 208.3 164.8 208.3 170.5 221.2 138.2 221.2 152.3 247.8 192.1 247.8 195.6 256.4 137.4 256.4 74.7 157.2 155.1 157.2"/><polygon class="cls-12" points="155.1 157.2 155.1 157.2 163 176.5 163 176.5 155.1 157.2"/></g><g class="cls-10"><polygon class="cls-24" points="485.4 256.4 485.4 256.4 504.3 221.2 504.3 221.2 485.4 256.4"/><polygon class="cls-11" points="491.1 208.3 511.2 208.3 511.2 208.3 491.1 208.3"/><polygon class="cls-24" points="388.4 256.4 388.4 256.4 405.3 176.5 405.3 176.5 388.4 256.4"/><polygon class="cls-11" points="383.8 157.2 465 157.2 465 157.2 383.8 157.2"/><polygon class="cls-24" points="446.9 256.4 446.9 256.4 487.2 157.2 487.2 157.2 446.9 256.4"/><polygon class="cls-11" points="487.2 157.2 516.8 157.2 516.8 157.2 487.2 157.2"/><polygon class="cls-24" points="511.2 208.3 511.2 208.3 538.6 157.2 538.6 157.2 511.2 208.3"/><polygon class="cls-11" points="538.6 157.2 567.7 157.2 567.7 157.2 538.6 157.2"/><polygon class="cls-17" points="505 256.4 507.2 260.4 478.7 260.4 485.4 256.4 505 256.4"/><polygon class="cls-17" points="408.9 256.4 411.8 260.4 383.4 260.4 388.4 256.4 408.9 256.4"/><polygon class="cls-17" points="466.9 256.4 469.3 260.4 440.9 260.4 446.9 256.4 466.9 256.4"/><polygon class="cls-20" points="485.4 256.4 478.7 260.4 497.6 225.2 504.3 221.2 485.4 256.4"/><polygon class="cls-17" points="504.3 221.2 497.6 225.2 487 225.2 484.6 221.2 504.3 221.2"/><polygon class="cls-19" points="484.6 221.2 487 225.2 469.3 260.4 466.9 256.4 484.6 221.2"/><polygon class="cls-18" points="491.1 208.3 497.6 204.3 508.8 204.3 511.2 208.3 491.1 208.3"/><polygon class="cls-17" points="457.8 176.5 460.5 180.5 436.4 180.5 433.5 176.5 457.8 176.5"/><polygon class="cls-20" points="388.4 256.4 383.4 260.4 400.3 180.5 405.3 176.5 388.4 256.4"/><polygon class="cls-19" points="433.5 176.5 436.4 180.5 411.8 260.4 408.9 256.4 433.5 176.5"/><polygon class="cls-17" points="405.3 176.5 400.3 180.5 376.2 180.5 380.9 176.5 405.3 176.5"/><polygon class="cls-19" points="567.8 157.2 575 153.2 507.2 260.4 505 256.4 567.8 157.2"/><polygon class="cls-20" points="446.9 256.4 440.9 260.4 484.5 153.2 487.2 157.2 446.9 256.4"/><polygon class="cls-18" points="487.2 157.2 484.5 153.2 523.3 153.2 516.8 157.2 487.2 157.2"/><polygon class="cls-19" points="516.8 157.2 523.3 153.2 497.6 204.3 491.1 208.3 516.8 157.2"/><polygon class="cls-20" points="511.2 208.3 508.8 204.3 536.2 153.2 538.6 157.2 511.2 208.3"/><polygon class="cls-18" points="538.6 157.2 536.2 153.2 575 153.2 567.8 157.2 538.6 157.2"/><polygon class="cls-20" points="380.9 176.5 376.2 180.5 380.3 153.2 383.8 157.2 380.9 176.5"/><polygon class="cls-18" points="383.8 157.2 380.3 153.2 470.7 153.2 465 157.2 383.8 157.2"/><polygon class="cls-19" points="465 157.2 470.7 153.2 460.5 180.5 457.8 176.5 465 157.2"/><polygon class="cls-24" points="485.4 256.4 485.4 256.4 504.3 221.2 504.3 221.2 485.4 256.4"/><polygon class="cls-11" points="491.1 208.3 511.2 208.3 511.2 208.3 491.1 208.3"/><polygon class="cls-24" points="388.4 256.4 388.4 256.4 405.3 176.5 405.3 176.5 388.4 256.4"/><polygon class="cls-24" points="446.9 256.4 446.9 256.4 487.2 157.2 487.2 157.2 446.9 256.4"/><polygon class="cls-24" points="511.2 208.3 511.2 208.3 538.6 157.2 538.6 157.2 511.2 208.3"/><polygon class="cls-11" points="538.6 157.2 567.7 157.2 567.7 157.2 538.6 157.2"/><polygon class="cls-11" points="487.2 157.2 516.8 157.2 516.8 157.2 487.2 157.2"/><polygon class="cls-11" points="383.8 157.2 465 157.2 465 157.2 383.8 157.2"/><polygon class="cls-25" points="465 157.2 457.8 176.5 433.5 176.5 408.9 256.4 388.4 256.4 405.3 176.5 380.9 176.5 383.8 157.2 465 157.2"/><polygon class="cls-26" points="567.8 157.2 505 256.4 485.4 256.4 504.3 221.2 484.6 221.2 466.9 256.4 446.9 256.4 487.2 157.2 516.8 157.2 491.1 208.3 511.2 208.3 538.6 157.2 567.8 157.2"/></g><g class="cls-10"><polygon class="cls-27" points="91.2 80.7 166.5 80.7 166.5 80.7 91.2 80.7"/><polygon class="cls-27" points="91.2 80.7 166.5 80.7 166.5 80.7 91.2 80.7"/></g><g class="cls-10"><polygon class="cls-27" points="187.3 80.7 262.6 80.7 262.6 80.7 187.3 80.7"/></g><g class="cls-10"><polygon class="cls-28" points="476 80.7 503.6 80.7 503.6 80.7 476 80.7"/><polygon class="cls-28" points="523.8 80.7 551.3 80.7 551.3 80.7 523.8 80.7"/><polygon class="cls-28" points="476 80.7 503.6 80.7 503.6 80.7 476 80.7"/><polygon class="cls-28" points="523.8 80.7 551.3 80.7 551.3 80.7 523.8 80.7"/></g><g class="cls-10"><polygon class="cls-27" points="379.7 80.7 455.1 80.7 455.1 80.7 379.7 80.7"/><polygon class="cls-27" points="379.7 80.7 455.1 80.7 455.1 80.7 379.7 80.7"/></g><g class="cls-10"><polygon class="cls-27" points="283.5 80.7 358.9 80.7 358.9 80.7 283.5 80.7"/><polygon class="cls-27" points="283.5 80.7 358.9 80.7 358.9 80.7 283.5 80.7"/></g><polygon class="cls-23" points="155.1 157.2 163 176.5 114.2 176.5 131.1 208.3 164.8 208.3 170.5 221.2 138.2 221.2 152.3 247.8 192.1 247.8 195.6 256.4 137.4 256.4 74.7 157.2 155.1 157.2"/><polygon class="cls-23" points="155.1 157.2 163 176.5 114.2 176.5 131.1 208.3 164.8 208.3 170.5 221.2 138.2 221.2 152.3 247.8 192.1 247.8 195.6 256.4 137.4 256.4 74.7 157.2 155.1 157.2"/><polygon class="cls-29" points="90.5 163.8 94.2 170.3 83 170.3 78.9 163.8 90.5 163.8"/><polygon class="cls-30" points="105.4 170.3 108.8 176.5 97.9 176.5 94.2 170.3 105.4 170.3"/><polygon class="cls-31" points="127.7 170.3 130.7 176.5 119.8 176.5 116.5 170.3 127.7 170.3"/><polygon class="cls-29" points="138.8 170.3 141.7 176.5 130.7 176.5 127.7 170.3 138.8 170.3"/><polygon class="cls-31" points="150 170.3 152.6 176.5 141.7 176.5 138.8 170.3 150 170.3"/><polygon class="cls-29" points="160.5 170.3 163 176.5 152.6 176.5 150 170.3 160.5 170.3"/><polygon class="cls-32" points="101.9 163.8 105.4 170.3 94.2 170.3 90.5 163.8 101.9 163.8"/><polygon class="cls-29" points="157.8 163.8 160.5 170.3 150 170.3 147.3 163.8 157.8 163.8"/><polygon class="cls-30" points="147.3 163.8 150 170.3 138.8 170.3 135.9 163.8 147.3 163.8"/><polygon class="cls-33" points="135.9 163.8 138.8 170.3 127.7 170.3 124.6 163.8 135.9 163.8"/><polygon class="cls-31" points="124.6 163.8 127.7 170.3 116.5 170.3 113.2 163.8 124.6 163.8"/><polygon class="cls-31" points="113.2 163.8 116.5 170.3 105.4 170.3 101.9 163.8 113.2 163.8"/><polygon class="cls-34" points="98.2 157.2 101.9 163.8 90.5 163.8 86.6 157.2 98.2 157.2"/><polygon class="cls-35" points="109.8 157.2 113.2 163.8 101.9 163.8 98.2 157.2 109.8 157.2"/><polygon class="cls-36" points="121.3 157.2 124.6 163.8 113.2 163.8 109.8 157.2 121.3 157.2"/><polygon class="cls-29" points="132.9 157.2 135.9 163.8 124.6 163.8 121.3 157.2 132.9 157.2"/><polygon class="cls-31" points="144.4 157.2 147.3 163.8 135.9 163.8 132.9 157.2 144.4 157.2"/><polygon class="cls-34" points="155.1 157.2 157.8 163.8 147.3 163.8 144.4 157.2 155.1 157.2"/><polygon class="cls-30" points="86.6 157.2 90.5 163.8 78.9 163.8 74.7 157.2 86.6 157.2"/><g class="cls-10"><line class="cls-37" x1="197.6" y1="163.7" x2="207.5" y2="163.7"/><line class="cls-37" x1="207.5" y1="163.7" x2="217.3" y2="163.7"/><line class="cls-37" x1="217.3" y1="163.7" x2="227.1" y2="163.7"/><line class="cls-37" x1="227.1" y1="163.7" x2="236.9" y2="163.7"/><line class="cls-37" x1="236.9" y1="163.7" x2="246.8" y2="163.7"/><line class="cls-37" x1="246.8" y1="163.7" x2="256.6" y2="163.7"/><line class="cls-37" x1="245.8" y1="158" x2="255.7" y2="158"/><line class="cls-37" x1="235.8" y1="158" x2="245.8" y2="158"/><line class="cls-37" x1="225.8" y1="158" x2="235.8" y2="158"/><line class="cls-37" x1="215.8" y1="158" x2="225.8" y2="158"/><line class="cls-37" x1="205.8" y1="158" x2="215.8" y2="158"/><line class="cls-37" x1="195.8" y1="158" x2="205.8" y2="158"/><path class="cls-38" d="M254.6,192.4" transform="translate(-2.3 -4.6)"/><path class="cls-38" d="M212.2,192.4" transform="translate(-2.3 -4.6)"/><path class="cls-38" d="M201.6,192.4" transform="translate(-2.3 -4.6)"/><path class="cls-38" d="M191,192.4" transform="translate(-2.3 -4.6)"/><polygon class="cls-30" points="260.7 170.1 261.6 176.2 250.3 176.2 249.2 170.1 260.7 170.1"/><polygon class="cls-31" points="249.2 170.1 250.3 176.2 239.3 176.2 238 170.1 249.2 170.1"/><polygon class="cls-30" points="204.5 170.1 206.4 176.2 195.4 176.2 193.4 170.1 204.5 170.1"/><polygon class="cls-30" points="259.7 163.7 260.7 170.1 249.2 170.1 248.1 163.7 259.7 163.7"/><polygon class="cls-30" points="248.1 163.7 249.2 170.1 238 170.1 236.7 163.7 248.1 163.7"/><polygon class="cls-29" points="236.7 163.7 238 170.1 226.9 170.1 225.3 163.7 236.7 163.7"/><polygon class="cls-32" points="214 163.7 215.7 170.1 204.5 170.1 202.6 163.7 214 163.7"/><polygon class="cls-33" points="202.6 163.7 204.5 170.1 193.4 170.1 191.3 163.7 202.6 163.7"/><polygon class="cls-33" points="191.3 163.7 193.4 170.1 182.2 170.1 179.9 163.7 191.3 163.7"/><polygon class="cls-34" points="189.1 157.2 191.3 163.7 179.9 163.7 177.5 157.2 189.1 157.2"/><polygon class="cls-29" points="200.6 157.2 202.6 163.7 191.3 163.7 189.1 157.2 200.6 157.2"/><polygon class="cls-36" points="212.2 157.2 214 163.7 202.6 163.7 200.6 157.2 212.2 157.2"/><polygon class="cls-34" points="223.8 157.2 225.3 163.7 214 163.7 212.2 157.2 223.8 157.2"/><polygon class="cls-32" points="235.3 157.2 236.7 163.7 225.3 163.7 223.8 157.2 235.3 157.2"/><polygon class="cls-29" points="246.9 157.2 248.1 163.7 236.7 163.7 235.3 157.2 246.9 157.2"/><polygon class="cls-33" points="258.8 157.2 259.7 163.7 248.1 163.7 246.9 157.2 258.8 157.2"/></g><g class="cls-10"><polygon class="cls-29" points="359.8 175.6 359.2 181.3 348.2 181.3 348.6 175.6 359.8 175.6"/><polygon class="cls-29" points="349.1 169.7 348.6 175.6 337.6 175.6 337.9 169.7 349.1 169.7"/><polygon class="cls-30" points="360.5 169.7 359.8 175.6 348.6 175.6 349.1 169.7 360.5 169.7"/><polygon class="cls-30" points="293.1 169.7 293.6 175.6 282.6 175.6 281.9 169.7 293.1 169.7"/><polygon class="cls-32" points="292.6 163.6 293.1 169.7 281.9 169.7 281.2 163.6 292.6 163.6"/><polygon class="cls-36" points="304 163.6 304.3 169.7 293.1 169.7 292.6 163.6 304 163.6"/><polygon class="cls-32" points="315.4 163.6 315.5 169.7 304.3 169.7 304 163.6 315.4 163.6"/><polygon class="cls-31" points="338.2 163.6 337.9 169.7 326.7 169.7 326.8 163.6 338.2 163.6"/><polygon class="cls-34" points="349.6 163.6 349.1 169.7 337.9 169.7 338.2 163.6 349.6 163.6"/><polygon class="cls-32" points="361.2 163.6 360.5 169.7 349.1 169.7 349.6 163.6 361.2 163.6"/><polygon class="cls-35" points="361.9 157.1 361.2 163.6 349.6 163.6 350.1 157.2 361.9 157.1"/><polygon class="cls-36" points="350.1 157.2 349.6 163.6 338.2 163.6 338.5 157.2 350.1 157.2"/><polygon class="cls-34" points="315.3 157.2 315.4 163.6 304 163.6 303.7 157.2 315.3 157.2"/><polygon class="cls-29" points="303.7 157.2 304 163.6 292.6 163.6 292.1 157.2 303.7 157.2"/><polygon class="cls-36" points="292.1 157.2 292.6 163.6 281.2 163.6 280.5 157.2 292.1 157.2"/></g><polygon class="cls-29" points="338.5 157.2 338.2 163.6 326.8 163.6 326.9 157.2 338.5 157.2"/><polygon class="cls-29" points="326.8 163.6 326.7 169.7 315.5 169.7 315.4 163.6 326.8 163.6"/><polygon class="cls-30" points="326.9 157.2 326.8 163.6 315.4 163.6 315.3 157.2 326.9 157.2"/><g class="cls-10"><polygon class="cls-30" points="449 170.3 446.9 176.5 435.9 176.5 437.8 170.3 449 170.3"/><polygon class="cls-32" points="460.1 170.3 457.8 176.5 446.9 176.5 449 170.3 460.1 170.3"/><polygon class="cls-30" points="426.5 170.3 424.9 176.5 413.8 176.5 415.3 170.3 426.5 170.3"/><polygon class="cls-32" points="392.9 170.3 391.8 176.5 380.9 176.5 381.8 170.3 392.9 170.3"/><polygon class="cls-36" points="404.1 170.3 402.8 176.5 391.8 176.5 392.9 170.3 404.1 170.3"/><polygon class="cls-29" points="394 163.8 392.9 170.3 381.8 170.3 382.8 163.8 394 163.8"/><polygon class="cls-32" points="405.4 163.8 404.1 170.3 392.9 170.3 394 163.8 405.4 163.8"/><polygon class="cls-30" points="416.8 163.8 415.3 170.3 404.1 170.3 405.4 163.8 416.8 163.8"/><polygon class="cls-32" points="428.3 163.8 426.5 170.3 415.3 170.3 416.8 163.8 428.3 163.8"/><polygon class="cls-29" points="439.7 163.8 437.8 170.3 426.5 170.3 428.3 163.8 439.7 163.8"/><polygon class="cls-35" points="451.1 163.8 449 170.3 437.8 170.3 439.7 163.8 451.1 163.8"/><polygon class="cls-30" points="462.5 163.8 460.1 170.3 449 170.3 451.1 163.8 462.5 163.8"/><polygon class="cls-35" points="465 157.2 462.5 163.8 451.1 163.8 453.3 157.2 465 157.2"/><polygon class="cls-35" points="395.2 157.2 394 163.8 382.8 163.8 383.8 157.2 395.2 157.2"/><polygon class="cls-35" points="406.8 157.2 405.4 163.8 394 163.8 395.2 157.2 406.8 157.2"/><polygon class="cls-32" points="418.4 157.2 416.8 163.8 405.4 163.8 406.8 157.2 418.4 157.2"/><polygon class="cls-29" points="430.1 157.2 428.3 163.8 416.8 163.8 418.4 157.2 430.1 157.2"/><polygon class="cls-36" points="441.7 157.2 439.7 163.8 428.3 163.8 430.1 157.2 441.7 157.2"/><polygon class="cls-32" points="453.3 157.2 451.1 163.8 439.7 163.8 441.7 157.2 453.3 157.2"/></g><polygon class="cls-30" points="559.5 170.3 555.6 176.5 541 176.5 545.4 170.3 559.5 170.3"/><polygon class="cls-29" points="563.7 163.9 559.5 170.3 545.4 170.3 549.9 163.9 563.7 163.9"/><polygon class="cls-35" points="549.9 163.9 545.4 170.3 531.6 170.3 535.2 163.6 549.9 163.9"/><polygon class="cls-36" points="567.8 157.2 563.7 163.9 549.9 163.9 554.6 157.2 567.8 157.2"/><polygon class="cls-32" points="554.6 157.2 549.9 163.9 535.2 163.6 538.6 157.2 554.6 157.2"/><polygon class="cls-35" points="513.5 163.9 510.2 170.4 495.5 170.3 499.1 163.9 513.5 163.9"/><polygon class="cls-29" points="499.1 163.9 495.7 170.4 481.9 170.4 484.5 163.9 499.1 163.9"/><polygon class="cls-30" points="516.8 157.2 513.5 163.9 499.1 163.9 502.8 157.2 516.8 157.2"/><polygon class="cls-32" points="502.8 157.2 499.1 163.9 484.5 163.9 487.1 157.2 502.8 157.2"/><g class="cls-39"><path class="cls-40" d="M248.3,242.2c-1.1,0-2,.5-2,1.1s.9,1,2,.9l7.9-.3a2.67,2.67,0,0,1,2.5,1.9l4,15.3a18.77,18.77,0,0,0-1.5,2.6h0c-.2.8.1,1.4.6,1.4a3.42,3.42,0,0,0,2-1.6l1.4-1.9c.1-.2.3-.2.3-.4l-4.3-17.4a2.67,2.67,0,0,0-2.5-1.9Z" transform="translate(-2.3 -4.6)"/></g><path class="cls-29" d="M252.4,243.4c-.8,0-1.4.4-1.3.9s.9.8,1.7.8h4.4c.8,0,1.6-.4,1.7-1s-.4-1-1.3-.9Z" transform="translate(-2.3 -4.6)"/><path class="cls-1" d="M251,242.2h-5.2c-.2,0-.3.1-.5.2l.3,3.5a.47.47,0,0,0,.6-.1l4.9-2.9C251.7,242.5,251.6,242.2,251,242.2Z" transform="translate(-2.3 -4.6)"/><path class="cls-41" d="M406.7,159.7Z" transform="translate(-2.3 -4.6)"/><g class="cls-39"><path class="cls-40" d="M317.8,204.4l-2.7,1.1a4.53,4.53,0,0,1-1.6.3H288.4c-.5,0-1.2-.1-1.7-.1l-2.4-.4a1,1,0,0,1-.8-1v-.7a.66.66,0,0,1,.8-.7l2.5.6a9.85,9.85,0,0,0,1.7.2h8.7a.79.79,0,0,0,.8-.8l-1-12.5c.1-.8,1-.9,1.8-.9h13.6a7.58,7.58,0,0,0,1.6-.3l2.8-1.2a.52.52,0,0,1,.8.5v.7a1.48,1.48,0,0,1-.8,1.2l-2.6,1.3a4.19,4.19,0,0,1-1.6.4l-12.7.1a.82.82,0,0,0-.8.9l.7,9.8a.82.82,0,0,0,.9.8l11.7-.5a5.08,5.08,0,0,0,1.7-.3l3.8-1" transform="translate(-2.3 -4.6)"/></g><path class="cls-29" d="M311.6,206.3c.8,0,1.2.3.8.7a3.61,3.61,0,0,1-2.2.7l-18.5.1a3.64,3.64,0,0,1-2.2-.8c-.4-.5,0-.8.8-.8Z" transform="translate(-2.3 -4.6)"/><path class="cls-1" d="M285.2,203.3l-.9-.5a3.23,3.23,0,0,0-2-.4l-.3,2.3a2.88,2.88,0,0,0,2.3.6l.5-.1C286.6,204.9,286.7,204.1,285.2,203.3Z" transform="translate(-2.3 -4.6)"/><path class="cls-1" d="M394.5,232.9l-3.5.3-1.3,3.6,5.2-2.5C397.1,233.3,396.9,232.6,394.5,232.9Z" transform="translate(-2.3 -4.6)"/><path class="cls-1" d="M425.8,234.1l-4-1.2c-1-.3-1.1.4-.1,1.6l4.4,5.3c.4.5.5.3.6,0l-.2-5.3A1,1,0,0,0,425.8,234.1Z" transform="translate(-2.3 -4.6)"/><g class="cls-42"><g class="cls-43"><path class="cls-44" d="M356.2,246.4a6.53,6.53,0,0,0-2.4-.6H343.7c-.7,0-1.2.4-1.2,1a1.2,1.2,0,0,0,1.2,1H354a4.89,4.89,0,0,1,2.3.8l2.4,1.8-.4-2.8Z" transform="translate(-2.3 -4.6)"/></g></g><g class="cls-39"><path class="cls-40" d="M99.6,204.8c-.6.9-1.5,1-2.1.1a2.57,2.57,0,0,1,.3-3.1l.8-.9a5.18,5.18,0,0,1,3.3-1.6l21.6-1.2a12.63,12.63,0,0,1,3.9.4l2.1.6a2.07,2.07,0,0,1,1.7,2c-.1.8-1.1,1.2-2.2.9l-.9-.3a17.37,17.37,0,0,0-3.9-.5l-21,.9a4,4,0,0,0-3,1.8Z" transform="translate(-2.3 -4.6)"/></g><path class="cls-29" d="M110.5,204.4c-1.1,0-2-.4-2.1-1.1s.8-1.2,1.9-1.3l14.6-.6c1.1,0,2,.4,2.1,1.1s-.8,1.2-1.9,1.3Z" transform="translate(-2.3 -4.6)"/><path class="cls-1" d="M97.8,202.8l2.2-.8c.4-.2.8.4.5.7l-1.4,1.8" transform="translate(-2.3 -4.6)"/><path class="cls-1" d="M135.1,204.1l-8.2-3.7c-.8-.3-.7-.7.1-.8l8.6-1.3" transform="translate(-2.3 -4.6)"/><g class="cls-39"><path class="cls-40" d="M178,265.2c-.6.2-1.4-.5-1.7-1.5l-.2-.8a16.89,16.89,0,0,0-1.7-3.6l-3.3-5.4a3.25,3.25,0,0,1,.1-3.3l.8-1.1c.6-.9,1.7-1.4,2.3-1.1s.6,1.3,0,2.1l-.3.4a3.25,3.25,0,0,0-.1,3.3l3.2,5.1a16.49,16.49,0,0,1,1.6,3.6C178.9,263.9,178.6,265,178,265.2Z" transform="translate(-2.3 -4.6)"/></g><path class="cls-1" d="M177.7,261.9l3.8,4.7c.5.6.3,1.2-.6,1.1h-2.4a1.54,1.54,0,0,1-1.5-1.5l-.1-4.6" transform="translate(-2.3 -4.6)"/><path class="cls-1" d="M171.9,251.1l1.7-10.9c.1-.8.7-1,1.3-.4l3.9,3.9a1.45,1.45,0,0,1,0,2.1l-6.4,6.4" transform="translate(-2.3 -4.6)"/><path class="cls-1" d="M133.9,148.2" transform="translate(-2.3 -4.6)"/><g class="cls-39"><path class="cls-40" d="M140.6,174c-.3.5-1,.2-1.5-.7l-5.9-9.6A9.49,9.49,0,0,1,132,160l-.1-1.1a7.79,7.79,0,0,1,.9-3.7l2.6-4.1c.6-.9,1.3-1.6,1.6-1.6s.3,1-.1,2l-1.2,3.6a10.23,10.23,0,0,0-.5,3.9v.4a16.37,16.37,0,0,0,1,3.8l3.9,8A3.48,3.48,0,0,1,140.6,174Z" transform="translate(-2.3 -4.6)"/></g><path class="cls-45" d="M134.5,154c-.2-.8-.5-.8-.8-.1l-2,5.8a2.78,2.78,0,0,0,.5,2.5l4.7,4.9c.6.6.8.4.6-.4l-1.4-4.8c-.2-.8-.5-2.1-.7-2.9Z" transform="translate(-2.3 -4.6)"/><path class="cls-1" d="M134.5,156.3c0-.8-.3-.9-.7-.1l-1.3,2.6a2.69,2.69,0,0,0,.2,2.6l1.6,2.4c.4.7.7.6.6-.2l-.2-2.1c-.1-.8-.2-2.2-.2-3Z" transform="translate(-2.3 -4.6)"/><path class="cls-37" d="M183.5,274.5" transform="translate(-2.3 -4.6)"/><path class="cls-37" d="M170.7,249.5" transform="translate(-2.3 -4.6)"/><path class="cls-37" d="M170.2,254.7" transform="translate(-2.3 -4.6)"/><path class="cls-37" d="M175,247.1" transform="translate(-2.3 -4.6)"/><path class="cls-1" d="M260.1,264.9l2-1.5c.7-.5,1.2-.2,1.1.6l-.1,3.1" transform="translate(-2.3 -4.6)"/><path class="cls-29" d="M352.8,247.5c.8,0,1.3.4,1.1.8a2.26,2.26,0,0,1-1.9.7h-3.7c-.8,0-1.5-.4-1.6-.9s.6-.9,1.4-.8Z" transform="translate(-2.3 -4.6)"/><path class="cls-1" d="M360.1,250.3l-4.3-2.7c-.7-.4-.6-.9.2-1l5-.6" transform="translate(-2.3 -4.6)"/><g class="cls-39"><path class="cls-40" d="M423.4,234.9c-.3.5-1.2.4-2-.2a6.82,6.82,0,0,0-3.5-1H398.8a16.71,16.71,0,0,0-3.9.6l-.4.1c-1.1.3-2,.1-2.2-.4s.6-1.2,1.6-1.5l.8-.2a17.56,17.56,0,0,1,3.9-.6h19.8a8.34,8.34,0,0,1,3.7,1.1l.2.1C423.2,233.5,423.7,234.4,423.4,234.9Z" transform="translate(-2.3 -4.6)"/></g><g class="cls-39"><path class="cls-40" d="M511.1,187.3a2.56,2.56,0,0,1-2.4.3,15.83,15.83,0,0,0-3.8-.5H480.4a4,4,0,0,1-3-1.7l-.4-.6c-.5-1-.7-2.1-.3-2.4s1.2-.2,1.8.4a5,5,0,0,0,3.1,1.1h24.2a6.74,6.74,0,0,1,3.6,1.2l.6.4C511,186,511.5,186.9,511.1,187.3Z" transform="translate(-2.3 -4.6)"/></g><path class="cls-1" d="M316.7,204.4h1a2.56,2.56,0,0,0,1.9-.7l-.9-2.2a2.62,2.62,0,0,0-2.4.7l-.4.4C314.7,203.6,315,204.4,316.7,204.4Z" transform="translate(-2.3 -4.6)"/><path class="cls-29" d="M311.3,191.8c.8,0,1.2.4.8.8a3.39,3.39,0,0,1-2.2.7h-9.4c-.8,0-1.6-.4-1.6-.9s.6-.9,1.4-.9Z" transform="translate(-2.3 -4.6)"/><path class="cls-1" d="M509.5,188.2l1.2,1.1a4.13,4.13,0,0,0,3.1,1.3l1.4-3.7a4.89,4.89,0,0,0-3.6-1.9l-.9-.1C507.9,184.9,507.4,186.3,509.5,188.2Z" transform="translate(-2.3 -4.6)"/><path class="cls-1" d="M478.7,182.3l-.8-1a3.77,3.77,0,0,0-2.1-1.5l-1.6,2.6a3.21,3.21,0,0,0,2.5,1.9l.7.2C479.4,185,480,184,478.7,182.3Z" transform="translate(-2.3 -4.6)"/><path class="cls-29" d="M481,187.4c-.8,0-1.2.5-.7,1a2.93,2.93,0,0,0,2.3,1H503a3.1,3.1,0,0,0,2.3-1.2c.4-.7.1-1.2-.7-1.2Z" transform="translate(-2.3 -4.6)"/><path class="cls-29" d="M398.9,234.2c-.8,0-1.2.4-.9.8a3.12,3.12,0,0,0,2.1.8h15.7a2.76,2.76,0,0,0,2.1-.9c.3-.5-.1-.9-.9-.9Z" transform="translate(-2.3 -4.6)"/><g class="cls-39"><path class="cls-40" d="M519.3,250.2a2.28,2.28,0,0,1-2.6.6h-.2a17.56,17.56,0,0,0-3.9-.6H495.3a4.52,4.52,0,0,1-3.2-1.6l-.3-.4c-.7-.9-.9-2-.5-2.5s1.2-.3,1.8.5a4.3,4.3,0,0,0,3.1,1.4h17.6a12.8,12.8,0,0,1,3.9.7l.4.2C519.1,248.7,519.7,249.5,519.3,250.2Z" transform="translate(-2.3 -4.6)"/></g><path class="cls-1" d="M517.1,250.4l.9.8a3.56,3.56,0,0,0,2.3,1l1-2.7a3.56,3.56,0,0,0-2.7-1.4h-.7C516,248,515.6,249,517.1,250.4Z" transform="translate(-2.3 -4.6)"/><path class="cls-1" d="M493.1,246.2l-.6-.8a3.18,3.18,0,0,0-1.8-1.2l-1.3,2.1a3,3,0,0,0,2,1.6l.6.1C493.7,248.4,494.2,247.6,493.1,246.2Z" transform="translate(-2.3 -4.6)"/><path class="cls-29" d="M495.3,249.5c-.8,0-1.2.5-.9,1.1a2.59,2.59,0,0,0,2.1,1.1H512a2.53,2.53,0,0,0,2.1-1.3.88.88,0,0,0-.9-1.3Z" transform="translate(-2.3 -4.6)"/><g class="cls-39"><path class="cls-40" d="M557.4,152.7c-.3-.7-.6-.7-.6.1l.4,10.4c0,.8.4.9.7.2l1.6-3.3a3.19,3.19,0,0,0,0-2.7Z" transform="translate(-2.3 -4.6)"/></g><path class="cls-29" d="M561.2,159.2c-.2-.8-.6-.8-.8-.1l-2.7,7.3c-.3.8-.1.9.5.3l2.8-3.1a3.09,3.09,0,0,0,.7-2.6Z" transform="translate(-2.3 -4.6)"/><path class="cls-1" d="M557.4,155.6c-.3-.7-.6-.7-.6.1l.4,10.4c0,.8.4.9.7.2l1.6-3.3a3.19,3.19,0,0,0,0-2.7Z" transform="translate(-2.3 -4.6)"/><path class="cls-29" d="M313.8,179.6c-.8,0-1.2.3-.9.7a3.1,3.1,0,0,0,2.1.7h17a2.76,2.76,0,0,0,2.1-.9c.4-.5,0-.9-.9-.8Z" transform="translate(-2.3 -4.6)"/><path class="cls-29" d="M436.3,179.6c-.8,0-1.2.3-.8.7a3.61,3.61,0,0,0,2.2.7h19.4a3.17,3.17,0,0,0,2.2-.9c.4-.5,0-.9-.8-.9Z" transform="translate(-2.3 -4.6)"/><path class="cls-29" d="M384,179.6c-.8,0-1.2.3-.8.7a3.61,3.61,0,0,0,2.2.7h19.4a3.17,3.17,0,0,0,2.2-.9c.4-.5,0-.9-.8-.9Z" transform="translate(-2.3 -4.6)"/><path class="cls-29" d="M313.8,223.7c-.8,0-1.2.3-.9.7a3.1,3.1,0,0,0,2.1.7h17a2.76,2.76,0,0,0,2.1-.9c.3-.5,0-.9-.9-.8Z" transform="translate(-2.3 -4.6)"/><path class="cls-29" d="M487,223.3c-.8,0-1.2.4-.9.9a2.86,2.86,0,0,0,2.1.8h16.9a2.82,2.82,0,0,0,2.1-1c.3-.5,0-1-.9-1Z" transform="translate(-2.3 -4.6)"/><path class="cls-29" d="M227.6,223.8c-.8,0-1.2.3-.9.7a3.1,3.1,0,0,0,2.1.7h15.8a2.76,2.76,0,0,0,2.1-.9c.3-.5-.1-.9-.9-.8Z" transform="translate(-2.3 -4.6)"/><path class="cls-29" d="M141.3,223.5c-.8,0-1.1.4-.6.8a3.85,3.85,0,0,0,2.4.8h24.4a3.49,3.49,0,0,0,2.4-1c.5-.5.2-1-.6-1Z" transform="translate(-2.3 -4.6)"/><path class="cls-29" d="M118,179.1c-.8,0-.9.3-.2.7l.2.1a6.81,6.81,0,0,0,2.8.7h40a6.08,6.08,0,0,0,2.7-.8l.3-.2c.7-.5.6-.8-.3-.8Z" transform="translate(-2.3 -4.6)"/><path class="cls-29" d="M216.6,178.9c-.8,0-1.2.4-.9.8a3.12,3.12,0,0,0,2.1.8h15a2.76,2.76,0,0,0,2.1-.9c.3-.5-.1-.9-.9-.9Z" transform="translate(-2.3 -4.6)"/><path class="cls-29" d="M141.3,259.4c-.8,0-1,.3-.5.7a4.9,4.9,0,0,0,2.5.7h28.2a4.47,4.47,0,0,0,2.5-.9c.6-.5.3-.9-.5-.9Z" transform="translate(-2.3 -4.6)"/><path class="cls-29" d="M179.3,259.3c-.8,0-1.3.4-.9.8a2.82,2.82,0,0,0,2,.7h14a2.53,2.53,0,0,0,2-.9c.3-.5-.1-.9-.9-.9Z" transform="translate(-2.3 -4.6)"/><path class="cls-29" d="M218,259.4c-.8,0-1.2.4-.9.8a2.92,2.92,0,0,0,2.1.8h14.4a2.93,2.93,0,0,0,2.1-.9c.3-.5-.1-.9-.9-.9Z" transform="translate(-2.3 -4.6)"/><path class="cls-29" d="M295.5,259.2c-.8,0-1.2.4-.9.8a2.92,2.92,0,0,0,2.1.8h14.6a2.76,2.76,0,0,0,2.1-.9c.3-.5-.1-.9-.9-.9Z" transform="translate(-2.3 -4.6)"/><path class="cls-29" d="M333.5,259.2c-.8,0-1.2.4-.9.8a3.12,3.12,0,0,0,2.1.8h15.7a2.76,2.76,0,0,0,2.1-.9c.3-.5-.1-.9-.9-.9Z" transform="translate(-2.3 -4.6)"/><path class="cls-29" d="M256.1,259.4c-.8,0-1.4.4-1.3.8s.9.8,1.7.8h3.8c.8,0,1.6-.4,1.7-.9s-.5-.9-1.3-.9Z" transform="translate(-2.3 -4.6)"/><path class="cls-29" d="M267.1,259.4c-.8,0-1.4.4-1.2.8s.9.8,1.8.8H273a2,2,0,0,0,1.8-.9c.2-.5-.4-.9-1.2-.9Z" transform="translate(-2.3 -4.6)"/><path class="cls-29" d="M349.6,203.6c-.8,0-1.4.3-1.2.6a2.54,2.54,0,0,0,1.8.6h7a2.17,2.17,0,0,0,1.8-.7c.2-.4-.4-.7-1.2-.7Z" transform="translate(-2.3 -4.6)"/><path class="cls-29" d="M392.4,259.1c-.8,0-1.2.5-.9,1a2.82,2.82,0,0,0,2.1,1h15.7a2.44,2.44,0,0,0,2.1-1.2c.3-.7-.1-1.2-.9-1.2Z" transform="translate(-2.3 -4.6)"/><path class="cls-29" d="M450.7,259.1c-.8,0-1.2.5-.9,1a2.82,2.82,0,0,0,2.1,1h15.7a2.44,2.44,0,0,0,2.1-1.2c.3-.7-.1-1.2-.9-1.2Z" transform="translate(-2.3 -4.6)"/><path class="cls-29" d="M491,259.1c-.8,0-1.2.5-.9,1a2.6,2.6,0,0,0,2,1h14.1a2.27,2.27,0,0,0,2-1.2c.3-.7-.1-1.2-.9-1.2Z" transform="translate(-2.3 -4.6)"/><path class="cls-1" d="M91.3,204l9.3-2.9c2.3-.7,2.8.1,1.1,1.8l-4.9,4.9" transform="translate(-2.3 -4.6)"/><path class="cls-29" d="M103.8,203.7c-1.6.6-2.8,1.6-2.5,2.2s1.7.7,3.2.3,2.6-1.4,2.5-2.2S105.5,203.1,103.8,203.7Z" transform="translate(-2.3 -4.6)"/><polygon class="cls-46" points="241.2 133.8 235.3 115.5 232.9 115.5 232.6 114.8 230.7 133.8 191.8 133.8 190 130.6 189.6 133.8 151.3 133.8 149.1 130.6 148.5 133.8 110.8 133.8 94.6 115.5 85.3 115.5 83.2 113.2 77.8 133.8 41 133.8 0 99.3 34.1 0 72 0 88.8 23.6 90.6 16.8 101 16.8 105.3 0 144.1 0 145.9 3.5 146.7 0 186.2 0 187.5 3.4 188.1 0 228.2 0 232.8 16.8 236.7 16.8 237.1 18.3 238.8 0 280 0 285.7 43 281.2 133.8 241.2 133.8"/><path class="cls-46" d="M567.6,138.4l-2.8-10.6-10.3,10.6H517.1l-.7-3.1-2.5,3.1H435.5l-.4-3-1.4,3H364l-4.4-90.8,5.6-43h71.6l.4,3.3,1.1-3.3h80.5l.8,3.6,2-3.6h38.5l3.7,13.1,9.3-13.1H611l34.2,99.3-41,34.5ZM427.9,76.2l-1-7.8-.4,1.1H412.6l.6,6.8h14.7Z" transform="translate(-2.3 -4.6)"/><polygon class="cls-46" points="281.3 133.8 275.9 97.7 280.2 0 363 0 364 22.8 359.4 64.8 354.1 64.8 353.5 71.6 366.1 71.6 367.2 97.7 361.8 133.8 281.3 133.8"/><polygon class="cls-46" points="99.7 63 100.7 59 93.9 49.5 95.5 43.2 69 5.8 63.8 22.7 71.3 32.6 69.1 40.2 84.9 60.4 80.3 77.5 79.9 77.5 63.7 58.4 52.8 58.4 40.9 97.4 73.3 127.9 80.2 101.4 87.9 109.7 107.6 109.7 111.7 92.1 121.3 92.1 99.7 63"/><polygon class="cls-46" points="120.4 97.4 143.6 127.9 159.5 43.2 140.5 5.8 120.4 97.4"/><polygon class="cls-46" points="166.6 97.4 184.5 127.9 196.8 43.2 182.1 5.8 166.6 97.4"/><polygon class="cls-46" points="233.3 50.6 240.3 75.2 241.7 59 232.2 22.7 231.1 32.7 223.7 5.8 221.7 22.7 232.4 59 233.3 50.6"/><polygon class="cls-46" points="234.2 77.5 228.4 58.4 217.5 58.4 212.9 97.4 225.4 127.9 229 92.1 231.2 92.1 237.1 109.7 247 109.7 237.4 77.5 234.2 77.5"/><polygon class="cls-46" points="269.7 97.4 275.6 127.9 279.8 43.2 274.9 5.8 269.7 97.4"/><polygon class="cls-46" points="596.1 77.5 585 77.5 579.4 58.4 569.8 58.4 584.7 40.2 574.1 5.8 547.6 43.2 555.7 74.2 543.5 89.2 523 5.8 501.9 43.2 519.6 127.9 545.5 97.4 544.2 92.1 550.8 92.1 555.2 109.7 565.1 109.7 569.9 127.9 602.2 97.4 596.1 77.5"/><polygon class="cls-46" points="474.3 22.7 457.9 59 467.2 59 475.7 109.7 495.3 77.5 484.7 22.7 474.3 22.7"/><polygon class="cls-46" points="428 43.2 438.5 127.9 453.8 97.4 440.5 5.8 428 43.2"/><polygon class="cls-46" points="400.5 22.7 392.1 59 420 59 431.8 22.7 400.5 22.7"/><polygon class="cls-46" points="363.4 43.2 367.5 127.9 373.5 97.4 368.3 5.8 363.4 43.2"/><polygon class="cls-46" points="316.2 40.2 316.5 58.4 316.1 58.4 316 77.5 316.6 109.7 316.7 92.1 345.7 92.1 348.7 59 354.2 59 358.1 22.7 316.4 22.7 316.2 40.2"/><polygon class="cls-47" points="6.8 97.4 43.1 127.9 73.3 127.9 40.9 97.4 6.8 97.4"/><polygon class="cls-47" points="6.8 97.4 43.1 127.9 73.3 127.9 40.9 97.4 6.8 97.4"/><polygon class="cls-47" points="132.5 97.4 154.3 127.9 184.5 127.9 166.6 97.4 132.5 97.4"/><polygon class="cls-47" points="132.5 97.4 154.3 127.9 184.5 127.9 166.6 97.4 132.5 97.4"/><polygon class="cls-47" points="178.8 97.4 195.3 127.9 225.4 127.9 212.9 97.4 178.8 97.4"/><polygon class="cls-47" points="178.8 97.4 195.3 127.9 225.4 127.9 212.9 97.4 178.8 97.4"/><polygon class="cls-47" points="235.6 97.4 245.5 127.9 275.6 127.9 269.7 97.4 235.6 97.4"/><polygon class="cls-47" points="235.6 97.4 245.5 127.9 275.6 127.9 269.7 97.4 235.6 97.4"/><polygon class="cls-47" points="545.5 97.4 519.6 127.9 549.8 127.9 579.5 97.4 545.5 97.4"/><polygon class="cls-47" points="545.5 97.4 519.6 127.9 549.8 127.9 579.5 97.4 545.5 97.4"/><polygon class="cls-47" points="602.2 97.4 569.9 127.9 600 127.9 636.3 97.4 602.2 97.4"/><polygon class="cls-47" points="602.2 97.4 569.9 127.9 600 127.9 636.3 97.4 602.2 97.4"/><polygon class="cls-47" points="453.8 97.4 438.5 127.9 508.9 127.9 533.3 97.4 453.8 97.4"/><polygon class="cls-47" points="453.8 97.4 438.5 127.9 508.9 127.9 533.3 97.4 453.8 97.4"/><polygon class="cls-47" points="373.5 97.4 367.5 127.9 427.8 127.9 441.6 97.4 373.5 97.4"/><polygon class="cls-47" points="373.5 97.4 367.5 127.9 427.8 127.9 441.6 97.4 373.5 97.4"/><polygon class="cls-47" points="286.4 127.9 356.7 127.9 361.3 97.4 281.8 97.4 286.4 127.9"/><polygon class="cls-47" points="286.4 127.9 356.7 127.9 361.3 97.4 281.8 97.4 286.4 127.9"/><polygon class="cls-47" points="58.1 77.2 87.9 109.5 107.6 109.7 80.3 77.2 58.1 77.2"/><polygon class="cls-47" points="58.1 77.2 87.9 109.5 107.6 109.7 80.3 77.2 58.1 77.2"/><polygon class="cls-47" points="86.3 97.4 113.4 127.9 143.6 127.9 120.4 97.4 86.3 97.4"/><polygon class="cls-47" points="86.3 97.4 113.4 127.9 143.6 127.9 120.4 97.4 86.3 97.4"/><polygon class="cls-47" points="6.8 97.4 43.1 127.9 73.3 127.9 40.9 97.4 6.8 97.4"/><polygon class="cls-47" points="132.5 97.4 154.3 127.9 184.5 127.9 166.6 97.4 132.5 97.4"/><polygon class="cls-47" points="178.8 97.4 195.3 127.9 225.4 127.9 212.9 97.4 178.8 97.4"/><polygon class="cls-47" points="235.6 97.4 245.5 127.9 275.6 127.9 269.7 97.4 235.6 97.4"/><polygon class="cls-47" points="545.5 97.4 519.6 127.9 549.8 127.9 579.5 97.4 545.5 97.4"/><polygon class="cls-47" points="602.2 97.4 569.9 127.9 600 127.9 636.3 97.4 602.2 97.4"/><polygon class="cls-47" points="453.8 97.4 438.5 127.9 508.9 127.9 533.3 97.4 453.8 97.4"/><polygon class="cls-47" points="373.5 97.4 367.5 127.9 427.8 127.9 441.6 97.4 373.5 97.4"/><polygon class="cls-47" points="286.4 127.9 356.7 127.9 361.3 97.4 281.8 97.4 286.4 127.9"/><polygon class="cls-48" points="58.1 77.2 87.9 109.5 107.6 109.7 80.3 77.2 58.1 77.2"/><polygon class="cls-47" points="86.3 97.4 113.4 127.9 143.6 127.9 120.4 97.4 86.3 97.4"/><polygon class="cls-49" points="109.9 6.6 105.5 21.3 95.1 21.3 90.4 39 69.1 39 74.3 21.3 63.8 21.3 69 6.6 38.3 6.6 6.8 97.8 40.9 97.8 52.8 59.6 63.7 59.6 58.1 77.2 80.3 77.2 85.5 59.6 96.3 59.6 86.3 97.8 120.4 97.8 140.5 6.6 109.9 6.6"/><polygon class="cls-50" points="151.5 6.6 132.5 97.8 166.6 97.8 182.1 6.6 151.5 6.6"/><polygon class="cls-51" points="241 39 230.3 39 232.2 21.3 221.7 21.3 223.7 6.6 193.1 6.6 178.8 97.8 212.9 97.8 217.5 59.6 228.4 59.6 226.3 77.2 237.4 77.2 235.6 97.8 269.7 97.8 274.9 6.6 244.2 6.6 241 39"/><polygon class="cls-52" points="604.8 6.6 574.1 6.6 584.7 39 574 39 568.9 21.3 558.4 21.3 553.7 6.6 523 6.6 545.5 97.8 579.5 97.8 568.5 59.6 579.4 59.6 585 77.2 596.1 77.2 602.2 97.8 636.3 97.8 604.8 6.6"/><path class="cls-53" d="M442.8,11.2,456,102.3h79.5L514.3,11.2Zm43.7,70.6-10-55.9H487l10.7,55.9Z" transform="translate(-2.3 -4.6)"/><polygon class="cls-54" points="405.7 77.2 400.5 21.3 431.8 21.3 429.6 6.6 368.3 6.6 373.5 97.8 441.6 97.8 439 77.2 405.7 77.2"/><polygon class="cls-55" points="316 77.2 316.1 59.6 348.7 59.6 348.2 39 316.2 39 316.4 21.3 358.1 21.3 357.3 6.6 285.8 6.6 281.8 97.8 361.3 97.8 360.5 77.2 316 77.2"/><polygon class="cls-49" points="109.9 6.6 105.5 21.3 95.1 21.3 90.4 39 69.1 39 74.3 21.3 63.8 21.3 69 6.6 38.3 6.6 6.8 97.8 40.9 97.8 52.8 59.6 63.7 59.6 58.1 77.2 80.3 77.2 85.5 59.6 96.3 59.6 86.3 97.8 120.4 97.8 140.5 6.6 109.9 6.6"/><polygon class="cls-50" points="151.5 6.6 132.5 97.8 166.6 97.8 182.1 6.6 151.5 6.6"/><polygon class="cls-51" points="241 39 230.3 39 232.2 21.3 221.7 21.3 223.7 6.6 193.1 6.6 178.8 97.8 212.9 97.8 217.5 59.6 228.4 59.6 226.3 77.2 237.4 77.2 235.6 97.8 269.7 97.8 274.9 6.6 244.2 6.6 241 39"/><polygon class="cls-52" points="604.8 6.6 574.1 6.6 584.7 39 574 39 568.9 21.3 558.4 21.3 553.7 6.6 523 6.6 545.5 97.8 579.5 97.8 568.5 59.6 579.4 59.6 585 77.2 596.1 77.2 602.2 97.8 636.3 97.8 604.8 6.6"/><path class="cls-53" d="M442.8,11.2,456,102.3h79.5L514.3,11.2Zm43.7,70.6-10-55.9H487l10.7,55.9Z" transform="translate(-2.3 -4.6)"/><polygon class="cls-54" points="405.7 77.2 400.5 21.3 431.8 21.3 429.6 6.6 368.3 6.6 373.5 97.8 441.6 97.8 439 77.2 405.7 77.2"/><polygon class="cls-55" points="316 77.2 316.1 59.6 348.7 59.6 348.2 39 316.2 39 316.4 21.3 358.1 21.3 357.3 6.6 285.8 6.6 281.8 97.8 361.3 97.8 360.5 77.2 316 77.2"/><g class="cls-56"><polygon class="cls-57" points="109.9 6.6 105.5 21.3 95.1 21.3 90.4 39 69.1 39 74.3 21.3 63.8 21.3 69 6.6 38.3 6.6 6.8 97.8 40.9 97.8 52.8 59.6 63.7 59.6 58.1 77.2 80.3 77.2 85.5 59.6 96.3 59.6 86.3 97.8 120.4 97.8 140.5 6.6 109.9 6.6"/><polygon class="cls-58" points="151.5 6.6 132.5 97.8 166.6 97.8 182.1 6.6 151.5 6.6"/><polygon class="cls-59" points="241 39 230.3 39 232.2 21.3 221.7 21.3 223.7 6.6 193.1 6.6 178.8 97.8 212.9 97.8 217.5 59.6 228.4 59.6 226.3 77.2 237.4 77.2 235.6 97.8 269.7 97.8 274.9 6.6 244.2 6.6 241 39"/><polygon class="cls-60" points="604.8 6.6 574.1 6.6 584.7 39 574 39 568.9 21.3 558.4 21.3 553.7 6.6 523 6.6 545.5 97.8 579.5 97.8 568.5 59.6 579.4 59.6 585 77.2 596.1 77.2 602.2 97.8 636.3 97.8 604.8 6.6"/><path class="cls-61" d="M442.8,11.2,456,102.3h79.5L514.3,11.2Zm43.7,70.6-10-55.9H487l10.7,55.9Z" transform="translate(-2.3 -4.6)"/><polygon class="cls-62" points="405.7 77.2 400.5 21.3 431.8 21.3 429.6 6.6 368.3 6.6 373.5 97.8 441.6 97.8 439 77.2 405.7 77.2"/><polygon class="cls-63" points="316 77.2 316.1 59.6 348.7 59.6 348.2 39 316.2 39 316.4 21.3 358.1 21.3 357.3 6.6 285.8 6.6 281.8 97.8 361.3 97.8 360.5 77.2 316 77.2"/><polygon class="cls-57" points="109.9 6.6 105.5 21.3 95.1 21.3 90.4 39 69.1 39 74.3 21.3 63.8 21.3 69 6.6 38.3 6.6 6.8 97.8 40.9 97.8 52.8 59.6 63.7 59.6 58.1 77.2 80.3 77.2 85.5 59.6 96.3 59.6 86.3 97.8 120.4 97.8 140.5 6.6 109.9 6.6"/><polygon class="cls-58" points="151.5 6.6 132.5 97.8 166.6 97.8 182.1 6.6 151.5 6.6"/><polygon class="cls-59" points="241 39 230.3 39 232.2 21.3 221.7 21.3 223.7 6.6 193.1 6.6 178.8 97.8 212.9 97.8 217.5 59.6 228.4 59.6 226.3 77.2 237.4 77.2 235.6 97.8 269.7 97.8 274.9 6.6 244.2 6.6 241 39"/><polygon class="cls-60" points="604.8 6.6 574.1 6.6 584.7 39 574 39 568.9 21.3 558.4 21.3 553.7 6.6 523 6.6 545.5 97.8 579.5 97.8 568.5 59.6 579.4 59.6 585 77.2 596.1 77.2 602.2 97.8 636.3 97.8 604.8 6.6"/><path class="cls-61" d="M442.8,11.2,456,102.3h79.5L514.3,11.2Zm43.7,70.6-10-55.9H487l10.7,55.9Z" transform="translate(-2.3 -4.6)"/><polygon class="cls-62" points="405.7 77.2 400.5 21.3 431.8 21.3 429.6 6.6 368.3 6.6 373.5 97.8 441.6 97.8 439 77.2 405.7 77.2"/><polygon class="cls-63" points="316 77.2 316.1 59.6 348.7 59.6 348.2 39 316.2 39 316.4 21.3 358.1 21.3 357.3 6.6 285.8 6.6 281.8 97.8 361.3 97.8 360.5 77.2 316 77.2"/></g><path class="cls-64" d="M13.7,101.2c-2.4,0-4.2.5-3.9,1s2.4.9,4.9.9h5.7c2.4,0,4.6-.5,4.9-1s-1.5-1-3.9-.9Z" transform="translate(-2.3 -4.6)"/><path class="cls-64" d="M34.4,101.2c-2.4.1-4.2.5-4,1s2.3.9,4.8.9h2.6c2.4,0,4.6-.5,4.8-1s-1.6-1-4-.9Z" transform="translate(-2.3 -4.6)"/><path class="cls-64" d="M93,101.2c-2.4,0-4,.4-3.4.9s2.9.9,5.4.9h21.4c2.4,0,4.8-.5,5.4-1s-1-1-3.4-1Z" transform="translate(-2.3 -4.6)"/><path class="cls-64" d="M139.3,101.2c-2.4,0-4,.4-3.4.9s3,.9,5.4.9h21.4c2.4,0,4.8-.5,5.4-1s-1-1-3.4-1Z" transform="translate(-2.3 -4.6)"/><path class="cls-64" d="M185.7,101.2c-2.4.1-4.2.5-4,1s2.4.9,4.8.9h2.7c2.4,0,4.6-.5,4.8-1s-1.6-1-4-.9Z" transform="translate(-2.3 -4.6)"/><path class="cls-64" d="M201.4,101.2c-2.4,0-4.2.5-3.9.9s2.5.9,4.9.9H210c2.4,0,4.6-.5,4.9-1s-1.5-1-3.9-1Z" transform="translate(-2.3 -4.6)"/><path class="cls-64" d="M242.3,101.2c-2.4,0-4,.4-3.4.9s3,.9,5.4.9h21.4c2.4,0,4.8-.5,5.4-1s-1-1-3.4-1Z" transform="translate(-2.3 -4.6)"/><path class="cls-64" d="M288.5,101.2c-2.4,0-4.2.5-3.9.9s2.5.9,4.9.9h7.9c2.4,0,4.6-.5,4.9-1s-1.5-1-3.9-1Z" transform="translate(-2.3 -4.6)"/><path class="cls-64" d="M311.3,101.3c-2.4,0-3.7.4-2.8.9a20.29,20.29,0,0,0,6,.9H356a16.32,16.32,0,0,0,6-1c.9-.5-.4-1-2.8-1Z" transform="translate(-2.3 -4.6)"/><path class="cls-64" d="M380.4,101.3c-2.4,0-3.5.4-2.5.9a19.49,19.49,0,0,0,6.3.8l51.4-.2a16.73,16.73,0,0,0,6.3-1.1c1.1-.6-.1-1-2.5-1Z" transform="translate(-2.3 -4.6)"/><path class="cls-64" d="M460.7,101.3c-2.4,0-3.4.4-2.1.9a21.6,21.6,0,0,0,6.7.8l61.6-.2a19.22,19.22,0,0,0,6.7-1.1c1.2-.6.3-1-2.2-1Z" transform="translate(-2.3 -4.6)"/><path class="cls-64" d="M552.3,101.3c-2.4,0-4,.5-3.4.9a12.54,12.54,0,0,0,5.4.8l21.3-.1c2.4,0,4.8-.5,5.4-1s-1-1-3.4-1Z" transform="translate(-2.3 -4.6)"/><path class="cls-64" d="M609,101.3c-2.4.1-4.2.5-3.9,1s2.5.9,4.9.8h6.2c2.4,0,4.6-.5,4.9-1s-1.5-1-3.9-.9Z" transform="translate(-2.3 -4.6)"/><path class="cls-64" d="M630.1,101.2c-2.4.1-4.2.5-4,1s2.3.9,4.8.8h2.6c2.4,0,4.6-.5,4.8-1s-1.6-1-4-.9Z" transform="translate(-2.3 -4.6)"/><path class="cls-65" d="M64.8,81c-2.4,0-4.1.4-3.8.9s2.6.9,5,.9H77.2c2.4,0,4.7-.5,5-1s-1.3-1-3.8-1Z" transform="translate(-2.3 -4.6)"/><path class="cls-65" d="M224.1,62.2c-2.4.1-4.2.5-4.1,1s2.3.9,4.7.9h1.5c2.4,0,4.6-.5,4.7-1s-1.6-1-4.1-.9Z" transform="translate(-2.3 -4.6)"/><path class="cls-65" d="M233.5,80c-2.4.1-4.2.5-4.1,1s2.3.9,4.7.9h1.5c2.4,0,4.6-.5,4.7-1s-1.6-1-4.1-.9Z" transform="translate(-2.3 -4.6)"/><path class="cls-65" d="M322.8,62.3c-2.4,0-4,.4-3.5.9s2.9.9,5.3.9h19.9c2.4,0,4.8-.5,5.3-1s-1.1-1-3.5-1Z" transform="translate(-2.3 -4.6)"/><path class="cls-65" d="M322.8,25.4c-2.4.1-4.2.5-4,1s2.4.9,4.8.9h4.3c2.4,0,4.6-.5,4.8-1s-1.6-1-4-.9Z" transform="translate(-2.3 -4.6)"/><path class="cls-65" d="M341.1,25.5c-2.4,0-4.1.5-3.7.9s2.7.9,5.1.9h12.6c2.4,0,4.7-.5,5.1-1s-1.3-1-3.7-1Z" transform="translate(-2.3 -4.6)"/><path class="cls-65" d="M407.4,24.5c-2.4,0-4,.4-3.5.9s2.8.9,5.3.9h18.5c2.4,0,4.8-.5,5.3-1s-1.1-1-3.5-1Z" transform="translate(-2.3 -4.6)"/><path class="cls-65" d="M481,24.4c-2.4.1-4.3.5-4.1,1s2.3.9,4.7.9h.5c2.4,0,4.5-.5,4.7-1s-1.7-1-4.1-.9Z" transform="translate(-2.3 -4.6)"/><path class="cls-65" d="M575.3,62.2c-2.4.1-4.3.5-4.1,1s2.3.9,4.7.9h.5c2.4,0,4.5-.5,4.7-1s-1.7-1-4.1-.9Z" transform="translate(-2.3 -4.6)"/><path class="cls-65" d="M591.4,79.8c-2.4.1-4.3.5-4.1,1s2.3.9,4.7.9h.5c2.4,0,4.5-.5,4.7-1s-1.7-1-4.1-.9Z" transform="translate(-2.3 -4.6)"/><path class="cls-65" d="M58.6,62.2c-2.4.1-4.2.5-4.1,1s2.3.9,4.7.9h1.4c2.4,0,4.5-.5,4.7-1s-1.7-1-4.1-.9Z" transform="translate(-2.3 -4.6)"/><path class="cls-65" d="M91,62.2c-2.4.1-4.2.5-4.1,1s2.3.9,4.7.9H93c2.4,0,4.6-.5,4.7-1s-1.6-1-4.1-.9Z" transform="translate(-2.3 -4.6)"/><path class="cls-46" d="M196,94.1l-1.1,4.7a31.62,31.62,0,0,0-.5,8.7v.2c.3,2.4,1,2.6,1.6.4l1.1-4" transform="translate(-2.3 -4.6)"/><path class="cls-46" d="M179.1,47.5l-3.7.9c-2,.5-2.1,1.2-.1,1.6l3.6.7" transform="translate(-2.3 -4.6)"/><path class="cls-46" d="M94.7,73h4.4c2.4,0,2.5.5.1,1.1l-5.8,1.6" transform="translate(-2.3 -4.6)"/><path class="cls-46" d="M28.6,96.7,27,99.4a5.25,5.25,0,0,0,.7,5.5c1.2,1.5,2.2,1.6,2.2.1v-2.7" transform="translate(-2.3 -4.6)"/><path class="cls-46" d="M71.1,17.1H68.2c-1.6,0-1.6.7,0,1.5l2.9,1.5" transform="translate(-2.3 -4.6)"/><path class="cls-46" d="M139.9,32.3l-4,1.4c-2.2.7-2,1.6.4,1.8l4.7.5" transform="translate(-2.3 -4.6)"/><path class="cls-46" d="M276.9,58.3h-4.4c-2.4,0-2.5.7-.3,1.6l5.7,2.2" transform="translate(-2.3 -4.6)"/><path class="cls-46" d="M302.7,103.1l.7-2.5c.4-1.4,1.5-1.5,2.3-.3a12,12,0,0,1,1.2,6.4l-.4,4.2" transform="translate(-2.3 -4.6)"/><path class="cls-46" d="M408.4,37.7l-5.1,2.4c-2.2,1-2,2.2.4,2.6l5.5.9" transform="translate(-2.3 -4.6)"/><path class="cls-46" d="M371,87.7h6.3c2.4,0,2.8,1.2.8,2.6l-5.4,3.9" transform="translate(-2.3 -4.6)"/><path class="cls-46" d="M332.1,30.6l1.3-4.4c.7-2.3,1.7-2.7,2.3-.9l1.1,3.3" transform="translate(-2.3 -4.6)"/><path class="cls-46" d="M542.1,89.6l3.4-1c1.9-.5,2.6.5,1.7,2.2L545.5,94" transform="translate(-2.3 -4.6)"/><path class="cls-46" d="M453.4,90.9l2.9,1.3c1.6.7,1.6,2.3,0,3.4l-2.9,2.1" transform="translate(-2.3 -4.6)"/><path class="cls-46" d="M485.7,37.7h4.4c2.4,0,2.6.9.4,1.9L485.6,42" transform="translate(-2.3 -4.6)"/><path class="cls-46" d="M576.1,31.1l-4.9,2c-2.2.9-2.1,1.7.3,1.7h5.3" transform="translate(-2.3 -4.6)"/><path class="cls-46" d="M621.3,97.8l.1,2.1c.1,1.2-.9,3.4-2.1,4.9s-.5,1.8,1.6.7l4.7-2.5" transform="translate(-2.3 -4.6)"/><path class="cls-66" d="M26.4,104.5c-1.2-1.2-1.9-1-1.5.6s2.4,3.5,4.4,4.4,2.8.6,1.5-.6Z" transform="translate(-2.3 -4.6)"/><path class="cls-66" d="M191.7,105.3v1.5a6.58,6.58,0,0,0,2,3.4c1.1,1,1.7.9,1.3-.2l-.6-2.1" transform="translate(-2.3 -4.6)"/><path class="cls-66" d="M304.5,110.5c-.9-.7-.7.5.4,2.7,0,0,.7,1.5,1.2,1.1a2.34,2.34,0,0,0,.7-.7c1.3-2,1.7-3.3.8-2.8A2.91,2.91,0,0,1,304.5,110.5Z" transform="translate(-2.3 -4.6)"/><polygon class="cls-47" points="452 89.5 448.2 95.1 451.1 87 452 89.5"/><polygon class="cls-47" points="371.3 83.9 369.4 91 372.3 86.3 371.3 83.9"/><polygon class="cls-47" points="332.9 24 332.1 30.4 335.4 25.4 332.9 24"/><polygon class="cls-47" points="485.9 34 484.7 41.7 486.6 37.8 485.9 34"/><polygon class="cls-47" points="540.3 84.9 537.5 93.7 541.7 88.1 540.3 84.9"/><path class="cls-66" d="M623.2,106.1c.9-.8-.2-.6-2.3.4s-2.8,1.7-1.6,1.4A9.9,9.9,0,0,0,623.2,106.1Z" transform="translate(-2.3 -4.6)"/></svg>