<svg id="LOGO" xmlns="http://www.w3.org/2000/svg" viewBox="0 0 605.29467 509.24409">
  <g>
    <path d="M1209.67849,287.26239l-565.204,0a19.99924,19.99924,0,0,0-19.99924,19.99535l-.09221,469.2456a19.99925,19.99925,0,0,0,19.99925,20.00314h565.29617a19.99925,19.99925,0,0,0,19.99925-19.99924V307.26164A19.99925,19.99925,0,0,0,1209.67849,287.26239Z" transform="translate(-624.38307 -287.26237)" fill="#ef323d"/>
    <g>
      <g>
        <path d="M787.90243,706.32892H743.80215a2.02519,2.02519,0,0,0-2.02525,2.02526v10.11148a2.02519,2.02519,0,0,0,2.02525,2.02525h12.102a2.02524,2.02524,0,0,1,2.02525,2.02526v35.986a2.02528,2.02528,0,0,0,2.02526,2.02525h11.79575a2.02524,2.02524,0,0,0,2.02526-2.02525v-35.986a2.02528,2.02528,0,0,1,2.02525-2.02526h12.10151a2.02519,2.02519,0,0,0,2.02525-2.02525V708.35418A2.02519,2.02519,0,0,0,787.90243,706.32892Z" transform="translate(-624.38307 -287.26237)" fill="#fff"/>
        <path d="M933.75761,706.32892H916.87492a2.02519,2.02519,0,0,0-2.02525,2.02526v50.148a2.02523,2.02523,0,0,0,2.02525,2.02525H933.6814c19.13748,0,31.07947-10.41112,31.07947-27.25239C964.76087,716.74005,953.27859,706.32892,933.75761,706.32892Zm-.78624,40.34274h-.74255a2.04191,2.04191,0,0,1-2.05821-2.02525V722.20992a2.04191,2.04191,0,0,1,2.05821-2.02525h.89845c10.26924,0,15.48158,3.981,15.48158,13.09034C948.60885,742.69118,943.39651,746.67166,932.97137,746.67166Z" transform="translate(-624.38307 -287.26237)" fill="#fff"/>
        <rect x="379.84998" y="419.06656" width="16.20941" height="54.19848" rx="2.02525" fill="#fff"/>
        <path d="M873.33114,706.32892H861.76493a2.02523,2.02523,0,0,0-2.02525,2.02526v26.91134c0,9.03317-2.44967,12.17154-8.49681,12.17154-6.0477,0-8.49731-3.13837-8.49731-12.17154V708.35418a2.02523,2.02523,0,0,0-2.02525-2.02526H829.1541a2.02523,2.02523,0,0,0-2.02525,2.02526v28.44215c0,16.61173,7.42565,25.18573,24.114,25.18573,16.22871,0,24.11352-9.03316,24.11352-25.26243V708.35418A2.02523,2.02523,0,0,0,873.33114,706.32892Z" transform="translate(-624.38307 -287.26237)" fill="#fff"/>
        <path d="M691.98331,727.76317c-1.67446-.7175-6.27831-2.62854-6.90928-2.83348-4.47633-1.45388-4.68824-3.58228-3.94423-5.63113s3.75824-2.95912,6.63835-1.78833c1.54614.62853,5.38255,4.10741,5.80006,4.51483a2.13164,2.13164,0,0,0,1.0587.67018h.00006a1.81176,1.81176,0,0,0,1.457-.321l8.43351-6.2946a1.822,1.822,0,0,0,.31462-2.61761c-4.59077-5.5467-11.24387-8.58782-19.126-8.58782-11.63622,0-20.28637,7.04322-20.28637,16.15253,0,7.95634,3.55673,12.66055,12.88045,16.71188,2.411.85106,5.51515,2.11835,6.75676,2.48361,5.43231,1.59832,5.64052,4.31,4.74546,6.775s-4.507,3.52329-7.98694,2.15162c-2.42877-.95733-6.23239-4.632-6.49751-5.0003a1.81823,1.81823,0,0,0-.98959-.60146l-.02708-.00575a1.81181,1.81181,0,0,0-1.41016.28716l-8.4864,5.92218a1.8215,1.8215,0,0,0-.39893,2.60375c4.90789,6.3473,12.09921,9.70374,20.47524,9.70374,12.47776,0,21.3581-7.73134,21.3581-18.2192C705.8391,736.94976,702.08769,732.0505,691.98331,727.76317Z" transform="translate(-624.38307 -287.26237)" fill="#fff"/>
        <path d="M1087.56366,704.87426a28.55318,28.55318,0,1,0,28.55318,28.55318A28.55317,28.55317,0,0,0,1087.56366,704.87426Zm0,41.2955a12.74233,12.74233,0,1,1,12.74233-12.74232A12.75674,12.75674,0,0,1,1087.56366,746.16976Z" transform="translate(-624.38307 -287.26237)" fill="#fff"/>
        <path d="M1178.046,727.76317c-1.67445-.7175-6.27831-2.62854-6.90928-2.83348-4.47632-1.45388-4.68823-3.58228-3.94422-5.63113s3.75824-2.95912,6.63834-1.78833c1.54614.62853,5.38256,4.10741,5.80007,4.51483a2.13158,2.13158,0,0,0,1.05869.67018h.00007a1.81176,1.81176,0,0,0,1.457-.321l8.43351-6.2946a1.822,1.822,0,0,0,.31462-2.61761c-4.59078-5.5467-11.24388-8.58782-19.126-8.58782-11.63622,0-20.28638,7.04322-20.28638,16.15253,0,7.95634,3.55674,12.66055,12.88046,16.71188,2.411.85106,5.51514,2.11835,6.75676,2.48361,5.43231,1.59832,5.64052,4.31,4.74546,6.775s-4.507,3.52329-7.98694,2.15162c-2.42877-.95733-6.2324-4.632-6.49752-5.0003a1.81816,1.81816,0,0,0-.98958-.60146l-.02708-.00575a1.81183,1.81183,0,0,0-1.41017.28716l-8.48639,5.92218a1.82149,1.82149,0,0,0-.39893,2.60375c4.90789,6.3473,12.09921,9.70374,20.47524,9.70374,12.47776,0,21.3581-7.73134,21.3581-18.2192C1191.90179,736.94976,1188.15038,732.0505,1178.046,727.76317Z" transform="translate(-624.38307 -287.26237)" fill="#fff"/>
      </g>
      <g>
        <path d="M938.42238,325.22987a81.997,81.997,0,1,0,81.997,81.997A81.997,81.997,0,0,0,938.42238,325.22987Zm0,121.99554a39.99854,39.99854,0,1,1,39.99854-39.99854A40.04382,40.04382,0,0,1,938.42238,447.22541Z" transform="translate(-624.38307 -287.26237)" fill="#fff"/>
        <path d="M1185.67988,327.22975H1073.684a3.99986,3.99986,0,0,0-3.99986,3.99986v31.99883a3.99986,3.99986,0,0,0,3.99986,3.99985h75.99722v69.99683a9.99966,9.99966,0,0,1-9.99964,9.99963l.00013.00061h-29.999a40.05387,40.05387,0,0,1-39.83924-36.41349,3.96391,3.96391,0,0,0-3.96214-3.585h-32.079a3.97814,3.97814,0,0,0-4.00926,4.18262,80.00044,80.00044,0,0,0,79.88966,75.81445h35.99868a3.99985,3.99985,0,0,0,3.99986-3.99985V467.22434a19.99924,19.99924,0,0,1,19.99958-19.99924l15.9991.00026a3.99979,3.99979,0,0,0,3.99986-3.99978v-111.996A3.99986,3.99986,0,0,0,1185.67988,327.22975Z" transform="translate(-624.38307 -287.26237)" fill="#fff"/>
        <path d="M825.198,367.22829a19.99924,19.99924,0,0,1-19.99921-20.03881l.03157-15.95987a3.99986,3.99986,0,0,0-3.99985-3.99986H669.23536a3.99985,3.99985,0,0,0-3.99985,3.99986V483.22405a3.99985,3.99985,0,0,0,3.99985,3.99985h31.99883a3.99985,3.99985,0,0,0,3.99986-3.99985V377.223a9.99962,9.99962,0,0,1,9.99962-9.99962h9.99966A9.99962,9.99962,0,0,1,735.233,377.223v65.90054a3.99985,3.99985,0,0,0,3.99985,3.99986h31.99883a3.99986,3.99986,0,0,0,3.99986-3.99986V377.223a9.99962,9.99962,0,0,1,9.99962-9.99962H795.186a9.99962,9.99962,0,0,1,9.99962,9.9954l.04473,106.00523a3.99985,3.99985,0,0,0,3.99985,3.99985h31.99883a3.99985,3.99985,0,0,0,3.99986-3.99985V371.22814a3.99985,3.99985,0,0,0-3.99986-3.99985Z" transform="translate(-624.38307 -287.26237)" fill="#fff"/>
        <path d="M853.79554,507.24742H965.79145a3.99986,3.99986,0,0,1,3.99985,3.99986v15.97806a19.99925,19.99925,0,0,0,19.97255,19.99923l16.02613.02139a3.99982,3.99982,0,0,1,3.99986,3.99985V663.24172a3.99985,3.99985,0,0,1-3.99986,3.99985H973.79115a3.99985,3.99985,0,0,1-3.99985-3.99985V557.245a9.99924,9.99924,0,0,0-9.99353-9.999h-60.01a9.99924,9.99924,0,0,0-9.99353,9.999V663.24172a3.99985,3.99985,0,0,1-3.99986,3.99985H853.79554a3.99985,3.99985,0,0,1-3.99985-3.99985V511.24728A3.99985,3.99985,0,0,1,853.79554,507.24742Z" transform="translate(-624.38307 -287.26237)" fill="#fff"/>
        <path d="M821.2298,547.246l-16.0778-.063a19.99924,19.99924,0,0,1-19.92088-19.99909V511.24727a3.99985,3.99985,0,0,0-3.99985-3.99985H745.23258a79.99707,79.99707,0,0,0-79.99707,79.99708v75.99722a3.99985,3.99985,0,0,0,3.99985,3.99985h31.99883a3.99986,3.99986,0,0,0,3.99986-3.99985V587.2445A39.99853,39.99853,0,0,1,745.23258,547.246h30.005a9.99924,9.99924,0,0,1,9.99353,9.999v19.99927a9.99966,9.99966,0,0,1-9.99963,9.99964l.00012.00061H731.2331a3.99985,3.99985,0,0,0-3.99986,3.99985v31.99883a3.99985,3.99985,0,0,0,3.99986,3.99985h44.00449a9.99925,9.99925,0,0,1,9.99353,9.999v25.99966a3.99986,3.99986,0,0,0,3.99985,3.99985H821.2298a3.99986,3.99986,0,0,0,3.99986-3.99985V551.24581A3.99982,3.99982,0,0,0,821.2298,547.246Z" transform="translate(-624.38307 -287.26237)" fill="#fff"/>
        <path d="M1108.55634,547.24721H1185.681a3.99955,3.99955,0,0,0,4-4V511.2474a4.00014,4.00014,0,0,0-4-4h-77.05356c-34.26985,0-65.04069,22.00184-75.08665,54.76571-16.389,53.45474,21.6449,102.54247,71.96862,105.12745a3.97676,3.97676,0,0,0,4.172-4.01V637.24675a10.00038,10.00038,0,0,1,9.994-10h20.01186a10.00039,10.00039,0,0,1,9.994,10V663.2476a4.00016,4.00016,0,0,0,4,4H1185.681a4.00016,4.00016,0,0,0,4-4V591.247a4.00014,4.00014,0,0,0-4-4h-71.99963a4.00013,4.00013,0,0,0-4,4v21.12788a11.36812,11.36812,0,0,1-13.33392,11.21491,25.85591,25.85591,0,0,1-11.4248-4.96322c-12.94215-10.24649-19.44667-28.28485-12.26807-46.97047a38.38187,38.38187,0,0,1,35.90179-24.40888" transform="translate(-624.38307 -287.26237)" fill="#fff"/>
      </g>
    </g>
  </g>
</svg>
