<svg xmlns="http://www.w3.org/2000/svg" viewBox="0 0 6600 1024">
    <path fill="#db1f29" d="M1018.7 5.3H294.6C133.1 5.3 1.8 136.7 1.8 298.1V1024h725.9c161.5 0 292.8-131.3 292.8-292.8V5.3h-1.8z"/>
    <path fill="#fff" d="M289.3 548.4c0-166.8 186.3-237.8 347.8-129.6 129.6 87 129.6 173.9 129.6 173.9l87 42.6s-24.8-365.6-87-303.5c-94.1 94.1-173.9-253.8-173.9 0 0 0-87-87-173.9-87h-174s-87 0-87 87v434.8s0 87 87 87c.1 0 433 0 521.8-1.8 87 0 87-87 87-87S289.3 889.1 289.3 548.4z"/>
    <path fill="#fff" d="M720.5 289.3c23.1 0 42.6-17.7 42.6-42.6 0-23.1-17.7-129.6-42.6-129.6-23.1 0-42.6 104.7-42.6 129.6 0 23.1 19.6 42.6 42.6 42.6z"/>
    <path d="M1607.9 465L1304.4 17.7h-140.2v988.6h175.7V379.8L1560 706.3h95.8l220.1-326.5v626.5h173.9V17.7h-138.5zM2656.7 1.8c-134.9 0-266.2 55-360.3 150.8-94.1 97.6-147.3 225.4-147.3 360.3 0 133.1 51.5 262.7 147.3 360.3S2520 1024 2656.7 1024c136.7 0 266.2-53.2 360.3-150.8s147.3-225.4 147.3-360.3c0-133.1-51.5-262.7-147.3-360.3S2791.6 1.8 2656.7 1.8zM2891 747.1c-60.3 63.9-147.3 99.4-234.3 99.4s-170.4-35.5-232.5-99.4c-62.1-60.3-97.6-143.8-97.6-234.3s33.7-173.9 97.6-236c62.1-63.9 145.5-99.4 232.5-99.4 88.7 0 173.9 37.3 234.3 97.6 62.1 62.1 95.8 147.3 95.8 236 0 90.6-33.7 174-95.8 236.1zm307-564.3h365.6v394c0 161.5-56.8 262.7-346.1 262.7H3198v166.8h17.7c365.6 0 521.8-127.8 521.8-429.5V19.5H3198v163.3zM4158.1 5.3l-395.8 1000.9h188.1l92.3-239.6H4403l90.5 239.6h186.3L4284.1 5.3h-126zm-49.7 594.5l115.4-303.5 115.4 303.5h-230.8zM5315.2 646l-433-628.3h-134.9v988.6h173.9v-623l431.3 623h136.6V17.7h-173.9zM6593 434.8l-1.8-16h-551.9v177.5H6412c-16 58.6-44.4 110-87 152.6-60.3 63.9-147.3 99.4-234.3 99.4s-170.4-35.5-232.5-99.4c-62.1-60.3-97.6-143.8-97.6-234.3s33.7-173.9 97.6-236c62.1-63.9 145.5-99.4 232.5-99.4s172.1 37.3 234.3 99.4c1.8 3.5 5.3 7.1 8.9 10.6l8.9 10.6h209.4l-14.2-28.4c-23.1-44.4-53.2-83.4-87-118.9C6355.2 55 6225.6 1.8 6090.8 1.8s-266.2 55-360.3 150.8c-94.1 97.6-147.3 225.4-147.3 360.3 0 133.1 51.5 262.7 147.3 360.3s223.6 150.8 360.3 150.8c136.7 0 266.2-53.2 360.3-149.1 94.1-97.6 147.3-225.4 147.3-360.3-.1-26.6-1.9-53.2-5.4-79.8z"/>
</svg>
