<svg version="1.1" xmlns="http://www.w3.org/2000/svg" width="6600" height="1024" viewBox="0 0 6600 1024">
<path fill="#db1f29" d="M1018.676 5.324h-724.076c-161.497 0-292.825 131.328-292.825 292.825v725.851h725.851c161.497 0 292.825-131.328 292.825-292.825v-725.851h-1.775z"></path>
<path fill="#fff" d="M244.908 853.629c-86.96 0-86.96-86.96-86.96-86.96v-434.801c0-86.96 86.96-86.96 86.96-86.96h173.92c86.96 0 173.92 86.96 173.92 86.96s86.96 0 0 0c0-253.782 79.861 94.059 173.92 0 62.114-62.114 86.96 303.473 86.96 303.473l-86.96-42.593s0-86.96-129.553-173.92c-161.497-108.256-347.841-37.269-347.841 129.553 0 340.742 564.354 216.513 564.354 216.513s0 86.96-86.96 86.96c-88.735 1.775-521.761 1.775-521.761 1.775z"></path>
<path fill="#fff" d="M677.934 246.683c0-24.846 19.522-129.553 42.593-129.553 24.846 0 42.593 106.482 42.593 129.553 0 24.846-19.522 42.593-42.593 42.593s-42.593-19.522-42.593-42.593zM1875.854 1006.253v-626.468l-220.062 326.544h-95.834l-220.062-326.544v626.468h-175.695v-988.506h140.201l303.473 447.224 303.473-447.224h138.426v988.506zM2656.721 1024c-136.652 0-264.43-53.241-360.263-150.849s-147.3-227.161-147.3-360.263c0-134.877 53.241-262.655 147.3-360.263 94.059-95.834 225.386-150.849 360.263-150.849s264.43 53.241 360.263 150.849 147.3 227.161 147.3 360.263c0 134.877-53.241 262.655-147.3 360.263s-223.612 150.849-360.263 150.849zM2656.721 177.47c-86.96 0-170.371 35.494-232.485 99.383-63.889 62.114-97.608 145.525-97.608 236.035s35.494 173.92 97.608 234.26c62.114 63.889 145.525 99.383 232.485 99.383s173.92-35.494 234.26-99.383c62.114-62.114 95.834-145.525 95.834-236.035 0-88.735-33.719-173.92-95.834-236.035-60.34-60.34-145.525-97.608-234.26-97.608zM3198.003 1006.253v-166.821h19.522c289.276 0 346.066-101.158 346.066-262.655v-393.983h-365.588v-163.272h539.508v557.255c0 301.698-156.173 429.477-521.761 429.477h-17.747zM4493.532 1006.253l-90.51-239.584h-360.263l-92.284 239.584h-188.118l395.757-1000.929h126.003l395.757 1000.929h-186.343zM4339.133 599.847l-115.355-303.473-115.355 303.473h230.711zM5352.485 1006.253l-431.251-622.919v622.919h-173.92v-988.506h134.877l433.026 628.243v-628.243h173.92v988.506zM6090.759 1024c-136.652 0-264.43-53.241-360.263-150.849s-147.3-227.161-147.3-360.263c0-134.877 53.241-262.655 147.3-360.263 94.059-95.834 225.386-150.849 360.263-150.849s264.43 53.241 360.263 150.849c33.719 35.494 63.889 74.537 86.96 118.905l14.198 28.395h-209.414l-8.873-10.648c-3.549-3.549-7.099-7.099-8.873-10.648-62.114-62.114-147.3-99.383-234.26-99.383s-170.371 35.494-232.485 99.383c-63.889 62.114-97.608 145.525-97.608 236.035s35.494 173.92 97.608 234.26c62.114 63.889 145.525 99.383 232.485 99.383s173.92-35.494 234.26-99.383c42.593-42.593 70.988-94.059 86.96-152.624h-372.686v-177.47h551.931l1.775 15.972c3.549 26.62 5.324 53.241 5.324 79.861 0 134.877-53.241 262.655-147.3 360.263-94.059 95.834-223.612 149.075-360.263 149.075z"></path>
</svg>
