<svg xmlns="http://www.w3.org/2000/svg" viewBox="0 0 64 10">
  <path d="M9.88.05H2.86A2.85 2.85 0 0 0 .02 2.9V10h7.04A2.86 2.86 0 0 0 9.9 7.14V.04zM7 1.14c.23 0 .4 1.05.4 1.27a.4.4 0 0 1-.4.4.42.42 0 0 1-.42-.4c0-.24.19-1.27.42-1.27zm1.29 6.33s0 .85-.84.85c-.87.02-5.07.02-5.07.02-.84 0-.84-.85-.84-.85V3.24c0-.85.84-.85.84-.85h1.7c.83 0 1.68.85 1.68.85 0-2.48.78.92 1.69 0 .6-.6.84 2.96.84 2.96l-.84-.41s0-.85-1.27-1.7C4.62 3.04 2.8 3.73 2.8 5.35c0 3.33 5.48 2.12 5.48 2.12zm7.31-2.93L12.64.18H11.3v9.64h1.7v-6.1l2.14 3.18h.93l2.13-3.19v6.11h1.69V.18h-1.35zM25.77.02c-1.32 0-2.57.53-3.5 1.46a4.97 4.97 0 0 0-1.43 3.53c0 1.3.5 2.57 1.43 3.51a4.84 4.84 0 0 0 6.98 0 5.05 5.05 0 0 0 1.43-3.51 4.95 4.95 0 0 0-1.43-3.53 4.9 4.9 0 0 0-3.5-1.46zm2.27 7.28a3.14 3.14 0 0 1-4.54 0c-.6-.59-.93-1.4-.93-2.3 0-.87.32-1.69.93-2.3a3.12 3.12 0 0 1 2.27-.97 3.12 3.12 0 0 1 2.27.96c.6.6.92 1.43.92 2.3 0 .89-.32 1.7-.93 2.3zM31 1.79h3.55v3.84c0 1.58-.55 2.57-3.37 2.57h-.18v1.63h.17c3.55 0 5.06-1.25 5.06-4.2V.2H31zM40.32.05l-3.84 9.77h1.83l.9-2.33h3.49l.88 2.33h1.8L41.54.05zm-.48 5.8l1.12-2.96 1.11 2.97zm11.7.46L47.34.18h-1.3v9.64h1.68V3.74l4.18 6.08h1.33V.18h-1.69zm12.4-2.06l-.03-.16h-5.35v1.73h3.62a3.27 3.27 0 0 1-3.12 2.46 3.13 3.13 0 0 1-2.25-.97 3.17 3.17 0 0 1-.95-2.28c0-.88.32-1.7.95-2.3a3.13 3.13 0 0 1 4.61.1l.09.1h2.03l-.14-.28a4.87 4.87 0 0 0-7.82-1.17 5.08 5.08 0 0 0 0 7.05A4.8 4.8 0 0 0 59.05 10a4.86 4.86 0 0 0 3.5-1.45 4.93 4.93 0 0 0 1.42-3.52 5.12 5.12 0 0 0-.05-.78zm0 0"/>
</svg>