<svg xmlns="http://www.w3.org/2000/svg" viewBox="0 0 93 16">
  <path d="M64.1 1.5h-1.4v12h7.8v-1.3h-6.4zm22 10.7V8.1h6.4V6.8h-6.4v-4H93V1.5h-8.3v12H93v-1.3zM71.4 1.5h1.4v12h-1.4zm7.5 10.4L75.3 1.5h-1.5l4.2 12h1.8l4.1-12h-1.5zM27.4 1.5h-1.5l-3.4 4.7-3.4-4.7h-1.5l4.1 5.7-4.5 6.3h1.6l3.7-5.2 3.8 5.2h1.5l-4.5-6.3zm-9.8 0zm36.5 5.7l4.1-5.7h-1.6l-3.3 4.7-3.4-4.7h-1.5l4.1 5.7-4.5 6.3h1.5l3.8-5.2 3.7 5.2h1.6z"/>
  <path d="M43.6 1.2c-3.3 0-5.6 2.6-5.6 6.3 0 3.7 2.3 6.3 5.6 6.3s5.6-2.6 5.6-6.3c0-3.7-2.3-6.3-5.6-6.3zm0 11.3c-2.5 0-4.3-2.1-4.3-5 0-3 1.8-5 4.3-5s4.3 2.1 4.3 5c0 3-1.8 5-4.3 5zm-8-5.3c.9-.5 1.4-1.4 1.4-2.4 0-.8-.3-3.3-3.8-3.3h-4.8v5.2h-1.6L26 7.9h2.4v5.6h4.8c2.6 0 4.2-1.3 4.2-3.5 0-.9-.4-1.8-1-2.3-.2-.2-.5-.4-.8-.5zm-5.8-4.5h3.5c.9 0 2.5.2 2.5 1.9 0 1.3-.9 2-2.5 2h-3.5V2.7zm3.4 9.6h-3.5V7.9h3.5c1.3 0 2.9.4 2.9 2.1 0 2-1.8 2.3-2.9 2.3zm-26-9.8c.3.2.5.3.6.3.1 0 .3-.1.6-.3.6-.4 1.7-.9 2.2-1.1.3-.1.5-.1.8-.2.2 0 .4-.1.4-.1 0-.1-1.1-.6-1.9-.8-1-.3-2-.3-3-.2-.6 0-1.4.2-1.8.4-.6.2-1.2.5-1.2.6 0 0 .1.1.3.1.7.1 1.9.6 3 1.3zM6 4.4c0-.1-.7-.8-1.3-1.3-.6-.6-1.6-1.2-1.8-1.2-.1 0-.3.1-.6.5C1 3.7.3 5.2.1 7.1 0 7.9 0 8.7.2 9.6c.2.9.6 2 1.1 2.7.3.5.4.5.4 0 .1-2 1.6-4.6 4-7.4.2-.3.3-.5.3-.5zm8.3-1c-.4-.6-1.3-1.5-1.4-1.5-.1 0-.2.1-.4.1-.7.3-1.5 1-2.3 1.7-.3.4-.6.7-.6.7s.2.3.5.7c2.1 2.4 3.4 4.7 3.8 6.6.1.2.1.6.1.7 0 .3 0 .3.1.3s.5-.7.8-1.3c.6-1.2.7-2.3.7-3.7 0-1.6-.5-3-1.3-4.3zM7.8 6s-.3.2-.5.4c-1.1 1-2.6 2.6-3.5 3.7-.9 1.2-1.9 2.8-1.9 3.1 0 .1.5.6 1 1 1.6 1.4 3.9 2 6.1 1.7 1.7-.3 3.2-1.1 4.5-2.3.2-.2.2-.2.2-.4 0-.9-1.7-3.2-4.6-6C8.3 6.4 7.9 6 7.8 6z"/>
</svg>