<svg id="LOGO" xmlns="http://www.w3.org/2000/svg" viewBox="0 0 528.2945 436.84485">
  <g>
    <g>
      <path d="M787.9069,706.34322H743.805a2.02527,2.02527,0,0,0-2.02533,2.02533v10.11187a2.02527,2.02527,0,0,0,2.02533,2.02532h12.10246a2.02532,2.02532,0,0,1,2.02533,2.02533v35.98734a2.02535,2.02535,0,0,0,2.02533,2.02533h11.7962a2.02532,2.02532,0,0,0,2.02533-2.02533V722.53107a2.02535,2.02535,0,0,1,2.02533-2.02533h12.102a2.02526,2.02526,0,0,0,2.02533-2.02532V708.36855A2.02526,2.02526,0,0,0,787.9069,706.34322Z" transform="translate(-663.627 -325.22979)"/>
      <path d="M933.76758,706.34322H916.88426a2.02527,2.02527,0,0,0-2.02533,2.02533v50.14986a2.02532,2.02532,0,0,0,2.02533,2.02533h16.80711c19.1382,0,31.08064-10.41151,31.08064-27.25342C964.772,716.75473,953.2893,706.34322,933.76758,706.34322Zm-.78626,40.34426h-.74259a2.042,2.042,0,0,1-2.05828-2.02533V722.22481a2.042,2.042,0,0,1,2.05828-2.02532h.89849c10.26963,0,15.48217,3.98112,15.48217,13.09083C948.61939,742.70685,943.40685,746.68748,932.98132,746.68748Z" transform="translate(-663.627 -325.22979)"/>
      <rect x="340.61869" y="381.11343" width="16.21002" height="54.20052" rx="2.02533"/>
      <path d="M873.33884,706.34322H861.77219a2.02531,2.02531,0,0,0-2.02533,2.02533v26.91236c0,9.0335-2.44976,12.172-8.49713,12.172-6.04792,0-8.49763-3.1385-8.49763-12.172V708.36855a2.0253,2.0253,0,0,0-2.02532-2.02533H829.16013a2.02531,2.02531,0,0,0-2.02533,2.02533v28.44323c0,16.61235,7.42594,25.18668,24.11493,25.18668,16.22933,0,24.11443-9.03351,24.11443-25.26339V708.36855A2.0253,2.0253,0,0,0,873.33884,706.34322Z" transform="translate(-663.627 -325.22979)"/>
      <path d="M691.98416,727.77828c-1.67451-.71753-6.27854-2.62865-6.90954-2.83359-4.47649-1.45394-4.68841-3.58242-3.94437-5.63135s3.75838-2.95922,6.6386-1.7884c1.54619.62856,5.38275,4.10757,5.80028,4.515a2.1317,2.1317,0,0,0,1.05873.6702h.00007a1.8118,1.8118,0,0,0,1.457-.321l8.43383-6.29484a1.82207,1.82207,0,0,0,.31463-2.6177c-4.59094-5.54691-11.2443-8.58815-19.12673-8.58815-11.63666,0-20.28714,7.04348-20.28714,16.15314,0,7.95664,3.55687,12.661,12.88094,16.71251,2.41114.85109,5.51536,2.11843,6.757,2.48371,5.43251,1.59838,5.64073,4.31016,4.74564,6.77528s-4.50715,3.52342-7.98724,2.1517c-2.42887-.95737-6.23264-4.63221-6.49777-5.00049a1.81821,1.81821,0,0,0-.98962-.60148l-.02708-.00575a1.81191,1.81191,0,0,0-1.41022.28717l-8.48671,5.92241a1.82155,1.82155,0,0,0-.39894,2.60384c4.90806,6.34754,12.09966,9.70411,20.476,9.70411,12.47823,0,21.3589-7.73163,21.3589-18.21989C705.84048,736.96521,702.08893,732.06577,691.98416,727.77828Z" transform="translate(-663.627 -325.22979)"/>
      <path d="M1087.57944,704.8885a28.55426,28.55426,0,1,0,28.55425,28.55426A28.55425,28.55425,0,0,0,1087.57944,704.8885Zm0,41.29706a12.74281,12.74281,0,1,1,12.7428-12.7428A12.75723,12.75723,0,0,1,1087.57944,746.18556Z" transform="translate(-663.627 -325.22979)"/>
      <path d="M1178.06518,727.77828c-1.67451-.71753-6.27854-2.62865-6.90954-2.83359-4.47649-1.45394-4.68841-3.58242-3.94438-5.63135s3.75839-2.95922,6.6386-1.7884c1.5462.62856,5.38276,4.10757,5.80029,4.515a2.13161,2.13161,0,0,0,1.05873.6702h.00006a1.81182,1.81182,0,0,0,1.457-.321l8.43383-6.29484a1.82208,1.82208,0,0,0,.31463-2.6177c-4.591-5.54691-11.2443-8.58815-19.12673-8.58815-11.63666,0-20.28714,7.04348-20.28714,16.15314,0,7.95664,3.55687,12.661,12.88094,16.71251,2.41114.85109,5.51535,2.11843,6.757,2.48371,5.43252,1.59838,5.64074,4.31016,4.74565,6.77528s-4.50715,3.52342-7.98725,2.1517c-2.42886-.95737-6.23263-4.63221-6.49776-5.00049a1.81821,1.81821,0,0,0-.98962-.60148l-.02708-.00575a1.81191,1.81191,0,0,0-1.41022.28717l-8.48671,5.92241a1.82155,1.82155,0,0,0-.399,2.60384c4.90807,6.34754,12.09967,9.70411,20.476,9.70411,12.47822,0,21.3589-7.73163,21.3589-18.21989C1191.9215,736.96521,1188.17,732.06577,1178.06518,727.77828Z" transform="translate(-663.627 -325.22979)"/>
    </g>
    <g>
      <path d="M938.43253,325.22979a82.0001,82.0001,0,1,0,82.00009,82.0001A82.00008,82.00008,0,0,0,938.43253,325.22979Zm0,122.00014a40,40,0,1,1,40-40A40.04533,40.04533,0,0,1,938.43253,447.22993Z" transform="translate(-663.627 -325.22979)"/>
      <path d="M1185.69936,327.22975H1073.69923a4,4,0,0,0-4,4v32a4,4,0,0,0,4,4h76.00009v69.99947a10,10,0,0,1-10,10l.00013.00061h-30.00016a40.0554,40.0554,0,0,1-39.84075-36.41487,3.96406,3.96406,0,0,0-3.96228-3.58518H1033.816a3.97828,3.97828,0,0,0-4.0094,4.18278,80.00346,80.00346,0,0,0,79.89267,75.81732h36a4,4,0,0,0,4-4V467.22962a20,20,0,0,1,20.00033-20l15.99971.00027a3.99993,3.99993,0,0,0,4-3.99994V331.22976A4,4,0,0,0,1185.69936,327.22975Z" transform="translate(-663.627 -325.22979)"/>
      <path d="M825.20391,367.2298a20,20,0,0,1-20-20.03957l.03158-15.96047a4,4,0,0,0-4-4H669.23536a4,4,0,0,0-4,4V483.22993a4,4,0,0,0,4,4h32a4,4,0,0,0,4-4v-106.005a10,10,0,0,1,10-10h10a10,10,0,0,1,10,10v65.903a4,4,0,0,0,4,4h32a4,4,0,0,0,4-4v-65.903a10,10,0,0,1,10-10h9.95531a10,10,0,0,1,10,9.99578l.04473,106.00922a4,4,0,0,0,4,4h32a4,4,0,0,0,4-4V371.2298a4,4,0,0,0-4-4Z" transform="translate(-663.627 -325.22979)"/>
      <path d="M853.8025,507.25421H965.80263a4,4,0,0,1,4,4v15.97867a20,20,0,0,0,19.97331,20l16.02674.02139a4,4,0,0,1,4,4V663.25439a4,4,0,0,1-4,4h-32a4,4,0,0,1-4-4V557.25366a9.99961,9.99961,0,0,0-9.9939-9.9994H899.79645a9.99961,9.99961,0,0,0-9.99391,9.9994V663.25439a4,4,0,0,1-4,4h-32a4,4,0,0,1-4-4V511.25421A4,4,0,0,1,853.8025,507.25421Z" transform="translate(-663.627 -325.22979)"/>
      <path d="M821.23554,547.25425l-16.07842-.063a20,20,0,0,1-19.92163-19.99985V511.25421a4,4,0,0,0-4-4h-36a80.00009,80.00009,0,0,0-80.00009,80.00009v76.00009a4,4,0,0,0,4,4h32a4,4,0,0,0,4-4V587.2543a40.00005,40.00005,0,0,1,40-40h30.00614a9.99963,9.99963,0,0,1,9.9939,9.99941v20a10,10,0,0,1-10,10l.00013.00061H731.23543a4,4,0,0,0-4,4v32a4,4,0,0,0,4,4h44.00616a9.99961,9.99961,0,0,1,9.9939,9.9994v26.00064a4,4,0,0,0,4,4h32a4,4,0,0,0,4-4V551.25426A4,4,0,0,0,821.23554,547.25425Z" transform="translate(-663.627 -325.22979)"/>
      <path d="M1108.57291,547.254h77.12461a3.99955,3.99955,0,0,0,4-4V511.25419a4.00014,4.00014,0,0,0-4-4H1108.644c-34.26985,0-65.04069,22.00184-75.08666,54.76571-16.38895,53.45474,21.64491,102.54247,71.96863,105.12745a3.97676,3.97676,0,0,0,4.172-4.01V637.25354a10.00038,10.00038,0,0,1,9.994-10h20.01186a10.00038,10.00038,0,0,1,9.994,10v26.00085a4.00015,4.00015,0,0,0,4,4h31.99984a4.00015,4.00015,0,0,0,4-4V591.25378a4.00014,4.00014,0,0,0-4-4h-71.99963a4.00013,4.00013,0,0,0-4,4v21.12788a11.36812,11.36812,0,0,1-13.33392,11.21491,25.85591,25.85591,0,0,1-11.4248-4.96322c-12.94215-10.24649-19.44667-28.28485-12.26807-46.97048a38.38188,38.38188,0,0,1,35.90179-24.40887" transform="translate(-663.627 -325.22979)"/>
    </g>
  </g>
</svg>
