<svg xmlns="http://www.w3.org/2000/svg" viewBox="0 0 1998 1159">
  <path d="m874.12 32.293c68.254-39.645 155.77-42.996 227.13-9.5977 8.2422 4.5664 19.375 6.5664 23.941 15.629-43.562-5.7812-85.559 13.203-122.66 33.969-8.8477 4.4609-16.66-4.707-24.512-7.6719-34.285-14.699-70.5-31.613-108.82-26.082 1.2109-1.5352 3.707-4.6758 4.9219-6.2461z"/>
  <path d="m757.21 186.45c11.344-43.605 34-84.781 66.824-115.83 15.164-4.0312 29.688 4.8164 42.457 11.918 23.762 14.988 43.352 35.434 64.508 53.703-41.531 51.352-79.742 105.95-108.36 165.64-13.484 29.758-27.828 62.41-20.336 95.738-9.457-6.7422-14.199-17.77-20.16-27.367-31.859-54.918-40.742-122.36-24.938-183.81z"/>
  <path d="m1144.8 74.613c8.3867-3.1055 18.84-8.0625 27.227-2.6406 72.746 68.727 94.617 184.34 52.945 275.23-8.8125 17.699-16.77 37.219-31.969 50.387 1.6055-10.098 3.6055-20.375 1.5352-30.582-5.6367-36.289-23.121-69.188-40.426-101.09-25.652-45.816-56.371-88.531-89.086-129.53 24.402-23.125 49.164-47.066 79.773-61.77z"/>
  <path d="m857.36 343.92c39.281-55.133 87.129-104.3 140.54-145.88 46.273 36.469 88.234 78.504 124.73 124.79 17.129 22.801 34.324 46.496 43.137 73.938 3.9258 12.668 5.3516 29.297-6.207 38.539-35.215 30.152-78.992 50.668-125.02 56.914-70.5 10.738-145.21-10.457-199.09-57.309-8.0273-6.7422-9.918-18.34-7.957-28.152 4.2461-23.16 17.02-43.535 29.863-62.84z"/>
  <path d="m1058.1 591.28c39.637-29.406 94.797-34.613 140.07-15.844 26.328 10.848 47.734 31.113 63.508 54.488 15.27 28.938 23.227 61.695 22.082 94.488-0.64062 43.25-16.445 87.961-49.484 117.01-54.875 48.602-149 43.746-196.95-12.383-33.395-38.004-42.707-91.922-35.109-140.81 2.7852-21.73 12.094-41.605 21.266-61.23 10.703-12.668 21.051-25.941 34.609-35.719m67.145 6.6367c-21.762 3.8164-43.918 12.918-57.371 31.258-23.117 21.551-32.219 53.633-33.535 84.355-0.53516 36.113 8.7383 74.973 35.641 100.73 36.32 37.074 101.72 38.324 140.07 3.7109 20.801-18.199 33.289-44.496 37.355-71.582 6.0312-36.395 0.25-75.934-20.941-106.69-6.4609-7.707-14.414-14.023-20.801-21.805-22.23-18.055-52.52-23.801-80.422-19.98z"/>
  <path d="m484.05 571.65c13.023-0.14063 26.082-0.10547 39.105-0.17578 27.758 38.18 58.262 74.293 84.594 113.54 27.113-37.645 57.547-72.863 82.488-111.97 13.664-3.6055 28.258-1.0703 42.277-1.2852-33.859 47.637-69.82 93.738-103.57 141.52 11.809 13.488 21.516 28.652 31.648 43.391 27.473 37.219 54.871 74.473 82.273 111.73-13.273-0.074219-26.543-0.10938-39.816-0.14453-31.078-41.891-61.688-84.105-93.801-125.21-8.8828 5.8164-12.629 17.164-19.871 24.836-9.918 9.1328-16.77 20.91-25.047 31.434-16.77 23.055-34 45.785-50.77 68.871-13.344 0-26.688 0.070312-40.031 0.21484 31.895-42.605 62.973-85.82 94.762-128.5 6.7773-8.6367 9.6328-20.59 19.48-26.551-10.988-12.773-20.91-26.441-30.008-40.605-11.023-14.703-23.152-28.547-34.215-43.25-9.4531-21.516-26.902-38.18-39.496-57.844z"/>
  <path d="m758.31 571.51c40.996 0.070313 81.988-0.074218 123.02 0.035157 19.695 0.21484 40.387 2.7109 57.477 13.273 23.551 13.703 39.176 40.965 37.215 68.371 0.32031 24.086-14.129 46.137-34.395 58.34 16.875 9.4219 32.68 23.055 38.961 41.93 12.344 32.293 2.0703 72.793-26.258 93.383-21.871 16.344-49.953 21.375-76.746 21.445-39.711-0.070312-79.457 0.14453-119.17 0.035156-1.1406-46.316 0.10938-92.668-0.10547-139.02-20.801 0.14062-41.602-0.039062-62.402 0 7.207-10.062 14.523-20.02 21.977-29.902 13.453-0.14453 26.902-0.28906 40.355-0.39453-1.4648-42.5 0.25-84.996 0.070312-127.5m33.359 31.863c0.46484 31.867 0.28516 63.695 0.070313 95.562 31.043-0.25 62.082 0.5 93.086 0.035156 15.77-0.53516 32.539-4.6055 44.098-15.988 18.125-17.305 16.129-49.383-1.1055-66.512-14.984-11.918-35.105-13.633-53.516-13.598-27.547 0.28516-55.09-0.42578-82.633 0.5m0.17969 126.25c0.21094 35.754-0.42969 71.543 0.32031 107.3 30.789-0.32422 61.617 0.17578 92.406-0.21484 17.59-1 36.355-4.3164 50.234-16.059 17.84-15.523 21.301-43.676 10.848-64.266-11.738-19.305-35.82-25.406-56.977-26.477-32.254-0.75-64.543-0.070312-96.832-0.28516z"/>
  <path d="m1262.8 571.54c13.02-0.070313 26.008 0.035156 39.031-0.14453 28.684 38.074 56.836 76.543 85.699 114.47 26.758-38.609 55.98-75.469 83.633-113.44 12.914-2.1055 26.188-0.57031 39.246-0.89062-11.953 20.09-28.152 37.254-40.07 57.379-19.051 24.836-37.391 50.207-56.191 75.184-2.4961 3.3906-5.6367 7.4609-3.7461 11.918 36.605 51.027 73.855 101.63 111.03 152.26-13.273 0.14453-26.547 0.035156-39.816-0.21094-31.078-42.715-62.973-84.785-94.336-127.25-32.039 42.43-63.543 85.25-95.652 127.61-13.129-0.28516-26.227-0.21484-39.32-0.10938 38.57-51.383 75.926-103.73 114.39-155.22-34.359-47.422-69.359-94.309-103.89-141.55z"/>
  <path d="m40.996 957.78c33.035-24.16 81.488-23.766 114.24 0.67578 17.91 13.453 28.613 34.473 33.359 56.023-8.6367 0.17969-17.27 0.35938-25.902 0.57422-4.2461-10.887-7.3867-22.66-15.059-31.762-29.504-33.934-94.832-25.691-111.57 17.238-15.375 29.973-17.27 67.227-2.9258 97.914 20.301 41.57 83.883 51.172 115.6 17.449 13.203-11.848 16.449-30.117 18.52-46.887-23.406 0.14063-46.773-0.074218-70.18 0.21094 0.035157-7.8125 0.070313-15.664 0.10547-23.441 31.078-0.14453 62.188-0.17969 93.301 0.070312-0.17969 36.363-0.035156 72.758 0.10547 109.12h-24.438c0.21484-8.3164 0.42578-16.629 0.82031-24.906-14.273 17.234-35.859 27.973-58.086 29.652h-23.691c-21.336-2.9258-42.742-11.383-57.621-27.441-14.555-15.844-23.332-36.254-27.578-57.164v-48.211c5.1719-26.762 18.375-53.059 40.996-69.117z"/>
  <path d="m865.7 965.56c13.703-17.664 37.035-24.727 58.586-25.477 24.977-0.71484 52.805 4.9609 69.75 24.836 11.953 12.988 14.988 31.078 16.129 48.031-7.9922 0.070312-15.984 0.14062-23.941 0.21094-1.6406-9.918-1.7852-20.695-7.707-29.223-8.0977-12.277-22.621-18.449-36.711-20.484-17.164-2.5312-36.109-0.89062-50.559 9.4922-12.023 8.457-15.84 26.121-9.3125 39.109 4.5664 7.6367 12.844 12.027 20.875 15.168 25.723 9.4883 54.051 9.8477 79.168 21.23 11.703 5.1719 22.371 13.738 27.832 25.547 8.9531 20.949 5.1367 47.566-11.492 63.66-15.27 15.309-37.426 20.41-58.262 22.055h-3.2812c-25.402-1.4297-53.199-6.7109-71-26.551-14.023-14.949-17.199-36.219-16.84-55.914h24.012c0.21094 11.598-0.42969 24.156 6.0273 34.434 9.2773 15.699 28.043 22.266 45.207 24.406 19.086 2.3203 40.816 0.32422 55.656-13.094 15.02-12.988 14.629-41.359-3.7461-51.172-31.824-17.27-71.676-12.559-102-33.328-22.906-16.164-25.047-51.598-8.3867-72.938z"/>
  <path d="m1641.3 974.16c33.469-41.895 102.36-45.676 141.43-9.6367 39.891 36.863 44.457 102.2 18.305 148.2-15.164 27.012-44.348 43.32-74.57 46.996h-12.273c-47.879 1.0352-89.695-39.504-95.938-85.891-5.6016-34.473 0.10547-72.297 23.047-99.664m54.695-8.7422c-21.941 5.9922-39.781 23.23-47.809 44.391-11.703 30.613-10.273 67.727 8.5273 95.238 22.477 33.758 74.855 42 106 15.449 36.75-31.293 38.996-91.848 11.738-129.96-17.555-23.801-50.414-33.223-78.457-25.121z"/>
  <path d="m1854.4 959.07c20.23-18.414 49.914-21.41 75.922-17.414 20.98 2.8555 42.211 13.418 52.77 32.473 7.1367 11.738 8.5625 25.656 9.4219 39.07-8.0312-0.035156-16.059-0.035156-24.012-0.035156-0.75-11.953-2.3203-24.871-11.062-33.828-15.77-16.949-41.672-19.23-63.223-15.309-15.875 2.6797-31.969 14.418-32.68 31.688-1.75 12.668 6.8828 24.445 18.266 29.117 26.902 11.348 56.98 11.812 84.094 22.66 14.238 6.3516 26.867 18.344 31.008 33.758 5.0625 18.199 1.5664 39.359-11.312 53.598-16.199 19.66-43.422 25.477-67.754 24.406-26.473-0.5-55.586-8.8125-71.676-31.332-10.918-14.629-13.203-33.328-12.809-51.027 8.2031 0 16.445 0.039063 24.723 0.039063 0.28516 12.094-1.1055 25.582 6.707 35.859 8.3867 13.348 23.977 19.625 38.961 22.016 20.23 3.7852 43.492 2.1445 59.906-11.453 15.484-12.988 15.449-42.461-3.8906-51.883-31.469-16.094-70.07-12.418-100.04-32.223-26.543-17.305-26.508-60.09-3.3164-80.18z"/>
  <path d="m264.2 999.5c9.918-17.629 14.949-37.398 24.297-55.312 6.957 0.42969 13.914 0.78516 20.871 1.25 18.484 49.352 40.746 97.168 58.73 146.7 8.4531 17.199 11.984 36.434 21.727 53.027 0.96484 3.2461 1.9258 6.5273 2.8906 9.8125-10.133-0.14453-20.871 2.1406-30.363-2.3555-2.9961-21.84-15.734-40.824-22.836-61.449-28.043 0.10938-56.121 0.53516-84.164-0.28516-9.8125 21.02-16.414 43.355-26.723 64.16-8.6719 0-17.375 0.070313-26.047 0.070313 5.2461-18.27 14.238-35.148 20.836-52.953 14.273-33.934 25.262-69.227 40.781-102.66m0.17969 68.762c22.547-0.25 45.062-0.035156 67.609 0.17578-8.3828-21.801-17.055-43.496-25.832-65.121-2.1758-8.2773-4.3516-16.594-7.0977-24.727-12.309 29.543-23.406 59.66-34.68 89.672z"/>
  <path d="m404.95 945.01c9.0234-0.28906 18.086-0.42969 27.113-0.46484 25.441 57.805 49.809 116.08 74.32 174.28 17.09-40.074 34.109-80.254 49.379-121.04 10.348-16.27 15.84-35.004 23.406-52.598 9.3086-0.39062 18.621-0.57031 27.969-0.64062 0.42969 69.973 0.039063 139.95 0.92969 209.93-8.4922 0.35547-17.02 0.39062-25.512 0.25 0.10938-52.633-0.070313-105.27 0.14453-157.9-16.09 34.539-28.543 70.617-44.062 105.41-8.1719 17.094-12.844 35.578-19.625 53.242-7.4219-0.25-14.879-0.42969-22.336-0.53516-23.227-52.348-44.453-105.59-66.824-158.29 0.14453 52.598-0.39062 105.2 0.25 157.79-8.707 0.25-17.375 0.46094-26.047 0.78516 1.5352-52.062-0.25-104.16 0.35938-156.26 1.0352-17.949 0.74609-35.969 0.53516-53.953z"/>
  <path d="m632.51 944.97c49.203-0.39062 98.438-0.35547 147.64-0.14062-0.035157 6.957-0.035157 13.953 0 20.98-41.281 0.17969-82.523-0.070313-123.8 0.074218 0.21484 23.336 0.21484 46.637 0 69.973 38.781 0.070312 77.527-0.42578 116.31 0.28516-0.14453 6.8164-0.25 13.633-0.32031 20.484-38.535 0.21484-77.066-0.10938-115.64 0.17578-0.5 25.586-0.32031 51.207-0.035157 76.828 41.672 0.21484 83.309 0.035156 124.95 0.10547-0.14062 6.9258-0.32031 13.883-0.46094 20.805-49.594 0.070313-99.188-0.035156-148.78 0.14453 0.035156-69.906 0.32031-139.81 0.14062-209.71z"/>
  <path d="m1013.4 944.79c54.516 0.14062 109.04-0.074219 163.55 0.14062-0.070313 7.6016-0.14453 15.238-0.21484 22.875-23.121-0.10938-46.238-0.070313-69.324-0.035156 0.25 62.266-0.14062 124.57 0.42969 186.88-8.5625 0.070312-17.09 0.10547-25.617 0.10547 1.1406-62.23-0.35938-124.5 0.64062-186.77-23.191-0.49609-46.418-0.17578-69.645-0.21094 0-7.6719 0.070312-15.344 0.17969-22.98z"/>
  <path d="m1191.3 944.9c8.1328-0.035157 16.27 0.035156 24.402 0.21484-0.60547 40.609-0.10547 81.25-0.25 121.89-0.21484 14.738 2.6406 29.512 7.9922 43.25 8.207 17.375 27.828 26.367 46.383 26.727 16.734 0.5 35.395-3 46.988-16.164 11.738-13.883 14.199-32.902 14.379-50.457-0.14453-41.785-0.035157-83.57-0.14453-125.39h24.121c0.070313 41.93 0.17578 83.895-0.035156 125.86-0.21484 24.34-5.0312 51.027-23.586 68.336-20.691 19.91-51.91 22.09-79.027 19.09-14.594-1.1758-26.938-9.5273-39.496-16.199-8.3477-13.273-16.875-27.012-19.586-42.715-2.0703-13.129-2.3906-26.441-2.3203-39.68 0.89062-38.25 0.67578-76.504 0.17969-114.76z"/>
  <path d="m1381 944.65c27.188 0.78516 54.41-0.32031 81.594 0.71484 27.227 1.2852 55.41 13.668 70.074 37.504 17.27 27.691 19.98 62.34 14.879 93.988-4.5312 27.547-20.48 55.383-46.883 66.98-37.355 17.984-79.918 8.207-119.74 10.738 0.14453-69.973-0.070312-139.95 0.074219-209.93m23.938 22.875c0.039062 54.879 0.32422 109.76 0.039062 164.68 28.363-1.6797 59.188 5.1016 85.379-8.9922 25.973-14.348 35.355-46.246 34.926-74.152 0.25-26.191-6.1719-56.949-30.398-71.402-27.258-15.809-60.008-8.8867-89.945-10.133z"/>
  <path d="m1570.6 944.83c8.3867 0.035156 16.77 0.035156 25.227 0.070313-0.39453 69.906 0.57031 139.84-0.32031 209.75-8.4219 0.035156-16.844 0-25.227-0.17969 0.39453-69.867 0.10547-139.74 0.32031-209.64z"/>
</svg>
