<svg id="Layer_1" data-name="Layer 1" xmlns="http://www.w3.org/2000/svg" width="425.707" height="519.372" viewBox="0 0 425.707 519.372">
  <title>pegi</title>
  <g>
    <rect width="425.707" height="519.372"/>
    <path d="M7,7H419V420H7Z" transform="translate(-0.01 -0.003)" fill="#a5c400"/>
    <path d="M126.872,59.573h167.75c-18.74,96.225-48.536,196.696-50.243,305.68H175.403c4.26-83.44,22.57-166.038,42.578-246.93h-91.11V59.573Z" transform="translate(-0.01 -0.003)" fill="#fff"/>
    <path d="M381.254,17.033v3.16h-6.74v21.33h-3.948V20.193h-6.73v-3.16Zm27.437,24.49h-3.958V22.233h-.115l-6.787,19.29h-3.22l-6.453-19.29h-.124v19.29h-3.95V17.033h6.28l6.105,18.22h.115l5.943-18.22h6.164Z" transform="translate(-0.01 -0.003)"/>
    <g>
      <polygon points="379.624 467.702 379.624 467.702 379.624 467.701 379.624 467.702" fill="#fff"/>
      <path d="M393.87,446.901c-11.34,0-14.2358,9.6548-14.236,20.8035,0,11.12,2.8182,20.7825,14.236,20.7825,11.36,0,14.227-9.663,14.227-20.783C408.097,456.554,405.297,446.901,393.87,446.901Zm-.143,36.738v-.001c-6.347,0-7.583-7.4-7.583-15.933,0-8.57,1.332-15.933,7.583-15.933,6.634,0,7.9,7.363,7.9,15.934C401.627,476.236,400.293,483.639,393.727,483.639Z" transform="translate(-0.01 -0.003)" fill="#fff"/>
      <rect x="296.96" y="479.645" width="6.787" height="7.804" fill="#fff"/>
      <path d="M343.934,446.901c-3.815,0-7.947,2.07-9.567,5.694h-.153v-4.67h-5.886v39.527h6.174V460.18a7.6325,7.6325,0,0,1,7.822-7.968c5.6,0,5.83,4.946,5.83,7.967v27.272h6.19v-28.02C354.344,454.801,354.344,446.901,343.934,446.901Z" transform="translate(-0.01 -0.003)" fill="#fff"/>
      <path d="M364.307,443.296v4.63h-5.744v4.88h5.743v34.646h6.222V452.806h6.758v-4.88h-6.758v-4.63c0-2.732,1.304-3.758,3.97-3.758h2.865v-5.312h-4.496C366.885,434.226,364.307,437.3229,364.307,443.296Z" transform="translate(-0.01 -0.003)" fill="#fff"/>
      <rect x="313.2977" y="434.4657" width="6.202" height="7.095" fill="#fff"/>
      <rect x="313.2977" y="447.5997" width="6.202" height="39.516" fill="#fff"/>
      <path d="M194.103,446.9009c-4.28,0-7.736,2.9631-8.55,5.906h-.15v-4.88h-5.9v52.505h6.188v-17.466h.153a8.98,8.98,0,0,0,8.26,5.52c10.247,0,12.907-12.5381,12.907-21.53C207.011,455.241,203.478,446.9009,194.103,446.9009Zm-.804,36.2751c-6.64,0-7.972-7.813-7.972-15.472h-.001c0-9.012,1.107-15.492,7.972-15.492,5.75,0,7.223,6.06,7.223,14.744C200.521,477.136,199.051,483.176,193.299,483.176Z" transform="translate(-0.01 -0.003)" fill="#fff"/>
      <rect x="280.912" y="434.7989" width="6.184" height="7.095" fill="#fff"/>
      <path d="M239.605,468.433v-2.502c0-8.4831-1.112-19.028-13.2-19.028-12.156,0-14.084,11.427-14.084,21.32,0,13.5639,4.056,20.266,13.72,20.266,10.765,0,13.267-9.8071,13.267-14.0061h-6.183c0,2.943-.825,9.146-6.72,9.146-7.584,0-7.584-9.146-7.584-15.194h20.785Zm-6.48-4.87H219.042v-1.477c0-2.34.73-10.314,7.22-10.314,5.454,0,6.863,5.225,6.863,9.653Z" transform="translate(-0.01 -0.003)" fill="#fff"/>
      <rect x="280.912" y="447.933" width="6.184" height="39.516" fill="#fff"/>
      <path d="M266.522,452.96h-.163c-.806-3.1061-4.267-6.06-8.552-6.06-10.018,0-12.884,10.1049-12.884,20.804,0,5.234.73,19.748,12.232,19.748,3.91,0,7.593-1.9941,8.925-5.302h.154v5.167c0,2.7229.288,8.84-7.68,8.84-3.24,0-6.058-1.4-6.336-5.005h-6.192c1.016,9.874,10.535,9.874,12.95,9.874,7.977,0,13.44-4.275,13.44-16.0759V447.9269h-5.894Zm-7.965,29.19c-6.174,0-7.15-8.043-7.15-14.446,0-9.4331,1.475-15.492,7.227-15.492,6.634,0,7.956,7.813,7.956,15.492C266.59,475.7939,265.268,482.15,258.557,482.15Z" transform="translate(-0.01 -0.003)" fill="#fff"/>
      <polygon points="99.311 480.24 99.154 480.24 92.587 447.924 85.297 447.924 78.59 480.24 78.44 480.24 72.1 447.924 65.61 447.924 74.832 487.449 82.055 487.449 88.689 455.162 88.846 455.162 95.776 487.449 102.54 487.449 111.917 447.924 105.427 447.924 99.311 480.24" fill="#fff"/>
      <polygon points="51.51 480.24 51.357 480.24 44.799 447.924 37.504 447.924 30.79 480.24 30.643 480.24 24.301 447.924 17.817 447.924 27.033 487.449 34.257 487.449 40.895 455.162 41.039 455.162 47.969 487.449 54.752 487.449 64.108 447.924 57.628 447.924 51.51 480.24" fill="#fff"/>
      <rect x="163.2" y="479.645" width="6.778" height="7.804" fill="#fff"/>
      <polygon points="147.104 480.24 146.956 480.24 140.389 447.924 133.093 447.924 126.383 480.24 126.233 480.24 119.893 447.924 113.393 447.924 122.62 487.449 129.848 487.449 136.482 455.162 136.632 455.162 143.572 487.449 150.344 487.449 159.71 447.924 153.23 447.924 147.104 480.24" fill="#fff"/>
    </g>
  </g>
</svg>
