<?xml version="1.0" encoding="UTF-8"?>
<svg width="301px" height="74px" viewBox="0 0 301 74" version="1.1" xmlns="http://www.w3.org/2000/svg" xmlns:xlink="http://www.w3.org/1999/xlink">
    <!-- Generator: Sketch 42 (36781) - http://www.bohemiancoding.com/sketch -->
    <title>Minecraft_realms_logo</title>
    <desc>Created with Sketch.</desc>
    <defs>
        <linearGradient x1="50.0419162%" y1="100.015274%" x2="50.0419162%" y2="-0.116426513%" id="linearGradient-1">
            <stop stop-color="#D8CCC9" offset="0%"></stop>
            <stop stop-color="#A89E9B" offset="100%"></stop>
        </linearGradient>
        <linearGradient x1="50.0225131%" y1="99.9347701%" x2="50.0225131%" y2="0.0844827586%" id="linearGradient-2">
            <stop stop-color="#D8CCC9" offset="0%"></stop>
            <stop stop-color="#A89E9B" offset="100%"></stop>
        </linearGradient>
        <linearGradient x1="49.9822281%" y1="99.9574713%" x2="49.9822281%" y2="0.0284482759%" id="linearGradient-3">
            <stop stop-color="#D8CCC9" offset="0%"></stop>
            <stop stop-color="#A89E9B" offset="100%"></stop>
        </linearGradient>
        <linearGradient x1="49.955627%" y1="99.9178161%" x2="49.955627%" y2="-0.0626436782%" id="linearGradient-4">
            <stop stop-color="#D8CCC9" offset="0%"></stop>
            <stop stop-color="#A89E9B" offset="100%"></stop>
        </linearGradient>
        <linearGradient x1="50.1749164%" y1="100.318625%" x2="50.1749164%" y2="0.345558739%" id="linearGradient-5">
            <stop stop-color="#D8CCC9" offset="0%"></stop>
            <stop stop-color="#A89E9B" offset="100%"></stop>
        </linearGradient>
        <linearGradient x1="50.0276923%" y1="100.074425%" x2="50.0276923%" y2="-0.140229885%" id="linearGradient-6">
            <stop stop-color="#D8CCC9" offset="0%"></stop>
            <stop stop-color="#A89E9B" offset="100%"></stop>
        </linearGradient>
        <linearGradient x1="50.2083582%" y1="100.108046%" x2="50.2083582%" y2="-0.0488505747%" id="linearGradient-7">
            <stop stop-color="#D8CCC9" offset="0%"></stop>
            <stop stop-color="#A89E9B" offset="100%"></stop>
        </linearGradient>
        <linearGradient x1="49.8786408%" y1="99.8571839%" x2="49.8786408%" y2="-0.241954023%" id="linearGradient-8">
            <stop stop-color="#D8CCC9" offset="0%"></stop>
            <stop stop-color="#A89E9B" offset="100%"></stop>
        </linearGradient>
        <linearGradient x1="50.0247458%" y1="99.8876791%" x2="50.0247458%" y2="0.132951289%" id="linearGradient-9">
            <stop stop-color="#D8CCC9" offset="0%"></stop>
            <stop stop-color="#A89E9B" offset="100%"></stop>
        </linearGradient>
        <linearGradient x1="50.3680934%" y1="99.9956757%" x2="50.3680934%" y2="-0.275135135%" id="linearGradient-10">
            <stop stop-color="#FFFFFF" offset="0%"></stop>
            <stop stop-color="#BCB7B4" offset="100%"></stop>
        </linearGradient>
        <linearGradient x1="50.0020325%" y1="99.9264865%" x2="50.0020325%" y2="-0.0351351351%" id="linearGradient-11">
            <stop stop-color="#FFFFFF" offset="0%"></stop>
            <stop stop-color="#BCB7B4" offset="100%"></stop>
        </linearGradient>
        <linearGradient x1="49.8139738%" y1="100.397268%" x2="49.8139738%" y2="-0.244262295%" id="linearGradient-12">
            <stop stop-color="#FFFFFF" offset="0%"></stop>
            <stop stop-color="#BCB7B4" offset="100%"></stop>
        </linearGradient>
        <linearGradient x1="49.9551867%" y1="100.096154%" x2="49.9551867%" y2="-0.10989011%" id="linearGradient-13">
            <stop stop-color="#FFFFFF" offset="0%"></stop>
            <stop stop-color="#BCB7B4" offset="100%"></stop>
        </linearGradient>
        <linearGradient x1="49.9273859%" y1="100.238251%" x2="49.9273859%" y2="0.116393443%" id="linearGradient-14">
            <stop stop-color="#FFFFFF" offset="0%"></stop>
            <stop stop-color="#BCB7B4" offset="100%"></stop>
        </linearGradient>
        <linearGradient x1="50.1008696%" y1="99.7733696%" x2="50.1008696%" y2="-0.110869565%" id="linearGradient-15">
            <stop stop-color="#FFFFFF" offset="0%"></stop>
            <stop stop-color="#BCB7B4" offset="100%"></stop>
        </linearGradient>
    </defs>
    <g id="Page-1" stroke="none" stroke-width="1" fill="none" fill-rule="evenodd">
        <g id="Minecraft_realms_logo" fill-rule="nonzero">
            <g id="Group">
                <g id="Shape">
                    <g fill="#020303">
                        <polygon points="13.5 49.9 0.7 38 12.8 0.5 26.8 0.5 33.8 10.1 34.6 7 38.6 7 40.3 0.5 54.7 0.5 55.7 2.2 56 0.5 70.6 0.5 71.5 2.4 71.8 0.5 86.5 0.5 89.1 7.1 89.4 7.1 90.3 9.2 91.5 0.5 106.4 0.4 107.1 2.9 107.3 0.4 138.3 0.4 139.8 14.4 139.5 22.6 138.8 22.6 139.3 27.1 139 35.8 138.1 35.8 138.8 40.7 138.4 49.8 107.7 49.8 106.9 47.6 106.7 49.8 92 49.8 88.1 41.7 86.9 49.8 72.4 49.8 71.3 48.2 71 49.8 56.6 49.8 55.5 48.3 55.2 49.8 40.9 49.8 34.7 42.7 30.9 42.7 29.7 41.3 27.4 49.9"></polygon>
                        <path d="M169.5,14.4 L170.8,0.4 L201.9,0.4 L202.2,3 L202.9,0.4 L233.7,0.4 L234,2.4 L234.9,0.4 L265.5,0.4 L265.9,2.1 L267,0.4 L297.4,0.4 L300,9 L293.9,16.3 L294,16.6 C294.4,18 294.9,19.5 295.3,20.9 C295.6,21.9 297.5,28.1 297.5,28.1 L298.4,31 C298.7,32 299,32.9 299.3,33.9 C299.6,34.9 299.9,35.9 300.1,36.8 L300.4,37.9 L288.5,49.8 L274.2,49.8 L268.4,26.4 L261.6,35.8 L256.8,35.8 L257.2,37.8 L248.8,49.8 L234.3,49.8 L234,48 L233,49.8 L218.4,49.8 L218.1,47.8 L217.2,49.8 L202.4,49.8 L202.2,47.5 L201.4,49.8 L186.5,49.8 L186.3,46.8 L185.7,49.8 L170.6,49.8 L169.5,14.4 Z"></path>
                        <polygon points="137.7 37.6 139 0.4 170.2 0.4 170.4 8.9 169.4 22.6 154.6 22.6 154.5 28 171 28 171.3 37.6 170.1 49.8 139.1 49.8"></polygon>
                    </g>
                    <g transform="translate(3.000000, 2.000000)" fill="#A89E9B">
                        <polygon points="24.5 6.9 22.6 13.8 31.3 13.8 33.1 7 37.1 7 38.8 0.5 50.2 0.5 42.2 35.2 29.8 35.2 33.5 20.4 29 20.4 27.1 27.6 19.1 27.6 21.1 20.4 16.6 20.5 12.2 35.2 0.1 35.2 11.2 0.5 22.5 0.5 20.6 6.8"></polygon>
                        <polygon points="66 0.5 59.2 35.3 46.9 35.3 54.6 0.5"></polygon>
                        <polygon points="82.8 24 83.8 16.8 79.3 16.7 76.3 35.2 64 35.2 70.5 0.4 81.9 0.4 80.9 6.9 84.9 7 83.9 13.7 88.3 13.7 90.2 0.4 101.7 0.4 97.7 35.2 85.3 35.2 86.8 24.1"></polygon>
                        <polygon points="132.2 28 131.9 35.2 102.4 35.2 106.1 0.4 133.5 0.4 133.2 6.5 117.1 6.5 116.6 13.6 132.9 13.7 132.6 20.4 116 20.4 115.4 27.9"></polygon>
                        <path d="M292.8,0.2 L294.8,6.4 L286.8,6.4 L286.8,6.6 C287.1,7.9 287.5,9.3 287.9,10.7 C288.3,12.1 288.7,13.5 289.1,15 C289.5,16.5 290,17.9 290.4,19.4 C290.9,20.9 291.3,22.4 291.8,23.9 C292.1,24.8 292.4,25.7 292.6,26.6 C292.9,27.5 293.2,28.5 293.5,29.4 C293.8,30.3 294.1,31.3 294.3,32.2 C294.6,33.1 294.9,34.1 295.1,35 L282.6,35 L274.8,6.3 L266.8,6.3 L265.2,0.1 L292.8,0.2 Z"></path>
                        <polygon points="264.1 13.4 265.8 20.3 249.1 20.3 252.2 35.1 239.7 35.1 233.3 0.3 260.8 0.3 262.4 6.4 246.2 6.4 247.6 13.4"></polygon>
                        <path d="M216.2,23.9 L217.7,35.1 L205.3,35.1 L201.4,0.3 L228.9,0.3 L234.9,35.1 L222.5,35.1 L220.9,23.9 L216.2,23.9 Z M224.3,10.2 L223.6,5.8 L218.2,5.8 L218.7,9.9 L214.4,9.9 L213.8,5.9 L208.5,5.9 L209.1,10.3 L213.9,10.3 L214.1,11.9 L211.7,11.9 L212.6,18.7 L215.5,18.7 L215.3,16.4 L219.6,16.4 L220,18.7 L223,18.7 L222,11.9 L219.6,11.9 L219.4,10.3 L224.3,10.2 L224.3,10.2 Z"></path>
                        <path d="M194.7,17.1 L198.8,17.1 L200.6,35.1 L188.2,35.1 L187,20.5 L182.4,20.4 L183.4,35.2 L171,35.2 L169.7,0.4 L197.1,0.4 L198.4,13.3 L194.3,13.3 L194.7,17.1 Z M186.6,13.6 L186,6.5 L181.5,6.5 L182,13.7 L186.6,13.6 L186.6,13.6 Z"></path>
                        <polygon points="149.5 6.5 165.4 6.5 165.2 0.3 137.9 0.4 136.7 35.2 166.2 35.2 166 28 149.1 28"></polygon>
                    </g>
                    <path d="M4.6,37.2 C3.8,37.2 3.6,37.7 4.2,38.2 L13.2,46.8 C13.8,47.4 15,47.8 15.8,47.8 L23.8,47.8 C24.6,47.8 24.8,47.3 24.3,46.7 L16.4,38.2 C15.8,37.6 14.7,37.1 13.9,37.1 L4.6,37.2 Z" fill="#29282A"></path>
                    <path d="M34.3,37.2 C33.5,37.2 33.2,37.7 33.8,38.3 L40.8,46.7 C41.3,47.3 42.4,47.8 43.3,47.8 L51.7,47.8 C52.5,47.8 52.8,47.3 52.3,46.6 L46.1,38.3 C45.6,37.6 44.5,37.1 43.7,37.1 L34.3,37.2 Z" fill="#29282A"></path>
                    <path d="M23.6,29.6 C22.8,29.6 22.5,30.1 23.1,30.7 L30.9,39.5 C31.4,40.1 32.5,40.6 33.2,40.6 C33.9,40.6 34.1,40 33.7,39.3 L33,38.3 C32.5,37.6 32.3,36.4 32.5,35.6 L32.7,34.8 C32.9,34 32.7,32.8 32.2,32.2 L31,30.8 C30.5,30.2 29.4,29.6 28.6,29.6 L23.6,29.6 Z" fill="#29282A"></path>
                    <path d="M51.4,37.3 C50.6,37.3 50.3,37.8 50.8,38.5 L56.8,46.7 C57.3,47.4 58.4,47.9 59.2,47.9 L67.4,47.9 C68.2,47.9 68.5,47.3 68.1,46.6 L63,38.5 C62.6,37.8 61.5,37.2 60.7,37.2 L51.4,37.3 Z" fill="#29282A"></path>
                    <path d="M68.5,37.2 C67.7,37.2 67.4,37.8 67.8,38.5 L72.7,46.5 C73.1,47.2 74.2,47.8 75,47.8 L83,47.8 C83.8,47.8 84.2,47.2 83.8,46.5 L80,38.5 C79.6,37.8 78.7,37.2 77.8,37.2 L68.5,37.2 Z" fill="#29282A"></path>
                    <path d="M89.8,37.2 C89,37.2 88.6,37.8 88.9,38.6 L92.6,46.6 C92.9,47.3 93.9,48 94.7,48 L103.1,48 C103.9,48 104.4,47.4 104.1,46.6 L101.2,38.7 C100.9,37.9 100,37.3 99.2,37.3 L89.8,37.2 Z" fill="#29282A"></path>
                    <path d="M106.9,37.2 C106.1,37.2 105.6,37.8 105.9,38.6 L108.6,46.2 C108.9,47 109.8,47.6 110.6,47.6 L134.9,47.6 C135.7,47.6 136.3,46.9 136.2,46.1 L135.1,38.6 C135,37.8 134.2,37.1 133.4,37.1 L106.9,37.2 Z" fill="#29282A"></path>
                    <path d="M141.2,37.2 C140.4,37.2 139.8,37.9 139.9,38.7 L140.7,46.4 C140.8,47.2 141.5,47.9 142.4,47.9 L166.5,47.9 C167.3,47.9 168.1,47.2 168.2,46.4 L169.1,38.6 C169.2,37.8 168.6,37.1 167.8,37.1 L141.2,37.2 Z" fill="#29282A"></path>
                    <path d="M175.5,37.1 C174.7,37.1 173.9,37.8 173.8,38.6 L172.8,46.2 C172.7,47 173.3,47.7 174.1,47.7 L182.3,47.7 C183.1,47.7 184,47 184.1,46.2 L185.9,38.5 C186.1,37.7 185.6,37 184.8,37 L175.5,37.1 Z" fill="#29282A"></path>
                    <path d="M192.7,37.1 C191.9,37.1 191,37.8 190.9,38.6 L189.1,46.2 C188.9,47 189.4,47.7 190.3,47.7 L198.5,47.7 C199.3,47.7 200.2,47.1 200.5,46.3 L203.2,38.6 C203.5,37.8 203,37.2 202.2,37.2 L192.7,37.1 Z" fill="#29282A"></path>
                    <path d="M209.8,37.1 C209,37.1 208.1,37.7 207.8,38.5 L205,46.3 C204.7,47.1 205.2,47.7 206,47.7 L214.2,47.7 C215,47.7 216,47.1 216.3,46.3 L220,38.4 C220.3,37.7 220,37 219.1,37 L209.8,37.1 Z" fill="#29282A"></path>
                    <path d="M227,37.1 C226.2,37.1 225.2,37.7 224.8,38.4 L220.9,46.3 C220.5,47 220.9,47.6 221.7,47.6 L230.2,47.6 C231,47.6 232,47 232.4,46.3 L237,38.3 C237.4,37.6 237.1,37 236.3,37 L227,37.1 Z" fill="#29282A"></path>
                    <path d="M244.2,37.1 C243.4,37.1 242.4,37.7 241.9,38.4 L237,46.5 C236.6,47.2 236.9,47.8 237.7,47.8 L246.1,47.8 C246.9,47.8 248,47.3 248.5,46.6 L254.3,38.4 C254.8,37.7 254.5,37.2 253.7,37.2 L244.2,37.1 Z" fill="#29282A"></path>
                    <path d="M287.2,37.1 C286.4,37.1 285.3,37.6 284.7,38.2 L277.4,46.5 C276.9,47.1 277.1,47.6 277.9,47.6 L285.9,47.6 C286.7,47.6 287.9,47.1 288.5,46.6 L297.1,38.2 C297.7,37.6 297.5,37.2 296.7,37.2 L287.2,37.1 Z" fill="#29282A"></path>
                    <g opacity="0.44" transform="translate(6.000000, 1.000000)" fill="#020303">
                        <g>
                            <path d="M6.2,7.3 C6.1,7.5 6.7,7.7 7.5,7.7 L16.2,7.7 C17,7.7 17.7,7.5 17.7,7.3 C17.7,7.1 17,6.9 16.2,6.9 L7.7,6.9 C7,6.9 6.3,7 6.2,7.3 Z"></path>
                            <path d="M5.6,24.8 C5.9,24 5.4,23.4 4.6,23.4 L2.3,23.4 C1.5,23.4 0.8,23.6 0.8,23.8 C0.8,24 1.5,24.2 2.3,24.2 L3.6,24.2 C4.4,24.2 4.9,24.8 4.6,25.6 L2.6,31.6 C2.3,32.4 2.8,33 3.6,33 L10.2,33 C11,33 11.7,32.8 11.7,32.6 C11.7,32.4 11,32.2 10.2,32.2 L4.7,32.2 C3.9,32.2 3.4,31.6 3.7,30.8 L3.9,30.1 C4.2,29.3 5,28.7 5.9,28.7 L11,28.7 C11.8,28.7 12.5,28.5 12.5,28.3 C12.5,28.1 11.8,27.9 11,27.9 L6.1,27.9 C5.3,27.9 4.8,27.3 5.1,26.5 L5.6,24.8 Z"></path>
                            <path d="M39.5,8.6 C39.6,7.8 39,7.1 38.2,7.1 L35.5,7.1 C34.7,7.1 33.9,7.3 33.9,7.5 C33.8,7.7 34.4,7.9 35.3,7.9 L37.4,7.9 C38.2,7.9 38.8,8.6 38.7,9.4 L38.3,12.2 C38.2,13 37.4,13.7 36.6,13.7 L28.6,13.7 C27.8,13.7 27.1,13.9 27.1,14.1 C27.1,14.3 27.8,14.5 28.6,14.5 L36.5,14.5 L38.2,14.5 L39.9,14.5 L44.1,14.5 C44.9,14.5 45.6,14.3 45.6,14.1 C45.6,13.9 44.9,13.7 44.1,13.7 L40.3,13.7 C39.5,13.7 38.9,13 39,12.2 L39.5,8.6 Z"></path>
                            <path d="M50.2,31.8 C50.3,31 50.2,30.7 49.9,31.2 C49.6,31.7 49.3,32.7 49.1,33.5 L48.9,35 C48.7,35.8 49,37 49.5,37.7 L50.1,38.5 C50.6,39.2 51.3,40 51.8,40.4 C52.3,40.8 52.3,40.5 51.8,39.8 L50.3,37.5 C49.8,36.8 49.6,35.6 49.7,34.8 L50.2,31.8 Z"></path>
                            <path d="M62.4,8.5 C62.4,8.3 61.7,8.1 60.9,8.2 L57.5,8.3 C56.7,8.3 56.4,8.5 56.8,8.6 C57.2,8.7 58.3,8.9 59.1,8.9 L60.9,8.9 C61.7,8.9 62.4,8.7 62.4,8.5 Z"></path>
                            <path d="M67.1,33.7 C67.3,32.9 67.2,32.6 66.9,33.1 C66.6,33.6 66.2,34.5 66.1,35.1 C66,35.7 66.1,36.9 66.4,37.6 C66.7,38.4 67.2,39.3 67.5,39.7 C67.8,40.1 67.9,39.8 67.6,39 L67,37.5 C66.7,36.7 66.7,35.4 66.9,34.6 L67.1,33.7 Z"></path>
                            <path d="M63.9,25 C63.1,25 62.4,25.1 62.4,25.3 C62.4,25.5 63.1,25.7 63.9,25.8 L73.2,26.3 C74,26.3 74.9,26.7 75.2,27.2 C75.5,27.7 75.9,27.9 76,27.8 C76.2,27.7 76,27.2 75.7,26.6 C75.4,26.1 74.4,25.6 73.6,25.6 L63.9,25 Z"></path>
                            <path d="M73.6,7.3 C73.9,7.5 74.9,7.7 75.7,7.7 L76.6,7.7 C77.4,7.7 78.1,7.5 78.1,7.3 C78.1,7.1 77.5,7 76.7,6.9 L74.5,6.8 C73.7,6.9 73.3,7.1 73.6,7.3 Z"></path>
                            <path d="M84.3,25.2 C83.5,25.2 82.8,25.4 82.8,25.6 C82.8,25.8 83.5,26 84.3,25.9 L89.8,25.7 C90.6,25.7 91.2,26.3 91.1,27.1 L90,34.7 C89.9,35.5 90,36.8 90.2,37.6 L90.5,38.6 C90.7,39.4 91.2,40.5 91.6,41 C92,41.5 92.1,41.3 91.8,40.5 L90.9,37.5 C90.7,36.7 90.6,35.4 90.7,34.6 L91.9,26.3 C92,25.5 91.5,24.8 90.6,24.9 L84.3,25.2 Z"></path>
                            <path d="M86.2,7.1 C86.2,7.3 86.8,7.6 87.6,7.7 L96.8,8.8 C97.6,8.9 98.3,8.8 98.3,8.6 C98.3,8.4 97.6,8.1 96.8,8 L87.8,7 C87,6.9 86.3,6.9 86.2,7.1 Z"></path>
                            <path d="M105.8,29.8 C105.8,29 105.2,28.3 104.4,28.3 L100.9,28.3 C100.1,28.3 99.4,28.5 99.4,28.7 C99.4,28.9 100.1,29.1 100.9,29.1 L103.6,29.1 C104.4,29.1 105.1,29.8 105,30.6 L104.9,34.6 C104.9,35.4 105,36.7 105.2,37.5 L105.9,40.1 C106.1,40.9 106.5,42 106.8,42.5 C107.1,43 107.2,42.8 107,42 L106,37.5 C105.8,36.7 105.7,35.4 105.7,34.5 L105.8,29.8 Z"></path>
                            <path d="M101.3,11.5 C101.3,11.7 102,11.9 102.8,11.9 L106.1,11.9 C106.9,11.9 108,11.7 108.4,11.5 C108.9,11.3 108.5,11.1 107.7,11.1 L102.7,11.2 C101.9,11.1 101.3,11.3 101.3,11.5 Z"></path>
                            <path d="M122.1,15.3 C122.1,14.5 121.9,13.8 121.7,13.8 C121.5,13.8 121.3,14.5 121.3,15.3 L121.3,19.2 C121.3,20 121.5,20.3 121.7,19.8 C121.9,19.3 122.1,18.2 122.1,17.4 L122.1,15.3 Z"></path>
                            <path d="M125.8,29.3 C125.8,30.1 125.1,30.8 124.3,30.8 L121.6,30.8 C120.8,30.8 120.1,31.5 120.1,32.3 L120.1,35 C120.1,35.8 120.3,36.5 120.5,36.5 C120.7,36.5 120.9,35.8 120.9,35 L120.9,33.1 C120.9,32.3 121.6,31.6 122.4,31.6 L125.1,31.6 C125.9,31.6 126.6,30.9 126.6,30.1 L126.6,29.1 C126.6,28.3 126.5,27.6 126.3,27.6 C126.1,27.6 125.9,28.3 125.9,29.1 L125.8,29.3 Z"></path>
                            <path d="M156.9,30.9 C156.7,31.2 156.7,32.2 156.7,33 L156.9,34.8 C157,35.6 157,37 156.9,37.8 L155.8,45.8 C155.7,46.6 155.8,47.3 156.1,47.3 C156.4,47.3 156.6,46.6 156.7,45.8 L157.7,37.9 C157.8,37.1 157.8,35.7 157.7,34.9 L157.4,31.9 C157.2,31 157,30.6 156.9,30.9 Z"></path>
                            <path d="M134.1,42.8 C134.1,43 134.8,43.2 135.6,43.2 L136.3,43.2 C137.1,43.2 137.8,43 137.8,42.8 C137.8,42.6 137.1,42.4 136.3,42.4 L135.6,42.4 C134.7,42.5 134.1,42.6 134.1,42.8 Z"></path>
                            <path d="M137,12.5 C137.4,12.7 138.4,13 139.2,13.2 L145.7,14.4 C146.5,14.7 147.1,14.8 147.2,14.6 C147.3,14.4 146.7,14 145.9,13.8 L137.7,12.4 C136.9,12.3 136.6,12.3 137,12.5 Z"></path>
                            <path d="M136.8,19.5 C137.1,19.3 136.8,19.1 135.9,19.1 L135.4,19.1 C134.6,19.1 133.9,19.3 133.9,19.5 C133.9,19.7 134.4,19.9 135,19.9 C135.6,19.9 136.5,19.8 136.8,19.5 Z"></path>
                            <path d="M172.1,12.9 C172.2,13.4 172.9,13.8 173.7,13.8 L174.7,13.8 C175.5,13.8 176.3,13.8 176.4,13.9 C176.5,13.9 177,14.3 177.2,14.2 C177.4,14.1 177.2,13.8 176.9,13.5 C176.6,13.2 175.6,13 174.8,13 L174.4,13 C173.6,13 172.8,12.3 172.7,11.5 L171.7,2.3 C171.6,1.5 171.4,0.8 171.2,0.9 C171,0.9 170.9,1.6 171,2.4 L171.8,9.7 C171.9,10.5 171.3,11.2 170.5,11.2 L167.7,11.2 C166.9,11.2 166.2,11.4 166.2,11.6 C166.2,11.8 166.9,12 167.7,12 L170.6,12 C171.4,12 172.1,12.4 172.1,12.9 Z"></path>
                            <path d="M171.1,30.8 C171.2,31.6 170.9,32.9 170.5,33.6 L169.7,34.6 C169.5,35.4 169.5,36.1 169.7,36.1 C169.9,36.1 170.3,35.5 170.5,34.8 C170.5,34.8 170.6,34.3 171,33.8 C171.3,33.3 171.7,32.9 171.8,32.9 C171.9,32.9 172,32.2 171.9,31.4 L171.6,27.1 C171.5,26.3 172.2,25.6 173,25.6 L179.3,25.6 C180.1,25.6 180.8,25.4 180.8,25.2 C180.8,25 180.1,24.8 179.3,24.8 L172.2,24.8 C171.4,24.8 170.7,25.5 170.8,26.3 L171.1,30.8 Z"></path>
                            <path d="M183.8,27.6 C183.8,27.8 184.5,28 185.3,28 L189.6,28 C190.4,28 191.4,27.8 191.8,27.6 C192.2,27.4 191.8,27.2 191,27.2 L185.3,27.2 C184.5,27.2 183.8,27.4 183.8,27.6 Z"></path>
                            <path d="M187.3,16.9 C187.5,17.1 188.4,17.2 189.2,17.2 L190.6,17.2 C191.4,17.2 192.1,17 192.1,16.8 C192.1,16.6 191.4,16.4 190.6,16.4 L188.4,16.4 C187.6,16.5 187.1,16.7 187.3,16.9 Z"></path>
                            <path d="M166.5,43.5 C166.5,43.7 167.1,43.9 168,44 L177.3,44.7 C178.1,44.8 178.8,44.6 178.8,44.4 C178.8,44.2 178.2,44 177.3,43.9 L168,43.2 C167.2,43.1 166.5,43.3 166.5,43.5 Z"></path>
                            <path d="M219,27.3 C218.2,27.3 217.5,27.5 217.5,27.7 C217.5,27.9 218.2,28.1 219,28.1 L230.3,29.3 C231.1,29.4 231.8,29.3 231.9,29.1 C232,28.9 231.4,28.7 230.5,28.6 L219,27.3 Z"></path>
                            <path d="M253.5,13.3 C253.3,13.4 253.2,14.1 253.2,14.9 L254.2,20.2 C253.8,20.9 253.7,21.6 253.9,21.7 C254.1,21.8 254.5,21.3 254.9,20.5 L254,14.6 C253.9,13.8 253.7,13.2 253.5,13.3 Z"></path>
                            <path d="M247.6,3.8 C246.8,3.8 246,3.2 245.7,2.4 L245.7,2.2 C245.5,1.4 245.1,0.8 244.9,0.9 C244.7,1 244.7,1.7 245,2.4 L245.2,3.1 C245.4,3.9 246.3,4.5 247.1,4.5 C247.9,4.5 248.8,5.1 249,5.9 L249.5,7.2 C249.8,8 250.1,8.6 250.3,8.5 C250.5,8.4 250.4,7.7 250.2,7 L249.6,5.2 C249.3,4.5 248.4,3.8 247.6,3.8 Z"></path>
                            <path d="M277.4,25.8 C276.6,25.8 275.9,26 275.9,26.2 C275.9,26.4 276.6,26.6 277.4,26.6 L288,26.6 C288.8,26.6 289.5,26.4 289.5,26.2 C289.5,26 288.8,25.8 288,25.8 L277.4,25.8 Z"></path>
                            <path d="M285.4,8 C285.6,7.9 285.6,7.3 285.4,6.5 L284.3,2.4 C284.1,1.6 283.7,1 283.5,1.1 C283.3,1.2 283.3,1.8 283.5,2.6 L284.6,6.7 C284.9,7.4 285.2,8.1 285.4,8 Z"></path>
                        </g>
                    </g>
                    <path d="M39.5,8.8 L43,8.8 C43.8,8.8 43.8,8.7 43,8.5 L41.6,8.2 C40.8,8 40.2,8.2 40.2,8.6 C40.3,8.6 40.3,8.6 39.5,8.8 Z" fill="#020303"></path>
                    <path d="M20.5,42.4 C20.2,42 19.2,41.8 18.4,41.9 L16.2,42.2 C15.4,42.3 15.4,42.5 16.2,42.6 L19.7,43 C20.5,43 20.9,42.8 20.5,42.4 Z" fill="#020303"></path>
                    <path d="M52.7,46.5 C52.5,46.1 51.6,45.9 50.8,45.9 L46.3,46.3 C45.5,46.4 45.5,46.5 46.3,46.6 L51.6,47.1 C52.4,47.2 52.9,46.9 52.7,46.5 Z" fill="#020303"></path>
                    <path d="M91.5,45 C91.4,44.7 92,44.4 92.8,44.4 L94.1,44.4 C94.9,44.4 94.9,44.6 94.2,44.9 L93.2,45.2 C92.4,45.4 91.6,45.3 91.5,45 Z" fill="#020303"></path>
                    <path d="M136,42.5 C135.9,42 135.2,41.6 134.4,41.8 L131.2,42.3 C130.4,42.4 130.4,42.6 131.2,42.7 L134.7,43.2 C135.5,43.4 136.1,43 136,42.5 Z" fill="#020303"></path>
                    <path d="M139.8,44.3 C139.8,43.8 140.4,43.4 141.2,43.5 L141.5,43.5 C142.3,43.6 142.4,44 141.6,44.3 L141.1,44.5 C140.4,45 139.8,44.8 139.8,44.3 Z" fill="#020303"></path>
                    <path d="M111.6,35.6 C111.5,34.8 111.3,34.8 111.2,35.5 C111.1,36.2 111.1,37.4 111.4,38.2 L111.7,39.1 C111.9,39.9 112.1,39.9 112,39 L112,38.5 C111.9,37.7 111.7,36.4 111.6,35.6 Z" fill="#020303"></path>
                    <path d="M126.4,36.2 C126.2,35.9 126.1,36.3 126.1,37.1 L126.1,37.8 C126.1,38.6 126.3,38.7 126.4,38 C126.6,37.3 126.6,36.5 126.4,36.2 Z" fill="#020303"></path>
                    <path d="M96.5,35.9 C96.5,35.1 96.3,35.1 96.2,35.9 C96.1,36.7 96.2,37.9 96.4,38.7 L96.7,39.6 C97,40.4 97.1,40.4 96.9,39.5 L96.8,38.7 C96.6,37.9 96.5,36.6 96.5,35.9 Z" fill="#020303"></path>
                    <path d="M72.4,36.5 C72.3,36.2 72,36.2 71.9,36.6 C71.8,37 71.9,37.7 72.2,38.2 C72.5,38.7 72.7,38.6 72.7,38.1 C72.7,37.5 72.6,36.8 72.4,36.5 Z" fill="#020303"></path>
                    <path d="M55.6,35.9 C55.4,35.1 55.1,35.2 54.9,36 L54.8,36.2 C54.6,37 54.9,38.1 55.5,38.7 L55.7,38.9 C56.3,39.5 56.6,39.4 56.3,38.6 C56,37.8 55.8,36.7 55.6,35.9 Z" fill="#020303"></path>
                    <path d="M25.4,34.8 C25.2,34.5 25.6,34.3 26.4,34.4 L29.2,34.6 C30,34.7 30,34.8 29.2,34.9 L27.2,35.2 C26.5,35.3 25.6,35.1 25.4,34.8 Z" fill="#020303"></path>
                    <path d="M163.1,35.2 C163.2,34.4 163.5,34.4 163.6,35.2 L163.7,35.8 C163.9,36.6 163.8,37.9 163.6,38.7 L163.2,40.1 C163,40.9 162.8,40.9 162.8,40.1 L162.8,38.8 C162.8,38 162.9,36.6 163,35.8 L163.1,35.2 Z" fill="#020303"></path>
                    <path d="M152.9,15.9 C152.9,16.3 152.3,16.2 151.7,15.8 L151,15.3 C150.3,14.8 150.4,14.6 151.2,14.8 L151.4,14.9 C152.3,15 152.9,15.5 152.9,15.9 Z" fill="#020303"></path>
                    <path d="M202.2,41.6 C202.3,41.3 201.7,41 200.9,41 L199.5,41 C198.7,41 198.7,41.2 199.4,41.4 L200.6,41.7 C201.4,42 202.1,41.9 202.2,41.6 Z" fill="#020303"></path>
                    <path d="M195.9,36.2 C195.7,35.7 195.5,35.9 195.5,36.7 L195.5,37.1 C195.5,37.9 195.7,38.3 195.9,37.8 C196.1,37.3 196.2,36.7 195.9,36.2 Z" fill="#020303"></path>
                    <path d="M218.3,43.1 C218.4,42.7 217.9,42.5 217.1,42.5 L213.8,42.8 C213,42.9 213,43 213.8,43.1 L216.6,43.5 C217.4,43.7 218.2,43.5 218.3,43.1 Z" fill="#020303"></path>
                    <path d="M215.2,36.4 C215.1,36 214.9,36 214.8,36.3 C214.7,36.7 214.7,37.5 214.9,38.2 C215.1,38.9 215.2,38.9 215.3,38.3 C215.4,37.7 215.3,36.8 215.2,36.4 Z" fill="#020303"></path>
                    <path d="M259.9,22.9 C259.6,22.8 259.6,22.1 259.9,21.3 L260,21.1 C260.3,20.3 260.6,20.4 260.5,21.2 L260.5,21.5 C260.5,22.5 260.2,23 259.9,22.9 Z" fill="#020303"></path>
                    <path d="M238.7,42.3 C239,41.9 239.9,41.7 240.7,41.8 L245.3,42.5 C246.1,42.6 246.1,42.7 245.3,42.8 L239.6,43 C238.8,42.9 238.4,42.6 238.7,42.3 Z" fill="#020303"></path>
                    <path d="M280.1,42.3 C280.5,41.8 281.5,41.5 282.3,41.6 L286.6,42.4 C287.4,42.6 287.4,42.7 286.6,42.8 L281,43.1 C280.1,43.2 279.7,42.8 280.1,42.3 Z" fill="#020303"></path>
                    <path d="M281.8,27.1 C281.6,26.5 282.2,26.1 283,26.2 L286.9,26.8 C287.7,26.9 287.7,27.1 286.9,27.3 L283.7,27.9 C282.7,28.1 281.9,27.7 281.8,27.1 Z" fill="#020303"></path>
                    <g opacity="0.5" transform="translate(276.000000, 6.000000)" fill="#020303">
                        <path d="M1.5,3.6 C1.2,3.4 1,2.5 0.9,1.7 L0.9,1.3 C0.9,0.5 1,0.5 1.2,1.3 L1.6,2.7 C1.9,3.4 1.8,3.8 1.5,3.6 Z"></path>
                    </g>
                    <path d="M237.4,30.7 L235,29.7 C234.2,29.4 234.3,29.2 235.1,29.3 L237.6,29.5" fill="#020303"></path>
                    <g opacity="0.5" transform="translate(145.000000, 35.000000)" fill="#020303">
                        <path d="M5.7,3 C5.9,2.5 5.9,1.7 5.7,1.3 C5.5,0.8 4.7,0.5 3.9,0.5 L2.7,0.5 C1.9,0.5 0.9,0.9 0.6,1.4 C0.3,1.9 0.7,2.5 1.5,2.8 L3.9,3.5 C4.8,3.7 5.6,3.5 5.7,3 Z"></path>
                    </g>
                    <path d="M149.2,36.7 C148.6,36.1 148.7,35.6 149.3,35.6 C149.9,35.6 150.7,35.9 151,36.3 C151.3,36.7 151.2,37.6 150.8,38.3 L150.5,38.8 C150.1,39.5 149.8,39.6 150,39 C150.2,38.4 149.8,37.4 149.2,36.7 L149.2,36.7 Z" fill="#020303"></path>
                    <path d="M92.1,8.4 C92.2,7.9 92.9,7.7 93.7,7.9 L94.3,8 C95.1,8.2 95.1,8.5 94.3,8.7 L93.4,8.9 C92.6,9.1 92,8.9 92.1,8.4 Z" fill="#020303"></path>
                    <path d="M51.3,15.2 C51.1,15.5 50.3,15.6 49.5,15.4 L48.8,15.2 C48,15 48,14.8 48.8,14.8 L50.1,14.7 C50.9,14.7 51.5,14.9 51.3,15.2 Z" fill="#020303"></path>
                    <path d="M18.4,29.2 C18.5,28.8 18,28.6 17.2,28.7 L15.6,29 C14.8,29.2 14.8,29.4 15.6,29.5 L16.7,29.7 C17.5,29.8 18.3,29.6 18.4,29.2 Z" fill="#020303"></path>
                    <path d="M20.9,42.5 C20.6,42.2 20.6,41.3 20.8,40.5 L21.2,39.1 C21.4,38.3 21.6,38.3 21.6,39.2 L21.5,41.6 C21.5,42.4 21.2,42.8 20.9,42.5 Z" fill="#29282A"></path>
                    <path d="M52.5,46.7 C52.2,46.5 52.2,45.8 52.5,45 C52.8,44.2 53,44.3 53,45.1 L53,45.5 C53,46.3 52.8,46.8 52.5,46.7 Z" fill="#29282A"></path>
                    <path d="M80.9,27.7 C80.9,27.1 81.1,27.3 81.4,28.1 L81.7,28.8 C82,29.6 82,29.9 81.6,29.4 C81.3,29 81,28.2 80.9,27.7 Z" fill="#29282A"></path>
                    <path d="M239.1,42.8 C239.4,42.6 239.5,41.7 239.3,40.9 L238.9,39.4 C238.7,38.6 238.5,38.6 238.5,39.5 L238.6,41.8 C238.5,42.5 238.8,43 239.1,42.8 Z" fill="#29282A"></path>
                    <path d="M280.7,42.5 C281.2,42.3 281.2,41.4 280.9,40.7 L279.1,36.9 C278.8,36.2 278.6,36.2 278.7,37 L279.5,41.5 C279.8,42.3 280.3,42.8 280.7,42.5 Z" fill="#29282A"></path>
                    <path d="M282.5,27 C282.3,26.7 281.9,27 281.5,27.7 L279.7,31.5 C279.3,32.2 279.4,32.3 279.9,31.6 L281.9,28.8 C282.4,28.2 282.7,27.4 282.5,27 Z" fill="#29282A"></path>
                    <path d="M255.4,9.8 L255.5,7.6 C255.5,6.8 255.7,6.8 255.9,7.6 L256.5,10.1" fill="#020303"></path>
                    <path d="M14.9,43.4 C14.1,43.2 14.1,43 15,43.1 L15.2,43.1 C16,43.2 17.3,43.3 18,43.4 C18.7,43.5 18.6,43.6 17.9,43.7 C17.2,43.8 15.7,43.6 14.9,43.4 L14.9,43.4 Z" fill="#5B5558"></path>
                    <path d="M54.8,38.8 C54.2,38.2 54.1,38.3 54.6,39 L55.4,40.1 C55.9,40.8 56.7,41.6 57.2,41.9 C57.7,42.2 57.7,42 57.1,41.3 C56.5,40.6 55.7,39.7 55.1,39.1 L54.8,38.8 Z" fill="#5B5558"></path>
                    <path d="M71.2,37.1 C71,37.1 71.1,37.7 71.5,38.4 C71.8,39.1 72,39.1 71.9,38.4 C71.7,37.7 71.4,37.1 71.2,37.1 Z" fill="#5B5558"></path>
                    <path d="M94.4,45.2 C93.7,45.1 93.8,45 94.6,44.8 L95.8,44.6 C96.6,44.5 96.9,44.6 96.5,44.8 C96,45.1 95.1,45.3 94.4,45.2 Z" fill="#5B5558"></path>
                    <path d="M110.6,38.5 C110.3,38 110.2,38.3 110.3,39.1 C110.5,39.9 110.9,41.1 111.3,41.8 C111.7,42.5 111.8,42.4 111.7,41.6 L111.5,40.7 C111.3,39.9 110.9,38.9 110.6,38.5 Z" fill="#5B5558"></path>
                    <path d="M164.2,39.9 C164.1,39.4 163.8,39.5 163.6,40.1 C163.4,40.7 163.2,41.9 163.2,42.7 L163.2,42.7 C163.2,43.5 163.4,43.6 163.7,42.8 L163.9,42.2 C164.2,41.4 164.3,40.4 164.2,39.9 Z" fill="#5B5558"></path>
                    <path d="M146.4,36.4 C146.2,35.9 145.8,36 145.5,36.6 C145.2,37.2 145.5,38.1 146.3,38.4 L146.6,38.5 C147.3,38.9 147.7,38.7 147.4,38.2 C147,37.8 146.6,36.9 146.4,36.4 Z" fill="#5B5558"></path>
                    <path d="M176.4,45.5 C175.6,45.3 175.6,45.1 176.4,45.1 L176.9,45.1 C177.7,45.1 179,45.3 179.8,45.6 L179.9,45.6 C180.7,45.9 180.6,46 179.8,46 L179.3,46 C178.5,45.9 177.2,45.7 176.4,45.5 L176.4,45.5 Z" fill="#5B5558"></path>
                    <path d="M196.6,38.5 C196.5,38.2 196.3,38.5 196,39.1 C195.7,39.7 195.8,40 196.1,39.7 C196.5,39.3 196.7,38.8 196.6,38.5 Z" fill="#5B5558"></path>
                    <path d="M216.1,37.8 C216,37.5 215.8,37.8 215.5,38.4 C215.3,39.1 215.3,39.3 215.6,39 C216,38.6 216.2,38.1 216.1,37.8 Z" fill="#5B5558"></path>
                    <path d="M212.9,43.6 C212.1,43.4 212.1,43.3 212.9,43.2 L213.8,43.1 C214.6,43 215.7,43.2 216.1,43.5 C216.6,43.8 216.4,44 215.8,44 C215.2,44 214,43.9 213.2,43.7 L212.9,43.6 Z" fill="#5B5558"></path>
                    <path d="M241.6,43.6 C240.8,43.7 240.8,43.5 241.6,43.3 L241.6,43.3 C242.4,43.1 243.7,42.9 244.5,43 L245.9,43.1 C246.7,43.2 246.7,43.3 245.9,43.3 L244.5,43.4 C243.7,43.4 242.4,43.5 241.6,43.6 Z" fill="#5B5558"></path>
                    <path d="M260.1,23.2 C259.7,23.4 259.1,24.1 258.8,24.9 L258.7,25.2 C258.4,26 258.5,26 259,25.4 L260,24.1 C260.5,23.4 260.5,23 260.1,23.2 Z" fill="#29282A"></path>
                    <path d="M291.5,9.4 C291.1,9.4 290.7,8.7 290.7,7.9 L290.5,7 C290.4,6.2 290.6,6.1 291,6.9 L291.5,8.1 C291.9,8.8 291.9,9.4 291.5,9.4 Z" fill="#020303"></path>
                    <path d="M172.2,13 C172.2,12.5 172.8,12.2 173.6,12.2 L174.4,12.2 C175.2,12.2 175.3,12.5 174.5,12.8 L173.6,13.2 C172.9,13.5 172.2,13.4 172.2,13 Z" fill="#020303"></path>
                    <path d="M127.8,14.6 C127.5,14.4 127.3,15 127.4,15.8 L127.5,16.7 C127.6,17.5 127.8,17.5 128,16.7 L128.1,16.3 C128.3,15.6 128.2,14.8 127.8,14.6 Z" fill="#020303"></path>
                    <path d="M88.1,26.9 C88,26.6 88.6,26.3 89.4,26.3 L93.1,26.3 C93.9,26.3 93.9,26.4 93.1,26.6 L89.7,27.3 C89,27.4 88.2,27.3 88.1,26.9 Z" fill="#020303"></path>
                    <path d="M17.7,33.9 C17.8,33.6 17.1,33.4 16.3,33.4 L15.2,33.4 C14.4,33.4 14.4,33.6 15.2,33.8 L16.2,34 C16.9,34.2 17.6,34.1 17.7,33.9 Z" fill="#020303"></path>
                    <path d="M5,36.7 C4.2,36.7 3.6,36.9 3.8,37 C4,37.1 4.8,37.3 5.6,37.3 L12.5,37.3 C13.3,37.3 14.1,37.1 14.3,36.9 C14.5,36.7 13.9,36.5 13.1,36.5 L5,36.7 Z" fill="#DFDAD5"></path>
                    <path d="M34.9,36.7 C34.1,36.7 33.5,36.9 33.7,37 C33.9,37.1 34.7,37.3 35.5,37.3 L42.3,37.3 C43.1,37.3 43.9,37.1 44.1,36.9 C44.3,36.7 43.7,36.5 42.9,36.5 L34.9,36.7 Z" fill="#DFDAD5"></path>
                    <path d="M51.7,36.6 C50.9,36.6 50.3,36.8 50.3,37 C50.3,37.2 51.1,37.3 51.9,37.3 L52.3,37.3 C53.1,37.3 53.8,37.1 53.9,36.9 C54,36.7 53.3,36.5 52.5,36.6 L51.7,36.6 Z" fill="#DFDAD5"></path>
                    <path d="M21.7,21.9 C20.9,21.9 20.3,22.1 20.3,22.3 C20.3,22.5 21.1,22.6 21.9,22.6 L22.3,22.6 C23.1,22.6 23.8,22.4 23.9,22.2 C24,22 23.3,21.8 22.5,21.9 L21.7,21.9 Z" fill="#DFDAD5"></path>
                    <path d="M34.1,21.9 C33.3,21.9 32.7,22.1 32.7,22.3 C32.7,22.5 33.5,22.6 34.3,22.6 L34.7,22.6 C35.5,22.6 36.2,22.4 36.3,22.2 C36.4,22 35.7,21.8 34.9,21.9 L34.1,21.9 Z" fill="#DFDAD5"></path>
                    <path d="M9.3,23.9 C8.5,23.9 7.8,24.1 7.9,24.3 C8,24.5 8.7,24.6 9.5,24.6 L9.5,24.6 C10.3,24.6 11,24.4 11.1,24.2 C11.2,24 10.5,23.8 9.7,23.9 L9.3,23.9 Z" fill="#DFDAD5"></path>
                    <path d="M24.2,29 C23.4,29 22.8,29.2 22.9,29.3 C23,29.5 23.8,29.6 24.6,29.6 L27.8,29.6 C28.6,29.6 29.4,29.4 29.5,29.2 C29.6,29 29,28.8 28.2,28.8 L24.2,29 Z" fill="#DFDAD5"></path>
                    <path d="M17.4,7.4 C16.6,7.4 16,7.6 16.1,7.7 C16.2,7.9 16.9,8 17.8,8 L21,8 C21.8,8 22.6,7.8 22.7,7.6 C22.8,7.4 22.2,7.2 21.4,7.2 L17.4,7.4 Z" fill="#DFDAD5"></path>
                    <path d="M69,36.6 C68.2,36.6 67.6,36.8 67.6,37 C67.6,37.2 68.4,37.3 69.2,37.3 L69.6,37.3 C70.4,37.3 71.1,37.1 71.2,36.9 C71.3,36.7 70.6,36.5 69.8,36.6 L69,36.6 Z" fill="#DFDAD5"></path>
                    <path d="M98.4,36.6 C97.6,36.6 96.9,36.8 97,37 C97.1,37.2 97.8,37.3 98.6,37.3 L98.6,37.3 C99.4,37.3 100.1,37.1 100.2,36.9 C100.3,36.7 99.6,36.5 98.8,36.6 L98.4,36.6 Z" fill="#DFDAD5"></path>
                    <path d="M74.5,36.6 C73.7,36.6 73.1,36.8 73.2,36.9 C73.3,37 74,37.2 74.9,37.2 L77.4,37.2 C78.2,37.2 79,37 79.1,36.8 C79.2,36.6 78.6,36.4 77.8,36.5 L74.5,36.6 Z" fill="#DFDAD5"></path>
                    <path d="M90.1,36.6 C89.3,36.6 88.7,36.8 88.8,36.9 C88.9,37.1 89.7,37.2 90.5,37.2 L93.5,37.2 C94.3,37.2 95.1,37 95.2,36.8 C95.3,36.6 94.7,36.4 93.9,36.4 L90.1,36.6 Z" fill="#DFDAD5"></path>
                    <path d="M107.3,36.6 C106.5,36.6 105.9,36.8 105.9,37 C106,37.2 106.7,37.3 107.5,37.3 L109,37.3 C109.8,37.3 110.6,37.1 110.6,36.9 C110.7,36.7 110.1,36.5 109.2,36.6 L107.3,36.6 Z" fill="#DFDAD5"></path>
                    <path d="M141.5,36.6 C140.7,36.6 140.1,36.8 140.1,37 C140.1,37.2 140.9,37.3 141.7,37.3 L143.2,37.3 C144,37.3 144.8,37.1 144.8,36.9 C144.8,36.7 144.3,36.5 143.4,36.6 L141.5,36.6 Z" fill="#DFDAD5"></path>
                    <path d="M165.8,36.6 C165,36.6 164.4,36.8 164.4,37 C164.5,37.2 165.2,37.3 166,37.3 L167,37.3 C167.8,37.3 168.6,37.1 168.6,36.9 C168.7,36.7 168.1,36.5 167.2,36.6 L165.8,36.6 Z" fill="#DFDAD5"></path>
                    <path d="M177.9,36.7 C177.1,36.7 176.5,36.9 176.7,37 C176.9,37.1 177.6,37.3 178.5,37.3 L184,37.3 C184.8,37.3 185.6,37.1 185.8,36.9 C186,36.7 185.4,36.5 184.6,36.5 L177.9,36.7 Z" fill="#DFDAD5"></path>
                    <path d="M192.9,36.6 C192.1,36.6 191.5,36.8 191.5,37 C191.6,37.2 192.3,37.3 193.1,37.3 L193.6,37.3 C194.4,37.3 195.1,37.1 195.2,36.9 C195.3,36.7 194.6,36.5 193.8,36.6 L192.9,36.6 Z" fill="#DFDAD5"></path>
                    <path d="M198.3,36.6 C197.5,36.6 196.9,36.8 197,36.9 C197.1,37.1 197.9,37.2 198.7,37.2 L201.2,37.2 C202,37.2 202.8,37 202.9,36.8 C203,36.6 202.4,36.4 201.6,36.5 L198.3,36.6 Z" fill="#DFDAD5"></path>
                    <path d="M210.2,36.6 C209.4,36.6 208.8,36.8 208.9,37 C209,37.2 209.7,37.3 210.5,37.3 L212.2,37.3 C213,37.3 213.8,37.1 213.8,36.9 C213.8,36.7 213.3,36.5 212.5,36.6 L210.2,36.6 Z" fill="#DFDAD5"></path>
                    <path d="M217.3,36.6 C216.5,36.6 215.9,36.8 215.9,37 C215.9,37.2 216.7,37.3 217.5,37.3 L218.3,37.3 C219.1,37.3 219.9,37.1 219.9,36.9 C220,36.7 219.3,36.5 218.5,36.6 L217.3,36.6 Z" fill="#DFDAD5"></path>
                    <path d="M227.3,36.7 C226.5,36.7 226,36.9 226.1,37 C226.2,37.1 227.1,37.3 227.9,37.3 L235.5,37.3 C236.3,37.3 237.1,37.1 237.3,36.9 C237.5,36.7 237,36.5 236.1,36.5 L227.3,36.7 Z" fill="#DFDAD5"></path>
                    <path d="M244.4,36.7 C243.6,36.7 243.1,36.9 243.2,37 C243.4,37.2 244.2,37.3 245,37.3 L252.6,37.3 C253.4,37.3 254.2,37.1 254.4,36.9 C254.6,36.7 254.1,36.5 253.2,36.5 L244.4,36.7 Z" fill="#DFDAD5"></path>
                    <path d="M287.5,36.7 C286.7,36.7 286.2,36.9 286.3,37 C286.5,37.2 287.3,37.3 288.1,37.3 L295.7,37.3 C296.5,37.3 297.3,37.1 297.5,36.9 C297.7,36.7 297.2,36.5 296.3,36.5 L287.5,36.7 Z" fill="#DFDAD5"></path>
                    <path d="M271.6,8 C270.8,8 270.2,8.2 270.3,8.3 C270.4,8.5 271.2,8.6 272,8.6 L274.9,8.6 C275.7,8.6 276.5,8.4 276.6,8.2 C276.7,8 276.1,7.8 275.3,7.8 L271.6,8 Z" fill="#DFDAD5"></path>
                    <path d="M258.2,8 C257.4,8 256.8,8.2 256.9,8.3 C257,8.4 257.8,8.6 258.6,8.6 L262.4,8.6 C263.2,8.6 264,8.4 264.1,8.2 C264.2,8 263.6,7.8 262.8,7.8 L258.2,8 Z" fill="#DFDAD5"></path>
                    <path d="M251.4,8 C250.6,8 250,8.2 250.1,8.4 C250.2,8.6 250.9,8.7 251.7,8.7 L253.5,8.7 C254.3,8.7 255.1,8.5 255.2,8.3 C255.3,8.1 254.7,7.9 253.9,8 L251.4,8 Z" fill="#DFDAD5"></path>
                    <path d="M253.7,21.9 C252.9,21.9 252.3,22.1 252.4,22.2 C252.5,22.4 253.3,22.5 254.1,22.5 L257.2,22.5 C258,22.5 258.8,22.3 258.9,22.1 C259,21.9 258.4,21.7 257.6,21.7 L253.7,21.9 Z" fill="#DFDAD5"></path>
                    <path d="M212.1,7 C211.3,7 210.7,7.2 210.8,7.4 C210.9,7.6 211.6,7.7 212.5,7.7 L214.3,7.7 C215.1,7.7 215.9,7.5 215.9,7.3 C216,7.1 215.4,6.9 214.6,7 L212.1,7 Z" fill="#DFDAD5"></path>
                    <path d="M221.8,7 C221,7 220.4,7.2 220.5,7.4 C220.6,7.6 221.3,7.7 222.1,7.7 L223.9,7.7 C224.7,7.7 225.5,7.5 225.5,7.3 C225.5,7.1 225,6.9 224.2,7 L221.8,7 Z" fill="#DFDAD5"></path>
                    <path d="M215.7,13.1 C215,13.1 214.4,13.3 214.5,13.5 C214.6,13.7 215.1,13.8 215.7,13.8 C216.3,13.8 216.9,13.6 216.9,13.4 C217,13.2 216.4,13.1 215.7,13.1 Z" fill="#DFDAD5"></path>
                    <path d="M219,11.1 C218.2,11.1 217.5,11.3 217.6,11.5 C217.7,11.7 218.3,11.8 219.1,11.8 C219.9,11.8 220.6,11.6 220.6,11.4 C220.7,11.2 220,11 219.2,11.1 L219,11.1 Z" fill="#DFDAD5"></path>
                    <path d="M176,11.5 C175.2,11.5 174.5,11.7 174.6,11.9 C174.7,12.1 175.3,12.2 176.1,12.2 C176.9,12.2 177.6,12 177.6,11.8 C177.6,11.6 177,11.4 176.2,11.5 L176,11.5 Z" fill="#DFDAD5"></path>
                    <path d="M186.8,21.6 C186,21.6 185.4,21.8 185.4,22 C185.5,22.2 186.2,22.3 187,22.3 L187.5,22.3 C188.3,22.3 189,22.1 189.1,21.9 C189.2,21.7 188.5,21.5 187.7,21.6 L186.8,21.6 Z" fill="#DFDAD5"></path>
                    <path d="M179.2,25.2 C178.4,25.2 177.8,25.4 177.9,25.5 C178,25.7 178.7,25.8 179.6,25.8 L182.1,25.8 C182.9,25.8 183.7,25.6 183.8,25.4 C183.9,25.2 183.3,25 182.5,25.1 L179.2,25.2 Z" fill="#DFDAD5"></path>
                    <path d="M286.4,25.9 C285.6,25.9 285,26.1 285.1,26.2 C285.2,26.4 285.9,26.5 286.8,26.5 L289.3,26.5 C290.1,26.5 290.9,26.3 291,26.1 C291.1,25.9 290.5,25.7 289.7,25.8 L286.4,25.9 Z" fill="#DFDAD5"></path>
                    <path d="M108.2,28.8 C107.4,28.8 106.8,29 106.8,29.2 C106.9,29.4 107.6,29.5 108.4,29.5 L109.5,29.5 C110.3,29.5 111.1,29.3 111.1,29.1 C111.2,28.9 110.6,28.7 109.7,28.8 L108.2,28.8 Z" fill="#DFDAD5"></path>
                    <path d="M93,25.7 C92.2,25.7 91.6,25.9 91.6,26.1 C91.7,26.3 92.4,26.4 93.2,26.4 L94.3,26.4 C95.1,26.4 95.9,26.2 95.9,26 C96,25.8 95.4,25.6 94.5,25.7 L93,25.7 Z" fill="#DFDAD5"></path>
                    <path d="M71.4,25.5 C70.6,25.5 70,25.7 70,25.9 C70,26.1 70.8,26.2 71.6,26.2 L72.7,26.2 C73.5,26.2 74.3,26 74.3,25.8 C74.4,25.6 73.8,25.4 72.9,25.5 L71.4,25.5 Z" fill="#DFDAD5"></path>
                    <path d="M38.8,13.9 C38,13.9 37.4,14.1 37.5,14.2 C37.6,14.4 38.4,14.5 39.2,14.5 L41.8,14.5 C42.6,14.5 43.4,14.3 43.5,14.1 C43.6,13.9 43,13.7 42.2,13.7 L38.8,13.9 Z" fill="#DFDAD5"></path>
                    <path d="M100.1,8.4 C99.3,8.3 98.7,8.4 98.7,8.6 C98.7,8.8 99.5,9 100.3,9.1 L101.4,9.3 C102.2,9.4 103,9.3 103.1,9.1 C103.2,8.9 102.6,8.7 101.8,8.6 L100.1,8.4 Z" fill="#DFDAD5"></path>
                    <path d="M193,27.5 C192.2,27.5 191.6,27.7 191.6,27.9 C191.6,28.1 192.4,28.2 193.2,28.2 L194.3,28.2 C195.1,28.2 195.9,28 195.9,27.8 C196,27.6 195.4,27.4 194.5,27.5 L193,27.5 Z" fill="#DFDAD5"></path>
                    <path d="M220.2,24.9 C219.4,24.9 218.8,25.1 218.8,25.3 C218.9,25.5 219.6,25.6 220.4,25.6 L221.5,25.6 C222.3,25.6 223.1,25.4 223.1,25.2 C223.2,25 222.6,24.8 221.7,24.9 L220.2,24.9 Z" fill="#DFDAD5"></path>
                    <path d="M154.7,7.7 C153.9,7.7 153.4,7.9 153.6,8 C153.8,8.2 154.7,8.3 155.5,8.3 L165.3,8.3 C166.1,8.3 167,8.1 167.2,7.9 C167.4,7.7 166.9,7.5 166.1,7.5 L154.7,7.7 Z" fill="#DFDAD5"></path>
                    <path d="M122.3,7.8 C121.5,7.8 121,8 121.2,8.1 C121.4,8.3 122.3,8.4 123.1,8.4 L133.4,8.4 C134.2,8.4 135.1,8.2 135.3,8 C135.5,7.8 135.1,7.6 134.2,7.6 L122.3,7.8 Z" fill="#DFDAD5"></path>
                    <path d="M120.6,21.6 C119.8,21.6 119.2,21.8 119.3,21.9 C119.4,22.1 120.2,22.2 121,22.2 L125.2,22.2 C126,22.2 126.8,22 126.9,21.8 C127,21.6 126.5,21.4 125.6,21.4 L120.6,21.6 Z" fill="#DFDAD5"></path>
                    <path d="M129.3,21.6 C128.5,21.6 127.9,21.8 128,21.9 C128.1,22.1 128.9,22.2 129.7,22.2 L133.5,22.2 C134.3,22.2 135.1,22 135.2,21.8 C135.3,21.6 134.7,21.4 133.9,21.4 L129.3,21.6 Z" fill="#DFDAD5"></path>
                    <path d="M147.9,34.8 C147.1,34.8 146.5,35 146.5,35.2 C146.6,35.4 147.3,35.5 148.1,35.5 L148.4,35.5 C149.2,35.5 149.9,35.3 150,35.1 C150.1,34.9 149.4,34.7 148.6,34.8 L147.9,34.8 Z" fill="#DFDAD5"></path>
                    <path d="M145.4,12.6 C144.6,12.5 144,12.6 144,12.8 C144.1,13 144.8,13.2 145.6,13.3 L147.5,13.6 C148.3,13.7 149.1,13.6 149.2,13.5 C149.3,13.3 148.7,13.1 147.9,13 L145.4,12.6 Z" fill="#DFDAD5"></path>
                    <path d="M226.8,27.6 C226,27.5 225.4,27.6 225.4,27.8 C225.5,28 226.2,28.2 227,28.3 L228.9,28.6 C229.7,28.7 230.5,28.6 230.6,28.5 C230.7,28.3 230.1,28.1 229.3,28 L226.8,27.6 Z" fill="#DFDAD5"></path>
                    <path d="M223.9,13.1 C223.2,13.1 222.7,13.3 222.8,13.5 C222.8,13.7 223.4,13.8 223.9,13.8 C224.4,13.8 225,13.6 225,13.4 C225,13.2 224.6,13.1 223.9,13.1 Z" fill="#DFDAD5"></path>
                    <path d="M262.3,21.9 C261.5,21.9 260.9,22.1 261,22.2 C261.1,22.3 261.9,22.5 262.7,22.5 L266.5,22.5 C267.3,22.5 268.1,22.3 268.2,22.1 C268.3,21.9 267.7,21.7 266.9,21.7 L262.3,21.9 Z" fill="#DFDAD5"></path>
                    <path d="M293.5,8 C292.7,8 292.1,8.2 292.2,8.3 C292.3,8.4 293,8.6 293.9,8.6 L295.8,8.6 C296.6,8.6 297.4,8.4 297.5,8.2 C297.6,8 297,7.8 296.2,7.9 L293.5,8 Z" fill="#DFDAD5"></path>
                    <path d="M153.4,36.7 C152.6,36.7 152,36.9 152.2,37 C152.4,37.1 153.2,37.3 154,37.3 L160.3,37.3 C161.1,37.3 161.9,37.1 162.1,36.9 C162.3,36.7 161.7,36.5 160.9,36.5 L153.4,36.7 Z" fill="#DFDAD5"></path>
                    <path d="M113.6,36.7 C112.8,36.7 112.3,36.9 112.5,37 C112.7,37.1 113.6,37.3 114.4,37.3 L123.7,37.3 C124.5,37.3 125.4,37.1 125.6,36.9 C125.8,36.7 125.3,36.5 124.5,36.5 L113.6,36.7 Z" fill="#DFDAD5"></path>
                    <path d="M128.4,36.6 C127.6,36.6 127,36.8 127.1,36.9 C127.2,37 128,37.2 128.8,37.2 L132.5,37.2 C133.3,37.2 134.1,37 134.2,36.8 C134.3,36.6 133.7,36.4 132.9,36.4 L128.4,36.6 Z" fill="#DFDAD5"></path>
                    <path d="M58.1,36.7 C57.3,36.7 56.7,36.9 56.8,37.1 C56.9,37.3 57.6,37.4 58.4,37.4 L60.1,37.4 C60.9,37.4 61.7,37.2 61.7,37 C61.7,36.8 61.2,36.6 60.4,36.7 L58.1,36.7 Z" fill="#DFDAD5"></path>
                </g>
                <g id="Shape">
                    <g fill="#020303">
                        <polygon points="13.5 49.9 0.7 38 12.8 0.5 26.8 0.5 33.8 10.1 34.6 7 38.6 7 40.3 0.5 54.7 0.5 55.7 2.2 56 0.5 70.6 0.5 71.5 2.4 71.8 0.5 86.5 0.5 89.1 7.1 89.4 7.1 90.3 9.2 91.5 0.5 106.4 0.4 107.1 2.9 107.3 0.4 138.3 0.4 139.8 14.4 139.5 22.6 138.8 22.6 139.3 27.1 139 35.8 138.1 35.8 138.8 40.7 138.4 49.8 107.7 49.8 106.9 47.6 106.7 49.8 92 49.8 88.1 41.7 86.9 49.8 72.4 49.8 71.3 48.2 71 49.8 56.6 49.8 55.5 48.3 55.2 49.8 40.9 49.8 34.7 42.7 30.9 42.7 29.7 41.3 27.4 49.9"></polygon>
                        <path d="M186.4,46.9 L185.8,49.9 L170.7,49.9 L169.5,14.5 L170.8,0.5 L201.9,0.5 L202.2,3.1 L202.9,0.5 L233.7,0.5 L234,2.5 L234.9,0.5 L265.5,0.5 L265.9,2.2 L266.9,0.5 L297.3,0.5 L300,9 L293.9,16.3 L294,16.6 C294.4,18 294.9,19.5 295.3,20.9 C295.6,21.9 296.7,25.3 296.7,25.3 L297.9,29.1 L298.5,31 C298.8,32 299.1,32.9 299.4,33.9 C299.7,34.9 300,35.9 300.3,36.8 L300.6,37.9 L288.7,49.8 L274.4,49.8 L268.6,26.4 L261.8,35.8 L257,35.8 L257.4,37.8 L249,49.8 L234.5,49.8 L234.2,48 L233.2,49.8 L218.6,49.8 L218.3,47.8 L217.4,49.8 L202.6,49.8 L202.4,47.5 L201.6,49.8 L186.7,49.8 L186.4,46.9 Z"></path>
                        <polygon points="137.7 37.6 139 0.4 170.2 0.4 170.4 8.9 169.4 22.6 154.6 22.6 154.5 28 171 28 171.3 37.6 170.1 49.8 139.1 49.8"></polygon>
                    </g>
                    <g transform="translate(3.000000, 2.000000)">
                        <polygon fill="url(#linearGradient-1)" points="24.5 6.9 22.6 13.8 31.3 13.8 33.1 7 37.1 7 38.8 0.5 50.2 0.5 42.2 35.2 29.8 35.2 33.5 20.4 29 20.4 27.1 27.6 19.1 27.6 21.1 20.4 16.6 20.5 12.2 35.2 0.1 35.2 11.2 0.5 22.5 0.5 20.6 6.8"></polygon>
                        <polygon fill="url(#linearGradient-2)" points="66 0.5 59.2 35.3 46.9 35.3 54.6 0.5"></polygon>
                        <polygon fill="url(#linearGradient-3)" points="82.8 24 83.8 16.8 79.3 16.7 76.3 35.2 64 35.2 70.5 0.4 81.9 0.4 80.9 6.9 84.9 7 83.9 13.7 88.3 13.7 90.2 0.4 101.7 0.4 97.7 35.2 85.3 35.2 86.8 24.1"></polygon>
                        <polygon fill="url(#linearGradient-4)" points="132.2 28 131.9 35.2 102.4 35.2 106.1 0.4 133.5 0.4 133.2 6.5 117.1 6.5 116.6 13.6 132.9 13.7 132.6 20.4 116 20.4 115.4 27.9"></polygon>
                        <path d="M292.8,0.2 L294.8,6.4 L286.8,6.4 L286.8,6.6 C287.1,7.9 287.5,9.3 287.9,10.7 C288.3,12.1 288.7,13.5 289.1,15 C289.5,16.5 290,17.9 290.4,19.4 C290.9,20.9 291.3,22.4 291.8,23.9 C292.1,24.8 292.4,25.7 292.6,26.6 C292.9,27.5 293.2,28.5 293.5,29.4 C293.8,30.3 294.1,31.3 294.3,32.2 C294.6,33.1 294.9,34.1 295.1,35 L282.6,35 L274.8,6.3 L266.8,6.3 L265.2,0.1 L292.8,0.2 Z" fill="url(#linearGradient-5)"></path>
                        <polygon fill="url(#linearGradient-6)" points="264.1 13.4 265.8 20.3 249.1 20.3 252.2 35.1 239.7 35.1 233.3 0.3 260.8 0.3 262.4 6.4 246.2 6.4 247.6 13.4"></polygon>
                        <path d="M216.2,23.9 L217.7,35.1 L205.3,35.1 L201.4,0.3 L228.9,0.3 L234.9,35.1 L222.5,35.1 L220.9,23.9 L216.2,23.9 Z M224.3,10.2 L223.6,5.8 L218.2,5.8 L218.7,9.9 L214.4,9.9 L213.8,5.9 L208.5,5.9 L209.1,10.3 L213.9,10.3 L214.1,11.9 L211.7,11.9 L212.6,18.7 L215.5,18.7 L215.3,16.4 L219.6,16.4 L220,18.7 L223,18.7 L222,11.9 L219.6,11.9 L219.4,10.3 L224.3,10.2 L224.3,10.2 Z" fill="url(#linearGradient-7)"></path>
                        <path d="M194.7,17.1 L198.8,17.1 L200.6,35.1 L188.2,35.1 L187,20.5 L182.4,20.4 L183.4,35.2 L171,35.2 L169.7,0.4 L197.1,0.4 L198.4,13.3 L194.3,13.3 L194.7,17.1 Z M186.6,13.6 L186,6.5 L181.5,6.5 L182,13.7 L186.6,13.6 L186.6,13.6 Z" fill="url(#linearGradient-8)"></path>
                        <polygon fill="url(#linearGradient-9)" points="149.5 6.5 165.4 6.5 165.2 0.3 137.9 0.4 136.7 35.2 166.2 35.2 166 28 149.1 28"></polygon>
                    </g>
                    <path d="M4.6,37.2 C3.8,37.2 3.6,37.7 4.2,38.2 L13.2,46.8 C13.8,47.4 15,47.8 15.8,47.8 L23.8,47.8 C24.6,47.8 24.8,47.3 24.3,46.7 L16.4,38.2 C15.8,37.6 14.7,37.1 13.9,37.1 L4.6,37.2 Z" fill="#29282A"></path>
                    <path d="M34.3,37.2 C33.5,37.2 33.2,37.7 33.8,38.3 L40.8,46.7 C41.3,47.3 42.4,47.8 43.3,47.8 L51.7,47.8 C52.5,47.8 52.8,47.3 52.3,46.6 L46.1,38.3 C45.6,37.6 44.5,37.1 43.7,37.1 L34.3,37.2 Z" fill="#29282A"></path>
                    <path d="M23.6,29.6 C22.8,29.6 22.5,30.1 23.1,30.7 L30.9,39.5 C31.4,40.1 32.5,40.6 33.2,40.6 C33.9,40.6 34.1,40 33.7,39.3 L33,38.3 C32.5,37.6 32.3,36.4 32.5,35.6 L32.7,34.8 C32.9,34 32.7,32.8 32.2,32.2 L31,30.8 C30.5,30.2 29.4,29.6 28.6,29.6 L23.6,29.6 Z" fill="#29282A"></path>
                    <path d="M51.4,37.3 C50.6,37.3 50.3,37.8 50.8,38.5 L56.8,46.7 C57.3,47.4 58.4,47.9 59.2,47.9 L67.4,47.9 C68.2,47.9 68.5,47.3 68.1,46.6 L63,38.5 C62.6,37.8 61.5,37.2 60.7,37.2 L51.4,37.3 Z" fill="#29282A"></path>
                    <path d="M68.5,37.2 C67.7,37.2 67.4,37.8 67.8,38.5 L72.7,46.5 C73.1,47.2 74.2,47.8 75,47.8 L83,47.8 C83.8,47.8 84.2,47.2 83.8,46.5 L80,38.5 C79.6,37.8 78.7,37.2 77.8,37.2 L68.5,37.2 Z" fill="#29282A"></path>
                    <path d="M89.8,37.2 C89,37.2 88.6,37.8 88.9,38.6 L92.6,46.6 C92.9,47.3 93.9,48 94.7,48 L103.1,48 C103.9,48 104.4,47.4 104.1,46.6 L101.2,38.7 C100.9,37.9 100,37.3 99.2,37.3 L89.8,37.2 Z" fill="#29282A"></path>
                    <path d="M106.9,37.2 C106.1,37.2 105.6,37.8 105.9,38.6 L108.6,46.2 C108.9,47 109.8,47.6 110.6,47.6 L134.9,47.6 C135.7,47.6 136.3,46.9 136.2,46.1 L135.1,38.6 C135,37.8 134.2,37.1 133.4,37.1 L106.9,37.2 Z" fill="#29282A"></path>
                    <path d="M141.2,37.2 C140.4,37.2 139.8,37.9 139.9,38.7 L140.7,46.4 C140.8,47.2 141.5,47.9 142.4,47.9 L166.5,47.9 C167.3,47.9 168.1,47.2 168.2,46.4 L169.1,38.6 C169.2,37.8 168.6,37.1 167.8,37.1 L141.2,37.2 Z" fill="#29282A"></path>
                    <path d="M175.5,37.1 C174.7,37.1 173.9,37.8 173.8,38.6 L172.8,46.2 C172.7,47 173.3,47.7 174.1,47.7 L182.3,47.7 C183.1,47.7 184,47 184.1,46.2 L185.9,38.5 C186.1,37.7 185.6,37 184.8,37 L175.5,37.1 Z" fill="#29282A"></path>
                    <path d="M192.7,37.1 C191.9,37.1 191,37.8 190.9,38.6 L189.1,46.2 C188.9,47 189.4,47.7 190.3,47.7 L198.5,47.7 C199.3,47.7 200.2,47.1 200.5,46.3 L203.2,38.6 C203.5,37.8 203,37.2 202.2,37.2 L192.7,37.1 Z" fill="#29282A"></path>
                    <path d="M209.8,37.1 C209,37.1 208.1,37.7 207.8,38.5 L205,46.3 C204.7,47.1 205.2,47.7 206,47.7 L214.2,47.7 C215,47.7 216,47.1 216.3,46.3 L220,38.4 C220.3,37.7 220,37 219.1,37 L209.8,37.1 Z" fill="#29282A"></path>
                    <path d="M227,37.1 C226.2,37.1 225.2,37.7 224.8,38.4 L220.9,46.3 C220.5,47 220.9,47.6 221.7,47.6 L230.2,47.6 C231,47.6 232,47 232.4,46.3 L237,38.3 C237.4,37.6 237.1,37 236.3,37 L227,37.1 Z" fill="#29282A"></path>
                    <path d="M244.2,37.1 C243.4,37.1 242.4,37.7 241.9,38.4 L237,46.5 C236.6,47.2 236.9,47.8 237.7,47.8 L246.1,47.8 C246.9,47.8 248,47.3 248.5,46.6 L254.3,38.4 C254.8,37.7 254.5,37.2 253.7,37.2 L244.2,37.1 Z" fill="#29282A"></path>
                    <path d="M287.2,37.1 C286.4,37.1 285.3,37.6 284.7,38.2 L277.4,46.5 C276.9,47.1 277.1,47.6 277.9,47.6 L285.9,47.6 C286.7,47.6 287.9,47.1 288.5,46.6 L297.1,38.2 C297.7,37.6 297.5,37.2 296.7,37.2 L287.2,37.1 Z" fill="#29282A"></path>
                    <g opacity="0.44" transform="translate(6.000000, 1.000000)" fill="#020303">
                        <g>
                            <path d="M6.2,7.3 C6.1,7.5 6.7,7.7 7.5,7.7 L16.2,7.7 C17,7.7 17.7,7.5 17.7,7.3 C17.7,7.1 17,6.9 16.2,6.9 L7.7,6.9 C7,6.9 6.3,7 6.2,7.3 Z"></path>
                            <path d="M5.6,24.8 C5.9,24 5.4,23.4 4.6,23.4 L2.3,23.4 C1.5,23.4 0.8,23.6 0.8,23.8 C0.8,24 1.5,24.2 2.3,24.2 L3.6,24.2 C4.4,24.2 4.9,24.8 4.6,25.6 L2.6,31.6 C2.3,32.4 2.8,33 3.6,33 L10.2,33 C11,33 11.7,32.8 11.7,32.6 C11.7,32.4 11,32.2 10.2,32.2 L4.7,32.2 C3.9,32.2 3.4,31.6 3.7,30.8 L3.9,30.1 C4.2,29.3 5,28.7 5.9,28.7 L11,28.7 C11.8,28.7 12.5,28.5 12.5,28.3 C12.5,28.1 11.8,27.9 11,27.9 L6.1,27.9 C5.3,27.9 4.8,27.3 5.1,26.5 L5.6,24.8 Z"></path>
                            <path d="M39.5,8.6 C39.6,7.8 39,7.1 38.2,7.1 L35.5,7.1 C34.7,7.1 33.9,7.3 33.9,7.5 C33.8,7.7 34.4,7.9 35.3,7.9 L37.4,7.9 C38.2,7.9 38.8,8.6 38.7,9.4 L38.3,12.2 C38.2,13 37.4,13.7 36.6,13.7 L28.6,13.7 C27.8,13.7 27.1,13.9 27.1,14.1 C27.1,14.3 27.8,14.5 28.6,14.5 L36.5,14.5 L38.2,14.5 L39.9,14.5 L44.1,14.5 C44.9,14.5 45.6,14.3 45.6,14.1 C45.6,13.9 44.9,13.7 44.1,13.7 L40.3,13.7 C39.5,13.7 38.9,13 39,12.2 L39.5,8.6 Z"></path>
                            <path d="M50.2,31.8 C50.3,31 50.2,30.7 49.9,31.2 C49.6,31.7 49.3,32.7 49.1,33.5 L48.9,35 C48.7,35.8 49,37 49.5,37.7 L50,38.5 C50.5,39.2 51.2,40 51.7,40.4 C52.2,40.8 52.2,40.5 51.7,39.8 L50.2,37.5 C49.7,36.8 49.5,35.6 49.6,34.8 L50.2,31.8 Z"></path>
                            <path d="M62.4,8.5 C62.4,8.3 61.7,8.1 60.9,8.2 L57.5,8.3 C56.7,8.3 56.4,8.5 56.8,8.6 C57.3,8.8 58.3,8.9 59.1,8.9 L60.9,8.9 C61.7,8.9 62.4,8.7 62.4,8.5 Z"></path>
                            <path d="M67.1,33.7 C67.3,32.9 67.2,32.6 66.9,33.1 C66.6,33.6 66.2,34.5 66.1,35.1 C66,35.7 66.1,36.9 66.4,37.6 C66.7,38.4 67.2,39.3 67.5,39.7 C67.8,40.1 67.9,39.8 67.6,39 L67,37.5 C66.7,36.7 66.7,35.4 66.9,34.6 L67.1,33.7 Z"></path>
                            <path d="M63.9,25 C63.1,25 62.4,25.1 62.4,25.3 C62.4,25.5 63.1,25.7 63.9,25.8 L73.2,26.3 C74,26.3 74.9,26.7 75.2,27.2 C75.5,27.7 75.9,27.9 76,27.8 C76.2,27.7 76,27.2 75.7,26.6 C75.4,26.1 74.4,25.6 73.6,25.6 L63.9,25 Z"></path>
                            <path d="M73.6,7.3 C73.9,7.5 74.9,7.7 75.7,7.7 L76.6,7.7 C77.4,7.7 78.1,7.5 78.1,7.3 C78.1,7.1 77.5,7 76.7,6.9 L74.5,6.9 C73.7,6.9 73.3,7.1 73.6,7.3 Z"></path>
                            <path d="M84.3,25.2 C83.5,25.2 82.8,25.4 82.8,25.6 C82.8,25.8 83.5,26 84.3,25.9 L89.8,25.7 C90.6,25.7 91.2,26.3 91.1,27.1 L90,34.7 C89.9,35.5 90,36.8 90.2,37.6 L90.5,38.6 C90.7,39.4 91.2,40.5 91.6,41 C92,41.5 92.1,41.3 91.8,40.5 L90.9,37.5 C90.7,36.7 90.6,35.4 90.7,34.6 L91.9,26.3 C92,25.5 91.5,24.8 90.6,24.9 L84.3,25.2 Z"></path>
                            <path d="M86.2,7.1 C86.2,7.3 86.8,7.6 87.6,7.7 L96.8,8.8 C97.6,8.9 98.3,8.8 98.3,8.6 C98.3,8.4 97.6,8.1 96.8,8 L87.8,7 C87,6.9 86.3,6.9 86.2,7.1 Z"></path>
                            <path d="M105.8,29.8 C105.8,29 105.2,28.3 104.4,28.3 L100.9,28.3 C100.1,28.3 99.4,28.5 99.4,28.7 C99.4,28.9 100.1,29.1 100.9,29.1 L103.6,29.1 C104.4,29.1 105.1,29.8 105,30.6 L104.9,34.6 C104.9,35.4 105,36.7 105.2,37.5 L105.9,40.1 C106.1,40.9 106.5,42 106.8,42.5 C107.1,43 107.2,42.8 107,42 L106,37.5 C105.8,36.7 105.7,35.4 105.7,34.5 L105.8,29.8 Z"></path>
                            <path d="M101.3,11.5 C101.3,11.7 102,11.9 102.8,11.9 L106.1,11.9 C106.9,11.9 108,11.7 108.4,11.5 C108.9,11.3 108.5,11.1 107.7,11.1 L102.7,11.2 C101.9,11.1 101.3,11.3 101.3,11.5 Z"></path>
                            <path d="M122.1,15.3 C122.1,14.5 121.9,13.8 121.7,13.8 C121.5,13.8 121.3,14.5 121.3,15.3 L121.3,19.2 C121.3,20 121.5,20.3 121.7,19.8 C121.9,19.3 122.1,18.2 122.1,17.4 L122.1,15.3 Z"></path>
                            <path d="M125.8,29.3 C125.8,30.1 125.1,30.8 124.3,30.8 L121.6,30.8 C120.8,30.8 120.1,31.5 120.1,32.3 L120.1,35 C120.1,35.8 120.3,36.5 120.5,36.5 C120.7,36.5 120.9,35.8 120.9,35 L120.9,33.1 C120.9,32.3 121.6,31.6 122.4,31.6 L125.1,31.6 C125.9,31.6 126.6,30.9 126.6,30.1 L126.6,29.1 C126.6,28.3 126.5,27.6 126.3,27.6 C126.1,27.6 125.9,28.3 125.9,29.1 L125.8,29.3 Z"></path>
                            <path d="M156.9,30.9 C156.7,31.2 156.7,32.2 156.7,33 L156.9,34.8 C157,35.6 157,37 156.9,37.8 L155.8,45.8 C155.7,46.6 155.8,47.3 156.1,47.3 C156.4,47.3 156.6,46.6 156.7,45.8 L157.7,37.9 C157.8,37.1 157.8,35.7 157.7,34.9 L157.4,31.9 C157.2,31 157,30.6 156.9,30.9 Z"></path>
                            <path d="M134.1,42.8 C134.1,43 134.8,43.2 135.6,43.2 L136.3,43.2 C137.1,43.2 137.8,43 137.8,42.8 C137.8,42.6 137.1,42.4 136.3,42.4 L135.6,42.4 C134.7,42.5 134.1,42.6 134.1,42.8 Z"></path>
                            <path d="M137,12.5 C137.4,12.7 138.4,13 139.2,13.2 L145.7,14.4 C146.5,14.7 147.1,14.8 147.2,14.6 C147.3,14.4 146.7,14 145.9,13.8 L137.7,12.4 C136.9,12.3 136.6,12.3 137,12.5 Z"></path>
                            <path d="M136.8,19.5 C137.1,19.3 136.8,19.1 135.9,19.1 L135.4,19.1 C134.6,19.1 133.9,19.3 133.9,19.5 C133.9,19.7 134.4,19.9 135,19.9 C135.6,19.9 136.5,19.8 136.8,19.5 Z"></path>
                            <path d="M172.1,12.9 C172.2,13.4 172.9,13.8 173.7,13.8 L174.7,13.8 C175.5,13.8 176.3,13.8 176.4,13.9 C176.5,13.9 177,14.3 177.2,14.2 C177.4,14.1 177.2,13.8 176.9,13.5 C176.6,13.2 175.6,13 174.8,13 L174.4,13 C173.6,13 172.8,12.3 172.7,11.5 L171.7,2.3 C171.6,1.5 171.4,0.8 171.2,0.9 C171,0.9 170.9,1.6 171,2.4 L171.8,9.7 C171.9,10.5 171.3,11.2 170.5,11.2 L167.7,11.2 C166.9,11.2 166.2,11.4 166.2,11.6 C166.2,11.8 166.9,12 167.7,12 L170.6,12 C171.4,12 172.1,12.4 172.1,12.9 Z"></path>
                            <path d="M171.1,30.8 C171.2,31.6 170.9,32.9 170.5,33.6 L169.7,34.6 C169.5,35.4 169.5,36.1 169.7,36.1 C169.9,36.1 170.3,35.5 170.5,34.8 C170.5,34.8 170.6,34.3 171,33.8 C171.3,33.3 171.7,32.9 171.8,32.9 C171.9,32.9 172,32.2 171.9,31.4 L171.6,27.1 C171.5,26.3 172.2,25.6 173,25.6 L179.3,25.6 C180.1,25.6 180.8,25.4 180.8,25.2 C180.8,25 180.1,24.8 179.3,24.8 L172.2,24.8 C171.4,24.8 170.7,25.5 170.8,26.3 L171.1,30.8 Z"></path>
                            <path d="M183.8,27.6 C183.8,27.8 184.5,28 185.3,28 L189.6,28 C190.4,28 191.4,27.8 191.8,27.6 C192.2,27.4 191.8,27.2 191,27.2 L185.3,27.2 C184.5,27.2 183.8,27.4 183.8,27.6 Z"></path>
                            <path d="M187.3,16.9 C187.5,17.1 188.4,17.2 189.2,17.2 L190.6,17.2 C191.4,17.2 192.1,17 192.1,16.8 C192.1,16.6 191.4,16.4 190.6,16.4 L188.4,16.4 C187.6,16.5 187.1,16.7 187.3,16.9 Z"></path>
                            <path d="M166.5,43.5 C166.5,43.7 167.1,43.9 168,44 L177.3,44.7 C178.1,44.8 178.8,44.6 178.8,44.4 C178.8,44.2 178.2,44 177.3,43.9 L168,43.2 C167.2,43.1 166.5,43.3 166.5,43.5 Z"></path>
                            <path d="M219,27.3 C218.2,27.3 217.5,27.5 217.5,27.7 C217.5,27.9 218.2,28.1 219,28.1 L230.3,29.3 C231.1,29.4 231.8,29.3 231.9,29.1 C232,28.9 231.4,28.7 230.5,28.6 L219,27.3 Z"></path>
                            <path d="M253.5,13.3 C253.3,13.4 253.2,14.1 253.2,14.9 L254.2,20.2 C253.8,20.9 253.7,21.6 253.9,21.7 C254.1,21.8 254.5,21.3 254.9,20.5 L254,14.6 C253.9,13.8 253.7,13.2 253.5,13.3 Z"></path>
                            <path d="M247.6,3.8 C246.8,3.8 246,3.2 245.7,2.4 L245.7,2.2 C245.5,1.4 245.1,0.8 244.9,0.9 C244.7,1 244.7,1.7 245,2.4 L245.2,3.1 C245.4,3.9 246.3,4.5 247.1,4.5 C247.9,4.5 248.8,5.1 249,5.9 L249.5,7.2 C249.8,8 250.1,8.6 250.3,8.5 C250.5,8.4 250.4,7.7 250.2,7 L249.6,5.2 C249.3,4.5 248.4,3.8 247.6,3.8 Z"></path>
                            <path d="M277.4,25.8 C276.6,25.8 275.9,26 275.9,26.2 C275.9,26.4 276.6,26.6 277.4,26.6 L288,26.6 C288.8,26.6 289.5,26.4 289.5,26.2 C289.5,26 288.8,25.8 288,25.8 L277.4,25.8 Z"></path>
                            <path d="M285.4,8 C285.6,7.9 285.6,7.3 285.4,6.5 L284.3,2.4 C284.1,1.6 283.7,1 283.5,1.1 C283.3,1.2 283.3,1.9 283.5,2.6 L284.6,6.7 C284.9,7.4 285.2,8.1 285.4,8 Z"></path>
                        </g>
                    </g>
                    <path d="M39.5,8.8 L43,8.8 C43.8,8.8 43.8,8.7 43,8.5 L41.6,8.2 C40.8,8 40.2,8.2 40.2,8.6 C40.3,8.6 40.3,8.6 39.5,8.8 Z" fill="#020303"></path>
                    <path d="M20.5,42.4 C20.2,42 19.2,41.8 18.4,41.9 L16.2,42.2 C15.4,42.3 15.4,42.5 16.2,42.6 L19.7,43 C20.5,43 20.9,42.8 20.5,42.4 Z" fill="#020303"></path>
                    <path d="M52.7,46.5 C52.5,46.1 51.6,45.9 50.8,45.9 L46.3,46.3 C45.5,46.4 45.5,46.5 46.3,46.6 L51.6,47.1 C52.4,47.2 52.9,46.9 52.7,46.5 Z" fill="#020303"></path>
                    <path d="M91.5,45 C91.4,44.7 92,44.4 92.8,44.4 L94.1,44.4 C94.9,44.4 94.9,44.6 94.2,44.9 L93.2,45.2 C92.4,45.4 91.6,45.3 91.5,45 Z" fill="#020303"></path>
                    <path d="M136,42.5 C135.9,42 135.2,41.6 134.4,41.8 L131.2,42.3 C130.4,42.4 130.4,42.6 131.2,42.7 L134.7,43.2 C135.5,43.4 136.1,43 136,42.5 Z" fill="#020303"></path>
                    <path d="M139.8,44.3 C139.8,43.8 140.4,43.4 141.2,43.5 L141.5,43.5 C142.3,43.6 142.4,44 141.6,44.3 L141.1,44.5 C140.4,45 139.8,44.8 139.8,44.3 Z" fill="#020303"></path>
                    <path d="M111.6,35.6 C111.5,34.8 111.3,34.8 111.2,35.5 C111.1,36.2 111.1,37.4 111.4,38.2 L111.7,39.1 C111.9,39.9 112.1,39.9 112,39 L112,38.5 C111.9,37.7 111.7,36.4 111.6,35.6 Z" fill="#020303"></path>
                    <path d="M126.4,36.2 C126.2,35.9 126.1,36.3 126.1,37.1 L126.1,37.8 C126.1,38.6 126.3,38.7 126.4,38 C126.6,37.3 126.6,36.5 126.4,36.2 Z" fill="#020303"></path>
                    <path d="M96.5,35.9 C96.5,35.1 96.3,35.1 96.2,35.9 C96.1,36.7 96.2,37.9 96.4,38.7 L96.7,39.6 C97,40.4 97.1,40.4 96.9,39.5 L96.8,38.7 C96.6,37.9 96.5,36.6 96.5,35.9 Z" fill="#020303"></path>
                    <path d="M72.4,36.5 C72.3,36.2 72,36.2 71.9,36.6 C71.8,37 71.9,37.7 72.2,38.2 C72.5,38.7 72.7,38.6 72.7,38.1 C72.7,37.5 72.6,36.8 72.4,36.5 Z" fill="#020303"></path>
                    <path d="M55.6,35.9 C55.4,35.1 55.1,35.2 54.9,36 L54.8,36.2 C54.6,37 54.9,38.1 55.5,38.7 L55.7,38.9 C56.3,39.5 56.6,39.4 56.3,38.6 C56,37.8 55.8,36.7 55.6,35.9 Z" fill="#020303"></path>
                    <path d="M25.4,34.8 C25.2,34.5 25.6,34.3 26.4,34.4 L29.2,34.6 C30,34.7 30,34.8 29.2,34.9 L27.2,35.2 C26.5,35.3 25.6,35.1 25.4,34.8 Z" fill="#020303"></path>
                    <path d="M163.1,35.2 C163.2,34.4 163.5,34.4 163.6,35.2 L163.7,35.8 C163.9,36.6 163.8,37.9 163.6,38.7 L163.2,40.1 C163,40.9 162.8,40.9 162.8,40.1 L162.8,38.8 C162.8,38 162.9,36.6 163,35.8 L163.1,35.2 Z" fill="#020303"></path>
                    <path d="M152.9,15.9 C152.9,16.3 152.3,16.2 151.7,15.8 L151,15.3 C150.3,14.8 150.4,14.6 151.2,14.8 L151.4,14.9 C152.3,15 152.9,15.5 152.9,15.9 Z" fill="#020303"></path>
                    <path d="M202.2,41.6 C202.3,41.3 201.7,41 200.9,41 L199.5,41 C198.7,41 198.7,41.2 199.4,41.4 L200.6,41.7 C201.4,42 202.1,41.9 202.2,41.6 Z" fill="#020303"></path>
                    <path d="M195.9,36.2 C195.7,35.7 195.5,35.9 195.5,36.7 L195.5,37.1 C195.5,37.9 195.7,38.3 195.9,37.8 C196.1,37.3 196.2,36.7 195.9,36.2 Z" fill="#020303"></path>
                    <path d="M218.3,43.1 C218.4,42.7 217.9,42.5 217.1,42.5 L213.8,42.8 C213,42.9 213,43 213.8,43.1 L216.6,43.5 C217.4,43.7 218.2,43.5 218.3,43.1 Z" fill="#020303"></path>
                    <path d="M215.2,36.4 C215.1,36 214.9,36 214.8,36.3 C214.7,36.6 214.7,37.5 214.9,38.2 C215.1,38.9 215.2,38.9 215.3,38.3 C215.4,37.7 215.3,36.8 215.2,36.4 Z" fill="#020303"></path>
                    <path d="M259.9,22.9 C259.6,22.8 259.6,22.1 259.9,21.3 L260,21.1 C260.3,20.3 260.6,20.4 260.5,21.2 L260.5,21.5 C260.5,22.5 260.2,23 259.9,22.9 Z" fill="#020303"></path>
                    <path d="M238.7,42.3 C239,41.9 239.9,41.7 240.7,41.8 L245.3,42.5 C246.1,42.6 246.1,42.7 245.3,42.8 L239.6,43 C238.8,42.9 238.4,42.6 238.7,42.3 Z" fill="#020303"></path>
                    <path d="M280.1,42.3 C280.5,41.8 281.5,41.5 282.3,41.6 L286.6,42.4 C287.4,42.6 287.4,42.7 286.6,42.8 L281,43.1 C280.1,43.2 279.7,42.8 280.1,42.3 Z" fill="#020303"></path>
                    <path d="M281.8,27.1 C281.6,26.5 282.2,26.1 283,26.2 L286.9,26.8 C287.7,26.9 287.7,27.1 286.9,27.3 L283.7,27.9 C282.7,28.1 281.9,27.7 281.8,27.1 Z" fill="#020303"></path>
                    <g opacity="0.5" transform="translate(276.000000, 6.000000)" fill="#020303">
                        <path d="M1.5,3.6 C1.2,3.4 1,2.5 0.9,1.7 L0.9,1.3 C0.9,0.5 1,0.5 1.2,1.3 L1.6,2.7 C1.9,3.4 1.8,3.8 1.5,3.6 Z"></path>
                    </g>
                    <path d="M237.4,30.7 L235,29.7 C234.2,29.4 234.3,29.2 235.1,29.3 L237.6,29.5" fill="#020303"></path>
                    <g opacity="0.5" transform="translate(145.000000, 35.000000)" fill="#020303">
                        <path d="M5.7,3 C5.9,2.5 5.9,1.7 5.7,1.3 C5.5,0.8 4.7,0.5 3.9,0.5 L2.7,0.5 C1.9,0.5 0.9,0.9 0.6,1.4 C0.3,1.9 0.7,2.5 1.5,2.8 L3.9,3.5 C4.8,3.7 5.6,3.5 5.7,3 Z"></path>
                    </g>
                    <path d="M149.2,36.7 C148.6,36.1 148.7,35.6 149.3,35.6 C149.9,35.6 150.7,35.9 151,36.3 C151.3,36.7 151.2,37.6 150.8,38.3 L150.5,38.8 C150.1,39.5 149.8,39.6 150,39 C150.2,38.4 149.8,37.4 149.2,36.7 L149.2,36.7 Z" fill="#020303"></path>
                    <path d="M92.1,8.4 C92.2,7.9 92.9,7.7 93.7,7.9 L94.3,8 C95.1,8.2 95.1,8.5 94.3,8.7 L93.4,8.9 C92.6,9.1 92,8.9 92.1,8.4 Z" fill="#020303"></path>
                    <path d="M51.3,15.2 C51.1,15.5 50.3,15.6 49.5,15.4 L48.7,15.2 C47.9,15 47.9,14.8 48.7,14.8 L50,14.7 C50.9,14.7 51.5,14.9 51.3,15.2 Z" fill="#020303"></path>
                    <path d="M18.4,29.2 C18.5,28.8 18,28.6 17.2,28.7 L15.6,29 C14.8,29.2 14.8,29.4 15.6,29.5 L16.7,29.7 C17.5,29.8 18.3,29.6 18.4,29.2 Z" fill="#020303"></path>
                    <path d="M20.9,42.5 C20.6,42.2 20.6,41.3 20.8,40.5 L21.2,39.1 C21.4,38.3 21.6,38.3 21.6,39.2 L21.5,41.6 C21.5,42.4 21.2,42.8 20.9,42.5 Z" fill="#29282A"></path>
                    <path d="M52.5,46.7 C52.2,46.5 52.2,45.8 52.5,45 C52.8,44.2 53,44.3 53,45.1 L53,45.5 C53,46.3 52.8,46.8 52.5,46.7 Z" fill="#29282A"></path>
                    <path d="M80.9,27.7 C80.9,27.1 81.1,27.3 81.4,28.1 L81.7,28.8 C82,29.6 82,29.9 81.6,29.4 C81.2,28.9 81,28.2 80.9,27.7 Z" fill="#29282A"></path>
                    <path d="M239.1,42.8 C239.4,42.6 239.5,41.7 239.3,40.9 L238.9,39.4 C238.7,38.6 238.5,38.6 238.5,39.5 L238.6,41.8 C238.5,42.5 238.8,43 239.1,42.8 Z" fill="#29282A"></path>
                    <path d="M280.7,42.5 C281.2,42.3 281.2,41.4 280.9,40.7 L279.1,36.9 C278.8,36.2 278.6,36.2 278.7,37 L279.5,41.5 C279.8,42.3 280.3,42.8 280.7,42.5 Z" fill="#29282A"></path>
                    <path d="M282.5,27 C282.3,26.7 281.9,27 281.5,27.7 L279.7,31.4 C279.3,32.1 279.4,32.2 279.9,31.5 L281.9,28.7 C282.4,28.2 282.7,27.4 282.5,27 Z" fill="#29282A"></path>
                    <path d="M255.4,9.8 L255.5,7.6 C255.5,6.8 255.7,6.8 255.9,7.6 L256.5,10.1" fill="#020303"></path>
                    <path d="M14.9,43.4 C14.1,43.2 14.1,43 15,43.1 L15.2,43.1 C16,43.2 17.3,43.3 18,43.4 C18.7,43.5 18.6,43.6 17.9,43.7 C17,43.8 15.7,43.6 14.9,43.4 L14.9,43.4 Z" fill="#5B5558"></path>
                    <path d="M54.8,38.8 C54.2,38.2 54.1,38.3 54.6,39 L55.4,40.1 C55.9,40.8 56.7,41.6 57.2,41.9 C57.7,42.2 57.7,42 57.1,41.3 C56.5,40.6 55.7,39.7 55.1,39.1 L54.8,38.8 Z" fill="#5B5558"></path>
                    <path d="M71.2,37.1 C71,37.1 71.1,37.7 71.5,38.4 C71.8,39.1 72,39.1 71.9,38.4 C71.7,37.7 71.4,37.1 71.2,37.1 Z" fill="#5B5558"></path>
                    <path d="M94.4,45.2 C93.7,45.1 93.8,45 94.6,44.8 L95.8,44.6 C96.6,44.5 96.9,44.6 96.5,44.8 C96,45.1 95.1,45.3 94.4,45.2 Z" fill="#5B5558"></path>
                    <path d="M110.6,38.5 C110.3,38 110.2,38.3 110.3,39.1 C110.5,39.9 110.9,41.1 111.3,41.8 C111.7,42.5 111.8,42.4 111.7,41.6 L111.5,40.7 C111.3,39.9 110.9,38.9 110.6,38.5 Z" fill="#5B5558"></path>
                    <path d="M164.2,39.9 C164.1,39.4 163.8,39.5 163.6,40.1 C163.4,40.7 163.2,41.9 163.2,42.7 L163.2,42.7 C163.2,43.5 163.4,43.6 163.7,42.8 L163.9,42.2 C164.2,41.4 164.3,40.4 164.2,39.9 Z" fill="#5B5558"></path>
                    <path d="M146.4,36.4 C146.2,35.9 145.8,36 145.5,36.6 C145.2,37.2 145.5,38.1 146.3,38.4 L146.6,38.5 C147.3,38.9 147.7,38.7 147.4,38.2 C147,37.8 146.6,36.9 146.4,36.4 Z" fill="#5B5558"></path>
                    <path d="M176.4,45.5 C175.6,45.3 175.6,45.1 176.4,45.1 L176.9,45.1 C177.7,45.1 179,45.3 179.8,45.6 L179.9,45.6 C180.7,45.9 180.6,46 179.8,46 L179.3,46 C178.5,45.9 177.2,45.7 176.4,45.5 L176.4,45.5 Z" fill="#5B5558"></path>
                    <path d="M196.6,38.5 C196.5,38.2 196.3,38.5 196,39.1 C195.7,39.7 195.8,40 196.1,39.7 C196.5,39.3 196.7,38.8 196.6,38.5 Z" fill="#5B5558"></path>
                    <path d="M216.1,37.8 C216,37.5 215.8,37.8 215.5,38.4 C215.3,39.1 215.3,39.3 215.6,39 C216,38.6 216.2,38.1 216.1,37.8 Z" fill="#5B5558"></path>
                    <path d="M212.9,43.6 C212.1,43.4 212.1,43.3 212.9,43.2 L213.8,43.1 C214.6,43 215.7,43.2 216.1,43.5 C216.5,43.8 216.4,44 215.8,44 C215.2,44 214,43.9 213.2,43.7 L212.9,43.6 Z" fill="#5B5558"></path>
                    <path d="M241.6,43.6 C240.8,43.7 240.8,43.5 241.6,43.3 L241.6,43.3 C242.4,43.1 243.7,42.9 244.5,43 L245.9,43.1 C246.7,43.2 246.7,43.3 245.9,43.3 L244.5,43.4 C243.7,43.4 242.4,43.5 241.6,43.6 Z" fill="#5B5558"></path>
                    <path d="M260.1,23.2 C259.7,23.4 259.1,24.1 258.8,24.9 L258.7,25.2 C258.4,26 258.5,26 259,25.4 L260,24.1 C260.5,23.4 260.5,23 260.1,23.2 Z" fill="#29282A"></path>
                    <path d="M291.5,9.4 C291.1,9.4 290.7,8.7 290.7,7.9 L290.5,7 C290.4,6.2 290.6,6.1 291,6.9 L291.5,8.1 C291.9,8.8 291.9,9.4 291.5,9.4 Z" fill="#020303"></path>
                    <path d="M172.2,13 C172.2,12.5 172.8,12.2 173.6,12.2 L174.4,12.2 C175.2,12.2 175.3,12.5 174.5,12.8 L173.6,13.2 C172.9,13.5 172.2,13.4 172.2,13 Z" fill="#020303"></path>
                    <path d="M127.8,14.6 C127.5,14.4 127.3,15 127.4,15.8 L127.5,16.7 C127.6,17.5 127.8,17.5 128,16.7 L128.1,16.3 C128.3,15.6 128.2,14.8 127.8,14.6 Z" fill="#020303"></path>
                    <path d="M88.1,26.9 C88,26.6 88.6,26.3 89.4,26.3 L93.1,26.3 C93.9,26.3 93.9,26.4 93.1,26.6 L89.7,27.3 C89,27.4 88.2,27.3 88.1,26.9 Z" fill="#020303"></path>
                    <path d="M17.7,33.9 C17.8,33.6 17.1,33.4 16.3,33.4 L15.2,33.4 C14.4,33.4 14.4,33.6 15.2,33.8 L16.2,34 C16.9,34.2 17.6,34.1 17.7,33.9 Z" fill="#020303"></path>
                    <path d="M5,36.7 C4.2,36.7 3.6,36.9 3.8,37 C4,37.1 4.8,37.3 5.6,37.3 L12.5,37.3 C13.3,37.3 14.1,37.1 14.3,36.9 C14.5,36.7 13.9,36.5 13.1,36.5 L5,36.7 Z" fill="#DFDAD5"></path>
                    <path d="M34.9,36.7 C34.1,36.7 33.5,36.9 33.7,37 C33.9,37.1 34.7,37.3 35.5,37.3 L42.3,37.3 C43.1,37.3 43.9,37.1 44.1,36.9 C44.3,36.7 43.7,36.5 42.9,36.5 L34.9,36.7 Z" fill="#DFDAD5"></path>
                    <path d="M51.7,36.6 C50.9,36.6 50.3,36.8 50.3,37 C50.4,37.2 51.1,37.3 51.9,37.3 L52.3,37.3 C53.1,37.3 53.8,37.1 53.9,36.9 C54,36.7 53.3,36.5 52.5,36.6 L51.7,36.6 Z" fill="#DFDAD5"></path>
                    <path d="M21.7,21.9 C20.9,21.9 20.3,22.1 20.3,22.3 C20.3,22.5 21.1,22.6 21.9,22.6 L22.3,22.6 C23.1,22.6 23.8,22.4 23.9,22.2 C24,22 23.3,21.8 22.5,21.9 L21.7,21.9 Z" fill="#DFDAD5"></path>
                    <path d="M34.1,21.9 C33.3,21.9 32.7,22.1 32.7,22.3 C32.7,22.5 33.5,22.6 34.3,22.6 L34.7,22.6 C35.5,22.6 36.2,22.4 36.3,22.2 C36.4,22 35.7,21.8 34.9,21.9 L34.1,21.9 Z" fill="#DFDAD5"></path>
                    <path d="M9.3,23.9 C8.5,23.9 7.8,24.1 7.9,24.3 C8,24.5 8.7,24.6 9.5,24.6 L9.5,24.6 C10.3,24.6 11,24.4 11.1,24.2 C11.2,24 10.5,23.8 9.7,23.9 L9.3,23.9 Z" fill="#DFDAD5"></path>
                    <path d="M24.2,29 C23.4,29 22.8,29.2 22.9,29.3 C23,29.5 23.8,29.6 24.6,29.6 L27.8,29.6 C28.6,29.6 29.4,29.4 29.5,29.2 C29.6,29 29,28.8 28.2,28.8 L24.2,29 Z" fill="#DFDAD5"></path>
                    <path d="M17.4,7.4 C16.6,7.4 16,7.6 16.1,7.7 C16.2,7.9 16.9,8 17.8,8 L21,8 C21.8,8 22.6,7.8 22.7,7.6 C22.8,7.4 22.2,7.2 21.4,7.2 L17.4,7.4 Z" fill="#DFDAD5"></path>
                    <path d="M69,36.6 C68.2,36.6 67.6,36.8 67.6,37 C67.6,37.2 68.4,37.3 69.2,37.3 L69.6,37.3 C70.4,37.3 71.1,37.1 71.2,36.9 C71.3,36.7 70.6,36.5 69.8,36.6 L69,36.6 Z" fill="#DFDAD5"></path>
                    <path d="M98.4,36.6 C97.6,36.6 96.9,36.8 97,37 C97.1,37.2 97.8,37.3 98.6,37.3 L98.6,37.3 C99.4,37.3 100.1,37.1 100.2,36.9 C100.3,36.7 99.6,36.5 98.8,36.6 L98.4,36.6 Z" fill="#DFDAD5"></path>
                    <path d="M74.5,36.6 C73.7,36.6 73.1,36.8 73.2,36.9 C73.3,37 74,37.2 74.9,37.2 L77.4,37.2 C78.2,37.2 79,37 79.1,36.8 C79.2,36.6 78.6,36.4 77.8,36.5 L74.5,36.6 Z" fill="#DFDAD5"></path>
                    <path d="M90.1,36.6 C89.3,36.6 88.7,36.8 88.8,36.9 C88.9,37.1 89.7,37.2 90.5,37.2 L93.5,37.2 C94.3,37.2 95.1,37 95.2,36.8 C95.3,36.6 94.7,36.4 93.9,36.4 L90.1,36.6 Z" fill="#DFDAD5"></path>
                    <path d="M107.3,36.6 C106.5,36.6 105.9,36.8 105.9,37 C106,37.2 106.7,37.3 107.5,37.3 L109,37.3 C109.8,37.3 110.6,37.1 110.6,36.9 C110.7,36.7 110.1,36.5 109.2,36.6 L107.3,36.6 Z" fill="#DFDAD5"></path>
                    <path d="M141.5,36.6 C140.7,36.6 140.1,36.8 140.1,37 C140.1,37.2 140.9,37.3 141.7,37.3 L143.2,37.3 C144,37.3 144.8,37.1 144.8,36.9 C144.8,36.7 144.3,36.5 143.4,36.6 L141.5,36.6 Z" fill="#DFDAD5"></path>
                    <path d="M165.8,36.6 C165,36.6 164.4,36.8 164.4,37 C164.5,37.2 165.2,37.3 166,37.3 L167,37.3 C167.8,37.3 168.6,37.1 168.6,36.9 C168.7,36.7 168.1,36.5 167.2,36.6 L165.8,36.6 Z" fill="#DFDAD5"></path>
                    <path d="M177.9,36.7 C177.1,36.7 176.5,36.9 176.7,37 C176.9,37.1 177.6,37.3 178.5,37.3 L184,37.3 C184.8,37.3 185.6,37.1 185.8,36.9 C186,36.7 185.4,36.5 184.6,36.5 L177.9,36.7 Z" fill="#DFDAD5"></path>
                    <path d="M192.9,36.6 C192.1,36.6 191.5,36.8 191.5,37 C191.6,37.2 192.3,37.3 193.1,37.3 L193.6,37.3 C194.4,37.3 195.1,37.1 195.2,36.9 C195.3,36.7 194.6,36.5 193.8,36.6 L192.9,36.6 Z" fill="#DFDAD5"></path>
                    <path d="M198.3,36.6 C197.5,36.6 196.9,36.8 197,36.9 C197.1,37.1 197.9,37.2 198.7,37.2 L201.2,37.2 C202,37.2 202.8,37 202.9,36.8 C203,36.6 202.4,36.4 201.6,36.5 L198.3,36.6 Z" fill="#DFDAD5"></path>
                    <path d="M210.2,36.6 C209.4,36.6 208.8,36.8 208.9,37 C209,37.2 209.7,37.3 210.5,37.3 L212.2,37.3 C213,37.3 213.8,37.1 213.8,36.9 C213.8,36.7 213.3,36.5 212.5,36.6 L210.2,36.6 Z" fill="#DFDAD5"></path>
                    <path d="M217.3,36.6 C216.5,36.6 215.9,36.8 215.9,37 C215.9,37.2 216.7,37.3 217.5,37.3 L218.3,37.3 C219.1,37.3 219.9,37.1 219.9,36.9 C220,36.7 219.3,36.5 218.5,36.6 L217.3,36.6 Z" fill="#DFDAD5"></path>
                    <path d="M227.3,36.7 C226.5,36.7 226,36.9 226.1,37 C226.2,37.1 227.1,37.3 227.9,37.3 L235.5,37.3 C236.3,37.3 237.1,37.1 237.3,36.9 C237.5,36.7 237,36.5 236.1,36.5 L227.3,36.7 Z" fill="#DFDAD5"></path>
                    <path d="M244.4,36.7 C243.6,36.7 243.1,36.9 243.2,37 C243.4,37.2 244.2,37.3 245,37.3 L252.6,37.3 C253.4,37.3 254.2,37.1 254.4,36.9 C254.6,36.7 254.1,36.5 253.2,36.5 L244.4,36.7 Z" fill="#DFDAD5"></path>
                    <path d="M287.5,36.7 C286.7,36.7 286.2,36.9 286.3,37 C286.5,37.2 287.3,37.3 288.1,37.3 L295.7,37.3 C296.5,37.3 297.3,37.1 297.5,36.9 C297.7,36.7 297.2,36.5 296.3,36.5 L287.5,36.7 Z" fill="#DFDAD5"></path>
                    <path d="M271.6,8 C270.8,8 270.2,8.2 270.3,8.3 C270.4,8.5 271.2,8.6 272,8.6 L274.9,8.6 C275.7,8.6 276.5,8.4 276.6,8.2 C276.7,8 276.1,7.8 275.3,7.8 L271.6,8 Z" fill="#DFDAD5"></path>
                    <path d="M258.2,8 C257.4,8 256.8,8.2 256.9,8.3 C257,8.4 257.8,8.6 258.6,8.6 L262.4,8.6 C263.2,8.6 264,8.4 264.1,8.2 C264.2,8 263.6,7.8 262.8,7.8 L258.2,8 Z" fill="#DFDAD5"></path>
                    <path d="M251.4,8 C250.6,8 250,8.2 250.1,8.4 C250.2,8.6 250.9,8.7 251.7,8.7 L253.5,8.7 C254.3,8.7 255.1,8.5 255.2,8.3 C255.3,8.1 254.7,7.9 253.9,8 L251.4,8 Z" fill="#DFDAD5"></path>
                    <path d="M253.7,21.9 C252.9,21.9 252.3,22.1 252.4,22.2 C252.5,22.4 253.3,22.5 254.1,22.5 L257.2,22.5 C258,22.5 258.8,22.3 258.9,22.1 C259,21.9 258.4,21.7 257.6,21.7 L253.7,21.9 Z" fill="#DFDAD5"></path>
                    <path d="M212.1,7 C211.3,7 210.7,7.2 210.8,7.4 C210.9,7.6 211.6,7.7 212.5,7.7 L214.3,7.7 C215.1,7.7 215.9,7.5 215.9,7.3 C216,7.1 215.4,6.9 214.6,7 L212.1,7 Z" fill="#DFDAD5"></path>
                    <path d="M221.8,7 C221,7 220.4,7.2 220.5,7.4 C220.6,7.6 221.3,7.7 222.1,7.7 L223.9,7.7 C224.7,7.7 225.5,7.5 225.5,7.3 C225.5,7.1 225,6.9 224.2,7 L221.8,7 Z" fill="#DFDAD5"></path>
                    <path d="M215.7,13.1 C215,13.1 214.4,13.3 214.5,13.5 C214.6,13.7 215.1,13.8 215.7,13.8 C216.3,13.8 216.9,13.6 216.9,13.4 C217,13.2 216.4,13.1 215.7,13.1 Z" fill="#DFDAD5"></path>
                    <path d="M219,11.1 C218.2,11.1 217.5,11.3 217.6,11.5 C217.7,11.7 218.3,11.8 219.1,11.8 C219.9,11.8 220.6,11.6 220.6,11.4 C220.7,11.2 220,11 219.2,11.1 L219,11.1 Z" fill="#DFDAD5"></path>
                    <path d="M176,11.5 C175.2,11.5 174.5,11.7 174.6,11.9 C174.7,12.1 175.3,12.2 176.1,12.2 C176.9,12.2 177.6,12 177.6,11.8 C177.7,11.6 177,11.4 176.2,11.5 L176,11.5 Z" fill="#DFDAD5"></path>
                    <path d="M186.8,21.6 C186,21.6 185.4,21.8 185.4,22 C185.4,22.2 186.2,22.3 187,22.3 L187.5,22.3 C188.3,22.3 189,22.1 189.1,21.9 C189.2,21.7 188.5,21.5 187.7,21.6 L186.8,21.6 Z" fill="#DFDAD5"></path>
                    <path d="M179.2,25.2 C178.4,25.2 177.8,25.4 177.9,25.5 C178,25.7 178.7,25.8 179.6,25.8 L182.1,25.8 C182.9,25.8 183.7,25.6 183.8,25.4 C183.9,25.2 183.3,25 182.5,25.1 L179.2,25.2 Z" fill="#DFDAD5"></path>
                    <path d="M286.4,25.9 C285.6,25.9 285,26.1 285.1,26.2 C285.2,26.3 285.9,26.5 286.8,26.5 L289.3,26.5 C290.1,26.5 290.9,26.3 291,26.1 C291.1,25.9 290.5,25.7 289.7,25.8 L286.4,25.9 Z" fill="#DFDAD5"></path>
                    <path d="M108.2,28.8 C107.4,28.8 106.8,29 106.8,29.2 C106.8,29.4 107.6,29.5 108.4,29.5 L109.5,29.5 C110.3,29.5 111.1,29.3 111.1,29.1 C111.1,28.9 110.6,28.7 109.7,28.8 L108.2,28.8 Z" fill="#DFDAD5"></path>
                    <path d="M93,25.7 C92.2,25.7 91.6,25.9 91.6,26.1 C91.7,26.3 92.4,26.4 93.2,26.4 L94.3,26.4 C95.1,26.4 95.9,26.2 95.9,26 C96,25.8 95.4,25.6 94.5,25.7 L93,25.7 Z" fill="#DFDAD5"></path>
                    <path d="M71.4,25.5 C70.6,25.5 70,25.7 70,25.9 C70.1,26.1 70.8,26.2 71.6,26.2 L72.7,26.2 C73.5,26.2 74.3,26 74.3,25.8 C74.4,25.6 73.8,25.4 72.9,25.5 L71.4,25.5 Z" fill="#DFDAD5"></path>
                    <path d="M38.8,13.9 C38,13.9 37.4,14.1 37.5,14.2 C37.6,14.4 38.4,14.5 39.2,14.5 L41.8,14.5 C42.6,14.5 43.4,14.3 43.5,14.1 C43.6,13.9 43,13.7 42.2,13.7 L38.8,13.9 Z" fill="#DFDAD5"></path>
                    <path d="M100.1,8.4 C99.3,8.3 98.7,8.4 98.7,8.6 C98.7,8.8 99.5,9 100.3,9.1 L101.4,9.3 C102.2,9.4 103,9.3 103.1,9.1 C103.2,8.9 102.6,8.7 101.8,8.6 L100.1,8.4 Z" fill="#DFDAD5"></path>
                    <path d="M193,27.5 C192.2,27.5 191.6,27.7 191.6,27.9 C191.7,28.1 192.4,28.2 193.2,28.2 L194.3,28.2 C195.1,28.2 195.9,28 195.9,27.8 C196,27.6 195.4,27.4 194.5,27.5 L193,27.5 Z" fill="#DFDAD5"></path>
                    <path d="M220.2,24.9 C219.4,24.9 218.8,25.1 218.8,25.3 C218.9,25.5 219.6,25.6 220.4,25.6 L221.5,25.6 C222.3,25.6 223.1,25.4 223.1,25.2 C223.2,25 222.6,24.8 221.7,24.9 L220.2,24.9 Z" fill="#DFDAD5"></path>
                    <path d="M154.7,7.7 C153.9,7.7 153.4,7.9 153.6,8 C153.8,8.2 154.7,8.3 155.5,8.3 L165.3,8.3 C166.1,8.3 167,8.1 167.2,7.9 C167.4,7.7 166.9,7.5 166.1,7.5 L154.7,7.7 Z" fill="#DFDAD5"></path>
                    <path d="M122.3,7.8 C121.5,7.8 121,8 121.2,8.1 C121.4,8.2 122.3,8.4 123.1,8.4 L133.4,8.4 C134.2,8.4 135.1,8.2 135.3,8 C135.5,7.8 135.1,7.6 134.2,7.6 L122.3,7.8 Z" fill="#DFDAD5"></path>
                    <path d="M120.6,21.6 C119.8,21.6 119.2,21.8 119.3,21.9 C119.4,22.1 120.2,22.2 121,22.2 L125.2,22.2 C126,22.2 126.8,22 126.9,21.8 C127,21.6 126.5,21.4 125.6,21.4 L120.6,21.6 Z" fill="#DFDAD5"></path>
                    <path d="M129.3,21.6 C128.5,21.6 127.9,21.8 128,21.9 C128.1,22.1 128.9,22.2 129.7,22.2 L133.5,22.2 C134.3,22.2 135.1,22 135.2,21.8 C135.3,21.6 134.7,21.4 133.9,21.4 L129.3,21.6 Z" fill="#DFDAD5"></path>
                    <path d="M147.9,34.8 C147.1,34.8 146.5,35 146.5,35.2 C146.6,35.4 147.3,35.5 148.1,35.5 L148.4,35.5 C149.2,35.5 149.9,35.3 150,35.1 C150.1,34.9 149.4,34.7 148.6,34.8 L147.9,34.8 Z" fill="#DFDAD5"></path>
                    <path d="M145.4,12.6 C144.6,12.5 144,12.6 144,12.8 C144.1,13 144.8,13.2 145.6,13.3 L147.5,13.6 C148.3,13.7 149.1,13.6 149.2,13.5 C149.3,13.3 148.7,13.1 147.9,13 L145.4,12.6 Z" fill="#DFDAD5"></path>
                    <path d="M226.8,27.6 C226,27.5 225.4,27.6 225.4,27.8 C225.5,28 226.2,28.2 227,28.3 L228.9,28.6 C229.7,28.7 230.5,28.6 230.6,28.5 C230.7,28.3 230.1,28.1 229.3,28 L226.8,27.6 Z" fill="#DFDAD5"></path>
                    <path d="M223.9,13.1 C223.2,13.1 222.7,13.3 222.8,13.5 C222.8,13.7 223.4,13.8 223.9,13.8 C224.4,13.8 225,13.6 225,13.4 C225,13.2 224.6,13.1 223.9,13.1 Z" fill="#DFDAD5"></path>
                    <path d="M262.3,21.9 C261.5,21.9 260.9,22.1 261,22.2 C261.1,22.3 261.9,22.5 262.7,22.5 L266.5,22.5 C267.3,22.5 268.1,22.3 268.2,22.1 C268.3,21.9 267.7,21.7 266.9,21.7 L262.3,21.9 Z" fill="#DFDAD5"></path>
                    <path d="M293.5,8 C292.7,8 292.1,8.2 292.2,8.3 C292.3,8.4 293,8.6 293.9,8.6 L295.8,8.6 C296.6,8.6 297.4,8.4 297.5,8.2 C297.6,8 297,7.8 296.2,7.9 L293.5,8 Z" fill="#DFDAD5"></path>
                    <path d="M153.4,36.7 C152.6,36.7 152,36.9 152.2,37 C152.4,37.1 153.2,37.3 154,37.3 L160.3,37.3 C161.1,37.3 161.9,37.1 162.1,36.9 C162.3,36.7 161.7,36.5 160.9,36.5 L153.4,36.7 Z" fill="#DFDAD5"></path>
                    <path d="M113.6,36.7 C112.8,36.7 112.3,36.9 112.5,37 C112.7,37.1 113.6,37.3 114.4,37.3 L123.7,37.3 C124.5,37.3 125.4,37.1 125.6,36.9 C125.8,36.7 125.3,36.5 124.5,36.5 L113.6,36.7 Z" fill="#DFDAD5"></path>
                    <path d="M128.4,36.6 C127.6,36.6 127,36.8 127.1,36.9 C127.2,37 128,37.2 128.8,37.2 L132.5,37.2 C133.3,37.2 134.1,37 134.2,36.8 C134.3,36.6 133.7,36.4 132.9,36.4 L128.4,36.6 Z" fill="#DFDAD5"></path>
                    <path d="M58.1,36.7 C57.3,36.7 56.7,36.9 56.8,37.1 C56.9,37.3 57.6,37.4 58.4,37.4 L60.1,37.4 C60.9,37.4 61.7,37.2 61.7,37 C61.7,36.8 61.2,36.6 60.4,36.7 L58.1,36.7 Z" fill="#DFDAD5"></path>
                </g>
                <g transform="translate(59.000000, 43.000000)" id="Shape">
                    <polygon fill="#020303" points="183 20.2 181 10.4 180.9 10.4 181 10.3 179.1 1 157.4 0.8 151 5.7 150.3 0.8 139.6 0.8 136.6 3.9 135.4 3.8 135.1 0.7 123.9 0.7 116.4 11.7 116.5 13.4 106.5 13.4 106.1 0.6 93.6 0.5 92.4 10.5 92.2 3.7 88.5 3.6 88.2 0.5 67.9 0.4 67.7 3.5 63.8 3.5 63.8 4.2 61.6 0.4 34.6 0.3 33.9 5.7 27.3 0.2 5 0.1 0.2 23.1 18.3 30.4 27.5 30.5 27.8 28.5 31.7 30.5 41.1 30.5 41.3 29 43.6 30.5 66.8 30.5 66.9 28.5 68.3 30.5 78.9 30.6 79.1 25 79.6 25 80.9 30.6 92.3 30.6 116 30.6 117.5 28.8 117.7 30.7 127.5 30.7 130.7 28.2 130.9 30.7 140.4 30.7 142.7 29.4 142.9 30.7 161.8 30.7 179.8 23.6 179.4 21.8"></polygon>
                    <g transform="translate(3.000000, 3.000000)" fill="#29282A">
                        <polygon points="34.5 0.1 33.3 8.7 23 0.1 4.7 0 0.9 18.4 16.1 24.6 21.7 24.6 22.2 20.9 29.6 24.6 35.2 24.6 35.6 20.8 41.7 24.6 60.7 24.6 61 20 56 13.6 61.4 13.6 61.7 9.2 56.6 0.2"></polygon>
                        <polygon points="82.5 3.5 82.2 0.3 68 0.3 67.8 3.4 63.9 3.4 63 18.6 67.2 24.7 72.7 24.7 72.9 19.1 79.3 19.1 80.6 24.7 86.1 24.7 86.2 11.9 86 3.5"></polygon>
                        <polygon points="176.4 15.6 175.3 10.2 171.4 10.1 170.9 7.8 174.4 5.9 173.3 0.8 155.6 0.7 145.5 8.4 144.4 0.6 138.1 0.6 135.1 3.7 134.6 3.7 133.4 4.9 133.3 3.7 129.4 3.7 129.1 0.6 122.8 0.5 116.7 9.4 117.7 24.8 123.2 24.8 130.4 19.2 130.9 24.8 136.4 24.8 142.4 21.4 142.8 24.8 158.1 24.8 173.1 18.9 172.8 17.1"></polygon>
                        <polygon points="100.3 13.1 99.9 0.4 93.5 0.4 92.4 9.3 92.5 24.7 111.3 24.7 116.5 18.7 116.1 13.2"></polygon>
                    </g>
                    <polygon fill="#020303" points="63.7 27.6 58.1 21.6 39.8 16.5 41.4 5.2 59.6 3.2 65.4 11.5"></polygon>
                    <polygon fill="#020303" points="38.2 27.6 27.1 21.5 21.5 12.2 10.9 9.7 15.5 1.9 27.6 2.2 41 12.7 35 21.5 38.6 23.8"></polygon>
                    <polyline fill="#020303" points="24.7 27.6 10.7 21.5 12 14.7 20.8 18.5 20.3 21.5 25.2 23.9"></polyline>
                    <path d="M75.7,27.7 L72.7,21.7 C72.7,21.7 70.2,18.9 70.5,18.6 C70.8,18.3 72.3,13.7 72.7,13.7 C73.1,13.7 72.8,14.8 73.1,15.1 C73.4,15.4 76,22.2 76,22.2 L75.7,27.7 Z" fill="#020303"></path>
                    <polygon fill="#020303" points="95.5 27.7 96.7 21.7 97.9 11.3 96.7 2.3 94.8 2.3 93 16.4"></polygon>
                    <polygon fill="#020303" points="120.7 27.8 127.3 21.8 129 16.9 126.6 3 123.9 3 118.5 12.3 119.5 27.2"></polygon>
                    <path d="M133.9,27.8 L143.2,21.8 L143.8,13.5 L142.7,10.3 L141.8,3 L139.4,3.1 L136.6,5.8 C136.6,5.8 130.6,7.8 130.4,8.1 C130.2,8.5 133.9,21.8 133.9,21.8 L132.4,24.2 L133.9,27.8 Z" fill="#020303"></path>
                    <polygon fill="#020303" points="145.8 27.8 157.6 21.9 172.5 18.5 174.5 16.7 172.6 12.5 160.2 10.7 160.8 4.9 159.6 2.3 148.3 10.2 149.9 21.8 145.4 24.4"></polygon>
                    <path d="M72,7 C71.8,7.3 72,11.2 72,11.2 L84.1,11.2 L83.7,7.6 L72,7 Z" fill="#020303"></path>
                    <path d="M172.1,13.6 C172.1,13.6 178.2,9.1 178.3,9.1 C178.4,9.1 175.9,6.3 175.9,6.3 L160.3,7.6 L160.8,11.7 L172.1,13.6 Z" fill="#020303"></path>
                    <g transform="translate(3.000000, 3.000000)">
                        <path d="M25.6,8.5 L21.6,8.5 L21.4,9.6 L25.4,9.6 L24,18.5 L17.2,18.5 L18.3,11.8 L8.8,11.8 L7.5,18.5 L0.7,18.5 L4.5,0 L23,0 L22.5,3.1 L26.4,3.1 L25.6,8.5 Z M19.3,6.4 L19.5,5.3 L10.2,5.3 L10,6.3 L19.3,6.4 L19.3,6.4 Z" fill="url(#linearGradient-10)"></path>
                        <polygon fill="url(#linearGradient-11)" points="56.6 0.2 56.2 5.4 40.4 5.4 40.2 6.4 48.2 6.5 47.6 11.9 39.6 11.8 39.5 13 55.5 13 55.1 18.6 32 18.5 34.5 0.1"></polygon>
                        <path d="M82.1,3.4 L86,3.4 L85.9,18.6 L79.2,18.6 L79.4,11.9 L70.1,11.9 L69.8,18.6 L63.1,18.6 L64,3.4 L67.9,3.4 L68.1,0.3 L82.3,0.4 L82.1,3.4 Z M79.5,6.6 L79.5,5.5 L70.3,5.5 L70.3,6.6 L79.5,6.6 L79.5,6.6 Z" fill="url(#linearGradient-12)"></path>
                        <polygon fill="url(#linearGradient-13)" points="173.3 0.8 174.4 5.9 159 5.9 159.2 6.9 170.8 7 171.4 10.2 175.3 10.2 176.4 15.6 172.5 15.6 173.1 18.9 154.6 18.9 153.8 13.4 169.5 13.4 169.2 12.3 157.5 12.3 157 9 153.1 9 152.3 3.8 156.1 3.8 155.6 0.7"></polygon>
                        <polygon fill="url(#linearGradient-14)" points="144.4 0.6 146.9 18.8 140.3 18.8 139.1 9 137.8 9 138.1 12.2 131.6 12.2 131.3 8.9 129.9 8.9 130.9 18.8 124.3 18.8 122.8 0.5 129.1 0.6 129.4 3.7 133.3 3.7 133.6 6.8 134.9 6.8 134.6 3.7 138.4 3.7 138.1 0.6"></polygon>
                        <polygon fill="url(#linearGradient-15)" points="99.9 0.4 100.3 13.2 116.1 13.2 116.5 18.8 93.7 18.7 93.5 0.4"></polygon>
                    </g>
                </g>
            </g>
        </g>
    </g>
</svg>