<svg xmlns="http://www.w3.org/2000/svg" viewBox="0 0 301 74">
  <defs>
    <linearGradient x1="50.042%" y1="100.015%" x2="50.042%" y2="-.116%" id="RealmsLogoA">
      <stop stop-color="#D8CCC9" offset="0%"/>
      <stop stop-color="#A89E9B" offset="100%"/>
    </linearGradient>
    <linearGradient x1="50.023%" y1="99.935%" x2="50.023%" y2=".084%" id="RealmsLogoB">
      <stop stop-color="#D8CCC9" offset="0%"/>
      <stop stop-color="#A89E9B" offset="100%"/>
    </linearGradient>
    <linearGradient x1="49.982%" y1="99.957%" x2="49.982%" y2=".028%" id="RealmsLogoC">
      <stop stop-color="#D8CCC9" offset="0%"/>
      <stop stop-color="#A89E9B" offset="100%"/>
    </linearGradient>
    <linearGradient x1="49.956%" y1="99.918%" x2="49.956%" y2="-.063%" id="RealmsLogoD">
      <stop stop-color="#D8CCC9" offset="0%"/>
      <stop stop-color="#A89E9B" offset="100%"/>
    </linearGradient>
    <linearGradient x1="50.175%" y1="100.319%" x2="50.175%" y2=".346%" id="RealmsLogoE">
      <stop stop-color="#D8CCC9" offset="0%"/>
      <stop stop-color="#A89E9B" offset="100%"/>
    </linearGradient>
    <linearGradient x1="50.028%" y1="100.074%" x2="50.028%" y2="-.14%" id="RealmsLogoF">
      <stop stop-color="#D8CCC9" offset="0%"/>
      <stop stop-color="#A89E9B" offset="100%"/>
    </linearGradient>
    <linearGradient x1="50.208%" y1="100.108%" x2="50.208%" y2="-.049%" id="RealmsLogoG">
      <stop stop-color="#D8CCC9" offset="0%"/>
      <stop stop-color="#A89E9B" offset="100%"/>
    </linearGradient>
    <linearGradient x1="49.879%" y1="99.857%" x2="49.879%" y2="-.242%" id="RealmsLogoH">
      <stop stop-color="#D8CCC9" offset="0%"/>
      <stop stop-color="#A89E9B" offset="100%"/>
    </linearGradient>
    <linearGradient x1="50.025%" y1="99.888%" x2="50.025%" y2=".133%" id="RealmsLogoI">
      <stop stop-color="#D8CCC9" offset="0%"/>
      <stop stop-color="#A89E9B" offset="100%"/>
    </linearGradient>
    <linearGradient x1="50.368%" y1="99.996%" x2="50.368%" y2="-.275%" id="RealmsLogoJ">
      <stop stop-color="#FFF" offset="0%"/>
      <stop stop-color="#BCB7B4" offset="100%"/>
    </linearGradient>
    <linearGradient x1="50.002%" y1="99.926%" x2="50.002%" y2="-.035%" id="RealmsLogoK">
      <stop stop-color="#FFF" offset="0%"/>
      <stop stop-color="#BCB7B4" offset="100%"/>
    </linearGradient>
    <linearGradient x1="49.814%" y1="100.397%" x2="49.814%" y2="-.244%" id="RealmsLogoL">
      <stop stop-color="#FFF" offset="0%"/>
      <stop stop-color="#BCB7B4" offset="100%"/>
    </linearGradient>
    <linearGradient x1="49.955%" y1="100.096%" x2="49.955%" y2="-.11%" id="RealmsLogoM">
      <stop stop-color="#FFF" offset="0%"/>
      <stop stop-color="#BCB7B4" offset="100%"/>
    </linearGradient>
    <linearGradient x1="49.927%" y1="100.238%" x2="49.927%" y2=".116%" id="RealmsLogoN">
      <stop stop-color="#FFF" offset="0%"/>
      <stop stop-color="#BCB7B4" offset="100%"/>
    </linearGradient>
    <linearGradient x1="50.101%" y1="99.773%" x2="50.101%" y2="-.111%" id="RealmsLogoO">
      <stop stop-color="#FFF" offset="0%"/>
      <stop stop-color="#BCB7B4" offset="100%"/>
    </linearGradient>
  </defs>
  <g fill-rule="nonzero" fill="none">
    <g fill="#020303">
      <path d="M13.5 49.9L.7 38 12.8.5h14l7 9.6.8-3.1h4L40.3.5h14.4l1 1.7.3-1.7h14.6l.9 1.9.3-1.9h14.7l2.6 6.6h.3l.9 2.1L91.5.5l14.9-.1.7 2.5.2-2.5h31l1.5 14-.3 8.2h-.7l.5 4.5-.3 8.7h-.9l.7 4.9-.4 9.1h-30.7l-.8-2.2-.2 2.2H92l-3.9-8.1-1.2 8.1H72.4l-1.1-1.6-.3 1.6H56.6l-1.1-1.5-.3 1.5H40.9l-6.2-7.1h-3.8l-1.2-1.4-2.3 8.6zM169.5 14.4l1.3-14h31.1l.3 2.6.7-2.6h30.8l.3 2 .9-2h30.6l.4 1.7L267 .4h30.4L300 9l-6.1 7.3.1.3c.4 1.4.9 2.9 1.3 4.3.3 1 2.2 7.2 2.2 7.2l.9 2.9c.3 1 .6 1.9.9 2.9.3 1 .6 2 .8 2.9l.3 1.1-11.9 11.9h-14.3l-5.8-23.4-6.8 9.4h-4.8l.4 2-8.4 12h-14.5L234 48l-1 1.8h-14.6l-.3-2-.9 2h-14.8l-.2-2.3-.8 2.3h-14.9l-.2-3-.6 3h-15.1l-1.1-35.4z"/>
      <path d="M137.7 37.6L139 .4h31.2l.2 8.5-1 13.7h-14.8l-.1 5.4H171l.3 9.6-1.2 12.2h-31z"/>
    </g>
    <g fill="#A89E9B">
      <path d="M27.5 8.9l-1.9 6.9h8.7L36.1 9h4l1.7-6.5h11.4l-8 34.7H32.8l3.7-14.8H32l-1.9 7.2h-8l2-7.2-4.5.1-4.4 14.7H3.1L14.2 2.5h11.3l-1.9 6.3zM69 2.5l-6.8 34.8H49.9l7.7-34.8zM85.8 26l1-7.2-4.5-.1-3 18.5H67l6.5-34.8h11.4l-1 6.5 4 .1-1 6.7h4.4l1.9-13.3h11.5l-4 34.8H88.3l1.5-11.1zM135.2 30l-.3 7.2h-29.5l3.7-34.8h27.4l-.3 6.1h-16.1l-.5 7.1 16.3.1-.3 6.7H119l-.6 7.5zM295.8 2.2l2 6.2h-8v.2c.3 1.3.7 2.7 1.1 4.1.4 1.4.8 2.8 1.2 4.3.4 1.5.9 2.9 1.3 4.4.5 1.5.9 3 1.4 4.5.3.9.6 1.8.8 2.7.3.9.6 1.9.9 2.8.3.9.6 1.9.8 2.8.3.9.6 1.9.8 2.8h-12.5l-7.8-28.7h-8l-1.6-6.2 27.6.1zM267.1 15.4l1.7 6.9h-16.7l3.1 14.8h-12.5l-6.4-34.8h27.5l1.6 6.1h-16.2l1.4 7zM219.2 25.9l1.5 11.2h-12.4l-3.9-34.8h27.5l6 34.8h-12.4l-1.6-11.2h-4.7zm8.1-13.7l-.7-4.4h-5.4l.5 4.1h-4.3l-.6-4h-5.3l.6 4.4h4.8l.2 1.6h-2.4l.9 6.8h2.9l-.2-2.3h4.3l.4 2.3h3l-1-6.8h-2.4l-.2-1.6 4.9-.1zM197.7 19.1h4.1l1.8 18h-12.4L190 22.5l-4.6-.1 1 14.8H174l-1.3-34.8h27.4l1.3 12.9h-4.1l.4 3.8zm-8.1-3.5l-.6-7.1h-4.5l.5 7.2 4.6-.1zM152.5 8.5h15.9l-.2-6.2-27.3.1-1.2 34.8h29.5L169 30h-16.9z"/>
    </g>
    <path d="M4.6 37.2c-.8 0-1 .5-.4 1l9 8.6c.6.6 1.8 1 2.6 1h8c.8 0 1-.5.5-1.1l-7.9-8.5c-.6-.6-1.7-1.1-2.5-1.1l-9.3.1zM34.3 37.2c-.8 0-1.1.5-.5 1.1l7 8.4c.5.6 1.6 1.1 2.5 1.1h8.4c.8 0 1.1-.5.6-1.2l-6.2-8.3c-.5-.7-1.6-1.2-2.4-1.2l-9.4.1z" fill="#29282A"/>
    <path d="M23.6 29.6c-.8 0-1.1.5-.5 1.1l7.8 8.8c.5.6 1.6 1.1 2.3 1.1.7 0 .9-.6.5-1.3l-.7-1c-.5-.7-.7-1.9-.5-2.7l.2-.8c.2-.8 0-2-.5-2.6L31 30.8c-.5-.6-1.6-1.2-2.4-1.2h-5zM51.4 37.3c-.8 0-1.1.5-.6 1.2l6 8.2c.5.7 1.6 1.2 2.4 1.2h8.2c.8 0 1.1-.6.7-1.3L63 38.5c-.4-.7-1.5-1.3-2.3-1.3l-9.3.1zM68.5 37.2c-.8 0-1.1.6-.7 1.3l4.9 8c.4.7 1.5 1.3 2.3 1.3h8c.8 0 1.2-.6.8-1.3l-3.8-8c-.4-.7-1.3-1.3-2.2-1.3h-9.3zM89.8 37.2c-.8 0-1.2.6-.9 1.4l3.7 8c.3.7 1.3 1.4 2.1 1.4h8.4c.8 0 1.3-.6 1-1.4l-2.9-7.9c-.3-.8-1.2-1.4-2-1.4l-9.4-.1zM106.9 37.2c-.8 0-1.3.6-1 1.4l2.7 7.6c.3.8 1.2 1.4 2 1.4h24.3c.8 0 1.4-.7 1.3-1.5l-1.1-7.5c-.1-.8-.9-1.5-1.7-1.5l-26.5.1zM141.2 37.2c-.8 0-1.4.7-1.3 1.5l.8 7.7c.1.8.8 1.5 1.7 1.5h24.1c.8 0 1.6-.7 1.7-1.5l.9-7.8c.1-.8-.5-1.5-1.3-1.5l-26.6.1zM175.5 37.1c-.8 0-1.6.7-1.7 1.5l-1 7.6c-.1.8.5 1.5 1.3 1.5h8.2c.8 0 1.7-.7 1.8-1.5l1.8-7.7c.2-.8-.3-1.5-1.1-1.5l-9.3.1zM192.7 37.1c-.8 0-1.7.7-1.8 1.5l-1.8 7.6c-.2.8.3 1.5 1.2 1.5h8.2c.8 0 1.7-.6 2-1.4l2.7-7.7c.3-.8-.2-1.4-1-1.4l-9.5-.1zM209.8 37.1c-.8 0-1.7.6-2 1.4l-2.8 7.8c-.3.8.2 1.4 1 1.4h8.2c.8 0 1.8-.6 2.1-1.4l3.7-7.9c.3-.7 0-1.4-.9-1.4l-9.3.1zM227 37.1c-.8 0-1.8.6-2.2 1.3l-3.9 7.9c-.4.7 0 1.3.8 1.3h8.5c.8 0 1.8-.6 2.2-1.3l4.6-8c.4-.7.1-1.3-.7-1.3l-9.3.1zM244.2 37.1c-.8 0-1.8.6-2.3 1.3l-4.9 8.1c-.4.7-.1 1.3.7 1.3h8.4c.8 0 1.9-.5 2.4-1.2l5.8-8.2c.5-.7.2-1.2-.6-1.2l-9.5-.1zM287.2 37.1c-.8 0-1.9.5-2.5 1.1l-7.3 8.3c-.5.6-.3 1.1.5 1.1h8c.8 0 2-.5 2.6-1l8.6-8.4c.6-.6.4-1-.4-1l-9.5-.1z" fill="#29282A"/>
    <g opacity=".44" fill="#020303">
      <path d="M12.2 8.3c-.1.2.5.4 1.3.4h8.7c.8 0 1.5-.2 1.5-.4s-.7-.4-1.5-.4h-8.5c-.7 0-1.4.1-1.5.4zM11.6 25.8c.3-.8-.2-1.4-1-1.4H8.3c-.8 0-1.5.2-1.5.4s.7.4 1.5.4h1.3c.8 0 1.3.6 1 1.4l-2 6c-.3.8.2 1.4 1 1.4h6.6c.8 0 1.5-.2 1.5-.4s-.7-.4-1.5-.4h-5.5c-.8 0-1.3-.6-1-1.4l.2-.7c.3-.8 1.1-1.4 2-1.4H17c.8 0 1.5-.2 1.5-.4s-.7-.4-1.5-.4h-4.9c-.8 0-1.3-.6-1-1.4l.5-1.7zM45.5 9.6c.1-.8-.5-1.5-1.3-1.5h-2.7c-.8 0-1.6.2-1.6.4-.1.2.5.4 1.4.4h2.1c.8 0 1.4.7 1.3 1.5l-.4 2.8c-.1.8-.9 1.5-1.7 1.5h-8c-.8 0-1.5.2-1.5.4s.7.4 1.5.4h15.5c.8 0 1.5-.2 1.5-.4s-.7-.4-1.5-.4h-3.8c-.8 0-1.4-.7-1.3-1.5l.5-3.6zM56.2 32.8c.1-.8 0-1.1-.3-.6-.3.5-.6 1.5-.8 2.3l-.2 1.5c-.2.8.1 2 .6 2.7l.6.8c.5.7 1.2 1.5 1.7 1.9.5.4.5.1 0-.6l-1.5-2.3c-.5-.7-.7-1.9-.6-2.7l.5-3zM68.4 9.5c0-.2-.7-.4-1.5-.3l-3.4.1c-.8 0-1.1.2-.7.3.4.1 1.5.3 2.3.3h1.8c.8 0 1.5-.2 1.5-.4zM73.1 34.7c.2-.8.1-1.1-.2-.6-.3.5-.7 1.4-.8 2-.1.6 0 1.8.3 2.5.3.8.8 1.7 1.1 2.1.3.4.4.1.1-.7l-.6-1.5c-.3-.8-.3-2.1-.1-2.9l.2-.9zM69.9 26c-.8 0-1.5.1-1.5.3 0 .2.7.4 1.5.5l9.3.5c.8 0 1.7.4 2 .9.3.5.7.7.8.6.2-.1 0-.6-.3-1.2-.3-.5-1.3-1-2.1-1l-9.7-.6zM79.6 8.3c.3.2 1.3.4 2.1.4h.9c.8 0 1.5-.2 1.5-.4s-.6-.3-1.4-.4l-2.2-.1c-.8.1-1.2.3-.9.5zM90.3 26.2c-.8 0-1.5.2-1.5.4s.7.4 1.5.3l5.5-.2c.8 0 1.4.6 1.3 1.4L96 35.7c-.1.8 0 2.1.2 2.9l.3 1c.2.8.7 1.9 1.1 2.4.4.5.5.3.2-.5l-.9-3c-.2-.8-.3-2.1-.2-2.9l1.2-8.3c.1-.8-.4-1.5-1.3-1.4l-6.3.3zM92.2 8.1c0 .2.6.5 1.4.6l9.2 1.1c.8.1 1.5 0 1.5-.2s-.7-.5-1.5-.6l-9-1c-.8-.1-1.5-.1-1.6.1zM111.8 30.8c0-.8-.6-1.5-1.4-1.5h-3.5c-.8 0-1.5.2-1.5.4s.7.4 1.5.4h2.7c.8 0 1.5.7 1.4 1.5l-.1 4c0 .8.1 2.1.3 2.9l.7 2.6c.2.8.6 1.9.9 2.4.3.5.4.3.2-.5l-1-4.5c-.2-.8-.3-2.1-.3-3l.1-4.7zM107.3 12.5c0 .2.7.4 1.5.4h3.3c.8 0 1.9-.2 2.3-.4.5-.2.1-.4-.7-.4l-5 .1c-.8-.1-1.4.1-1.4.3zM128.1 16.3c0-.8-.2-1.5-.4-1.5s-.4.7-.4 1.5v3.9c0 .8.2 1.1.4.6.2-.5.4-1.6.4-2.4v-2.1zM131.8 30.3c0 .8-.7 1.5-1.5 1.5h-2.7c-.8 0-1.5.7-1.5 1.5V36c0 .8.2 1.5.4 1.5s.4-.7.4-1.5v-1.9c0-.8.7-1.5 1.5-1.5h2.7c.8 0 1.5-.7 1.5-1.5v-1c0-.8-.1-1.5-.3-1.5-.2 0-.4.7-.4 1.5l-.1.2zM162.9 31.9c-.2.3-.2 1.3-.2 2.1l.2 1.8c.1.8.1 2.2 0 3l-1.1 8c-.1.8 0 1.5.3 1.5s.5-.7.6-1.5l1-7.9c.1-.8.1-2.2 0-3l-.3-3c-.2-.9-.4-1.3-.5-1zM140.1 43.8c0 .2.7.4 1.5.4h.7c.8 0 1.5-.2 1.5-.4s-.7-.4-1.5-.4h-.7c-.9.1-1.5.2-1.5.4zM143 13.5c.4.2 1.4.5 2.2.7l6.5 1.2c.8.3 1.4.4 1.5.2.1-.2-.5-.6-1.3-.8l-8.2-1.4c-.8-.1-1.1-.1-.7.1zM142.8 20.5c.3-.2 0-.4-.9-.4h-.5c-.8 0-1.5.2-1.5.4s.5.4 1.1.4c.6 0 1.5-.1 1.8-.4zM178.1 13.9c.1.5.8.9 1.6.9h1c.8 0 1.6 0 1.7.1.1 0 .6.4.8.3.2-.1 0-.4-.3-.7-.3-.3-1.3-.5-2.1-.5h-.4c-.8 0-1.6-.7-1.7-1.5l-1-9.2c-.1-.8-.3-1.5-.5-1.4-.2 0-.3.7-.2 1.5l.8 7.3c.1.8-.5 1.5-1.3 1.5h-2.8c-.8 0-1.5.2-1.5.4s.7.4 1.5.4h2.9c.8 0 1.5.4 1.5.9zM177.1 31.8c.1.8-.2 2.1-.6 2.8l-.8 1c-.2.8-.2 1.5 0 1.5s.6-.6.8-1.3c0 0 .1-.5.5-1 .3-.5.7-.9.8-.9.1 0 .2-.7.1-1.5l-.3-4.3c-.1-.8.6-1.5 1.4-1.5h6.3c.8 0 1.5-.2 1.5-.4s-.7-.4-1.5-.4h-7.1c-.8 0-1.5.7-1.4 1.5l.3 4.5zM189.8 28.6c0 .2.7.4 1.5.4h4.3c.8 0 1.8-.2 2.2-.4.4-.2 0-.4-.8-.4h-5.7c-.8 0-1.5.2-1.5.4zM193.3 17.9c.2.2 1.1.3 1.9.3h1.4c.8 0 1.5-.2 1.5-.4s-.7-.4-1.5-.4h-2.2c-.8.1-1.3.3-1.1.5zM172.5 44.5c0 .2.6.4 1.5.5l9.3.7c.8.1 1.5-.1 1.5-.3 0-.2-.6-.4-1.5-.5l-9.3-.7c-.8-.1-1.5.1-1.5.3zM225 28.3c-.8 0-1.5.2-1.5.4s.7.4 1.5.4l11.3 1.2c.8.1 1.5 0 1.6-.2.1-.2-.5-.4-1.4-.5L225 28.3zM259.5 14.3c-.2.1-.3.8-.3 1.6l1 5.3c-.4.7-.5 1.4-.3 1.5.2.1.6-.4 1-1.2l-.9-5.9c-.1-.8-.3-1.4-.5-1.3zM253.6 4.8c-.8 0-1.6-.6-1.9-1.4v-.2c-.2-.8-.6-1.4-.8-1.3-.2.1-.2.8.1 1.5l.2.7c.2.8 1.1 1.4 1.9 1.4.8 0 1.7.6 1.9 1.4l.5 1.3c.3.8.6 1.4.8 1.3.2-.1.1-.8-.1-1.5l-.6-1.8c-.3-.7-1.2-1.4-2-1.4zM283.4 26.8c-.8 0-1.5.2-1.5.4s.7.4 1.5.4H294c.8 0 1.5-.2 1.5-.4s-.7-.4-1.5-.4h-10.6zM291.4 9c.2-.1.2-.7 0-1.5l-1.1-4.1c-.2-.8-.6-1.4-.8-1.3-.2.1-.2.7 0 1.5l1.1 4.1c.3.7.6 1.4.8 1.3z"/>
    </g>
    <path d="M39.5 8.8H43c.8 0 .8-.1 0-.3l-1.4-.3c-.8-.2-1.4 0-1.4.4.1 0 .1 0-.7.2zM20.5 42.4c-.3-.4-1.3-.6-2.1-.5l-2.2.3c-.8.1-.8.3 0 .4l3.5.4c.8 0 1.2-.2.8-.6zM52.7 46.5c-.2-.4-1.1-.6-1.9-.6l-4.5.4c-.8.1-.8.2 0 .3l5.3.5c.8.1 1.3-.2 1.1-.6zM91.5 45c-.1-.3.5-.6 1.3-.6h1.3c.8 0 .8.2.1.5l-1 .3c-.8.2-1.6.1-1.7-.2zM136 42.5c-.1-.5-.8-.9-1.6-.7l-3.2.5c-.8.1-.8.3 0 .4l3.5.5c.8.2 1.4-.2 1.3-.7zM139.8 44.3c0-.5.6-.9 1.4-.8h.3c.8.1.9.5.1.8l-.5.2c-.7.5-1.3.3-1.3-.2zM111.6 35.6c-.1-.8-.3-.8-.4-.1-.1.7-.1 1.9.2 2.7l.3.9c.2.8.4.8.3-.1v-.5c-.1-.8-.3-2.1-.4-2.9zM126.4 36.2c-.2-.3-.3.1-.3.9v.7c0 .8.2.9.3.2.2-.7.2-1.5 0-1.8zM96.5 35.9c0-.8-.2-.8-.3 0-.1.8 0 2 .2 2.8l.3.9c.3.8.4.8.2-.1l-.1-.8c-.2-.8-.3-2.1-.3-2.8zM72.4 36.5c-.1-.3-.4-.3-.5.1-.1.4 0 1.1.3 1.6s.5.4.5-.1c0-.6-.1-1.3-.3-1.6zM55.6 35.9c-.2-.8-.5-.7-.7.1l-.1.2c-.2.8.1 1.9.7 2.5l.2.2c.6.6.9.5.6-.3-.3-.8-.5-1.9-.7-2.7zM25.4 34.8c-.2-.3.2-.5 1-.4l2.8.2c.8.1.8.2 0 .3l-2 .3c-.7.1-1.6-.1-1.8-.4zM163.1 35.2c.1-.8.4-.8.5 0l.1.6c.2.8.1 2.1-.1 2.9l-.4 1.4c-.2.8-.4.8-.4 0v-1.3c0-.8.1-2.2.2-3l.1-.6zM152.9 15.9c0 .4-.6.3-1.2-.1l-.7-.5c-.7-.5-.6-.7.2-.5l.2.1c.9.1 1.5.6 1.5 1zM202.2 41.6c.1-.3-.5-.6-1.3-.6h-1.4c-.8 0-.8.2-.1.4l1.2.3c.8.3 1.5.2 1.6-.1zM195.9 36.2c-.2-.5-.4-.3-.4.5v.4c0 .8.2 1.2.4.7s.3-1.1 0-1.6zM218.3 43.1c.1-.4-.4-.6-1.2-.6l-3.3.3c-.8.1-.8.2 0 .3l2.8.4c.8.2 1.6 0 1.7-.4zM215.2 36.4c-.1-.4-.3-.4-.4-.1-.1.4-.1 1.2.1 1.9s.3.7.4.1c.1-.6 0-1.5-.1-1.9zM259.9 22.9c-.3-.1-.3-.8 0-1.6l.1-.2c.3-.8.6-.7.5.1v.3c0 1-.3 1.5-.6 1.4zM238.7 42.3c.3-.4 1.2-.6 2-.5l4.6.7c.8.1.8.2 0 .3l-5.7.2c-.8-.1-1.2-.4-.9-.7zM280.1 42.3c.4-.5 1.4-.8 2.2-.7l4.3.8c.8.2.8.3 0 .4l-5.6.3c-.9.1-1.3-.3-.9-.8zM281.8 27.1c-.2-.6.4-1 1.2-.9l3.9.6c.8.1.8.3 0 .5l-3.2.6c-1 .2-1.8-.2-1.9-.8z" fill="#020303"/>
    <path d="M277.5 9.6c-.3-.2-.5-1.1-.6-1.9v-.4c0-.8.1-.8.3 0l.4 1.4c.3.7.2 1.1-.1.9z" opacity=".5" fill="#020303"/>
    <path d="M237.4 30.7l-2.4-1c-.8-.3-.7-.5.1-.4l2.5.2" fill="#020303"/>
    <path d="M150.7 38c.2-.5.2-1.3 0-1.7-.2-.5-1-.8-1.8-.8h-1.2c-.8 0-1.8.4-2.1.9-.3.5.1 1.1.9 1.4l2.4.7c.9.2 1.7 0 1.8-.5z" opacity=".5" fill="#020303"/>
    <path d="M149.2 36.7c-.6-.6-.5-1.1.1-1.1s1.4.3 1.7.7c.3.4.2 1.3-.2 2l-.3.5c-.4.7-.7.8-.5.2.2-.6-.2-1.6-.8-2.3zM92.1 8.4c.1-.5.8-.7 1.6-.5l.6.1c.8.2.8.5 0 .7l-.9.2c-.8.2-1.4 0-1.3-.5zM51.3 15.2c-.2.3-1 .4-1.8.2l-.7-.2c-.8-.2-.8-.4 0-.4l1.3-.1c.8 0 1.4.2 1.2.5zM18.4 29.2c.1-.4-.4-.6-1.2-.5l-1.6.3c-.8.2-.8.4 0 .5l1.1.2c.8.1 1.6-.1 1.7-.5z" fill="#020303"/>
    <path d="M20.9 42.5c-.3-.3-.3-1.2-.1-2l.4-1.4c.2-.8.4-.8.4.1l-.1 2.4c0 .8-.3 1.2-.6.9zM52.5 46.7c-.3-.2-.3-.9 0-1.7.3-.8.5-.7.5.1v.4c0 .8-.2 1.3-.5 1.2zM80.9 27.7c0-.6.2-.4.5.4l.3.7c.3.8.3 1.1-.1.6-.3-.4-.6-1.2-.7-1.7zM239.1 42.8c.3-.2.4-1.1.2-1.9l-.4-1.5c-.2-.8-.4-.8-.4.1l.1 2.3c-.1.7.2 1.2.5 1zM280.7 42.5c.5-.2.5-1.1.2-1.8l-1.8-3.8c-.3-.7-.5-.7-.4.1l.8 4.5c.3.8.8 1.3 1.2 1zM282.5 27c-.2-.3-.6 0-1 .7l-1.8 3.8c-.4.7-.3.8.2.1l2-2.8c.5-.6.8-1.4.6-1.8z" fill="#29282A"/>
    <path d="M255.4 9.8l.1-2.2c0-.8.2-.8.4 0l.6 2.5" fill="#020303"/>
    <path d="M14.9 43.4c-.8-.2-.8-.4.1-.3h.2c.8.1 2.1.2 2.8.3.7.1.6.2-.1.3-.7.1-2.2-.1-3-.3zM54.8 38.8c-.6-.6-.7-.5-.2.2l.8 1.1c.5.7 1.3 1.5 1.8 1.8.5.3.5.1-.1-.6s-1.4-1.6-2-2.2l-.3-.3zM71.2 37.1c-.2 0-.1.6.3 1.3.3.7.5.7.4 0-.2-.7-.5-1.3-.7-1.3zM94.4 45.2c-.7-.1-.6-.2.2-.4l1.2-.2c.8-.1 1.1 0 .7.2-.5.3-1.4.5-2.1.4zM110.6 38.5c-.3-.5-.4-.2-.3.6.2.8.6 2 1 2.7.4.7.5.6.4-.2l-.2-.9c-.2-.8-.6-1.8-.9-2.2zM164.2 39.9c-.1-.5-.4-.4-.6.2-.2.6-.4 1.8-.4 2.6s.2.9.5.1l.2-.6c.3-.8.4-1.8.3-2.3zM146.4 36.4c-.2-.5-.6-.4-.9.2-.3.6 0 1.5.8 1.8l.3.1c.7.4 1.1.2.8-.3-.4-.4-.8-1.3-1-1.8zM176.4 45.5c-.8-.2-.8-.4 0-.4h.5c.8 0 2.1.2 2.9.5h.1c.8.3.7.4-.1.4h-.5c-.8-.1-2.1-.3-2.9-.5zM196.6 38.5c-.1-.3-.3 0-.6.6s-.2.9.1.6c.4-.4.6-.9.5-1.2zM216.1 37.8c-.1-.3-.3 0-.6.6-.2.7-.2.9.1.6.4-.4.6-.9.5-1.2zM212.9 43.6c-.8-.2-.8-.3 0-.4l.9-.1c.8-.1 1.9.1 2.3.4.5.3.3.5-.3.5s-1.8-.1-2.6-.3l-.3-.1zM241.6 43.6c-.8.1-.8-.1 0-.3.8-.2 2.1-.4 2.9-.3l1.4.1c.8.1.8.2 0 .2l-1.4.1c-.8 0-2.1.1-2.9.2z" fill="#5B5558"/>
    <path d="M260.1 23.2c-.4.2-1 .9-1.3 1.7l-.1.3c-.3.8-.2.8.3.2l1-1.3c.5-.7.5-1.1.1-.9z" fill="#29282A"/>
    <path d="M291.5 9.4c-.4 0-.8-.7-.8-1.5l-.2-.9c-.1-.8.1-.9.5-.1l.5 1.2c.4.7.4 1.3 0 1.3zM172.2 13c0-.5.6-.8 1.4-.8h.8c.8 0 .9.3.1.6l-.9.4c-.7.3-1.4.2-1.4-.2zM127.8 14.6c-.3-.2-.5.4-.4 1.2l.1.9c.1.8.3.8.5 0l.1-.4c.2-.7.1-1.5-.3-1.7zM88.1 26.9c-.1-.3.5-.6 1.3-.6h3.7c.8 0 .8.1 0 .3l-3.4.7c-.7.1-1.5 0-1.6-.4zM17.7 33.9c.1-.3-.6-.5-1.4-.5h-1.1c-.8 0-.8.2 0 .4l1 .2c.7.2 1.4.1 1.5-.1z" fill="#020303"/>
    <path d="M5 36.7c-.8 0-1.4.2-1.2.3.2.1 1 .3 1.8.3h6.9c.8 0 1.6-.2 1.8-.4.2-.2-.4-.4-1.2-.4l-8.1.2zM34.9 36.7c-.8 0-1.4.2-1.2.3.2.1 1 .3 1.8.3h6.8c.8 0 1.6-.2 1.8-.4.2-.2-.4-.4-1.2-.4l-8 .2zM51.7 36.6c-.8 0-1.4.2-1.4.4s.8.3 1.6.3h.4c.8 0 1.5-.2 1.6-.4.1-.2-.6-.4-1.4-.3h-.8zM21.7 21.9c-.8 0-1.4.2-1.4.4s.8.3 1.6.3h.4c.8 0 1.5-.2 1.6-.4.1-.2-.6-.4-1.4-.3h-.8zM34.1 21.9c-.8 0-1.4.2-1.4.4s.8.3 1.6.3h.4c.8 0 1.5-.2 1.6-.4.1-.2-.6-.4-1.4-.3h-.8zM9.3 23.9c-.8 0-1.5.2-1.4.4.1.2.8.3 1.6.3s1.5-.2 1.6-.4c.1-.2-.6-.4-1.4-.3h-.4zM24.2 29c-.8 0-1.4.2-1.3.3.1.2.9.3 1.7.3h3.2c.8 0 1.6-.2 1.7-.4.1-.2-.5-.4-1.3-.4l-4 .2zM17.4 7.4c-.8 0-1.4.2-1.3.3.1.2.8.3 1.7.3H21c.8 0 1.6-.2 1.7-.4.1-.2-.5-.4-1.3-.4l-4 .2zM69 36.6c-.8 0-1.4.2-1.4.4s.8.3 1.6.3h.4c.8 0 1.5-.2 1.6-.4.1-.2-.6-.4-1.4-.3H69zM98.4 36.6c-.8 0-1.5.2-1.4.4.1.2.8.3 1.6.3s1.5-.2 1.6-.4c.1-.2-.6-.4-1.4-.3h-.4zM74.5 36.6c-.8 0-1.4.2-1.3.3.1.1.8.3 1.7.3h2.5c.8 0 1.6-.2 1.7-.4.1-.2-.5-.4-1.3-.3l-3.3.1zM90.1 36.6c-.8 0-1.4.2-1.3.3.1.2.9.3 1.7.3h3c.8 0 1.6-.2 1.7-.4.1-.2-.5-.4-1.3-.4l-3.8.2zM107.3 36.6c-.8 0-1.4.2-1.4.4.1.2.8.3 1.6.3h1.5c.8 0 1.6-.2 1.6-.4.1-.2-.5-.4-1.4-.3h-1.9zM141.5 36.6c-.8 0-1.4.2-1.4.4s.8.3 1.6.3h1.5c.8 0 1.6-.2 1.6-.4s-.5-.4-1.4-.3h-1.9zM165.8 36.6c-.8 0-1.4.2-1.4.4.1.2.8.3 1.6.3h1c.8 0 1.6-.2 1.6-.4.1-.2-.5-.4-1.4-.3h-1.4zM177.9 36.7c-.8 0-1.4.2-1.2.3.2.1.9.3 1.8.3h5.5c.8 0 1.6-.2 1.8-.4.2-.2-.4-.4-1.2-.4l-6.7.2zM192.9 36.6c-.8 0-1.4.2-1.4.4.1.2.8.3 1.6.3h.5c.8 0 1.5-.2 1.6-.4.1-.2-.6-.4-1.4-.3h-.9zM198.3 36.6c-.8 0-1.4.2-1.3.3.1.2.9.3 1.7.3h2.5c.8 0 1.6-.2 1.7-.4.1-.2-.5-.4-1.3-.3l-3.3.1zM210.2 36.6c-.8 0-1.4.2-1.3.4.1.2.8.3 1.6.3h1.7c.8 0 1.6-.2 1.6-.4s-.5-.4-1.3-.3h-2.3zM217.3 36.6c-.8 0-1.4.2-1.4.4s.8.3 1.6.3h.8c.8 0 1.6-.2 1.6-.4.1-.2-.6-.4-1.4-.3h-1.2zM227.3 36.7c-.8 0-1.3.2-1.2.3.1.1 1 .3 1.8.3h7.6c.8 0 1.6-.2 1.8-.4.2-.2-.3-.4-1.2-.4l-8.8.2zM244.4 36.7c-.8 0-1.3.2-1.2.3.2.2 1 .3 1.8.3h7.6c.8 0 1.6-.2 1.8-.4.2-.2-.3-.4-1.2-.4l-8.8.2zM287.5 36.7c-.8 0-1.3.2-1.2.3.2.2 1 .3 1.8.3h7.6c.8 0 1.6-.2 1.8-.4.2-.2-.3-.4-1.2-.4l-8.8.2zM271.6 8c-.8 0-1.4.2-1.3.3.1.2.9.3 1.7.3h2.9c.8 0 1.6-.2 1.7-.4.1-.2-.5-.4-1.3-.4l-3.7.2zM258.2 8c-.8 0-1.4.2-1.3.3.1.1.9.3 1.7.3h3.8c.8 0 1.6-.2 1.7-.4.1-.2-.5-.4-1.3-.4l-4.6.2zM251.4 8c-.8 0-1.4.2-1.3.4.1.2.8.3 1.6.3h1.8c.8 0 1.6-.2 1.7-.4.1-.2-.5-.4-1.3-.3h-2.5zM253.7 21.9c-.8 0-1.4.2-1.3.3.1.2.9.3 1.7.3h3.1c.8 0 1.6-.2 1.7-.4.1-.2-.5-.4-1.3-.4l-3.9.2zM212.1 7c-.8 0-1.4.2-1.3.4.1.2.8.3 1.7.3h1.8c.8 0 1.6-.2 1.6-.4.1-.2-.5-.4-1.3-.3h-2.5zM221.8 7c-.8 0-1.4.2-1.3.4.1.2.8.3 1.6.3h1.8c.8 0 1.6-.2 1.6-.4s-.5-.4-1.3-.3h-2.4zM215.7 13.1c-.7 0-1.3.2-1.2.4.1.2.6.3 1.2.3s1.2-.2 1.2-.4c.1-.2-.5-.3-1.2-.3zM219 11.1c-.8 0-1.5.2-1.4.4.1.2.7.3 1.5.3s1.5-.2 1.5-.4c.1-.2-.6-.4-1.4-.3h-.2zM176 11.5c-.8 0-1.5.2-1.4.4.1.2.7.3 1.5.3s1.5-.2 1.5-.4-.6-.4-1.4-.3h-.2zM186.8 21.6c-.8 0-1.4.2-1.4.4.1.2.8.3 1.6.3h.5c.8 0 1.5-.2 1.6-.4.1-.2-.6-.4-1.4-.3h-.9zM179.2 25.2c-.8 0-1.4.2-1.3.3.1.2.8.3 1.7.3h2.5c.8 0 1.6-.2 1.7-.4.1-.2-.5-.4-1.3-.3l-3.3.1zM286.4 25.9c-.8 0-1.4.2-1.3.3.1.2.8.3 1.7.3h2.5c.8 0 1.6-.2 1.7-.4.1-.2-.5-.4-1.3-.3l-3.3.1zM108.2 28.8c-.8 0-1.4.2-1.4.4.1.2.8.3 1.6.3h1.1c.8 0 1.6-.2 1.6-.4.1-.2-.5-.4-1.4-.3h-1.5zM93 25.7c-.8 0-1.4.2-1.4.4.1.2.8.3 1.6.3h1.1c.8 0 1.6-.2 1.6-.4.1-.2-.5-.4-1.4-.3H93zM71.4 25.5c-.8 0-1.4.2-1.4.4s.8.3 1.6.3h1.1c.8 0 1.6-.2 1.6-.4.1-.2-.5-.4-1.4-.3h-1.5zM38.8 13.9c-.8 0-1.4.2-1.3.3.1.2.9.3 1.7.3h2.6c.8 0 1.6-.2 1.7-.4.1-.2-.5-.4-1.3-.4l-3.4.2zM100.1 8.4c-.8-.1-1.4 0-1.4.2s.8.4 1.6.5l1.1.2c.8.1 1.6 0 1.7-.2.1-.2-.5-.4-1.3-.5l-1.7-.2zM193 27.5c-.8 0-1.4.2-1.4.4s.8.3 1.6.3h1.1c.8 0 1.6-.2 1.6-.4.1-.2-.5-.4-1.4-.3H193zM220.2 24.9c-.8 0-1.4.2-1.4.4.1.2.8.3 1.6.3h1.1c.8 0 1.6-.2 1.6-.4.1-.2-.5-.4-1.4-.3h-1.5zM154.7 7.7c-.8 0-1.3.2-1.1.3.2.2 1.1.3 1.9.3h9.8c.8 0 1.7-.2 1.9-.4.2-.2-.3-.4-1.1-.4l-11.4.2zM122.3 7.8c-.8 0-1.3.2-1.1.3.2.2 1.1.3 1.9.3h10.3c.8 0 1.7-.2 1.9-.4.2-.2-.2-.4-1.1-.4l-11.9.2zM120.6 21.6c-.8 0-1.4.2-1.3.3.1.2.9.3 1.7.3h4.2c.8 0 1.6-.2 1.7-.4.1-.2-.4-.4-1.3-.4l-5 .2zM129.3 21.6c-.8 0-1.4.2-1.3.3.1.2.9.3 1.7.3h3.8c.8 0 1.6-.2 1.7-.4.1-.2-.5-.4-1.3-.4l-4.6.2zM147.9 34.8c-.8 0-1.4.2-1.4.4.1.2.8.3 1.6.3h.3c.8 0 1.5-.2 1.6-.4.1-.2-.6-.4-1.4-.3h-.7zM145.4 12.6c-.8-.1-1.4 0-1.4.2.1.2.8.4 1.6.5l1.9.3c.8.1 1.6 0 1.7-.1.1-.2-.5-.4-1.3-.5l-2.5-.4zM226.8 27.6c-.8-.1-1.4 0-1.4.2.1.2.8.4 1.6.5l1.9.3c.8.1 1.6 0 1.7-.1.1-.2-.5-.4-1.3-.5l-2.5-.4zM223.9 13.1c-.7 0-1.2.2-1.1.4 0 .2.6.3 1.1.3.5 0 1.1-.2 1.1-.4s-.4-.3-1.1-.3zM262.3 21.9c-.8 0-1.4.2-1.3.3.1.1.9.3 1.7.3h3.8c.8 0 1.6-.2 1.7-.4.1-.2-.5-.4-1.3-.4l-4.6.2zM293.5 8c-.8 0-1.4.2-1.3.3.1.1.8.3 1.7.3h1.9c.8 0 1.6-.2 1.7-.4.1-.2-.5-.4-1.3-.3l-2.7.1zM153.4 36.7c-.8 0-1.4.2-1.2.3.2.1 1 .3 1.8.3h6.3c.8 0 1.6-.2 1.8-.4.2-.2-.4-.4-1.2-.4l-7.5.2zM113.6 36.7c-.8 0-1.3.2-1.1.3.2.1 1.1.3 1.9.3h9.3c.8 0 1.7-.2 1.9-.4.2-.2-.3-.4-1.1-.4l-10.9.2zM128.4 36.6c-.8 0-1.4.2-1.3.3.1.1.9.3 1.7.3h3.7c.8 0 1.6-.2 1.7-.4.1-.2-.5-.4-1.3-.4l-4.5.2zM58.1 36.7c-.8 0-1.4.2-1.3.4.1.2.8.3 1.6.3h1.7c.8 0 1.6-.2 1.6-.4s-.5-.4-1.3-.3h-2.3z" fill="#DFDAD5"/>
    <g>
      <g fill="#020303">
        <path d="M13.5 49.9L.7 38 12.8.5h14l7 9.6.8-3.1h4L40.3.5h14.4l1 1.7.3-1.7h14.6l.9 1.9.3-1.9h14.7l2.6 6.6h.3l.9 2.1L91.5.5l14.9-.1.7 2.5.2-2.5h31l1.5 14-.3 8.2h-.7l.5 4.5-.3 8.7h-.9l.7 4.9-.4 9.1h-30.7l-.8-2.2-.2 2.2H92l-3.9-8.1-1.2 8.1H72.4l-1.1-1.6-.3 1.6H56.6l-1.1-1.5-.3 1.5H40.9l-6.2-7.1h-3.8l-1.2-1.4-2.3 8.6zM186.4 46.9l-.6 3h-15.1l-1.2-35.4 1.3-14h31.1l.3 2.6.7-2.6h30.8l.3 2 .9-2h30.6l.4 1.7 1-1.7h30.4L300 9l-6.1 7.3.1.3c.4 1.4.9 2.9 1.3 4.3.3 1 1.4 4.4 1.4 4.4l1.2 3.8.6 1.9c.3 1 .6 1.9.9 2.9.3 1 .6 2 .9 2.9l.3 1.1-11.9 11.9h-14.3l-5.8-23.4-6.8 9.4H257l.4 2-8.4 12h-14.5l-.3-1.8-1 1.8h-14.6l-.3-2-.9 2h-14.8l-.2-2.3-.8 2.3h-14.9l-.3-2.9z"/>
        <path d="M137.7 37.6L139 .4h31.2l.2 8.5-1 13.7h-14.8l-.1 5.4H171l.3 9.6-1.2 12.2h-31z"/>
      </g>
      <path fill="url(#RealmsLogoA)" d="M24.5 6.9l-1.9 6.9h8.7L33.1 7h4L38.8.5h11.4l-8 34.7H29.8l3.7-14.8H29l-1.9 7.2h-8l2-7.2-4.5.1-4.4 14.7H.1L11.2.5h11.3l-1.9 6.3z" transform="translate(3 2)"/>
      <path fill="url(#RealmsLogoB)" d="M66 .5l-6.8 34.8H46.9L54.6.5z" transform="translate(3 2)"/>
      <path fill="url(#RealmsLogoC)" d="M82.8 24l1-7.2-4.5-.1-3 18.5H64L70.5.4h11.4l-1 6.5 4 .1-1 6.7h4.4L90.2.4h11.5l-4 34.8H85.3l1.5-11.1z" transform="translate(3 2)"/>
      <path fill="url(#RealmsLogoD)" d="M132.2 28l-.3 7.2h-29.5L106.1.4h27.4l-.3 6.1h-16.1l-.5 7.1 16.3.1-.3 6.7H116l-.6 7.5z" transform="translate(3 2)"/>
      <path d="M292.8.2l2 6.2h-8v.2c.3 1.3.7 2.7 1.1 4.1.4 1.4.8 2.8 1.2 4.3.4 1.5.9 2.9 1.3 4.4.5 1.5.9 3 1.4 4.5.3.9.6 1.8.8 2.7.3.9.6 1.9.9 2.8.3.9.6 1.9.8 2.8.3.9.6 1.9.8 2.8h-12.5l-7.8-28.7h-8L265.2.1l27.6.1z" fill="url(#RealmsLogoE)" transform="translate(3 2)"/>
      <path fill="url(#RealmsLogoF)" d="M264.1 13.4l1.7 6.9h-16.7l3.1 14.8h-12.5L233.3.3h27.5l1.6 6.1h-16.2l1.4 7z" transform="translate(3 2)"/>
      <path d="M216.2 23.9l1.5 11.2h-12.4L201.4.3h27.5l6 34.8h-12.4l-1.6-11.2h-4.7zm8.1-13.7l-.7-4.4h-5.4l.5 4.1h-4.3l-.6-4h-5.3l.6 4.4h4.8l.2 1.6h-2.4l.9 6.8h2.9l-.2-2.3h4.3l.4 2.3h3l-1-6.8h-2.4l-.2-1.6 4.9-.1z" fill="url(#RealmsLogoG)" transform="translate(3 2)"/>
      <path d="M194.7 17.1h4.1l1.8 18h-12.4L187 20.5l-4.6-.1 1 14.8H171L169.7.4h27.4l1.3 12.9h-4.1l.4 3.8zm-8.1-3.5l-.6-7.1h-4.5l.5 7.2 4.6-.1z" fill="url(#RealmsLogoH)" transform="translate(3 2)"/>
      <path fill="url(#RealmsLogoI)" d="M149.5 6.5h15.9l-.2-6.2-27.3.1-1.2 34.8h29.5L166 28h-16.9z" transform="translate(3 2)"/>
      <path d="M4.6 37.2c-.8 0-1 .5-.4 1l9 8.6c.6.6 1.8 1 2.6 1h8c.8 0 1-.5.5-1.1l-7.9-8.5c-.6-.6-1.7-1.1-2.5-1.1l-9.3.1zM34.3 37.2c-.8 0-1.1.5-.5 1.1l7 8.4c.5.6 1.6 1.1 2.5 1.1h8.4c.8 0 1.1-.5.6-1.2l-6.2-8.3c-.5-.7-1.6-1.2-2.4-1.2l-9.4.1z" fill="#29282A"/>
      <path d="M23.6 29.6c-.8 0-1.1.5-.5 1.1l7.8 8.8c.5.6 1.6 1.1 2.3 1.1.7 0 .9-.6.5-1.3l-.7-1c-.5-.7-.7-1.9-.5-2.7l.2-.8c.2-.8 0-2-.5-2.6L31 30.8c-.5-.6-1.6-1.2-2.4-1.2h-5zM51.4 37.3c-.8 0-1.1.5-.6 1.2l6 8.2c.5.7 1.6 1.2 2.4 1.2h8.2c.8 0 1.1-.6.7-1.3L63 38.5c-.4-.7-1.5-1.3-2.3-1.3l-9.3.1zM68.5 37.2c-.8 0-1.1.6-.7 1.3l4.9 8c.4.7 1.5 1.3 2.3 1.3h8c.8 0 1.2-.6.8-1.3l-3.8-8c-.4-.7-1.3-1.3-2.2-1.3h-9.3zM89.8 37.2c-.8 0-1.2.6-.9 1.4l3.7 8c.3.7 1.3 1.4 2.1 1.4h8.4c.8 0 1.3-.6 1-1.4l-2.9-7.9c-.3-.8-1.2-1.4-2-1.4l-9.4-.1zM106.9 37.2c-.8 0-1.3.6-1 1.4l2.7 7.6c.3.8 1.2 1.4 2 1.4h24.3c.8 0 1.4-.7 1.3-1.5l-1.1-7.5c-.1-.8-.9-1.5-1.7-1.5l-26.5.1zM141.2 37.2c-.8 0-1.4.7-1.3 1.5l.8 7.7c.1.8.8 1.5 1.7 1.5h24.1c.8 0 1.6-.7 1.7-1.5l.9-7.8c.1-.8-.5-1.5-1.3-1.5l-26.6.1zM175.5 37.1c-.8 0-1.6.7-1.7 1.5l-1 7.6c-.1.8.5 1.5 1.3 1.5h8.2c.8 0 1.7-.7 1.8-1.5l1.8-7.7c.2-.8-.3-1.5-1.1-1.5l-9.3.1zM192.7 37.1c-.8 0-1.7.7-1.8 1.5l-1.8 7.6c-.2.8.3 1.5 1.2 1.5h8.2c.8 0 1.7-.6 2-1.4l2.7-7.7c.3-.8-.2-1.4-1-1.4l-9.5-.1zM209.8 37.1c-.8 0-1.7.6-2 1.4l-2.8 7.8c-.3.8.2 1.4 1 1.4h8.2c.8 0 1.8-.6 2.1-1.4l3.7-7.9c.3-.7 0-1.4-.9-1.4l-9.3.1zM227 37.1c-.8 0-1.8.6-2.2 1.3l-3.9 7.9c-.4.7 0 1.3.8 1.3h8.5c.8 0 1.8-.6 2.2-1.3l4.6-8c.4-.7.1-1.3-.7-1.3l-9.3.1zM244.2 37.1c-.8 0-1.8.6-2.3 1.3l-4.9 8.1c-.4.7-.1 1.3.7 1.3h8.4c.8 0 1.9-.5 2.4-1.2l5.8-8.2c.5-.7.2-1.2-.6-1.2l-9.5-.1zM287.2 37.1c-.8 0-1.9.5-2.5 1.1l-7.3 8.3c-.5.6-.3 1.1.5 1.1h8c.8 0 2-.5 2.6-1l8.6-8.4c.6-.6.4-1-.4-1l-9.5-.1z" fill="#29282A"/>
      <g opacity=".44" fill="#020303">
        <path d="M12.2 8.3c-.1.2.5.4 1.3.4h8.7c.8 0 1.5-.2 1.5-.4s-.7-.4-1.5-.4h-8.5c-.7 0-1.4.1-1.5.4zM11.6 25.8c.3-.8-.2-1.4-1-1.4H8.3c-.8 0-1.5.2-1.5.4s.7.4 1.5.4h1.3c.8 0 1.3.6 1 1.4l-2 6c-.3.8.2 1.4 1 1.4h6.6c.8 0 1.5-.2 1.5-.4s-.7-.4-1.5-.4h-5.5c-.8 0-1.3-.6-1-1.4l.2-.7c.3-.8 1.1-1.4 2-1.4H17c.8 0 1.5-.2 1.5-.4s-.7-.4-1.5-.4h-4.9c-.8 0-1.3-.6-1-1.4l.5-1.7zM45.5 9.6c.1-.8-.5-1.5-1.3-1.5h-2.7c-.8 0-1.6.2-1.6.4-.1.2.5.4 1.4.4h2.1c.8 0 1.4.7 1.3 1.5l-.4 2.8c-.1.8-.9 1.5-1.7 1.5h-8c-.8 0-1.5.2-1.5.4s.7.4 1.5.4h15.5c.8 0 1.5-.2 1.5-.4s-.7-.4-1.5-.4h-3.8c-.8 0-1.4-.7-1.3-1.5l.5-3.6zM56.2 32.8c.1-.8 0-1.1-.3-.6-.3.5-.6 1.5-.8 2.3l-.2 1.5c-.2.8.1 2 .6 2.7l.5.8c.5.7 1.2 1.5 1.7 1.9.5.4.5.1 0-.6l-1.5-2.3c-.5-.7-.7-1.9-.6-2.7l.6-3zM68.4 9.5c0-.2-.7-.4-1.5-.3l-3.4.1c-.8 0-1.1.2-.7.3.5.2 1.5.3 2.3.3h1.8c.8 0 1.5-.2 1.5-.4zM73.1 34.7c.2-.8.1-1.1-.2-.6-.3.5-.7 1.4-.8 2-.1.6 0 1.8.3 2.5.3.8.8 1.7 1.1 2.1.3.4.4.1.1-.7l-.6-1.5c-.3-.8-.3-2.1-.1-2.9l.2-.9zM69.9 26c-.8 0-1.5.1-1.5.3 0 .2.7.4 1.5.5l9.3.5c.8 0 1.7.4 2 .9.3.5.7.7.8.6.2-.1 0-.6-.3-1.2-.3-.5-1.3-1-2.1-1l-9.7-.6zM79.6 8.3c.3.2 1.3.4 2.1.4h.9c.8 0 1.5-.2 1.5-.4s-.6-.3-1.4-.4h-2.2c-.8 0-1.2.2-.9.4zM90.3 26.2c-.8 0-1.5.2-1.5.4s.7.4 1.5.3l5.5-.2c.8 0 1.4.6 1.3 1.4L96 35.7c-.1.8 0 2.1.2 2.9l.3 1c.2.8.7 1.9 1.1 2.4.4.5.5.3.2-.5l-.9-3c-.2-.8-.3-2.1-.2-2.9l1.2-8.3c.1-.8-.4-1.5-1.3-1.4l-6.3.3zM92.2 8.1c0 .2.6.5 1.4.6l9.2 1.1c.8.1 1.5 0 1.5-.2s-.7-.5-1.5-.6l-9-1c-.8-.1-1.5-.1-1.6.1zM111.8 30.8c0-.8-.6-1.5-1.4-1.5h-3.5c-.8 0-1.5.2-1.5.4s.7.4 1.5.4h2.7c.8 0 1.5.7 1.4 1.5l-.1 4c0 .8.1 2.1.3 2.9l.7 2.6c.2.8.6 1.9.9 2.4.3.5.4.3.2-.5l-1-4.5c-.2-.8-.3-2.1-.3-3l.1-4.7zM107.3 12.5c0 .2.7.4 1.5.4h3.3c.8 0 1.9-.2 2.3-.4.5-.2.1-.4-.7-.4l-5 .1c-.8-.1-1.4.1-1.4.3zM128.1 16.3c0-.8-.2-1.5-.4-1.5s-.4.7-.4 1.5v3.9c0 .8.2 1.1.4.6.2-.5.4-1.6.4-2.4v-2.1zM131.8 30.3c0 .8-.7 1.5-1.5 1.5h-2.7c-.8 0-1.5.7-1.5 1.5V36c0 .8.2 1.5.4 1.5s.4-.7.4-1.5v-1.9c0-.8.7-1.5 1.5-1.5h2.7c.8 0 1.5-.7 1.5-1.5v-1c0-.8-.1-1.5-.3-1.5-.2 0-.4.7-.4 1.5l-.1.2zM162.9 31.9c-.2.3-.2 1.3-.2 2.1l.2 1.8c.1.8.1 2.2 0 3l-1.1 8c-.1.8 0 1.5.3 1.5s.5-.7.6-1.5l1-7.9c.1-.8.1-2.2 0-3l-.3-3c-.2-.9-.4-1.3-.5-1zM140.1 43.8c0 .2.7.4 1.5.4h.7c.8 0 1.5-.2 1.5-.4s-.7-.4-1.5-.4h-.7c-.9.1-1.5.2-1.5.4zM143 13.5c.4.2 1.4.5 2.2.7l6.5 1.2c.8.3 1.4.4 1.5.2.1-.2-.5-.6-1.3-.8l-8.2-1.4c-.8-.1-1.1-.1-.7.1zM142.8 20.5c.3-.2 0-.4-.9-.4h-.5c-.8 0-1.5.2-1.5.4s.5.4 1.1.4c.6 0 1.5-.1 1.8-.4zM178.1 13.9c.1.5.8.9 1.6.9h1c.8 0 1.6 0 1.7.1.1 0 .6.4.8.3.2-.1 0-.4-.3-.7-.3-.3-1.3-.5-2.1-.5h-.4c-.8 0-1.6-.7-1.7-1.5l-1-9.2c-.1-.8-.3-1.5-.5-1.4-.2 0-.3.7-.2 1.5l.8 7.3c.1.8-.5 1.5-1.3 1.5h-2.8c-.8 0-1.5.2-1.5.4s.7.4 1.5.4h2.9c.8 0 1.5.4 1.5.9zM177.1 31.8c.1.8-.2 2.1-.6 2.8l-.8 1c-.2.8-.2 1.5 0 1.5s.6-.6.8-1.3c0 0 .1-.5.5-1 .3-.5.7-.9.8-.9.1 0 .2-.7.1-1.5l-.3-4.3c-.1-.8.6-1.5 1.4-1.5h6.3c.8 0 1.5-.2 1.5-.4s-.7-.4-1.5-.4h-7.1c-.8 0-1.5.7-1.4 1.5l.3 4.5zM189.8 28.6c0 .2.7.4 1.5.4h4.3c.8 0 1.8-.2 2.2-.4.4-.2 0-.4-.8-.4h-5.7c-.8 0-1.5.2-1.5.4zM193.3 17.9c.2.2 1.1.3 1.9.3h1.4c.8 0 1.5-.2 1.5-.4s-.7-.4-1.5-.4h-2.2c-.8.1-1.3.3-1.1.5zM172.5 44.5c0 .2.6.4 1.5.5l9.3.7c.8.1 1.5-.1 1.5-.3 0-.2-.6-.4-1.5-.5l-9.3-.7c-.8-.1-1.5.1-1.5.3zM225 28.3c-.8 0-1.5.2-1.5.4s.7.4 1.5.4l11.3 1.2c.8.1 1.5 0 1.6-.2.1-.2-.5-.4-1.4-.5L225 28.3zM259.5 14.3c-.2.1-.3.8-.3 1.6l1 5.3c-.4.7-.5 1.4-.3 1.5.2.1.6-.4 1-1.2l-.9-5.9c-.1-.8-.3-1.4-.5-1.3zM253.6 4.8c-.8 0-1.6-.6-1.9-1.4v-.2c-.2-.8-.6-1.4-.8-1.3-.2.1-.2.8.1 1.5l.2.7c.2.8 1.1 1.4 1.9 1.4.8 0 1.7.6 1.9 1.4l.5 1.3c.3.8.6 1.4.8 1.3.2-.1.1-.8-.1-1.5l-.6-1.8c-.3-.7-1.2-1.4-2-1.4zM283.4 26.8c-.8 0-1.5.2-1.5.4s.7.4 1.5.4H294c.8 0 1.5-.2 1.5-.4s-.7-.4-1.5-.4h-10.6zM291.4 9c.2-.1.2-.7 0-1.5l-1.1-4.1c-.2-.8-.6-1.4-.8-1.3-.2.1-.2.8 0 1.5l1.1 4.1c.3.7.6 1.4.8 1.3z"/>
      </g>
      <path d="M39.5 8.8H43c.8 0 .8-.1 0-.3l-1.4-.3c-.8-.2-1.4 0-1.4.4.1 0 .1 0-.7.2zM20.5 42.4c-.3-.4-1.3-.6-2.1-.5l-2.2.3c-.8.1-.8.3 0 .4l3.5.4c.8 0 1.2-.2.8-.6zM52.7 46.5c-.2-.4-1.1-.6-1.9-.6l-4.5.4c-.8.1-.8.2 0 .3l5.3.5c.8.1 1.3-.2 1.1-.6zM91.5 45c-.1-.3.5-.6 1.3-.6h1.3c.8 0 .8.2.1.5l-1 .3c-.8.2-1.6.1-1.7-.2zM136 42.5c-.1-.5-.8-.9-1.6-.7l-3.2.5c-.8.1-.8.3 0 .4l3.5.5c.8.2 1.4-.2 1.3-.7zM139.8 44.3c0-.5.6-.9 1.4-.8h.3c.8.1.9.5.1.8l-.5.2c-.7.5-1.3.3-1.3-.2zM111.6 35.6c-.1-.8-.3-.8-.4-.1-.1.7-.1 1.9.2 2.7l.3.9c.2.8.4.8.3-.1v-.5c-.1-.8-.3-2.1-.4-2.9zM126.4 36.2c-.2-.3-.3.1-.3.9v.7c0 .8.2.9.3.2.2-.7.2-1.5 0-1.8zM96.5 35.9c0-.8-.2-.8-.3 0-.1.8 0 2 .2 2.8l.3.9c.3.8.4.8.2-.1l-.1-.8c-.2-.8-.3-2.1-.3-2.8zM72.4 36.5c-.1-.3-.4-.3-.5.1-.1.4 0 1.1.3 1.6s.5.4.5-.1c0-.6-.1-1.3-.3-1.6zM55.6 35.9c-.2-.8-.5-.7-.7.1l-.1.2c-.2.8.1 1.9.7 2.5l.2.2c.6.6.9.5.6-.3-.3-.8-.5-1.9-.7-2.7zM25.4 34.8c-.2-.3.2-.5 1-.4l2.8.2c.8.1.8.2 0 .3l-2 .3c-.7.1-1.6-.1-1.8-.4zM163.1 35.2c.1-.8.4-.8.5 0l.1.6c.2.8.1 2.1-.1 2.9l-.4 1.4c-.2.8-.4.8-.4 0v-1.3c0-.8.1-2.2.2-3l.1-.6zM152.9 15.9c0 .4-.6.3-1.2-.1l-.7-.5c-.7-.5-.6-.7.2-.5l.2.1c.9.1 1.5.6 1.5 1zM202.2 41.6c.1-.3-.5-.6-1.3-.6h-1.4c-.8 0-.8.2-.1.4l1.2.3c.8.3 1.5.2 1.6-.1zM195.9 36.2c-.2-.5-.4-.3-.4.5v.4c0 .8.2 1.2.4.7s.3-1.1 0-1.6zM218.3 43.1c.1-.4-.4-.6-1.2-.6l-3.3.3c-.8.1-.8.2 0 .3l2.8.4c.8.2 1.6 0 1.7-.4zM215.2 36.4c-.1-.4-.3-.4-.4-.1-.1.3-.1 1.2.1 1.9s.3.7.4.1c.1-.6 0-1.5-.1-1.9zM259.9 22.9c-.3-.1-.3-.8 0-1.6l.1-.2c.3-.8.6-.7.5.1v.3c0 1-.3 1.5-.6 1.4zM238.7 42.3c.3-.4 1.2-.6 2-.5l4.6.7c.8.1.8.2 0 .3l-5.7.2c-.8-.1-1.2-.4-.9-.7zM280.1 42.3c.4-.5 1.4-.8 2.2-.7l4.3.8c.8.2.8.3 0 .4l-5.6.3c-.9.1-1.3-.3-.9-.8zM281.8 27.1c-.2-.6.4-1 1.2-.9l3.9.6c.8.1.8.3 0 .5l-3.2.6c-1 .2-1.8-.2-1.9-.8z" fill="#020303"/>
      <path d="M277.5 9.6c-.3-.2-.5-1.1-.6-1.9v-.4c0-.8.1-.8.3 0l.4 1.4c.3.7.2 1.1-.1.9z" opacity=".5" fill="#020303"/>
      <path d="M237.4 30.7l-2.4-1c-.8-.3-.7-.5.1-.4l2.5.2" fill="#020303"/>
      <path d="M150.7 38c.2-.5.2-1.3 0-1.7-.2-.5-1-.8-1.8-.8h-1.2c-.8 0-1.8.4-2.1.9-.3.5.1 1.1.9 1.4l2.4.7c.9.2 1.7 0 1.8-.5z" opacity=".5" fill="#020303"/>
      <path d="M149.2 36.7c-.6-.6-.5-1.1.1-1.1s1.4.3 1.7.7c.3.4.2 1.3-.2 2l-.3.5c-.4.7-.7.8-.5.2.2-.6-.2-1.6-.8-2.3zM92.1 8.4c.1-.5.8-.7 1.6-.5l.6.1c.8.2.8.5 0 .7l-.9.2c-.8.2-1.4 0-1.3-.5zM51.3 15.2c-.2.3-1 .4-1.8.2l-.8-.2c-.8-.2-.8-.4 0-.4l1.3-.1c.9 0 1.5.2 1.3.5zM18.4 29.2c.1-.4-.4-.6-1.2-.5l-1.6.3c-.8.2-.8.4 0 .5l1.1.2c.8.1 1.6-.1 1.7-.5z" fill="#020303"/>
      <path d="M20.9 42.5c-.3-.3-.3-1.2-.1-2l.4-1.4c.2-.8.4-.8.4.1l-.1 2.4c0 .8-.3 1.2-.6.9zM52.5 46.7c-.3-.2-.3-.9 0-1.7.3-.8.5-.7.5.1v.4c0 .8-.2 1.3-.5 1.2zM80.9 27.7c0-.6.2-.4.5.4l.3.7c.3.8.3 1.1-.1.6-.4-.5-.6-1.2-.7-1.7zM239.1 42.8c.3-.2.4-1.1.2-1.9l-.4-1.5c-.2-.8-.4-.8-.4.1l.1 2.3c-.1.7.2 1.2.5 1zM280.7 42.5c.5-.2.5-1.1.2-1.8l-1.8-3.8c-.3-.7-.5-.7-.4.1l.8 4.5c.3.8.8 1.3 1.2 1zM282.5 27c-.2-.3-.6 0-1 .7l-1.8 3.7c-.4.7-.3.8.2.1l2-2.8c.5-.5.8-1.3.6-1.7z" fill="#29282A"/>
      <path d="M255.4 9.8l.1-2.2c0-.8.2-.8.4 0l.6 2.5" fill="#020303"/>
      <path d="M14.9 43.4c-.8-.2-.8-.4.1-.3h.2c.8.1 2.1.2 2.8.3.7.1.6.2-.1.3-.9.1-2.2-.1-3-.3zM54.8 38.8c-.6-.6-.7-.5-.2.2l.8 1.1c.5.7 1.3 1.5 1.8 1.8.5.3.5.1-.1-.6s-1.4-1.6-2-2.2l-.3-.3zM71.2 37.1c-.2 0-.1.6.3 1.3.3.7.5.7.4 0-.2-.7-.5-1.3-.7-1.3zM94.4 45.2c-.7-.1-.6-.2.2-.4l1.2-.2c.8-.1 1.1 0 .7.2-.5.3-1.4.5-2.1.4zM110.6 38.5c-.3-.5-.4-.2-.3.6.2.8.6 2 1 2.7.4.7.5.6.4-.2l-.2-.9c-.2-.8-.6-1.8-.9-2.2zM164.2 39.9c-.1-.5-.4-.4-.6.2-.2.6-.4 1.8-.4 2.6s.2.9.5.1l.2-.6c.3-.8.4-1.8.3-2.3zM146.4 36.4c-.2-.5-.6-.4-.9.2-.3.6 0 1.5.8 1.8l.3.1c.7.4 1.1.2.8-.3-.4-.4-.8-1.3-1-1.8zM176.4 45.5c-.8-.2-.8-.4 0-.4h.5c.8 0 2.1.2 2.9.5h.1c.8.3.7.4-.1.4h-.5c-.8-.1-2.1-.3-2.9-.5zM196.6 38.5c-.1-.3-.3 0-.6.6s-.2.9.1.6c.4-.4.6-.9.5-1.2zM216.1 37.8c-.1-.3-.3 0-.6.6-.2.7-.2.9.1.6.4-.4.6-.9.5-1.2zM212.9 43.6c-.8-.2-.8-.3 0-.4l.9-.1c.8-.1 1.9.1 2.3.4.4.3.3.5-.3.5s-1.8-.1-2.6-.3l-.3-.1zM241.6 43.6c-.8.1-.8-.1 0-.3.8-.2 2.1-.4 2.9-.3l1.4.1c.8.1.8.2 0 .2l-1.4.1c-.8 0-2.1.1-2.9.2z" fill="#5B5558"/>
      <path d="M260.1 23.2c-.4.2-1 .9-1.3 1.7l-.1.3c-.3.8-.2.8.3.2l1-1.3c.5-.7.5-1.1.1-.9z" fill="#29282A"/>
      <path d="M291.5 9.4c-.4 0-.8-.7-.8-1.5l-.2-.9c-.1-.8.1-.9.5-.1l.5 1.2c.4.7.4 1.3 0 1.3zM172.2 13c0-.5.6-.8 1.4-.8h.8c.8 0 .9.3.1.6l-.9.4c-.7.3-1.4.2-1.4-.2zM127.8 14.6c-.3-.2-.5.4-.4 1.2l.1.9c.1.8.3.8.5 0l.1-.4c.2-.7.1-1.5-.3-1.7zM88.1 26.9c-.1-.3.5-.6 1.3-.6h3.7c.8 0 .8.1 0 .3l-3.4.7c-.7.1-1.5 0-1.6-.4zM17.7 33.9c.1-.3-.6-.5-1.4-.5h-1.1c-.8 0-.8.2 0 .4l1 .2c.7.2 1.4.1 1.5-.1z" fill="#020303"/>
      <path d="M5 36.7c-.8 0-1.4.2-1.2.3.2.1 1 .3 1.8.3h6.9c.8 0 1.6-.2 1.8-.4.2-.2-.4-.4-1.2-.4l-8.1.2zM34.9 36.7c-.8 0-1.4.2-1.2.3.2.1 1 .3 1.8.3h6.8c.8 0 1.6-.2 1.8-.4.2-.2-.4-.4-1.2-.4l-8 .2zM51.7 36.6c-.8 0-1.4.2-1.4.4.1.2.8.3 1.6.3h.4c.8 0 1.5-.2 1.6-.4.1-.2-.6-.4-1.4-.3h-.8zM21.7 21.9c-.8 0-1.4.2-1.4.4s.8.3 1.6.3h.4c.8 0 1.5-.2 1.6-.4.1-.2-.6-.4-1.4-.3h-.8zM34.1 21.9c-.8 0-1.4.2-1.4.4s.8.3 1.6.3h.4c.8 0 1.5-.2 1.6-.4.1-.2-.6-.4-1.4-.3h-.8zM9.3 23.9c-.8 0-1.5.2-1.4.4.1.2.8.3 1.6.3s1.5-.2 1.6-.4c.1-.2-.6-.4-1.4-.3h-.4zM24.2 29c-.8 0-1.4.2-1.3.3.1.2.9.3 1.7.3h3.2c.8 0 1.6-.2 1.7-.4.1-.2-.5-.4-1.3-.4l-4 .2zM17.4 7.4c-.8 0-1.4.2-1.3.3.1.2.8.3 1.7.3H21c.8 0 1.6-.2 1.7-.4.1-.2-.5-.4-1.3-.4l-4 .2zM69 36.6c-.8 0-1.4.2-1.4.4s.8.3 1.6.3h.4c.8 0 1.5-.2 1.6-.4.1-.2-.6-.4-1.4-.3H69zM98.4 36.6c-.8 0-1.5.2-1.4.4.1.2.8.3 1.6.3s1.5-.2 1.6-.4c.1-.2-.6-.4-1.4-.3h-.4zM74.5 36.6c-.8 0-1.4.2-1.3.3.1.1.8.3 1.7.3h2.5c.8 0 1.6-.2 1.7-.4.1-.2-.5-.4-1.3-.3l-3.3.1zM90.1 36.6c-.8 0-1.4.2-1.3.3.1.2.9.3 1.7.3h3c.8 0 1.6-.2 1.7-.4.1-.2-.5-.4-1.3-.4l-3.8.2zM107.3 36.6c-.8 0-1.4.2-1.4.4.1.2.8.3 1.6.3h1.5c.8 0 1.6-.2 1.6-.4.1-.2-.5-.4-1.4-.3h-1.9zM141.5 36.6c-.8 0-1.4.2-1.4.4s.8.3 1.6.3h1.5c.8 0 1.6-.2 1.6-.4s-.5-.4-1.4-.3h-1.9zM165.8 36.6c-.8 0-1.4.2-1.4.4.1.2.8.3 1.6.3h1c.8 0 1.6-.2 1.6-.4.1-.2-.5-.4-1.4-.3h-1.4zM177.9 36.7c-.8 0-1.4.2-1.2.3.2.1.9.3 1.8.3h5.5c.8 0 1.6-.2 1.8-.4.2-.2-.4-.4-1.2-.4l-6.7.2zM192.9 36.6c-.8 0-1.4.2-1.4.4.1.2.8.3 1.6.3h.5c.8 0 1.5-.2 1.6-.4.1-.2-.6-.4-1.4-.3h-.9zM198.3 36.6c-.8 0-1.4.2-1.3.3.1.2.9.3 1.7.3h2.5c.8 0 1.6-.2 1.7-.4.1-.2-.5-.4-1.3-.3l-3.3.1zM210.2 36.6c-.8 0-1.4.2-1.3.4.1.2.8.3 1.6.3h1.7c.8 0 1.6-.2 1.6-.4s-.5-.4-1.3-.3h-2.3zM217.3 36.6c-.8 0-1.4.2-1.4.4s.8.3 1.6.3h.8c.8 0 1.6-.2 1.6-.4.1-.2-.6-.4-1.4-.3h-1.2zM227.3 36.7c-.8 0-1.3.2-1.2.3.1.1 1 .3 1.8.3h7.6c.8 0 1.6-.2 1.8-.4.2-.2-.3-.4-1.2-.4l-8.8.2zM244.4 36.7c-.8 0-1.3.2-1.2.3.2.2 1 .3 1.8.3h7.6c.8 0 1.6-.2 1.8-.4.2-.2-.3-.4-1.2-.4l-8.8.2zM287.5 36.7c-.8 0-1.3.2-1.2.3.2.2 1 .3 1.8.3h7.6c.8 0 1.6-.2 1.8-.4.2-.2-.3-.4-1.2-.4l-8.8.2zM271.6 8c-.8 0-1.4.2-1.3.3.1.2.9.3 1.7.3h2.9c.8 0 1.6-.2 1.7-.4.1-.2-.5-.4-1.3-.4l-3.7.2zM258.2 8c-.8 0-1.4.2-1.3.3.1.1.9.3 1.7.3h3.8c.8 0 1.6-.2 1.7-.4.1-.2-.5-.4-1.3-.4l-4.6.2zM251.4 8c-.8 0-1.4.2-1.3.4.1.2.8.3 1.6.3h1.8c.8 0 1.6-.2 1.7-.4.1-.2-.5-.4-1.3-.3h-2.5zM253.7 21.9c-.8 0-1.4.2-1.3.3.1.2.9.3 1.7.3h3.1c.8 0 1.6-.2 1.7-.4.1-.2-.5-.4-1.3-.4l-3.9.2zM212.1 7c-.8 0-1.4.2-1.3.4.1.2.8.3 1.7.3h1.8c.8 0 1.6-.2 1.6-.4.1-.2-.5-.4-1.3-.3h-2.5zM221.8 7c-.8 0-1.4.2-1.3.4.1.2.8.3 1.6.3h1.8c.8 0 1.6-.2 1.6-.4s-.5-.4-1.3-.3h-2.4zM215.7 13.1c-.7 0-1.3.2-1.2.4.1.2.6.3 1.2.3s1.2-.2 1.2-.4c.1-.2-.5-.3-1.2-.3zM219 11.1c-.8 0-1.5.2-1.4.4.1.2.7.3 1.5.3s1.5-.2 1.5-.4c.1-.2-.6-.4-1.4-.3h-.2zM176 11.5c-.8 0-1.5.2-1.4.4.1.2.7.3 1.5.3s1.5-.2 1.5-.4c.1-.2-.6-.4-1.4-.3h-.2zM186.8 21.6c-.8 0-1.4.2-1.4.4s.8.3 1.6.3h.5c.8 0 1.5-.2 1.6-.4.1-.2-.6-.4-1.4-.3h-.9zM179.2 25.2c-.8 0-1.4.2-1.3.3.1.2.8.3 1.7.3h2.5c.8 0 1.6-.2 1.7-.4.1-.2-.5-.4-1.3-.3l-3.3.1zM286.4 25.9c-.8 0-1.4.2-1.3.3.1.1.8.3 1.7.3h2.5c.8 0 1.6-.2 1.7-.4.1-.2-.5-.4-1.3-.3l-3.3.1zM108.2 28.8c-.8 0-1.4.2-1.4.4s.8.3 1.6.3h1.1c.8 0 1.6-.2 1.6-.4s-.5-.4-1.4-.3h-1.5zM93 25.7c-.8 0-1.4.2-1.4.4.1.2.8.3 1.6.3h1.1c.8 0 1.6-.2 1.6-.4.1-.2-.5-.4-1.4-.3H93zM71.4 25.5c-.8 0-1.4.2-1.4.4.1.2.8.3 1.6.3h1.1c.8 0 1.6-.2 1.6-.4.1-.2-.5-.4-1.4-.3h-1.5zM38.8 13.9c-.8 0-1.4.2-1.3.3.1.2.9.3 1.7.3h2.6c.8 0 1.6-.2 1.7-.4.1-.2-.5-.4-1.3-.4l-3.4.2zM100.1 8.4c-.8-.1-1.4 0-1.4.2s.8.4 1.6.5l1.1.2c.8.1 1.6 0 1.7-.2.1-.2-.5-.4-1.3-.5l-1.7-.2zM193 27.5c-.8 0-1.4.2-1.4.4.1.2.8.3 1.6.3h1.1c.8 0 1.6-.2 1.6-.4.1-.2-.5-.4-1.4-.3H193zM220.2 24.9c-.8 0-1.4.2-1.4.4.1.2.8.3 1.6.3h1.1c.8 0 1.6-.2 1.6-.4.1-.2-.5-.4-1.4-.3h-1.5zM154.7 7.7c-.8 0-1.3.2-1.1.3.2.2 1.1.3 1.9.3h9.8c.8 0 1.7-.2 1.9-.4.2-.2-.3-.4-1.1-.4l-11.4.2zM122.3 7.8c-.8 0-1.3.2-1.1.3.2.1 1.1.3 1.9.3h10.3c.8 0 1.7-.2 1.9-.4.2-.2-.2-.4-1.1-.4l-11.9.2zM120.6 21.6c-.8 0-1.4.2-1.3.3.1.2.9.3 1.7.3h4.2c.8 0 1.6-.2 1.7-.4.1-.2-.4-.4-1.3-.4l-5 .2zM129.3 21.6c-.8 0-1.4.2-1.3.3.1.2.9.3 1.7.3h3.8c.8 0 1.6-.2 1.7-.4.1-.2-.5-.4-1.3-.4l-4.6.2zM147.9 34.8c-.8 0-1.4.2-1.4.4.1.2.8.3 1.6.3h.3c.8 0 1.5-.2 1.6-.4.1-.2-.6-.4-1.4-.3h-.7zM145.4 12.6c-.8-.1-1.4 0-1.4.2.1.2.8.4 1.6.5l1.9.3c.8.1 1.6 0 1.7-.1.1-.2-.5-.4-1.3-.5l-2.5-.4zM226.8 27.6c-.8-.1-1.4 0-1.4.2.1.2.8.4 1.6.5l1.9.3c.8.1 1.6 0 1.7-.1.1-.2-.5-.4-1.3-.5l-2.5-.4zM223.9 13.1c-.7 0-1.2.2-1.1.4 0 .2.6.3 1.1.3.5 0 1.1-.2 1.1-.4s-.4-.3-1.1-.3zM262.3 21.9c-.8 0-1.4.2-1.3.3.1.1.9.3 1.7.3h3.8c.8 0 1.6-.2 1.7-.4.1-.2-.5-.4-1.3-.4l-4.6.2zM293.5 8c-.8 0-1.4.2-1.3.3.1.1.8.3 1.7.3h1.9c.8 0 1.6-.2 1.7-.4.1-.2-.5-.4-1.3-.3l-2.7.1zM153.4 36.7c-.8 0-1.4.2-1.2.3.2.1 1 .3 1.8.3h6.3c.8 0 1.6-.2 1.8-.4.2-.2-.4-.4-1.2-.4l-7.5.2zM113.6 36.7c-.8 0-1.3.2-1.1.3.2.1 1.1.3 1.9.3h9.3c.8 0 1.7-.2 1.9-.4.2-.2-.3-.4-1.1-.4l-10.9.2zM128.4 36.6c-.8 0-1.4.2-1.3.3.1.1.9.3 1.7.3h3.7c.8 0 1.6-.2 1.7-.4.1-.2-.5-.4-1.3-.4l-4.5.2zM58.1 36.7c-.8 0-1.4.2-1.3.4.1.2.8.3 1.6.3h1.7c.8 0 1.6-.2 1.6-.4s-.5-.4-1.3-.3h-2.3z" fill="#DFDAD5"/>
    </g>
    <g>
      <path fill="#020303" d="M242 63.2l-2-9.8h-.1l.1-.1-1.9-9.3-21.7-.2-6.4 4.9-.7-4.9h-10.7l-3 3.1-1.2-.1-.3-3.1h-11.2l-7.5 11 .1 1.7h-10l-.4-12.8-12.5-.1-1.2 10-.2-6.8-3.7-.1-.3-3.1-20.3-.1-.2 3.1h-3.9v.7l-2.2-3.8-27-.1-.7 5.4-6.6-5.5-22.3-.1-4.8 23 18.1 7.3 9.2.1.3-2 3.9 2h9.4l.2-1.5 2.3 1.5h23.2l.1-2 1.4 2 10.6.1.2-5.6h.5l1.3 5.6H175l1.5-1.8.2 1.9h9.8l3.2-2.5.2 2.5h9.5l2.3-1.3.2 1.3h18.9l18-7.1-.4-1.8z"/>
      <g fill="#29282A">
        <path d="M96.5 46.1l-1.2 8.6L85 46.1 66.7 46l-3.8 18.4 15.2 6.2h5.6l.5-3.7 7.4 3.7h5.6l.4-3.8 6.1 3.8h19l.3-4.6-5-6.4h5.4l.3-4.4-5.1-9zM144.5 49.5l-.3-3.2H130l-.2 3.1h-3.9l-.9 15.2 4.2 6.1h5.5l.2-5.6h6.4l1.3 5.6h5.5l.1-12.8-.2-8.4zM238.4 61.6l-1.1-5.4-3.9-.1-.5-2.3 3.5-1.9-1.1-5.1-17.7-.1-10.1 7.7-1.1-7.8h-6.3l-3 3.1h-.5l-1.2 1.2-.1-1.2h-3.9l-.3-3.1-6.3-.1-6.1 8.9 1 15.4h5.5l7.2-5.6.5 5.6h5.5l6-3.4.4 3.4h15.3l15-5.9-.3-1.8zM162.3 59.1l-.4-12.7h-6.4l-1.1 8.9.1 15.4h18.8l5.2-6-.4-5.5z"/>
      </g>
      <path fill="#020303" d="M122.7 70.6l-5.6-6-18.3-5.1 1.6-11.3 18.2-2 5.8 8.3z"/>
      <path fill="#020303" d="M97.2 70.6l-11.1-6.1-5.6-9.3-10.6-2.5 4.6-7.8 12.1.3L100 55.7l-6 8.8 3.6 2.3zM83.7 70.6l-14-6.1 1.3-6.8 8.8 3.8-.5 3 4.9 2.4M134.7 70.7l-3-6s-2.5-2.8-2.2-3.1c.3-.3 1.8-4.9 2.2-4.9.4 0 .1 1.1.4 1.4.3.3 2.9 7.1 2.9 7.1l-.3 5.5zM154.5 70.7l1.2-6 1.2-10.4-1.2-9h-1.9L152 59.4zM179.7 70.8l6.6-6 1.7-4.9-2.4-13.9h-2.7l-5.4 9.3 1 14.9zM192.9 70.8l9.3-6 .6-8.3-1.1-3.2-.9-7.3-2.4.1-2.8 2.7s-6 2-6.2 2.3c-.2.4 3.5 13.7 3.5 13.7l-1.5 2.4 1.5 3.6zM204.8 70.8l11.8-5.9 14.9-3.4 2-1.8-1.9-4.2-12.4-1.8.6-5.8-1.2-2.6-11.3 7.9 1.6 11.6-4.5 2.6zM131 50c-.2.3 0 4.2 0 4.2h12.1l-.4-3.6L131 50z"/>
      <path d="M231.1 56.6s6.1-4.5 6.2-4.5c.1 0-2.4-2.8-2.4-2.8l-15.6 1.3.5 4.1 11.3 1.9z" fill="#020303"/>
      <path d="M25.6 8.5h-4l-.2 1.1h4L24 18.5h-6.8l1.1-6.7H8.8l-1.3 6.7H.7L4.5 0H23l-.5 3.1h3.9l-.8 5.4zm-6.3-2.1l.2-1.1h-9.3l-.2 1 9.3.1z" fill="url(#RealmsLogoJ)" transform="translate(62 46)"/>
      <path fill="url(#RealmsLogoK)" d="M56.6.2l-.4 5.2H40.4l-.2 1 8 .1-.6 5.4-8-.1-.1 1.2h16l-.4 5.6-23.1-.1L34.5.1z" transform="translate(62 46)"/>
      <path d="M82.1 3.4H86l-.1 15.2h-6.7l.2-6.7h-9.3l-.3 6.7h-6.7L64 3.4h3.9l.2-3.1 14.2.1-.2 3zm-2.6 3.2V5.5h-9.2v1.1h9.2z" fill="url(#RealmsLogoL)" transform="translate(62 46)"/>
      <path fill="url(#RealmsLogoM)" d="M173.3.8l1.1 5.1H159l.2 1 11.6.1.6 3.2h3.9l1.1 5.4h-3.9l.6 3.3h-18.5l-.8-5.5h15.7l-.3-1.1h-11.7L157 9h-3.9l-.8-5.2h3.8l-.5-3.1z" transform="translate(62 46)"/>
      <path fill="url(#RealmsLogoN)" d="M144.4.6l2.5 18.2h-6.6L139.1 9h-1.3l.3 3.2h-6.5l-.3-3.3h-1.4l1 9.9h-6.6L122.8.5l6.3.1.3 3.1h3.9l.3 3.1h1.3l-.3-3.1h3.8l-.3-3.1z" transform="translate(62 46)"/>
      <path fill="url(#RealmsLogoO)" d="M99.9.4l.4 12.8h15.8l.4 5.6-22.8-.1L93.5.4z" transform="translate(62 46)"/>
    </g>
  </g>
</svg>
