<svg xmlns="http://www.w3.org/2000/svg" viewBox="0 0 272.5381 79.2998">
  <defs>
    <linearGradient id="StorymodeLogoA" x1="254.6694" y1="53.155" x2="254.6694" y2="17.111" gradientUnits="userSpaceOnUse">
      <stop offset="0" stop-color="#866e2b"/>
      <stop offset="0.108" stop-color="#735b25"/>
      <stop offset="0.264" stop-color="#5f471e"/>
      <stop offset="0.441" stop-color="#50391a"/>
      <stop offset="0.654" stop-color="#483117"/>
      <stop offset="1" stop-color="#452e16"/>
    </linearGradient>
    <linearGradient id="StorymodeLogoB" x1="247.1694" y1="53.155" x2="247.1694" y2="78.112" gradientUnits="userSpaceOnUse">
      <stop offset="0" stop-color="#ffd475"/>
      <stop offset="1" stop-color="#865c29"/>
    </linearGradient>
    <linearGradient id="StorymodeLogoC" x1="29" y1="-32" x2="29" y2="-64.148" gradientTransform="translate(0 66)" gradientUnits="userSpaceOnUse">
      <stop offset="0" stop-color="#d9cdca"/>
      <stop offset="1" stop-color="#a89f9c"/>
    </linearGradient>
  </defs>
  <title>storymode</title>
  <g>
    <g id="Base">
      <polygon points="272.538 53.569 261.746 15.9 237.498 15.9 233.876 21.466 232.675 15.9 211.552 15.9 210.488 18.161 210.088 15.9 185.607 15.9 184.592 19.006 184.212 15.9 172.578 15.9 170.777 23.2 167.77 23.2 166.27 29.8 163.947 29.8 163.646 23.2 162.043 23.2 161.643 15.9 149.815 15.9 146.77 47.713 147.582 79.3 157.971 79.3 159.555 72.133 159.69 75.2 166.701 75.2 166.892 79.3 177.097 79.3 177.853 77.572 178.015 79.3 198.93 79.3 199.941 77.848 200.13 79.3 218.192 79.3 219.992 77.3 221.859 77.3 222.259 79.3 242.956 79.3 248.521 74.483 247.691 70.7 252.858 70.7 259.326 64.976 258.203 60.3 264.756 60.3 272.538 53.569"/>
      <polygon points="127.08 15.9 126.862 26.008 126.135 15.9 114.089 15.9 113.871 21.215 112.994 15.9 88.318 15.9 88.012 18.9 87.032 15.9 62.55 15.9 62.151 18.161 61.087 15.9 36.771 15.9 36.336 17.785 35.032 15.9 10.894 15.9 0 53.569 19.783 70.7 24.948 70.7 24.117 74.483 29.683 79.3 50.387 79.3 51.573 72.731 57.137 79.3 67.002 79.3 68.177 71.163 73.602 79.3 94.625 79.3 94.787 77.572 95.542 79.3 105.747 79.3 105.842 77.259 106.506 79.3 116.748 79.3 117.248 68.3 121.333 68.3 122.833 79.3 133.369 79.3 133.369 68.3 138.963 68.3 139.169 53.099 139.068 15.9 127.08 15.9"/>
    </g>
    <g id="Top">
      <path d="M164.7,59.6l-1.8-34.7h3L168,59.6Zm9.9,0-2.5-34.7h3l2.8,34.7Z" transform="translate(-3.4307 -0.5)" fill="#332113"/>
      <polygon points="260.869 17.1 238.169 17.1 246.669 53.2 271.169 53.2 260.869 17.1" fill="url(#StorymodeLogoA)"/>
      <polygon points="128.169 17.1 127.569 53.2 138.069 53.2 137.869 17.1 128.169 17.1" fill="url(#StorymodeLogoA)"/>
      <polygon points="11.769 17.1 1.369 53.2 25.969 53.2 34.369 17.1 11.769 17.1" fill="url(#StorymodeLogoA)"/>
      <polygon points="37.669 17.1 29.469 53.2 53.969 53.2 60.269 17.1 37.669 17.1" fill="url(#StorymodeLogoA)"/>
      <polygon points="63.569 17.1 57.469 53.2 81.969 53.2 86.169 17.1 63.569 17.1" fill="url(#StorymodeLogoA)"/>
      <polygon points="85.469 53.2 110.069 53.2 112.069 17.1 89.369 17.1 85.469 53.2" fill="url(#StorymodeLogoA)"/>
      <polygon points="150.869 17.1 152.069 53.2 162.569 53.2 160.569 17.1 150.869 17.1" fill="url(#StorymodeLogoA)"/>
      <polygon points="173.469 17.1 176.569 53.2 187.069 53.2 183.169 17.1 173.469 17.1" fill="url(#StorymodeLogoA)"/>
      <polygon points="186.469 17.1 190.569 53.2 215.169 53.2 209.069 17.1 186.469 17.1" fill="url(#StorymodeLogoA)"/>
      <polygon points="212.269 17.1 218.669 53.2 239.669 53.2 231.669 17.1 212.269 17.1" fill="url(#StorymodeLogoA)"/>
      <polygon points="113.569 53.2 124.069 53.2 124.969 17.1 115.269 17.1 113.569 53.2" fill="url(#StorymodeLogoA)"/>
    </g>
    <g id="Front">
      <polygon points="264.369 59.1 271.169 53.2 246.669 53.2 223.169 78.1 242.469 78.1 247.269 74 235.669 74 240.269 69.5 252.369 69.5 258.069 64.6 245.369 64.6 250.969 59.1 264.369 59.1" fill="url(#StorymodeLogoB)"/>
      <path d="M240.4,56.8l2.7-3.1h-21l-17.5,25h16.5l1.8-2h2.8l18.1-19.9ZM219,74.5h-2.8l11.7-14.8h3.3Z" transform="translate(-3.4307 -0.5)" fill="url(#StorymodeLogoB)"/>
      <path d="M194.1,53.6l-11.6,25h19.3l16.8-25Zm1.8,20.9H193l8.2-14.9v.1h3.4Z" transform="translate(-3.4307 -0.5)" fill="url(#StorymodeLogoB)"/>
      <polygon points="176.569 53.2 174.469 59.1 171.169 59.1 169.569 64.6 163.169 64.6 164.569 59.1 161.269 59.1 162.569 53.2 152.069 53.2 148.769 78.1 156.969 78.1 158.969 69.5 161.869 69.5 160.769 74 166.569 74 167.969 69.5 170.969 69.5 168.069 78.1 176.269 78.1 187.069 53.2 176.569 53.2" fill="url(#StorymodeLogoB)"/>
      <polygon points="128.369 64.6 125.169 64.6 124.069 53.2 113.569 53.2 116.269 67.1 122.369 67.1 123.869 78.1 132.169 78.1 131.669 67.1 137.869 67.1 138.069 53.2 127.569 53.2 128.369 64.6" fill="url(#StorymodeLogoB)"/>
      <path d="M113.4,67.6l-.6-2.5H116l-2.6-11.5H88.9l10.8,25h8.2L105,70h3l2.6,8.6h8.3l-2.4-11Zm-10-2.6-1.9-5.4h3.4l1.7,5.4Z" transform="translate(-3.4307 -0.5)" fill="url(#StorymodeLogoB)"/>
      <path d="M60.9,53.6l16.8,25H97l-11.6-25ZM83.6,74.4,74.9,59.6h3.4l8.2,14.8Z" transform="translate(-3.4307 -0.5)" fill="url(#StorymodeLogoB)"/>
      <polygon points="58.169 59.1 53.969 53.2 29.469 53.2 34.869 59.1 41.569 59.1 57.669 78.1 65.969 78.1 51.569 59.1 58.169 59.1" fill="url(#StorymodeLogoB)"/>
      <polygon points="24.069 64.6 18.269 59.1 31.569 59.1 25.969 53.2 1.369 53.2 20.269 69.5 32.269 69.5 36.869 74 25.369 74 30.069 78.1 49.369 78.1 36.669 64.6 24.069 64.6" fill="url(#StorymodeLogoB)"/>
    </g>
    <g id="Cracks">
      <path d="M131.5,77.3l-.5,2.1h1.3l-.5-2.1Q131.65,76.7,131.5,77.3Z" transform="translate(-3.4307 -0.5)" fill="#030303"/>
      <path d="M152.1,73.5l1,1.9c.2.3.2.3.2-.1l-.6-4.8Z" transform="translate(-3.4307 -0.5)" fill="#030303"/>
      <path d="M63.3,77.6l1.2,1.8h2.3l-3.3-2C63.2,77.2,63.1,77.3,63.3,77.6Z" transform="translate(-3.4307 -0.5)" fill="#030303"/>
      <path d="M57.8,56.8c-.4,0-.4.1,0,.2l2.9.4-.6-1Z" transform="translate(-3.4307 -0.5)" fill="#030303"/>
      <path d="M236.5,77.6,235,79.4h1.5l.3-1.7C236.9,77.4,236.7,77.3,236.5,77.6Z" transform="translate(-3.4307 -0.5)" fill="#030303"/>
      <path d="M245.8,62.2l7.6,1.1.5-1.5-8.1.3C245.4,62.1,245.4,62.1,245.8,62.2Z" transform="translate(-3.4307 -0.5)" fill="#030303"/>
      <path d="M267.5,52.8l-.7-1.2c-.2-.3-.4-.3-.4.1v1.7L265.1,56l2.3-2.1A.7715.7715,0,0,0,267.5,52.8Z" transform="translate(-3.4307 -0.5)" fill="#030303"/>
      <path d="M65.4,62.1l.9,1.1,5.8-.6c.4,0,.4-.1,0-.1Z" transform="translate(-3.4307 -0.5)" fill="#030303"/>
      <path d="M46.3,75.4c-.4.1-.4.2,0,.2l4.3.1-1.1-1.2Z" transform="translate(-3.4307 -0.5)" fill="#030303"/>
      <path d="M80.9,50.8l-.6,1.9a1.934,1.934,0,0,0,0,1.3l.7,1.8.2-2.5-.1-2.5C81.1,50.5,81,50.4,80.9,50.8Z" transform="translate(-3.4307 -0.5)" fill="#030303"/>
      <path d="M13.6,50.5c0-.3-.1-.4-.2,0l-1,2.7a1.0676,1.0676,0,0,0,.3,1.1L15,56.4l-1.6-2.7Z" transform="translate(-3.4307 -0.5)" fill="#030303"/>
      <path d="M19,67.1l1.1.9,2.3-1.1c.4-.2.4-.2,0-.2Z" transform="translate(-3.4307 -0.5)" fill="#030303"/>
      <path d="M206.9,74.2l-.8,1.5,5.8-.7c.4-.1.4-.2,0-.2Z" transform="translate(-3.4307 -0.5)" fill="#030303"/>
      <path d="M185.2,51.4v4.2l.8-1.8-.6-2.4C185.3,51,185.2,51,185.2,51.4Z" transform="translate(-3.4307 -0.5)" fill="#030303"/>
      <path d="M103,74.5c-.4,0-.4.1,0,.2l4.8,1-.3-1.7Z" transform="translate(-3.4307 -0.5)" fill="#030303"/>
      <path d="M163.7,62.6c-.4,0-.4.1,0,.2l5.8,1.1L168,62.1Z" transform="translate(-3.4307 -0.5)" fill="#030303"/>
      <path d="M196.2,64.1l2.9,1,.6-1.2h-3.5C195.8,63.9,195.8,64,196.2,64.1Z" transform="translate(-3.4307 -0.5)" fill="#030303"/>
      <path d="M228.4,51.7c-.1-.4-.3-.3-.3,0v2.8c0,.4.2.4.4.1l.3-.4a1.9013,1.9013,0,0,0,.1-1.3Z" transform="translate(-3.4307 -0.5)" fill="#030303"/>
      <path d="M121.6,51.1l-.3,1.7v1.3l.3,1.5.6-2.1-.4-2.4C121.8,50.7,121.7,50.7,121.6,51.1Z" transform="translate(-3.4307 -0.5)" fill="#030303"/>
      <path d="M137.2,61.3l4.9.8V60.5l-4.9.6C136.8,61.1,136.8,61.2,137.2,61.3Z" transform="translate(-3.4307 -0.5)" fill="#030303"/>
    </g>
    <g id="Highlights">
      <path d="M162.3,62.5c-.4-.1-.4,0,0,.1l1,.6a2.7681,2.7681,0,0,0,1.3.3h.8c.4,0,.4-.1,0-.2Z" transform="translate(-3.4307 -0.5)" fill="#f1b865"/>
      <path d="M106.1,65.1l-2.4.1q-.6,0-.6.3c0,.2.4.3.8.3h2c.4,0,.7-.1.8-.4Q106.7,65.1,106.1,65.1Z" transform="translate(-3.4307 -0.5)" fill="#f1b865"/>
      <path d="M102.1,74.7c-.4-.1-.4,0,0,.1l1.1.6a1.9068,1.9068,0,0,0,1.3.2h.7c.4,0,.4-.1,0-.2Z" transform="translate(-3.4307 -0.5)" fill="#f1b865"/>
      <path d="M131.7,65.1l-2.4.1q-.6,0-.6.3c0,.1.4.3.8.3h2c.4,0,.7-.1.8-.4Q132.3,65.1,131.7,65.1Z" transform="translate(-3.4307 -0.5)" fill="#f1b865"/>
      <path d="M136.3,61.2c-.4-.1-.4,0-.1.2l.6.4a1.8037,1.8037,0,0,0,1.2.3h2.2c.4,0,.4-.1,0-.2Z" transform="translate(-3.4307 -0.5)" fill="#f1b865"/>
      <path d="M23.1,66.6l-.8.6c-.4.2-.3.3.1.3a1.5329,1.5329,0,0,0,1-.7C23.6,66.5,23.4,66.4,23.1,66.6Z" transform="translate(-3.4307 -0.5)" fill="#f1b865"/>
      <path d="M71.9,62.6l-3.1.6c-.4.1-.4.2,0,.2l.2.1a6.882,6.882,0,0,0,1.3-.2l1.6-.6C72.3,62.6,72.3,62.5,71.9,62.6Z" transform="translate(-3.4307 -0.5)" fill="#f1b865"/>
      <path d="M246.4,62.8l.4.2a2.7681,2.7681,0,0,0,1.3.3h1.4c.4,0,.4,0,0-.1l-3-.6C246.1,62.5,246.1,62.6,246.4,62.8Z" transform="translate(-3.4307 -0.5)" fill="#f1b865"/>
      <path d="M165.1,60.3h2c.4,0,.7-.1.8-.4q0-.3-.6-.3l-2.4.1q-.6,0-.6.3C164.3,60.1,164.7,60.3,165.1,60.3Z" transform="translate(-3.4307 -0.5)" fill="#f1b865"/>
      <path d="M39.4,65.1l-11.3.1q-.6,0-.3.3a2.9346,2.9346,0,0,0,1,.3h9.9c.4,0,.9-.1,1-.4C39.9,65.2,39.7,65.1,39.4,65.1Z" transform="translate(-3.4307 -0.5)" fill="#f1b865"/>
      <path d="M48.5,75.8H45.4c-.4,0-.4,0,0,.1l2.8.4a1.5491,1.5491,0,0,0,.8-.2C49.1,76,48.9,75.8,48.5,75.8Z" transform="translate(-3.4307 -0.5)" fill="#f1b865"/>
      <path d="M86.1,74.4l-2.4.1q-.6,0-.6.3c0,.1.4.3.8.3h2c.4,0,.7-.1.8-.4Q86.7,74.4,86.1,74.4Z" transform="translate(-3.4307 -0.5)" fill="#f1b865"/>
      <path d="M218.6,74.6l-2.4.1q-.6,0-.6.3c0,.1.4.3.8.3h2c.4,0,.7-.1.8-.4Q219.2,74.6,218.6,74.6Z" transform="translate(-3.4307 -0.5)" fill="#f1b865"/>
      <path d="M228.8,54.5l-1,1.1c-.3.3-.2.4.2.3a1.3523,1.3523,0,0,0,.9-.9l.1-.4C229.1,54.2,229,54.2,228.8,54.5Z" transform="translate(-3.4307 -0.5)" fill="#f1b865"/>
      <path d="M249.9,74.6l-10.4.1c-.4,0-.5.1-.4.3a2.3679,2.3679,0,0,0,1,.3h9.2a1.16,1.16,0,0,0,1-.4C250.5,74.7,250.3,74.6,249.9,74.6Z" transform="translate(-3.4307 -0.5)" fill="#f1b865"/>
      <path d="M267.1,54.8l-1.8,2c-.3.3-.2.3.1.1l1.1-.8a12.4863,12.4863,0,0,0,.8-1.2C267.4,54.5,267.3,54.5,267.1,54.8Z" transform="translate(-3.4307 -0.5)" fill="#f1b865"/>
      <path d="M260.7,65.1l-11.3.1q-.6,0-.3.3a2.9346,2.9346,0,0,0,1,.3H260c.4,0,.9-.1,1-.4C261.2,65.2,261,65.1,260.7,65.1Z" transform="translate(-3.4307 -0.5)" fill="#f1b865"/>
      <path d="M197.3,64.8l-1.6-.9c-.3-.2-.4-.1-.2.2l.1.2a1.524,1.524,0,0,0,1.1.6l.5.1C197.6,65,197.6,65,197.3,64.8Z" transform="translate(-3.4307 -0.5)" fill="#f1b865"/>
      <path d="M177.7,59.6l-2.4.1q-.6,0-.6.3c0,.1.4.3.8.3h2c.4,0,.7-.1.8-.4Q178.3,59.6,177.7,59.6Z" transform="translate(-3.4307 -0.5)" fill="#f1b865"/>
      <path d="M195.9,74.6l-2.4.1q-.6,0-.6.3c0,.1.4.3.8.3h2c.4,0,.7-.1.8-.4Q196.5,74.6,195.9,74.6Z" transform="translate(-3.4307 -0.5)" fill="#f1b865"/>
      <path d="M185.9,54.6l-.7,1.4c-.2.3-.1.4.2.2l.6-.5a1.11,1.11,0,0,0,.4-1.1C186.3,54.2,186.1,54.2,185.9,54.6Z" transform="translate(-3.4307 -0.5)" fill="#f1b865"/>
      <path d="M172,65.1l-5.2.1c-.4,0-.6.1-.5.3a1.5564,1.5564,0,0,0,.9.3h4.4c.4,0,.8-.1.9-.4C172.6,65.2,172.4,65.1,172,65.1Z" transform="translate(-3.4307 -0.5)" fill="#f1b865"/>
      <path d="M207.4,75.6c-.4,0-.4.1,0,.2l1.8.6a1.9013,1.9013,0,0,0,1.3-.1l1-.6c.3-.2.3-.3-.1-.3Z" transform="translate(-3.4307 -0.5)" fill="#f1b865"/>
      <path d="M63.5,77.6c-.2-.3-.3-.3-.2.1v.2c.1.4.2.7.4.6.1,0,.1-.3-.1-.7Z" transform="translate(-3.4307 -0.5)" fill="#f1b865"/>
      <path id="Highlight5" d="M59.3,57.8c.4,0,.4-.1,0-.2a4.8686,4.8686,0,0,0-1.2-.1c-.4,0-.4.1,0,.2A2.3609,2.3609,0,0,0,59.3,57.8Z" transform="translate(-3.4307 -0.5)" fill="#f1dec3"/>
      <path id="Highlight4" d="M206.4,74.9V72.5c0-.4.1-.4.2,0l.7,2.3m-100,.7.1-2.9c0-.4,0-.4-.1,0l-.5,1.7m-56.3.8.5-3.9c0-.4,0-.4-.1,0l-1.1,3.4" transform="translate(-3.4307 -0.5)" fill="#452e16"/>
      <path id="Highlight3" d="M29.6,74.5c-.4,0-.5.1-.4.3a2.3679,2.3679,0,0,0,1,.3h8.5a1.16,1.16,0,0,0,1-.4c.2-.2,0-.3-.4-.3Z" transform="translate(-3.4307 -0.5)" fill="#9f8134"/>
      <path id="Hightlight2" d="M5.6,53.4c-.4,0-.6.1-.5.3A1.8983,1.8983,0,0,0,6,54h5.2c.4,0,.8-.1.9-.4.1-.2-.1-.3-.5-.3Zm8.6,0c-.4,0-.5.1-.2.3a3.5447,3.5447,0,0,0,1.1.3H27.7a1.3658,1.3658,0,0,0,1.1-.4c.2-.2.1-.3-.2-.3Zm19.2,0q-.6,0,0,.3h.1a7.8943,7.8943,0,0,0,1.3.3H55.3a2.7681,2.7681,0,0,0,1.3-.3l.2-.1c.3-.2.3-.3-.1-.3Zm28,0c-.4,0-.5.1-.1.3a5.274,5.274,0,0,0,1.2.3H78.2a1.7458,1.7458,0,0,0,1.2-.4c.3-.2.2-.3-.1-.3Zm20.4,0c-.4,0-.6.1-.5.3,0,.1.4.3.8.3h2.4c.4,0,.7-.1.8-.4,0-.2-.2-.3-.5-.3Zm7.7,0q-.6,0,0,.3h.1a7.8943,7.8943,0,0,0,1.3.3h20.5a2.7681,2.7681,0,0,0,1.3-.3l.2-.1c.3-.2.3-.3-.1-.3Z" transform="translate(-3.4307 -0.5)" fill="#fff4d9"/>
      <path id="Highlight" d="M194.7,53.4q-.6,0,0,.3h.1a7.8943,7.8943,0,0,0,1.3.3h20.5a2.7681,2.7681,0,0,0,1.3-.3l.2-.1c.3-.2.3-.3-.1-.3Zm56,0c-.4,0-.5.1-.2.3a4.5084,4.5084,0,0,0,1.1.3h13.2a1.3658,1.3658,0,0,0,1.1-.4c.3-.2.2-.3-.2-.3l-15,.1Zm17.5,0c-.4,0-.6.1-.5.3a1.5564,1.5564,0,0,0,.9.3h5c.4,0,.8-.1.9-.4.1-.2-.1-.3-.5-.3Zm-45.6,0c-.4,0-.6.1-.5.3a1.5564,1.5564,0,0,0,.9.3h4.1c.4,0,.8-.1.9-.4.1-.2-.1-.3-.5-.3Zm6.9,0q-.6,0-.3.3a2.9,2.9,0,0,0,1.1.3h11.4a1.3658,1.3658,0,0,0,1.1-.4q.3-.3-.3-.3Zm-48.9,0c-.4,0-.6.1-.5.3a1.49,1.49,0,0,0,.8.3h3.3c.4,0,.7-.1.8-.4.1-.2-.1-.3-.5-.3l-3.9.1Zm6.1,0c-.4,0-.6.1-.5.3a1.49,1.49,0,0,0,.8.3h2.8c.4,0,.7-.1.8-.4.1-.2-.2-.3-.5-.3l-3.4.1Zm-30.5,0c-.4,0-.5.1-.4.3a2.3679,2.3679,0,0,0,1,.3h8a1.16,1.16,0,0,0,1-.4c.2-.2,0-.3-.4-.3l-9.2.1Zm-24.6,0c-.4,0-.5.1-.4.3a2.3679,2.3679,0,0,0,1,.3h8a1.16,1.16,0,0,0,1-.4c.2-.2,0-.3-.4-.3l-9.2.1Zm-8.8,0c-.4,0-.6.1-.5.3a1.49,1.49,0,0,0,.8.3h3.3c.4,0,.7-.1.8-.4.1-.2-.1-.3-.5-.3Zm-5.3,0c-.4,0-.6.1-.5.3,0,.1.4.3.8.3h2.4c.4,0,.7-.1.8-.4,0-.2-.2-.3-.5-.3Z" transform="translate(-3.4307 -0.5)" fill="#fff4d9"/>
    </g>
  </g>
  <g>
    <path d="M170.5,8.1l.4,6.6H175l-.5-6.6Zm38-.6h-4.9l.4,3.7h-3.8l-.5-3.7h-4.8l.5,4.1h4.4l.2,1.5h-2.2l.8,6.2h2.6l-.1-2.1H205l.3,2.1h2.6l-.9-6.2h-2.2l-.2-1.5h4.5Z" transform="translate(-3.4307 -0.5)"/>
    <path d="M16,45,5,34.5,15.6.7H27.5l6.9,9.7.9-3.6h3.6L40.5.7H52.6l1.6,2.8L54.7.7H66.9l1.6,3.2L69.1.7H81.3l2.4,6.1h.2l1.6,3.9L86.9.6H99.2l1.4,5.2.6-5.2H128l1.3,12.3-.3,6.9h-.7l.5,4.9-.2,7.3h-1l.8,5.2-.3,7.8H101.4l-1.6-4.5L99.4,45H87.1l-4.3-9.2L81.5,45H69.4l-1.7-2.8L67.2,45H55.1l-1.7-2.4L52.9,45H40.8l-5.6-6.7H31.8L30,36.4,27.8,45Zm156.5-7L171,45H158.5l-1-32.1L158.6.6h26.9L186,6,187.4.5h26.7l.6,3.5L216.2.5h26.7l.6,2.6L245.1.5h26.6L274,7.8l-5.5,6.7.2.6c.4,1.3.8,2.7,1.2,4,.3,1,.6,1.9.9,2.9l1.1,3.8s.6,2.1.8,2.6c.3.9.5,1.8.8,2.7s.5,1.8.8,2.7l.2.6L264.2,44.9H252l-5.4-22.6-6.8,9.6H235l.5,2.4-7.2,10.6H216.1l-.5-3-1.7,3H201.7l-.5-3.6-1.6,3.6H187.3l-.5-4.7-1.6,4.7H172.8Zm-43.8-3.7L129.8.6h26.9l.3,7.1-.9,12-13.4.1-.2,6.3h15l.2,8.2-1,10.7H129.9Z" transform="translate(-3.4307 -0.5)" fill="#030303"/>
    <path d="M28.5,7.8l-1.8,6.3h7.8l1.7-6.2h3.6l1.5-6.1H51.7L44.4,34H33.2l3.3-13.7h-4L30.8,27H23.5l1.8-6.7h-4L17.3,34H6.3L16.4,1.8H26.6L24.9,7.7Z" transform="translate(-3.4307 -0.5)" fill="url(#StorymodeLogoC)"/>
    <path d="M66,1.9,59.8,34H48.6l7-32.1Z" transform="translate(-3.4307 -0.5)" fill="url(#StorymodeLogoC)"/>
    <path d="M81.1,23.6,82,17l-4.1-.1-2.6,17L64.1,34,70,1.8H80.3l-.9,5.9,3.6.1L82.2,14l3.9.1L87.8,1.8H98.2L94.6,33.9H83.4l1.4-10.2Z" transform="translate(-3.4307 -0.5)" fill="url(#StorymodeLogoC)"/>
    <path d="M125.8,27.3l-.2,6.6H98.9l3.3-32.2h24.7l-.2,5.8H112.1l-.4,6.5h14.7l-.2,6.3H111.1l-.5,7Z" transform="translate(-3.4307 -0.5)" fill="url(#StorymodeLogoC)"/>
    <path d="M271,1.6l1.8,5.7h-7.2v.2c.3,1.3.6,2.5,1,3.8s.7,2.6,1.1,4c.4,1.3.8,2.7,1.2,4.1s.8,2.7,1.2,4.1c.3.8.5,1.7.8,2.6s.5,1.7.8,2.6.5,1.8.8,2.6c.3.9.5,1.8.8,2.6H262L254.9,7.3h-7.2L246,1.7Z" transform="translate(-3.4307 -0.5)" fill="url(#StorymodeLogoC)"/>
    <path d="M245,13.8l1.5,6.4h-15l2.8,13.7H223L217.2,1.7l24.9-.1,1.4,5.8H228.8l1.3,6.4Z" transform="translate(-3.4307 -0.5)" fill="url(#StorymodeLogoC)"/>
    <path d="M201.8,23.5l1.4,10.4H192L188.5,1.7h24.8l5.4,32.2H207.5L206,23.5Zm7.3-12.7-.6-4.1h-4.9l.5,3.8h-3.9l-.5-3.7h-4.8l.5,4.1h4.3l.2,1.5h-2.2l.8,6.3h2.6l-.2-2.1h3.9l.3,2.2h2.7l-1-6.3h-2.2l-.2-1.5,4.7-.2" transform="translate(-3.4307 -0.5)" fill="url(#StorymodeLogoC)"/>
    <path d="M182.3,17.2H186l1.6,16.7H176.4l-1-13.6-4.2-.1.9,13.7H160.9L159.7,1.7h24.8l1.2,12H182ZM175,14l-.5-6.6h-4l.4,6.6H175" transform="translate(-3.4307 -0.5)" fill="url(#StorymodeLogoC)"/>
    <path d="M141.4,7.4h14.4l-.1-5.7H130.9l-1.1,32.2h26.8l-.2-6.6H141.1Z" transform="translate(-3.4307 -0.5)" fill="url(#StorymodeLogoC)"/>
    <path d="M7,34c-.4,0-.5.2-.2.5l9.1,8.9a1.845,1.845,0,0,0,1.2.5h8.6c.4,0,.5-.2.2-.5l-8.1-8.9a1.8232,1.8232,0,0,0-1.1-.5Zm26.9,0c-.4,0-.5.2-.2.5l7.2,8.8a1.4327,1.4327,0,0,0,1.1.5h8.9q.6,0,.3-.6l-6.4-8.8a1.524,1.524,0,0,0-1.1-.6Z" transform="translate(-3.4307 -0.5)" fill="#29282a"/>
    <path d="M24.2,27c-.4,0-.5.2-.2.5l8,9.2a1.6058,1.6058,0,0,0,1.1.5h1c.4,0,.5-.3.3-.6l-1.4-2a1.9068,1.9068,0,0,1-.2-1.3l.5-2a1.6366,1.6366,0,0,0-.2-1.2l-1.9-2.5a1.524,1.524,0,0,0-1.1-.6Zm25.1,7q-.6,0-.3.6l6.3,8.7a1.524,1.524,0,0,0,1.1.6h8.8c.4,0,.5-.3.3-.6l-5.3-8.6a1.5238,1.5238,0,0,0-1-.6H49.3Zm15.5,0c-.4,0-.5.3-.3.6l5.1,8.6a1.5238,1.5238,0,0,0,1,.6h8.7c.4,0,.5-.3.4-.6l-4.1-8.5a1.3261,1.3261,0,0,0-1-.6Zm19.3-.1c-.4,0-.5.3-.4.6l3.9,8.6a1.1744,1.1744,0,0,0,1,.6h8.9a.46.46,0,0,0,.5-.6l-3.1-8.6a.8746.8746,0,0,0-.9-.6Zm15.5,0a.46.46,0,0,0-.5.6l2.9,8.3a.8746.8746,0,0,0,.9.6h23.3c.4,0,.6-.3.6-.7l-1.1-8.3a.7728.7728,0,0,0-.8-.7Zm30.9,0c-.4,0-.6.3-.6.7l.9,8.5a.7728.7728,0,0,0,.8.7h23.2a.8485.8485,0,0,0,.8-.7l1-8.5c0-.4-.2-.7-.6-.7Zm31,0a.8485.8485,0,0,0-.8.7l-1,8.4c0,.4.2.7.6.7h8.8a.7728.7728,0,0,0,.8-.7l2-8.4a.5055.5055,0,0,0-.5-.7Zm15.5,0a.7728.7728,0,0,0-.8.7l-1.9,8.3a.5055.5055,0,0,0,.5.7h8.8a1.0128,1.0128,0,0,0,.9-.6l2.9-8.4c.1-.4-.1-.6-.5-.6Zm15.6,0a1.0128,1.0128,0,0,0-.9.6L188.8,43c-.1.4.1.6.5.6h8.8a1.3261,1.3261,0,0,0,1-.6l3.9-8.6c.1-.3,0-.6-.4-.6l-10,.1Zm15.5,0a1.3261,1.3261,0,0,0-1,.6L203,43.1c-.2.3,0,.6.4.6h9a1.3261,1.3261,0,0,0,1-.6l4.8-8.6a.3668.3668,0,0,0-.3-.6Zm15.6,0a1.3261,1.3261,0,0,0-1,.6l-5.2,8.6a.3668.3668,0,0,0,.3.6h8.9a1.2547,1.2547,0,0,0,1.1-.6l6.1-8.7c.2-.3.1-.6-.3-.6l-9.9.1Zm38.8,0a1.4327,1.4327,0,0,0-1.1.5l-7.5,8.7c-.2.3-.1.5.2.5h8.6a1.845,1.845,0,0,0,1.2-.5l8.8-8.8c.3-.3.2-.5-.2-.5l-10,.1Z" transform="translate(-3.4307 -0.5)" fill="#29282a"/>
    <path d="M14.6,7.2c-.1.2.2.4.5.4h9.2c.4,0,.7-.2.7-.4s-.3-.4-.7-.4h-9C15,6.8,14.6,7,14.6,7.2Zm-.3,15.6c.1-.4-.1-.6-.5-.6H10.4c-.4,0-.7.1-.7.4,0,.2.3.4.7.4h2.5a.46.46,0,0,1,.5.6l-2.2,6.8c-.2.3,0,.6.4.6h7.3c.4,0,.7-.1.7-.4,0-.2-.3-.4-.7-.4H12.6a.46.46,0,0,1-.5-.6l.6-1.9a.8746.8746,0,0,1,.9-.6h6c.4,0,.7-.1.7-.4,0-.2-.3-.4-.7-.4H13.8a.46.46,0,0,1-.5-.6Zm30.5-15c0-.4-.2-.7-.6-.7H40.4c-.4,0-.7.1-.8.4-.1.2.2.4.5.4h3.3c.4,0,.6.3.6.7l-.5,3.9a.7728.7728,0,0,1-.8.7H34c-.4,0-.7.1-.7.4,0,.2.3.4.7.4H49.5c.4,0,.7-.1.7-.4,0-.2-.3-.4-.7-.4H44.8c-.4,0-.6-.3-.6-.7Zm9.7,21.5c0-.4,0-.4-.2-.1l-.3.3a5.0234,5.0234,0,0,0-.5,1.3L53,33.6a1.5919,1.5919,0,0,0,.3,1.3l1.3,1.9a8.12,8.12,0,0,0,.9,1l.5.4c.3.2.4.1.2-.2L54,34.6a2.7681,2.7681,0,0,1-.3-1.3Zm10.9-21c0-.2-.3-.3-.7-.3l-4.5.1q-.6,0,0,.3l.2.1a6.882,6.882,0,0,0,1.3.2h3C65.1,8.7,65.4,8.5,65.4,8.3ZM69.8,31c.1-.4,0-.4-.2-.1l-.3.4a2.9468,2.9468,0,0,0-.5,1.3l-.2.7a2.769,2.769,0,0,0,.1,1.3l.5,1.3a2.9247,2.9247,0,0,0,.7,1.2l.2.3c.2.3.3.2.2-.1l-.9-2.7a2.845,2.845,0,0,1,0-1.3Zm-3.7-7.5c-.4,0-.7.1-.7.3s.3.4.7.4l9.8.5a1.1744,1.1744,0,0,1,1,.6l.2.3c.2.3.5.5.6.4a.8118.8118,0,0,0-.1-.8l-.4-.6a1.5238,1.5238,0,0,0-1-.6ZM75.5,7.2a2.8426,2.8426,0,0,0,1.2.4H79c.4,0,.7-.1.7-.4s-.4-.3-.7-.3l-3.4-.1C75.3,6.8,75.2,7,75.5,7.2Zm9,16.6c-.4,0-.7.2-.7.4s.3.3.7.3l6.3-.3a.5764.5764,0,0,1,.6.6l-1.2,8.3a5.2829,5.2829,0,0,0,.1,1.3l.7,2.3a7.5394,7.5394,0,0,0,.6,1.3l.5.6c.2.3.3.3.2-.1L91,34.6a6.1509,6.1509,0,0,1-.1-1.3l1.3-9c0-.4-.2-.7-.6-.6ZM87,7c0,.2.2.4.6.5l9.7,1.2c.4,0,.7-.1.7-.3s-.3-.4-.7-.4L87.8,6.8C87.3,6.8,87,6.8,87,7Zm17.6,20.4a.6687.6687,0,0,0-.6-.7H99.5c-.4,0-.7.1-.7.4,0,.2.3.4.7.4h3.8a.5627.5627,0,0,1,.6.7l-.2,5.1a5.2829,5.2829,0,0,0,.1,1.3l1,3.7a6.9434,6.9434,0,0,0,.5,1.3l.3.5c.2.3.3.3.2-.1l-1.2-5.5a6.602,6.602,0,0,1-.1-1.4Zm-4.1-16.2c0,.2.3.4.7.4h4.3a2.7681,2.7681,0,0,0,1.3-.3l.3-.1c.3-.2.3-.3-.1-.3l-5.8.1C100.8,10.8,100.5,10.9,100.5,11.2Zm18.9,2.7c0-.4-.2-.7-.4-.7s-.4.3-.4.7V19q0,.6.3,0l.2-.5a4.9613,4.9613,0,0,0,.3-1.3Zm3.3,14.4a.6835.6835,0,0,1-.7.7h-3.8a.6835.6835,0,0,0-.7.7v3.9c0,.4.1.7.4.7.2,0,.4-.3.4-.7V30.4a.6835.6835,0,0,1,.7-.7h3.8a.6835.6835,0,0,0,.7-.7l.1-2.3c0-.4-.1-.7-.3-.7s-.4.3-.4.7Zm28.1.8a2.7448,2.7448,0,0,0-.2,1.3l.3,3v1.4l-1.2,8.8c0,.4.1.7.3.6a.682.682,0,0,0,.5-.7l1-8.7V33.4l-.4-4.1c0-.5-.2-.5-.3-.2Zm-20.6,11c0,.2.3.4.7.4h1.9c.4,0,.7-.1.7-.4,0-.2-.3-.4-.7-.4h-1.9C130.5,39.8,130.2,39.9,130.2,40.1Zm2.7-28a5.0234,5.0234,0,0,0,1.3.5l7.2,1.5c.4.1.7.1.8,0,.1-.2-.1-.4-.5-.6L133,11.8C132.5,11.8,132.5,11.9,132.9,12.1Zm-.2,6.4c.3-.2.3-.4-.1-.4h-1.9c-.4,0-.7.2-.7.4s.3.4.7.4h.7A1.5748,1.5748,0,0,0,132.7,18.5Zm31.9-5.9a.7728.7728,0,0,0,.8.7h2.2a1.9738,1.9738,0,0,1,.9.1c.1,0,.6.4.7.3s0-.4-.2-.6c0,0,0-.3-.2-.4-.2,0-.7-.1-1-.1H166a.8485.8485,0,0,1-.8-.7l-1-9.9c0-.4-.2-.6-.4-.6s-.3.4-.3.7l.9,8.2c0,.4-.2.7-.6.7h-3.9c-.4,0-.7.1-.7.4,0,.2.3.4.7.4h4a.8485.8485,0,0,1,.8.7Zm-.9,17.1a2.7681,2.7681,0,0,1-.3,1.3l-1.2,2.2c-.1.4,0,.7.2.7s.4-.2.5-.6l.8-1.8c.2-.3.5-.6.6-.6s.2-.3.1-.7l-.4-5.4a.6687.6687,0,0,1,.6-.7h7.1c.4,0,.7-.1.7-.4,0-.2-.3-.4-.7-.4H164a.5627.5627,0,0,0-.6.7ZM175.2,26c0,.2.3.4.7.4h5.3a2.7681,2.7681,0,0,0,1.3-.3c.3-.2.3-.3-.1-.3h-6.5C175.5,25.6,175.2,25.8,175.2,26Zm3.2-9.9a1.6894,1.6894,0,0,0,1,.3H182c.4,0,.7-.1.7-.4,0-.2-.3-.3-.7-.3h-3.4c-.3.1-.5.2-.2.4ZM159.5,40.7c0,.2.3.4.6.4l9.7.7c.4,0,.7-.1.7-.3s-.3-.4-.6-.4l-9.7-.7C159.9,40.4,159.5,40.5,159.5,40.7Zm46.8-15c-.4,0-.7.2-.7.4s.3.3.7.3l11.6,1.2c.4,0,.7-.1.8-.3s-.2-.4-.5-.4l-11.9-1.2Zm31.9-12.9c-.2,0-.3.4-.3.8l.6,6.2a.7461.7461,0,0,0,0,.8c.1.1.5-.1.6-.5l-.6-6.8C238.5,13,238.3,12.7,238.2,12.8Zm-6-8.8a1.0128,1.0128,0,0,1-.9-.6l-.5-1.5a.7815.7815,0,0,0-.5-.6c-.2,0-.2.4-.1.8l.6,1.9a.8746.8746,0,0,0,.9.6H233a1.0128,1.0128,0,0,1,.9.6l.9,2.6a.7815.7815,0,0,0,.5.6c.2,0,.2-.4.1-.8l-1-3a.8746.8746,0,0,0-.9-.6Zm26.9,20.3c-.4,0-.7.1-.7.4,0,.2.3.4.7.4h11c.4,0,.7-.1.7-.4,0-.2-.3-.4-.7-.4ZM267,7.9c.2,0,.3-.4.1-.7L265.8,2c-.1-.4-.3-.6-.5-.6s-.3.4-.1.7l1.4,5.1c0,.5.2.7.4.7Z" transform="translate(-3.4307 -0.5)" fill="#030303" opacity="0.44" style="isolation: isolate"/>
    <path d="M39.3,7.7h3.9c.4,0,.4,0,0-.1L40.5,7c-.4-.1-.6.1-.6.5C40,7.5,40,7.5,39.3,7.7ZM22,38.6a1.277,1.277,0,0,0-1.1-.4l-3.4.4c-.4,0-.4.1,0,.2l4.5.6c.4,0,.5-.1.2-.4Zm29.1,4c-.2-.3-.7-.6-1-.5l-5.4.5c-.4,0-.4.1,0,.1l6.2.6c.4,0,.5-.2.3-.5Zm35.2-1.4a.46.46,0,0,1,.5-.6l2.5.1c.4,0,.4.1,0,.2l-2.2.6A.5529.5529,0,0,1,86.3,41.2Zm40.2-2.5c0-.4-.4-.6-.8-.6l-4.3.6c-.4,0-.4.1,0,.2l4.5.7a.53.53,0,0,0,.6-.6Zm3.4,1.7a.53.53,0,0,1,.6-.6l1.6.2c.4,0,.4.2,0,.4l-1.6.8c-.3.2-.6,0-.7-.4v-.4Zm-25.5-8.5c0-.4-.1-.4-.2,0l-.2,1a5.6335,5.6335,0,0,0,0,1.3l.6,2.2c.1.4.2.4.1,0l-.1-1.9c0-.4-.1-1-.1-1.4Zm13.4,1.2c-.1-.3-.3-.2-.3.2v2c0,.4.1.4.1,0l.2-1A1.2585,1.2585,0,0,0,117.8,33.1Zm-27.1-.9c0-.4-.1-.4-.1,0l-.2,1.2a5.2829,5.2829,0,0,0,.1,1.3l.7,2.2c.1.4.2.4.1,0l-.4-2.1c0-.4-.1-1-.1-1.4ZM69,33.3c-.1-.3-.3-.2-.5.1a2.3609,2.3609,0,0,0,.1,1.2l.3.5c.2.3.4.3.3-.1v-.5A1.6366,1.6366,0,0,0,69,33.3ZM53.7,32.2q-.15-.6-.3,0L53,33.8a1.3142,1.3142,0,0,0,.3,1.2l1.1,1.1c.3.3.4.2.3-.2l-.4-1.1c-.1-.4-.3-1-.4-1.3Zm-27.2-.4c-.2-.3-.1-.5.3-.5l3.9.3c.4,0,.4.1,0,.1l-3.1.4A1.0676,1.0676,0,0,1,26.5,31.8Zm124.6-.3c0-.4.2-.4.2,0l.4,1.9a5.6335,5.6335,0,0,1,0,1.3l-.7,2.6c-.1.4-.2.4-.2,0l-.1-2.6a6.602,6.602,0,0,1,.1-1.4Zm-9.3-17.3c0,.4-.3.5-.5.2l-1.7-1.2c-.3-.2-.3-.3.1-.2l1.5.4a.8379.8379,0,0,1,.6.8ZM186.4,38a.46.46,0,0,0-.5-.6l-2.6.1c-.4,0-.4.1,0,.2l2.4.7c.2.1.6-.1.7-.4Zm-5.8-5.2c-.1-.3-.3-.3-.3,0v1.8c0,.4.2.4.3.1l.1-.1a1.4791,1.4791,0,0,0,0-1.3ZM201,39.5c.1-.4-.1-.6-.5-.6l-4.3.4c-.4,0-.4.1,0,.1l3.9.6c.3.1.7-.2.9-.5Zm-2.9-6.3c-.1-.4-.3-.4-.4,0a2.8542,2.8542,0,0,0,0,1.3l.2.9q.15.6.3,0l.1-.7a5.2829,5.2829,0,0,0-.1-1.3Zm40.5-12.4a.5237.5237,0,0,1-.2-.8l.6-1.4c.1-.4.3-.3.2,0v1.7C239.1,20.6,238.8,20.9,238.6,20.8ZM219.5,38.5a1.11,1.11,0,0,1,1.1-.4l5.5.8c.4,0,.4.1,0,.1l-6.6.2c-.4,0-.5-.2-.2-.5Zm37.6-.2a1.11,1.11,0,0,1,1.1-.4l5.2,1c.4.1.4.1,0,.2l-6.4.4c-.4,0-.5-.2-.3-.5l.4-.7Zm1.1-14c-.1-.4.1-.6.5-.6l4.8.7c.4,0,.4.1,0,.2l-4.3.8a.8746.8746,0,0,1-.9-.6Z" transform="translate(-3.4307 -0.5)" fill="#030303"/>
    <g opacity="0.5">
      <path d="M254.5,8.4a1.4327,1.4327,0,0,1-.5-1.1V5.5c0-.4,0-.4.1,0l.7,2.6C254.9,8.5,254.7,8.6,254.5,8.4Z" transform="translate(-3.4307 -0.5)" fill="#030303"/>
    </g>
    <path d="M218.2,28l-2.8-1.2c-.4-.1-.3-.2,0-.2l3,.3" transform="translate(-3.4307 -0.5)" fill="#030303"/>
    <g opacity="0.5">
      <path d="M139.9,34.6a2.8542,2.8542,0,0,0,0-1.3l-.1-.2a.8746.8746,0,0,0-.9-.6h-2.4a1.3261,1.3261,0,0,0-1,.6l-.3.6a.5529.5529,0,0,0,.3.8l3.5,1a.7155.7155,0,0,0,.9-.5Z" transform="translate(-3.4307 -0.5)" fill="#030303"/>
    </g>
    <path d="M138,33c-.3-.3-.2-.5.2-.5h.7a1.2547,1.2547,0,0,1,1.1.6l.2.2a1.095,1.095,0,0,1,.1,1.1l-1,1.6c-.2.3-.3.3-.2-.1l.2-.6a1.3142,1.3142,0,0,0-.3-1.2ZM86.8,7.2c0-.4.4-.6.8-.5l1.9.5q.6.15,0,.3L87.4,8c-.4.1-.6-.1-.5-.5V7.2ZM49.9,13.7a.8862.8862,0,0,1-1,.4l-2-.5c-.4-.1-.4-.2,0-.2l2.5-.1C49.9,13.2,50.1,13.3,49.9,13.7ZM20.2,26.5c.1-.4-.1-.6-.5-.5l-2.7.6c-.4.1-.4.2,0,.2l2.3.4A1.0179,1.0179,0,0,0,20.2,26.5Z" transform="translate(-3.4307 -0.5)" fill="#030303"/>
    <path d="M22.4,38.9a1.6763,1.6763,0,0,1-.3-1.2l.8-2.6c.1-.4.2-.4.2,0l-.2,3.6C22.9,39.1,22.7,39.2,22.4,38.9ZM51,42.8a.6309.6309,0,0,1-.2-.9l.5-1.3c.1-.4.2-.3.2,0v1.8C51.4,42.7,51.3,42.9,51,42.8ZM76.7,24.9c0-.4.1-.4.2,0l.8,2c.1.4,0,.4-.2.1l-.3-.3a2.5669,2.5669,0,0,1-.5-1.2Zm143,14.2A1.0676,1.0676,0,0,0,220,38l-.8-2.7c-.1-.4-.2-.4-.2,0l.1,3.5c.1.4.4.6.6.3Zm37.9-.3a.7774.7774,0,0,0,.3-1L255.7,33c-.1-.3-.2-.3-.2,0l1,5.5c.1.4.4.6.7.4ZM259,24.6c-.1-.3-.4-.3-.6,0l-2.3,4.7c-.2.3-.1.4.1,0l2.6-3.7a.9188.9188,0,0,0,.2-1Z" transform="translate(-3.4307 -0.5)" fill="#29282a"/>
    <path d="M234.5,8.6l.1-2.7c0-.4.1-.4.2,0l.7,3" transform="translate(-3.4307 -0.5)" fill="#030303"/>
    <path d="M16.4,39.5c-.4-.1-.4-.2,0-.1l1.5.1c.4,0,1,.1,1.4.1l1,.1c.4,0,.4.1,0,.2l-1.3.2a5.2829,5.2829,0,0,1-1.3-.1ZM52.6,35c-.3-.3-.3-.2,0,0L54,37.2a2.9321,2.9321,0,0,0,1,.9l.5.3c.3.2.4.1.1-.1l-.9-1a8.12,8.12,0,0,0-.9-1Zm15.3-1.1c-.2,0-.2.3,0,.6l.5,1.2c.2.3.2.3.2,0l-.2-1.1C68.3,34.2,68.1,33.9,67.9,33.9Zm20.5,7.5c-.4,0-.4-.1,0-.2l2.4-.5c.4,0,.4,0,.1.2l-.3.2a2.7681,2.7681,0,0,1-1.3.3Zm15-6.4c-.2-.3-.3-.3-.2.1l.3,1.3a5.0234,5.0234,0,0,0,.5,1.3l.6,1.1c.2.3.3.3.2,0l-.5-2.1a6.9434,6.9434,0,0,0-.5-1.3ZM152,36.3c-.1-.4-.2-.4-.4,0l-.3.8a6.882,6.882,0,0,0-.2,1.3v1.4c0,.4.1.4.2,0L152,38a6.1509,6.1509,0,0,0,.1-1.3ZM135.8,33c-.1-.4-.4-.4-.5,0l-.5.9a.6867.6867,0,0,0,.3.9l1.4.7c.3.2.5,0,.2-.3l-.3-.5a5.1709,5.1709,0,0,1-.6-1.3V33Zm26.6,8.5c-.4-.1-.4-.2,0-.2h1.9a5.0666,5.0666,0,0,1,1.3.2l1.4.5c.4.1.3.2,0,.2l-2-.2a5.0666,5.0666,0,0,1-1.3-.2l-1.3-.3Zm18.9-6.4c0-.3-.2-.2-.4.1l-.3.9c-.1.4,0,.4.2.1l.1-.1A.8627.8627,0,0,0,181.3,35.1Zm17.7-.6c0-.3-.2-.2-.4.1l-.3.9c-.1.4,0,.4.2.1l.1-.1A1.2839,1.2839,0,0,0,199,34.5Zm-3.7,5.3c-.4-.1-.4-.1,0-.2l2.2-.2a2.7681,2.7681,0,0,1,1.3.3l.3.2c.3.2.3.4-.1.4h-.7a6.602,6.602,0,0,1-1.4-.1Zm26.1.1c-.4,0-.4,0,0-.1l1.3-.4a2.9787,2.9787,0,0,1,1.3-.1l2.6.2c.4,0,.4.1,0,.1l-2.6.1a6.602,6.602,0,0,0-1.4.1l-1.2.1Z" transform="translate(-3.4307 -0.5)" fill="#5a5558"/>
    <path d="M238.7,21c-.4.1-.7.6-.9.9l-.6,1.5c-.1.4-.1.4.1.1l1.7-2.3C239.2,21,239.1,20.9,238.7,21Z" transform="translate(-3.4307 -0.5)" fill="#29282a"/>
    <path d="M267.1,8.2a.6835.6835,0,0,1-.7-.7l-.2-2.2c0-.4,0-.4.2,0l1,2.4C267.6,7.9,267.4,8.2,267.1,8.2ZM159.2,11.5c0-.4.3-.7.6-.6l2.1.1q.6,0,0,.3l-2,.9c-.4.1-.6,0-.7-.4v-.3Zm-40.1,1.6c-.3-.1-.5,0-.5.4l.3,2.2c0,.4.1.4.2,0l.4-1.7A.87.87,0,0,0,119.1,13.1ZM83.2,24.5a.46.46,0,0,1,.5-.6h4.7c.4,0,.4,0,0,.1l-4.4.9A.68.68,0,0,1,83.2,24.5ZM19.5,30.9c0-.2-.2-.4-.6-.4H16.6c-.4,0-.4.1,0,.2l2.2.6C19.1,31.2,19.5,31.1,19.5,30.9Z" transform="translate(-3.4307 -0.5)" fill="#030303"/>
    <path d="M7.4,33.6c-.4,0-.5.1-.4.3s.6.3,1,.3h7.6a1.16,1.16,0,0,0,1-.4c.1-.2,0-.3-.4-.3Zm27,0c-.4,0-.5.1-.4.3s.6.3,1,.3h7.5a1.16,1.16,0,0,0,1-.4c.1-.2,0-.3-.4-.3Zm15.2-.1q-.6,0-.6.3c0,.1.4.3.8.3h1.7c.4,0,.7-.1.8-.4s-.2-.3-.6-.3ZM22.5,19.9q-.6,0-.6.3c0,.1.4.3.8.3h1.7c.4,0,.7-.1.8-.4q0-.3-.6-.3Zm11.2,0q-.6,0-.6.3c0,.1.4.3.8.3h1.7c.4,0,.7-.1.8-.4q0-.3-.6-.3ZM11.3,21.7q-.6,0-.6.3c0,.1.4.3.8.3h1.4c.4,0,.7-.1.8-.4q0-.3-.6-.3Zm13.4,4.7c-.4,0-.6.1-.5.3s.5.3.9.3h4.3c.4,0,.8-.1.9-.4.1-.2-.1-.3-.5-.3Zm-6.1-20c-.4,0-.6.1-.5.3a1.49,1.49,0,0,0,.8.3h4.3c.4,0,.8-.1.9-.4.1-.2-.1-.3-.5-.3ZM65.2,33.5q-.6,0-.6.3c0,.1.4.3.8.3h1.7c.4,0,.7-.1.8-.4q0-.3-.6-.3Zm26.7,0q-.6,0-.6.3c0,.1.4.3.8.3h1.4c.4,0,.7-.1.8-.4s-.2-.3-.6-.3Zm-21.7,0c-.4,0-.6.1-.5.3a1.49,1.49,0,0,0,.8.3h3.6c.4,0,.8-.1.8-.4.1-.2-.1-.3-.5-.3Zm14.1,0c-.4,0-.6.1-.5.3a1.5564,1.5564,0,0,0,.9.3h4.1c.4,0,.8-.1.9-.4.1-.2-.1-.3-.5-.3Zm15.6,0c-.4,0-.6.1-.5.3a1.49,1.49,0,0,0,.8.3h2.7c.4,0,.7-.1.8-.4.1-.2-.2-.3-.5-.3Zm30.9,0c-.4,0-.6.1-.5.3a1.49,1.49,0,0,0,.8.3h2.7c.4,0,.7-.1.8-.4.1-.2-.2-.3-.5-.3Zm22,0c-.4,0-.6.1-.5.3,0,.1.4.3.8.3h2.2c.4,0,.7-.1.8-.4.1-.2-.2-.3-.5-.3Zm11,0c-.4,0-.6.1-.5.3a1.5564,1.5564,0,0,0,.9.3h6.3c.4,0,.8-.1.9-.4.1-.2,0-.3-.5-.3l-7.1.1Zm13.5,0q-.6,0-.6.3c0,.1.4.3.8.3h1.8c.4,0,.7-.1.8-.4s-.2-.3-.6-.3Zm4.9,0c-.4,0-.6.1-.5.3a1.5564,1.5564,0,0,0,.9.3h3.6c.4,0,.8-.1.8-.4.1-.2-.1-.3-.5-.3Zm10.7,0c-.4,0-.6.1-.5.3a1.49,1.49,0,0,0,.8.3h2.9c.4,0,.7-.1.8-.4.1-.2-.2-.3-.5-.3Zm6.4,0q-.6,0-.6.3c0,.1.4.3.8.3h2.1c.4,0,.7-.1.8-.4q0-.3-.6-.3Zm9.1,0c-.4,0-.5.1-.4.3a2.3679,2.3679,0,0,0,1,.3h8.2a1.16,1.16,0,0,0,1-.4c.2-.2,0-.4-.4-.3l-9.4.1Zm15.4,0c-.4,0-.5.1-.4.3a2.3679,2.3679,0,0,0,1,.3h8.2a1.16,1.16,0,0,0,1-.4c.2-.2,0-.4-.4-.3l-9.4.1Zm39,0c-.4,0-.5.1-.4.3a2.3679,2.3679,0,0,0,1,.3h8.2a1.16,1.16,0,0,0,1-.4c.2-.2,0-.4-.4-.3l-9.4.1ZM248.5,6.9c-.4,0-.6.1-.5.3a1.5564,1.5564,0,0,0,.9.3h4c.4,0,.8-.1.9-.4.1-.2-.1-.3-.5-.3l-4.8.1Zm-12.1,0c-.4,0-.6.1-.5.3a1.5564,1.5564,0,0,0,.9.3h4.8c.4,0,.8-.1.9-.4.1-.2-.1-.3-.5-.3l-5.6.1Zm-6.2,0c-.4,0-.6.1-.5.3a1.49,1.49,0,0,0,.8.3h2.9c.4,0,.7-.1.8-.4.1-.2-.2-.3-.5-.3Zm2,12.9c-.4,0-.6.1-.5.3a1.5564,1.5564,0,0,0,.9.3h4.2c.4,0,.8-.1.9-.4.1-.2-.1-.3-.5-.3l-5,.1ZM194.7,6.1c-.4,0-.6.1-.5.3a1.49,1.49,0,0,0,.8.3h2.9c.4,0,.7-.1.8-.4.1-.2-.2-.3-.5-.3Zm8.7,0c-.4,0-.6.1-.5.3a1.49,1.49,0,0,0,.8.3h2.9c.4,0,.7-.1.8-.4.1-.2-.2-.3-.5-.3Zm-5.3,5.6c-.4,0-.6.2-.6.3s.4.3.7.3h.7c.4,0,.7-.1.7-.4q0-.3-.6-.3l-.9.1Zm2.8-1.8q-.6,0-.6.3c0,.1.4.3.8.3h1.3c.4,0,.7-.1.8-.4q0-.3-.6-.3Zm-38.9.3q-.6,0-.6.3c0,.1.4.3.8.3h1.3c.4,0,.7-.1.8-.4q0-.3-.6-.3Zm9.8,9.3q-.6,0-.6.3c0,.2.4.3.8.3h1.8c.4,0,.7-.1.8-.4q0-.3-.6-.3Zm-6.9,3.4c-.4,0-.6.1-.5.3a1.49,1.49,0,0,0,.8.3h3.6c.4,0,.8-.1.8-.4.1-.2-.1-.3-.5-.3l-4.2.1Zm96.9.6c-.4,0-.6.1-.5.3a1.49,1.49,0,0,0,.8.3h3.6c.4,0,.8-.1.8-.4.1-.2-.1-.3-.5-.3l-4.2.1ZM100.6,26.2c-.4,0-.6.1-.5.3,0,.1.4.3.8.3h2.4c.4,0,.7-.1.8-.4,0-.2-.2-.3-.5-.3ZM87,23.4c-.4,0-.6.1-.5.3,0,.1.4.3.8.3h2.4c.4,0,.7-.1.8-.4,0-.2-.2-.3-.5-.3Zm-19.6-.3c-.4,0-.6.1-.5.3,0,.1.4.3.8.3h2.4c.4,0,.7-.1.8-.4,0-.2-.2-.3-.5-.3ZM37.9,12.4c-.4,0-.6.1-.5.3a1.5564,1.5564,0,0,0,.9.3H42c.4,0,.8-.1.9-.3s-.1-.3-.5-.3ZM93.3,7.3c-.4,0-.6,0-.6.2s.4.4.8.4l2.4.3c.4,0,.7,0,.8-.2s-.1-.4-.5-.4Zm84.1,17.8c-.4,0-.6.1-.5.3,0,.1.4.3.8.3h2.4c.4,0,.7-.1.8-.4,0-.2-.2-.3-.5-.3ZM202,22.6c-.4,0-.6.1-.5.3,0,.1.4.3.8.3h2.4c.4,0,.7-.1.8-.4,0-.2-.2-.3-.5-.3ZM142.8,6.7q-.6,0-.3.3a2.9346,2.9346,0,0,0,1,.3h10.2c.4,0,.9-.1,1-.4.2-.2,0-.3-.3-.3l-11.6.1Zm-29.4.1q-.6,0-.3.3a2.9346,2.9346,0,0,0,1,.3h10.6c.4,0,.9-.1,1-.4q.3-.3-.3-.3Zm-1.5,12.8c-.4,0-.6.1-.5.3s.5.3.9.3h5.2c.4,0,.8-.1.9-.4.1-.2-.1-.3-.5-.3Zm7.9,0c-.4,0-.6.1-.5.3a1.5564,1.5564,0,0,0,.9.3H125c.4,0,.8-.1.9-.4.1-.2-.1-.3-.5-.3Zm16.8,12.2q-.6,0-.6.3c0,.1.4.3.8.3h1.6c.4,0,.7-.1.8-.4q0-.3-.6-.3Zm-2.3-20.7c-.4,0-.6,0-.6.2s.4.4.8.4l3,.4c.4,0,.8,0,.9-.2s-.1-.4-.5-.4l-3.6-.4ZM207.9,25c-.4,0-.6,0-.6.2s.4.4.8.4l3,.4c.4,0,.8,0,.9-.2s-.1-.4-.5-.4l-3.6-.4Zm-2.3-13.3c-.4,0-.6.2-.6.3s.4.3.7.3h.6c.4,0,.7-.1.7-.4q0-.3-.6-.3l-.8.1ZM240,19.8c-.4,0-.6.1-.5.3a1.5564,1.5564,0,0,0,.9.3h4.8c.4,0,.8-.1.9-.4.1-.2-.1-.3-.5-.3l-5.6.1ZM268.3,6.9c-.4,0-.6.1-.5.3a1.49,1.49,0,0,0,.8.3h3c.4,0,.7-.1.8-.4.1-.2-.2-.3-.5-.3l-3.6.1ZM141.6,33.5c-.4,0-.5.1-.4.3a1.9641,1.9641,0,0,0,1,.3h7.1a1.16,1.16,0,0,0,1-.4c.1-.2,0-.3-.4-.3l-8.3.1Zm-36,0q-.6,0-.3.3a2.9346,2.9346,0,0,0,1,.3H116a1.16,1.16,0,0,0,1-.4c.2-.2,0-.4-.3-.3Zm13.4,0c-.4,0-.6.1-.5.3a1.5564,1.5564,0,0,0,.9.3h4.7c.4,0,.8-.1.9-.4s-.1-.3-.5-.3Zm-63.6.1c-.4,0-.6.1-.5.3s.5.3.8.3h2.9c.4,0,.7-.1.8-.4.1-.2-.2-.3-.5-.3Z" transform="translate(-3.4307 -0.5)" fill="#e0dbd6"/>
  </g>
</svg>
