<svg xmlns="http://www.w3.org/2000/svg" xmlns:xlink="http://www.w3.org/1999/xlink" viewBox="0 0 1997.13 1161.38">
  <defs>
    <linearGradient id="d" x1="1037.45" y1="55.15" x2="1123.01" y2="199.55" gradientUnits="userSpaceOnUse">
      <stop offset=".04" stop-color="#109400"/>
      <stop offset=".38" stop-color="#64b62a"/>
      <stop offset=".63" stop-color="#97ca43"/>
    </linearGradient>
    <linearGradient id="e" x1="1068.98" y1="34.75" x2="1098.86" y2="226.19" gradientTransform="matrix(-1 0 0 1 1995.58 0)" gradientUnits="userSpaceOnUse">
      <stop offset="0" stop-color="#109400"/>
      <stop offset=".38" stop-color="#64b62a"/>
      <stop offset=".63" stop-color="#97ca43"/>
    </linearGradient>
    <linearGradient id="f" x1="866.71" y1="276.71" x2="959.85" y2="322.09" xlink:href="#e"/>
    <linearGradient id="g" x1="858.2" y1="272.39" x2="951.98" y2="316.4" gradientTransform="matrix(-1 0 0 1 1995.58 0)" gradientUnits="userSpaceOnUse">
      <stop offset="0" stop-color="#109400"/>
      <stop offset=".39" stop-color="#64b62a"/>
      <stop offset=".66" stop-color="#97ca43"/>
    </linearGradient>
    <radialGradient id="a" cx="182.93" cy="2141.27" r="14.4" gradientTransform="matrix(0 25.06 22.09 0 -46308.52 -4363.29)" gradientUnits="userSpaceOnUse">
      <stop offset="0" stop-color="#fff"/>
      <stop offset="1" stop-color="#fff" stop-opacity="0"/>
    </radialGradient>
    <style>
      .a{fill:#fff}.c{fill:url(#a)}
    </style>
  </defs>
  <path class="a" d="M1058.1 592.93c39.64-29.41 94.8-34.62 140.07-15.85 26.33 10.85 47.74 31.11 63.51 54.49a189.24 189.24 0 0122.08 94.49c-.64 43.25-16.44 88-49.48 117-54.88 48.6-149 43.74-197-12.39-33.4-38-42.71-91.92-35.11-140.81 2.79-21.73 12.09-41.6 21.27-61.23 10.7-12.66 21-25.94 34.61-35.71m67.14 6.63c-21.76 3.82-43.92 12.92-57.37 31.26-23.12 21.55-32.22 53.63-33.54 84.36-.53 36.11 8.74 75 35.65 100.73 36.32 37.07 101.72 38.32 140.07 3.71 20.8-18.2 33.28-44.5 37.35-71.59 6-36.39.25-75.93-20.94-106.69-6.46-7.7-14.41-14-20.8-21.8-22.23-18.06-52.52-23.8-80.42-20zM484.05 573.3c13-.15 26.09-.11 39.11-.18 27.76 38.18 58.26 74.29 84.59 113.54 27.12-37.65 57.55-72.86 82.49-112 13.66-3.61 28.26-1.07 42.28-1.29C698.66 621 662.7 667.14 629 714.92c11.81 13.49 21.51 28.66 31.65 43.4q41.21 55.81 82.27 111.73-19.9-.12-39.82-.15c-31.1-41.9-61.74-84.1-93.85-125.21-8.88 5.82-12.63 17.16-19.87 24.84-9.92 9.13-16.77 20.91-25 31.43-16.77 23.06-34 45.79-50.77 68.87q-20 0-40 .22c31.9-42.61 63-85.82 94.76-128.5 6.78-8.64 9.64-20.59 19.48-26.55a363.54 363.54 0 01-30-40.61c-11-14.7-23.16-28.55-34.22-43.25-9.45-21.52-26.9-38.18-39.49-57.84z"/>
  <path class="a" d="M758.31 573.16c41 .07 82-.08 123 0 19.7.22 40.39 2.71 57.48 13.27 23.55 13.71 39.18 41 37.22 68.37.32 24.09-14.13 46.14-34.4 58.34 16.88 9.43 32.68 23.06 39 41.93 12.35 32.3 2.07 72.8-26.26 93.39-21.87 16.34-50 21.37-76.74 21.44-39.71-.07-79.46.15-119.17 0-1.14-46.32.11-92.67-.11-139-20.8.14-41.6 0-62.4 0q10.82-15.09 22-29.9 20.18-.22 40.35-.4c-1.46-42.5.25-85 .07-127.5m33.32 31.9c.47 31.87.29 63.7.07 95.57 31-.25 62.08.5 93.09 0 15.77-.53 32.54-4.6 44.1-16 18.12-17.3 16.12-49.38-1.11-66.51-15-11.92-35.1-13.63-53.52-13.6-27.54.29-55.09-.42-82.63.5m.18 126.25c.21 35.76-.43 71.55.32 107.3 30.79-.32 61.62.18 92.41-.21 17.59-1 36.35-4.32 50.23-16.06 17.84-15.52 21.3-43.68 10.85-64.27-11.74-19.3-35.82-25.4-57-26.47-32.25-.75-64.54-.07-96.83-.29zM1262.8 573.19c13-.08 26 0 39-.15 28.69 38.07 56.84 76.54 85.7 114.47 26.76-38.61 56-75.47 83.64-113.44 12.91-2.1 26.18-.57 39.24-.89-12 20.09-28.15 37.25-40.07 57.38-19 24.84-37.39 50.21-56.19 75.18-2.49 3.39-5.64 7.46-3.74 11.92 36.6 51 73.85 101.63 111 152.26-13.28.15-26.55 0-39.82-.21-31.08-42.71-63-84.78-94.34-127.25-32 42.43-63.54 85.25-95.65 127.61-13.13-.28-26.23-.21-39.32-.11 38.57-51.38 75.93-103.73 114.39-155.22-34.36-47.42-69.36-94.31-103.89-141.55zM41 959.43c33-24.16 81.49-23.77 114.24.67 17.91 13.45 28.61 34.47 33.36 56q-13 .27-25.9.58c-4.25-10.89-7.39-22.66-15.06-31.76-29.51-33.92-94.83-25.67-111.57 17.25-15.38 30-17.27 67.23-2.93 97.92 20.3 41.57 83.88 51.17 115.6 17.45 13.2-11.85 16.45-30.12 18.52-46.89-23.4.14-46.77-.07-70.18.21 0-7.81.07-15.66.11-23.44 31.08-.14 62.19-.18 93.3.07-.18 36.36 0 72.76.1 109.12h-24.43c.21-8.32.42-16.63.82-24.91-14.28 17.24-35.86 28-58.09 29.66H85.2c-21.34-2.93-42.74-11.39-57.62-27.44C13 1118.07 4.25 1097.66 0 1076.75v-48.21c5.17-26.76 18.38-53.06 41-69.12zM865.7 967.21c13.71-17.67 37-24.73 58.59-25.48 25-.72 52.8 5 69.75 24.83 12 13 15 31.08 16.13 48l-23.94.21c-1.64-9.92-1.79-20.7-7.71-29.23-8.1-12.27-22.62-18.45-36.71-20.48-17.16-2.53-36.11-.89-50.56 9.49-12 8.46-15.84 26.12-9.31 39.11 4.56 7.64 12.84 12 20.87 15.17 25.73 9.49 54.05 9.85 79.17 21.23 11.7 5.17 22.37 13.74 27.83 25.55 9 20.94 5.14 47.56-11.49 63.66-15.27 15.3-37.42 20.41-58.26 22h-3.28c-25.4-1.43-53.2-6.71-71-26.55-14-15-17.2-36.22-16.84-55.91h24c.21 11.59-.43 24.15 6 34.43 9.27 15.7 28 22.27 45.2 24.41 19.09 2.32 40.82.32 55.66-13.1 15-13 14.63-41.36-3.75-51.17-31.82-17.27-71.67-12.56-102-33.33-22.9-16.16-25-51.6-8.38-72.94zM1641.3 975.81c33.47-41.9 102.36-45.68 141.43-9.64 39.89 36.86 44.46 102.2 18.31 148.2-15.17 27-44.35 43.32-74.57 47h-12.27c-47.88 1-89.7-39.5-95.94-85.89-5.6-34.47.1-72.29 23-99.66m54.7-8.74c-21.94 6-39.78 23.23-47.81 44.39-11.7 30.61-10.27 67.73 8.53 95.24 22.48 33.75 74.85 42 106 15.45 36.75-31.3 39-91.85 11.74-130-17.52-23.78-50.42-33.16-78.42-25.1zM1854.4 960.72c20.23-18.42 49.92-21.41 75.93-17.42 21 2.86 42.21 13.42 52.77 32.47 7.13 11.74 8.56 25.66 9.42 39.07h-24c-.75-11.95-2.32-24.87-11.07-33.83-15.77-17-41.67-19.23-63.22-15.31-15.87 2.68-32 14.42-32.68 31.69-1.75 12.67 6.88 24.45 18.27 29.12 26.9 11.35 57 11.81 84.09 22.66 14.24 6.35 26.87 18.34 31 33.76 5.06 18.19 1.56 39.35-11.31 53.59-16.2 19.66-43.43 25.48-67.76 24.41-26.47-.5-55.58-8.81-71.67-31.33-10.92-14.63-13.21-33.33-12.81-51h24.72c.29 12.09-1.11 25.58 6.71 35.86 8.38 13.35 24 19.62 39 22 20.23 3.79 43.49 2.15 59.9-11.45 15.49-13 15.45-42.46-3.89-51.88-31.47-16.1-70.07-12.42-100-32.22-26.54-17.31-26.5-60.09-3.31-80.18zM264.2 1001.15c9.92-17.63 14.95-37.4 24.3-55.32 7 .43 13.91.79 20.87 1.25 18.49 49.36 40.75 97.17 58.73 146.7 8.45 17.2 12 36.44 21.73 53 1 3.25 1.92 6.53 2.89 9.81-10.13-.14-20.87 2.14-30.36-2.35-3-21.84-15.74-40.83-22.84-61.45-28 .11-56.12.53-84.16-.29-9.82 21-16.42 43.36-26.73 64.16-8.67 0-17.37.07-26 .07 5.24-18.27 14.23-35.14 20.83-53 14.28-33.93 25.26-69.23 40.78-102.66m.18 68.76c22.55-.25 45.06 0 67.61.18-8.38-21.8-17.05-43.5-25.83-65.12-2.18-8.28-4.35-16.6-7.1-24.73-12.31 29.54-23.4 59.66-34.68 89.67zM405 946.66c9-.29 18.09-.43 27.12-.47 25.44 57.81 49.81 116.08 74.32 174.28 17.09-40.07 34.11-80.25 49.38-121 10.34-16.27 15.84-35 23.4-52.6 9.31-.39 18.62-.57 28-.64.43 70 0 140 .93 209.93-8.49.36-17 .39-25.51.25.11-52.63-.07-105.27.14-157.9-16.09 34.54-28.54 70.62-44.06 105.41-8.17 17.1-12.84 35.58-19.62 53.24q-11.14-.37-22.34-.53c-23.23-52.35-44.45-105.59-66.82-158.29.14 52.6-.39 105.2.25 157.79-8.71.25-17.38.46-26.05.78 1.53-52.06-.25-104.16.36-156.26 1-18 .74-36 .53-54zM632.51 946.62c49.21-.4 98.44-.36 147.64-.15v21c-41.28.18-82.52-.07-123.8.08q.33 35 0 70c38.78.07 77.53-.42 116.31.29q-.21 10.21-.32 20.48c-38.53.22-77.06-.11-115.64.18-.5 25.58-.32 51.2 0 76.82 41.67.22 83.31 0 125 .11-.14 6.93-.32 13.88-.46 20.81-49.6.07-99.19 0-148.78.14 0-69.91.32-139.81.14-209.71zM1013.4 946.44c54.52.14 109-.08 163.55.14q-.1 11.4-.21 22.87c-23.12-.11-46.24-.07-69.33 0 .25 62.26-.14 124.57.43 186.88q-12.84.1-25.61.1c1.14-62.23-.36-124.5.64-186.77-23.19-.49-46.42-.17-69.65-.21q0-11.5.18-23zM1191.3 946.55q12.21-.06 24.41.21c-.61 40.61-.11 81.25-.25 121.89a115 115 0 008 43.25c8.2 17.38 27.83 26.37 46.38 26.73 16.73.5 35.4-3 47-16.17 11.74-13.88 14.2-32.9 14.38-50.45-.15-41.79 0-83.57-.15-125.39h24.12c.07 41.93.18 83.89 0 125.86-.22 24.34-5 51-23.59 68.33-20.69 19.91-51.91 22.09-79 19.09-14.6-1.17-26.94-9.53-39.5-16.2-8.35-13.27-16.87-27-19.59-42.71-2.07-13.13-2.39-26.44-2.32-39.68.89-38.25.68-76.51.18-114.76zM1381 946.3c27.19.78 54.41-.32 81.6.71 27.22 1.29 55.41 13.67 70.07 37.5 17.27 27.7 20 62.34 14.88 94-4.53 27.55-20.48 55.39-46.88 67-37.36 18-79.92 8.21-119.74 10.74.14-70-.07-140 .07-209.93m23.94 22.88c0 54.87.32 109.76 0 164.68 28.36-1.68 59.19 5.1 85.38-9 26-14.34 35.35-46.24 34.92-74.15.25-26.19-6.17-57-30.39-71.4-27.26-15.81-60-8.89-90-10.13zM1570.6 946.48c8.39 0 16.77 0 25.23.07-.39 69.9.57 139.84-.32 209.75-8.42 0-16.84 0-25.23-.18.4-69.87.11-139.74.32-209.64z"/>
  <path d="M1245.66 247.72c0 136.82-111.36 247.73-248.71 247.73S748.24 384.54 748.24 247.72 859.59 0 997 0s248.71 110.9 248.71 247.72z" fill="#666"/>
  <path class="c" d="M1245.66 247.72c0 136.82-111.36 247.73-248.71 247.73S748.24 384.54 748.24 247.72 859.59 0 997 0s248.71 110.9 248.71 247.72z"/>
  <path class="c" d="M1245.66 247.72c0 136.82-111.36 247.73-248.71 247.73S748.24 384.54 748.24 247.72 859.59 0 997 0s248.71 110.9 248.71 247.72z"/>
  <path class="c" d="M1245.66 247.72c0 136.82-111.36 247.73-248.71 247.73S748.24 384.54 748.24 247.72 859.59 0 997 0s248.71 110.9 248.71 247.72z"/>
  <path d="M997.79 73.32v124.35s20.5 14 30.41 24.11l36.82-86.7s73-74.16 105.53-64.75a179.1 179.1 0 00-16.3-15c-11.34-9.25-23.45-20.17-45.8-19.79-34.51.56-75.83 17.14-110.66 37.78z" fill="url(#d)"/>
  <path d="M997.79 73.32v124.35s-20.5 14-30.4 24.11l-36.83-86.7s-73.4-75.39-105.93-66a204.05 204.05 0 0116-14.53c11.35-9.24 24.1-19.45 46.45-19.07 34.57.62 75.92 17.2 110.71 37.84z" fill="url(#e)"/>
  <path d="M830.53 431.83S809.39 412.34 804.8 405c-3.51-5.6-12.64-25.71 7.62-78.89s64.07-121.87 118.14-191.06l36.83 86.7s-82.85 74.42-118.71 135c-10.28 17.37-17.41 34-19.75 43.57-5.61 23.01 1.6 31.51 1.6 31.51z" fill="url(#f)"/>
  <path d="M1164.23 431.06s21-19.49 25.32-27.08c3.26-5.75 13.87-24.66-6.38-77.84S1119.1 204.27 1065 135.08l-36.82 86.7s82.84 74.42 118.7 135c10.28 17.37 17.41 34 19.75 43.57 5.64 22.98-2.4 30.71-2.4 30.71z" fill="url(#g)"/>
</svg>
