<!-- Generated by IcoMoon.io -->
<svg version="1.1" 
  xmlns="http://www.w3.org/2000/svg" width="512" height="512" viewBox="0 0 512 512">
  <path fill="#a05307" d="M96 112h128v48h-16v-16h-96v16h-16v-48z"></path>
  <path fill="#882f05" d="M224 112h16v96h-16v-96z"></path>
  <path fill="#e4772a" d="M240 112h48v80h-16v32h16v16h-48v-128z"></path>
  <path fill="#f69f3a" d="M288 112h128v64h-16v-16h-16v-16h-32v16h-16v16h-48v-64z"></path>
  <path fill="#fac28c" d="M112 144h96v16h16v80h-32v-32h-16v-16h-32v-16h-32v16h32v16h-16v32h-32v-80h16v-16z"></path>
  <path fill="#fcd8b0" d="M352 144h32v16h16v16h-32v16h32v-16h16v64h-128v-64h16v16h32v-32h16v-16z"></path>
  <path fill="#0980b0" d="M16 160h16v16h-16v-16z"></path>
  <path fill="#41c7c5" d="M32 160h48v16h-48v-16z"></path>
  <path fill="#41c7c5" d="M432 160h48v16h-48v-16z"></path>
  <path fill="#0980b0" d="M480 160h16v16h-16v-16z"></path>
  <path fill="#0980b0" d="M0 176h16v16h-16v-16z"></path>
  <path fill="#41c7c5" d="M16 176h16v16h-16v-16z"></path>
  <path fill="#882f05" d="M48 176h16v64h-16v-64z"></path>
  <path fill="#0980b0" d="M64 176h16v16h-16v-16z"></path>
  <path fill="#41c7c5" d="M80 176h16v16h-16v-16z"></path>
  <path fill="#fffff6" d="M112 176h16v16h-16v-16z"></path>
  <path fill="#a549c6" d="M128 176h16v16h-16v-16z"></path>
  <path fill="#a549c6" d="M176 176h16v16h-16v-16z"></path>
  <path fill="#fffff6" d="M192 176h16v16h-16v-16z"></path>
  <path fill="#fffff6" d="M304 176h16v16h-16v-16z"></path>
  <path fill="#679c2e" d="M320 176h16v16h-16v-16z"></path>
  <path fill="#679c2e" d="M368 176h16v16h-16v-16z"></path>
  <path fill="#fffff6" d="M384 176h16v16h-16v-16z"></path>
  <path fill="#41c7c5" d="M416 176h16v16h-16v-16z"></path>
  <path fill="#0980b0" d="M432 176h16v16h-16v-16z"></path>
  <path fill="#882f05" d="M448 176h16v64h-16v-64z"></path>
  <path fill="#41c7c5" d="M480 176h16v16h-16v-16z"></path>
  <path fill="#0980b0" d="M496 176h16v16h-16v-16z"></path>
  <path fill="#f6854a" d="M144 192h32v16h-32v-16z"></path>
  <path fill="#f5b88d" d="M272 192h16v32h-16v-32z"></path>
  <path fill="#a05307" d="M128 208h16v16h32v-16h16v32h-64v-32z"></path>
  <path fill="#fac28c" d="M144 208h32v16h-32v-16z"></path>
  <path fill="#e49453" d="M224 208h16v32h-16v-32z"></path>
  <path fill="#f9a194" d="M336 208h32v16h-32v-16z"></path>
  <path fill="#fac28c" d="M16 240h32v56h-32v-56z"></path>
  <path fill="#e49453" d="M48 240h32v56h-32v-56z"></path>
  <path fill="#0980b0" d="M80 240h32v56h-32v-56z"></path>
  <path fill="#41c7c5" d="M112 240h112v80h-96v16h-16v-96z"></path>
  <path fill="#55a233" d="M224 240h32v64h-32v-64z"></path>
  <path fill="#7bc561" d="M256 240h32v64h-32v-64z"></path>
  <path fill="#55a233" d="M288 240h16v64h-16v-64z"></path>
  <path fill="#7bc561" d="M304 240h16v16h16v16h16v-16h16v16h16v16h16v16h-96v-64z"></path>
  <path fill="#f5b88d" d="M320 240h48v16h-16v16h-16v-16h-16v-16z"></path>
  <path fill="#f69f3a" d="M368 240h32v48h-16v-16h-16v-32z"></path>
  <path fill="#55a233" d="M400 240h32v56h-32v-56z"></path>
  <path fill="#f5b88d" d="M432 240h32v56h-32v-56z"></path>
  <path fill="#fcd8b0" d="M464 240h32v56h-32v-56z"></path>
  <path fill="#f5b88d" d="M224 304h32v40h-32v-40z"></path>
  <path fill="#fcd8b0" d="M256 304h32v40h-32v-40z"></path>
  <path fill="#013401" d="M288 304h16v16h-16v-16z"></path>
  <path fill="#246804" d="M304 304h96v16h-96v-16z"></path>
  <path fill="#0980b0" d="M128 320h96v64h-112v-48h16v-16z"></path>
  <path fill="#55a233" d="M288 320h16v24h-16v-24z"></path>
  <path fill="#7bc561" d="M304 320h96v24h-96v-24z"></path>
  <path fill="#2424ae" d="M224 344h32v40h-32v-40z"></path>
  <path fill="#882f05" d="M256 344h48v40h-48v-40z"></path>
  <path fill="#a05307" d="M304 344h96v40h-96v-40z"></path>
  <path fill="#703605" d="M112 384h112v32h-112v-32z"></path>
  <path fill="#501c03" d="M224 384h32v32h-32v-32z"></path>
  <path fill="#8e7b71" d="M256 384h48v32h-48v-32z"></path>
  <path fill="#c6b6ab" d="M304 384h96v32h-96v-32z"></path>
</svg>