<!-- Generated by IcoMoon.io -->
<svg version="1.1" 
  xmlns="http://www.w3.org/2000/svg" width="512" height="512" viewBox="0 0 512 512">

  <path fill="#348c68" d="M96 96h64v64h-6.4v32h-6.4v-32h-6.4v-32h-6.4v32h-12.8v-32h-6.4v64h-6.4v-32h-12.8v-64z"></path>
  <path fill="#81c351" d="M160 96h32v32h-32v-32z"></path>
  <path fill="#6caf3c" d="M192 96h32v32h-32v-32z"></path>
  <path fill="#79ba48" d="M224 96h32v32h-32v-32z"></path>
  <path fill="#81c351" d="M256 96h32v32h-32v-32z"></path>
  <path fill="#79ba48" d="M288 96h32v32h-32v-32z"></path>
  <path fill="#6fb03d" d="M320 96h32v32h-32v-32z"></path>
  <path fill="#69ab37" d="M352 96h32v32h-32v-32z"></path>
  <path fill="#77b946" d="M384 96h32v32h-32v-32z"></path>
  <path fill="#5ca028" d="M115.2 128h6.4v32h-6.4v-32z"></path>
  <path fill="#391621" d="M134.4 128h6.4v32h-6.4v-32z"></path>
  <path fill="#6aae3a" d="M160 128h32v32h-32v-32z"></path>
  <path fill="#79ba48" d="M192 128h32v32h-32v-32z"></path>
  <path fill="#6aae3a" d="M224 128h32v32h-32v-32z"></path>
  <path fill="#5a381e" d="M256 128h32v32h-32v-32z"></path>
  <path fill="#8bcd5d" d="M288 128h32v32h-32v-32z"></path>
  <path fill="#a6d674" d="M320 128h32v32h-32v-32z"></path>
  <path fill="#5ca028" d="M352 128h32v32h-32v-32z"></path>
  <path fill="#81c351" d="M384 128h32v32h-32v-32z"></path>
  <path fill="#391621" d="M96 160h12.8v32h-12.8v-32z"></path>
  <path fill="#4f5f76" d="M115.2 160h6.4v32h-6.4v-32z"></path>
  <path fill="#391621" d="M121.6 160h12.8v32h-12.8v-32z"></path>
  <path fill="#4e3936" d="M134.4 160h6.4v32h-6.4v-32z"></path>
  <path fill="#4f5f76" d="M140.8 160h6.4v32h-6.4v-32z"></path>
  <path fill="#4e3936" d="M153.6 160h6.4v192h-6.4v32h-6.4v32h-32v-32h-6.4v-32h6.4v-32h-6.4v-32h-12.8v-96h19.2v32h6.4v-32h12.8v64h6.4v-32h6.4v-32h6.4v-32z"></path>
  <path fill="#805838" d="M160 160h32v32h-32v-32z"></path>
  <path fill="#81c351" d="M192 160h32v32h-32v-32z"></path>
  <path fill="#4f5f76" d="M224 160h32v32h-32v-32z"></path>
  <path fill="#805838" d="M256 160h32v32h-32v-32z"></path>
  <path fill="#5a381e" d="M288 160h32v32h-32v-32z"></path>
  <path fill="#757575" d="M320 160h32v32h-32v-32z"></path>
  <path fill="#6fb03d" d="M352 160h32v32h-32v-32z"></path>
  <path fill="#5a381e" d="M384 160h32v32h-32v-32z"></path>
  <path fill="#6a4840" d="M115.2 192h6.4v32h-6.4v-32z"></path>
  <path fill="#6a4840" d="M134.4 192h6.4v32h-6.4v-32z"></path>
  <path fill="#391621" d="M140.8 192h6.4v32h-6.4v-32z"></path>
  <path fill="#a2754e" d="M160 192h32v32h-32v-32z"></path>
  <path fill="#805838" d="M192 192h32v32h-32v-32z"></path>
  <path fill="#5a381e" d="M224 192h32v32h-32v-32z"></path>
  <path fill="#c69065" d="M256 192h32v32h-32v-32z"></path>
  <path fill="#805838" d="M288 192h32v32h-32v-32z"></path>
  <path fill="#c69065" d="M320 192h32v32h-32v-32z"></path>
  <path fill="#a2754e" d="M352 192h32v32h-32v-32z"></path>
  <path fill="#805838" d="M384 192h32v32h-32v-32z"></path>
  <path fill="#391621" d="M134.4 224h6.4v32h-6.4v-32z"></path>
  <path fill="#805838" d="M160 224h32v32h-32v-32z"></path>
  <path fill="#a2754e" d="M192 224h64v32h-64v-32z"></path>
  <path fill="#5a381e" d="M256 224h32v32h-32v-32z"></path>
  <path fill="#a2754e" d="M288 224h32v32h-32v-32z"></path>
  <path fill="#805838" d="M320 224h64v32h-64v-32z"></path>
  <path fill="#a2754e" d="M384 224h32v32h-32v-32z"></path>
  <path fill="#6a4840" d="M121.6 256h12.8v32h-12.8v-32z"></path>
  <path fill="#6a4840" d="M147.2 256h6.4v32h-6.4v-32z"></path>
  <path fill="#a2754e" d="M160 256h32v32h-32v-32z"></path>
  <path fill="#c69065" d="M192 256h32v32h-32v-32z"></path>
  <path fill="#805838" d="M224 256h32v32h-32v-32z"></path>
  <path fill="#a2754e" d="M256 256h32v32h-32v-32z"></path>
  <path fill="#c69065" d="M288 256h32v32h-32v-32z"></path>
  <path fill="#a2754e" d="M320 256h64v64h-32v-32h-32v-32z"></path>
  <path fill="#805838" d="M384 256h32v32h-32v-32z"></path>
  <path fill="#6a4840" d="M96 288h12.8v32h-12.8v-32z"></path>
  <path fill="#4f5f76" d="M134.4 288h6.4v32h-6.4v-32z"></path>
  <path fill="#391621" d="M147.2 288h6.4v32h-6.4v-32z"></path>
  <path fill="#805838" d="M160 288h32v64h-32v-64z"></path>
  <path fill="#5a381e" d="M192 288h32v32h-32v-32z"></path>
  <path fill="#a2754e" d="M224 288h32v32h-32v-32z"></path>
  <path fill="#757575" d="M256 288h32v32h-32v-32z"></path>
  <path fill="#a2754e" d="M288 288h32v32h32v32h-64v-64z"></path>
  <path fill="#805838" d="M320 288h32v32h-32v-32z"></path>
  <path fill="#c69065" d="M384 288h32v32h-32v-32z"></path>
  <path fill="#4e3936" d="M96 320h12.8v32h-12.8v-32z"></path>
  <path fill="#391621" d="M108.8 320h6.4v32h-6.4v-32z"></path>
  <path fill="#391621" d="M134.4 320h6.4v32h-6.4v-32z"></path>
  <path fill="#a2754e" d="M192 320h32v32h-32v-32z"></path>
  <path fill="#805838" d="M224 320h32v32h-32v-32z"></path>
  <path fill="#5a381e" d="M256 320h32v32h-32v-32z"></path>
  <path fill="#5a381e" d="M352 320h32v32h-32v-32z"></path>
  <path fill="#a2754e" d="M384 320h32v32h-32v-32z"></path>
  <path fill="#6a4840" d="M96 352h12.8v32h-12.8v-32z"></path>
  <path fill="#6a4840" d="M121.6 352h12.8v32h-12.8v-32z"></path>
  <path fill="#6a4840" d="M153.6 352h6.4v32h-6.4v-32z"></path>
  <path fill="#c69065" d="M160 352h32v32h-32v-32z"></path>
  <path fill="#805838" d="M192 352h32v32h-32v-32z"></path>
  <path fill="#a2754e" d="M224 352h64v32h64v32h-96v-32h-32v-32z"></path>
  <path fill="#c69065" d="M288 352h32v32h-32v-32z"></path>
  <path fill="#805838" d="M320 352h64v32h-64v-32z"></path>
  <path fill="#c69065" d="M384 352h32v32h-32v-32z"></path>
  <path fill="#4e3936" d="M96 384h12.8v32h-12.8v-32z"></path>
  <path fill="#4f5f76" d="M108.8 384h6.4v32h-6.4v-32z"></path>
  <path fill="#6a4840" d="M147.2 384h6.4v32h-6.4v-32z"></path>
  <path fill="#391621" d="M153.6 384h6.4v32h-6.4v-32z"></path>
  <path fill="#a2754e" d="M160 384h32v32h-32v-32z"></path>
  <path fill="#c69065" d="M192 384h32v32h-32v-32z"></path>
  <path fill="#805838" d="M224 384h32v32h-32v-32z"></path>
  <path fill="#757575" d="M352 384h32v32h-32v-32z"></path>
  <path fill="#a2754e" d="M384 384h32v32h-32v-32z"></path>
</svg>