<!-- Generated by IcoMoon.io -->
<svg version="1.1" 
  xmlns="http://www.w3.org/2000/svg" width="512" height="512" viewBox="0 0 512 512">
  <path fill="#fdfcfb" d="M96 112h32v32h-32v-32z"></path>
  <path fill="#889597" d="M128 112h32v32h-32v-32z"></path>
  <path fill="#fdfcfb" d="M352 112h32v32h-32v-32z"></path>
  <path fill="#889597" d="M384 112h32v32h-32v-32z"></path>
  <path fill="#fdfcfb" d="M128 144h32v32h-32v-32z"></path>
  <path fill="#889597" d="M160 144h32v32h-32v-32z"></path>
  <path fill="#fdfcfb" d="M320 144h32v32h-32v-32z"></path>
  <path fill="#889597" d="M352 144h32v32h-32v-32z"></path>
  <path fill="#fdfcfb" d="M160 176h32v32h-32v-32z"></path>
  <path fill="#889597" d="M192 176h32v32h-32v-32z"></path>
  <path fill="#fdfcfb" d="M288 176h32v32h-32v-32z"></path>
  <path fill="#889597" d="M320 176h32v32h-32v-32z"></path>
  <path fill="#fdfcfb" d="M192 208h32v32h-32v-32z"></path>
  <path fill="#889597" d="M224 208h32v32h-32v-32z"></path>
  <path fill="#fdfcfb" d="M256 208h32v32h-32v-32z"></path>
  <path fill="#889597" d="M288 208h32v32h-32v-32z"></path>
  <path fill="#fdfcfb" d="M224 240h32v32h-32v-32z"></path>
  <path fill="#889597" d="M256 240h32v32h-32v-32z"></path>
  <path fill="#fdfcfb" d="M192 272h32v32h-32v-32z"></path>
  <path fill="#889597" d="M224 272h32v32h-32v-32z"></path>
  <path fill="#fdfcfb" d="M256 272h32v32h-32v-32z"></path>
  <path fill="#889597" d="M288 272h32v32h-32v-32z"></path>
  <path fill="#fdfcfb" d="M160 304h32v32h-32v-32z"></path>
  <path fill="#889597" d="M192 304h32v32h-32v-32z"></path>
  <path fill="#fdfcfb" d="M288 304h32v32h-32v-32z"></path>
  <path fill="#889597" d="M320 304h32v32h-32v-32z"></path>
  <path fill="#fdfcfb" d="M128 336h32v32h-32v-32z"></path>
  <path fill="#889597" d="M160 336h32v32h-32v-32z"></path>
  <path fill="#fdfcfb" d="M320 336h32v32h-32v-32z"></path>
  <path fill="#889597" d="M352 336h32v32h-32v-32z"></path>
  <path fill="#fdfcfb" d="M96 368h32v32h-32v-32z"></path>
  <path fill="#889597" d="M128 368h32v32h-32v-32z"></path>
  <path fill="#fdfcfb" d="M352 368h32v32h-32v-32z"></path>
  <path fill="#889597" d="M384 368h32v32h-32v-32z"></path>
</svg>