<svg xmlns="http://www.w3.org/2000/svg" width="512" height="512" viewBox="0 0 512 512">
  <g>
    <g>
      <rect x="127.57" y="93.05" width="32.05" height="32.05" style="fill: #889597"/>
      <rect x="207.69" y="365.45" width="32.05" height="32.05" style="fill: #889597"/>
      <rect x="335.88" y="365.45" width="32.05" height="32.05" style="fill: #889597"/>
      <polygon points="383.95 125.1 383.95 253.29 191.67 253.29 191.67 125.1 159.62 125.1 159.62 349.43 191.67 349.43 416 349.43 416 317.38 191.67 317.38 191.67 285.33 416 285.33 416 253.29 416 125.1 383.95 125.1" style="fill: #889597"/>
    </g>
    <rect x="95.53" y="93.05" width="32.05" height="32.05" style="fill: #fdfcfb"/>
    <rect x="175.64" y="365.45" width="32.05" height="32.05" style="fill: #fdfcfb"/>
    <rect x="303.83" y="365.45" width="32.05" height="32.05" style="fill: #fdfcfb"/>
    <polygon points="351.9 125.1 351.9 253.29 159.62 253.29 159.62 125.1 127.57 125.1 127.57 349.43 159.62 349.43 383.95 349.43 383.95 317.38 159.62 317.38 159.62 285.33 383.95 285.33 383.95 253.29 383.95 125.1 351.9 125.1" style="fill: #fdfcfb"/>
  </g>
</svg>