<svg xmlns="http://www.w3.org/2000/svg" viewBox="0 0 16 16">
    <polygon fill="#e52521" points="14 4 14 3 13 3 12 3 12 3 11 3 10 3 9 3 8 3 7 3 6 3 5 3 4 3 3 3 5 3 4 3 3 3 3 3 2 3 2 4 1 4 1 4 1 4 1 5 1 6 1 7 1 8 1 9 1 10 1 11 1 12 1 12 1 12 2 12 2 13 3 13 3 13 4 13 5 13 3 13 4 13 5 13 6 13 7 13 8 13 9 13 10 13 11 13 12 13 12 13 13 13 14 13 14 12 15 12 15 12 15 12 15 11 15 10 15 9 15 8 15 7 15 6 15 5 15 4 15 4 15 4 14 4"/>
    <rect fill="#bf1622" x="8.5" y="8" width="1" height="1"/>
    <rect fill="#bf1622" x="7.5" y="9" width="1" height="1"/>
    <rect fill="#bf1622" x="6.5" y="10" width="1" height="1"/>
    <polygon fill="#fff" points="8.5 7 8.5 6 7.5 6 7.5 5 6.5 5 6.5 10 7.5 10 7.5 9 8.5 9 8.5 8 9.5 8 9.5 7 8.5 7"/>
</svg>