<svg xmlns="http://www.w3.org/2000/svg" viewBox="0 0 16 16">
    <polygon fill="#c23b7a" points="1 8 1 9 2 9 2 8 2 7 1 7 1 8"/>
    <polygon fill="#c23b7a" points="4 8 4 9 5 9 5 8 5 7 4 7 4 8"/>
    <polygon fill="#c23b7a" points="11 8 11 9 12 9 12 8 12 7 11 7 11 8"/>
    <polygon fill="#c23b7a" points="14 7 14 8 14 9 15 9 15 8 15 7 14 7"/>
    <polygon fill="#b03986" points="1 6 1 7 2 7 2 6 2 5 1 5 1 6"/>
    <polygon fill="#b03986" points="14 5 14 6 14 7 15 7 15 6 15 5 14 5"/>
    <polygon fill="#b03986" points="11 5 10 5 9 5 7 5 6 5 5 5 5 6 4 6 4 7 5 7 6 7 6 6 7 6 9 6 10 6 10 7 11 7 12 7 12 6 11 6 11 5"/>
    <polygon fill="#844f9c" points="1 4 1 5 2 5 2 4 2 3 1 3 1 4"/>
    <polygon fill="#844f9c" points="14 3 14 4 14 5 15 5 15 4 15 3 14 3"/>
    <rect fill="#844f9c" x="11" y="3" width="2" height="2"/>
    <polygon fill="#f17642" points="1 12 1 13 2 13 2 12 2 11 1 11 1 12"/>
    <polygon fill="#f17642" points="14 11 14 12 14 13 15 13 15 12 15 11 14 11"/>
    <polygon fill="#f17642" points="9 11 7 11 6 11 5 11 5 12 6 12 7 12 9 12 10 12 11 12 11 11 10 11 9 11"/>
    <polygon fill="#e15f4d" points="1 10 1 11 2 11 2 10 2 9 1 9 1 10"/>
    <polygon fill="#e15f4d" points="5 9 4 9 4 10 4 11 5 11 6 11 6 10 5 10 5 9"/>
    <polygon fill="#e15f4d" points="11 10 10 10 10 11 11 11 12 11 12 10 12 9 11 9 11 10"/>
    <polygon fill="#e15f4d" points="14 9 14 10 14 11 15 11 15 10 15 9 14 9"/>
    <polygon fill="#6c59a3" points="14 2 14 1 13 1 12 1 11 1 10 1 9 1 7 1 6 1 5 1 4 1 3 1 2 1 2 2 1 2 1 3 2 3 3 3 3 2 4 2 5 2 6 2 7 2 9 2 10 2 11 2 12 2 13 2 13 3 14 3 15 3 15 2 14 2"/>
    <polygon fill="#f9af65" points="14 13 13 13 13 14 12 14 11 14 10 14 9 14 7 14 6 14 5 14 4 14 3 14 3 13 2 13 1 13 1 14 2 14 2 15 3 15 4 15 5 15 6 15 7 15 9 15 10 15 11 15 12 15 13 15 14 15 14 14 15 14 15 13 14 13"/>
</svg>