<!-- Generated by IcoMoon.io -->
<svg version="1.1" 
  xmlns="http://www.w3.org/2000/svg" width="512" height="512" viewBox="0 0 512 512">
  <path fill="#5a4b3a" d="M96 96h251.52v112h-68.8v-24h45.76v-64h-205.76v64h68.8v24h-91.52z"></path>
  <path fill="#3c3226" d="M347.52 96h22.72v112h-22.72z"></path>
  <path fill="#2f261c" d="M370.24 96h45.76v320h-45.76v-24h23.040v-160h-23.040v-48h23.040v-64h-23.040z"></path>
  <path fill="#9f641c" d="M118.72 120h205.76v24h-205.76z"></path>
  <path fill="#663e11" d="M370.24 120h23.040v24h-23.040z"></path>
  <path fill="#b4701f" d="M118.72 144h23.040v40h-23.040z"></path>
  <path fill="#d08324" d="M141.76 144h182.72v40h-45.76v-24h-91.2v24h-45.76z"></path>
  <path fill="#714413" d="M370.24 144h23.040v40h-23.040z"></path>
  <path fill="#dfdedb" d="M187.52 160h45.76v48h-23.040v-24h-22.72z"></path>
  <path fill="#767676" d="M233.28 160h22.72v40h-22.72z"></path>
  <path fill="#a86a1e" d="M256 160h22.72v24h-22.72z"></path>
  <path fill="#c2c2c2" d="M187.52 184h22.72v24h23.040v48h-45.76z"></path>
  <path fill="#463a2d" d="M256 184h22.72v24h-22.72z"></path>
  <path fill="#606475" d="M233.28 200h22.72v56h-22.72z"></path>
  <path fill="#463a2d" d="M96 208h91.52v24h-68.8v160h205.76v-160h-45.76v-24h68.8v208h-251.52z"></path>
  <path fill="#3b2e26" d="M256 208h22.72v24h-22.72z"></path>
  <path fill="#30281f" d="M347.52 208h22.72v208h-22.72z"></path>
  <path fill="#9f641c" d="M118.72 232h68.8v24h-68.8z"></path>
  <path fill="#9f641c" d="M256 232h68.48v24h-68.48z"></path>
  <path fill="#663e11" d="M370.24 232h23.040v24h-23.040z"></path>
  <path fill="#b4701f" d="M118.72 256h23.040v136h-23.040z"></path>
  <path fill="#d08324" d="M141.76 256h45.76v24h91.2v-24h45.76v136h-182.72z"></path>
  <path fill="#b4701f" d="M187.52 256h91.2v24h-91.2z"></path>
  <path fill="#714413" d="M370.24 256h23.040v120h-23.040z"></path>
  <path fill="#663e11" d="M370.24 376h23.040v16h-23.040z"></path>
</svg>