<!-- Generated by IcoMoon.io -->
<svg version="1.1" 
  xmlns="http://www.w3.org/2000/svg" width="512" height="512" viewBox="0 0 512 512">
  <path d="M416 128v0-48c0.106-1.218 0.167-2.635 0.167-4.067 0-14.796-6.479-28.079-16.755-37.167l-0.053-0.046c-6.956-5.152-15.707-8.248-25.18-8.248-4.022 0-7.913 0.558-11.6 1.6l0.3-0.073-278.080 96c-30.208 5.51-52.807 31.623-52.807 63.014 0 0.346 0.003 0.693 0.008 1.038l-0.001-0.052v224c0 35.346 28.654 64 64 64v0h320c35.346 0 64-28.654 64-64v0-224c0-35.346-28.654-64-64-64v0zM372.48 64c8 0 11.52 8.64 11.52 16.64v47.36h-198.72zM416 448h-320c-17.673 0-32-14.327-32-32v0-224c0-17.673 14.327-32 32-32v0h320c17.673 0 32 14.327 32 32v0 32h-80c-0.875-0.036-1.904-0.056-2.936-0.056-42.592 0-77.12 34.528-77.12 77.12 0 1.033 0.021 2.060 0.060 3.083l-0.005-0.147c-0.036 0.875-0.056 1.904-0.056 2.936 0 42.592 34.528 77.12 77.12 77.12 1.033 0 2.060-0.021 3.083-0.060l-0.147 0.005h80v32c0 17.673-14.327 32-32 32v0zM448 352h-80c-0.788 0.049-1.709 0.077-2.637 0.077-25.096 0-45.44-20.344-45.44-45.44 0-0.928 0.028-1.849 0.082-2.762l-0.006 0.126c-0.049-0.788-0.077-1.709-0.077-2.637 0-25.096 20.344-45.44 45.44-45.44 0.928 0 1.849 0.028 2.762 0.082l-0.126-0.006h80z"></path>
  <path d="M336 304.32c0 17.673 14.327 32 32 32s32-14.327 32-32c0-17.673-14.327-32-32-32v0c-17.673 0-32 14.327-32 32v0zM368 304.32v0z"></path>
</svg>