<svg xmlns="http://www.w3.org/2000/svg" width="16" height="16" viewBox="0 0 16 16">
  <path d="M1.647 13.646l12-12 .707.707-12 12zM6.44 7.56a1.5 1.5 0 0 1 2.12-2.12l.994-.994a2.985 2.985 0 0 0-4.108 4.108zM11 7l-3 3a3 3 0 0 0 3-3z"/>
  <path d="M3.572 10.428l.807-.807A14.325 14.325 0 0 1 2 7.5S5 4 8 4a4.85 4.85 0 0 1 1.674.326l.816-.816A6.69 6.69 0 0 0 8 3C4 3 1 7 1 7v1a12.69 12.69 0 0 0 2.572 2.428zM13 5l-.806.806A14.327 14.327 0 0 1 14 7.5S11 11 8 11a4.322 4.322 0 0 1-.894-.106l-.85.85A6.39 6.39 0 0 0 8 12c4 0 7-4 7-4V7a12.448 12.448 0 0 0-2-2z"/>
</svg>
