<!-- Generated by IcoMoon.io -->
<svg version="1.1" 
  xmlns="http://www.w3.org/2000/svg" width="512" height="512" viewBox="0 0 512 512">
  <path d="M464 64c-130.88 0-185.28 29.44-208 52.16-22.080-22.72-76.16-52.16-208-52.16-8.837 0-16 7.163-16 16v0 288c0 8.837 7.163 16 16 16v0c107.2 0 155.2 19.84 176.32 34.88 0 0 0 0 0 1.6 0.179 15.127 12.393 27.341 27.503 27.52h8.977c14.989-0.354 27.026-12.503 27.2-27.503v-0.017c21.44-15.36 69.76-35.2 176.32-35.2 8.837 0 16-7.163 16-16v0-288c0.033-0.385 0.051-0.832 0.051-1.284 0-8.837-7.163-16-16-16-0.13 0-0.261 0.002-0.391 0.004l0.019-0.001zM64 96c144 2.88 171.52 43.2 175.36 50.88v243.84c-27.52-18.56-79.36-36.8-175.36-38.72zM448 352c-96 1.92-148.16 20.8-176 39.040v-243.84c4.48-8 33.6-48.32 176-51.2z"></path>
</svg>