<!-- Generated by IcoMoon.io -->
<svg version="1.1" 
  xmlns="http://www.w3.org/2000/svg" width="512" height="512" viewBox="0 0 512 512">
  <path d="M480 142.72s0 0 0-1.92c-0.566-2.304-1.447-4.333-2.61-6.163l0.050 0.083-80-96c-2.87-4.090-7.564-6.73-12.875-6.73-0.199 0-0.397 0.003-0.594 0.011l0.029-0.001h-256c-0.005 0-0.011 0-0.017 0-4.883 0-9.245 2.232-12.121 5.732l-0.022 0.028-80 96c-1.667 1.983-2.98 4.329-3.8 6.895l-0.040 0.145s0 0 0 1.92v320c0 8.837 7.163 16 16 16v0h416c8.837 0 16-7.163 16-16v0-320zM135.36 64h241.28l53.12 64h-347.52zM448 448h-384v-288h384z"></path>
</svg>