<!-- Generated by IcoMoon.io -->
<svg version="1.1" 
  xmlns="http://www.w3.org/2000/svg" width="512" height="512" viewBox="0 0 512 512">
  <path d="M346.624 480h-228.829c-16.345 0-30.46-13.373-30.46-30.461v-325.413c0-16.345 13.374-30.46 30.46-30.46h132.988c14.859 0 34.176 8.172 44.577 18.574l62.409 62.408c10.401 10.401 18.574 29.719 18.574 44.577v230.315c0.743 17.088-12.63 30.461-29.719 30.461zM117.794 108.524c-8.915 0-16.345 7.43-16.345 16.345v325.413c0 8.915 7.43 16.345 16.345 16.345h228.829c8.915 0 16.345-7.43 16.345-16.345v-230.315c0-11.144-6.687-26.746-14.115-34.919l-62.409-62.409c-7.43-7.43-23.775-14.115-34.919-14.115h-133.732z"></path>
  <path d="M346.624 203.623h-49.035c-16.345 0-30.461-13.374-30.461-30.46v-49.035c0-14.115 7.43-18.574 14.115-18.574 4.457 0 9.658 2.23 14.115 7.43l62.409 62.409c8.915 8.915 7.43 15.602 5.943 19.316 0 2.971-4.457 8.915-17.088 8.915zM281.986 119.668c0 0.743-0.743 2.23-0.743 4.457v49.035c0 8.915 7.43 16.345 16.345 16.345h49.035c2.229 0 3.714-0.743 4.457-0.743 0-0.743-0.743-2.23-2.971-3.714l-62.409-62.409c-1.486-2.23-2.971-2.972-3.714-2.972z"></path>
  <path d="M370.398 152.358c-2.229 0-3.714-0.743-5.2-2.23l-48.291-54.236c-1.486-2.23-2.229-5.201-1.486-7.43 1.486-2.23 3.714-4.457 6.687-4.457h17.088v-45.321c0-3.715 2.971-6.687 6.687-6.687h47.548c3.714 0 6.687 2.972 6.687 6.687v45.321h17.088c2.971 0 5.2 1.486 6.687 4.457 1.486 2.23 0.743 5.201-1.486 7.43l-48.291 54.236c0 1.486-2.229 2.23-3.714 2.23zM337.708 98.123l32.69 37.147 32.69-37.148h-8.915c-3.714 0-6.687-2.972-6.687-6.687v-45.321h-34.176v45.321c0 3.715-2.971 6.687-6.687 6.687-0.743 0-8.915 0-8.915 0z"></path>
  <path d="M177.973 407.935h-11.887v18.574c0 2.971-0.743 4.457-1.486 5.943-1.486 1.486-2.971 2.229-4.458 2.229-2.23 0-3.714-0.743-4.458-2.229-1.486-1.486-1.486-2.971-1.486-5.943v-49.778c0-2.971 0.743-5.2 2.23-5.943 1.486-1.486 3.714-1.486 5.944-1.486h17.088c5.201 0 8.915 0.743 11.144 1.486 2.971 0.743 5.201 2.229 6.687 3.714 2.23 1.486 3.714 3.714 4.458 5.944s1.486 5.2 1.486 8.173c0 6.687-2.23 11.887-5.944 14.859-5.201 2.971-11.144 4.457-19.316 4.457zM175.001 378.216h-8.915v19.317h8.915c2.971 0 5.944 0 7.43-0.743 2.23-0.743 3.714-1.486 4.458-2.971s1.486-3.714 1.486-5.944c0-2.971-0.743-5.2-2.23-6.687s-5.201-2.971-11.144-2.971z"></path>
  <path d="M221.065 368.558h17.088c4.458 0 8.172 0.743 11.144 1.486s5.944 2.229 8.915 4.457c6.687 5.943 10.401 14.115 10.401 26.003 0 3.714 0 7.43-0.743 10.401s-1.486 5.943-2.971 8.915c-1.486 2.229-2.971 5.2-5.2 6.687-1.486 1.486-3.714 2.971-5.944 3.714s-4.458 1.486-6.687 2.229c-2.23 0.743-5.201 0.743-8.172 0.743h-17.088c-2.23 0-4.458 0-5.201-0.743s-2.23-1.486-2.23-2.971c0-1.486-0.743-2.971-0.743-5.2v-47.548c0-2.971 0.743-5.2 2.23-5.943 0-1.486 2.23-2.229 5.201-2.229zM226.266 378.959v43.834h9.658c2.23 0 3.714 0 5.201 0s2.23-0.743 3.714-0.743c1.486-0.743 2.23-1.486 3.714-2.229 4.458-3.714 6.687-10.401 6.687-19.317 0-6.687-0.743-11.144-2.971-14.115s-4.458-5.2-7.43-5.943c-2.971-0.743-5.944-1.486-10.401-1.486h-8.172z"></path>
  <path d="M317.649 378.959h-26.003v16.345h21.546c2.229 0 3.714 0.743 4.457 1.486s1.486 2.229 1.486 3.714c0 1.486-0.743 2.971-1.486 3.714s-2.229 1.486-4.457 1.486h-21.546v21.546c0 2.971-0.743 4.457-1.486 5.944s-2.971 2.229-4.457 2.229c-2.229 0-3.714-0.743-4.457-2.229-1.486-1.486-1.486-2.971-1.486-5.943v-49.778c0-2.229 0-3.714 0.743-4.457 0.743-1.486 1.486-2.229 2.971-2.229 1.486-0.743 2.971-0.743 4.457-0.743h30.461c2.229 0 3.714 0.743 4.457 1.486s1.486 2.229 1.486 3.714c0 1.486-0.743 2.971-1.486 3.714-1.486-0.743-2.971 0-5.2 0z"></path>
  <path d="M143.798 347.755c-6.687 0-12.631-3.714-14.859-8.915-3.715-9.658 1.486-23.031 15.602-36.404 11.144-10.401 26.003-19.317 44.577-26.003 10.401-18.574 19.316-38.633 26.003-55.721-14.115-22.288-17.088-49.778-11.887-65.38 2.971-9.658 8.915-14.115 13.374-14.859 5.944-2.23 11.887-0.743 15.602 3.714 5.944 6.687 8.173 20.059 6.687 40.862-0.743 8.173-3.714 19.316-8.173 33.433 0 0 0.743 0.743 0.743 0.743 2.971 3.714 6.687 8.173 10.401 13.374 8.173 9.658 16.345 20.803 25.26 30.46 2.971 0 5.2 0 7.43 0 31.204 0 52.749 6.687 59.436 18.574 2.971 5.2 2.971 11.144 0 15.602-3.714 6.687-11.887 10.401-22.288 10.401v0c-2.229 0-5.2 0-7.43-0.743-12.63-2.229-26.746-11.887-43.834-29.719-4.458 0-8.915 0.743-13.374 0.743-10.401 0.743-29.719 3.714-49.035 9.658-8.173 15.602-26.746 46.063-40.12 54.978-4.458 2.971-9.658 5.2-14.115 5.2zM177.973 295.748c-9.658 4.457-17.831 10.401-23.775 16.345-11.887 11.887-13.374 19.317-12.631 20.803 0 0.743 0.743 0.743 1.486 0.743 2.23 0 5.201-0.743 7.43-2.971 6.687-3.714 17.088-17.088 27.489-34.919zM281.245 276.432c10.401 9.658 19.317 14.859 26.746 16.345 1.486 0 3.714 0.743 5.2 0.743 0 0 0 0 0 0 5.2 0 8.915-2.229 10.401-3.714 0 0 0.743-0.743 0-1.486-2.971-4.457-14.859-11.144-42.348-11.887zM225.523 233.34c-5.201 11.887-10.401 24.518-17.088 37.891 15.602-3.714 30.46-5.943 38.633-6.687 0.743 0 2.23 0 2.971 0-6.687-8.173-13.374-15.602-18.574-23.031-2.23-3.714-4.458-5.944-5.944-8.173zM221.807 152.358c-0.743 0-0.743 0 0 0-2.23 0.743-3.714 2.971-5.201 6.687-2.971 10.401-2.23 27.489 5.201 43.091 2.23-7.43 3.714-14.115 3.714-18.574 1.486-23.031-2.23-29.719-3.714-31.203 0 0 0 0 0 0z"></path>
</svg>
