<svg xmlns="http://www.w3.org/2000/svg" width="32" height="32" viewBox="0 0 32 32"><path d="M16.533 5.733V2l10 5.733.533-.8-11.067-6.4-10.933 6.4.533.8 10-5.733v3.867L4.799 12v12.933l11.2 6.533 11.2-6.533V12L16.532 5.733zM15.067 18.4l-9.2 5.333V13.066l9.2 5.333zm.4.933V30l-9.333-5.333 9.333-5.333zm1.066 0l9.333 5.333-9.333 5.333V19.332zm.4-.933l9.2-5.333V23.6l-9.2-5.2zm-.4-4.8V6.933l9.333 5.333-9.867 5.6-9.733-5.6 9.333-5.333V13.6h.933z"/><path d="M16 32L4.267 25.2V11.733l10.8-6.267V2.799l-9.733 5.6-.933-1.733 11.6-6.667 11.6 6.667-.933 1.733-9.733-5.6v2.8l10.8 6.267v13.467L16.002 32zM5.2 24.667L16 30.934l10.8-6.267v-12.4L16 6V1.2l10.267 6L16 1.067l-10.4 6L16 1.2v4.933L5.2 12.266v12.4zM16 30.8V18.533l10.667 6.133L16 30.799zm.933-10.667V29.2l7.867-4.533-7.867-4.533zM16 30.8L5.333 24.667 16 18.534v12.267zm-8.933-6.133l7.867 4.533v-9.067l-7.867 4.533zm-1.734-.134V12.4L16 18.533l-10.667 6zM6.267 14v8.933l7.867-4.533L6.267 14zm20.4 10.533L16 18.4l10.667-6.133v12.267zM18 18.4l7.867 4.533V14L18 18.4zm-2 0L5.333 12.267 16 6.134l10.667 6.133L16 18.4zm-8.8-6.133l8.8 5.067 8.8-5.067-7.867-4.533v6.267h-1.867V7.734l-7.867 4.533z"/></svg>