<svg xmlns="http://www.w3.org/2000/svg" width="32" height="32" viewBox="0 0 32 32"><path d="M16 11.2l4.267 2.4v4.8L16 20.8l-4.267-2.4v-4.8L16 11.2zm0-2.133l-6.133 3.467v6.933L16 22.934l6.133-3.467v-6.933L16 9.067z"/><path fill="none" stroke="#000" stroke-width="1.867" stroke-miterlimit="10" d="M10.8 12.933L16 16l5.067-2.8M16 16.133v6.133"/><path d="M4.533 4.4h22.933V14h1.867V2.533H2.666v6.8h1.867z"/><path d="M28.4 20.8l2.933-2.8v-2.4l-2 1.867V12.8h-1.867v4.667l-2-1.867v2.533zm-.933 6.8H4.534V18H2.667v11.467h26.667v-6.8h-1.867z"/><path d="M3.6 11.2L.667 14v2.4l2-1.867V19.2h1.867v-4.667l2 1.867v-2.533z"/></svg>