<!-- Generated by IcoMoon.io -->
<svg version="1.1" 
  xmlns="http://www.w3.org/2000/svg" width="512" height="512" viewBox="0 0 512 512">
  <path d="M384 192v-160h-352v448h448v-288zM64 448v-384h288v128h-64v256zM448 448h-128v-224h128z"></path>
  <path d="M229.44 400c0 11.841-9.599 21.44-21.44 21.44s-21.44-9.599-21.44-21.44c0-11.841 9.599-21.44 21.44-21.44s21.44 9.599 21.44 21.44z"></path>
  <path d="M405.44 400c0 11.841-9.599 21.44-21.44 21.44s-21.44-9.599-21.44-21.44c0-11.841 9.599-21.44 21.44-21.44s21.44 9.599 21.44 21.44z"></path>
</svg>