<svg xmlns="http://www.w3.org/2000/svg" width="16" height="16" viewBox="0 0 16 16">
  <polygon points="1 3 1 4 0 4 0 5 1 5 1 6 2 6 2 3 1 3"/>
  <rect x="2" y="2" width="1" height="1"/>
  <rect x="3" y="1" width="2" height="1"/>
  <rect x="9" y="1" width="2" height="1"/>
  <rect x="11" y="2" width="1" height="1"/>
  <polygon points="13 4 13 3 12 3 12 6 13 6 13 5 14 5 14 4 13 4"/>
  <rect x="2" y="6" width="1" height="1"/>
  <rect x="3" y="7" width="2" height="1"/>
  <rect x="5" y="8" width="4" height="1"/>
  <rect x="9" y="7" width="2" height="1"/>
  <rect x="11" y="6" width="1" height="1"/>
  <polygon points="6 2 8 2 8 1 9 1 9 0 5 0 5 1 6 1 6 2"/>
  <rect x="8" y="2" width="1" height="1"/>
  <rect x="5" y="2" width="1" height="1"/>
  <rect x="9" y="3" width="1" height="2"/>
  <rect x="8" y="5" width="1" height="1"/>
  <rect x="4" y="3" width="1" height="2"/>
  <rect x="5" y="5" width="1" height="1"/>
  <rect x="6" y="6" width="2" height="1"/>
</svg>
