<svg xmlns="http://www.w3.org/2000/svg" width="16" height="16" viewBox="0 0 16 16">
  <polygon points="2 6 2 7 1 7 1 8 2 8 2 9 3 9 3 6 2 6"/>
  <rect x="3" y="5" width="1" height="1"/>
  <rect x="4" y="4" width="2" height="1"/>
  <rect x="10" y="4" width="2" height="1"/>
  <rect x="12" y="5" width="1" height="1"/>
  <polygon points="14 7 14 6 13 6 13 9 14 9 14 8 15 8 15 7 14 7"/>
  <rect x="3" y="9" width="1" height="1"/>
  <rect x="4" y="10" width="2" height="1"/>
  <rect x="6" y="11" width="4" height="1"/>
  <rect x="10" y="10" width="2" height="1"/>
  <rect x="12" y="9" width="1" height="1"/>
  <polygon points="7 5 9 5 9 4 10 4 10 3 6 3 6 4 7 4 7 5"/>
  <rect x="9" y="5" width="1" height="1"/>
  <rect x="6" y="5" width="1" height="1"/>
  <rect x="10" y="6" width="1" height="2"/>
  <rect x="9" y="8" width="1" height="1"/>
  <rect x="5" y="6" width="1" height="2"/>
  <rect x="6" y="8" width="1" height="1"/>
  <rect x="7" y="9" width="2" height="1"/>
</svg>
