<svg version="1.1" xmlns="http://www.w3.org/2000/svg" width="512" height="512" viewBox="0 0 512 512">
    <path d="M32 32h64v64h-64v-64z"></path>
    <path d="M416 32h64v64h-64v-64z"></path>
    <path d="M96 96h64v64h-64v-64z"></path>
    <path d="M352 96h64v64h-64v-64z"></path>
    <path d="M160 160h64v64h-64v-64z"></path>
    <path d="M288 160h64v64h-64v-64z"></path>
    <path d="M224 224h64v64h-64v-64z"></path>
    <path d="M288 288h64v64h-64v-64z"></path>
    <path d="M160 288h64v64h-64v-64z"></path>
    <path d="M352 352h64v64h-64v-64z"></path>
    <path d="M96 352h64v64h-64v-64z"></path>
    <path d="M32 416h64v64h-64v-64z"></path>
    <path d="M416 416h64v64h-64v-64z"></path>
</svg>
