<svg xmlns="http://www.w3.org/2000/svg" width="16" height="16" viewBox="0 0 16 16">
  <polygon points="2 6 2 7 1 7 1 8 2 8 2 9 3 9 3 6 2 6"/>
  <rect x="3" y="5" width="1" height="1"/>
  <rect x="4" y="4" width="2" height="1"/>
  <rect x="12" y="5" width="1" height="1"/>
  <polygon points="14 7 14 6 13 6 13 9 14 9 14 8 15 8 15 7 14 7"/>
  <rect x="3" y="9" width="1" height="1"/>
  <rect x="6" y="11" width="4" height="1"/>
  <rect x="10" y="10" width="2" height="1"/>
  <rect x="12" y="9" width="1" height="1"/>
  <polygon points="12 2 12 3 11 3 11 4 10 4 10 5 9 5 9 6 8 6 8 5 9 5 9 4 10 4 10 3 6 3 6 4 7 4 7 5 6 5 6 6 5 6 5 8 6 8 6 9 5 9 5 10 4 10 4 11 3 11 3 12 2 12 2 13 4 13 4 12 5 12 5 11 6 11 6 10 7 10 8 10 9 10 9 9 10 9 10 8 11 8 11 7 11 6 11 5 12 5 12 4 13 4 13 3 14 3 14 2 12 2"/>
</svg>
