<svg width="16px" height="16px" viewBox="0 0 16 16" version="1.1" xmlns="http://www.w3.org/2000/svg">
    <title>Check</title>
    <g id="Check" stroke="none" stroke-width="1">
        <rect id="Rectangle-pixel-check" opacity="0" x="0" y="0" width="16" height="16"></rect>
        <polygon id="Path" fill-rule="nonzero" points="11 5 11 4 13 4 13 6 12 6 12 7 11 7 11 8 10 8 10 9 9 9 9 10 8 10 8 11 7 11 7 12 5 12 5 11 4 11 4 10 3 10 3 8 5 8 5 9 7 9 7 8 8 8 8 7 9 7 9 6 10 6 10 5"></polygon>
    </g>
</svg>