<svg xmlns="http://www.w3.org/2000/svg" width="16" height="16" viewBox="0 0 16 16">
  <g>
    <path d="M2.49,1.29h7.82v.18h.18V6.09h-.36V2H2.67V12.49h6v1.6H2.49v-.18H2.31V1.47h.18Z" fill="#dae7e1"/>
    <path d="M5,1.47h.36v.36H5Zm.71,0H6.94v.36H5.69Z" fill="#9f9fa8"/>
    <path d="M2.67,2h7.46v.36H2.67Z" fill="#1e7495"/>
    <path d="M2.67,2.36H3v9.78H2.67Z" fill="#2181a5"/>
    <path d="M3,2.36H9.78v.35H8.36V4.14H9.78v.35H8.36V5.91H9.78v.18H8.89v.18H8.36V7.69h.35v.36H8.36V9.47h.35v.35H8.36v1.43h.35v.89H3v-.89H4.45V9.82H3V9.47H4.45V8.05H3V7.69H4.45V6.27H3V5.91H4.45V4.49H3V4.14H4.45V2.71H3Z" fill="#2ba6d5"/>
    <path d="M9.78,2.36h.35V6.09H9.78Z" fill="#2181a5"/>
    <path d="M3,2.71H3.2v.18H3Z" fill="#81c351"/>
    <path d="M3.2,2.71h.18v.18H3.2Z" fill="#6caf3c"/>
    <path d="M3.38,2.71h.18v.18H3.38Z" fill="#79ba48"/>
    <path d="M3.56,2.71h.18v.18H3.56Z" fill="#81c351"/>
    <path d="M3.74,2.71h.17v.18H3.74Z" fill="#79ba48"/>
    <path d="M3.91,2.71h.18v.18H3.91Z" fill="#6fb03d"/>
    <path d="M4.09,2.71h.18v.18H4.09Z" fill="#69ab37"/>
    <path d="M4.27,2.71h.18v.18H4.27Z" fill="#77b946"/>
    <path d="M4.8,2.71H6.22v.54H5.87V3.07H5.34v.18H5.16v.18H4.8Z" fill="#f69f3a"/>
    <path d="M6.58,2.71H8v.72H7.82V3.25H6.76v.18H6.58Z" fill="#a05307"/>
    <path d="M8.36,2.71H9.78V4.14H8.36Z" fill="#5a4b3a"/>
    <path d="M3,2.89H3.2v.18H3Z" fill="#6aae3a"/>
    <path d="M3.2,2.89h.18v.18H3.2Z" fill="#79ba48"/>
    <path d="M3.38,2.89h.18v.18H3.38Z" fill="#6aae3a"/>
    <path d="M3.56,2.89h.18v.18H3.56Z" fill="#5a381e"/>
    <path d="M3.74,2.89h.17v.18H3.74Z" fill="#8bcd5d"/>
    <path d="M3.91,2.89h.18v.18H3.91Z" fill="#a6d674"/>
    <path d="M4.09,2.89h.18v.18H4.09Z" fill="#5ca028"/>
    <path d="M4.27,2.89h.18v.18H4.27Z" fill="#81c351"/>
    <path d="M8.53,2.89H9.6v.36H9.25V3.07H8.89v.18H8.53Z" fill="#d08324"/>
    <path d="M3,3.07H3.2v.18H3Z" fill="#805838"/>
    <path d="M3.2,3.07h.18v.18H3.2Z" fill="#81c351"/>
    <path d="M3.38,3.07h.18v.18H3.38Z" fill="#4f5f76"/>
    <path d="M3.56,3.07h.18v.18H3.56Z" fill="#805838"/>
    <path d="M3.74,3.07h.17v.18H3.74Z" fill="#5a381e"/>
    <path d="M3.91,3.07h.18v.18H3.91Z" fill="#757575"/>
    <path d="M4.09,3.07h.18v.18H4.09Z" fill="#6fb03d"/>
    <path d="M4.27,3.07h.18v.18H4.27Z" fill="#5a381e"/>
    <path d="M5.34,3.07h.53v.18h.35v.89H4.8V3.43H5V3.6h.36V3.43H5.16V3.25h.18Z" fill="#fcd8b0"/>
    <path d="M8.89,3.07h.36V3.6H8.89Z" fill="#c2c2c2"/>
    <path d="M3,3.25H3.2V3.6H3Z" fill="#a2754e"/>
    <path d="M3.2,3.25h.18v.18H3.2Z" fill="#805838"/>
    <path d="M3.38,3.25h.18v.18H3.38Z" fill="#5a381e"/>
    <path d="M3.56,3.25h.18v.18H3.56Z" fill="#c69065"/>
    <path d="M3.74,3.25h.17v.18H3.74Z" fill="#805838"/>
    <path d="M3.91,3.25h.18v.18H3.91Z" fill="#c69065"/>
    <path d="M4.09,3.25h.18v.18H4.09Z" fill="#a2754e"/>
    <path d="M4.27,3.25h.18v.18H4.27Z" fill="#805838"/>
    <path d="M6.76,3.25H7.82v.18H7.47V3.6H7.11V3.43H6.76Z" fill="#fac28c"/>
    <path d="M3.2,3.43h.18V3.6H3.2Z" fill="#c69065"/>
    <path d="M3.38,3.43h.18V3.6H3.38Z" fill="#805838"/>
    <path d="M3.56,3.43h.18V3.6H3.56Z" fill="#a2754e"/>
    <path d="M3.74,3.43h.17V3.6H3.74Z" fill="#c69065"/>
    <path d="M3.91,3.43h.18V3.6H3.91Z" fill="#a2754e"/>
    <path d="M4.09,3.43h.18V3.6H4.09Z" fill="#805838"/>
    <path d="M4.27,3.43h.18V3.6H4.27Z" fill="#a2754e"/>
    <path d="M5,3.43h.18V3.6H5Z" fill="#fffff6"/>
    <path d="M5.16,3.43h.18V3.6H5.16Zm.53,0h.18V3.6H5.69Z" fill="#679c2e"/>
    <path d="M5.87,3.43h.18V3.6H5.87Z" fill="#fffff6"/>
    <path d="M6.58,3.43h.18V3.6h.35v.18H6.94v.36H6.58Z" fill="#fac28c"/>
    <path d="M6.76,3.43h.18V3.6H6.76Z" fill="#fffff6"/>
    <path d="M6.94,3.43h.17V3.6H6.94Zm.53,0h.18V3.6H7.47Z" fill="#a549c6"/>
    <path d="M7.65,3.43h.17V3.6H7.65Z" fill="#fffff6"/>
    <path d="M7.82,3.43H8v.71H7.65V3.78H7.47V3.6h.35Z" fill="#fac28c"/>
    <path d="M8.53,3.43h.36V3.6h.36V3.43H9.6V4H8.53Z" fill="#d08324"/>
    <path d="M3,3.6H3.2V4H3Z" fill="#805838"/>
    <path d="M3.2,3.6h.18v.18H3.2Z" fill="#5a381e"/>
    <path d="M3.38,3.6h.18v.18H3.38Z" fill="#a2754e"/>
    <path d="M3.56,3.6h.18v.18H3.56Z" fill="#757575"/>
    <path d="M3.74,3.6h.35v.18H3.74Z" fill="#805838"/>
    <path d="M4.09,3.6h.18v.18H4.09Z" fill="#a2754e"/>
    <path d="M4.27,3.6h.18v.18H4.27Z" fill="#c69065"/>
    <path d="M7.11,3.6h.36v.18H7.11Z" fill="#f6854a"/>
    <path d="M3.2,3.78h.18V4H3.2Z" fill="#a2754e"/>
    <path d="M3.38,3.78h.18V4H3.38Z" fill="#805838"/>
    <path d="M3.56,3.78h.18V4H3.56Z" fill="#5a381e"/>
    <path d="M3.74,3.78h.35V4H3.74Z" fill="#a2754e"/>
    <path d="M4.09,3.78h.18V4H4.09Z" fill="#5a381e"/>
    <path d="M4.27,3.78h.18V4H4.27Z" fill="#a2754e"/>
    <path d="M5.34,3.78h.35V4H5.34Z" fill="#f9a194"/>
    <path d="M6.94,3.78h.17V4h.36V3.78h.18v.36H6.94Z" fill="#a05307"/>
    <path d="M7.11,3.78h.36V4H7.11Z" fill="#fac28c"/>
    <path d="M3,4H3.2v.18H3Z" fill="#c69065"/>
    <path d="M3.2,4h.18v.18H3.2Z" fill="#805838"/>
    <path d="M3.38,4h.36v.18H3.38Z" fill="#a2754e"/>
    <path d="M3.74,4h.17v.18H3.74Z" fill="#c69065"/>
    <path d="M3.91,4h.18v.18H3.91Z" fill="#805838"/>
    <path d="M4.09,4h.18v.18H4.09Z" fill="#757575"/>
    <path d="M4.27,4h.18v.18H4.27Z" fill="#c69065"/>
    <path d="M3,4.49H4.45V5.91H3.91V5.56h.36V5.2H3.2v.36h.36v.35H3Z" fill="#fac28c"/>
    <path d="M4.8,4.49H6.22v.89H5.69v.18h.53v.35H4.8V5.56h.54V5.38H4.8Z"/>
    <path d="M6.58,4.49H8v.36H7.65V4.67H7.29v.18H6.76V5H6.58Z" fill="#157b4a"/>
    <path d="M8.36,4.49H9.78v.36H9.42V4.67H8.89v.18H8.53V5H8.36Z" fill="#9b9b9b"/>
    <path d="M7.29,4.67h.36v.18H8v.89H7.65V5.56H7.47V5.38H7.11V5.2H6.76v.18h.35v.18H6.94v.18H6.58V5h.18V4.85h.53Z" fill="#7aa826"/>
    <path d="M8.89,4.67h.53v.18h.36V5.91H8.36V5h.17V4.85h.36Z" fill="#cfcfcf"/>
    <path d="M3.2,5.2H4.27v.18H3.2Z" fill="#c69065"/>
    <path d="M6.76,5.2h.35v.18H6.76Zm.71,0h.35v.18H7.47Z" fill="#2c2213"/>
    <path d="M8.53,5.2h.36v.18H8.53Zm.72,0H9.6v.18H9.25Z" fill="#494949"/>
    <path d="M3.2,5.38h.18v.18H3.2Z" fill="#fffff6"/>
    <path d="M3.38,5.38h.18v.18H3.38Z" fill="#679c2e"/>
    <path d="M3.56,5.38h.35v.53H3.56Z" fill="#a05307"/>
    <path d="M3.91,5.38h.18v.18H3.91Z" fill="#679c2e"/>
    <path d="M4.09,5.38h.18v.18H4.09Zm.71,0H5v.18H4.8Z" fill="#fffff6"/>
    <path d="M5,5.38h.18v.18H5Z" fill="#c74ebd"/>
    <path d="M5.16,5.38h.18v.18H5.16Zm.53,0h.18v.18H5.69Z" fill="#fffff6"/>
    <path d="M5.87,5.38h.18v.18H5.87Z" fill="#c74ebd"/>
    <path d="M6.05,5.38h.17v.18H6.05Z" fill="#fffff6"/>
    <path d="M7.11,5.38h.36v.18H7.11Z" fill="#157b4a"/>
    <path d="M8.71,5.38h.18v.18H8.71Z" fill="#cacaca"/>
    <path d="M8.89,5.38h.36v.18H8.89Z" fill="#9b9b9b"/>
    <path d="M6.94,5.56h.17v.18h.36V5.56h.18v.18H8v.17H6.58V5.74h.36Z" fill="#157b4a"/>
    <path d="M7.11,5.56h.36v.18H7.11Z" fill="#7aa826"/>
    <path d="M8.53,5.56H9.6v.18H8.53Z" fill="#494949"/>
    <path d="M8.89,6.09h.89v.18H8.89Z" fill="#1e6e8d"/>
    <path d="M9.78,6.09h.35v.36H9.78Z" fill="#17566d"/>
    <path d="M10.13,6.09h.36v.36h-.36Z" fill="#909894"/>
    <path d="M3,6.27H3.2v.18h.36v.18H3.38V6.8H3Z" fill="#9f9fa8"/>
    <path d="M3.2,6.27h.71v.18H3.2Z" fill="#b3b3b9"/>
    <path d="M3.91,6.27h.36v.18h.18V7H4.27V6.63H3.91Z" fill="#9f9fa8"/>
    <path d="M4.27,6.27h.18v.18H4.27Z" fill="#b3b3b9"/>
    <path d="M4.8,6.27H6.22V7.69H6.05V7.16H5v.53H4.8Z" fill="#bc9862"/>
    <path d="M6.58,6.27H8V6.8H7.65V7H6.94V6.8H6.58Z" fill="#fdaca9"/>
    <path d="M8.36,6.27h.35V6.8H8.36Z" fill="#c7c7c7"/>
    <path d="M8.71,6.27h.18v.18h.18V6.8H8.89V7H8.71Z" fill="#838383"/>
    <path d="M8.89,6.27h.36v.36H9.07V6.45H8.89Z" fill="#2a4410"/>
    <path d="M9.25,6.27h.53v.18H9.25Z" fill="#a77270"/>
    <path d="M3.56,6.45h.35V6.8H3.38V6.63h.18Z" fill="#d13d41"/>
    <path d="M5,6.45h.36v.18H5Z" fill="#2c2213"/>
    <path d="M5.34,6.45h.17V6.8H5.34Z" fill="#758e11"/>
    <path d="M5.51,6.45h.54v.18H5.51Z" fill="#2c2213"/>
    <path d="M9.25,6.45h4.62v.18H14v7.1h-.17v.18H9.25v-.18H9.07V6.63h.18Z" fill="#dae7e1"/>
    <path d="M3.91,6.63h.36V6.8H3.91Z" fill="#b3b3b9"/>
    <path d="M5,6.63h.18V7H5Z" fill="#118e6b"/>
    <path d="M5.16,6.63h.18V7H5.16Z" fill="#315b8e"/>
    <path d="M5.51,6.63h.18V7H5.51Z" fill="#bc1616"/>
    <path d="M5.69,6.63h.18V7H5.69Z" fill="#758e11"/>
    <path d="M5.87,6.63h.18V7H5.87Z" fill="#118e6b"/>
    <path d="M10.13,6.63h.36V7h-.36Zm.72,0h1.24V7H10.85Z" fill="#9f9fa8"/>
    <path d="M3,6.8h.72V7H3Z" fill="#b3b3b9"/>
    <path d="M3.74,6.8h.35V7H3.91v.18h.54v.18H4.27v.17h.18v.18H3V7h.36v.18h.36Z" fill="#9f9fa8"/>
    <path d="M4.09,6.8h.18V7H4.09Z" fill="#d13d41"/>
    <path d="M5.34,6.8h.17V7H5.34Z" fill="#595959"/>
    <path d="M6.58,6.8h.18V7H6.58Z" fill="#000"/>
    <path d="M6.76,6.8h.18V7H6.76Zm.89,0h.17V7H7.65Z" fill="#fff"/>
    <path d="M7.82,6.8H8V7H7.82Z" fill="#000"/>
    <path d="M8.36,6.8h.17V7H8.36Z" fill="#192018"/>
    <path d="M8.53,6.8h.18V7H8.53Z" fill="#203908"/>
    <path d="M8.89,6.8h.18v.89H8.71V7h.18Z" fill="#2a4410"/>
    <path d="M3.38,7h.36v.18H3.38Z" fill="#d13d41"/>
    <path d="M3.91,7h.54v.18H3.91Z" fill="#b3b3b9"/>
    <path d="M6.58,7h.36v.53h.71V7H8v.71H6.58Z" fill="#fdaca9"/>
    <path d="M6.94,7h.53v.18H6.94Z" fill="#ffccce"/>
    <path d="M7.47,7h.18v.18H7.47Z" fill="#ffcdcf"/>
    <path d="M8.36,7h.35v.36H8.36Z" fill="#c7c7c7"/>
    <path d="M5,7.16h.89v.18H5Z" fill="#2c2213"/>
    <path d="M5.87,7.16h.18v.53H5.87Z" fill="#315b8e"/>
    <path d="M6.94,7.16h.17v.18H6.94Z" fill="#a04a49"/>
    <path d="M7.11,7.16h.36v.18H7.11Z" fill="#fdaca9"/>
    <path d="M7.47,7.16h.18v.18H7.47Z" fill="#a04a49"/>
    <path d="M9.42,7.16h4.27v.35H9.42Z" fill="#1e7495"/>
    <path d="M3.2,7.34h.36v.17H3.2Z" fill="#b3b3b9"/>
    <path d="M3.74,7.34h.17v.17H3.74Z" fill="#d13d41"/>
    <path d="M4.27,7.34h.18v.17H4.27Z" fill="#b3b3b9"/>
    <path d="M5,7.34h.18v.35H5Z" fill="#632805"/>
    <path d="M5.16,7.34h.18v.35H5.16Z" fill="#bc1616"/>
    <path d="M5.34,7.34h.17v.17H5.34Z" fill="#3f2e18"/>
    <path d="M5.51,7.34h.18v.17H5.51Z" fill="#b5b5b5"/>
    <path d="M5.69,7.34h.18v.35H5.69Z" fill="#bc1616"/>
    <path d="M6.94,7.34h.71v.17H6.94Z" fill="#ffccce"/>
    <path d="M8.36,7.34h.35v.35H8.53V7.51H8.36Z" fill="#3e6516"/>
    <path d="M5.34,7.51h.17v.18H5.34Z" fill="#758e11"/>
    <path d="M5.51,7.51h.18v.18H5.51Z" fill="#a89b0a"/>
    <path d="M8.36,7.51h.17v.18H8.36Z" fill="#c7c7c7"/>
    <path d="M9.42,7.51h.36v4.63H9.42Z" fill="#2181a5"/>
    <path d="M9.78,7.51h.89v.54h-.36v.17h.36V8.4H9.78V8.22h.35V8.05H9.78Z" fill="#000"/>
    <path d="M10.67,7.51H11V8.4h.89V7.51h.36V8.4h.89V7.51h.17v4.63H9.78V12h.89v-.89H9.78v-.36h.89V9.82H9.78V9.47h.89V8.58H9.78V8.4h.89Z" fill="#2ba6d5"/>
    <path d="M11,7.51h.36v.18H11Z" fill="#79ba48"/>
    <path d="M11.38,7.51h.35v.18h-.35Z" fill="#81c351"/>
    <path d="M11.73,7.51h.18v.18h-.18Z" fill="#79ba48"/>
    <path d="M12.27,7.51h.18v.18h.17v.18h-.35Z" fill="#9f9fa8"/>
    <path d="M12.45,7.51h.35v.18h-.35Z" fill="#b3b3b9"/>
    <path d="M12.8,7.51H13v.18h.18v.18H13v.18H12.8v.17h.36V8.4h-.54V7.87h.18Z" fill="#9f9fa8"/>
    <path d="M13,7.51h.18v.18H13Z" fill="#b3b3b9"/>
    <path d="M13.33,7.51h.36v4.63h-.36Z" fill="#2181a5"/>
    <path d="M8.71,7.69h.36v.36H8.71Z" fill="#1e6e8d"/>
    <path d="M11,7.69h.18v.18H11Z" fill="#825131"/>
    <path d="M11.2,7.69h.18v.18H11.2Z" fill="#5a381e"/>
    <path d="M11.38,7.69h.18v.18h-.18Z" fill="#825131"/>
    <path d="M11.56,7.69h.17v.18h-.17Z" fill="#5a381e"/>
    <path d="M11.73,7.69h.18v.18h-.18Z" fill="#825131"/>
    <path d="M12.62,7.69h.18v.18h-.18Z" fill="#d13d41"/>
    <path d="M11,7.87h.18v.18H11Z" fill="#5a381e"/>
    <path d="M11.2,7.87h.18v.18H11.2Z" fill="#9f9fa8"/>
    <path d="M11.38,7.87h.18v.18h-.18Z" fill="#5a381e"/>
    <path d="M11.56,7.87h.17v.18h-.17Z" fill="#a2754e"/>
    <path d="M11.73,7.87h.18v.18h-.18Z" fill="#5a381e"/>
    <path d="M12.27,7.87h.35v.18h-.35Z" fill="#b3b3b9"/>
    <path d="M13,7.87h.18v.18H13Z" fill="#d13d41"/>
    <path d="M3,8.05H4.45V9.47H4.09V8.94H3.91V8.76H3.56V8.4H3.2v.36h.36v.18H3.38v.53H3Z" fill="#7aa826"/>
    <path d="M4.8,8.05h.54v.71h.17V8.58h.18V8.4h.18v.36h.35v.71H6.05V9.11H5.87V8.94H5.16v.17H5v.36H4.8V8.76h.36V8.4H4.8Z" fill="#825131"/>
    <path d="M5.34,8.05h.71v.17H5.87V8.4H5.69v.18H5.51v.18H5.34Z" fill="#b3b3b9"/>
    <path d="M6.05,8.05h.17V8.4H5.87V8.22h.18Z" fill="#825131"/>
    <path d="M6.58,8.05h.36v.17H6.76V8.4H6.58Z" fill="#96e75a"/>
    <path d="M6.94,8.05H8V9.47H6.58V8.4h.18v.89H7.82V8.22H6.94Z" fill="#7dcc6a"/>
    <path d="M8.36,8.05h.17v.17h.18v.36H8.36Z" fill="#9f9fa8"/>
    <path d="M8.53,8.05h.18v.17H8.53Z" fill="#b3b3b9"/>
    <path d="M8.71,8.05h.36v.17H8.71Z" fill="#76767a"/>
    <path d="M9.78,8.05h.35v.17H9.78Zm.53,0h.36v.17h-.36Z" fill="#c74ebd"/>
    <path d="M11,8.05h.18v.17H11Z" fill="#825131"/>
    <path d="M11.2,8.05h.18v.17H11.2Z" fill="#a2754e"/>
    <path d="M11.38,8.05h.18v.17h-.18Z" fill="#c69065"/>
    <path d="M11.56,8.05h.17v.17h-.17Z" fill="#825131"/>
    <path d="M11.73,8.05h.18v.17h-.18Z" fill="#a2754e"/>
    <path d="M12.27,8.05h.18v.17h-.18Z" fill="#9f9fa8"/>
    <path d="M12.45,8.05h.17v.17h-.17Z" fill="#d13d41"/>
    <path d="M12.8,8.05h.36v.17H12.8Z" fill="#b3b3b9"/>
    <path d="M6.76,8.22H7.82V8.4H7.47v.36h.35v.53H6.76V8.76h.35V8.4H6.76Z" fill="#6baf5a"/>
    <path d="M8.71,8.22h.18V8.4H8.71Z" fill="#69696f"/>
    <path d="M8.89,8.22h.18V8.4H8.89Z" fill="#8398a7"/>
    <path d="M11,8.22h.18V8.4H11Z" fill="#c69065"/>
    <path d="M11.2,8.22h.18V8.4H11.2Z" fill="#825131"/>
    <path d="M11.38,8.22h.18V8.4h-.18Z" fill="#a2754e"/>
    <path d="M11.56,8.22h.17V8.4h-.17Z" fill="#9f9fa8"/>
    <path d="M11.73,8.22h.18V8.4h-.18Z" fill="#825131"/>
    <path d="M12.27,8.22h.35V8.4h-.35Z" fill="#b3b3b9"/>
    <path d="M3.2,8.4h.36v.36H3.2Zm.71,0h.36v.36H3.91Z" fill="#000"/>
    <path d="M4.8,8.4h.36v.18H4.8Zm1.07,0h.35v.18H5.87Z" fill="#b3b3b9"/>
    <path d="M6.76,8.4h.35v.36H6.76Zm.71,0h.35v.36H7.47Z" fill="#000"/>
    <path d="M8.71,8.4h.36v.18H8.71Z" fill="#4f88a5"/>
    <path d="M4.8,8.58H5v.18H4.8Z" fill="#000"/>
    <path d="M5,8.58h.18v.18H5Zm.89,0h.18v.18H5.87Z" fill="#fff"/>
    <path d="M6.05,8.58h.17v.18H6.05Z"/>
    <path d="M8.36,8.58h.35v.18H8.36Z" fill="#b3b3b9"/>
    <path d="M8.71,8.58h.36v.18H8.71Z" fill="#76767a"/>
    <path d="M9.78,8.58h.89v.53h-.18V8.94H10v.17H9.78Z" fill="#f69f3a"/>
    <path d="M11,8.58h.89v.53h-.18V8.94H11.2v.17H11Z" fill="#a05307"/>
    <path d="M12.27,8.58h.89v.89h-.89Z" fill="#bc9862"/>
    <path d="M3.56,8.76h.35v.18h.18v.53H3.91V9.29H3.56v.18H3.38V8.94h.18Z"/>
    <path d="M8.36,8.76h.35v.35H8.53v.18h.18v.18H8.36Z" fill="#9f9fa8"/>
    <path d="M8.71,8.76h.18v.18H8.71Z" fill="#4f88a5"/>
    <path d="M8.89,8.76h.18v.18H8.89Z" fill="#8398a7"/>
    <path d="M12.45,8.76h.17v.18h-.17Z" fill="#bc1616"/>
    <path d="M12.62,8.76h.18v.18h-.18Z" fill="#118e6b"/>
    <path d="M12.8,8.76H13v.18H12.8Z" fill="#315b8e"/>
    <path d="M5.16,8.94h.71v.17H5.16Z" fill="#b3b3b9"/>
    <path d="M7.29,8.94h.18v.17H7.29Z" fill="#000"/>
    <path d="M8.71,8.94h.36v.53H8.71V9.29h.18V9.11H8.71Z" fill="#69696f"/>
    <path d="M10,8.94h.53v.17h-.18v.18h.36v.18H9.78V9.29h.35V9.11H10Z" fill="#fcd8b0"/>
    <path d="M11.2,8.94h.53v.17h-.17v.18h.35v.18H11V9.29h.36V9.11H11.2Z" fill="#fac28c"/>
    <path d="M12.45,8.94H13v.17h-.53Z" fill="#2c2213"/>
    <path d="M5,9.11h.18v.36H5Z" fill="#b3b3b9"/>
    <path d="M5.16,9.11h.18v.18H5.16Z" fill="#000"/>
    <path d="M5.34,9.11h.35v.18h.18v.18H5.16V9.29h.18Z" fill="#494949"/>
    <path d="M5.69,9.11h.18v.18H5.69Z" fill="#000"/>
    <path d="M5.87,9.11h.18v.36H5.87Zm2.66,0h.18v.18H8.53Z" fill="#b3b3b9"/>
    <path d="M8.71,9.11h.18v.18H8.71Z" fill="#76767a"/>
    <path d="M9.78,9.11H10v.18H9.78Z" fill="#fffff6"/>
    <path d="M10,9.11h.17v.18H10Zm.35,0h.18v.18h-.18Z" fill="#679c2e"/>
    <path d="M10.49,9.11h.18v.18h-.18Zm.53,0h.18v.18H11Z" fill="#fffff6"/>
    <path d="M11.2,9.11h.18v.18H11.2Zm.36,0h.17v.18h-.17Z" fill="#a549c6"/>
    <path d="M11.73,9.11h.18v.18h-.18Z" fill="#fffff6"/>
    <path d="M12.45,9.11h.17v.18h-.17Z" fill="#bc1616"/>
    <path d="M12.62,9.11h.18v.18h-.18Z" fill="#a89b0a"/>
    <path d="M12.8,9.11H13v.18H12.8Z" fill="#315b8e"/>
    <path d="M3.56,9.29h.35v.18H3.56Z" fill="#7aa826"/>
    <path d="M8.71,9.47h.36v.35H8.71Z" fill="#1e6e8d"/>
    <path d="M3,9.82H3.2V10H3Z" fill="#ffde28"/>
    <path d="M3.2,9.82h.18V10H3.2Z" fill="#ffbe37"/>
    <path d="M3.38,9.82h.18V10H3.38Z" fill="#ffde28"/>
    <path d="M3.56,9.82h.18V10H3.56Z" fill="#ffbe37"/>
    <path d="M3.74,9.82h.17v.36H3.74v.36H3.56V10h.18Z" fill="#ffde28"/>
    <path d="M3.91,9.82h.18v.36h.18V10h.18v.71H3.2v-.17h.54v-.36h.17Z" fill="#ffbe37"/>
    <path d="M4.09,9.82h.36V10H4.27v.18H4.09Z" fill="#ffde28"/>
    <path d="M4.8,9.82H6.22V10H4.8Z" fill="#cfcfcf"/>
    <path d="M6.58,9.82H8V10H7.82v.18H7.65v.18H7.47v.18h.18v-.18h.17v-.18H8v.36H7.82v.35H8v.36H6.58v-.36h.18v-.35H6.58v-.36h.18V10H6.58Z"/>
    <path d="M8.36,9.82h.35V10H8.53v.89H8.36Z" fill="#242424"/>
    <path d="M8.71,9.82h.36V10H8.71Z" fill="#191919"/>
    <path d="M9.78,9.82h.89v.89H9.78Z" fill="#5a4b3a"/>
    <path d="M11,9.82h.89v.36H11Z" fill="#157b4a"/>
    <path d="M12.27,9.82h.89v.36H13V10H12.8v.36h-.18V10h-.17v.18h-.18Z" fill="#b3b3b9"/>
    <path d="M3,10H3.2v.54H3Z" fill="#ffbe37"/>
    <path d="M3.2,10h.18v.18H3.2Z" fill="#ffde28"/>
    <path d="M3.38,10h.18v.36H3.38Z" fill="#ffbe37"/>
    <path d="M4.8,10H6.22v.18H4.8Z" fill="#d8c5b8"/>
    <path d="M6.58,10h.18v.18H6.58Zm1.24,0H8v.18H7.82Z" fill="#d13d41"/>
    <path d="M8.53,10h.18v.71H8.53Z" fill="#707070"/>
    <path d="M8.71,10h.36v.18H8.89v.18H8.71Z" fill="#4b4b4b"/>
    <path d="M10,10h.17v.18H10Z" fill="#d08324"/>
    <path d="M10.13,10h.18v.36h-.18Z" fill="#c2c2c2"/>
    <path d="M10.31,10h.18v.18h-.18Z" fill="#d08324"/>
    <path d="M12.45,10h.17v.18h-.17Zm.35,0H13v.18H12.8Z" fill="#fffff6"/>
    <path d="M3.2,10.18h.18v.18H3.2Z" fill="#ffc427"/>
    <path d="M4.8,10.18H6.22v.18H4.8Z" fill="#6d5749"/>
    <path d="M6.76,10.18h.18v.18H6.76Zm.89,0h.17v.18H7.65Z" fill="#d13d41"/>
    <path d="M8.89,10.18h.18v.36H8.71v-.18h.18Z" fill="#191919"/>
    <path d="M11,10.18h.89v.18h-.35v.18h.35v.17H11v-.17h.36v-.18H11Z" fill="#7aa826"/>
    <path d="M12.27,10.18h.18v.18h-.18Z" fill="#fffff6"/>
    <path d="M12.45,10.18h.17v.18h-.17Zm.35,0H13v.18H12.8Z"/>
    <path d="M13,10.18h.18v.18H13Z" fill="#fffff6"/>
    <path d="M3.2,10.36h.18v.18H3.2Z" fill="#ffff84"/>
    <path d="M3.38,10.36h.18v.18H3.38Zm.53,0h.18v.18H3.91Z" fill="#310e0b"/>
    <path d="M4.09,10.36h.18v.18H4.09Z" fill="#ffff84"/>
    <path d="M4.8,10.36H5v.53h.71v.18h.36v-.71h.17v.89H5.34v-.18H5v.18H4.8Z" fill="#d8c5b8"/>
    <path d="M5,10.36h.36v.35H5.16v-.17H5Z" fill="#000"/>
    <path d="M5.34,10.36h.17v.18H5.34Z" fill="#d8c5b8"/>
    <path d="M5.51,10.36h.18v.53H5.34v-.35h.17Z" fill="#c0a189"/>
    <path d="M5.69,10.36h.36v.18H5.87v.17H5.69Z"/>
    <path d="M6.94,10.36h.17v.18H6.94Zm.53,0h.18v.18H7.47Z" fill="#d13d41"/>
    <path d="M10,10.36h.53v.18H10Z" fill="#d08324"/>
    <path d="M11,10.36h.36v.18H11Zm.54,0h.35v.18h-.35Z" fill="#2c2213"/>
    <path d="M12.27,10.36h.18v.35h-.18Z" fill="#c69065"/>
    <path d="M12.45,10.36h.17v.18h.18v-.18H13v.35h-.53Z" fill="#fad6b6"/>
    <path d="M12.62,10.36h.18v.18h-.18Z"/>
    <path d="M13,10.36h.18v.35H13Z" fill="#c69065"/>
    <path d="M3,10.54H3.2v.17h.36v.18H3.2v.18H3Z" fill="#8b3401"/>
    <path d="M5,10.54h.18v.17H5Zm.89,0h.18v.17H5.87Z" fill="#89132f"/>
    <path d="M6.58,10.54h.18v.35H6.58Zm1.24,0H8v.35H7.82Z" fill="#d13d41"/>
    <path d="M8.71,10.54h.36v.17H8.71Z" fill="#4b4b4b"/>
    <path d="M3.56,10.71h.35v.18h.18v.18h.18v-.18h.18v.36H3v-.18H3.2v-.18h.36Z" fill="#3e0a08"/>
    <path d="M3.91,10.71h.54v.18H4.27v.18H4.09v-.18H3.91Z" fill="#8b3401"/>
    <path d="M5,10.71h.36v.18H5Zm.71,0h.36v.18H5.69Z" fill="#6d5749"/>
    <path d="M6.94,10.71h.71v.36H6.94Z" fill="#d13d41"/>
    <path d="M8.53,10.71h.18v.18H8.53Z" fill="#ababab"/>
    <path d="M8.71,10.71h.36v.18H8.71Z" fill="#191919"/>
    <path d="M5.69,10.89h.36v.18H5.69Z" fill="#c0a189"/>
    <path d="M8.36,10.89h.17v.36H8.36Z" fill="#ababab"/>
    <path d="M8.53,10.89h.18v.36H8.53Z" fill="#242424"/>
    <path d="M8.71,10.89h.18v.18H8.71Z" fill="#870202"/>
    <path d="M8.89,10.89h.18v.36H8.71v-.18h.18Z" fill="#a6a602"/>
    <path d="M5,11.07h.36v.18H5Z" fill="#ddc9b9"/>
    <path d="M9.78,11.07h.89V12h-.18V11.6h-.18v-.18h-.18v-.17H10v.17h.17v.18H10V12H9.78Z" fill="#7aa826"/>
    <path d="M11,11.07h.89v.18h-.18v.17h-.17v.18h.17v.18H11.2V11.6h.18v-.18H11.2v-.17H11Z" fill="#000"/>
    <path d="M12.27,11.07h.89v.35h-.89Z" fill="#fac28c"/>
    <path d="M8.71,11.25h.36v.89H8.71Z" fill="#1e6e8d"/>
    <path d="M10,11.25h.17v.17H10Zm.35,0h.18v.17h-.18Z"/>
    <path d="M11,11.25h.18v.17H11Zm.71,0h.18v.17h-.18Z" fill="#d13d41"/>
    <path d="M10.13,11.42h.18v.18h.18V12h-.18v-.18h-.18V12H10V11.6h.17Zm.89,0h.18v.18H11Z"/>
    <path d="M11.2,11.42h.18v.18H11.2Zm.36,0h.17v.18h-.17Z" fill="#d13d41"/>
    <path d="M11.73,11.42h.18v.18h-.18Z" fill="#000"/>
    <path d="M12.27,11.42h.89v.18h-.89Z" fill="#c69065"/>
    <path d="M11,11.6h.18v.18H11Zm.71,0h.18v.18h-.18Z" fill="#d13d41"/>
    <path d="M12.27,11.6h.18v.18h-.18Z" fill="#fffff6"/>
    <path d="M12.45,11.6h.17v.18h-.17Z" fill="#679c2e"/>
    <path d="M12.62,11.6h.18V12h-.18Z" fill="#825131"/>
    <path d="M12.8,11.6H13v.18H12.8Z" fill="#679c2e"/>
    <path d="M13,11.6h.18v.18H13Z" fill="#fffff6"/>
    <path d="M10.13,11.78h.18V12h-.18Z" fill="#7aa826"/>
    <path d="M11,11.78h.18V12H11Z" fill="#000"/>
    <path d="M11.2,11.78h.53V12H11.2Z" fill="#d13d41"/>
    <path d="M11.73,11.78h.18V12h-.18Z" fill="#000"/>
    <path d="M12.27,11.78h.35V12h-.35Zm.53,0h.36V12H12.8Z" fill="#fac28c"/>
    <path d="M2.67,12.14H3v.35H2.67Z" fill="#2ba6d5"/>
    <path d="M3,12.14H8.71v.35H3Z" fill="#7ec9e4"/>
    <path d="M8.71,12.14h.36v.35H8.71Z" fill="#548596"/>
    <path d="M9.42,12.14h.36v.35H9.42Z" fill="#2ba6d5"/>
    <path d="M9.78,12.14h3.55v.35H9.78Z" fill="#7ec9e4"/>
    <path d="M13.33,12.14h.36v.35h-.36Z" fill="#2ba6d5"/>
    <path d="M8.71,12.49h.36v1.6H8.71Z" fill="#909894"/>
    <path d="M5.87,12.67h.89v.18h.18v.88H6.76v.18H5.87v-.18H5.69v-.88h.18Zm5.33,0h.71v.18h.18v.71h-.18v.17H11.2v-.17H11v-.71h.18Z" fill="#9f9fa8"/>
    <path d="M6.05,12.85h.53V13h.18v.54H6.58v.17H6.05v-.17H5.87V13h.18Zm5.33,0h.35V13h.18v.36h-.18v.18h-.35v-.18H11.2V13h.18Z" fill="#dae7e1"/>
    <path d="M9.07,13.73h.18v.18h.17v.36h4.27v-.36h.18v-.18H14v.54h-.17v.18H9.25v-.18H9.07Zm-6.76.18h.18v.18h.18v.36H8.89v.17H2.49v-.17H2.31Z" fill="#9f9fa8"/>
    <path d="M9.42,13.91h.36v.36H9.42Z" fill="#3f3f49"/>
    <path d="M9.78,13.91h3.55v.36H9.78Z" fill="#000"/>
    <path d="M13.33,13.91h.36v.36h-.36Zm-10.66.18H3v.36H2.67Z" fill="#3f3f49"/>
    <path d="M3,14.09H8.71v.36H3Z" fill="#000"/>
    <path d="M8.71,14.09h.36v.18h.18v.18H8.71Z" fill="#020202"/>
    <path d="M8.89,14.45h1.42v.17H8.89Z" fill="#69696f"/>
  </g>
</svg>
